<?xml version="1.0" standalone="no"?>
<!DOCTYPE svg PUBLIC "-//W3C//DTD SVG 20010904//EN"
 "http://www.w3.org/TR/2001/REC-SVG-20010904/DTD/svg10.dtd">
<svg version="1.0" xmlns="http://www.w3.org/2000/svg"
 width="1024.000000pt" height="645.000000pt" viewBox="0 0 1024.000000 645.000000"
 preserveAspectRatio="xMidYMid meet">
<metadata>
Created by potrace 1.16, written by Peter Selinger 2001-2019
</metadata>
<g transform="translate(0.000000,645.000000) scale(0.100000,-0.100000)"
fill="#000000" stroke="none">
<path d="M7231 5045 c-1 -15 -3 -17 -10 -6 -7 11 -11 10 -20 -5 -10 -18 -12
-18 -21 -1 -6 9 -15 17 -21 17 -5 0 -9 -8 -7 -17 4 -24 -44 -30 -66 -8 -10 11
-16 12 -16 4 0 -6 8 -18 18 -25 15 -12 15 -13 1 -14 -9 0 -22 -11 -29 -25 -10
-19 -16 -22 -22 -13 -5 8 -6 2 -2 -14 4 -17 2 -28 -4 -28 -22 0 -42 13 -42 26
0 8 -4 14 -10 14 -5 0 -10 -5 -10 -11 0 -6 -7 -8 -16 -5 -9 3 -21 3 -27 -1
-12 -8 -29 -10 -92 -16 -25 -2 -31 -7 -33 -30 -3 -25 -7 -28 -28 -23 -29 8
-84 -18 -84 -39 0 -8 -7 -15 -16 -15 -10 0 -14 6 -10 15 3 10 -1 15 -12 16
-34 2 -39 4 -56 22 -22 21 -86 11 -86 -14 0 -6 4 -8 9 -5 15 10 34 -23 28 -50
-3 -19 -1 -24 10 -20 8 3 17 6 19 6 2 0 4 7 4 15 0 17 45 21 55 5 3 -5 15 -10
26 -10 23 0 23 0 5 -35 -21 -40 -53 -60 -72 -44 -8 6 -45 14 -82 16 -37 1
-107 5 -157 8 -49 2 -107 6 -128 9 -20 2 -40 -1 -43 -6 -4 -7 -9 -7 -13 0 -3
5 -19 11 -36 12 -45 3 -57 1 -51 -9 3 -5 -1 -11 -9 -15 -22 -8 -18 -24 8 -29
12 -2 -2 -5 -30 -6 -60 -1 -73 -20 -15 -22 20 -1 48 -5 62 -10 22 -8 21 -8 -7
-4 -18 2 -48 1 -65 -2 -28 -6 -19 -9 52 -18 52 -7 92 -8 104 -2 11 6 21 5 25
-1 3 -5 33 -12 66 -15 158 -14 162 -31 5 -22 -165 8 -203 7 -228 -9 -7 -4 -12
-3 -12 3 0 5 -15 8 -32 7 -20 -1 -32 -6 -31 -14 2 -6 -6 -12 -16 -12 -11 0
-21 -5 -23 -11 -2 -5 -23 -12 -46 -15 -42 -5 -42 -4 -25 13 10 11 20 15 21 11
6 -13 22 -9 22 6 0 18 -15 22 -72 21 -27 0 -48 2 -48 6 0 4 -12 6 -27 6 -16 0
-23 -2 -16 -4 7 -2 9 -11 7 -18 -3 -8 -2 -20 2 -27 6 -9 10 -6 16 12 6 20 7
19 3 -7 -5 -36 0 -38 39 -23 15 5 26 6 26 0 0 -5 10 -10 23 -12 12 -2 -15 -4
-60 -5 -47 -1 -83 2 -83 8 0 5 -7 9 -15 9 -8 0 -15 -4 -15 -9 0 -5 -18 -7 -41
-4 -27 4 -44 2 -49 -6 -5 -10 -17 -10 -44 -3 -20 6 -36 7 -36 2 0 -18 -63 -5
-77 17 -13 20 -13 21 6 16 15 -4 21 -1 21 11 0 9 7 16 16 16 10 0 14 -6 11
-14 -4 -9 2 -14 16 -14 12 0 29 -1 37 -3 9 -2 14 2 12 10 -2 9 2 11 15 6 10
-5 38 -10 62 -11 l45 -4 -23 21 c-19 18 -25 19 -32 8 -7 -11 -9 -10 -9 4 0 12
8 17 25 17 14 0 25 -4 25 -10 0 -5 6 -10 14 -10 9 0 12 7 9 18 -3 15 -16 19
-61 21 -31 1 -59 4 -64 7 -4 3 -8 0 -8 -6 0 -6 -4 -8 -10 -5 -18 11 -11 25 13
25 79 0 293 17 247 20 -30 1 -58 2 -61 2 -4 -1 -78 -2 -165 -2 -104 -1 -164
-6 -173 -13 -12 -9 -13 -9 -7 1 5 8 -1 12 -21 13 -17 1 -21 3 -10 6 27 7 20
22 -10 19 -16 -1 -33 5 -40 14 -10 13 -14 13 -27 -5 -8 -11 -16 -15 -16 -10 0
6 -5 3 -10 -5 -6 -10 -10 -11 -10 -2 0 8 -21 12 -69 12 -66 0 -70 1 -80 28
-10 25 -10 25 -8 3 2 -20 -5 -26 -39 -36 -23 -7 -48 -9 -56 -4 -8 4 -20 4 -27
0 -7 -4 -24 -6 -38 -3 -21 4 -24 9 -20 31 3 14 -4 45 -16 71 -26 57 -25 56
-39 42 -8 -8 -6 -15 6 -27 22 -23 20 -32 -3 -11 -10 9 -25 14 -33 11 -10 -4
-17 1 -21 14 -5 21 -41 30 -51 13 -9 -16 -105 -4 -131 16 -30 24 -31 30 -7 48
15 12 15 13 1 14 -9 0 -22 7 -29 15 -10 12 -14 12 -26 0 -18 -18 -18 -23 2
-21 9 0 19 -5 22 -13 4 -11 -2 -13 -26 -8 -20 4 -34 1 -42 -8 -7 -8 -9 -15 -4
-15 22 -1 -62 -30 -87 -30 -15 0 -30 -4 -33 -9 -8 -12 -66 -20 -66 -9 0 5 7
11 15 14 13 5 13 9 3 21 -7 9 -11 28 -10 44 3 21 -1 29 -12 29 -9 0 -16 -7
-16 -15 0 -22 -40 -41 -51 -24 -5 8 -9 17 -9 20 0 12 -50 6 -61 -7 -16 -20
-27 -17 -34 7 -9 29 -52 43 -71 24 -9 -8 -23 -15 -33 -15 -9 0 -21 -4 -27 -10
-6 -6 -21 -6 -43 0 -28 8 -39 6 -62 -11 l-29 -20 0 21 c0 11 -8 23 -17 27 -10
3 -27 13 -37 22 -11 9 -17 11 -13 6 8 -15 -27 -35 -42 -26 -15 10 -61 2 -61
-10 0 -5 -5 -9 -11 -9 -7 0 -8 11 -4 31 5 21 4 29 -3 25 -6 -3 -13 -20 -17
-36 -7 -31 -14 -36 -30 -21 -6 6 -27 3 -54 -6 -43 -14 -45 -14 -62 8 -15 20
-19 21 -33 9 -13 -10 -20 -10 -28 -2 -20 20 -32 10 -36 -33 0 -5 -9 -12 -19
-16 -15 -6 -15 -8 -2 -8 27 -1 19 -60 -8 -67 -13 -4 -23 -12 -23 -20 0 -10
-12 -14 -37 -13 -31 0 -34 2 -18 9 17 7 15 9 -12 9 -17 1 -35 -4 -39 -11 -4
-6 -3 -8 4 -4 6 3 14 1 17 -5 5 -7 -3 -10 -21 -8 -16 1 -36 -1 -45 -5 -10 -4
-25 -6 -34 -4 -10 2 -20 -3 -22 -9 -4 -12 59 -20 107 -14 8 1 25 2 38 3 12 0
25 4 28 9 3 5 9 9 15 9 15 0 10 -22 -8 -37 -17 -13 -16 -14 4 -8 15 4 23 1 26
-12 4 -15 6 -14 13 6 7 23 8 24 15 5 7 -18 8 -17 8 4 1 21 21 33 21 12 0 -5
13 -10 29 -10 17 0 31 -6 35 -16 3 -8 2 -13 -3 -10 -5 3 -12 -2 -15 -11 -6
-15 -8 -15 -17 -3 -8 13 -10 13 -19 0 -6 -10 -10 -11 -10 -3 0 16 -95 12 -112
-5 -8 -8 -14 -8 -22 4 -7 8 -29 16 -53 17 -23 0 -39 5 -37 9 3 4 -6 4 -19 -1
-22 -8 -24 -7 -20 10 4 13 0 19 -11 19 -10 0 -15 -4 -12 -9 3 -5 -1 -12 -9
-15 -18 -7 -31 -4 -28 6 2 5 -9 8 -25 7 -23 0 -24 -1 -7 -8 17 -7 15 -9 -15
-14 -19 -4 -65 -9 -102 -11 -37 -2 -100 -7 -140 -11 -161 -14 -188 -14 -188 1
0 8 -4 14 -10 14 -5 0 -10 -7 -10 -15 0 -25 -31 -34 -76 -20 -46 14 -74 13
-117 -4 -16 -6 -33 -9 -38 -5 -17 10 -99 -8 -99 -22 0 -8 5 -14 11 -14 5 0 8
3 5 8 -6 10 68 13 114 5 l35 -6 -40 -13 -40 -14 65 6 c46 3 61 2 50 -6 -8 -5
-29 -10 -45 -10 -17 0 -37 -6 -43 -12 -10 -10 -15 -10 -20 -1 -5 8 -19 9 -46
3 -46 -10 -53 -17 -38 -32 9 -9 12 -9 12 0 0 7 5 12 10 12 25 0 7 -28 -20 -32
-23 -4 -30 -1 -28 11 2 11 -3 15 -17 13 -43 -6 -120 -1 -123 8 -4 12 -32 13
-32 1 0 -5 9 -11 21 -14 11 -3 23 -15 26 -26 3 -12 14 -21 24 -21 11 0 19 -3
19 -7 0 -5 -33 -9 -73 -10 -110 -3 -135 -10 -152 -42 -8 -16 -11 -31 -8 -35 4
-3 -1 -6 -10 -6 -10 0 -17 -4 -17 -9 0 -5 9 -7 20 -4 11 3 20 0 20 -6 0 -6
-12 -11 -28 -11 -15 0 -42 -4 -60 -9 -20 -6 -30 -6 -27 0 7 10 -83 4 -93 -6
-3 -3 0 -11 6 -17 7 -7 12 -19 12 -27 0 -12 -6 -9 -19 8 -19 25 -47 21 -37 -5
8 -21 -11 -27 -23 -7 -6 10 -11 14 -11 8 0 -5 -5 -3 -10 5 -8 13 -10 12 -10
-2 0 -20 -25 -24 -35 -8 -5 8 -11 7 -21 -1 -7 -6 -20 -9 -27 -6 -17 7 -42 -8
-42 -25 0 -7 -8 -14 -18 -16 -16 -3 -17 -1 -7 17 9 18 8 21 -9 21 -22 0 -36
-26 -18 -34 7 -2 -7 -5 -30 -5 -24 -1 -43 -5 -43 -10 0 -12 67 -34 79 -27 5 4
14 -2 20 -11 6 -10 11 -13 11 -8 0 12 77 12 102 1 16 -7 16 -9 2 -23 -13 -13
-13 -17 -2 -24 9 -6 7 -9 -9 -9 -16 0 -21 4 -17 15 4 10 0 15 -11 15 -11 0
-15 -5 -11 -15 3 -8 1 -15 -4 -15 -6 0 -10 -6 -10 -14 0 -8 -10 -14 -22 -14
-48 -1 -210 -20 -215 -25 -3 -3 25 -6 62 -6 37 0 73 -5 81 -12 8 -6 17 -9 21
-5 3 3 1 6 -5 6 -7 0 -12 4 -12 8 0 5 13 7 29 4 17 -2 28 -9 25 -16 -5 -13
-54 -38 -54 -27 0 14 -109 4 -133 -12 -14 -9 -34 -13 -46 -10 -12 3 -21 1 -21
-6 0 -6 19 -12 43 -12 23 -1 56 -5 72 -10 l30 -8 -34 2 c-20 1 -36 -3 -38 -10
-3 -9 8 -13 34 -15 l38 -1 -45 -7 -45 -7 40 -3 c22 -1 45 -3 50 -5 6 -1 16 -3
23 -3 6 -1 12 -6 12 -11 0 -4 -12 -6 -26 -3 -18 3 -25 1 -24 -9 2 -8 2 -21 1
-29 -1 -13 -4 -12 -14 2 -18 24 -52 28 -51 6 1 -10 -5 -18 -13 -18 -9 0 -12
-6 -9 -18 5 -16 2 -18 -24 -14 -19 3 -30 0 -30 -8 0 -7 8 -10 18 -8 24 7 45
-15 29 -31 -8 -8 -5 -11 13 -12 l25 0 -25 -11 c-24 -10 -24 -10 -5 -18 11 -5
15 -9 9 -9 -7 -1 -15 -8 -18 -17 -5 -13 -1 -15 19 -10 19 5 23 3 19 -9 -5 -11
-2 -13 10 -9 12 5 15 2 10 -10 -4 -11 -11 -13 -23 -6 -12 6 -22 5 -29 -2 -15
-15 -15 -28 -2 -28 6 0 10 8 10 17 0 14 3 14 20 -5 22 -23 26 -42 10 -42 -5 0
-10 -5 -10 -11 0 -7 15 -10 40 -7 22 2 40 0 40 -4 0 -5 -11 -8 -24 -8 -13 0
-29 -6 -35 -14 -11 -13 -6 -15 30 -14 30 0 46 -5 56 -18 7 -10 13 -12 13 -5 0
7 5 9 11 6 16 -10 4 -17 -35 -19 -29 -1 -33 1 -23 14 10 13 10 13 -4 2 -11 -8
-37 -10 -80 -7 -44 3 -56 2 -39 -4 14 -5 18 -10 10 -10 -13 -1 -13 -2 0 -11 9
-6 17 -5 22 3 6 9 11 8 18 -4 6 -11 18 -15 35 -11 14 2 25 0 25 -6 0 -13 -39
-22 -70 -16 -16 3 -19 2 -9 -3 9 -5 15 -16 13 -25 -1 -10 2 -18 7 -18 5 0 9 7
9 15 0 8 5 15 11 15 5 0 8 -4 5 -9 -8 -12 18 -21 60 -21 27 0 34 -4 34 -19 0
-10 -7 -22 -16 -25 -8 -3 -12 -10 -9 -16 3 -5 -2 -10 -13 -10 -10 0 -24 -10
-31 -22 l-11 -23 6 23 c3 12 1 22 -5 22 -6 0 -11 -8 -11 -17 0 -15 -2 -14 -14
2 -8 11 -12 23 -10 27 3 5 -3 8 -12 8 -14 0 -15 -3 -6 -12 17 -17 15 -29 -3
-22 -8 4 -15 3 -15 -1 0 -12 34 -34 53 -35 9 0 17 -8 17 -17 0 -13 3 -14 11
-6 7 7 26 10 43 7 23 -4 27 -3 16 5 -19 13 -6 26 17 16 10 -5 25 -7 33 -6 12
1 12 0 2 -7 -10 -7 -11 -14 -1 -35 7 -15 16 -27 21 -27 11 0 10 18 -1 22 -5 2
-3 12 5 22 14 19 14 19 14 -2 0 -12 9 -26 20 -32 16 -9 20 -8 20 6 0 10 3 15
6 11 3 -3 3 -15 -1 -27 -5 -15 -13 -20 -26 -17 -15 4 -19 0 -19 -18 0 -21 -5
-24 -47 -27 -49 -3 -75 -28 -29 -28 14 0 26 -5 26 -10 0 -7 7 -7 22 1 17 9 20
9 15 -4 -4 -11 0 -13 14 -10 12 4 19 0 19 -10 0 -8 9 -17 20 -20 11 -3 20 -10
20 -17 0 -7 -8 -9 -22 -5 -25 8 -25 8 -51 6 -24 -1 -16 -26 9 -27 48 -3 50 -4
34 -14 -11 -8 -8 -9 11 -4 15 3 30 1 33 -5 4 -6 12 -11 17 -11 6 0 7 5 4 10
-3 6 -1 10 4 10 14 0 14 -17 1 -25 -5 -3 -10 -15 -10 -26 0 -10 -4 -19 -9 -19
-5 0 -7 9 -4 19 4 16 -2 19 -42 23 -26 2 -49 0 -51 -4 -3 -5 2 -8 10 -8 9 0
16 -6 16 -13 0 -7 10 -14 22 -14 13 -1 27 -8 33 -16 5 -8 15 -12 22 -10 7 3
20 0 30 -6 10 -6 13 -11 7 -11 -7 0 -14 -6 -17 -14 -4 -11 3 -13 36 -9 33 4
39 3 31 -7 -7 -6 -28 -13 -48 -15 -48 -5 -66 -16 -40 -26 15 -6 14 -8 -10 -8
-16 -1 -26 -4 -22 -8 7 -7 26 -10 89 -14 23 -1 37 -7 37 -16 0 -7 -6 -13 -12
-14 -7 -1 -2 -4 12 -8 14 -4 27 -4 30 -1 11 15 58 20 63 7 4 -10 -4 -12 -27
-10 -17 2 -25 0 -18 -3 19 -9 4 -24 -26 -25 -15 0 -21 -3 -14 -6 6 -2 12 -9
12 -14 0 -6 -4 -8 -9 -5 -5 3 -11 -2 -14 -13 -2 -10 -14 -21 -26 -24 -17 -4
-21 -2 -16 12 3 12 0 18 -10 18 -9 0 -14 -6 -11 -14 3 -7 2 -12 -2 -12 -4 1
-23 1 -42 0 -48 -2 -19 -21 32 -21 38 0 55 -20 43 -52 -3 -8 0 -20 8 -26 11
-9 13 -7 13 11 -1 16 6 23 21 25 13 2 23 8 23 13 0 5 4 9 8 9 4 0 6 -16 4 -35
-2 -19 -9 -35 -14 -35 -6 0 -8 -6 -5 -14 8 -19 -32 -9 -59 16 -21 19 -22 19
-28 -7 -4 -14 -10 -24 -14 -21 -4 2 -19 -4 -32 -15 l-25 -19 25 1 c30 0 65 24
55 38 -3 6 -1 11 4 11 6 0 11 -5 11 -11 0 -5 5 -7 10 -4 6 3 10 2 10 -4 0 -5
-9 -13 -20 -16 -35 -11 -11 -25 41 -25 57 0 66 -23 11 -28 -20 -2 -32 -9 -32
-18 0 -8 5 -14 10 -14 6 0 10 4 10 8 0 5 13 9 29 10 22 0 28 -3 24 -14 -3 -8
0 -14 5 -14 16 0 24 18 12 25 -5 3 -10 13 -10 21 0 8 5 12 11 8 6 -3 10 1 9
12 -4 32 -1 44 11 44 5 0 8 -4 5 -9 -3 -5 1 -14 9 -21 20 -17 19 -27 -4 -33
-14 -3 -18 -12 -15 -36 2 -20 0 -30 -7 -26 -6 4 -8 -3 -4 -22 5 -21 4 -24 -4
-13 -9 13 -11 13 -11 -2 0 -9 -4 -18 -8 -20 -4 -1 -2 -14 4 -28 12 -22 14 -22
20 -6 4 11 2 21 -7 27 -9 5 -10 9 -2 9 6 0 18 3 26 6 9 3 16 -3 20 -15 3 -13
0 -21 -7 -21 -15 0 -56 -42 -56 -58 0 -19 20 -24 35 -8 8 8 12 21 9 29 -3 10
2 18 15 22 14 4 21 15 21 31 0 28 17 31 36 7 18 -25 17 -33 -3 -26 -15 5 -14
3 2 -10 17 -13 20 -13 23 -1 4 16 22 19 22 3 0 -5 4 -8 9 -5 11 7 4 -28 -15
-71 -18 -40 -18 -48 1 -29 8 8 15 19 15 25 0 6 5 11 10 11 6 0 10 7 10 15 0
15 12 20 22 9 3 -3 3 -17 -2 -32 -6 -22 -2 -32 23 -54 17 -16 38 -27 46 -27
13 1 12 2 -2 6 -9 2 -17 8 -17 13 0 20 13 40 27 40 8 0 29 11 47 25 34 26 56
32 56 15 0 -5 -6 -10 -12 -10 -9 0 -9 -3 1 -9 12 -8 12 -12 -2 -26 -18 -18
-23 -40 -7 -30 6 3 10 1 10 -4 0 -6 9 -11 20 -11 21 0 27 -15 10 -25 -5 -3
-10 -1 -10 5 0 6 -4 9 -9 6 -5 -3 -7 -15 -4 -26 7 -25 38 -23 38 2 0 29 14 32
21 4 3 -14 13 -26 21 -26 12 0 12 3 -2 16 -10 10 -15 29 -13 48 2 21 -1 30 -9
29 -7 -2 -13 2 -13 7 0 21 36 8 56 -21 21 -30 22 -30 27 -7 7 25 41 35 53 16
4 -6 10 -5 15 3 7 11 9 10 9 -3 0 -14 -8 -18 -35 -18 -33 0 -34 -1 -25 -25 6
-16 6 -25 0 -25 -5 0 -6 -8 -3 -17 5 -13 9 -11 17 13 6 17 19 30 31 32 12 2
16 0 9 -5 -16 -12 -24 -42 -14 -48 6 -4 10 0 10 7 0 10 3 9 9 -2 6 -8 8 -17 5
-21 -2 -4 0 -10 5 -13 5 -3 11 3 14 14 3 11 1 20 -5 20 -5 0 -6 5 -3 10 5 8
11 7 21 0 11 -10 11 -16 -3 -36 -19 -29 -11 -43 13 -23 15 12 16 10 11 -21 -6
-46 -14 -78 -22 -90 -8 -13 14 -42 26 -34 5 3 9 -4 9 -15 0 -12 -5 -21 -12
-21 -6 0 -8 -3 -4 -7 11 -11 36 26 29 43 -4 12 0 14 21 8 17 -4 26 -2 26 6 0
10 3 10 14 1 11 -9 15 -9 18 1 3 7 8 -6 12 -30 4 -26 10 -40 17 -36 6 3 19 -3
30 -15 24 -25 24 -35 2 -27 -15 6 -15 5 1 -13 11 -12 28 -18 47 -17 35 3 39
-16 7 -32 -18 -8 -19 -11 -5 -11 9 -1 17 -5 17 -11 0 -5 5 -10 11 -10 8 0 8 4
0 14 -9 11 -9 16 0 22 7 4 15 2 17 -5 3 -8 8 -6 18 6 12 17 13 17 8 -3 -4 -14
-1 -21 10 -21 8 0 13 4 10 9 -3 4 0 16 5 25 6 11 11 13 11 5 0 -10 3 -10 14 0
7 7 12 18 9 23 -5 14 -43 17 -43 3 0 -6 -3 -8 -7 -5 -3 4 4 17 17 29 21 20 24
20 35 5 16 -23 25 -21 25 4 0 12 4 17 11 13 8 -4 9 3 4 25 -5 26 -4 30 9 25
11 -4 16 0 16 14 0 11 8 26 17 33 14 12 16 12 8 0 -4 -7 -9 -23 -10 -35 -1
-11 -3 -25 -4 -30 0 -4 -8 -5 -17 -2 -14 5 -15 4 -4 -9 10 -13 10 -19 -4 -34
-16 -17 -16 -19 2 -23 15 -4 19 0 19 22 0 31 23 60 47 60 22 0 29 18 9 22 -17
3 -17 4 0 11 14 5 20 0 29 -23 7 -21 16 -30 31 -29 21 0 20 1 -3 10 -33 14 -9
28 39 24 20 -2 41 1 48 7 7 6 13 6 13 2 0 -13 82 -14 97 -2 7 5 17 7 23 3 17
-10 71 -19 105 -17 49 3 165 -20 165 -33 0 -21 -13 -25 -26 -7 -12 15 -13 15
-9 -6 2 -12 -1 -22 -6 -22 -6 0 -3 -7 6 -16 13 -13 35 -17 93 -16 42 0 82 1
87 2 27 6 43 -1 41 -17 -2 -12 -10 -17 -26 -15 -15 3 -21 -1 -18 -10 5 -14 18
-16 111 -19 33 -1 57 -6 57 -12 0 -7 4 -7 12 1 16 16 43 15 58 -3 9 -10 9 -15
1 -15 -6 0 -11 5 -11 12 0 9 -3 9 -11 1 -19 -19 8 -73 35 -72 20 0 21 1 1 9
-13 6 -15 9 -5 9 8 1 21 10 28 21 10 17 10 20 -3 20 -8 0 -15 7 -15 15 0 8 8
15 18 15 20 0 95 20 90 24 -1 2 -16 6 -31 10 -20 5 -27 3 -22 -5 6 -8 2 -8
-12 0 -11 5 -38 8 -59 5 l-39 -4 43 14 c24 8 59 12 77 10 29 -3 34 -1 29 13
-5 14 -4 15 4 4 5 -7 31 -16 57 -18 47 -6 45 -23 -2 -23 -13 0 -23 -4 -23 -8
0 -13 158 -13 166 -1 5 8 9 8 14 0 4 -7 23 -13 42 -14 20 -1 34 -5 32 -9 -2
-3 1 -8 8 -10 6 -2 -14 -10 -45 -17 -66 -15 -74 -27 -18 -27 22 0 40 2 39 5
-2 19 4 24 12 11 8 -12 12 -12 18 -2 10 15 45 5 39 -12 -2 -6 -20 -11 -39 -12
-19 -1 -47 -4 -62 -8 -14 -3 -26 -3 -26 2 0 4 -9 8 -20 9 -11 1 -20 -1 -20 -5
0 -12 38 -41 44 -35 3 4 15 -2 26 -12 17 -16 20 -16 20 -2 0 18 18 32 28 22 3
-3 0 -10 -8 -15 -11 -7 -9 -10 12 -10 15 0 44 11 64 25 39 27 75 33 70 12 -1
-6 -1 -9 1 -4 3 4 12 7 21 7 10 0 24 5 32 10 12 7 10 11 -10 19 -14 5 -19 10
-12 10 6 1 12 12 12 26 0 19 5 24 20 22 11 -2 23 -6 26 -10 4 -4 12 -7 18 -7
6 0 3 5 -6 11 -10 5 -18 14 -18 19 0 15 27 12 33 -4 7 -17 76 -13 88 5 11 19
0 32 -17 18 -8 -7 -14 -7 -14 -1 0 10 23 22 41 22 5 0 9 -11 9 -25 0 -21 4
-25 23 -22 38 7 56 18 50 33 -3 9 1 14 12 14 12 0 15 -5 10 -19 -8 -26 10 -35
30 -14 16 15 19 15 51 -2 23 -12 38 -15 46 -8 21 16 56 13 61 -5 3 -10 5 -5 6
10 0 16 4 27 9 27 27 -5 41 3 36 19 -5 16 -5 16 9 -1 14 -16 47 -15 47 3 0 4
11 7 25 6 25 -1 36 -16 13 -16 -9 0 -8 -3 2 -10 10 -6 6 -9 -16 -8 -36 1 -57
-9 -48 -23 3 -5 9 -7 14 -4 11 7 60 -5 60 -14 0 -3 -18 -19 -40 -35 -22 -17
-40 -33 -40 -37 0 -10 58 -17 72 -8 7 4 17 5 22 1 16 -9 106 -8 106 1 0 24
-41 44 -95 46 -17 1 -18 3 -5 11 12 8 12 12 2 18 -8 6 -2 9 18 9 18 0 35 5 39
11 4 6 12 8 20 3 18 -12 51 -2 51 15 0 8 -7 11 -17 8 -15 -5 -16 -4 -3 5 9 6
92 11 210 12 331 3 392 1 403 -10 8 -8 6 -11 -6 -11 -9 0 -17 -5 -17 -11 0 -6
7 -9 15 -5 8 3 15 0 16 -7 0 -7 5 -1 10 12 8 20 14 22 47 18 70 -11 102 -19
102 -28 0 -12 103 2 113 15 5 8 9 7 15 -1 5 -8 53 -14 147 -17 102 -4 142 -9
153 -20 15 -15 8 -41 -9 -31 -5 4 -9 0 -9 -8 0 -8 -7 -18 -16 -21 -11 -4 -14
0 -12 17 3 20 -1 22 -32 19 -19 -1 -36 -7 -38 -12 -2 -6 -14 -10 -27 -10 -13
0 -27 -5 -31 -11 -4 -7 -22 -9 -53 -4 -25 4 -59 7 -76 7 -16 -1 -37 2 -45 5
-28 11 -45 12 -51 2 -3 -6 -11 -4 -19 6 -8 10 -9 15 -1 15 6 0 11 4 11 9 0 5
-9 7 -20 4 -11 -3 -20 -9 -20 -14 0 -12 -77 -12 -82 0 -5 15 -53 18 -51 4 2
-7 -3 -13 -11 -13 -8 0 -23 -3 -33 -7 -16 -6 -16 -5 -4 10 8 10 9 17 3 17 -6
0 -15 -6 -19 -13 -4 -8 -16 -17 -27 -20 -14 -6 -17 -3 -12 8 7 19 5 19 -30 0
-27 -14 -29 -14 -32 5 -3 19 -22 29 -22 12 0 -12 -84 -32 -88 -21 -2 5 -23 9
-47 9 -32 0 -45 -5 -50 -17 -6 -17 -7 -17 -19 -1 -10 13 -15 15 -24 6 -9 -9
-12 -9 -12 0 0 17 -101 13 -122 -5 -11 -10 -18 -11 -23 -4 -3 6 0 12 7 12 7 1
0 4 -17 8 -16 4 -36 5 -42 3 -18 -6 -16 -22 2 -22 13 0 13 -3 3 -20 -7 -10 -9
-23 -5 -27 5 -4 12 -1 17 6 6 11 42 15 137 18 97 3 130 8 136 19 4 8 15 14 24
14 14 0 14 -2 -1 -19 -17 -19 -16 -19 23 -14 37 5 41 4 41 -17 0 -21 1 -22 25
-6 23 15 25 15 25 0 0 -10 3 -14 8 -10 4 4 7 13 7 19 0 7 14 12 30 12 23 0 29
-4 27 -18 -2 -12 4 -17 21 -17 13 0 27 3 30 7 12 12 57 12 57 0 0 -7 5 -4 11
6 13 23 51 22 72 -3 17 -21 47 -27 47 -10 0 5 18 14 39 20 22 6 41 16 44 23 3
8 12 5 28 -10 24 -21 72 -23 85 -2 7 13 54 11 54 -2 0 -5 -4 -7 -10 -4 -5 3
-10 1 -10 -4 0 -6 12 -11 28 -11 19 0 23 -3 13 -9 -19 -12 106 -25 175 -18 34
4 54 2 54 -5 0 -6 10 -8 21 -5 12 3 45 2 73 -3 28 -5 123 -12 211 -14 88 -2
167 -7 175 -10 33 -11 183 -15 225 -6 46 10 108 3 99 -11 -9 -15 6 -10 23 6
17 18 49 15 46 -3 -2 -7 2 -12 8 -12 6 0 9 7 5 15 -3 8 0 15 7 15 7 0 23 3 37
6 24 5 24 5 -3 -11 -15 -9 -25 -20 -22 -24 8 -14 53 -19 64 -8 8 8 11 7 11 -2
0 -10 3 -11 13 -2 8 6 17 8 21 4 4 -4 2 5 -3 20 -6 16 -7 26 -2 23 5 -4 11 -2
13 3 1 5 21 12 43 15 l40 6 -35 -12 c-40 -14 -54 -29 -38 -43 7 -7 12 -6 15 3
3 6 15 12 28 12 13 0 27 5 30 10 3 5 15 10 25 10 11 0 24 9 30 21 9 15 18 19
35 15 13 -3 27 -2 30 4 3 5 14 10 23 10 15 -1 14 -3 -3 -16 -20 -15 -19 -15 5
-12 14 2 26 9 26 16 3 25 5 27 14 12 8 -12 14 -12 45 3 40 19 58 22 35 6 -11
-8 -6 -9 20 -4 19 4 46 8 60 10 40 4 83 27 68 37 -8 5 -1 8 19 8 17 0 33 4 35
9 2 5 18 12 36 16 25 5 32 3 32 -9 0 -17 12 -21 24 -9 4 5 15 8 24 9 40 1 103
17 109 27 4 6 0 8 -10 4 -9 -3 -27 -3 -39 2 -21 8 -18 10 22 20 106 27 127 34
159 59 19 14 45 27 59 28 34 4 41 14 10 14 -14 0 -42 -7 -61 -15 -47 -20 -68
-19 -60 1 3 8 12 13 19 10 7 -3 16 -1 19 4 3 5 -3 11 -12 13 -10 2 -1 3 20 0
22 -2 36 1 33 6 -10 16 21 32 53 26 26 -4 36 0 56 22 13 16 25 23 25 17 0 -15
152 -7 161 8 4 6 21 9 38 6 28 -4 31 -2 37 30 4 22 14 36 25 39 19 5 27 43 9
43 -5 0 -10 4 -10 9 0 5 9 7 21 4 20 -6 39 10 39 32 0 6 -4 4 -9 -3 -6 -10
-10 -9 -14 7 -3 13 1 24 10 30 12 6 12 10 4 16 -7 4 -15 4 -18 1 -3 -3 -12 -1
-19 5 -10 8 -22 8 -45 0 -43 -15 -59 -14 -59 4 0 8 -8 15 -17 16 -15 0 -15 2
2 8 11 5 25 4 32 -1 9 -7 23 -6 42 2 16 6 55 10 85 8 42 -3 56 -1 56 9 0 7 6
13 13 13 21 1 70 47 58 54 -14 9 -14 26 0 26 5 0 7 -5 3 -12 -5 -8 -2 -9 10
-5 10 4 20 7 22 7 13 0 1 19 -13 22 -12 3 -3 9 24 18 23 7 60 29 82 49 23 20
54 46 71 59 27 21 45 72 20 57 -5 -3 -10 -1 -10 6 0 6 -8 2 -17 -9 -10 -11
-31 -28 -47 -38 l-29 -18 12 22 c7 12 20 28 30 34 11 6 17 18 14 25 -5 12 -8
12 -22 0 -21 -19 -51 -29 -51 -17 0 5 5 12 10 15 6 3 10 11 10 18 0 6 -7 1
-16 -11 -17 -25 -34 -29 -34 -7 0 8 5 15 11 15 5 0 7 5 3 11 -5 8 -9 7 -15 -4
-12 -20 -56 -30 -77 -17 -13 8 -11 9 13 4 26 -5 28 -4 14 8 -13 10 -14 17 -5
31 8 14 8 20 -4 27 -11 7 -8 11 15 21 28 10 28 12 10 19 -18 8 -18 9 5 10 l25
2 -24 7 -23 6 26 14 c14 8 26 18 26 22 0 12 -62 22 -69 11 -3 -5 -14 -6 -24
-3 -17 6 -16 8 3 29 21 23 36 30 25 12 -3 -5 1 -10 9 -10 9 0 16 7 16 15 0 8
4 15 9 15 12 0 61 47 61 60 0 5 9 10 20 10 11 0 20 5 20 10 0 6 -12 10 -27 10
-53 0 -58 16 -12 33 29 10 36 16 22 16 -30 1 -40 21 -11 21 l23 0 -22 18 c-16
13 -19 22 -12 40 5 12 17 25 26 28 10 3 29 10 43 16 l24 10 -23 17 c-13 10
-21 23 -17 30 4 6 1 11 -8 11 -9 0 -16 5 -16 10 0 6 11 10 25 10 14 0 25 5 25
11 0 7 -10 9 -25 7 -34 -7 -32 15 3 29 l27 11 -25 2 -25 2 25 8 25 8 -25 1
c-22 1 -23 3 -7 12 9 6 14 15 11 21 -5 7 0 9 14 6 12 -4 20 -2 16 3 -3 5 -21
9 -40 9 -31 0 -34 2 -24 19 5 11 17 27 26 35 8 9 12 20 9 26 -8 13 -51 13 -75
0 -12 -6 -21 -7 -25 0 -5 8 25 19 90 33 18 4 18 5 -5 15 -24 10 -23 11 13 11
20 1 37 6 37 11 0 6 -6 10 -12 10 -10 0 -9 3 1 9 11 7 11 9 0 14 -10 4 -8 6 4
6 25 1 11 21 -14 21 -11 0 -17 5 -14 10 4 6 23 7 47 3 29 -4 39 -3 34 5 -7 11
-36 18 -106 27 -49 5 -49 6 -10 15 21 5 40 5 47 -2 7 -5 17 -6 24 -2 8 4 2 12
-16 22 -22 11 -25 16 -14 23 10 6 2 9 -23 9 -36 0 -65 18 -31 19 10 1 38 4 63
7 l45 7 -50 18 c-30 10 -41 18 -28 18 31 1 40 21 9 21 -28 0 -43 15 -24 23 10
4 10 6 1 6 -25 2 -12 19 19 25 47 9 31 15 -55 19 -43 2 -80 7 -84 11 -3 3 0 6
8 7 90 6 125 12 132 25 6 11 19 13 45 9 l37 -6 -47 23 c-28 13 -46 28 -43 35
6 18 -73 56 -112 55 -17 -1 -37 5 -43 13 -7 8 -20 15 -29 15 -13 1 -13 3 3 12
18 10 17 12 -15 29 -19 10 -28 18 -20 19 19 0 -16 40 -36 40 -18 0 -17 27 2
38 13 7 12 10 -9 20 -14 6 -24 17 -21 24 5 13 -64 50 -118 63 -50 13 -19 59
32 49 20 -4 31 -2 31 5 0 6 -11 11 -24 11 -13 0 -29 6 -35 14 -6 7 -26 16 -43
20 -17 3 -38 12 -46 18 -15 13 -18 14 -64 16 -21 2 -25 6 -21 22 5 18 7 19 17
4 8 -10 21 -14 37 -11 l24 4 -22 8 c-13 4 -23 11 -23 15 0 4 -16 15 -35 25
l-34 19 25 17 26 16 -27 7 c-17 4 -25 12 -23 23 2 10 -5 19 -14 21 -14 3 -18
-3 -18 -22 0 -14 -4 -26 -10 -26 -6 0 -10 35 -10 84 0 64 4 88 16 100 9 10 11
16 4 16 -27 0 -38 26 -30 71 7 37 5 49 -13 76 l-22 32 -18 -34 c-22 -43 -31
-45 -22 -5 6 26 4 30 -14 30 -12 0 -21 4 -21 10 0 5 -9 14 -19 20 -15 7 -23 6
-35 -5 -8 -8 -19 -15 -25 -15 -14 0 -14 -2 0 -37 8 -23 8 -26 -2 -15 -18 17
-39 15 -39 -3 0 -8 -4 -15 -10 -15 -5 0 -10 7 -10 16 0 12 -6 15 -20 11 -17
-4 -20 -2 -15 14 4 13 2 19 -9 19 -10 0 -13 -6 -10 -15 4 -10 0 -15 -12 -15
-16 0 -16 -2 -4 -10 9 -6 -6 -7 -44 -3 -49 5 -58 4 -51 -8 7 -11 6 -12 -7 -2
-8 7 -18 10 -21 6 -4 -3 -7 -1 -7 5 0 7 -11 12 -25 12 -14 0 -25 4 -25 10 0 5
6 7 14 4 9 -3 13 2 11 18 -3 31 -2 30 -25 18 -11 -6 -17 -16 -14 -25 13 -32
-8 -13 -22 21 -10 24 -20 34 -30 30 -8 -3 -14 1 -14 9 0 8 -5 26 -12 40 l-11
25 -33 -25 c-36 -28 -43 -24 -39 20 3 28 2 28 -7 8 -6 -13 -15 -23 -20 -23
-11 0 -10 41 1 59 10 16 2 48 -8 33 -3 -5 -21 -12 -38 -15 -26 -5 -33 -3 -33
9 0 10 -6 14 -14 11 -7 -3 -18 -1 -24 5 -7 7 -12 3 -17 -11 -5 -17 -11 -20
-28 -14 -29 10 -97 6 -112 -7 -7 -6 -16 -7 -18 -3 -3 5 -44 8 -91 7 -66 -1
-86 2 -86 13 0 7 -4 13 -10 13 -5 0 -10 10 -11 23 0 12 -4 31 -9 42 l-9 20 0
-20z m-719 -3319 c18 -8 93 -4 138 8 14 3 19 4 13 0 -24 -11 -13 -29 17 -30
21 -1 30 4 31 15 1 13 2 13 6 -1 5 -21 45 -20 55 2 5 12 7 11 7 -3 1 -10 5
-15 11 -12 5 3 27 3 47 -1 36 -7 36 -8 13 -15 -16 -4 -19 -7 -7 -8 18 -1 25
-31 6 -31 -18 0 -41 29 -33 42 5 8 2 9 -10 5 -10 -4 -33 -7 -52 -7 -20 0 -42
-8 -53 -19 -19 -19 -20 -19 -39 -1 -11 10 -23 15 -28 10 -15 -14 -57 -23 -50
-11 5 7 -4 11 -23 11 -17 0 -31 5 -31 10 0 6 -7 10 -15 10 -8 0 -15 -7 -15
-15 0 -25 -25 -17 -66 20 l-39 36 50 -4 c28 -2 58 -7 67 -11z"/>
<path d="M5566 4913 c-14 -14 -5 -23 17 -18 15 4 28 1 36 -9 12 -14 10 -16 -8
-16 -27 0 -27 -12 0 -36 20 -18 21 -18 35 1 14 18 14 18 14 -4 0 -12 4 -19 10
-16 6 3 10 1 10 -4 0 -6 -4 -11 -9 -11 -5 0 -11 -9 -14 -21 -4 -16 -11 -19
-26 -14 -11 3 -29 2 -38 -4 -10 -6 -12 -11 -5 -11 22 0 13 -20 -10 -22 -13 -1
24 -4 82 -7 58 -4 114 -4 124 -2 20 4 20 4 0 11 -10 4 -23 5 -29 3 -5 -2 -1 3
10 12 17 13 18 17 5 25 -8 5 -18 6 -23 3 -4 -3 -15 3 -22 13 -21 28 -18 40 5
19 31 -28 24 -3 -10 33 -16 18 -30 39 -30 45 0 7 -5 4 -11 -5 -9 -16 -12 -15
-40 9 -30 27 -61 38 -73 26z"/>
</g>
</svg>
