<?xml version="1.0" standalone="no"?>
<!DOCTYPE svg PUBLIC "-//W3C//DTD SVG 20010904//EN"
 "http://www.w3.org/TR/2001/REC-SVG-20010904/DTD/svg10.dtd">
<svg version="1.0" xmlns="http://www.w3.org/2000/svg"
 width="1024.000000pt" height="457.000000pt" viewBox="0 0 1024.000000 457.000000"
 preserveAspectRatio="xMidYMid meet">
<metadata>
Created by potrace 1.16, written by Peter Selinger 2001-2019
</metadata>
<g transform="translate(0.000000,457.000000) scale(0.100000,-0.100000)"
fill="#000000" stroke="none">
<path d="M5760 3582 c0 -13 -82 -30 -130 -27 -173 12 -294 14 -305 5 -7 -6
-187 -12 -471 -15 -252 -3 -495 -8 -539 -11 -44 -3 -145 -9 -224 -14 -79 -5
-228 -14 -330 -20 -368 -21 -517 -30 -603 -36 -63 -5 -88 -4 -88 5 0 6 1 11 3
11 1 0 47 3 102 6 55 3 143 10 195 16 52 6 118 12 145 14 28 2 68 7 90 13 39
10 38 10 -15 6 -30 -3 -95 -7 -145 -10 -49 -3 -207 -14 -350 -25 -143 -11
-298 -22 -345 -26 -89 -6 -114 -8 -270 -24 -52 -6 -149 -15 -215 -20 -66 -6
-126 -13 -134 -15 -7 -3 -79 -10 -160 -15 -80 -6 -198 -17 -261 -25 -109 -13
-208 -20 -485 -30 -119 -5 -120 -5 -123 -30 -3 -20 -9 -25 -33 -25 -16 0 -29
-4 -29 -10 0 -5 -7 -10 -15 -10 -17 0 -20 -21 -4 -37 14 -14 1 -83 -17 -90 -8
-3 -14 -14 -14 -25 0 -11 -7 -27 -16 -35 -16 -17 -16 -33 5 -143 6 -30 13 -98
15 -150 6 -115 14 -160 34 -182 10 -12 12 -28 7 -55 -9 -53 -9 -74 -1 -288 4
-104 12 -205 17 -223 6 -18 9 -42 6 -52 -7 -27 12 -203 24 -214 5 -6 9 -26 9
-45 0 -82 118 -383 158 -405 11 -6 41 -37 66 -68 28 -34 55 -58 66 -58 11 0
29 -4 42 -10 13 -5 42 -14 66 -20 35 -9 46 -18 57 -43 7 -18 25 -43 40 -57 15
-14 56 -63 90 -110 62 -83 65 -85 130 -104 60 -17 69 -17 108 -3 23 8 91 18
152 20 61 3 137 13 170 22 36 10 111 18 185 20 132 4 421 28 530 44 133 19
355 37 518 40 12 1 22 5 22 10 0 5 -28 10 -61 10 -34 0 -67 5 -73 11 -8 9 -3
10 19 7 26 -4 176 12 270 29 51 9 179 3 186 -8 5 -8 12 -6 23 5 19 18 125 32
199 24 29 -2 61 -1 72 3 11 4 175 11 365 14 364 7 520 13 558 22 13 3 30 0 38
-7 9 -8 42 -9 106 -4 51 4 147 8 213 11 66 2 161 6 210 8 156 8 232 9 241 4 5
-4 27 -4 49 -2 36 3 208 4 325 1 25 -1 109 2 188 5 113 5 142 4 142 -6 0 -10
10 -11 44 -5 50 9 69 10 340 9 244 0 296 -5 296 -31 0 -11 -7 -19 -17 -20 -14
0 -13 -2 4 -9 25 -10 110 1 105 14 -5 12 48 37 72 34 13 -2 20 2 18 10 -3 15
34 16 44 1 4 -7 22 -9 45 -6 26 3 38 1 36 -6 -1 -8 13 -11 38 -10 22 1 59 2
83 2 44 1 56 15 22 26 -19 6 -126 14 -195 15 l-30 0 25 13 c18 10 55 12 135 8
103 -6 185 4 185 20 0 12 -34 20 -81 19 -123 0 -125 0 -104 12 11 7 57 11 105
11 84 -1 85 -1 25 7 -33 4 -109 11 -169 14 -60 3 -111 7 -112 9 -2 1 1 9 6 17
5 8 23 13 47 13 177 -7 266 -4 274 8 6 10 57 13 216 12 118 0 195 3 178 7 -45
12 -411 41 -567 46 -76 2 -177 8 -225 14 -48 5 -132 10 -185 10 -80 0 -98 3
-98 15 0 8 5 15 11 15 5 0 8 4 5 9 -3 4 -16 6 -30 4 -33 -7 -43 15 -11 23 15
4 77 4 138 0 62 -4 177 -9 257 -11 280 -7 510 -24 510 -36 0 -11 -81 -11 -235
1 -197 15 -542 22 -524 11 8 -6 105 -12 215 -15 109 -3 251 -8 314 -11 303
-13 335 -14 311 -4 -51 20 -2 27 139 19 85 -5 146 -4 148 1 2 5 17 9 33 9 26
0 28 2 19 19 -7 14 -24 21 -62 25 -134 13 -227 26 -268 35 -25 5 -93 11 -153
12 -59 1 -110 5 -112 10 -3 4 -12 6 -20 2 -8 -3 -23 -2 -32 2 -20 8 -160 8
-173 0 -5 -3 -12 0 -15 6 -4 6 -18 8 -30 5 -29 -7 -85 3 -85 16 0 6 50 7 128
4 101 -4 116 -3 72 5 -54 9 -92 29 -57 29 9 0 17 5 17 11 0 8 63 10 233 5 127
-4 318 -9 422 -11 105 -3 213 -7 240 -9 l50 -5 -38 13 c-22 6 -43 19 -48 29
-12 20 7 26 96 29 l60 3 -40 19 -40 19 30 7 c17 4 62 8 100 9 75 1 115 9 115
21 0 8 -65 20 -115 21 -47 1 -145 21 -151 30 -3 5 2 9 11 9 11 0 15 5 11 15
-5 14 12 16 127 15 72 0 146 3 162 8 26 7 20 9 -43 15 -63 6 -220 41 -230 52
-11 10 68 13 163 6 149 -12 190 9 47 23 -68 7 -87 18 -47 27 28 6 28 7 -10 8
-34 1 -37 3 -25 15 11 11 56 16 178 21 155 6 166 8 220 36 31 16 63 29 70 29
7 0 20 7 28 15 14 13 13 16 -8 24 -13 5 -38 15 -57 23 l-34 14 38 38 c33 33
37 41 26 57 -9 15 -8 24 4 42 12 20 13 33 4 83 -6 32 -17 71 -25 86 -8 15 -14
40 -14 57 0 16 -4 32 -9 36 -5 3 -13 20 -17 37 -3 18 -13 43 -21 55 -11 17
-12 26 -3 42 6 12 15 21 20 21 6 0 10 6 10 14 0 7 -11 13 -27 14 -93 3 -295
24 -314 32 -18 8 6 9 86 6 102 -5 187 3 202 18 4 3 1 12 -5 18 -21 21 -13 36
21 42 19 3 42 12 52 20 21 15 13 17 -119 31 -37 4 -54 10 -46 15 7 5 -23 6
-68 3 -72 -5 -82 -4 -82 11 0 12 -10 16 -45 16 -27 0 -48 5 -50 13 -3 6 -22
13 -43 14 -45 3 -338 29 -477 43 -55 5 -193 15 -307 21 -115 7 -208 15 -208
19 0 3 8 6 18 6 9 1 60 9 112 18 73 14 108 15 150 8 86 -15 283 -14 320 2 l32
13 -63 6 c-34 4 -94 7 -133 8 -79 1 -154 21 -123 34 14 6 15 10 6 21 -7 9 -8
14 -1 14 5 0 12 6 15 13 4 10 -2 13 -18 9 -12 -2 -26 1 -29 7 -9 14 -49 14
-63 0 -14 -14 -163 -22 -163 -9 0 5 21 10 46 10 29 0 43 4 39 11 -4 6 -38 9
-83 8 -43 -1 -122 3 -177 9 -120 14 -323 28 -580 42 -104 6 -217 12 -250 15
-382 30 -1374 63 -1345 45 11 -7 7 -10 -17 -10 -18 0 -33 4 -33 9 0 4 -85 10
-189 13 -190 5 -248 15 -181 30 32 7 216 22 265 21 33 -1 152 -11 197 -18 24
-3 113 -8 198 -11 156 -5 469 -14 525 -16 122 -2 654 11 668 17 9 4 23 2 31
-4 16 -14 127 -24 366 -35 58 -3 159 -12 225 -20 66 -8 164 -17 218 -20 83 -6
97 -4 97 9 0 8 5 15 11 15 6 0 9 -6 6 -14 -6 -15 39 -21 233 -32 140 -8 779
-9 787 -1 3 4 15 7 25 7 11 0 17 4 13 9 -5 9 38 8 210 -3 27 -2 51 -8 53 -15
3 -8 -23 -11 -84 -11 -143 0 -90 -9 81 -14 139 -3 156 -2 133 10 -14 7 -28 20
-31 27 -3 10 -15 13 -31 10 -26 -5 -36 10 -13 21 6 4 -21 4 -62 1 -56 -4 -76
-2 -85 8 -10 13 -111 24 -501 52 -22 2 -103 8 -180 14 -77 6 -176 14 -220 17
-44 4 -156 13 -250 20 -93 8 -188 14 -210 13 -22 0 -87 5 -145 10 -58 6 -235
18 -395 26 -159 8 -357 20 -440 25 -82 6 -222 15 -310 21 -388 26 -460 34
-457 48 2 11 0 12 -10 4 -7 -6 -31 -12 -53 -13 -68 -3 -78 -1 -71 15 3 8 1 15
-4 15 -6 0 -10 -4 -10 -8z m1490 -2221 c25 -5 41 -10 35 -11 -5 -2 15 -6 45
-9 l55 -7 -70 -8 c-66 -8 -102 -25 -87 -41 5 -5 -238 -1 -295 5 -2 0 -3 7 -3
14 0 12 21 15 111 15 62 0 114 3 117 6 3 3 -11 5 -31 5 -20 0 -39 5 -42 10 -3
6 5 10 19 10 14 0 28 5 31 10 7 12 51 12 115 1z m-78 -104 c16 -5 25 -13 22
-18 -3 -6 5 -7 20 -3 16 4 26 2 26 -5 0 -6 -12 -11 -27 -12 l-28 -1 33 -14
c17 -8 32 -18 32 -24 0 -16 -70 -23 -159 -14 -47 4 -327 9 -621 10 -294 0
-539 2 -545 4 -5 1 -14 1 -20 0 -49 -10 -443 -15 -453 -6 -3 3 19 6 49 7 56 1
61 1 169 13 92 10 234 17 463 21 108 2 202 7 207 10 17 11 198 9 212 -2 18
-15 438 -23 513 -11 79 14 93 28 27 28 -40 0 -52 3 -52 15 0 13 11 16 53 14
28 -1 64 -7 79 -12z"/>
</g>
</svg>
