<?xml version="1.0" standalone="no"?>
<!DOCTYPE svg PUBLIC "-//W3C//DTD SVG 20010904//EN"
 "http://www.w3.org/TR/2001/REC-SVG-20010904/DTD/svg10.dtd">
<svg version="1.0" xmlns="http://www.w3.org/2000/svg"
 width="1003.000000pt" height="542.000000pt" viewBox="0 0 1003.000000 542.000000"
 preserveAspectRatio="xMidYMid meet">
<metadata>
Created by potrace 1.16, written by Peter Selinger 2001-2019
</metadata>
<g transform="translate(0.000000,542.000000) scale(0.100000,-0.100000)"
fill="#000000" stroke="none">
<path d="M5330 5408 c-91 -5 -208 -14 -260 -22 -52 -7 -124 -13 -160 -12 -36
1 -256 -1 -490 -5 -385 -6 -431 -9 -485 -27 -33 -11 -130 -27 -215 -37 -85 -9
-193 -23 -240 -30 -47 -7 -121 -18 -165 -24 -343 -47 -625 -96 -795 -136 -357
-86 -422 -107 -607 -193 -51 -23 -51 -24 -50 -68 2 -31 6 -44 17 -45 19 -1
-34 -13 -132 -29 -43 -7 -78 -17 -78 -21 0 -12 47 -11 55 1 9 14 35 12 35 -2
-1 -31 -42 -60 -122 -84 -119 -37 -136 -39 -157 -20 -17 15 -23 15 -85 -6 -54
-18 -65 -25 -60 -40 4 -13 -4 -21 -28 -33 l-33 -15 35 4 c65 8 210 45 256 66
54 23 54 23 54 10 0 -5 -19 -19 -43 -31 -56 -29 -29 -37 34 -9 28 11 63 20 77
17 l27 -3 -30 -15 c-19 -9 -30 -22 -30 -34 0 -16 -7 -20 -35 -22 -19 -1 -55
-9 -79 -18 -36 -12 -46 -13 -53 -3 -6 10 -12 8 -26 -9 -9 -11 -33 -24 -52 -28
-32 -7 -34 -6 -20 10 14 17 13 18 -15 9 -16 -4 -55 -9 -85 -9 -30 0 -66 -6
-80 -14 -14 -8 -44 -15 -68 -16 -23 -1 -50 -9 -60 -18 -10 -10 -27 -17 -38
-17 -11 0 -30 -7 -43 -16 -26 -19 -76 -33 -139 -40 -66 -7 -92 -28 -92 -75 l0
-39 58 -1 c144 -3 207 -11 171 -23 -104 -33 -133 -38 -178 -32 -43 6 -51 4
-60 -13 -15 -26 -14 -31 4 -31 9 0 18 7 21 15 11 27 24 16 22 -17 -3 -29 0
-33 22 -34 14 0 30 -3 35 -6 15 -9 277 -4 292 5 7 4 24 5 38 1 15 -4 31 -1 40
6 18 15 19 30 2 30 -7 0 -18 5 -25 12 -9 9 -8 16 4 29 13 14 26 17 64 12 46
-5 49 -4 64 26 10 19 24 31 37 31 18 0 14 -8 -26 -55 -26 -30 -51 -55 -56 -55
-5 0 -9 -4 -9 -9 0 -5 19 -8 43 -8 101 0 136 -5 131 -17 -7 -19 16 -33 68 -40
27 -4 48 -11 48 -17 0 -15 16 -11 41 11 l24 20 -30 -6 -30 -5 24 20 c28 26 66
29 57 5 -4 -11 1 -18 14 -21 31 -8 24 -18 -32 -44 -55 -26 -70 -45 -41 -52 11
-2 0 -9 -29 -17 -27 -7 -48 -16 -48 -21 0 -4 21 -1 47 7 27 8 68 19 93 24 25
5 87 20 138 33 51 13 91 19 89 14 -5 -16 -127 -76 -142 -70 -14 5 -64 -12
-176 -60 -40 -17 -45 -23 -46 -51 -1 -29 2 -32 22 -28 27 5 41 -13 25 -33 -6
-8 -40 -23 -76 -35 -39 -13 -64 -27 -64 -36 0 -10 -14 -14 -55 -14 -32 0 -69
-7 -87 -16 -43 -22 -131 -44 -155 -38 -13 4 -22 0 -26 -10 -4 -9 -13 -16 -22
-16 -17 0 -55 -35 -55 -50 0 -14 96 -13 123 1 12 7 32 22 45 34 13 13 40 25
67 28 25 4 57 10 71 13 24 6 25 5 15 -14 -14 -27 -14 -32 3 -26 8 3 17 1 21
-5 8 -14 62 -14 70 -1 3 6 16 10 27 10 11 0 27 8 34 18 12 16 13 16 14 0 0
-11 10 -18 27 -20 41 -5 38 -25 -4 -31 -50 -8 -258 -68 -349 -100 -107 -37
-145 -58 -163 -87 -9 -14 -35 -43 -59 -65 -55 -49 -55 -79 1 -83 20 -2 37 -7
37 -13 0 -5 -4 -9 -9 -9 -5 0 -31 -10 -58 -21 -72 -32 -35 -34 43 -3 59 23 71
25 105 15 22 -7 39 -16 39 -20 0 -8 65 -26 138 -38 23 -4 32 -11 32 -24 0 -24
46 -26 72 -2 20 18 96 23 201 13 42 -4 70 -2 87 7 14 7 40 13 58 13 28 0 32
-3 32 -25 0 -29 15 -33 29 -8 12 23 25 11 17 -15 -5 -13 -20 -22 -44 -27 -20
-4 -41 -10 -47 -13 -5 -4 -19 -8 -30 -9 -51 -6 -87 -17 -91 -28 -9 -23 29 -90
52 -91 73 -4 88 -23 57 -75 -22 -38 -6 -68 48 -91 24 -10 43 -26 46 -39 5 -17
11 -20 34 -15 33 6 49 -12 26 -29 -10 -7 -17 -18 -17 -25 0 -7 -23 -39 -52
-72 -40 -47 -48 -62 -38 -68 18 -11 16 -13 -38 -33 -44 -17 -90 -14 -105 7 -5
7 -20 -2 -42 -26 -29 -31 -45 -39 -93 -47 -75 -12 -135 -37 -130 -53 8 -24 58
-20 111 8 88 46 101 52 130 60 l29 7 -16 -31 c-9 -17 -16 -42 -16 -56 0 -21 6
-25 40 -31 38 -6 53 -26 30 -40 -19 -11 -10 -34 18 -47 28 -14 35 -47 19 -93
-10 -30 72 -97 127 -105 41 -5 64 -30 27 -30 -11 0 -23 -5 -27 -11 -3 -6 -17
-8 -30 -5 -13 4 -24 3 -24 -1 0 -5 -12 -9 -26 -10 -15 0 -29 -6 -33 -11 -4 -6
-56 -25 -116 -41 -135 -39 -176 -52 -195 -66 -8 -6 -28 -17 -43 -25 -16 -8
-45 -29 -64 -48 l-36 -33 25 -27 c31 -33 48 -65 48 -90 0 -11 9 -31 20 -45 11
-14 20 -35 20 -46 0 -12 6 -21 15 -21 8 0 15 -5 15 -10 0 -7 13 -8 34 -4 34 6
35 5 46 -35 11 -40 32 -53 55 -33 6 4 25 -7 44 -25 31 -29 33 -33 16 -39 -12
-5 -24 -1 -36 14 -18 23 -39 29 -39 12 0 -5 10 -19 23 -30 19 -19 29 -20 82
-14 33 3 72 13 87 20 15 8 42 14 60 14 19 0 58 6 88 14 30 8 90 17 134 21 65
6 78 5 74 -6 -6 -20 -127 -99 -151 -99 -11 0 -39 -17 -61 -38 -23 -22 -49 -43
-57 -48 -8 -5 -22 -20 -32 -34 -9 -14 -33 -47 -52 -75 -31 -45 -34 -51 -19
-62 10 -7 14 -19 9 -32 -4 -12 -2 -21 4 -21 16 0 51 42 51 62 0 18 74 98 90
98 4 0 13 7 20 15 9 11 23 14 44 10 27 -5 38 0 75 34 53 49 153 86 183 68 13
-9 23 -9 36 -1 66 41 62 40 72 24 8 -13 13 -13 41 3 17 9 36 17 44 17 7 0 15
13 18 29 7 31 36 49 48 29 4 -6 3 -20 -2 -29 -14 -27 -11 -32 14 -26 12 4 29
2 37 -3 23 -15 -24 -56 -90 -78 -46 -16 -56 -23 -58 -45 -2 -15 -11 -29 -22
-32 -11 -3 -33 -24 -50 -46 l-32 -39 26 0 c14 0 26 -4 26 -10 0 -13 47 -13 55
0 3 6 17 10 30 10 13 0 31 10 39 22 l16 22 0 -22 c0 -19 4 -21 24 -16 29 7 40
-18 31 -70 -5 -26 -3 -36 10 -44 30 -16 8 -29 -59 -37 -63 -6 -108 -26 -94
-41 4 -4 27 -9 50 -11 68 -5 86 -12 90 -30 2 -14 13 -16 61 -14 39 2 57 -1 57
-9 0 -15 37 -10 140 19 41 11 94 21 116 21 23 0 66 5 95 10 30 6 97 15 149 20
167 17 423 41 490 46 36 3 69 9 74 15 6 5 35 9 66 9 31 0 81 4 111 10 79 14
207 31 259 34 25 1 61 6 80 10 19 5 188 10 375 13 187 2 378 4 425 5 47 0 99
0 115 0 17 -1 77 4 135 11 91 10 105 14 102 30 -2 11 4 17 17 17 11 0 26 3 35
6 9 3 16 1 16 -5 0 -6 -6 -11 -14 -11 -23 0 -27 -15 -10 -38 13 -19 17 -20 29
-9 7 8 53 19 101 25 76 10 89 10 97 -3 9 -16 37 -21 37 -6 0 5 10 11 23 13 12
2 22 10 22 18 0 8 -10 16 -22 18 -13 2 -23 8 -23 14 0 6 16 8 43 4 23 -3 74
-9 112 -15 47 -6 74 -6 82 1 7 6 27 11 45 13 35 3 50 21 21 27 -10 2 27 8 82
11 55 4 131 12 168 18 37 6 75 8 83 5 22 -8 12 -29 -17 -37 -13 -4 38 -7 114
-8 96 -1 136 2 132 10 -4 6 -26 9 -49 8 -22 -1 -63 -1 -91 0 -49 3 -49 3 -15
11 19 4 70 10 113 13 62 4 80 2 93 -10 10 -10 18 -12 22 -6 10 15 116 27 216
25 51 -2 94 2 101 8 9 7 21 7 40 0 15 -6 96 -10 183 -9 87 1 168 -1 182 -4 14
-4 90 -9 170 -11 150 -5 205 3 247 34 l22 17 -30 29 c-22 21 -29 36 -26 52 3
17 -1 26 -17 31 -47 17 -294 58 -399 67 -180 14 -197 16 -197 29 0 10 -22 12
-92 9 -51 -2 -237 -6 -413 -9 -176 -4 -385 -9 -465 -12 -187 -7 -303 -4 -314
8 -16 15 -59 11 -53 -5 4 -10 -19 -14 -111 -19 -65 -4 -187 -11 -272 -17 -85
-5 -200 -12 -255 -15 -122 -7 -252 -21 -325 -36 -69 -13 -455 -22 -495 -11
l-30 9 30 6 c17 4 95 16 175 27 80 12 211 32 291 46 162 27 352 32 539 14 58
-5 118 -6 134 -2 l29 8 -26 21 c-15 11 -48 24 -74 28 -52 8 -43 25 14 25 17 0
43 4 57 10 14 5 55 12 93 15 37 3 104 10 148 16 44 5 121 15 170 21 50 6 196
11 325 11 243 -1 285 -3 333 -17 18 -5 38 -4 54 3 15 7 119 14 271 17 136 3
251 10 256 15 6 5 -9 9 -40 10 -87 1 -97 16 -14 21 90 6 100 3 100 -28 0 -23
3 -24 58 -23 31 0 78 -3 105 -6 43 -6 47 -5 47 13 0 18 5 20 35 15 40 -6 281
15 304 27 9 5 24 11 34 14 12 4 16 12 12 28 -6 22 -4 23 70 24 65 1 78 4 91
22 8 12 29 25 47 30 70 19 735 11 1110 -14 95 -6 97 -6 97 16 0 14 5 20 13 16
6 -3 20 -9 30 -12 9 -4 17 -13 17 -20 0 -10 7 -13 24 -8 16 4 27 1 33 -9 10
-18 90 -31 95 -16 3 8 18 6 51 -5 26 -9 52 -16 57 -16 18 0 4 55 -19 77 -20
19 -21 24 -8 29 9 3 33 -3 54 -14 21 -11 59 -26 85 -32 26 -7 57 -23 69 -36
12 -13 30 -24 38 -24 9 0 29 -9 45 -19 17 -11 34 -17 39 -14 4 3 29 2 54 -2
39 -6 44 -9 40 -27 -4 -15 -2 -18 11 -13 9 4 27 10 40 12 12 3 22 9 22 13 0
11 -49 30 -64 24 -8 -3 -30 8 -49 25 -19 17 -42 31 -51 31 -9 0 -21 9 -28 20
-7 11 -21 20 -30 20 -10 0 -18 5 -18 11 0 6 -8 8 -19 4 -11 -3 -26 1 -37 12
-9 10 -22 18 -28 19 -6 0 -17 2 -23 2 -7 1 -13 9 -13 18 0 12 -7 14 -29 9 -24
-5 -33 -2 -43 14 -7 12 -21 21 -31 21 -11 0 -27 11 -38 24 -10 13 -39 29 -64
36 -25 7 -45 17 -45 21 0 5 -11 9 -25 9 -32 0 -58 46 -34 61 18 11 39 12 39 0
0 -17 35 -16 52 1 10 10 25 18 33 18 13 0 14 -4 5 -21 -14 -26 -12 -29 23 -22
22 4 27 11 27 34 0 25 -4 29 -28 29 -16 0 -36 6 -46 13 -18 13 -18 15 -1 40
20 31 28 33 44 13 13 -16 -2 -32 -19 -21 -5 3 -10 2 -10 -3 0 -6 7 -13 16 -16
31 -12 44 -6 44 18 0 14 6 28 12 32 9 6 5 11 -12 16 -19 6 -16 7 13 3 20 -2
37 0 37 5 0 8 -61 24 -137 35 -24 4 -43 12 -43 19 0 9 21 8 90 -3 76 -12 99
-12 145 -1 30 7 56 19 59 26 6 16 42 19 51 4 3 -5 21 -10 39 -10 43 0 84 -21
78 -39 -3 -10 0 -12 12 -8 10 4 30 7 44 7 l27 1 -24 19 c-13 11 -33 20 -45 20
-13 0 -32 10 -44 23 l-22 23 80 -2 c48 -2 92 2 110 10 l30 12 -22 23 c-120
116 -142 130 -250 155 -38 9 -47 31 -55 135 -7 100 -4 104 48 74 21 -13 27
-22 23 -36 -5 -16 -3 -17 13 -8 11 5 29 7 41 4 12 -3 22 -2 22 2 0 12 -33 34
-52 35 -9 0 -29 15 -45 34 -15 18 -38 36 -49 40 -12 4 -24 16 -27 26 -3 11
-12 20 -21 20 -9 0 -16 6 -16 14 0 9 -7 12 -21 9 -16 -4 -20 -2 -17 8 3 8 17
16 33 19 16 3 30 10 32 16 4 13 -38 36 -69 38 -18 1 -23 7 -23 26 0 22 -5 25
-38 28 -62 5 -42 17 30 17 44 0 68 4 70 13 3 8 -10 12 -46 12 -27 0 -53 5 -57
11 -12 21 148 -1 169 -22 10 -11 24 -19 32 -19 7 0 17 -9 20 -20 7 -23 18 -25
46 -10 22 13 26 32 4 24 -9 -4 -23 4 -36 20 -11 14 -39 31 -62 38 -23 6 -47
15 -53 20 -6 4 -32 11 -58 14 -109 15 -8 47 126 40 l93 -5 -75 14 c-41 7 -123
19 -182 26 -73 8 -108 17 -108 25 0 7 6 14 13 17 13 5 -30 46 -49 47 -6 0 -17
7 -24 15 -8 10 -21 13 -37 9 -22 -6 -24 -4 -18 14 5 18 0 25 -29 39 -20 9 -36
20 -36 25 0 13 35 9 56 -7 19 -14 54 -20 54 -9 0 3 -9 17 -20 31 -30 38 -26
56 10 48 36 -8 42 13 10 33 -25 15 -26 59 -2 102 13 25 14 34 5 37 -9 3 -11
17 -7 44 5 32 3 40 -12 45 -11 3 -26 10 -34 15 -8 5 -39 20 -67 33 -51 24 -69
46 -38 46 8 0 15 5 15 10 0 6 -9 10 -21 10 -29 0 -61 19 -53 32 4 6 22 8 46 4
23 -4 37 -3 34 3 -6 8 -31 14 -113 26 -92 14 -102 22 -55 43 86 40 114 59 97
65 -9 4 -25 7 -35 7 -10 0 -20 7 -24 15 -3 8 -17 15 -30 15 -14 0 -35 10 -46
23 l-21 22 58 11 c104 19 107 29 15 49 -45 10 -82 21 -82 25 0 17 59 27 133
22 l77 -5 0 45 c0 24 5 49 11 55 9 9 6 19 -10 39 -11 15 -21 32 -21 38 0 26
-110 103 -130 91 -5 -3 -27 3 -49 15 -22 11 -56 20 -76 20 -31 0 -35 3 -35 28
-1 23 -2 24 -11 10 -11 -20 -73 -25 -84 -8 -9 15 -41 12 -54 -4 -15 -18 -66
-30 -83 -19 -7 4 -20 6 -30 5 -21 -4 -34 16 -19 31 16 16 13 28 -6 25 -10 -2
-19 4 -21 14 -2 11 4 18 19 20 12 2 24 8 26 14 5 14 -99 26 -152 17 -27 -4
-36 -3 -31 5 4 7 18 12 32 12 13 0 24 2 24 5 0 14 -74 78 -78 67 -4 -14 -32
-17 -32 -3 0 5 -12 12 -26 15 -21 6 -24 9 -13 22 6 8 10 16 8 18 -13 10 -80
27 -135 32 -61 6 -100 24 -53 24 17 0 19 3 10 14 -11 13 -64 25 -134 32 -79 7
-209 44 -204 58 5 15 67 20 67 6 0 -7 7 -10 15 -6 14 5 157 -9 200 -20 20 -5
20 -5 1 10 -11 9 -32 16 -47 16 -15 0 -31 5 -34 10 -4 6 -15 8 -25 5 -10 -3
-21 -2 -24 4 -3 5 -25 10 -49 10 -23 1 -55 3 -72 5 -16 2 -38 4 -47 5 -19 1
-52 99 -42 124 9 25 -103 37 -328 36 -43 0 -78 2 -78 5 0 16 54 28 142 32 82
3 106 1 141 -15 27 -13 46 -16 53 -10 10 8 234 4 315 -6 33 -4 45 4 52 35 3
14 8 34 12 46 5 15 0 23 -20 32 -14 7 -34 27 -45 45 -18 30 -28 35 -112 55
-51 12 -163 31 -248 42 -85 11 -193 25 -240 32 -80 11 -472 15 -905 11 -104
-2 -203 -1 -220 1 -48 6 -225 6 -417 1 -118 -4 -178 -2 -183 5 -7 11 -19 11
-265 -2z m-1270 -3917 c0 -5 -16 -15 -35 -21 -19 -6 -35 -17 -35 -24 0 -22 13
-26 31 -10 12 11 25 13 41 8 23 -7 23 -7 -7 -20 -16 -7 -42 -13 -57 -14 -14 0
-33 -3 -42 -6 -30 -11 -16 -20 25 -16 32 3 40 1 37 -9 -3 -8 -15 -14 -28 -14
-30 0 -39 -25 -11 -32 25 -7 28 -28 4 -38 -29 -11 -172 -33 -258 -40 -84 -7
-145 -21 -145 -34 0 -5 -25 -11 -56 -14 -32 -3 -64 -13 -75 -23 -18 -16 -20
-16 -37 -1 -11 10 -27 14 -42 10 -14 -3 -22 -2 -17 2 4 5 17 10 28 12 11 2 39
13 62 25 23 11 56 25 72 29 56 15 230 67 263 79 30 11 31 13 15 25 -17 13 -17
14 1 34 18 19 18 21 2 21 -10 0 -20 -9 -23 -20 -4 -15 -14 -20 -40 -20 -18 0
-44 -6 -56 -14 -12 -8 -60 -27 -107 -42 -47 -16 -89 -34 -95 -41 -13 -16 -61
-34 -69 -26 -3 4 6 15 21 25 30 19 19 24 -21 8 -51 -19 -26 10 29 35 30 13 55
27 55 31 0 4 -8 13 -17 20 -10 7 -15 16 -10 20 6 6 104 24 145 27 6 0 12 5 12
10 0 5 -22 6 -52 3 l-53 -6 75 26 c41 15 100 29 130 33 97 11 340 13 340 2z"/>
<path d="M1231 4093 c-30 -6 -147 -69 -184 -100 -16 -13 -34 -23 -41 -23 -13
0 -46 -31 -46 -42 0 -4 10 -4 23 -1 20 4 20 3 5 -9 -9 -7 -25 -18 -35 -25 -17
-11 -16 -12 5 -12 36 -1 79 26 90 56 15 38 47 73 66 73 24 0 20 -8 -26 -58
-58 -63 -30 -68 33 -6 43 42 47 50 34 60 -14 11 -14 12 1 18 32 12 46 7 39
-14 -6 -20 -5 -20 27 -7 18 7 33 21 33 30 0 9 6 22 13 29 6 6 12 18 12 25 0
13 -6 14 -49 6z"/>
<path d="M1470 3969 c-14 -6 -46 -12 -73 -14 -26 -3 -60 -11 -76 -20 -17 -8
-36 -13 -43 -10 -22 9 -93 -20 -121 -49 -14 -14 -32 -26 -40 -26 -8 0 -20 -6
-26 -14 -6 -8 -31 -19 -55 -25 -24 -6 -63 -27 -86 -46 -23 -19 -45 -35 -48
-35 -4 0 -28 -27 -54 -59 -46 -56 -60 -91 -38 -91 6 0 10 -9 10 -20 0 -11 4
-20 8 -20 13 0 42 35 42 50 0 15 68 80 104 99 13 8 37 11 53 8 21 -4 36 2 62
25 48 42 96 60 166 63 33 1 75 9 93 19 17 9 32 12 32 6 0 -15 38 -12 65 6 14
9 25 12 25 8 0 -14 20 20 20 34 0 9 -5 10 -19 2 -11 -5 -22 -10 -25 -10 -10 0
20 46 47 73 41 40 28 66 -23 46z"/>
<path d="M291 3394 c-25 -7 -54 -22 -65 -33 -28 -26 -121 -62 -141 -55 -9 4
-15 0 -15 -9 0 -8 -11 -22 -25 -31 -23 -15 -51 -54 -43 -61 2 -2 30 3 63 10
48 12 67 22 95 54 21 23 51 44 75 51 78 25 145 59 145 74 0 19 -28 19 -89 0z"/>
<path d="M1242 2398 c-24 -4 -58 -16 -77 -28 -39 -24 -125 -51 -137 -44 -5 4
-17 -1 -26 -10 -9 -9 -29 -26 -44 -37 -39 -29 -37 -53 3 -45 17 3 43 6 57 6
15 0 37 13 58 35 26 28 51 41 120 60 93 28 124 41 124 54 0 14 -32 18 -78 9z"/>
</g>
</svg>
