<?xml version="1.0" standalone="no"?>
<!DOCTYPE svg PUBLIC "-//W3C//DTD SVG 20010904//EN"
 "http://www.w3.org/TR/2001/REC-SVG-20010904/DTD/svg10.dtd">
<svg version="1.0" xmlns="http://www.w3.org/2000/svg"
 width="1003.000000pt" height="480.000000pt" viewBox="0 0 1003.000000 480.000000"
 preserveAspectRatio="xMidYMid meet">
<metadata>
Created by potrace 1.16, written by Peter Selinger 2001-2019
</metadata>
<g transform="translate(0.000000,480.000000) scale(0.100000,-0.100000)"
fill="#000000" stroke="none">
<path d="M4600 4739 c-85 -5 -195 -14 -245 -20 -49 -7 -200 -13 -335 -15 -696
-8 -804 -11 -860 -29 -57 -17 -152 -32 -370 -59 -69 -9 -172 -23 -230 -31 -58
-9 -170 -25 -250 -36 -442 -62 -971 -188 -1145 -272 -16 -8 -53 -25 -82 -38
-52 -24 -68 -46 -52 -70 5 -8 9 -24 9 -36 0 -16 6 -23 19 -23 10 0 24 -7 32
-16 10 -12 25 -14 73 -9 48 5 78 2 138 -16 72 -20 78 -24 89 -56 7 -24 20 -38
39 -44 15 -6 32 -21 38 -33 l11 -24 68 20 c75 21 101 21 323 -7 74 -10 182
-19 240 -20 143 -4 303 -22 344 -39 19 -8 68 -17 110 -21 42 -4 76 -11 76 -15
0 -16 -533 -162 -656 -179 -28 -4 -63 -14 -77 -24 -15 -9 -37 -17 -49 -17 -13
-1 -51 -13 -85 -28 -46 -20 -74 -41 -109 -81 -44 -52 -45 -55 -25 -63 12 -4
30 -4 39 1 26 13 126 41 148 41 11 0 29 7 42 15 12 9 27 15 34 14 7 -2 31 3
53 9 22 7 53 12 69 12 16 0 37 6 45 14 15 13 141 30 141 19 0 -3 -23 -28 -50
-54 -27 -26 -50 -45 -50 -42 0 3 -6 1 -12 -5 -7 -5 -35 -13 -63 -17 -30 -5
-60 -16 -75 -30 -31 -28 -75 -50 -116 -59 -18 -4 -58 -27 -89 -52 -47 -36 -65
-44 -100 -44 -79 0 -105 -10 -123 -47 -24 -50 -133 -103 -220 -108 -35 -2 -66
-6 -70 -9 -3 -3 -6 -22 -6 -42 -2 -48 -40 -81 -169 -143 -54 -27 -98 -52 -97
-57 1 -5 -16 -13 -37 -18 -73 -16 -309 -88 -373 -113 -83 -33 -108 -50 -125
-83 -8 -15 -30 -43 -49 -62 -21 -21 -36 -46 -36 -60 0 -22 6 -24 77 -36 42 -6
81 -16 87 -22 5 -5 19 -10 31 -10 12 0 27 -6 33 -12 13 -13 92 -36 154 -45 24
-3 38 -11 41 -24 6 -24 44 -25 70 -1 16 14 40 17 141 18 132 1 294 15 451 38
55 8 136 20 180 26 44 6 100 15 125 21 54 11 128 15 136 6 16 -16 -9 -36 -53
-42 -26 -4 -64 -11 -83 -17 -19 -5 -60 -13 -90 -17 -82 -12 -412 -81 -435 -91
-11 -5 -27 -9 -35 -9 -39 -2 -81 -15 -92 -29 -11 -12 -11 -16 0 -20 7 -2 19
-19 27 -38 11 -28 19 -34 43 -34 16 0 44 -5 61 -11 27 -9 32 -15 27 -33 -19
-65 -19 -77 4 -101 13 -14 29 -25 36 -25 22 0 84 -41 84 -56 0 -10 8 -12 29
-8 33 7 53 -13 27 -28 -24 -14 -19 -28 10 -28 17 0 28 -6 31 -20 4 -13 14 -20
29 -20 14 0 27 -7 31 -16 10 -26 -37 -63 -102 -79 -33 -9 -69 -22 -80 -29 -11
-7 -36 -18 -56 -25 -51 -16 -75 -40 -87 -84 -15 -53 -7 -65 44 -73 48 -7 63
-19 45 -37 -20 -20 -12 -45 18 -55 37 -13 54 -43 46 -85 -6 -29 -2 -36 32 -63
55 -44 101 -66 124 -59 21 7 49 -10 49 -30 0 -6 -26 -17 -58 -24 -53 -12 -164
-43 -322 -93 -69 -21 -170 -82 -201 -122 -18 -23 -18 -23 17 -56 20 -18 47
-56 59 -84 13 -28 33 -59 44 -68 12 -10 21 -24 21 -32 0 -24 46 -46 80 -40 29
6 32 4 47 -34 17 -46 40 -60 60 -39 12 12 18 10 41 -13 15 -15 34 -29 41 -31
8 -3 11 -10 7 -17 -11 -17 -20 -15 -51 14 -17 16 -31 22 -37 16 -13 -13 48
-62 77 -62 13 0 27 5 30 10 3 6 23 10 44 10 20 0 46 7 57 15 10 8 39 15 63 15
24 0 69 6 100 14 78 19 201 28 201 14 0 -11 165 -4 232 9 24 5 28 2 28 -17 0
-21 3 -22 53 -15 28 3 101 7 160 7 102 0 107 1 102 19 -5 16 -1 19 24 19 22 0
31 -6 36 -21 7 -21 10 -22 129 -15 148 10 245 11 354 6 91 -5 110 -17 98 -66
-6 -21 -3 -24 23 -24 16 0 33 -5 36 -10 4 -7 31 -9 71 -5 55 4 64 3 64 -11 0
-13 6 -15 28 -10 15 4 39 10 54 13 32 6 60 33 35 33 -14 0 -27 20 -27 41 0 5
9 9 19 9 23 0 32 19 19 42 -7 14 -5 18 9 18 10 0 36 7 58 14 35 12 358 20 695
17 84 -1 336 0 350 1 46 4 660 -15 742 -22 114 -11 165 -5 146 17 -31 37 -88
49 -293 58 -174 8 -227 15 -222 28 5 15 64 26 149 26 39 1 70 6 74 12 5 8 -1
10 -18 6 -15 -4 -32 -1 -44 9 -18 14 -17 15 16 11 19 -3 42 -1 51 4 13 6 18 3
22 -13 5 -18 8 -19 22 -8 13 11 43 14 175 20 8 0 247 -2 530 -5 495 -5 559 -7
643 -21 21 -3 43 -2 50 4 8 7 117 13 277 17 146 3 269 10 274 16 6 5 -12 9
-50 9 -87 0 -107 19 -21 22 37 1 75 2 84 2 10 1 24 -11 31 -27 13 -26 18 -28
70 -27 31 0 81 -2 110 -6 48 -5 52 -4 52 15 0 17 4 19 23 12 31 -12 293 16
339 36 30 14 35 19 27 34 -5 10 -9 20 -9 22 0 3 36 6 79 8 68 4 81 7 98 28 16
19 31 24 98 30 92 7 525 6 725 -3 74 -3 200 -8 280 -11 80 -4 161 -7 180 -8
31 -2 35 1 32 20 -3 19 3 22 63 28 36 4 65 11 65 15 0 5 -11 17 -24 28 -16 12
-23 26 -20 38 3 12 -4 28 -20 43 -29 27 -35 71 -11 71 10 0 15 11 15 35 0 25
13 52 47 99 l47 65 76 -4 c72 -5 73 -5 40 8 -19 8 -65 17 -102 21 -38 4 -72
14 -79 22 -15 18 -14 18 113 -2 77 -12 106 -14 120 -5 10 6 29 11 42 11 15 0
26 7 29 20 3 14 14 20 31 20 17 0 26 5 26 16 0 13 13 14 105 8 73 -5 118 -3
150 6 l45 12 -38 29 c-20 15 -54 41 -75 56 -21 15 -50 37 -65 48 -24 19 -91
43 -164 59 -35 8 -53 43 -70 132 -13 72 -49 139 -80 147 -10 3 -18 15 -18 26
0 14 -9 25 -26 31 -34 13 -31 55 5 55 60 0 22 43 -49 55 -29 5 -35 10 -33 28
2 19 -2 22 -37 22 -21 0 -42 5 -45 10 -4 6 22 10 69 10 61 0 76 3 76 15 0 12
-13 15 -59 15 -34 0 -63 5 -67 11 -5 9 17 10 82 4 68 -5 93 -12 107 -26 10
-10 24 -19 32 -19 8 0 20 -9 27 -20 15 -24 50 -26 68 -5 10 13 9 15 -12 15
-13 0 -35 11 -47 24 -24 25 -167 76 -214 76 -39 0 -41 17 -5 29 41 13 93 15
183 5 39 -3 67 -4 64 0 -9 9 -91 21 -301 46 -98 11 -199 25 -225 31 -52 11
-200 30 -273 34 -126 8 -279 28 -308 41 -36 17 -38 37 -3 42 26 4 23 25 -5 30
-35 7 -39 22 -6 22 27 0 32 4 32 24 0 19 9 27 40 40 49 19 118 20 142 2 10 -7
45 -14 79 -15 39 -1 82 -11 120 -26 32 -14 77 -25 99 -25 23 0 50 -5 62 -11
31 -17 33 -3 4 31 -36 44 -33 53 14 45 26 -4 40 -3 40 4 0 6 -4 11 -8 11 -5 0
-18 9 -30 20 -24 23 -29 68 -11 101 8 16 7 25 -5 38 -9 10 -16 34 -16 54 0 26
-4 37 -15 37 -9 0 -39 13 -69 29 -29 15 -68 33 -85 39 -36 13 -41 32 -9 32 31
0 13 13 -34 25 -60 15 -61 35 -2 35 26 0 44 3 41 7 -9 8 -95 24 -131 23 -16 0
-45 5 -65 11 l-36 12 27 11 c14 6 34 19 45 28 10 9 31 22 48 28 23 9 26 13 15
20 -8 6 -25 10 -36 10 -12 0 -27 7 -34 15 -7 8 -23 15 -35 15 -23 0 -75 35
-75 51 0 5 18 9 40 9 22 0 57 7 78 16 l37 17 -90 18 c-66 14 -98 16 -119 9
-35 -12 -56 -13 -56 -2 0 15 98 35 198 39 109 5 112 6 92 58 -6 16 -7 33 -1
42 10 18 -47 101 -80 117 -10 5 -19 13 -19 18 0 13 -88 48 -104 42 -8 -3 -29
3 -48 12 -18 10 -53 20 -78 23 -37 5 -46 10 -48 29 -4 24 -22 31 -22 7 0 -20
-58 -20 -87 0 -20 14 -25 13 -59 -10 -39 -27 -69 -32 -80 -14 -3 6 -17 8 -30
5 -29 -8 -43 16 -24 39 10 13 8 15 -13 15 -34 0 -44 28 -12 36 14 3 25 12 25
19 0 16 -127 27 -153 14 -11 -6 -24 -6 -35 0 -9 6 -15 11 -12 11 3 1 16 4 29
6 26 5 37 11 30 18 -2 2 -60 20 -129 40 -151 45 -336 114 -445 165 -44 20
-101 43 -127 50 -28 8 -48 19 -48 28 0 7 -10 18 -23 24 -22 10 -49 70 -64 140
-4 23 -11 27 -50 33 -25 3 -78 6 -117 6 -39 0 -88 4 -108 9 -20 5 -54 6 -75 2
-43 -7 -83 -3 -83 8 0 32 241 38 298 7 24 -12 37 -14 46 -7 9 8 68 8 192 2 98
-5 182 -6 185 -2 4 3 9 27 12 52 6 45 5 46 -29 62 -19 10 -43 31 -52 47 -15
27 -27 32 -127 54 -60 14 -184 34 -275 46 -91 11 -196 25 -235 31 -92 14 -736
23 -846 12 -54 -5 -187 -4 -355 3 -148 6 -273 9 -277 7 -15 -9 -368 -10 -373
-1 -6 9 -60 8 -284 -3z"/>
<path d="M7175 748 c-252 -8 -291 -12 -267 -27 17 -10 574 -3 585 8 8 8 -47
33 -62 29 -3 0 -118 -5 -256 -10z"/>
<path d="M7039 656 c-6 -5 -735 -20 -832 -17 -43 1 -119 -2 -170 -8 -86 -9
-171 -4 -267 15 -30 6 -33 5 -23 -8 11 -12 -16 -16 -205 -27 -119 -7 -264 -16
-322 -21 -58 -5 -159 -12 -225 -15 -66 -4 -169 -15 -230 -26 -90 -16 -151 -19
-335 -17 -398 3 -510 -3 -510 -28 0 -8 12 -19 27 -25 18 -7 23 -13 16 -20 -16
-16 -131 -38 -278 -54 -102 -11 -133 -18 -145 -32 -9 -10 -30 -19 -50 -19 -46
-2 -65 -7 -84 -23 -14 -12 -21 -12 -41 -1 -13 7 -31 10 -40 6 -9 -3 -24 0 -35
6 -15 9 -24 9 -43 -1 -14 -7 -30 -11 -35 -7 -6 3 -13 2 -16 -2 -3 -5 -37 -9
-75 -9 -51 -1 -75 -5 -86 -17 -17 -16 -30 -19 -77 -16 -14 1 -29 -3 -33 -9 -3
-6 -27 -11 -53 -11 -26 0 -78 -10 -117 -21 -38 -11 -92 -25 -120 -31 -27 -5
-73 -16 -101 -24 -28 -8 -65 -14 -82 -14 -27 0 -32 -4 -32 -24 0 -23 -4 -25
-68 -31 -108 -11 -142 -55 -42 -55 59 0 100 -14 100 -35 0 -13 11 -15 58 -14
34 1 67 -4 80 -12 18 -11 27 -11 54 -1 55 22 130 40 193 47 33 3 112 12 175
20 257 31 417 48 604 61 33 2 64 8 70 14 5 5 37 10 71 10 33 0 96 7 140 15 44
8 99 14 123 15 23 0 50 4 60 9 30 17 311 30 507 24 119 -3 233 -1 305 7 170
18 180 18 235 9 32 -6 84 -5 140 2 50 6 106 11 125 12 30 2 35 5 33 24 -3 21
2 23 40 23 36 -1 39 -2 22 -12 -30 -16 -30 -16 -10 -38 13 -14 22 -17 30 -10
7 6 54 16 104 22 81 9 94 8 110 -6 17 -16 20 -16 35 -1 9 9 20 13 26 10 6 -3
13 1 17 10 7 19 -13 36 -34 28 -8 -3 -13 2 -13 12 0 15 6 17 43 11 23 -3 69
-10 102 -15 33 -5 67 -12 76 -15 9 -4 21 0 29 9 7 8 27 15 46 15 40 0 53 17
22 29 -19 8 -13 10 32 12 129 5 159 7 224 20 46 8 73 9 84 3 27 -18 26 -34 -4
-34 -20 0 -25 -3 -17 -11 7 -7 53 -8 142 -3 81 4 127 10 119 16 -7 4 -29 6
-48 3 -19 -2 -62 -1 -95 3 l-60 8 80 7 c44 4 99 10 121 13 31 3 46 0 58 -12
11 -11 20 -13 29 -6 22 17 140 28 347 30 100 2 390 -6 410 -11 14 -4 95 -9
180 -11 166 -6 220 2 257 36 l22 21 -37 29 c-20 17 -37 38 -37 49 0 10 -5 23
-10 27 -14 12 -207 52 -253 52 -20 0 -53 5 -72 10 -19 6 -71 13 -115 15 -188
11 -225 16 -225 31 0 10 -15 14 -58 14 -32 0 -61 -2 -63 -4z"/>
</g>
</svg>
