<?xml version="1.0" standalone="no"?>
<!DOCTYPE svg PUBLIC "-//W3C//DTD SVG 20010904//EN"
 "http://www.w3.org/TR/2001/REC-SVG-20010904/DTD/svg10.dtd">
<svg version="1.0" xmlns="http://www.w3.org/2000/svg"
 width="1024.000000pt" height="637.000000pt" viewBox="0 0 1024.000000 637.000000"
 preserveAspectRatio="xMidYMid meet">
<metadata>
Created by potrace 1.16, written by Peter Selinger 2001-2019
</metadata>
<g transform="translate(0.000000,637.000000) scale(0.100000,-0.100000)"
fill="#000000" stroke="none">
<path d="M4030 5327 c0 -13 5 -28 11 -34 17 -17 0 -36 -27 -30 -13 2 -24 0
-24 -4 0 -5 9 -9 20 -9 24 0 25 -8 4 -38 -14 -21 -14 -22 10 -22 14 0 26 -4
26 -9 0 -6 15 -7 34 -4 32 5 157 -16 216 -37 40 -14 193 -22 185 -10 -3 5 1
10 9 10 9 0 16 -4 16 -10 0 -5 14 -10 31 -10 17 0 38 -4 48 -9 22 -12 100 -15
171 -5 49 6 54 6 42 -8 -10 -13 -10 -19 3 -32 15 -15 14 -16 -19 -16 -20 0
-38 6 -43 14 -5 10 -32 17 -78 21 -46 3 -63 2 -50 -4 23 -10 21 -11 -57 -31
-26 -7 -45 -17 -42 -21 3 -6 -19 -6 -53 -2 -32 4 -69 7 -83 6 -133 -8 -163
-12 -170 -23 -4 -6 -16 -11 -26 -10 -11 1 -30 1 -44 0 -24 -2 -24 -2 5 -11 17
-5 42 -6 57 -3 36 7 138 -6 138 -18 0 -5 -9 -6 -20 -3 -12 4 -27 1 -35 -5 -11
-9 -31 -9 -87 0 -95 15 -143 11 -142 -12 1 -10 -2 -18 -6 -18 -5 0 -16 -3 -26
-7 -12 -4 -15 -3 -10 5 4 7 2 12 -3 12 -6 0 -11 -4 -11 -10 0 -15 -43 -12 -66
4 -11 8 -45 16 -75 18 -50 3 -56 6 -78 41 -14 20 -32 37 -43 37 -10 0 -17 3
-17 8 4 24 -4 32 -35 32 -19 0 -38 5 -42 11 -5 9 3 10 30 5 56 -11 43 1 -16
13 -35 8 -55 8 -62 1 -5 -5 -23 -10 -39 -10 -15 0 -37 -5 -48 -11 -14 -7 -24
-7 -33 0 -11 9 -97 22 -168 25 -16 0 -28 4 -28 9 0 4 -4 7 -10 7 -5 0 -7 -8
-4 -17 5 -17 5 -17 -9 0 -8 9 -19 17 -26 17 -6 0 -14 6 -17 13 -5 15 -44 20
-44 6 0 -6 14 -15 30 -20 17 -6 30 -15 30 -20 0 -11 -5 -11 -50 0 -20 4 -44 4
-55 0 -18 -7 -18 -8 5 -9 l25 -2 -28 -10 c-15 -5 -40 -7 -55 -3 -15 5 -34 9
-42 11 -8 2 -28 6 -45 9 -23 5 -26 4 -15 -4 12 -9 10 -11 -10 -12 -14 0 -19
-3 -12 -6 16 -6 15 -23 -2 -23 -17 0 -19 -52 -2 -62 6 -4 -7 -8 -29 -8 -29 0
-36 -3 -28 -11 7 -7 9 -25 6 -40 -4 -21 -2 -29 9 -29 8 0 22 -8 31 -17 14 -17
13 -18 -14 -19 -16 -1 -33 -4 -36 -8 -10 -10 19 -27 38 -22 9 2 21 -5 28 -16
6 -10 22 -23 34 -28 19 -7 17 -9 -15 -9 -21 -1 -38 -5 -38 -11 0 -5 -12 -10
-26 -10 -21 0 -24 -3 -15 -13 13 -16 5 -27 -21 -27 -29 0 -21 -18 12 -25 17
-4 30 -11 30 -17 0 -5 -12 -7 -30 -3 -22 5 -32 3 -36 -8 -4 -12 -39 -15 -207
-16 -116 0 -217 -5 -237 -11 -32 -10 -198 -24 -260 -22 -14 1 -32 -1 -40 -5
-8 -3 -35 -7 -59 -10 -24 -2 -63 -13 -87 -23 -24 -11 -54 -20 -67 -20 -13 0
-38 -7 -55 -15 l-30 -16 5 -96 6 -96 -24 7 c-13 3 -46 11 -72 16 -27 5 -53 12
-58 15 -5 4 -45 8 -90 10 -44 3 -92 11 -107 19 -31 16 -96 32 -170 42 -58 7
-66 -2 -31 -37 11 -11 18 -26 16 -33 -7 -17 37 -30 183 -56 151 -26 158 -28
194 -39 17 -5 58 -9 91 -9 87 1 127 -9 120 -32 -5 -17 -1 -19 75 -36 59 -14
84 -15 103 -6 49 24 97 30 169 20 106 -14 118 -17 118 -29 0 -6 -6 -7 -12 -3
-9 5 -9 2 1 -9 7 -9 22 -17 31 -17 26 0 50 -11 50 -22 0 -5 -8 -7 -17 -4 -25
8 -53 -11 -35 -22 10 -7 10 -11 -3 -22 -10 -8 -15 -9 -15 -1 0 6 -11 8 -31 4
-17 -3 -40 0 -54 7 -13 7 -37 10 -54 8 -17 -3 -31 -1 -31 3 0 7 -117 28 -225
39 -38 4 -97 12 -130 18 -33 6 -114 20 -180 31 -66 12 -138 26 -160 31 -22 5
-55 10 -72 10 -18 0 -33 4 -33 9 0 5 -53 12 -117 16 -65 3 -139 10 -166 14
-48 8 -79 -5 -38 -16 12 -3 21 -9 21 -14 0 -6 10 -14 23 -19 17 -7 18 -9 5 -9
-23 -1 -23 -12 4 -62 15 -30 33 -46 67 -62 l46 -21 -73 -9 c-46 -6 -70 -13
-65 -20 4 -7 -6 -8 -30 -4 -26 4 -37 2 -37 -6 0 -7 -12 -24 -27 -37 -41 -37
-42 -92 -2 -121 16 -11 29 -24 29 -28 0 -12 -235 -13 -317 -1 -62 8 -78 7
-107 -7 -45 -21 -53 -41 -21 -49 14 -3 25 -10 25 -15 0 -11 -3 -11 -34 1 -33
12 -33 5 0 -25 15 -14 22 -25 15 -25 -6 0 -11 -9 -11 -20 0 -11 -7 -20 -15
-20 -14 0 -33 -25 -33 -45 0 -5 5 -17 12 -25 7 -8 16 -25 19 -37 4 -18 1 -23
-14 -23 -10 0 -19 -7 -19 -15 0 -9 -9 -15 -22 -15 -20 0 -20 -1 -4 -19 16 -18
16 -19 -9 -25 -22 -6 -25 -9 -15 -21 8 -9 8 -15 2 -15 -27 0 0 -37 42 -59 37
-19 44 -27 35 -37 -9 -11 -7 -14 11 -14 15 0 20 -5 17 -14 -6 -15 20 -26 61
-26 12 0 22 -4 22 -10 0 -13 -66 -13 -91 1 -29 15 -61 2 -57 -24 1 -12 -1 -28
-6 -35 -4 -7 -5 -35 -1 -62 6 -42 11 -51 36 -62 16 -7 29 -18 29 -25 0 -19 53
-25 90 -10 48 19 164 31 154 15 -5 -7 -3 -8 7 -2 8 5 21 7 31 6 33 -6 27 16
-7 22 -58 11 -55 30 4 24 28 -3 54 -1 57 4 3 5 2 8 -3 7 -19 -3 -34 2 -29 10
8 13 -19 21 -70 21 -24 0 -44 5 -44 10 0 6 -11 10 -25 10 -14 0 -25 5 -25 11
0 7 -8 18 -17 24 -16 12 -14 14 19 20 28 5 48 2 85 -16 26 -13 50 -27 51 -31
2 -5 15 -8 28 -8 13 0 24 -4 24 -9 0 -4 19 -16 43 -25 23 -9 53 -25 67 -35 20
-16 22 -21 11 -35 -8 -10 -9 -16 -3 -16 6 0 19 -13 28 -29 20 -34 85 -51 195
-51 50 0 68 -4 73 -15 3 -8 16 -16 28 -16 17 -1 18 -2 6 -6 -37 -9 -17 -27 29
-26 6 0 9 -5 6 -13 -4 -10 1 -11 26 -1 16 6 27 15 24 21 -4 5 4 7 18 3 13 -4
30 -7 37 -7 8 0 11 -9 8 -27 -2 -16 -5 -32 -5 -36 -1 -5 -13 -7 -29 -6 -15 2
-32 0 -39 -4 -6 -4 -78 -2 -159 4 -146 12 -150 12 -157 -17 -1 -4 14 -13 33
-19 19 -7 34 -18 32 -24 -1 -6 10 -16 25 -22 16 -6 40 -16 55 -23 18 -9 30
-10 36 -4 11 11 62 -32 62 -51 0 -11 -80 -8 -99 3 -6 4 -16 4 -22 0 -7 -4 2
-15 22 -28 l34 -21 -50 -3 c-27 -2 -55 -8 -62 -14 -8 -7 -13 -7 -13 0 0 5 -23
9 -50 9 -64 -1 -61 -19 5 -31 34 -6 54 -5 67 3 22 14 43 2 53 -30 5 -16 15
-19 46 -17 35 2 59 -6 48 -16 -2 -2 -38 0 -79 6 -111 14 -240 16 -280 4 -32
-9 -33 -10 -10 -13 84 -11 93 -15 140 -66 42 -44 50 -49 50 -30 0 12 -5 25
-10 28 -6 3 -10 14 -10 23 0 15 2 15 10 2 5 -8 10 -10 10 -4 0 12 75 24 98 16
7 -2 11 -11 8 -18 -3 -7 -1 -16 4 -19 5 -3 11 4 15 15 8 24 37 26 59 4 22 -22
20 -33 -9 -40 -19 -5 -23 -9 -15 -19 6 -7 15 -27 20 -44 7 -26 5 -33 -10 -41
-10 -6 -28 -10 -39 -10 -12 0 -21 -7 -21 -15 0 -8 -7 -15 -15 -15 -8 0 -15 -5
-15 -11 0 -6 7 -8 15 -5 9 3 18 -1 22 -10 3 -8 13 -14 22 -12 9 1 21 -1 28 -5
6 -4 40 -10 75 -13 37 -4 82 -17 108 -31 l45 -24 -57 5 c-32 2 -60 0 -63 -5
-4 -5 -25 -9 -48 -9 -36 0 -39 -2 -27 -14 12 -12 30 -13 95 -6 60 7 92 6 133
-5 96 -25 156 -83 88 -86 l-31 -2 33 -6 c18 -3 32 -10 32 -15 -1 -5 4 -13 12
-17 8 -6 -1 -7 -22 -3 l-35 6 27 -15 c14 -8 39 -15 55 -16 15 0 38 0 50 -1 12
0 35 -13 51 -29 32 -33 28 -55 -13 -65 -14 -4 -25 -14 -25 -22 0 -11 5 -14 16
-10 9 3 34 9 56 13 32 5 39 3 33 -7 -5 -9 -2 -10 14 -5 17 5 33 -2 66 -29 24
-20 48 -36 53 -36 6 0 23 -15 39 -33 16 -18 37 -36 46 -40 20 -8 23 -27 3 -27
-8 0 1 -15 20 -36 19 -19 34 -44 34 -55 0 -10 5 -19 10 -19 6 0 10 -6 10 -14
0 -8 7 -17 16 -20 10 -4 14 -12 10 -22 -7 -19 3 -64 15 -64 5 0 9 5 9 12 0 21
51 78 69 78 10 0 24 7 31 15 7 8 28 15 46 15 24 0 34 5 34 15 0 8 -7 15 -15
15 -9 0 -18 7 -21 15 -4 8 -17 15 -31 15 -13 0 -22 4 -19 9 7 10 -17 21 -45
21 -21 0 -24 11 -8 27 8 8 7 13 -1 18 -7 4 -15 3 -19 -2 -9 -13 -101 -17 -101
-4 0 6 5 11 10 11 6 0 10 9 10 20 0 11 -4 20 -10 20 -17 0 -11 18 8 23 13 3
10 6 -10 11 -31 9 -35 42 -6 49 10 3 16 2 13 -3 -3 -4 4 -10 14 -13 14 -3 17
0 14 14 -3 12 0 19 8 19 20 0 89 51 83 61 -3 5 4 9 15 9 12 0 21 -6 21 -12 1
-9 5 -8 13 3 7 9 18 14 25 12 6 -3 12 2 12 10 0 19 30 26 128 33 42 3 89 7
105 9 15 3 27 1 27 -3 0 -9 85 -7 124 3 18 5 36 3 47 -4 24 -14 30 -14 26 2
-1 8 14 13 45 15 38 2 49 -1 61 -19 12 -16 28 -22 71 -25 51 -4 75 7 44 19 -7
3 -1 6 14 6 14 1 34 4 43 8 14 5 16 2 10 -15 -4 -13 -2 -22 4 -22 6 0 11 7 11
16 0 14 7 15 38 10 20 -3 53 -6 72 -6 28 0 32 -3 20 -11 -12 -9 -11 -9 5 -4
11 4 28 10 38 12 9 3 17 9 17 14 0 5 5 9 10 9 6 0 10 -7 10 -15 0 -12 14 -15
67 -15 61 0 65 -1 47 -15 -18 -14 -18 -14 5 -15 19 0 21 -3 12 -14 -10 -11 -8
-15 6 -19 12 -3 8 -5 -9 -6 -16 0 -28 4 -28 9 0 6 -24 10 -53 10 -30 0 -57 3
-61 7 -8 9 -167 4 -221 -7 -39 -7 -39 -8 -7 -9 17 0 32 -5 32 -11 0 -5 7 -10
15 -10 8 0 19 -10 26 -21 11 -21 10 -21 -27 -15 -22 4 -47 9 -56 12 -12 4 -18
0 -18 -10 0 -9 -7 -16 -15 -16 -8 0 -15 4 -15 10 0 6 -9 6 -26 -1 -15 -5 -94
-14 -176 -19 -82 -5 -157 -14 -168 -20 -12 -6 -41 -8 -71 -4 -38 5 -50 4 -45
-5 5 -7 -4 -11 -28 -11 -19 0 -38 5 -41 10 -3 5 -15 10 -27 10 -15 0 -18 -4
-14 -16 6 -15 -2 -16 -66 -12 -40 3 -65 3 -55 1 9 -3 15 -9 12 -14 -4 -5 7 -6
23 -3 21 4 31 2 35 -10 4 -9 13 -16 22 -16 8 0 15 -5 15 -11 0 -7 10 -9 25 -5
19 5 25 2 25 -10 0 -13 -7 -15 -32 -11 -69 13 -163 17 -143 8 11 -5 33 -10 49
-10 24 -1 27 -4 23 -22 -3 -13 -1 -19 6 -16 7 2 24 -2 39 -9 20 -11 29 -25 37
-65 8 -36 8 -55 1 -64 -6 -7 -11 -38 -12 -69 -1 -46 2 -60 20 -76 12 -11 25
-20 30 -20 5 0 27 -18 48 -40 22 -22 48 -40 59 -40 20 -1 20 -1 1 -15 -11 -8
-14 -15 -8 -15 18 0 42 -63 28 -72 -7 -5 -7 -8 2 -8 8 0 12 -5 10 -11 -5 -15
-131 -15 -136 -1 -2 6 9 12 25 15 27 4 27 4 -4 6 -44 1 -46 31 -3 31 17 0 30
5 30 10 0 6 -16 10 -35 10 -53 0 -42 20 13 22 46 1 46 1 8 5 -28 3 -36 7 -26
13 8 5 11 12 7 16 -3 4 -13 2 -20 -5 -15 -12 -47 -5 -47 10 0 5 8 9 18 9 31 0
-9 20 -43 21 -26 0 -27 2 -10 9 17 7 17 9 3 9 -10 1 -18 5 -18 10 0 10 -61 34
-68 26 -3 -3 0 -5 6 -5 22 0 12 -20 -13 -30 -14 -5 -27 -15 -29 -22 -2 -7 -8
-28 -14 -45 -5 -18 -7 -35 -3 -37 4 -3 14 -24 21 -47 8 -23 22 -46 32 -53 10
-6 23 -27 28 -47 6 -21 17 -40 26 -43 8 -3 12 -2 9 4 -3 6 1 10 9 10 9 0 16
-7 16 -15 0 -8 7 -15 16 -15 12 0 15 7 12 25 -3 13 -2 23 1 22 3 -1 16 4 28
11 39 22 181 36 225 23 29 -9 38 -16 34 -27 -3 -9 -1 -24 4 -35 9 -16 14 -17
31 -6 13 8 19 20 16 34 -4 20 -1 22 20 17 13 -4 29 -1 36 4 8 7 26 8 50 2 42
-9 56 -8 76 4 17 11 106 13 144 3 18 -5 26 -4 23 2 -4 5 3 12 14 14 16 4 15 4
-4 3 -27 -1 -80 49 -70 66 3 5 24 8 45 6 35 -3 38 -2 33 17 -4 11 -14 25 -23
32 -27 20 1 35 71 39 35 2 74 5 87 7 13 1 26 -4 28 -10 3 -7 -2 -13 -11 -13
-9 0 -16 -4 -16 -9 0 -5 -8 -12 -17 -14 -12 -3 -9 -5 8 -6 28 -1 74 40 62 54
-5 4 -2 5 5 1 6 -4 12 -2 12 3 0 14 70 14 90 0 11 -8 6 -9 -21 -7 -27 3 -35 0
-32 -10 3 -7 13 -12 22 -11 36 3 51 -2 51 -17 0 -10 -5 -14 -16 -10 -9 3 -12
2 -8 -5 3 -6 15 -9 25 -6 10 3 21 1 24 -4 7 -11 -40 -23 -61 -15 -11 4 -18 -1
-21 -14 -6 -22 -18 -26 -28 -10 -3 5 -22 10 -41 10 -21 0 -33 4 -29 10 4 6 -6
10 -22 10 -16 0 -35 6 -43 12 -12 11 -12 10 -1 -5 7 -9 19 -17 27 -17 7 0 16
-5 20 -12 5 -8 0 -9 -16 -5 -13 3 -30 1 -37 -5 -12 -10 -18 0 -14 25 0 4 -4 7
-9 7 -6 0 -10 -8 -11 -17 0 -11 -3 -13 -6 -6 -3 10 -11 8 -28 -5 l-23 -17 27
-12 26 -11 -24 -1 c-40 -2 -17 -11 38 -17 35 -3 50 -1 46 6 -3 5 -15 10 -26
10 -10 0 -19 5 -19 11 0 7 9 9 23 5 12 -3 38 -6 57 -7 19 0 29 -3 23 -6 -7 -2
-13 -9 -13 -14 0 -16 25 -9 40 11 17 24 33 25 50 5 10 -12 9 -15 -6 -16 -11
-1 -3 -5 16 -9 38 -9 53 -4 30 10 -10 6 32 10 118 10 78 0 131 -4 128 -9 -4
-5 -17 -8 -31 -7 -13 2 -22 -1 -19 -5 3 -5 40 -9 82 -9 54 0 73 3 62 10 -23
15 5 30 57 30 23 0 54 5 70 11 40 15 128 21 373 23 118 1 226 5 240 9 15 4 32
1 46 -8 16 -10 44 -13 108 -9 50 3 86 1 86 -5 0 -5 -6 -11 -12 -14 -8 -2 -9
-8 -4 -13 5 -5 15 1 23 13 14 20 24 23 85 23 44 0 67 -4 63 -10 -3 -6 -1 -10
4 -10 6 0 11 5 11 10 0 6 12 10 28 10 18 0 23 -3 14 -9 -11 -7 -10 -10 3 -15
23 -8 27 -8 21 3 -4 5 15 14 41 19 42 9 50 8 66 -9 17 -18 17 -19 -10 -21 -15
-1 -37 -2 -48 -3 -11 -1 -35 -3 -52 -4 -18 0 -33 -6 -33 -12 0 -6 9 -8 20 -4
12 4 20 2 20 -6 0 -11 16 -10 93 7 21 5 26 3 22 -8 -5 -12 6 -13 67 -7 107 11
179 27 198 44 22 20 100 20 100 1 0 -8 -8 -17 -17 -19 -11 -3 -8 -5 9 -6 25
-1 55 28 43 41 -2 2 10 4 28 5 18 1 26 -1 20 -3 -7 -3 -13 -12 -13 -19 0 -7
-6 -16 -12 -18 -7 -3 9 -6 35 -6 27 -1 46 -5 43 -10 -3 -5 13 -2 37 6 28 10
88 16 178 18 84 1 144 7 158 15 19 10 25 10 31 0 12 -19 140 -6 187 19 21 11
46 22 56 25 13 4 17 12 12 26 -4 11 -2 20 4 20 6 0 11 -7 11 -15 0 -13 3 -13
20 -3 27 17 40 -1 13 -19 -13 -9 -23 -21 -23 -28 0 -16 -22 -25 -61 -25 -16 0
-29 -4 -29 -10 0 -11 88 -2 105 10 13 10 74 20 143 25 36 2 50 1 37 -5 -18 -7
-19 -8 -2 -15 10 -4 27 -1 42 9 30 20 36 20 29 2 -4 -11 5 -13 48 -9 47 4 82
23 58 31 -6 2 -6 11 0 23 9 16 7 19 -12 18 -13 0 -41 2 -63 5 -28 3 -34 2 -20
-4 16 -7 13 -9 -17 -9 -20 -1 -38 -6 -40 -11 -2 -6 -23 -12 -48 -15 -25 -2
-69 -7 -99 -11 -40 -5 -52 -4 -47 4 4 7 14 12 22 12 8 0 14 7 14 15 0 8 9 15
20 15 13 0 18 -5 14 -15 -4 -11 0 -15 17 -15 12 0 19 3 16 6 -3 4 -2 15 4 25
8 16 6 19 -17 19 -19 0 -25 4 -20 15 5 13 2 14 -15 4 -22 -11 -39 -4 -23 10
15 14 64 22 64 11 0 -5 9 -10 19 -10 22 0 36 -26 18 -34 -7 -2 -2 -5 9 -5 12
-1 36 -4 53 -7 25 -5 30 -4 26 8 -10 25 13 68 35 68 12 0 20 7 20 18 0 14 -2
14 -9 3 -8 -12 -12 -13 -26 -1 -13 10 -13 15 -3 21 10 7 10 11 -1 21 -10 10
-12 10 -7 1 4 -8 1 -13 -8 -13 -9 0 -16 4 -16 10 0 5 -16 9 -35 8 -19 -1 -40
4 -47 10 -21 17 -39 -1 -36 -36 2 -27 6 -32 27 -32 36 0 18 -12 -23 -15 -23
-2 -36 2 -40 12 -4 9 -13 12 -25 8 -11 -3 -23 -1 -26 6 -6 8 -10 7 -16 -2 -8
-12 -10 -12 -18 0 -6 9 -20 11 -50 6 -25 -4 -41 -3 -41 3 0 16 -30 23 -50 12
-14 -7 -19 -5 -23 10 -3 12 -14 20 -26 20 -12 0 -21 4 -21 8 0 5 10 8 23 7 12
-1 28 2 35 8 10 8 16 7 23 -4 6 -10 9 -10 9 -1 0 14 48 16 69 3 8 -5 10 -14 6
-21 -5 -8 -3 -11 6 -8 8 3 14 13 14 24 0 10 6 25 13 33 12 12 18 12 40 -2 16
-9 28 -26 30 -41 2 -14 8 -26 14 -26 6 0 7 11 3 27 -3 15 -7 32 -8 36 -3 13
66 17 81 5 9 -8 18 -6 32 7 14 13 28 16 55 11 22 -4 35 -3 35 4 0 5 7 10 16
10 13 0 14 -3 5 -13 -6 -8 -7 -17 -3 -21 4 -4 -5 -5 -19 -1 -21 5 -27 2 -32
-14 -3 -14 0 -21 10 -21 8 0 11 5 8 10 -10 16 11 11 26 -6 12 -14 14 -14 21 5
4 12 15 21 23 21 10 0 13 5 9 12 -5 8 0 9 16 5 13 -3 29 -2 36 4 6 5 36 11 66
13 48 2 59 7 87 37 21 22 29 27 22 12 -6 -12 -11 -30 -11 -40 1 -17 1 -17 11
0 14 24 30 11 23 -18 -6 -23 -4 -24 27 -15 18 5 43 7 56 4 14 -4 23 -2 23 6 0
6 8 9 18 6 18 -5 60 13 62 28 1 5 -4 13 -12 17 -10 7 -10 9 0 9 9 0 10 5 4 16
-5 9 -7 25 -4 36 4 16 1 17 -22 8 -37 -14 -41 -13 -25 7 13 15 12 16 -9 11
-19 -5 -22 -3 -16 14 4 15 3 18 -6 13 -6 -4 -22 -2 -35 5 -26 14 -80 6 -70
-10 3 -6 18 -10 33 -10 25 0 25 -1 6 -15 -10 -8 -14 -15 -9 -16 6 0 24 -3 40
-5 37 -6 58 -24 28 -24 -12 0 -25 -4 -28 -10 -10 -17 -25 -11 -25 10 0 11 -7
20 -15 20 -16 0 -11 -25 11 -50 7 -9 10 -21 5 -28 -9 -16 -27 3 -30 31 -1 9
-2 26 -3 37 -1 10 -9 19 -18 18 -53 -4 -66 18 -40 64 13 24 22 28 58 28 23 0
42 -4 42 -10 0 -5 8 -10 18 -9 9 0 12 3 6 5 -7 3 -10 14 -7 24 5 17 1 19 -23
14 -26 -5 -65 -10 -104 -13 -11 -1 -12 -3 -2 -9 9 -6 7 -13 -7 -29 -11 -11
-17 -23 -15 -26 3 -3 -6 -13 -21 -23 -23 -15 -28 -15 -36 -3 -12 19 -11 29 1
29 6 0 10 6 10 13 0 8 11 20 25 27 24 13 34 30 16 30 -4 0 -21 -10 -36 -22
-22 -17 -31 -19 -46 -10 -26 16 -48 15 -55 -3 -4 -8 -12 -15 -20 -15 -19 0
-18 26 1 34 24 9 6 33 -25 33 -17 0 -30 -4 -30 -9 0 -4 -5 -8 -12 -8 -8 0 -8
4 2 14 19 18 96 25 93 8 -4 -19 11 -14 25 8 12 19 14 19 29 5 19 -19 18 -20
-27 -33 l-35 -10 32 -1 c17 -1 34 3 38 9 3 5 12 7 19 4 8 -3 17 -1 21 5 3 6
-1 11 -10 11 -9 0 -13 4 -10 10 3 5 1 10 -6 10 -7 0 -10 3 -6 6 11 11 122 19
187 13 14 -2 56 -2 94 -1 56 2 67 5 62 17 -4 11 1 15 18 15 14 0 32 3 41 7 15
5 16 3 5 -16 -13 -26 -6 -41 12 -23 7 7 27 12 45 12 23 0 33 5 33 15 0 8 5 16
10 17 28 4 35 2 35 -11 0 -8 14 -15 38 -17 25 -2 37 1 37 10 0 17 160 33 265
26 l79 -5 -26 -17 c-15 -10 -34 -18 -43 -18 -8 0 -15 -3 -15 -7 0 -5 -20 -17
-45 -28 -25 -11 -45 -23 -45 -28 0 -5 -7 -7 -15 -3 -8 3 -15 2 -15 -3 0 -5
-15 -12 -34 -15 -19 -4 -37 -12 -40 -19 -3 -9 -7 -8 -14 2 -7 9 -16 11 -28 6
-11 -5 -41 -8 -68 -7 l-50 1 30 -15 c16 -9 42 -14 60 -11 34 6 66 -7 43 -16
-8 -3 -3 -6 11 -6 14 0 32 4 40 9 13 9 13 10 0 10 -12 0 -12 2 -2 9 18 11 74
-1 80 -17 2 -6 -4 -12 -13 -12 -9 0 -13 -5 -10 -10 4 -6 16 -8 27 -4 34 10 68
12 74 2 3 -5 20 -6 38 -2 25 4 35 2 39 -10 7 -17 -8 -32 -17 -18 -7 12 -36 9
-63 -6 -12 -7 -29 -12 -38 -12 -9 0 -13 -4 -10 -10 3 -5 1 -10 -4 -10 -6 0
-11 5 -11 10 0 6 -11 10 -25 10 -15 0 -24 -5 -22 -12 1 -8 -8 -13 -23 -13 -17
0 -32 11 -48 35 -14 21 -22 27 -20 16 1 -10 -3 -21 -9 -23 -12 -4 -17 11 -16
45 1 6 -8 12 -18 12 -11 0 -16 -5 -13 -13 3 -8 -12 -22 -36 -36 -22 -12 -38
-27 -35 -32 4 -5 -1 -9 -9 -9 -27 0 -17 -18 12 -22 15 -2 -6 -5 -47 -6 -40 -1
-83 -4 -95 -7 -16 -5 -17 -4 -6 3 8 6 35 13 60 18 40 6 42 8 20 15 l-25 7 28
1 c35 1 35 17 1 25 -21 6 -24 10 -15 19 9 9 14 8 21 -3 7 -11 12 -12 21 -3 17
17 -56 26 -123 14 -5 0 -8 -6 -8 -12 0 -7 10 -9 28 -5 18 4 22 3 13 -2 -11 -8
-11 -10 0 -15 8 -3 1 -4 -15 -4 -16 1 -31 -4 -33 -10 -3 -8 5 -13 19 -14 20
-1 19 -3 -7 -9 -16 -4 -24 -8 -16 -9 10 -1 11 -4 2 -14 -16 -20 -4 -27 48 -28
25 -1 38 -3 29 -6 -22 -6 -22 -9 0 -31 25 -25 66 -36 58 -16 -6 16 19 19 29 3
4 -6 13 -8 21 -5 8 3 14 1 14 -4 0 -5 -18 -13 -40 -16 -22 -4 -40 -11 -40 -15
0 -5 -9 -4 -19 3 -15 9 -25 9 -46 0 -36 -17 -79 -16 -72 1 3 8 1 20 -4 28 -7
12 -9 12 -10 -1 -1 -8 -2 -22 -3 -30 0 -8 -10 -15 -21 -16 -56 -3 -65 -5 -65
-13 0 -5 13 -11 29 -13 18 -3 28 0 24 5 -4 6 6 8 27 4 18 -4 40 -7 49 -7 14 0
14 -2 1 -11 -16 -11 -6 -10 70 13 41 11 40 11 145 8 89 -2 115 4 115 29 0 22
17 47 26 38 4 -3 2 -12 -4 -20 -19 -22 1 -35 66 -43 43 -4 62 -3 62 5 0 6 7
11 15 11 8 0 15 4 15 9 0 13 43 22 54 11 6 -6 18 -10 28 -10 10 0 17 -3 15 -7
-1 -5 1 -8 5 -8 10 0 37 -38 33 -46 -2 -3 16 -3 40 1 30 4 54 17 75 37 32 31
82 57 133 67 15 4 27 11 27 17 0 7 -10 9 -27 5 -20 -5 -24 -4 -13 3 8 6 33 13
55 17 22 3 45 10 50 14 6 5 19 2 30 -6 17 -13 18 -16 5 -24 -11 -7 -7 -10 17
-10 17 0 33 -6 36 -12 3 -10 13 -10 50 -1 26 7 68 13 93 13 27 0 54 7 68 17
21 16 21 18 7 50 -8 18 -20 33 -27 33 -7 0 -15 7 -18 16 -3 9 -11 12 -18 8 -9
-5 -9 -3 1 9 11 14 11 20 1 32 -11 13 -6 15 34 15 25 0 45 -3 44 -7 -4 -23 17
-43 46 -44 28 0 29 -1 9 -9 -34 -14 -28 -20 12 -13 23 4 43 0 59 -10 18 -12
26 -13 29 -4 4 9 8 8 16 -3 8 -11 11 -12 11 -2 0 7 5 10 10 7 6 -4 9 -3 8 2
-5 13 6 16 30 8 18 -5 30 -1 50 18 15 13 35 27 45 30 18 7 24 27 7 27 -5 0
-10 9 -10 20 0 11 -7 20 -15 20 -8 0 -15 9 -15 19 0 35 -107 39 -182 8 -39
-17 -69 -8 -51 15 6 7 10 29 8 48 -2 19 -4 40 -4 47 -1 9 -25 11 -93 8 -77 -4
-96 -8 -110 -25 -9 -11 -24 -20 -34 -20 -9 0 -14 3 -11 7 4 3 2 12 -4 20 -9
10 -15 10 -25 2 -12 -10 -12 -14 3 -24 30 -22 9 -45 -44 -45 l-48 0 29 -15
c16 -9 43 -14 60 -13 17 2 31 -1 31 -7 0 -5 -6 -9 -12 -9 -20 3 -15 -14 5 -19
13 -4 11 -5 -6 -6 -12 0 -30 4 -40 10 -22 14 -72 -4 -72 -26 0 -8 -7 -15 -15
-15 -8 0 -23 -9 -34 -21 -22 -24 -91 -50 -106 -41 -5 4 -2 8 8 10 9 2 17 12
17 22 0 20 19 30 60 30 16 0 32 5 35 10 4 6 11 8 16 5 5 -4 9 -2 9 3 0 15 -46
23 -73 13 -30 -12 -37 -6 -37 30 0 27 2 28 63 32 l62 3 -61 2 c-72 2 -103 24
-69 48 10 8 33 14 51 14 38 0 57 29 21 31 -27 2 -58 5 -74 7 -7 1 -13 8 -13
15 0 9 -29 11 -117 9 -65 -1 -128 -4 -140 -6 -12 -1 -24 3 -27 10 -4 10 5 14
34 14 21 0 41 4 44 9 3 5 -21 9 -54 8 -33 0 -63 2 -66 5 -10 11 20 47 41 48
11 1 40 2 65 3 32 1 45 6 45 17 0 10 9 14 25 12 38 -4 47 -20 16 -28 -14 -3
-26 -10 -26 -15 0 -5 -7 -9 -16 -9 -8 0 -12 -5 -9 -11 5 -7 12 -6 23 4 17 14
58 28 99 33 14 2 23 -4 26 -17 4 -16 12 -20 34 -17 19 2 27 8 25 18 -3 12 -1
13 9 2 17 -16 56 -16 62 1 4 9 8 9 15 -1 5 -8 12 -13 16 -13 29 4 56 -1 51 -9
-3 -5 -1 -10 4 -10 6 0 11 7 11 16 0 10 6 14 14 11 8 -3 17 1 20 9 3 8 2 14
-3 14 -13 0 -22 43 -10 51 5 3 11 19 12 35 1 16 7 29 12 30 6 0 29 6 53 13 23
6 47 9 52 6 5 -3 11 -1 15 5 8 13 55 13 55 0 0 -5 16 -10 35 -10 19 0 35 3 35
8 0 15 62 42 123 53 34 6 84 17 111 25 55 16 99 19 78 5 -28 -17 69 -31 143
-19 39 5 93 11 120 11 45 2 50 4 47 24 -3 21 28 49 41 37 3 -3 10 3 16 14 6
11 22 23 36 26 26 7 33 20 15 31 -15 9 -12 25 4 25 14 0 29 48 19 62 -2 5 -15
5 -29 2 -31 -8 -32 12 -1 22 12 4 36 7 52 6 45 -2 70 25 89 97 l18 64 -27 23
c-15 13 -43 26 -61 30 -27 5 -34 11 -34 30 0 13 -5 24 -11 24 -8 0 -8 4 0 13
14 18 10 107 -5 107 -6 0 -14 14 -16 30 -4 26 -1 30 19 30 13 0 23 4 23 9 0 6
-12 6 -32 0 -66 -19 -138 -1 -138 34 0 10 4 16 8 13 5 -3 24 3 43 13 24 12 48
16 79 13 35 -4 41 -7 25 -13 -17 -6 -15 -8 10 -9 26 -1 27 -3 10 -10 -15 -7
-8 -9 30 -11 35 -1 41 -3 20 -6 -34 -5 -59 -23 -32 -23 9 0 36 6 59 14 72 24
108 29 108 16 0 -9 4 -9 16 1 11 9 42 13 90 13 l74 -1 6 34 c5 27 0 43 -27 84
-18 29 -32 61 -32 71 2 15 -1 17 -11 9 -7 -6 -15 -9 -17 -7 -2 3 -24 7 -49 10
-96 12 -130 19 -130 27 0 5 12 11 28 15 43 9 49 12 23 13 -22 1 -23 3 -10 19
8 9 21 29 29 44 15 31 65 42 53 12 -11 -28 19 -35 39 -9 17 22 17 27 5 52 -8
15 -12 34 -10 41 3 6 -2 12 -11 12 -9 0 -16 7 -16 16 0 12 6 15 25 10 14 -4
25 -3 25 1 0 11 -46 60 -62 66 -10 3 -11 9 -1 25 14 23 0 35 -27 22 -8 -4 -31
-10 -51 -14 -36 -6 -37 -6 -35 26 2 33 3 33 49 31 26 -1 47 1 47 4 0 18 -53
72 -76 77 -26 7 -26 7 -8 28 11 11 39 34 64 51 56 37 140 123 140 142 0 7 -5
17 -11 20 -7 5 -5 15 5 31 20 29 20 96 1 154 -8 25 -17 57 -19 71 -3 14 -16
41 -29 60 -22 32 -26 34 -80 34 -31 0 -57 3 -57 7 0 5 4 8 9 8 5 0 11 9 14 19
3 13 22 24 59 35 31 9 61 22 67 30 6 7 12 40 13 71 1 46 -2 60 -17 71 -21 15
-95 8 -107 -10 -6 -8 -11 -6 -18 4 -7 10 -10 11 -10 2 0 -8 -8 -10 -24 -6 -13
3 -27 1 -30 -5 -4 -6 -36 -11 -72 -11 -35 0 -64 -4 -64 -9 0 -5 -23 -8 -50 -7
-28 2 -53 -1 -56 -6 -3 -4 -12 -8 -20 -8 -8 0 -32 -11 -52 -25 -20 -14 -52
-26 -72 -26 -19 -1 -48 -5 -65 -10 -21 -6 -11 -7 35 -4 36 2 54 1 40 -2 -51
-10 -125 -32 -112 -32 24 -2 1 -21 -24 -21 -22 0 -23 2 -12 20 7 11 19 21 28
24 8 2 3 4 -12 5 -20 1 -25 5 -21 20 4 17 36 36 106 61 15 5 27 14 27 20 0 5
13 10 28 10 15 0 33 5 39 11 13 13 47 18 211 32 81 7 121 14 119 22 -3 7 17 9
64 7 65 -4 69 -3 80 21 9 19 8 31 -5 55 -15 28 -19 30 -53 25 -51 -8 -51 -8
-108 1 -27 5 -53 13 -56 18 -3 4 -16 11 -29 13 -33 6 -47 23 -27 31 21 8 22
24 2 24 -8 0 -15 3 -15 6 0 12 35 33 54 34 20 0 20 0 0 15 -26 19 -55 20 -48
0 4 -9 0 -15 -10 -15 -9 0 -16 -4 -16 -10 0 -5 -7 -10 -15 -10 -8 0 -15 -7
-15 -15 0 -8 -4 -15 -10 -15 -5 0 -10 -4 -10 -10 0 -5 12 -8 27 -7 14 1 28 -3
30 -9 5 -15 -33 -24 -46 -11 -18 18 -24 0 -7 -24 14 -20 14 -24 -2 -36 -15
-11 -15 -12 -1 -7 30 10 33 -17 5 -40 l-27 -21 78 1 c43 0 94 -3 113 -7 33 -6
32 -6 -15 -8 -27 -1 -70 -6 -93 -10 -28 -6 -54 -5 -73 2 -23 9 -34 8 -58 -6
-16 -9 -38 -17 -49 -17 -12 0 -24 -5 -28 -11 -3 -6 -20 -8 -38 -5 -17 2 -49 1
-71 -3 l-40 -8 38 -8 c44 -9 44 -29 1 -31 -16 -1 -44 -6 -61 -12 -43 -14 -55
4 -22 31 l24 20 -85 -7 c-47 -4 -128 -11 -180 -15 -52 -5 -97 -7 -99 -5 -3 3
8 17 22 32 17 18 27 39 27 59 0 17 7 50 15 74 9 24 13 49 11 56 -7 17 4 44 14
38 5 -3 15 2 23 10 17 16 53 20 61 6 3 -5 -8 -14 -24 -21 -16 -7 -27 -16 -24
-21 3 -5 12 -5 22 0 9 4 36 11 59 15 23 3 54 12 70 20 15 8 37 18 47 21 35 10
11 13 -48 4 -63 -8 -90 -3 -62 13 9 5 16 16 16 25 0 12 7 14 35 10 20 -3 35
-2 35 4 0 5 10 13 22 18 21 8 21 8 -9 35 -22 19 -29 33 -26 50 4 20 1 23 -26
22 -25 -1 -32 -6 -37 -28 -3 -16 -10 -28 -15 -28 -6 0 -7 5 -4 10 3 6 3 15 -1
22 -5 8 -11 6 -19 -6 -7 -9 -32 -26 -55 -39 -23 -12 -41 -24 -39 -27 4 -7 -47
-60 -59 -60 -17 0 -21 -28 -5 -35 14 -5 13 -8 -6 -21 -28 -20 -59 -11 -41 11
16 20 3 19 -16 0 -10 -10 -35 -15 -71 -15 -49 0 -54 2 -43 15 26 31 -22 45
-97 29 -18 -3 -33 -4 -33 0 0 12 35 46 47 46 7 0 13 3 13 8 0 4 24 18 53 31
28 13 66 33 82 46 17 12 44 29 60 38 23 12 30 22 30 45 0 27 -3 30 -40 35 -28
4 -45 1 -57 -10 -17 -15 -58 -10 -58 7 0 13 42 40 62 40 10 0 18 4 18 9 0 13
-37 24 -51 15 -6 -3 -15 -1 -19 6 -7 11 -13 10 -34 -3 -35 -24 -57 -21 -26 3
l25 20 -40 1 c-23 1 -31 4 -20 6 28 7 50 26 50 42 0 8 14 15 38 17 40 3 57 10
57 24 0 4 -19 4 -42 -1 -23 -6 -47 -8 -54 -5 -8 3 -16 1 -19 -4 -9 -15 -25
-12 -25 5 0 8 -4 15 -10 15 -5 0 -10 7 -10 15 0 8 -7 15 -16 15 -12 0 -10 5 9
20 14 11 31 20 39 20 7 0 20 5 28 10 10 7 -6 8 -50 5 -36 -2 -56 -2 -45 1 29
9 43 24 21 24 -30 0 -210 -51 -231 -66 -11 -8 -29 -14 -42 -14 -12 0 -25 -5
-28 -10 -4 -6 -3 -10 2 -9 4 1 16 1 27 0 15 -1 16 -4 6 -16 -7 -8 -20 -14 -29
-13 -9 2 -15 -3 -14 -9 2 -9 -11 -13 -42 -13 -25 0 -45 -5 -45 -11 0 -6 -17
-9 -41 -7 -29 2 -43 -1 -47 -11 -3 -11 2 -12 24 -7 l29 6 -24 -20 c-13 -11
-18 -20 -12 -20 8 0 7 -6 -1 -20 -7 -11 -21 -20 -31 -20 -10 0 -20 -7 -23 -15
-4 -8 -11 -15 -16 -15 -5 0 -22 -8 -36 -19 -25 -17 -84 -29 -177 -37 -22 -2
-60 -8 -85 -15 -25 -6 -69 -8 -97 -5 -33 4 -53 2 -53 -4 0 -5 -8 -10 -18 -10
-10 0 -21 -2 -24 -5 -8 -9 -217 -10 -224 -2 -4 4 6 7 22 7 22 0 26 3 14 10
-19 12 -80 13 -80 1 0 -5 6 -12 13 -14 6 -3 2 -6 -9 -6 -12 -1 -24 6 -28 14
-3 9 -12 12 -22 8 -12 -4 -15 -3 -10 5 4 7 23 12 43 12 20 0 44 6 52 14 28 23
68 28 86 9 14 -13 22 -15 45 -6 20 8 31 8 39 0 8 -8 11 -5 11 10 0 12 -6 23
-12 25 -7 3 7 8 31 12 24 4 46 4 49 1 3 -3 -5 -5 -18 -5 -15 0 -20 -4 -14 -9
5 -6 24 -6 44 -1 19 4 29 8 23 9 -18 1 -16 21 2 21 8 0 15 -4 15 -10 0 -15 37
-12 54 5 18 18 43 20 48 3 3 -8 23 -12 54 -11 47 1 152 19 127 22 -7 0 -17 10
-22 20 -9 16 -8 18 7 14 19 -5 122 53 122 68 0 5 7 9 15 9 8 0 15 5 15 11 0
12 -80 8 -112 -6 -11 -4 -18 -3 -18 4 0 6 8 11 18 11 14 0 15 2 2 10 -13 9
-13 11 0 20 11 7 11 10 2 10 -7 0 -11 4 -7 9 3 5 1 12 -4 15 -5 4 -12 2 -16
-4 -4 -6 -11 -8 -16 -4 -19 11 25 32 61 28 28 -3 30 -2 10 4 -15 5 -20 11 -13
15 16 10 4 47 -13 40 -8 -3 -25 -2 -39 1 -23 6 -24 8 -10 22 8 8 15 19 15 24
0 14 -67 3 -92 -15 l-23 -17 33 7 c25 5 32 3 32 -9 0 -10 -9 -16 -22 -16 -66
-2 -122 -11 -129 -21 -4 -7 -14 -9 -23 -6 -8 3 -28 0 -43 -8 -15 -8 -41 -15
-58 -16 l-30 -1 30 -8 c17 -4 23 -8 14 -9 -24 -2 -109 -47 -102 -54 3 -4 -2
-9 -11 -13 -26 -10 -19 -24 12 -24 30 0 82 -20 82 -32 0 -5 6 -8 14 -8 17 0
28 -24 20 -45 -7 -17 -20 -20 -28 -6 -3 4 -17 6 -31 3 -20 -3 -24 -1 -19 12 4
9 1 16 -6 16 -7 0 -10 7 -6 16 5 13 1 15 -19 10 -68 -16 -80 -18 -65 -7 11 8
12 11 2 11 -7 0 -10 5 -6 12 5 8 0 9 -17 5 -13 -4 -37 -7 -53 -7 -23 0 -27 -4
-23 -19 6 -24 -9 -30 -90 -38 -61 -6 -79 -23 -25 -23 20 0 23 -3 13 -9 -12 -7
-12 -13 -3 -24 7 -7 11 -16 9 -18 -1 -2 3 1 9 8 12 14 74 18 74 5 0 -4 -9 -15
-19 -24 -15 -12 -28 -14 -55 -8 -27 6 -40 4 -51 -6 -8 -8 -34 -14 -60 -14 -28
0 -44 -4 -40 -10 10 -16 -58 -11 -79 5 -18 14 -17 15 22 15 25 0 42 5 42 11 0
8 -15 10 -46 5 -26 -3 -53 -6 -61 -6 -8 0 -11 -4 -8 -10 10 -15 -25 -12 -41 4
-8 8 -14 17 -14 20 0 7 72 30 100 31 14 1 49 2 79 3 78 3 58 12 -40 18 -46 4
-93 11 -104 17 -11 6 -67 12 -125 13 -58 2 -154 10 -214 18 -60 9 -131 16
-158 16 -27 0 -47 3 -45 8 3 4 -74 7 -170 7 -135 1 -176 4 -182 14 -7 11 -21
11 -72 2 -34 -6 -65 -15 -68 -20 -7 -11 -62 -12 -76 -1 -6 5 -44 7 -85 5 -41
-1 -77 1 -80 5 -3 5 -27 6 -53 3 -27 -3 -43 -9 -37 -13 8 -5 4 -9 -9 -13 -12
-3 -19 -2 -16 3 3 4 -6 10 -20 12 -21 4 -25 1 -25 -18 0 -21 -5 -24 -35 -24
-19 0 -43 4 -53 9 -9 5 -30 15 -45 22 -25 12 -26 14 -10 20 10 4 49 8 87 8 57
1 67 3 62 17 -5 12 2 15 42 12 31 -2 46 -7 45 -15 -4 -18 12 -16 31 2 17 17
30 20 21 5 -4 -6 13 -10 42 -11 26 -1 67 -2 91 -3 23 -1 42 1 42 5 0 8 -89 31
-98 25 -5 -3 -14 -1 -22 5 -11 6 -3 9 26 9 22 0 44 3 48 8 4 4 33 7 64 8 147
2 152 2 152 25 0 21 -4 21 -65 17 -42 -4 -78 -1 -102 8 -21 7 -55 13 -75 14
-21 0 -38 4 -38 8 0 12 -118 31 -238 37 -107 6 -158 18 -147 35 8 13 -15 13
-69 -2 -37 -10 -48 -9 -69 5 -29 19 -84 19 -114 0 -17 -11 -30 -12 -59 -4 -41
11 -58 6 -50 -15 3 -7 1 -16 -3 -19 -16 -9 -71 7 -71 21 0 22 -57 17 -116 -11
-47 -22 -59 -24 -99 -15 -25 6 -53 15 -63 20 -35 20 -114 50 -133 50 -13 0
-19 -7 -19 -23z m-864 -3512 c-15 -8 -32 -13 -36 -10 -5 3 -11 -1 -13 -7 -4
-10 -7 -10 -14 -1 -11 16 -53 5 -53 -13 0 -8 -7 -14 -15 -14 -8 0 -15 -4 -15
-10 0 -5 14 -10 32 -10 29 0 30 -1 13 -13 -10 -8 -15 -19 -11 -25 4 -8 0 -12
-10 -12 -12 0 -15 -3 -8 -10 11 -11 54 -2 54 11 0 5 -6 9 -12 10 -7 0 -3 4 10
9 12 5 22 14 22 20 0 5 4 10 8 10 5 0 9 -7 9 -15 0 -8 -6 -15 -13 -15 -7 0
-11 -8 -9 -20 2 -13 -2 -20 -11 -20 -8 0 -14 -5 -14 -11 0 -6 -7 -8 -16 -5 -8
3 -36 -5 -62 -19 -26 -14 -50 -25 -54 -25 -15 0 -8 29 10 39 15 9 14 10 -6 11
-13 0 -20 4 -17 10 3 6 -3 10 -14 10 -12 0 -21 7 -21 15 0 8 -7 15 -15 15 -8
0 -15 5 -15 10 0 6 17 10 38 10 23 0 32 -3 24 -8 -8 -6 -2 -9 18 -9 16 0 30 4
30 9 0 4 7 8 15 8 17 0 19 9 7 28 -6 9 -13 7 -30 -8 -13 -12 -23 -16 -27 -9
-4 5 -14 7 -23 5 -10 -3 -24 -1 -32 4 -13 9 -13 11 0 19 8 5 18 8 21 8 3 -1
14 4 23 12 17 15 105 27 206 30 55 1 55 1 26 -14z m-352 -41 c-7 -3 -10 -13
-7 -23 3 -10 0 -22 -7 -26 -8 -5 -8 -11 1 -21 9 -11 9 -18 1 -26 -15 -15 -16
-32 -2 -23 16 10 24 -23 10 -40 -9 -11 -9 -15 -1 -15 7 0 9 -4 6 -10 -3 -5 2
-10 12 -10 10 0 26 -7 36 -14 16 -12 16 -14 1 -20 -24 -9 -56 -7 -50 3 8 12
-10 17 -61 16 -27 0 -45 5 -48 14 -4 10 -8 11 -19 2 -15 -13 -66 -5 -66 10 0
5 -11 19 -24 30 -15 13 -22 27 -19 37 4 9 2 13 -4 9 -6 -4 -25 -4 -42 -1 -26
6 -29 9 -19 21 9 12 25 14 66 9 57 -7 124 8 143 31 9 10 6 12 -20 7 -20 -4
-31 -3 -31 5 0 6 6 11 13 12 79 6 103 11 105 19 2 6 11 10 20 9 10 0 12 -3 6
-5z"/>
<path d="M929 2477 c-9 -7 -14 -18 -11 -26 6 -18 -18 -32 -45 -26 -27 6 -30
-10 -9 -52 8 -15 22 -45 32 -66 10 -20 26 -39 35 -42 35 -11 53 -44 50 -90 -1
-25 1 -45 6 -45 5 0 24 16 43 35 19 19 38 35 43 35 13 0 7 -33 -10 -52 -15
-17 -15 -18 1 -18 9 0 27 10 39 23 12 12 33 28 47 34 l25 12 -25 0 c-25 1 -35
13 -60 74 -18 41 -34 34 -27 -12 4 -36 3 -40 -21 -46 -36 -9 -49 8 -35 45 6
17 7 30 2 30 -15 0 -23 51 -8 60 10 7 5 16 -19 41 -18 18 -32 40 -32 48 0 9
12 1 30 -19 16 -18 33 -30 37 -27 4 4 1 13 -5 19 -20 20 -14 46 11 51 21 3 21
4 -6 15 -36 15 -68 15 -88 -1z"/>
<path d="M9078 2125 c-12 -27 -31 -34 -26 -11 3 14 0 16 -22 16 -17 0 -11 -38
8 -43 13 -4 11 -5 -5 -6 -37 -2 -38 -1 -35 19 2 11 -2 20 -7 20 -6 0 -11 -9
-11 -20 0 -11 -7 -20 -16 -20 -8 0 -12 -4 -9 -10 3 -5 -1 -10 -9 -10 -18 0
-22 -16 -6 -22 16 -5 21 -51 7 -60 -9 -7 -9 -11 3 -21 16 -13 20 -41 7 -53 -4
-4 -2 -13 4 -21 7 -7 7 -13 2 -13 -5 0 -15 -11 -21 -25 -11 -23 -9 -25 26 -34
24 -7 40 -7 46 -1 6 6 26 10 45 10 42 0 35 11 -8 12 -17 1 -28 5 -24 10 3 6
19 8 35 6 16 -3 31 -1 34 4 3 4 0 8 -6 8 -6 0 -10 10 -8 23 2 15 9 21 21 19
10 -2 25 2 33 9 8 7 28 9 48 6 28 -4 38 -1 61 23 26 27 36 74 21 98 -4 8 -29
10 -69 7 -34 -3 -56 -3 -49 1 22 10 13 26 -12 20 -30 -7 -41 3 -19 20 15 11
16 15 4 38 -18 33 -28 33 -43 1z"/>
<path d="M1696 1798 c-16 -32 -16 -32 30 -91 25 -32 47 -71 48 -85 4 -34 22
-40 29 -10 4 13 2 25 -3 26 -13 5 -13 42 0 42 6 0 22 -12 36 -27 l25 -28 -4
32 -3 32 30 -22 c17 -12 31 -20 31 -19 0 4 49 -14 76 -28 9 -5 26 -6 38 -3 21
5 20 7 -11 26 -18 11 -51 38 -74 61 -57 58 -102 89 -154 109 -63 24 -76 22
-94 -15z"/>
<path d="M1690 1250 c12 -8 11 -10 -7 -10 -33 0 -28 -22 12 -57 36 -32 42 -47
25 -58 -13 -8 10 -45 28 -45 9 0 11 -7 7 -21 -5 -15 -4 -19 4 -15 7 4 11 0 11
-11 0 -25 26 -60 36 -50 5 4 3 17 -4 27 -7 11 -12 26 -12 33 0 8 -11 30 -24
50 -25 37 -24 57 1 31 9 -8 18 -12 21 -9 3 3 0 11 -6 17 -24 24 -13 35 29 32
38 -3 40 -2 33 19 -11 37 -26 49 -56 45 -16 -3 -31 -1 -34 4 -3 4 -10 8 -16 8
-6 0 -3 -9 7 -20 11 -13 14 -20 6 -20 -20 0 -41 27 -35 44 5 12 0 16 -17 16
-19 0 -21 -2 -9 -10z"/>
<path d="M8020 1165 c-41 -19 -95 -39 -119 -45 -32 -8 -40 -14 -31 -20 17 -11
11 -18 -18 -23 -27 -4 -41 -17 -19 -17 10 0 17 -7 17 -15 0 -8 -3 -14 -7 -13
-17 3 -63 -23 -63 -36 0 -7 -7 -16 -15 -20 -24 -9 -17 -25 8 -19 47 10 53 15
34 22 -18 7 -18 8 -1 21 10 8 15 10 11 3 -5 -7 3 -14 22 -18 22 -5 35 -1 50
14 27 27 61 28 61 1 0 -15 -9 -22 -32 -27 -32 -7 -32 -7 -8 -13 26 -7 30 -24
16 -67 -6 -18 -4 -23 11 -23 25 0 56 53 41 68 -8 8 -7 13 6 18 9 3 28 26 42
50 14 24 31 44 38 44 11 0 42 39 39 50 -1 3 10 6 23 6 13 1 24 -2 24 -7 0 -4
8 -5 17 -2 15 6 14 7 -3 14 -17 6 -16 8 9 18 35 14 54 14 59 1 2 -7 11 -5 23
4 18 14 18 15 3 16 -10 0 -18 3 -18 6 0 4 8 13 18 21 15 13 12 14 -28 7 -25
-3 -55 -7 -67 -8 -12 0 -25 -5 -30 -10 -5 -5 0 -6 12 -2 14 5 17 4 10 -3 -6
-6 -21 -8 -33 -4 -22 5 -22 7 -6 24 16 18 16 19 -2 18 -10 0 -53 -16 -94 -34z"/>
</g>
</svg>
