<?xml version="1.0" standalone="no"?>
<!DOCTYPE svg PUBLIC "-//W3C//DTD SVG 20010904//EN"
 "http://www.w3.org/TR/2001/REC-SVG-20010904/DTD/svg10.dtd">
<svg version="1.0" xmlns="http://www.w3.org/2000/svg"
 width="1024.000000pt" height="1024.000000pt" viewBox="0 0 1024.000000 1024.000000"
 preserveAspectRatio="xMidYMid meet">
<metadata>
Created by potrace 1.16, written by Peter Selinger 2001-2019
</metadata>
<g transform="translate(0.000000,1024.000000) scale(0.100000,-0.100000)"
fill="#000000" stroke="none">
<path d="M3931 9584 c12 -14 9 -15 -26 -10 -43 7 -78 -1 -70 -15 4 -5 1 -9 -4
-9 -6 0 -11 7 -11 15 0 12 -7 14 -27 9 -14 -4 -38 -7 -52 -8 -14 -1 -26 -5
-26 -11 0 -20 -16 -34 -30 -28 -8 3 -22 2 -31 -1 -13 -5 -14 -9 -5 -20 17 -20
-3 -66 -29 -66 -11 0 -20 7 -20 15 0 9 -9 15 -25 15 -30 0 -36 36 -7 43 9 3 3
5 -15 6 -17 0 -35 -3 -38 -9 -4 -6 1 -7 11 -3 14 5 16 3 11 -11 -4 -10 -7 -23
-8 -29 0 -7 -4 -3 -9 8 -7 16 -9 17 -9 3 -1 -11 -7 -15 -21 -11 -11 3 -20 0
-20 -6 0 -6 5 -11 11 -11 5 0 7 -5 4 -10 -4 -6 -11 -8 -16 -5 -5 4 -9 1 -9 -4
0 -6 -13 -11 -29 -11 -15 0 -40 -9 -54 -20 -25 -20 -25 -20 -20 0 3 11 10 20
15 20 6 0 8 7 4 15 -6 16 9 21 18 6 3 -5 15 -7 25 -4 17 4 18 8 8 24 -7 12
-18 17 -30 13 -10 -3 -26 0 -35 8 -15 12 -16 11 -4 -4 9 -11 10 -18 2 -23 -5
-3 -10 -1 -10 4 0 6 -7 11 -15 11 -8 0 -15 5 -15 10 0 6 -7 10 -15 10 -8 0
-15 -4 -15 -10 0 -5 6 -10 13 -10 6 0 0 -11 -15 -24 -15 -12 -25 -26 -21 -30
4 -4 -2 -9 -13 -12 -15 -4 -21 -15 -22 -44 -2 -34 0 -38 18 -33 11 3 20 10 20
17 1 13 30 -23 30 -37 0 -4 -9 -6 -19 -2 -11 3 -23 0 -27 -7 -4 -6 -2 -14 4
-16 7 -2 12 -10 12 -18 0 -8 5 -14 10 -14 6 0 10 -6 10 -14 0 -7 -8 -13 -17
-12 -21 1 -153 86 -153 98 0 4 -11 15 -25 24 -24 15 -26 15 -56 -15 -26 -26
-38 -31 -80 -31 -27 0 -49 4 -49 10 0 5 -10 24 -23 43 -18 26 -26 31 -38 24
-12 -7 -31 -3 -70 16 -49 23 -83 31 -116 28 -6 -1 -15 -10 -18 -21 -4 -14 -15
-20 -36 -20 -16 0 -29 3 -29 8 0 4 -12 13 -27 20 -23 10 -29 10 -36 -4 -6 -11
-17 -13 -38 -9 -24 5 -28 4 -23 -9 5 -12 2 -15 -10 -10 -10 4 -15 12 -12 20 5
12 -76 60 -88 52 -3 -2 -13 7 -21 20 -9 12 -23 22 -31 22 -20 0 -37 18 -53 58
-7 17 -20 32 -27 32 -8 0 -13 -3 -12 -7 3 -9 -5 -13 -28 -13 -8 0 -12 5 -8 11
5 8 1 8 -14 0 -25 -13 -42 -37 -21 -29 8 3 32 2 54 -2 39 -6 38 -7 -23 -11
-45 -3 -62 -1 -62 9 0 13 -19 16 -36 4 -16 -10 -14 -44 3 -38 18 7 17 -9 -2
-24 -11 -9 -19 -9 -28 -2 -8 7 -18 7 -27 1 -13 -8 -13 -10 0 -20 12 -8 9 -9
-10 -3 -69 20 -88 21 -102 7 -19 -18 -35 -18 -133 1 -69 13 -81 13 -95 1 -18
-17 -50 -20 -50 -6 0 5 6 12 13 15 11 6 3 5 -70 -9 -21 -4 -23 -3 -9 3 12 5
15 11 9 15 -14 9 -63 -15 -63 -31 0 -7 4 -10 10 -7 5 3 10 1 10 -6 0 -9 3 -9
14 1 13 10 13 8 3 -13 -6 -14 -15 -23 -18 -21 -12 7 -31 -26 -26 -46 3 -13 -1
-21 -14 -25 -11 -4 -29 -16 -39 -28 -17 -18 -20 -18 -20 -4 0 20 -16 23 -23 5
-3 -10 -9 -8 -23 4 -19 19 -13 37 8 21 14 -10 55 -10 65 1 3 3 9 26 13 50 5
32 3 43 -5 40 -7 -3 -18 2 -25 11 -7 8 -19 15 -26 15 -8 0 -14 6 -15 13 0 6
-5 3 -11 -9 -7 -16 -5 -31 10 -63 l20 -41 -20 0 c-14 0 -18 5 -14 15 3 8 1 15
-4 15 -6 0 -10 6 -10 14 0 18 -31 30 -40 16 -8 -13 -41 -2 -57 20 -6 9 -30 22
-53 30 -47 16 -60 7 -60 -42 0 -16 -5 -28 -11 -28 -13 0 -42 -68 -33 -81 7
-12 -23 -79 -36 -79 -6 0 -10 -4 -10 -10 0 -5 9 -10 20 -10 13 0 20 -7 20 -19
0 -20 -25 -35 -41 -25 -5 3 -9 0 -9 -5 0 -6 4 -11 9 -11 5 0 11 -9 14 -20 3
-11 13 -20 22 -20 9 0 13 4 10 10 -3 6 1 7 10 4 11 -4 14 -2 10 9 -5 11 1 15
21 15 28 0 27 -1 -17 -40 -24 -21 -36 -36 -27 -33 26 10 41 -4 23 -21 -16 -16
-21 -39 -7 -30 5 3 9 -1 9 -9 0 -8 -4 -15 -9 -15 -5 0 -15 -6 -22 -12 -11 -11
-7 -19 23 -46 20 -18 29 -32 21 -32 -21 3 -60 -11 -60 -20 0 -4 -7 -11 -16
-14 -9 -4 -13 -2 -8 6 12 19 14 67 3 74 -8 4 -7 10 2 16 11 7 11 11 2 15 -7 2
-13 11 -13 19 0 9 -4 12 -10 9 -5 -3 -10 -1 -10 4 0 6 12 11 28 11 21 0 24 2
12 10 -12 8 -12 10 5 10 17 0 17 2 5 10 -8 5 -15 17 -16 27 -3 45 -5 53 -13
53 -4 0 -6 -11 -3 -25 3 -20 1 -24 -12 -19 -19 7 -19 3 -2 52 13 36 13 42 -2
55 -9 8 -25 17 -35 20 -16 6 -17 2 -11 -30 4 -23 3 -34 -3 -30 -6 4 -13 -7
-17 -24 -10 -49 -7 -60 12 -57 11 2 18 -4 20 -19 2 -13 -2 -23 -8 -23 -6 0
-10 -8 -8 -17 2 -13 -3 -17 -16 -15 -11 2 -16 -1 -14 -10 3 -7 15 -13 27 -12
13 0 21 -5 21 -16 0 -9 5 -21 11 -27 7 -7 6 -15 -5 -26 -20 -20 -20 -44 0 -64
13 -14 19 -14 42 -2 15 8 33 20 40 27 19 18 33 15 39 -8 3 -11 9 -17 14 -14
15 9 10 32 -8 37 -14 4 -12 5 5 6 12 0 22 6 22 11 0 6 7 10 16 10 11 0 15 -6
11 -20 -3 -10 0 -21 7 -24 6 -2 2 -5 -9 -5 -15 -1 -17 -3 -6 -10 9 -6 11 -16
5 -32 -5 -13 -9 -30 -9 -36 0 -11 -7 -15 -17 -12 -2 0 -14 2 -27 5 -14 2 -32
10 -40 17 -10 7 -8 2 3 -11 29 -34 13 -36 -23 -3 -20 19 -27 31 -19 34 7 2 9
8 5 13 -5 5 -14 2 -21 -8 -10 -14 -15 -15 -25 -5 -10 9 -11 6 -6 -15 4 -14 2
-36 -5 -48 -6 -12 -13 -42 -15 -68 -2 -26 -7 -68 -13 -94 -5 -26 -5 -51 -1
-55 4 -4 9 -35 13 -68 11 -124 19 -170 30 -184 9 -12 8 -12 -11 -3 -12 7 -24
12 -27 12 -12 0 -5 -31 16 -75 26 -53 16 -69 -33 -55 -15 5 -30 6 -33 2 -3 -3
-6 0 -6 6 0 7 5 12 11 12 5 0 3 10 -5 22 -18 25 -22 63 -6 53 13 -8 13 10 1
33 -19 35 -24 58 -26 120 -1 61 7 82 18 41 4 -13 12 -20 24 -17 19 4 23 28 13
88 l-6 35 -14 -27 c-16 -34 -36 -36 -44 -5 -9 34 -7 77 3 77 6 0 7 -16 4 -35
-3 -22 -2 -35 5 -35 14 0 18 8 26 53 4 22 4 37 -1 34 -4 -3 -9 8 -10 25 -2 25
0 28 13 18 8 -7 16 -11 19 -9 7 8 -19 139 -27 139 -4 0 -8 -4 -8 -9 0 -5 -9
-11 -20 -14 -23 -6 -27 12 -7 32 10 11 10 13 0 7 -10 -5 -13 5 -13 38 0 46
-14 66 -16 24 -1 -13 -5 -53 -9 -89 -5 -46 -4 -69 4 -73 6 -4 11 -19 10 -34 0
-24 -1 -25 -10 -7 -6 14 -7 6 -3 -26 4 -29 2 -49 -5 -53 -7 -4 -11 1 -11 12 0
15 -5 19 -20 15 -11 -3 -20 -13 -21 -22 -6 -93 -5 -100 8 -89 17 13 26 5 28
-25 1 -14 13 -27 32 -37 28 -13 30 -17 18 -33 -10 -14 -11 -26 -3 -49 8 -22 8
-32 -1 -38 -9 -5 -9 -9 3 -13 24 -9 20 -30 -4 -22 -24 8 -29 -22 -5 -31 21 -8
19 -24 -2 -24 -11 0 -14 -3 -8 -8 6 -4 10 -13 9 -19 -1 -7 -2 -26 -3 -43 -1
-33 -21 -42 -21 -10 0 18 -1 19 -19 4 -18 -16 -18 -60 0 -48 5 3 9 0 9 -5 0
-6 -4 -11 -10 -11 -5 0 -10 -13 -10 -29 0 -21 5 -28 17 -27 11 0 18 -6 18 -18
0 -13 -8 -20 -23 -21 -24 -2 -45 -23 -36 -36 2 -4 -4 -5 -15 -2 -20 5 -41 -29
-22 -35 6 -2 8 -9 4 -15 -3 -6 -8 -54 -10 -106 -8 -204 -11 -247 -17 -286 -3
-22 -3 -32 0 -22 11 35 30 18 29 -25 -3 -64 -4 -68 -20 -68 -8 0 -15 -4 -15
-10 0 -5 6 -10 14 -10 8 0 18 5 21 10 10 16 55 12 83 -9 15 -10 34 -20 42 -23
23 -7 -83 -58 -108 -52 -15 4 -22 0 -27 -16 -5 -17 -13 -21 -31 -17 -13 2 -21
0 -18 -4 10 -17 15 -55 15 -121 0 -53 3 -69 17 -77 9 -6 12 -11 7 -11 -25 0
-45 -165 -49 -400 -1 -85 -8 -167 -14 -181 -6 -15 -7 -30 -2 -35 5 -5 13 -34
18 -64 6 -30 14 -63 17 -72 5 -13 2 -18 -9 -18 -10 0 -16 -9 -16 -24 0 -21
-22 -41 -41 -38 -3 1 -4 -10 -2 -23 4 -19 0 -24 -18 -27 -22 -3 -24 -8 -25
-68 -1 -36 -5 -82 -9 -102 -4 -21 -4 -46 0 -55 6 -16 8 -16 16 5 8 22 29 31
29 12 0 -5 7 -10 15 -10 9 0 15 9 15 25 0 14 -4 25 -10 25 -5 0 -10 9 -10 20
l0 20 20 -20 c21 -21 24 -38 14 -89 -5 -22 -12 -31 -26 -31 -15 0 -19 5 -15
20 3 11 1 20 -4 20 -5 0 -9 -4 -9 -9 0 -5 -10 -11 -22 -15 l-23 -5 23 -23 c16
-16 25 -19 30 -11 5 8 12 8 27 -3 17 -13 18 -16 5 -24 -10 -7 -11 -10 -2 -10
6 0 12 -12 12 -27 0 -37 10 -50 40 -56 21 -4 20 -4 -7 -6 l-33 -1 -1 -65 c-1
-36 -2 -71 -3 -77 -1 -7 5 -12 13 -10 11 2 12 0 3 -11 -7 -8 -10 -22 -6 -31 4
-10 1 -16 -7 -16 -9 -1 -7 -6 5 -15 11 -8 14 -15 8 -15 -8 0 -10 -9 -6 -27 7
-26 6 -27 -11 -13 -17 14 -18 13 -12 -3 4 -10 7 -21 7 -23 0 -2 7 -4 15 -4 8
0 15 -4 15 -10 0 -5 -7 -10 -16 -10 -9 0 -14 -6 -11 -12 2 -7 13 -12 23 -10
18 2 18 2 1 -8 -11 -7 -16 -18 -12 -30 3 -10 0 -20 -9 -23 -21 -8 -8 -47 16
-47 10 0 17 -4 13 -10 -3 -5 -12 -7 -19 -4 -7 3 -16 -2 -19 -10 -4 -10 -1 -16
8 -16 8 0 15 -4 15 -10 0 -5 -7 -10 -15 -10 -19 0 -14 -38 6 -51 8 -5 9 -9 3
-9 -5 0 -15 5 -22 12 -7 7 -12 10 -13 8 -12 -81 -2 -105 38 -95 23 5 24 4 17
-30 -4 -24 -3 -35 5 -35 7 0 9 -5 6 -11 -5 -6 -12 -4 -21 8 -7 10 -14 13 -14
6 0 -7 9 -21 21 -32 13 -12 17 -21 10 -26 -6 -3 -11 -1 -11 4 0 6 -5 11 -10
11 -6 0 -8 -10 -5 -23 4 -16 0 -29 -15 -42 -11 -10 -16 -21 -11 -25 6 -3 11
-26 13 -50 2 -25 6 -47 9 -50 3 -3 9 -17 12 -32 6 -23 4 -25 -13 -21 -11 3
-20 0 -20 -6 0 -6 5 -11 10 -11 6 0 10 -13 10 -29 0 -17 5 -33 11 -37 6 -3 9
-19 5 -35 -3 -15 -2 -31 3 -33 11 -7 20 -66 10 -66 -5 0 -6 -7 -2 -15 3 -10 0
-15 -8 -13 -9 2 -13 -5 -11 -20 2 -12 -2 -22 -9 -22 -7 0 -9 -10 -7 -25 3 -14
2 -25 -2 -25 -4 0 -7 -7 -7 -15 0 -8 4 -15 9 -15 5 0 6 -9 3 -20 -3 -11 -3
-20 2 -20 9 0 9 -107 0 -130 -14 -34 -3 -95 14 -84 5 3 9 0 9 -5 0 -17 -21
-13 -37 7 -12 15 -13 14 -12 -13 1 -16 -1 -37 -4 -45 -3 -8 -9 -37 -12 -65 -4
-27 -11 -53 -16 -56 -5 -3 -10 -44 -11 -92 -2 -48 -5 -87 -8 -87 -5 0 -7 -29
-9 -203 -1 -107 7 -137 37 -137 19 0 22 -32 5 -45 -15 -11 -15 -15 -4 -29 8
-10 9 -16 3 -16 -6 0 -16 8 -22 18 -11 16 -11 16 -6 0 3 -10 0 -18 -6 -18 -6
0 -4 -8 5 -18 10 -10 17 -27 17 -38 0 -16 -2 -17 -10 -4 -7 10 -8 1 -4 -31 5
-36 3 -47 -9 -52 -13 -5 -15 -18 -10 -74 2 -37 5 -76 5 -85 -1 -10 6 -18 15
-18 9 0 13 -6 9 -15 -3 -8 -1 -15 4 -15 5 0 8 -12 6 -28 -7 -55 -18 -82 -35
-82 -14 0 -14 -2 -1 -10 13 -9 13 -11 0 -20 -13 -8 -12 -10 3 -10 15 0 16 -3
6 -22 -10 -18 -9 -20 5 -15 9 4 16 2 16 -3 0 -6 -7 -10 -15 -10 -8 0 -15 -6
-16 -12 -7 -95 -7 -124 3 -135 8 -10 8 -17 0 -25 -9 -9 -12 -97 -12 -308 0
-295 0 -297 22 -317 13 -11 30 -22 38 -25 9 -3 3 -9 -17 -18 -34 -15 -42 -34
-38 -92 2 -21 5 -68 6 -105 2 -38 10 -74 17 -81 15 -17 16 -36 1 -26 -8 5 -10
-3 -6 -27 4 -19 12 -88 18 -154 6 -66 16 -125 21 -132 5 -7 7 -26 3 -42 -5
-23 -1 -36 14 -53 24 -25 27 -57 9 -77 -11 -11 -10 -13 5 -8 17 7 24 -7 8 -17
-5 -3 -7 -16 -4 -29 3 -16 2 -18 -5 -9 -7 11 -11 10 -16 -3 -3 -10 -2 -23 4
-30 6 -8 6 -15 -2 -23 -8 -8 -7 -13 5 -17 9 -4 13 -13 10 -22 -4 -11 -2 -14 5
-9 7 4 12 1 12 -8 0 -10 13 -17 37 -21 21 -4 42 -8 46 -9 5 -1 -4 -8 -19 -16
-21 -12 -28 -12 -31 -2 -3 6 -9 12 -15 12 -6 0 -3 -9 7 -20 12 -14 14 -20 5
-20 -7 0 -19 8 -26 17 -7 10 -16 15 -20 11 -4 -4 5 -17 19 -29 15 -11 27 -29
27 -39 0 -11 8 -23 18 -29 15 -9 15 -11 2 -23 -29 -24 -42 -46 -28 -45 7 0 22
-1 33 -2 l20 -2 -20 -9 c-18 -8 -18 -9 6 -9 23 -1 26 -5 27 -37 2 -39 16 -64
38 -64 20 0 17 -17 -6 -42 -14 -15 -20 -35 -19 -62 0 -23 3 -35 6 -28 2 6 9
10 14 6 5 -3 12 2 15 11 5 12 18 15 59 13 36 -2 51 -6 45 -13 -13 -16 27 -38
83 -45 37 -5 47 -3 45 7 -2 11 11 15 50 17 31 2 48 0 41 -5 -21 -12 -8 -18 62
-28 70 -10 74 -9 66 13 -5 12 -16 14 -50 10 -35 -5 -45 -3 -50 10 -7 18 18 23
29 5 5 -8 9 -8 14 1 6 9 20 9 63 0 68 -16 113 0 122 41 5 21 13 28 38 32 58 8
92 -18 65 -50 -10 -12 -9 -14 3 -13 7 1 19 2 24 1 13 -1 17 -41 4 -41 -5 0 -9
-4 -9 -10 0 -13 107 -13 115 0 3 6 14 10 24 10 10 0 24 7 31 15 20 24 49 18
56 -11 5 -18 9 -22 14 -13 7 10 14 9 35 -5 15 -10 29 -15 32 -12 4 3 12 1 20
-5 9 -9 13 -8 13 0 0 14 76 15 85 1 3 -5 -4 -10 -17 -11 -13 -1 9 -8 47 -17
39 -10 76 -21 83 -25 7 -5 12 -3 12 5 1 8 6 6 15 -6 12 -16 23 -18 75 -13 33
3 63 1 66 -4 8 -14 62 -11 67 4 3 9 9 9 25 0 14 -8 30 -9 51 -3 18 5 33 5 36
-1 4 -5 17 -9 30 -9 28 0 28 26 0 46 -10 8 -17 16 -14 18 5 5 154 8 317 7
l113 -1 -28 -26 c-18 -16 -24 -27 -16 -30 7 -3 9 -12 6 -20 -5 -13 4 -14 63
-8 38 3 101 8 139 9 39 2 122 6 184 9 63 3 135 6 160 6 44 0 44 0 25 18 -10
10 -28 24 -39 30 -17 10 -18 11 -3 12 10 0 31 -14 47 -31 27 -28 34 -30 72
-24 29 5 38 10 28 16 -12 7 -12 9 0 9 7 0 11 6 8 13 -3 9 9 13 44 15 37 1 51
-2 55 -13 6 -14 8 -13 19 2 12 15 13 15 19 -4 5 -17 16 -22 57 -25 28 -1 53 0
56 4 2 5 -10 8 -26 8 -21 0 -31 5 -31 15 0 24 61 20 67 -4 5 -19 16 -20 200
-21 l194 0 -5 22 -6 23 11 -22 c11 -21 14 -22 253 -20 136 1 241 6 241 11 0 5
-27 8 -60 7 -33 -1 -66 3 -74 8 -9 6 14 9 65 10 44 1 86 2 94 3 8 0 39 0 68 0
45 -2 52 -5 52 -22 0 -20 7 -20 418 -20 273 0 412 4 402 10 -8 5 -47 10 -87
10 -71 0 -103 6 -103 19 0 6 204 8 293 3 41 -3 32 -22 -10 -22 -21 0 -45 -5
-53 -10 -10 -7 35 -10 142 -9 87 1 155 5 153 10 -3 4 -1 10 5 14 5 3 10 -1 10
-9 0 -12 10 -16 35 -16 28 0 35 4 35 20 0 13 7 20 20 20 13 0 20 7 20 19 0 11
5 23 12 27 6 4 8 3 5 -3 -4 -6 0 -14 9 -17 10 -4 14 -12 10 -22 -5 -13 -2 -15
16 -10 13 3 31 6 42 6 12 0 16 5 12 15 -3 8 -2 15 3 15 5 0 11 10 14 22 4 12
9 20 11 17 3 -3 2 -20 -3 -37 -7 -21 -6 -34 1 -38 14 -9 40 26 33 44 -3 8 -5
27 -5 43 0 21 -6 32 -22 38 -18 6 -19 9 -5 14 23 9 45 -1 49 -21 3 -14 17 -17
83 -17 79 0 80 0 80 -25 0 -14 5 -25 10 -25 6 0 9 12 9 27 -1 16 3 28 7 28 5
0 9 -4 9 -9 0 -5 10 -7 23 -4 l22 5 -22 -20 c-28 -24 -29 -32 -5 -32 9 0 23
13 30 30 8 17 19 30 25 30 7 0 24 14 39 32 14 18 29 30 33 27 3 -4 -2 -14 -11
-23 -9 -9 -13 -20 -10 -24 4 -3 10 -2 14 4 11 16 41 24 47 14 4 -6 1 -10 -6
-10 -22 0 1 -14 28 -18 15 -2 38 -14 51 -27 14 -15 38 -25 60 -27 23 -2 36 -8
34 -15 -1 -7 1 -13 5 -13 17 0 31 16 36 40 4 25 4 25 12 3 4 -13 14 -23 22
-23 8 0 11 5 8 10 -4 6 8 10 29 10 19 0 37 6 39 13 4 9 6 9 6 0 1 -6 -3 -15
-9 -18 -6 -3 -10 -10 -10 -16 0 -14 28 -11 33 4 4 9 8 9 14 0 4 -6 30 -14 57
-18 47 -7 49 -7 44 13 -5 18 -3 20 10 13 10 -5 22 -9 27 -10 6 -1 10 -5 10
-10 0 -5 4 -13 9 -18 5 -5 6 -3 2 5 -4 7 -1 12 9 12 9 0 14 -3 11 -8 -2 -4 35
-4 82 1 48 5 97 9 110 9 12 0 22 5 22 12 0 6 4 5 9 -3 7 -11 52 -14 242 -12
207 1 235 3 247 19 10 14 28 16 107 14 l95 -3 0 28 c0 27 2 29 45 28 30 0 44
-4 41 -12 -3 -6 2 -14 10 -17 22 -8 26 -7 20 3 -4 5 2 7 13 4 10 -3 22 0 25 6
4 6 13 11 19 11 7 0 6 -4 -3 -10 -18 -11 -8 -23 14 -14 9 3 13 11 9 17 -4 7 0
8 11 4 10 -4 35 -10 55 -13 43 -7 59 12 41 47 -12 21 -2 47 26 70 16 12 17 12
11 -4 -8 -22 1 -67 14 -67 5 0 9 7 9 15 0 10 7 14 23 11 12 -3 22 -5 22 -6 0
-1 9 -3 20 -4 11 -2 25 -5 30 -6 6 -2 27 4 48 14 29 13 42 14 58 6 15 -8 24
-8 34 0 8 6 22 9 32 6 10 -3 37 -7 60 -8 23 -1 40 -5 37 -10 -3 -4 9 -8 25 -8
17 0 31 4 31 10 0 5 -7 7 -15 4 -8 -4 -15 -2 -15 4 0 14 34 21 54 10 11 -6 16
-5 16 3 0 7 7 8 18 4 21 -9 28 -9 70 -1 37 7 44 -10 10 -24 -13 -5 -18 -9 -13
-10 46 -7 56 -6 51 7 -3 7 -1 13 4 13 6 0 10 6 10 13 0 7 14 21 30 30 16 10
30 14 30 9 0 -6 14 -15 30 -21 29 -10 35 -5 31 22 0 4 6 7 14 7 9 0 20 10 25
23 7 19 14 11 12 -14 0 -3 8 -10 19 -17 11 -7 19 -8 19 -2 0 5 -4 10 -10 10
-5 0 -10 5 -10 10 0 6 12 10 26 10 22 0 24 -3 15 -14 -9 -10 -9 -16 -1 -21 14
-9 16 -7 23 33 l7 34 -39 -7 c-37 -6 -39 -5 -43 24 -3 21 0 31 9 31 7 0 13 -4
13 -9 0 -5 9 -11 20 -14 13 -3 20 0 20 10 0 10 6 13 16 9 14 -5 15 -4 4 9 -11
13 -10 15 8 12 31 -5 34 -11 17 -43 -15 -30 -20 -54 -9 -54 3 0 14 5 25 10 19
11 24 4 20 -29 -2 -7 3 -10 9 -6 6 4 9 13 6 21 -4 12 -2 12 14 4 16 -9 20 -8
20 5 0 8 -9 15 -21 15 -11 0 -18 4 -14 9 3 5 1 12 -5 16 -5 3 -10 1 -10 -4 0
-6 -4 -11 -10 -11 -19 0 -10 28 15 44 14 9 25 23 25 31 0 8 10 25 21 36 21 21
21 22 3 33 -19 10 -24 12 -44 15 -5 0 -10 10 -10 21 0 14 7 20 21 20 15 0 19
-5 15 -15 -4 -12 0 -14 22 -9 15 4 30 12 34 17 4 7 16 4 33 -7 14 -9 32 -15
38 -12 8 3 7 5 -2 5 -17 1 -52 41 -46 51 7 12 -23 33 -35 25 -7 -4 -14 2 -17
14 -3 12 -12 21 -19 21 -16 0 -19 46 -4 55 5 3 10 20 10 36 0 67 47 -7 49 -76
1 -24 9 -34 41 -51 26 -15 41 -18 44 -10 2 6 5 0 5 -14 1 -22 2 -23 17 -8 15
15 14 18 -5 37 -12 12 -26 19 -31 16 -20 -12 -9 12 15 35 32 30 32 43 -1 28
-22 -10 -28 -10 -40 6 -11 16 -16 17 -29 6 -13 -11 -15 -7 -15 34 0 48 13 59
35 29 13 -18 35 -10 35 13 0 8 -10 14 -24 14 -20 0 -23 4 -19 22 4 23 4 23
-12 3 -9 -11 -25 -19 -35 -17 -11 2 -20 -2 -20 -7 0 -6 -5 -11 -11 -11 -6 0
-9 6 -6 13 2 6 -2 20 -10 29 -8 9 -13 25 -10 35 4 16 6 16 12 -4 10 -30 65
-30 66 1 0 17 2 18 7 5 5 -11 13 -14 26 -9 17 6 17 7 4 13 -11 4 -15 13 -11
26 4 15 1 21 -11 21 -17 0 -32 41 -22 65 3 8 17 15 30 15 19 0 24 4 20 15 -5
11 -2 13 10 9 11 -4 16 -1 16 12 0 16 2 16 9 4 6 -8 7 -18 5 -22 -3 -4 0 -8 5
-8 15 0 14 77 0 86 -8 4 -10 30 -6 75 l5 69 -34 0 c-30 0 -34 3 -34 25 0 29
16 34 23 7 4 -13 5 -11 6 6 0 12 -3 22 -9 22 -17 0 -11 51 9 84 11 17 25 54
32 81 6 28 17 59 23 70 23 43 32 83 24 104 -5 16 -3 23 7 27 8 4 15 17 15 31
0 13 -4 22 -9 19 -13 -8 -10 48 3 56 7 5 7 8 -3 8 -10 0 -11 4 -3 13 12 14
-18 155 -41 190 -23 36 -29 87 -12 94 10 3 13 12 9 26 -5 15 -3 19 9 14 10 -4
17 3 21 25 4 20 10 28 20 25 10 -4 12 0 8 16 -3 12 -10 27 -16 32 -6 6 -9 9
-7 8 2 -2 10 2 18 8 18 15 17 68 -2 75 -19 8 -30 67 -16 92 7 14 8 23 1 27
-17 10 -11 22 12 28 l22 6 -22 24 c-22 23 -22 57 1 57 5 0 3 8 -5 18 -8 9 -15
32 -15 50 0 30 3 33 23 28 28 -7 34 9 30 84 -2 47 -6 55 -25 60 -12 3 -22 8
-22 13 1 4 1 16 1 27 0 11 6 20 14 20 20 0 40 26 26 35 -6 4 -17 -1 -25 -11
-7 -11 -17 -16 -21 -12 -4 5 0 16 9 26 22 24 23 72 2 72 -12 0 -15 15 -15 79
0 48 4 83 11 87 8 4 9 -3 4 -25 -4 -18 -3 -31 3 -31 11 0 22 49 12 55 -10 6
-11 127 0 183 7 40 6 57 -6 82 -9 17 -22 34 -29 36 -9 4 -13 42 -13 146 -1
104 -5 144 -14 150 -11 6 -11 8 0 8 10 0 13 42 11 205 -1 116 -6 205 -11 205
-5 0 -2 10 6 22 21 30 20 41 -3 35 -14 -3 -18 -1 -14 9 3 8 11 14 18 14 20 0
39 27 23 32 -10 4 -10 8 1 21 24 30 0 18 -30 -14 -16 -17 -29 -37 -29 -45 0
-8 -4 -22 -9 -32 -5 -9 -13 -26 -17 -37 -6 -17 -9 -15 -14 15 l-7 35 -2 -32
c-1 -33 -24 -55 -48 -46 -7 3 -13 0 -13 -7 0 -6 -4 -8 -10 -5 -5 3 -10 15 -10
26 0 10 -7 19 -15 19 -8 0 -15 5 -15 11 0 7 10 9 25 7 13 -3 22 -1 19 3 -3 5
-1 9 5 9 5 0 12 -6 15 -12 3 -7 3 -2 0 11 -4 15 -2 21 4 17 6 -3 13 -2 17 4 3
5 -2 10 -12 10 -14 1 -11 7 16 31 18 17 29 34 24 38 -5 3 -17 17 -26 31 -17
24 -17 24 -17 2 0 -43 -27 -23 -34 24 -9 72 -9 79 9 64 12 -10 15 -9 15 6 0
11 7 28 15 38 11 15 18 16 28 8 10 -9 16 -9 25 0 21 21 28 -4 18 -66 -2 -15
-2 -34 1 -41 11 -29 63 -27 63 2 0 8 5 11 10 8 16 -10 11 7 -6 19 -9 7 -12 18
-8 29 8 22 25 22 17 0 -3 -10 -2 -15 2 -10 14 12 13 51 -2 65 -17 18 -17 46 1
39 7 -3 19 0 25 6 6 6 11 7 11 2 0 -6 5 -3 10 5 6 10 10 11 10 3 0 -7 5 -13
10 -13 6 0 10 7 10 15 0 8 -7 15 -15 15 -18 0 -17 -3 -6 38 8 25 7 32 -4 32
-19 0 -49 47 -51 79 -1 14 -7 25 -13 23 -6 -1 -11 3 -11 9 0 20 -27 37 -52 32
-19 -4 -26 0 -31 16 -3 12 -1 24 4 27 13 8 -9 34 -28 34 -8 0 -11 -4 -8 -10 3
-5 1 -10 -5 -10 -7 0 -10 13 -8 33 3 28 6 32 30 29 23 -3 26 0 21 19 -4 14 -2
20 4 16 7 -4 9 0 6 11 -2 10 5 26 16 36 21 19 21 19 21 -17 0 -42 15 -57 26
-25 12 39 10 62 -6 76 -12 11 -11 11 10 0 14 -7 28 -12 32 -13 3 0 10 -3 14
-7 11 -12 44 -10 44 2 0 6 -8 10 -17 10 -13 1 -10 5 10 16 21 12 27 22 27 50
0 19 -4 33 -8 30 -4 -2 -6 10 -4 29 4 33 -6 47 -40 52 -9 2 -20 -2 -23 -7 -3
-6 1 -7 9 -4 9 3 16 1 16 -4 0 -19 -35 -18 -53 2 -13 15 -15 21 -5 28 10 5 8
8 -4 8 -11 0 -18 -7 -18 -18 0 -10 -3 -22 -7 -26 -5 -4 -9 -24 -9 -44 -2 -53
-20 -93 -39 -86 -10 4 -13 13 -10 24 3 10 1 21 -5 25 -12 8 -13 45 -1 45 5 0
12 -6 14 -12 3 -7 6 -1 6 14 1 30 -18 50 -20 21 -1 -10 -5 0 -10 22 -6 22 -8
48 -5 57 2 10 0 21 -5 24 -13 8 -11 34 2 34 7 0 18 -8 25 -17 12 -17 13 -16
14 5 0 12 6 22 13 22 21 0 37 -22 37 -53 0 -15 4 -26 10 -22 5 3 7 12 3 20 -3
8 0 15 7 15 7 0 10 7 6 15 -3 8 -1 15 5 15 6 0 8 9 4 20 -4 11 -2 20 4 20 6 0
11 -12 11 -27 l1 -28 13 25 c13 22 12 25 -8 35 -19 9 -21 20 -23 100 -2 59 -7
91 -15 97 -10 6 -10 8 0 8 6 0 12 12 12 26 0 18 -4 24 -13 21 -8 -3 -20 -1
-28 4 -10 6 -7 9 14 9 21 0 27 5 27 23 0 13 12 30 29 42 24 17 26 22 15 33
-12 10 -14 10 -14 -3 0 -14 -10 -19 -27 -12 -4 1 -6 12 -5 25 4 26 -13 29 -28
5 -9 -15 -10 -14 -4 7 3 14 12 35 20 47 15 24 7 35 -33 47 -23 7 -33 36 -13
36 6 0 10 8 10 18 0 14 2 15 10 2 5 -8 7 -23 4 -33 -5 -15 -1 -17 23 -11 37 9
41 13 23 24 -12 8 -10 10 8 10 12 0 22 5 22 12 0 6 -3 9 -6 5 -10 -10 -34 20
-34 43 0 15 8 22 30 26 16 4 27 10 25 14 -3 5 0 10 7 12 7 3 5 7 -6 11 -9 4
-15 3 -11 -3 3 -5 -3 -14 -14 -19 -16 -9 -21 -7 -26 10 -5 16 -10 18 -21 8
-12 -10 -13 -4 -8 35 6 40 4 46 -11 46 -22 0 -14 10 12 14 10 2 19 10 21 18 4
20 -29 33 -39 16 -4 -7 -12 -9 -16 -4 -4 5 -2 11 5 13 18 7 15 23 -5 23 -15 0
-16 2 -3 10 13 8 12 10 -4 10 -14 0 -17 -5 -12 -24 3 -14 2 -28 -4 -31 -5 -3
-10 -3 -11 2 0 4 -2 17 -4 28 -2 11 -1 26 4 33 11 19 62 4 68 -19 6 -21 23
-27 19 -6 -2 6 -8 25 -15 42 -8 20 -9 31 -2 33 6 2 11 10 11 18 0 8 -6 11 -16
7 -13 -5 -15 -2 -9 17 5 15 4 20 -4 16 -6 -4 -11 -14 -11 -22 0 -8 -5 -14 -10
-14 -6 0 -8 10 -6 23 3 12 7 34 10 48 3 15 17 31 32 38 15 6 24 17 21 25 -3 7
-1 19 4 27 6 10 9 7 9 -13 0 -28 13 -37 25 -18 3 6 1 10 -4 10 -6 0 -11 9 -11
20 0 12 -9 31 -21 43 -11 12 -18 29 -16 38 3 10 -3 15 -17 15 -16 -1 -22 6
-24 28 -2 16 1 26 6 22 25 -15 23 69 -2 86 -6 4 3 8 19 8 20 0 26 3 17 9 -8 4
-12 17 -11 27 2 11 0 32 -4 47 -8 30 7 62 24 51 5 -3 9 -1 9 5 0 5 -6 12 -12
14 -8 3 -9 6 -2 6 16 1 5 51 -12 58 -17 6 -19 43 -3 43 6 0 9 -7 6 -14 -4 -10
-1 -13 9 -9 10 4 12 0 8 -11 -3 -9 -2 -16 2 -16 5 0 9 52 9 115 0 105 -7 142
-18 98 -4 -17 -5 -17 -6 0 0 9 -7 17 -15 17 -8 0 -17 4 -21 10 -7 12 30 50 50
50 21 0 19 20 -2 20 -15 1 -14 4 6 20 20 18 20 24 0 22 -4 -1 -4 8 -1 20 4 16
2 19 -8 13 -9 -5 -11 -4 -6 3 4 7 14 12 22 12 10 0 14 13 14 47 0 43 -1 45
-14 27 -8 -10 -17 -16 -20 -13 -4 3 3 18 14 32 l21 27 -26 26 c-14 14 -24 28
-22 31 3 2 11 -3 19 -11 11 -10 18 -12 26 -4 13 13 4 38 -14 38 -9 0 -12 10
-10 33 2 17 -1 35 -8 39 -7 5 -5 8 7 8 9 0 17 6 17 14 0 9 8 12 25 8 18 -3 25
0 25 12 0 9 -8 16 -19 16 -22 0 -29 17 -29 75 0 33 1 36 8 18 5 -13 14 -23 20
-23 17 0 11 29 -12 55 -12 14 -23 32 -24 41 -3 18 -33 43 -51 44 -25 0 -14 39
12 46 14 3 25 10 25 15 0 5 9 18 21 30 19 19 19 22 5 38 -19 20 -21 42 -5 58
14 14 19 105 7 120 -7 9 -6 15 5 19 16 6 12 32 -7 47 -8 6 -8 10 0 13 12 5 11
114 -1 146 -4 9 -4 22 0 28 3 5 -2 10 -12 10 -11 0 -24 5 -31 12 -9 9 -12 7
-12 -9 0 -12 -6 -24 -12 -26 -10 -4 -10 -6 0 -6 6 -1 12 -11 11 -23 0 -15 -3
-18 -6 -8 -4 8 -12 21 -20 29 -9 9 -12 24 -8 42 5 22 3 29 -9 29 -20 0 -20 9
1 32 15 17 15 19 -3 34 -13 11 -15 17 -6 20 6 3 12 13 12 22 -1 14 -4 13 -19
-5 -19 -23 -29 -20 -48 13 -12 22 -1 56 11 35 4 -6 4 -15 1 -21 -3 -5 -2 -10
4 -10 44 0 -24 68 -72 72 -15 1 -27 8 -27 15 0 7 -7 10 -16 6 -13 -5 -15 -2
-9 15 5 16 2 22 -9 22 -9 0 -15 -6 -13 -12 1 -8 -9 -13 -28 -12 -52 2 -56 4
-50 13 9 16 -26 29 -59 22 -17 -4 -45 -6 -63 -5 -25 1 -30 -2 -25 -14 4 -11 1
-14 -11 -9 -22 9 -44 15 -34 10 14 -9 7 -20 -12 -19 -11 0 -28 11 -38 23 -15
17 -33 22 -76 25 -31 1 -57 6 -57 9 0 13 -61 15 -84 3 -13 -6 -43 -11 -65 -10
-23 1 -44 -1 -47 -6 -3 -5 -10 -5 -16 -2 -5 4 -21 0 -35 -7 -21 -12 -27 -11
-37 2 -13 18 -56 20 -56 3 0 -6 -8 -14 -18 -16 -20 -6 -42 20 -42 47 0 14 -3
14 -25 -1 -24 -15 -25 -15 -26 2 0 11 -3 14 -5 7 -3 -7 0 -21 5 -32 7 -13 8
-22 1 -26 -5 -3 -10 1 -10 9 0 9 -8 16 -17 16 -29 1 -54 25 -41 38 9 9 16 8
29 -4 16 -15 17 -14 12 6 -5 19 -10 20 -49 14 -27 -4 -44 -2 -44 4 0 16 -28
22 -33 8 -3 -8 1 -25 8 -40 8 -14 9 -26 4 -26 -5 0 -12 7 -15 15 -4 8 -10 12
-15 9 -5 -3 -9 3 -9 13 0 10 -9 24 -20 31 -11 7 -20 19 -20 27 0 8 -7 15 -15
15 -8 0 -15 9 -15 20 0 11 -7 20 -15 20 -9 0 -15 -6 -14 -12 4 -31 -2 -48 -16
-48 -9 0 -15 9 -15 23 0 17 -6 23 -27 25 -15 1 -30 -3 -34 -10 -5 -8 -16 -3
-36 18 -27 29 -69 36 -60 11 3 -7 10 -11 16 -10 6 2 11 -2 11 -7 0 -16 -22
-12 -54 9 -16 11 -35 17 -42 14 -8 -3 -14 0 -14 7 0 6 -5 8 -11 4 -8 -5 -8 -9
1 -14 7 -4 10 -14 8 -21 -3 -9 -13 0 -28 23 -14 24 -26 35 -33 30 -27 -17 -92
7 -80 30 9 18 -22 33 -58 30 -24 -3 -39 0 -39 7 0 6 -4 11 -9 11 -4 0 -6 -11
-3 -25 3 -19 0 -25 -13 -25 -12 0 -15 5 -11 16 5 12 2 15 -10 10 -11 -4 -25 2
-37 15 l-20 21 -13 -23 c-7 -13 -13 -18 -14 -11 0 9 -7 11 -20 7 -12 -4 -27
-2 -35 5 -7 6 -24 12 -37 14 -13 1 -28 5 -33 8 -9 5 -40 9 -92 10 -13 0 -23 6
-23 14 0 17 -17 18 -23 2 -3 -8 -16 0 -36 22 -18 19 -31 28 -29 20 2 -10 -3
-14 -15 -12 -11 2 -25 -5 -32 -15 -13 -17 -15 -17 -42 9 -34 33 -80 43 -100
23 -21 -21 -35 -18 -28 5 5 16 2 20 -14 20 -12 0 -21 -4 -21 -10 0 -5 -7 -10
-16 -10 -11 0 -14 8 -12 31 3 28 0 32 -25 35 -25 2 -27 0 -21 -19 6 -19 5 -20
-10 -8 -9 7 -16 20 -16 27 0 8 -6 11 -15 7 -9 -3 -14 -8 -11 -10 8 -9 -21 -33
-40 -33 -13 0 -14 -3 -4 -15 8 -10 9 -15 1 -15 -6 0 -16 9 -23 20 -17 26 -27
25 -37 -2 -8 -21 -9 -21 -16 11 -4 21 -10 29 -15 22 -5 -9 -11 -8 -24 4 -10
10 -16 12 -16 4 0 -8 -12 -9 -42 -4 -24 4 -64 8 -90 9 -48 2 -141 42 -132 57
3 5 -2 9 -10 9 -9 0 -17 5 -17 10 -1 6 -2 16 -3 22 -2 18 -36 23 -36 5 0 -20
-32 -17 -38 5 -5 20 -19 23 -42 8 -15 -9 -16 -9 35 -25 8 -2 15 -9 15 -15 0
-6 -4 -8 -10 -5 -5 3 -10 1 -10 -4 0 -6 9 -11 19 -11 11 0 23 -5 27 -11 4 -8
-3 -9 -23 -5 -26 6 -32 4 -38 -16 -4 -13 -6 -29 -5 -37 1 -9 -4 -12 -16 -7
-10 4 -21 1 -25 -5 -5 -9 -11 -8 -23 4 -9 8 -16 20 -16 25 0 7 -21 8 -50 3 -3
-1 2 -6 10 -11 11 -7 6 -10 -20 -11 -89 -2 -139 1 -181 10 -26 5 -64 9 -85 7
-33 -2 -39 -6 -39 -24 0 -12 -6 -27 -13 -34 -11 -11 -12 -8 -7 15 6 23 4 27
-11 24 -11 -2 -27 -7 -36 -11 -9 -4 -23 -4 -29 0 -9 5 -10 2 -6 -10 6 -14 3
-15 -13 -6 -15 8 -20 8 -20 -1 0 -7 -9 -6 -24 5 -16 10 -58 18 -118 21 -51 4
-94 8 -97 10 -2 3 7 9 20 14 13 5 19 10 13 10 -7 1 -15 13 -18 27 -6 22 -11
25 -29 19 -12 -4 -33 -8 -47 -8 -14 -1 -28 -5 -31 -9 -3 -5 -22 -11 -43 -13
-21 -3 -46 -10 -56 -15 -13 -7 -20 -6 -23 3 -4 9 -8 9 -15 -2 -5 -7 -15 -10
-22 -6 -9 5 -10 2 -5 -14 5 -16 3 -20 -9 -15 -9 3 -14 9 -11 14 2 4 -7 5 -22
2 -20 -4 -24 -2 -18 8 6 10 -2 12 -38 7 -26 -4 -59 -2 -74 4 -19 7 -29 7 -31
0 -5 -14 -39 -14 -48 0 -3 6 -15 9 -25 6 -12 -3 -19 0 -19 9 0 8 -4 15 -10 15
-5 1 -14 3 -20 4 -5 1 -13 3 -17 4 -4 0 2 8 13 16 18 14 18 14 -7 15 -14 0
-35 -9 -46 -19 -12 -11 -24 -17 -27 -14 -3 4 -6 1 -6 -5 0 -6 8 -16 18 -22 13
-9 10 -10 -16 -4 -25 4 -33 2 -31 -8 3 -21 -12 -48 -27 -48 -11 0 -11 6 -3 28
8 21 8 24 -2 15 -8 -9 -18 -9 -31 -2 -10 6 -28 7 -38 4 -13 -4 -20 -2 -20 7 0
9 -2 10 -8 1 -10 -16 -33 -18 -67 -4 -38 16 -108 17 -113 2 -6 -18 -23 -13
-20 6 2 13 -6 19 -32 23 l-35 6 30 8 c27 7 28 9 10 16 -28 10 -97 0 -92 -14 2
-6 15 -10 28 -9 16 1 12 -2 -11 -9 -19 -7 -38 -16 -41 -21 -3 -5 -27 -6 -53
-2 -45 7 -58 18 -33 28 6 3 -3 6 -20 6 -32 1 -43 -11 -23 -24 6 -4 8 -11 4
-16 -7 -13 15 -41 27 -33 5 3 6 11 3 17 -4 7 -4 9 1 5 4 -4 16 -3 26 3 15 7
19 6 19 -6 0 -8 7 -15 15 -15 18 0 20 -16 4 -26 -6 -3 -16 0 -21 7 -7 11 -11
11 -14 2 -4 -9 -19 -11 -49 -6 -33 4 -51 1 -70 -11 -24 -16 -25 -15 -25 3 0
10 -7 32 -15 47 -8 16 -15 25 -15 20 0 -5 -7 -3 -15 4 -12 10 -13 16 -3 27 9
11 9 16 -3 24 -8 5 -21 9 -29 9 -8 0 -22 5 -30 11 -12 9 -11 10 8 6 12 -3 22
-1 22 4 0 5 12 14 28 20 26 10 26 11 8 25 -26 19 -42 18 -25 -2z"/>
</g>
</svg>
