<?xml version="1.0" standalone="no"?>
<!DOCTYPE svg PUBLIC "-//W3C//DTD SVG 20010904//EN"
 "http://www.w3.org/TR/2001/REC-SVG-20010904/DTD/svg10.dtd">
<svg version="1.0" xmlns="http://www.w3.org/2000/svg"
 width="2616.000000pt" height="2416.000000pt" viewBox="0 0 2616.000000 2416.000000"
 preserveAspectRatio="xMidYMid meet">
<metadata>
Created by potrace 1.16, written by Peter Selinger 2001-2019
</metadata>
<g transform="translate(0.000000,2416.000000) scale(0.100000,-0.100000)"
fill="#000000" stroke="none">
<path d="M15409 23475 c-16 -35 -29 -78 -29 -94 0 -47 60 -151 108 -188 57
-43 83 -42 121 4 27 33 31 45 31 98 0 49 -6 69 -30 107 -30 48 -134 138 -158
138 -7 0 -26 -29 -43 -65z"/>
<path d="M16529 22321 c-41 -41 -39 -74 6 -96 44 -20 84 -13 119 22 33 33 33
56 0 82 -39 31 -89 28 -125 -8z"/>
<path d="M18920 21828 c-6 -35 -17 -69 -22 -76 -24 -28 20 -171 57 -186 39
-15 70 104 46 180 -5 16 -17 55 -27 87 -9 31 -22 57 -29 57 -7 0 -18 -26 -25
-62z"/>
<path d="M9127 21633 c-33 -32 57 -130 169 -183 35 -17 64 -35 64 -39 0 -5 37
-19 83 -31 93 -25 149 -54 292 -151 97 -65 318 -178 475 -241 275 -111 468
-174 507 -166 23 4 -84 79 -163 114 -30 13 -73 36 -96 51 -127 81 -408 219
-568 279 -251 94 -249 93 -430 226 -134 97 -232 148 -286 148 -22 0 -44 -3
-47 -7z"/>
<path d="M9715 20961 c-14 -46 24 -114 71 -125 37 -10 64 10 64 45 0 66 -117
135 -135 80z"/>
<path d="M13280 20891 c0 -11 12 -29 28 -41 15 -12 36 -41 47 -63 12 -25 32
-48 49 -56 36 -17 102 -26 109 -14 10 15 -24 137 -43 157 -17 18 -20 18 -59 3
-44 -18 -76 -12 -100 17 -18 22 -31 20 -31 -3z"/>
<path d="M15331 20693 c-55 -54 -65 -87 -33 -116 20 -19 87 -23 97 -7 3 5 9
40 12 78 4 54 2 70 -10 80 -13 11 -23 6 -66 -35z"/>
<path d="M11692 20544 c-41 -21 -92 -79 -92 -104 0 -11 8 -28 19 -39 26 -26
130 -63 158 -56 27 6 53 52 53 92 0 38 -18 101 -31 109 -24 14 -76 13 -107 -2z"/>
<path d="M9900 20428 c-52 -86 -27 -184 41 -163 27 9 59 63 59 100 -1 32 -20
65 -39 65 -6 0 -14 7 -17 15 -9 23 -22 18 -44 -17z"/>
<path d="M11030 20154 c-24 -56 -26 -136 -4 -210 12 -43 19 -53 29 -44 21 17
40 100 40 175 0 129 -29 164 -65 79z"/>
<path d="M8060 19971 c0 -46 169 -281 203 -281 12 0 -2 58 -24 100 -27 52
-179 206 -179 181z"/>
<path d="M19411 19646 c-30 -31 -33 -39 -28 -76 6 -43 49 -110 71 -110 28 0
36 142 11 190 -9 17 -17 30 -18 30 -2 0 -18 -15 -36 -34z"/>
<path d="M16104 19556 c-8 -22 11 -51 62 -92 26 -21 90 -97 144 -169 93 -125
166 -203 177 -191 8 7 -85 129 -185 244 -45 52 -86 110 -93 130 -18 54 -49 92
-76 92 -13 0 -26 -6 -29 -14z"/>
<path d="M15202 19133 c-8 -3 -23 -26 -35 -52 -12 -25 -23 -49 -24 -52 -2 -4
9 -12 25 -18 17 -7 39 -30 52 -54 40 -73 58 -87 110 -87 51 0 85 24 74 53 -6
16 -61 37 -98 37 -44 0 -59 61 -26 103 26 32 25 42 -2 61 -22 16 -51 19 -76 9z"/>
<path d="M22331 19061 c-58 -55 -47 -131 19 -131 37 0 60 29 60 76 0 89 -24
106 -79 55z"/>
<path d="M6928 19069 c-10 -5 -18 -14 -18 -19 0 -6 64 -42 142 -81 110 -55
165 -76 247 -95 113 -25 136 -24 146 6 9 30 -11 58 -68 93 -76 48 -96 55 -234
82 -134 27 -188 30 -215 14z"/>
<path d="M6705 18954 c104 -98 170 -140 277 -179 77 -27 108 -28 108 -2 0 18
-115 125 -173 160 -42 26 -267 108 -292 107 -5 -1 31 -39 80 -86z"/>
<path d="M18487 18925 c-9 -9 -19 -32 -22 -53 -10 -61 -27 -86 -68 -96 -31 -8
-45 -6 -82 13 -46 23 -72 22 -103 -5 -10 -8 -33 -28 -52 -45 -19 -17 -95 -60
-167 -96 -110 -53 -137 -71 -160 -104 -28 -40 -28 -40 -81 -34 -52 5 -53 5
-64 -25 -20 -58 -67 -62 -123 -9 -16 15 -42 39 -57 53 -27 25 -28 27 -28 143
0 106 -10 186 -23 200 -10 10 -48 -19 -58 -44 -7 -19 -4 -44 11 -97 14 -50 20
-100 19 -162 -1 -127 -6 -138 -55 -142 -31 -2 -49 3 -81 27 l-42 30 -3 -37
c-3 -37 -3 -37 -56 -43 -40 -5 -65 -16 -106 -48 -59 -46 -84 -51 -111 -21 -10
11 -24 20 -30 20 -7 0 -30 14 -51 31 -22 17 -68 47 -104 66 -36 20 -88 51
-117 69 -49 32 -53 33 -62 15 -6 -10 -25 -21 -42 -25 -19 -4 -51 -25 -80 -55
l-49 -48 0 -70 c0 -39 -3 -85 -6 -102 -6 -29 -10 -32 -38 -29 -33 3 -33 4 -19
-63 4 -22 -1 -31 -29 -51 -51 -38 -132 -68 -182 -68 -42 0 -46 -2 -46 -24 0
-13 -3 -32 -6 -41 -9 -22 -68 -50 -136 -65 -32 -6 -58 -16 -58 -21 0 -16 -46
-10 -62 9 -24 28 -80 180 -76 210 3 24 6 27 37 24 49 -5 35 20 -20 36 -59 17
-199 84 -199 94 0 5 -18 28 -40 50 -41 43 -52 78 -25 78 8 0 15 5 15 10 0 6
-20 10 -44 10 -25 0 -51 6 -58 13 -35 35 -65 47 -113 47 -77 0 -89 -13 -90
-101 l0 -74 -45 -22 c-25 -11 -103 -41 -175 -64 l-130 -44 -308 -3 c-287 -3
-312 -2 -375 17 -130 39 -300 54 -344 30 -17 -9 -28 -8 -55 6 -32 18 -34 18
-56 -3 -41 -38 -66 -42 -178 -22 l-104 18 -55 -53 c-70 -68 -107 -79 -277 -79
-73 -1 -133 -2 -133 -3 0 -2 19 -16 42 -33 38 -28 47 -30 129 -30 77 0 93 -3
125 -25 20 -14 55 -30 78 -36 35 -10 169 -72 216 -100 42 -26 84 -39 125 -39
26 0 56 -5 67 -11 14 -8 23 -8 31 0 22 22 82 11 167 -32 47 -23 123 -51 168
-62 79 -18 86 -18 130 -2 26 10 62 17 79 17 27 0 37 7 57 38 49 77 89 92 243
92 l101 0 24 -37 c59 -96 86 -197 68 -262 l-11 -41 -58 0 c-32 0 -74 6 -92 14
-19 7 -45 17 -58 21 -23 7 -23 7 -7 -16 9 -13 16 -35 16 -50 0 -14 9 -38 21
-53 25 -32 19 -53 -18 -67 -15 -6 -36 -18 -46 -27 -15 -13 -23 -14 -48 -5 -26
10 -29 9 -29 -9 0 -33 -19 -57 -60 -78 -22 -11 -95 -68 -163 -126 -67 -58
-138 -114 -157 -124 -19 -10 -127 -107 -240 -215 -113 -109 -220 -209 -237
-223 -18 -13 -33 -30 -33 -38 0 -7 -20 -38 -45 -69 -25 -31 -51 -67 -57 -80
-6 -14 -14 -25 -18 -25 -8 0 -124 -144 -144 -178 -33 -58 -87 -132 -95 -132
-20 0 -49 -42 -55 -81 -3 -21 -11 -39 -17 -39 -6 0 -9 -16 -7 -37 3 -34 0 -38
-22 -42 -14 -1 -28 -8 -31 -13 -4 -6 -24 -11 -45 -12 -42 -1 -39 -5 -118 146
-20 36 -40 70 -47 73 -6 4 -27 32 -47 62 -20 31 -41 62 -47 69 -6 9 -2 21 15
39 23 24 21 50 -2 27 -19 -19 -46 -14 -59 10 -7 13 -22 52 -33 87 -19 60 -24
66 -54 72 -34 7 -72 34 -72 52 0 5 -9 19 -20 31 -11 12 -41 46 -66 76 -24 30
-50 60 -56 65 -72 62 -257 259 -271 288 -13 26 -24 37 -40 37 -13 0 -56 28
-100 65 -43 36 -83 65 -90 65 -6 0 -20 9 -32 20 -40 40 -155 129 -175 135 -11
3 -20 10 -20 16 0 5 -15 15 -34 23 -33 14 -76 63 -76 87 0 22 -70 137 -103
171 -46 46 -109 82 -205 117 -106 39 -156 73 -181 124 -13 25 -32 45 -50 53
-20 9 -37 28 -52 58 -11 25 -37 57 -57 73 -21 15 -74 64 -120 108 -88 85 -122
104 -188 104 -43 1 -54 12 -54 52 0 10 -4 19 -10 19 -5 0 -10 -19 -10 -43 0
-36 -7 -52 -50 -105 -88 -107 -112 -110 -260 -22 -80 47 -121 59 -146 42 -7
-4 -25 -29 -41 -57 l-30 -50 -84 2 c-46 2 -104 9 -129 16 -46 13 -51 20 -64
88 -3 14 -19 43 -36 64 -44 55 -41 93 13 148 106 111 137 149 143 173 17 67
-44 120 -125 110 -62 -8 -146 -49 -198 -97 -51 -47 -88 -64 -181 -84 -81 -17
-156 -20 -238 -10 -67 8 -72 5 -84 -49 -6 -30 -8 -31 -55 -30 -28 1 -66 4 -86
9 -30 6 -40 3 -62 -17 -24 -22 -25 -28 -17 -60 9 -29 18 -38 54 -52 25 -10 72
-35 105 -56 65 -42 79 -73 39 -84 -47 -12 -230 -6 -285 10 -33 9 -68 13 -89
10 -42 -8 -64 3 -134 70 -30 28 -71 64 -90 80 -71 56 -122 110 -142 149 -11
22 -26 47 -33 55 -7 8 -15 31 -19 50 -8 48 -41 98 -76 118 -16 9 -33 26 -39
38 -5 12 -31 34 -58 49 -26 16 -71 48 -99 71 -83 71 -106 77 -297 82 -93 2
-194 1 -224 -3 -49 -6 -56 -10 -65 -36 -14 -40 -47 -55 -158 -73 -94 -15 -175
-48 -186 -76 -3 -8 -8 -47 -11 -87 -5 -61 -9 -72 -26 -77 -37 -9 -1 -36 49
-36 51 0 91 -14 121 -42 19 -18 26 -19 54 -9 55 19 94 13 168 -26 47 -26 80
-52 100 -80 17 -24 35 -43 40 -43 5 0 15 -15 21 -32 l13 -33 7 35 c9 40 58 86
160 154 84 56 81 54 120 61 18 3 45 12 61 20 35 19 49 19 98 -1 29 -12 48 -30
75 -74 55 -90 56 -88 -84 -139 -46 -17 -106 -46 -134 -64 -28 -19 -63 -41 -78
-51 -17 -10 -34 -34 -45 -66 -14 -39 -24 -52 -43 -57 -69 -17 -211 -109 -330
-213 -90 -79 -160 -131 -200 -147 -19 -9 -45 -24 -59 -34 -13 -10 -32 -19 -42
-19 -9 0 -27 -12 -38 -27 -12 -15 -44 -34 -74 -44 -28 -10 -97 -42 -152 -71
-79 -42 -103 -60 -115 -85 -17 -37 -36 -41 -83 -17 -45 23 -85 63 -110 109
l-22 40 -11 -140 c-6 -77 -12 -141 -13 -142 0 -2 -8 -3 -16 -3 -8 0 -22 -11
-30 -24 -9 -13 -33 -32 -53 -41 -44 -21 -62 -41 -62 -72 0 -19 -5 -23 -28 -23
-17 0 -37 -9 -48 -21 -10 -12 -35 -29 -54 -39 -19 -10 -44 -28 -55 -40 -11
-12 -39 -35 -62 -51 -23 -16 -45 -38 -48 -49 -4 -12 -24 -32 -46 -45 -21 -14
-51 -44 -66 -66 l-27 -42 -83 7 c-45 3 -143 17 -217 31 -75 14 -151 25 -171
25 -65 0 -219 -32 -280 -57 -33 -14 -98 -38 -145 -54 -47 -15 -116 -39 -155
-53 -77 -28 -132 -32 -202 -15 -55 14 -63 6 -63 -64 0 -26 -6 -62 -14 -80 -26
-60 -104 -146 -155 -172 -86 -43 -98 -78 -56 -169 28 -61 41 -134 27 -154 -5
-7 -47 -26 -92 -41 -91 -30 -106 -44 -96 -84 12 -50 40 -65 128 -69 75 -3 82
-5 108 -34 21 -24 34 -59 54 -141 34 -141 35 -250 4 -325 -43 -106 -15 -315
52 -378 20 -19 149 -170 163 -190 19 -28 22 -78 7 -132 -15 -52 -36 -61 -97
-43 -68 21 -83 19 -83 -7 0 -13 -16 -48 -35 -78 -19 -30 -35 -61 -35 -69 0 -8
-10 -25 -22 -38 -16 -17 -22 -36 -22 -70 -1 -41 3 -49 26 -62 25 -14 28 -14
48 4 43 39 74 121 95 248 5 33 9 37 35 37 45 0 64 -36 56 -108 -11 -100 -31
-191 -44 -204 -7 -7 -12 -39 -12 -79 0 -76 -5 -84 -81 -131 -30 -18 -61 -50
-85 -86 -62 -95 -82 -112 -130 -112 -24 0 -45 -4 -49 -10 -3 -5 -8 -39 -12
-76 -5 -54 -12 -73 -35 -99 -41 -48 -37 -77 22 -139 48 -51 60 -78 40 -91 -5
-3 -51 -15 -102 -26 -51 -11 -103 -27 -115 -35 -55 -35 -8 -64 103 -64 90 0
132 16 169 64 15 20 36 36 46 36 26 0 103 -73 119 -111 17 -41 3 -69 -54 -108
-39 -27 -53 -31 -111 -31 -42 0 -86 8 -123 21 -83 31 -103 32 -140 10 -76 -48
-8 -90 92 -56 45 15 60 16 124 5 59 -10 76 -17 89 -36 27 -42 3 -97 -80 -178
l-70 -69 12 -51 c28 -115 29 -109 -35 -170 l-58 -56 -84 0 c-93 0 -94 -1 -7
-58 27 -18 67 -35 88 -39 40 -6 122 -56 140 -84 15 -24 1 -64 -35 -96 -69 -62
-78 -73 -78 -95 l1 -23 13 23 c13 24 30 36 101 72 52 26 55 25 104 -10 53 -39
101 -113 101 -158 0 -33 -50 -167 -89 -236 -27 -47 -26 -56 3 -56 28 0 37 -11
55 -65 21 -60 60 -143 71 -150 15 -9 12 -42 -6 -77 -21 -41 -9 -48 81 -48 48
0 84 -7 114 -20 33 -16 65 -20 141 -20 117 0 148 -16 195 -100 25 -45 37 -56
67 -63 34 -8 39 -14 67 -85 39 -97 42 -166 9 -183 -33 -17 -33 -17 -12 -40 28
-31 24 -110 -10 -173 -21 -40 -26 -61 -24 -112 1 -56 -3 -73 -40 -146 -22 -46
-57 -103 -76 -128 -19 -25 -43 -66 -52 -90 -23 -66 -84 -281 -84 -300 0 -21
20 -40 41 -40 9 0 26 -8 38 -17 19 -16 22 -30 25 -128 7 -217 70 -288 255
-287 47 0 107 5 133 11 48 11 78 8 208 -23 36 -9 93 -16 127 -16 51 0 67 -4
91 -25 51 -43 153 -84 230 -94 88 -11 102 -20 183 -113 193 -220 215 -232 491
-257 93 -8 115 -14 176 -46 101 -53 112 -65 112 -130 0 -49 4 -58 35 -89 49
-49 47 -72 -7 -81 -96 -14 -107 -18 -122 -33 -41 -47 -23 -102 34 -102 16 0
32 -4 35 -10 11 -17 -75 -169 -104 -184 -35 -19 -84 -89 -127 -183 -56 -122
-194 -321 -257 -370 -29 -23 -102 -87 -161 -142 -126 -119 -140 -123 -201 -60
-36 37 -44 40 -79 36 -74 -10 -116 -68 -202 -287 -31 -80 -71 -168 -89 -195
-47 -74 -58 -117 -53 -202 3 -40 8 -76 11 -79 11 -12 48 18 61 50 7 18 28 49
46 69 27 31 39 37 71 37 33 0 41 -4 49 -26 15 -39 12 -78 -10 -134 -24 -61
-26 -113 -5 -130 16 -14 26 -10 103 34 52 30 123 121 176 224 l17 33 -104 -7
c-140 -9 -152 3 -127 136 11 58 47 120 110 190 23 25 57 64 77 88 19 23 41 42
48 42 6 0 26 22 44 50 37 57 133 147 209 196 28 19 52 38 52 44 0 16 44 40
106 56 60 15 106 44 71 44 -32 0 -19 42 28 86 62 60 97 76 172 77 75 2 83 -5
83 -80 l0 -53 -43 0 c-57 0 -147 -27 -147 -44 0 -8 20 -19 48 -25 124 -31 121
-29 146 -79 28 -54 59 -86 100 -102 31 -11 83 1 175 42 45 20 89 18 103 -5 14
-22 7 -131 -10 -174 -10 -23 -43 -73 -74 -110 -31 -37 -73 -90 -93 -118 -21
-27 -75 -93 -120 -145 -45 -52 -114 -140 -155 -195 -106 -144 -259 -322 -330
-384 -34 -29 -72 -70 -85 -90 -26 -43 -242 -265 -330 -341 -33 -29 -81 -63
-107 -76 -25 -13 -48 -30 -50 -38 -3 -14 -193 -163 -386 -304 -54 -39 -29 -37
35 3 48 31 266 196 283 215 21 22 119 96 180 135 41 27 101 65 134 86 32 22
63 39 68 39 5 0 23 13 39 29 30 30 122 71 162 71 34 1 96 33 160 84 34 26 74
48 95 52 64 12 107 38 330 204 26 19 97 86 157 149 94 97 122 119 190 153 46
22 105 62 138 93 76 70 238 155 296 155 65 0 169 46 226 100 28 26 66 56 85
65 19 10 47 30 62 46 16 18 37 29 53 29 14 0 28 6 31 14 3 8 14 16 24 19 10 2
24 17 31 32 8 16 23 33 34 39 11 6 32 19 47 29 40 26 56 22 60 -15 3 -28 11
-37 57 -63 30 -16 63 -42 74 -57 26 -36 17 -47 -84 -99 -44 -23 -79 -47 -79
-53 0 -7 15 -19 33 -27 40 -18 45 -47 14 -81 -32 -34 -69 -113 -65 -135 2 -13
18 -20 55 -26 60 -10 94 -38 111 -93 9 -30 8 -44 -9 -85 -19 -50 -25 -115 -11
-135 4 -6 21 -19 39 -28 18 -9 37 -26 44 -37 10 -20 16 -21 99 -14 137 11 166
-20 89 -94 -28 -26 -44 -52 -49 -78 -4 -21 -11 -53 -15 -70 -7 -31 -6 -33 19
-33 30 0 101 26 136 51 38 26 85 31 185 20 71 -7 93 -6 105 4 19 17 82 29 108
21 10 -4 24 -18 30 -31 10 -23 17 -25 71 -25 51 0 61 3 75 24 8 14 26 26 38
28 34 5 94 -29 107 -60 6 -15 43 -59 82 -97 39 -39 86 -93 104 -121 20 -30 47
-57 65 -64 18 -8 30 -20 30 -31 0 -24 -32 -25 -72 -2 -29 18 -30 18 -54 -10
-13 -15 -24 -35 -24 -43 0 -8 -6 -14 -14 -14 -8 0 -26 -15 -41 -32 -14 -18
-37 -46 -51 -63 -36 -44 -49 -94 -35 -137 6 -19 41 -67 76 -107 76 -84 102
-131 116 -209 6 -31 17 -67 25 -79 30 -47 153 -54 231 -15 21 11 69 36 107 56
79 41 105 44 129 18 34 -37 12 -99 -49 -141 -18 -13 -45 -39 -59 -57 l-27 -35
-90 2 c-90 2 -91 1 -114 -29 -32 -40 -161 -124 -309 -202 -66 -34 -148 -82
-182 -106 -34 -24 -66 -44 -72 -44 -6 0 -11 -4 -11 -9 0 -6 -24 -36 -53 -68
-89 -98 -108 -132 -98 -176 9 -36 25 -64 46 -79 15 -11 65 1 135 32 80 36 161
47 215 28 36 -12 40 -17 47 -57 4 -24 9 -45 11 -47 7 -7 67 44 192 161 70 66
147 135 172 154 27 22 53 54 69 87 14 29 41 66 60 83 19 17 42 50 50 73 8 23
22 51 32 61 18 21 97 59 143 70 15 4 46 23 69 42 48 40 62 43 90 15 36 -36 60
-21 60 36 0 18 5 24 23 24 24 0 67 -37 67 -57 0 -7 15 -22 33 -34 40 -29 157
-144 157 -156 0 -4 39 -49 86 -98 47 -50 92 -103 100 -118 22 -42 2 -63 -30
-31 -21 20 -49 14 -61 -14 -16 -35 -49 -28 -79 18 -30 46 -46 51 -46 14 0 -17
6 -28 20 -31 11 -3 20 -11 20 -19 0 -24 -37 -76 -69 -95 -37 -22 -40 -39 -7
-39 29 0 31 -3 40 -52 6 -31 4 -37 -14 -43 -30 -10 -26 -66 9 -129 16 -28 37
-73 47 -101 10 -27 30 -69 44 -91 41 -66 56 -119 40 -148 -15 -29 -6 -76 15
-76 9 0 20 12 25 26 8 20 16 25 38 22 23 -2 28 -8 30 -36 2 -24 10 -35 28 -42
17 -7 24 -17 25 -37 0 -16 3 -21 6 -13 25 70 35 80 74 80 57 0 117 -27 135
-62 18 -34 13 -98 -17 -218 -23 -94 -24 -146 -3 -154 9 -3 34 -6 57 -6 48 -1
60 -9 102 -65 50 -67 57 -84 50 -126 -8 -45 6 -69 39 -69 14 0 34 18 59 53 55
76 99 122 133 140 77 40 149 26 149 -28 0 -20 6 -31 18 -33 9 -2 17 -10 17
-18 0 -23 20 -16 33 13 10 23 9 28 -7 37 -47 27 -87 71 -98 107 -10 37 -9 41
14 67 14 15 31 37 37 49 16 32 68 56 119 56 37 0 48 -4 69 -31 13 -18 29 -32
34 -32 4 0 77 -70 161 -156 l153 -156 79 11 c56 8 103 23 162 52 87 42 122 75
163 157 12 23 28 42 36 42 8 0 18 6 22 13 4 7 20 20 36 30 15 10 27 23 27 30
0 6 14 22 31 33 17 12 105 93 195 180 91 88 178 166 194 174 15 8 38 30 51 49
31 45 440 440 508 491 61 46 78 49 91 18 6 -13 19 -36 30 -53 50 -76 55 -102
80 -490 13 -197 20 -255 31 -255 5 0 9 17 9 38 0 21 7 64 15 95 19 75 20 73
-12 105 -28 27 -28 28 -31 182 l-4 156 77 63 c59 48 82 75 100 114 54 123 87
221 100 297 11 64 20 87 42 109 15 16 34 36 42 46 20 25 74 15 179 -33 48 -22
114 -46 147 -52 82 -16 225 -73 298 -117 33 -20 91 -66 129 -101 58 -55 77
-83 123 -175 30 -61 55 -116 55 -123 0 -6 7 -17 14 -24 8 -6 23 -32 32 -57 10
-26 26 -56 37 -67 10 -12 36 -48 58 -81 22 -33 57 -84 79 -114 22 -31 50 -87
66 -135 32 -98 60 -162 75 -171 20 -13 59 6 74 35 29 56 -17 161 -82 189 -33
15 -98 91 -134 158 -14 26 -40 71 -58 98 -17 28 -39 75 -48 105 -9 30 -38 114
-66 185 -46 120 -50 138 -55 237 -4 105 -4 108 22 139 15 17 33 43 40 58 l14
26 -61 0 c-98 0 -215 65 -270 151 -14 21 -30 55 -36 75 -6 20 -25 51 -42 70
-16 18 -32 45 -36 59 -3 14 -11 32 -19 40 -21 25 -55 126 -57 171 -2 39 1 45
33 63 20 12 77 66 127 121 50 55 126 133 169 174 44 41 117 111 164 156 117
111 228 203 273 227 22 11 40 18 42 16 1 -2 9 -16 17 -32 26 -50 28 -13 2 39
-13 28 -24 50 -24 51 0 1 285 280 425 416 205 199 232 220 278 216 40 -4 37
-8 52 68 7 33 101 144 147 173 24 15 50 36 58 45 8 10 24 22 37 27 12 4 25 20
29 34 3 14 13 25 23 25 29 0 44 -66 48 -216 4 -131 3 -141 -17 -159 -14 -13
-20 -30 -20 -59 0 -60 10 -70 60 -63 44 6 47 4 90 -53 l19 -25 1 25 c1 14 7
39 14 55 12 26 11 34 -4 60 -37 62 -82 303 -62 328 6 7 8 18 3 23 -5 5 -11 52
-15 104 l-6 96 37 31 c21 17 98 89 170 161 98 95 135 137 139 160 15 72 74 4
74 -85 0 -28 3 -58 6 -67 15 -39 92 3 80 42 -4 12 -12 22 -17 22 -6 0 -21 11
-34 25 -38 37 -34 82 14 142 48 61 279 293 291 293 5 0 16 14 25 30 9 17 22
30 29 30 7 0 19 7 26 15 15 18 61 20 78 3 19 -19 32 2 41 63 4 30 12 63 19 75
18 34 150 153 177 160 14 3 25 10 25 14 0 20 55 90 70 90 10 0 30 -10 45 -21
l27 -22 26 26 c27 28 28 26 -23 42 -27 8 -16 40 27 73 34 26 51 32 90 32 l48
0 0 38 c0 52 10 82 27 82 7 0 22 13 31 29 9 17 24 32 34 34 9 3 28 23 42 46
15 22 31 41 36 41 6 0 76 63 157 141 80 77 160 148 177 156 17 8 42 32 54 54
35 60 60 52 130 -39 27 -37 30 -126 7 -192 -8 -23 -15 -53 -15 -66 0 -31 69
-106 118 -130 20 -9 39 -20 42 -23 3 -4 17 -14 33 -24 26 -17 27 -20 27 -107
l0 -89 46 -31 c25 -18 49 -43 55 -56 11 -30 29 -23 29 10 0 24 21 36 68 36 13
0 46 10 73 21 38 17 49 26 49 45 0 12 -4 25 -9 28 -5 3 -18 25 -29 48 -26 56
-124 156 -159 164 -47 10 -81 25 -96 42 -17 20 -67 143 -90 223 -21 69 -45
102 -105 136 -55 31 -92 62 -92 77 0 20 92 117 152 161 l58 42 82 -14 c78 -14
87 -13 153 6 38 11 83 19 98 19 15 0 35 6 45 15 9 9 30 21 46 27 28 10 556 43
656 41 25 -1 92 -2 150 -4 l105 -2 5 47 c6 51 44 102 84 114 12 3 37 21 56 39
19 18 46 36 60 40 13 4 36 16 50 26 14 10 60 27 103 39 43 11 89 28 103 36 30
20 31 51 2 59 -13 4 -30 16 -39 27 -16 20 -16 20 -44 2 -15 -11 -67 -39 -114
-64 -73 -38 -86 -50 -93 -77 -10 -37 -60 -83 -92 -83 -13 0 -31 -9 -41 -20
-22 -25 -66 -36 -168 -46 -70 -6 -79 -9 -88 -30 -5 -14 -20 -29 -34 -34 -29
-11 -358 -14 -454 -4 -70 8 -64 -3 -100 174 -34 172 -34 168 -12 175 10 3 24
19 31 35 7 16 35 50 64 75 60 53 60 53 129 129 l54 59 154 -17 c147 -17 158
-17 215 0 83 24 163 22 213 -6 42 -24 38 -24 259 -4 68 7 72 6 72 -13 0 -12
21 -44 46 -72 40 -44 45 -56 40 -81 -4 -22 -2 -30 8 -30 29 0 96 36 196 105
143 99 193 123 290 140 90 16 140 39 121 58 -8 8 -39 4 -115 -16 -125 -33
-183 -33 -357 -6 -142 23 -170 24 -314 9 -137 -15 -370 -12 -440 5 -39 9 -87
12 -135 8 -79 -5 -130 6 -130 30 0 7 25 42 56 78 31 35 65 82 75 104 10 22 32
51 49 63 17 13 36 34 42 48 14 29 32 30 65 4 14 -11 32 -20 39 -20 21 0 16 21
-6 27 -43 11 -15 107 59 200 36 47 123 186 171 274 19 37 48 86 64 110 37 55
133 267 149 328 6 25 17 53 24 61 19 23 69 140 78 179 4 19 14 41 21 49 8 7
14 25 14 39 0 14 8 40 19 57 44 73 108 323 156 605 34 200 35 215 20 238 -16
23 -16 26 4 47 12 12 21 25 21 29 0 3 14 28 30 54 30 47 41 115 20 128 -13 8
-13 82 -1 90 6 3 28 2 51 -1 l42 -7 -4 -43 c-4 -50 -2 -51 25 -26 14 12 33 16
69 15 50 -2 50 -2 43 25 -13 53 -42 88 -115 138 -66 44 -75 54 -78 84 -2 20
-12 40 -23 48 -44 31 -4 89 53 78 58 -12 199 0 210 18 4 6 8 32 8 57 0 57 4
61 144 136 60 32 111 64 114 71 5 17 -58 15 -133 -3 -33 -8 -91 -19 -130 -25
-38 -6 -91 -18 -117 -27 -37 -13 -57 -15 -95 -7 -43 8 -48 12 -57 44 -6 19
-16 40 -23 45 -7 6 -17 35 -22 65 -6 30 -19 107 -30 170 -11 63 -25 154 -31
201 -6 47 -17 110 -25 140 -8 30 -31 117 -50 194 -19 77 -50 187 -70 245 -20
58 -37 121 -38 140 -2 34 -1 35 35 33 27 -2 38 2 42 15 9 28 2 36 -30 33 -38
-3 -46 14 -75 147 -11 53 -32 133 -45 177 -33 104 -34 166 -5 205 19 27 20 32
7 52 -20 32 -5 68 29 68 14 0 25 3 25 8 0 11 -64 52 -83 52 -44 0 -47 75 -12
233 24 107 25 114 10 154 -18 47 -39 58 -79 43 -42 -15 -88 -12 -129 10 -20
11 -47 20 -59 20 -55 0 -96 20 -112 54 -9 19 -16 45 -16 58 0 15 -11 32 -27
45 -16 11 -36 42 -46 71 -18 49 -51 91 -63 79 -10 -10 -17 -94 -10 -120 3 -14
15 -27 26 -30 34 -9 25 -37 -12 -37 -62 0 -113 50 -154 150 -27 67 -30 96 -11
113 7 7 32 29 54 50 29 28 51 40 78 42 20 2 40 6 43 10 11 11 -29 72 -55 84
-15 7 -23 18 -21 28 3 19 66 57 110 68 23 6 29 3 39 -18 6 -14 22 -30 35 -36
26 -12 33 -48 12 -69 -9 -9 -7 -12 10 -12 17 0 22 6 22 28 0 23 6 30 36 41 63
23 87 131 40 182 -25 27 -113 63 -178 74 -34 5 -38 9 -38 36 l0 30 -92 -6
c-51 -3 -110 -8 -131 -11 -44 -5 -57 12 -39 52 9 18 19 24 42 24 63 0 88 38
60 91 -17 30 -31 24 -87 -38 -43 -48 -54 -55 -63 -43 -14 22 -12 123 3 144 12
16 16 17 35 5 24 -15 42 -5 23 14 -7 7 -47 13 -92 16 -77 3 -80 4 -95 34 -22
41 -13 84 30 146 61 89 94 204 81 282 l-7 40 -68 -65 c-71 -69 -94 -79 -105
-46 -3 11 -13 20 -21 20 -21 0 -17 -36 7 -52 21 -14 21 -14 4 -93 -21 -93 -43
-120 -142 -173 -76 -40 -124 -42 -157 -7 -41 45 -86 28 -86 -33 0 -25 5 -35
20 -39 24 -6 25 -32 7 -144 -11 -67 -18 -82 -57 -127 -32 -37 -52 -52 -71 -52
-29 0 -105 53 -114 79 -3 11 -16 22 -29 25 -13 3 -48 22 -78 41 -52 35 -53 36
-59 95 -4 41 -14 72 -33 100 -15 23 -30 60 -34 82 -5 25 -15 45 -27 52 -11 6
-23 16 -27 21 -4 6 -8 -6 -8 -25 0 -19 -3 -59 -6 -87 -7 -52 -6 -53 19 -53 28
0 47 -24 47 -59 0 -29 -55 -30 -70 -2 -5 11 -22 21 -37 23 -27 3 -28 6 -31 66
l-3 62 -36 0 c-28 0 -42 8 -70 38 -33 36 -35 36 -49 18 -8 -11 -14 -26 -14
-33 0 -35 -81 -34 -132 1 -12 9 -33 16 -46 16 -22 0 -24 3 -19 33 19 106 19
127 4 127 -15 0 -34 -38 -39 -79 -8 -68 -59 2 -73 101 -6 42 -5 48 19 63 14
10 26 21 26 26 0 5 -23 33 -51 62 -28 28 -58 66 -66 82 -9 17 -24 41 -34 54
-21 26 -26 105 -9 116 6 4 28 -9 51 -28 22 -19 52 -37 67 -40 15 -3 38 -15 50
-26 13 -11 36 -22 51 -26 14 -3 31 -16 36 -28 7 -14 19 -22 35 -22 21 0 26 5
28 32 2 25 -3 39 -22 57 -24 22 -26 29 -26 118 0 112 -13 136 -85 163 -35 14
-45 23 -47 44 -6 48 -68 35 -68 -14 0 -13 -11 -32 -23 -42 -32 -25 -47 -55
-47 -93 0 -39 -26 -96 -47 -105 -33 -12 -117 97 -137 178 -10 42 9 97 54 151
26 32 40 58 40 77 0 64 -65 40 -102 -39 l-23 -47 -62 -3 c-41 -2 -63 1 -63 8
0 36 77 148 167 243 33 35 52 47 73 47 23 0 31 6 36 24 14 56 -43 107 -79 71z
m-9064 -721 c29 -13 60 -24 70 -24 24 0 213 -74 255 -100 66 -41 25 -99 -52
-72 -17 6 -65 14 -106 18 -76 7 -97 13 -122 37 -25 24 -65 45 -106 56 -112 31
-142 132 -34 116 24 -4 66 -17 95 -31z m10912 -895 c18 -18 18 -23 5 -62 -17
-48 -47 -64 -103 -53 -36 7 -37 9 -37 48 0 55 30 88 80 88 25 0 43 -7 55 -21z
m593 -1225 c17 -3 33 -12 36 -19 2 -7 -3 -43 -12 -81 -16 -63 -19 -69 -45 -72
-23 -3 -30 2 -43 33 -8 21 -27 55 -41 76 -34 51 -26 69 30 69 25 0 58 -3 75
-6z m-15673 -5727 c-1 -126 -46 -204 -120 -208 -53 -3 -55 -1 -55 44 0 44 10
64 67 131 18 22 38 58 44 80 15 58 28 71 48 51 12 -12 16 -36 16 -98z"/>
<path d="M6632 18750 c-12 -12 -22 -31 -22 -43 0 -32 67 -276 80 -292 16 -20
75 -45 104 -45 32 0 41 28 33 113 -5 53 -64 233 -90 275 -13 20 -80 15 -105
-8z"/>
<path d="M11600 18258 c-30 -32 -35 -64 -16 -93 13 -20 25 -25 55 -25 25 0 41
5 45 15 3 8 12 15 21 15 20 0 19 29 -1 60 -37 55 -70 64 -104 28z"/>
<path d="M11854 17705 c-18 -44 -18 -69 1 -105 26 -51 86 -50 130 2 34 40 32
73 -6 109 -23 22 -41 29 -71 29 -35 0 -40 -3 -54 -35z"/>
<path d="M13346 17718 c-10 -6 -95 -14 -188 -18 -93 -4 -172 -10 -175 -14 -4
-3 0 -6 9 -6 21 0 57 -42 41 -47 -15 -5 -17 -33 -3 -33 6 0 10 5 10 10 0 15
62 11 84 -5 11 -8 26 -15 33 -15 7 0 37 -12 68 -26 l55 -26 69 22 c71 22 73
24 95 94 5 14 14 17 46 14 22 -2 40 -2 40 -1 0 5 -70 32 -119 47 -33 10 -53
11 -65 4z"/>
<path d="M21290 17483 c1 -42 46 -142 72 -157 12 -7 25 -3 52 18 20 15 36 33
36 40 0 17 -60 73 -92 85 -18 7 -28 18 -28 31 0 13 -7 20 -20 20 -17 0 -20 -7
-20 -37z"/>
<path d="M14210 17382 c0 -21 -5 -43 -11 -49 -8 -8 -6 -18 5 -35 18 -27 13
-38 -18 -38 -13 0 -28 12 -38 30 -44 78 -192 79 -258 3 -35 -39 -38 -65 -10
-93 27 -27 112 -27 181 0 32 13 88 23 145 27 88 6 95 8 100 30 10 36 -5 109
-27 137 -12 15 -31 26 -45 26 -21 0 -24 -4 -24 -38z"/>
<path d="M13000 16893 c-55 -20 -66 -74 -22 -116 36 -35 51 -34 90 6 34 35 39
53 19 78 -23 30 -57 43 -87 32z"/>
<path d="M4182 16881 c-11 -6 -5 -25 28 -87 23 -44 48 -83 56 -87 20 -11 77 9
102 36 l22 23 -25 37 c-44 64 -141 105 -183 78z"/>
<path d="M492 14292 c-35 -17 -51 -54 -33 -76 6 -8 33 -23 60 -35 60 -25 69
-36 80 -95 9 -50 21 -69 28 -48 10 26 52 37 168 42 109 5 124 8 163 33 23 15
42 34 42 42 0 28 -60 82 -119 109 -99 44 -324 61 -389 28z"/>
<path d="M4115 14065 c-15 -14 -25 -36 -25 -51 0 -33 30 -144 39 -144 17 1
101 150 101 179 0 13 -53 41 -75 41 -9 0 -27 -11 -40 -25z"/>
<path d="M1067 13883 c-31 -30 62 -103 130 -103 86 0 103 77 22 100 -38 11
-142 13 -152 3z"/>
<path d="M3685 12929 c-19 -17 -44 -44 -55 -59 l-20 -28 38 0 c47 0 148 -24
189 -46 44 -22 53 -20 53 12 0 35 -46 107 -86 133 -42 27 -78 24 -119 -12z"/>
<path d="M21506 12005 c-10 -26 -7 -125 4 -146 8 -14 21 -19 49 -19 31 0 44 6
65 31 14 17 26 38 26 48 0 24 -38 58 -75 67 -16 3 -37 13 -46 21 -14 12 -17
12 -23 -2z"/>
<path d="M4155 11710 c-8 -13 22 -67 44 -80 39 -20 86 -12 115 20 23 26 30 29
47 19 15 -8 24 -8 32 0 14 14 14 14 -65 34 -73 19 -163 23 -173 7z"/>
<path d="M23573 11604 c-7 -3 -17 -21 -23 -40 -10 -29 -9 -39 4 -59 23 -35 62
-42 94 -18 62 46 46 124 -26 122 -20 0 -42 -3 -49 -5z"/>
<path d="M4320 11178 c0 -39 -47 -126 -118 -221 -92 -123 -120 -165 -167 -255
-46 -88 -63 -102 -98 -83 -19 10 -33 10 -67 1 -24 -6 -63 -9 -86 -5 -45 6 -74
-12 -35 -22 11 -3 23 -15 27 -27 8 -26 22 -36 54 -36 34 0 70 -26 70 -51 0
-10 4 -19 9 -19 19 0 84 78 116 140 19 36 43 79 54 95 12 17 21 39 21 50 0 22
49 105 128 214 30 42 67 99 83 126 16 28 42 59 59 70 42 28 39 45 -10 45 -35
0 -40 -3 -40 -22z"/>
<path d="M4150 9877 c-41 -14 -51 -48 -24 -78 20 -23 114 -28 114 -6 0 6 11
25 25 41 39 45 33 56 -27 55 -29 0 -69 -5 -88 -12z"/>
<path d="M20957 9555 c-11 -27 -8 -34 21 -48 51 -27 252 -32 252 -8 0 11 -169
64 -220 69 -38 3 -48 1 -53 -13z"/>
<path d="M4610 9275 c-8 -9 -16 -53 -20 -104 -6 -83 -9 -92 -49 -151 -71 -104
-54 -168 48 -178 46 -4 53 -2 81 26 26 26 30 38 30 84 0 37 -6 60 -20 78 -31
39 -26 84 14 128 64 71 55 117 -24 128 -36 5 -49 2 -60 -11z"/>
<path d="M2165 8984 c-55 -26 -122 -53 -149 -60 -27 -8 -57 -20 -66 -29 -9 -8
-21 -15 -27 -15 -20 0 -63 -41 -63 -60 0 -42 78 -65 123 -35 31 20 92 21 162
2 72 -21 169 -23 163 -4 -3 7 -32 15 -75 18 -71 7 -113 21 -113 40 0 5 30 29
68 53 81 53 122 92 122 117 0 30 -36 23 -145 -27z"/>
<path d="M3 8884 c-8 -21 9 -34 108 -84 41 -21 86 -50 100 -64 13 -14 28 -26
32 -26 5 0 41 -16 81 -36 77 -37 157 -52 219 -40 38 7 53 31 42 66 -16 51
-197 135 -329 152 -45 6 -108 19 -140 29 -74 23 -105 24 -113 3z"/>
<path d="M2975 8709 c-60 -10 -148 -23 -195 -29 -120 -15 -140 -20 -140 -36 0
-10 14 -14 53 -14 101 0 521 70 541 90 16 16 -137 10 -259 -11z"/>
<path d="M18059 8020 c-24 -16 -52 -30 -62 -30 -25 0 -31 -25 -13 -52 9 -12
16 -32 16 -44 0 -12 7 -38 15 -58 11 -26 13 -42 6 -55 -6 -10 -7 -21 -4 -25
13 -13 174 -6 202 8 58 30 121 123 121 179 0 17 -54 79 -81 93 -16 8 -56 14
-92 14 -55 0 -71 -4 -108 -30z"/>
<path d="M8277 6999 c-18 -11 -45 -57 -57 -100 -6 -22 -3 -32 14 -48 12 -12
28 -21 34 -21 11 0 18 -18 24 -65 3 -19 -4 -20 -97 -25 l-99 -5 -10 -34 c-6
-22 -21 -41 -43 -54 -18 -10 -38 -27 -43 -37 -25 -46 -161 -67 -237 -35 -55
23 -83 20 -83 -10 0 -15 -9 -31 -25 -41 -52 -34 -22 -66 30 -34 29 18 51 22
123 22 48 0 100 -5 115 -11 35 -14 182 -14 207 -1 12 6 26 34 36 65 17 60 34
75 86 76 50 1 102 23 115 49 9 18 8 32 -5 66 -16 43 -16 44 10 71 29 32 58 85
58 107 0 22 -78 76 -109 76 -14 0 -34 -5 -44 -11z"/>
<path d="M18605 6803 c-34 -9 -45 -24 -45 -65 0 -60 14 -78 60 -78 50 0 80 27
80 73 0 62 -32 85 -95 70z"/>
<path d="M21710 6775 c-31 -37 23 -55 167 -55 98 0 215 -20 251 -42 29 -18 37
-19 58 -8 13 8 24 17 24 21 0 4 -26 13 -57 19 -101 20 -166 37 -225 59 -71 26
-198 30 -218 6z"/>
<path d="M18511 6454 c-17 -14 -31 -30 -31 -36 0 -5 -11 -24 -24 -41 -48 -63
-42 -110 21 -169 41 -39 80 -52 107 -35 11 8 33 17 48 21 34 8 78 70 78 109 0
38 -53 140 -84 160 -37 25 -80 21 -115 -9z"/>
<path d="M23440 6153 c-38 -20 -57 -63 -46 -107 8 -32 75 -96 102 -96 25 0 69
44 84 84 32 86 -57 161 -140 119z"/>
<path d="M3430 6024 c-14 -7 -37 -14 -53 -14 -15 0 -53 -9 -85 -20 -31 -11
-120 -37 -196 -57 -145 -38 -195 -65 -183 -97 7 -19 16 -18 143 20 45 13 93
24 106 24 60 0 318 85 333 111 7 11 -17 49 -30 48 -5 -1 -21 -7 -35 -15z"/>
<path d="M9536 5784 c-3 -9 -6 -37 -6 -63 0 -51 15 -72 58 -86 38 -11 136
-110 166 -167 28 -55 78 -104 110 -110 35 -6 27 18 -25 73 -49 52 -87 121
-131 237 -11 29 -27 56 -36 60 -10 3 -39 21 -66 39 -55 38 -61 39 -70 17z"/>
<path d="M8285 5706 c-28 -18 -88 -68 -135 -111 -47 -42 -110 -96 -140 -118
-30 -22 -49 -42 -43 -44 16 -6 64 20 87 46 11 12 63 45 115 74 99 54 219 156
207 176 -12 19 -40 12 -91 -23z"/>
<path d="M3591 5709 c-103 -13 -99 -25 15 -39 132 -16 344 -17 382 -1 42 18
41 28 -5 40 -44 13 -298 12 -392 0z"/>
<path d="M5400 5525 c-79 -25 -180 -103 -232 -181 -26 -38 -64 -84 -85 -102
-42 -38 -123 -82 -149 -82 -32 0 -250 -52 -324 -77 -41 -14 -103 -41 -138 -59
-35 -19 -70 -34 -77 -34 -7 0 -26 -10 -42 -23 -15 -12 -54 -31 -85 -41 -31
-10 -73 -32 -92 -48 -100 -82 27 -150 179 -98 52 18 219 50 415 81 73 11 132
6 163 -16 31 -22 99 -19 130 5 14 12 67 69 117 128 50 59 110 129 133 156 90
106 167 224 167 258 0 8 16 33 36 57 20 23 35 43 33 44 -98 53 -87 51 -149 32z"/>
<path d="M1760 5393 c-49 -9 -176 -43 -270 -73 -52 -16 -108 -30 -123 -30 -16
0 -40 -9 -54 -19 -13 -11 -49 -25 -79 -32 -68 -15 -82 -6 -65 42 6 18 10 34 8
35 -2 2 -18 -17 -36 -42 -24 -35 -47 -53 -97 -75 -66 -30 -78 -51 -33 -57 13
-2 30 -9 36 -14 9 -7 18 -4 31 12 27 33 162 76 364 115 202 39 281 58 353 85
74 27 105 42 105 52 0 8 -94 9 -140 1z"/>
<path d="M18023 5362 c-15 -10 -52 -91 -53 -115 0 -56 63 -107 134 -107 91 0
125 131 54 208 -17 17 -32 22 -72 22 -28 0 -56 -4 -63 -8z"/>
<path d="M4556 5249 c-22 -5 -44 -13 -50 -18 -23 -18 -286 -100 -371 -116
-106 -20 -159 -40 -152 -57 5 -16 23 -15 147 6 121 20 179 37 260 73 36 16 94
37 130 47 36 9 88 30 115 46 l50 30 -45 -1 c-25 -1 -63 -5 -84 -10z"/>
<path d="M3413 5187 c-18 -7 -33 -16 -34 -22 -3 -19 83 -55 132 -55 104 0 131
40 49 72 -52 20 -102 21 -147 5z"/>
<path d="M5960 4914 c-103 -31 -218 -81 -302 -131 -35 -21 -84 -47 -110 -57
-26 -9 -50 -22 -53 -27 -4 -5 -16 -9 -28 -9 -12 0 -34 -11 -48 -24 -34 -32
-113 -71 -169 -85 -25 -6 -63 -20 -85 -31 -22 -10 -80 -31 -129 -45 -100 -30
-166 -68 -166 -96 0 -39 95 -14 235 62 65 35 192 89 350 149 82 31 212 65 330
86 11 2 30 12 42 23 28 26 115 81 178 114 28 14 64 37 80 51 17 14 33 26 38
26 4 0 7 5 7 10 0 18 -82 10 -170 -16z"/>
<path d="M7555 4510 c-3 -5 -51 -33 -106 -61 -73 -37 -104 -59 -115 -81 -8
-16 -46 -62 -84 -101 -37 -40 -83 -91 -101 -114 -78 -96 -128 -162 -169 -222
-55 -82 -135 -160 -202 -196 -29 -15 -83 -49 -119 -75 -36 -26 -79 -55 -95
-63 -45 -24 -152 -132 -160 -161 -7 -29 21 -60 65 -72 55 -15 199 92 363 268
120 128 202 190 357 268 153 76 228 129 322 227 100 104 147 169 165 231 24
77 20 89 -36 117 -27 14 -50 30 -50 35 0 13 -27 13 -35 0z"/>
<path d="M8078 4165 c-20 -7 -54 -25 -75 -39 -21 -14 -43 -26 -49 -26 -18 0
-64 -59 -64 -82 0 -16 4 -19 23 -14 12 4 46 13 76 21 30 8 61 21 70 29 9 7 26
17 38 20 26 8 83 71 83 91 0 19 -51 19 -102 0z"/>
<path d="M9980 4125 c-10 -13 -10 -19 4 -33 9 -10 16 -25 16 -32 0 -27 -71
-98 -164 -164 -53 -38 -99 -72 -101 -77 -3 -4 -33 -23 -66 -40 -61 -33 -119
-88 -119 -114 0 -23 40 -18 85 10 22 13 47 25 56 25 8 0 28 14 44 30 16 17 34
30 40 30 6 0 33 14 59 31 36 22 58 29 84 27 32 -3 36 0 44 28 11 44 40 66 183
141 71 38 131 74 133 81 6 20 -20 14 -60 -13 -67 -46 -143 -23 -184 56 -16 32
-35 37 -54 14z"/>
<path d="M8025 3962 c-68 -24 -121 -62 -250 -181 -60 -56 -135 -118 -165 -138
-66 -43 -120 -92 -120 -109 0 -21 30 -44 57 -44 14 0 91 31 172 69 80 38 157
72 171 76 66 20 233 135 282 194 29 34 49 81 46 104 -7 47 -101 61 -193 29z"/>
<path d="M15766 3694 c-35 -34 -32 -89 7 -124 28 -27 107 -28 130 -2 28 31 18
111 -17 134 -21 14 -104 9 -120 -8z"/>
<path d="M13152 3408 c-7 -7 -12 -19 -12 -27 0 -18 49 -71 66 -71 6 0 22 -9
36 -19 13 -11 44 -24 68 -31 25 -6 74 -29 110 -49 36 -21 85 -50 110 -64 25
-14 123 -80 218 -146 95 -67 178 -121 185 -121 7 0 22 6 32 14 17 12 17 15
-14 54 -18 22 -43 43 -56 46 -12 3 -47 22 -76 42 -30 20 -90 54 -134 75 -48
23 -107 62 -148 98 -37 34 -73 61 -80 61 -7 0 -54 27 -106 60 -145 94 -172
105 -199 78z"/>
<path d="M11128 3208 c-24 -18 -35 -116 -15 -142 14 -19 15 -19 51 3 39 25 49
48 44 107 -3 35 -6 39 -33 42 -16 2 -38 -3 -47 -10z"/>
<path d="M15525 2931 c-83 -21 -185 -107 -185 -157 0 -29 90 -99 139 -108 139
-26 273 154 182 245 -31 30 -69 36 -136 20z"/>
<path d="M11645 1940 c-58 -116 -105 -220 -105 -231 0 -15 6 -20 23 -17 19 3
29 24 73 148 28 80 65 168 82 196 30 48 52 114 39 114 -4 0 -54 -95 -112 -210z"/>
<path d="M12558 1423 c-20 -46 -14 -199 11 -267 39 -108 69 -134 90 -75 13 38
14 198 2 251 -9 38 -65 118 -82 118 -5 0 -15 -12 -21 -27z"/>
<path d="M11119 1313 c-23 -27 -15 -108 15 -154 33 -48 62 -52 71 -8 10 43 -2
108 -25 147 -22 36 -41 40 -61 15z"/>
</g>
</svg>
