<?xml version="1.0" standalone="no"?>
<!DOCTYPE svg PUBLIC "-//W3C//DTD SVG 20010904//EN"
 "http://www.w3.org/TR/2001/REC-SVG-20010904/DTD/svg10.dtd">
<svg version="1.0" xmlns="http://www.w3.org/2000/svg"
 width="2000.000000pt" height="2000.000000pt" viewBox="0 0 2000.000000 2000.000000"
 preserveAspectRatio="xMidYMid meet">
<metadata>
Created by potrace 1.16, written by Peter Selinger 2001-2019
</metadata>
<g transform="translate(0.000000,2000.000000) scale(0.100000,-0.100000)"
fill="#000000" stroke="none">
<path d="M11415 17950 c-23 -11 -48 -33 -58 -49 -34 -57 -11 -191 33 -191 21
0 87 70 100 106 21 53 6 154 -22 154 -7 0 -31 -9 -53 -20z"/>
<path d="M14610 17338 c-51 -54 -87 -175 -75 -251 8 -47 43 -117 59 -117 16 0
51 59 70 114 21 61 21 184 0 236 -19 46 -25 48 -54 18z"/>
<path d="M12415 17265 c-78 -28 -134 -121 -107 -180 7 -15 31 -31 69 -45 153
-57 245 -49 324 30 82 82 74 129 -31 183 -46 23 -65 27 -134 27 -45 -1 -99 -7
-121 -15z"/>
<path d="M8701 17223 c-21 -41 -33 -138 -22 -180 20 -73 88 -106 131 -63 46
46 8 203 -59 243 -36 21 -38 21 -50 0z"/>
<path d="M14620 16443 c0 -27 -15 -141 -34 -253 -19 -113 -32 -208 -28 -211 4
-4 26 -10 50 -14 41 -7 42 -6 42 22 0 15 9 74 20 131 35 181 22 315 -36 362
-12 11 -14 5 -14 -37z"/>
<path d="M16740 16273 c-78 -29 -105 -163 -32 -163 15 0 35 6 44 13 29 22 58
81 58 120 0 34 -2 37 -27 36 -16 0 -35 -3 -43 -6z"/>
<path d="M9800 16048 c-62 -32 -85 -76 -84 -158 1 -140 81 -289 188 -350 80
-46 112 -42 185 25 110 103 140 213 85 323 -69 139 -258 220 -374 160z"/>
<path d="M8858 15978 c-16 -5 -28 -16 -28 -23 0 -24 69 -132 101 -159 38 -33
64 -33 85 -1 22 34 11 86 -29 132 -25 29 -85 66 -99 62 -2 0 -15 -5 -30 -11z"/>
<path d="M14647 15898 c-28 -161 -48 -289 -58 -373 -14 -123 -26 -150 -95
-215 -70 -66 -149 -102 -315 -144 -74 -19 -153 -41 -175 -51 -39 -15 -42 -19
-48 -64 -8 -64 -50 -119 -128 -172 -35 -23 -73 -51 -86 -63 -20 -17 -34 -20
-95 -18 -63 3 -87 -2 -187 -37 -63 -23 -127 -41 -142 -41 -23 0 -28 -4 -28
-25 0 -18 -17 -42 -54 -78 -66 -64 -82 -95 -97 -186 -14 -81 -3 -181 32 -311
l20 -75 70 -34 c42 -20 90 -54 123 -87 l54 -54 85 0 c94 0 234 31 328 73 51
22 60 31 90 88 48 89 114 154 177 172 l50 15 41 -38 c41 -39 91 -60 143 -60
22 0 36 -12 69 -57 110 -148 142 -284 95 -397 -11 -26 -8 -36 27 -103 28 -53
45 -75 63 -79 14 -4 28 -3 32 1 4 3 6 40 4 80 -3 86 14 131 54 141 41 11 51
-9 31 -63 -16 -42 -16 -48 -2 -62 13 -13 20 -13 67 2 47 15 54 15 76 1 13 -9
35 -41 49 -72 13 -31 33 -66 44 -78 18 -19 22 -20 82 -7 118 24 213 12 292
-38 l48 -30 47 51 48 52 30 -16 c16 -8 43 -27 60 -41 l30 -25 7 32 c13 61 50
104 120 139 56 27 78 32 140 33 84 1 88 5 53 65 l-22 39 65 70 c99 107 149
229 134 328 -5 35 -3 44 9 44 8 0 17 -14 21 -32 4 -18 13 -36 19 -40 17 -11
75 -9 99 3 36 19 87 72 87 91 0 32 -44 51 -103 44 -69 -9 -94 10 -143 110 -42
85 -49 160 -21 226 l16 37 -70 32 c-44 21 -85 49 -113 79 -61 65 -67 103 -32
191 6 13 -1 16 -36 17 -24 1 -63 4 -88 7 -25 3 -61 1 -80 -5 -46 -13 -76 8
-99 70 -20 56 -43 61 -105 25 -30 -18 -56 -25 -78 -23 -29 3 -33 7 -36 36 -4
39 -9 39 -109 7 -88 -28 -159 -32 -189 -11 -12 8 -28 34 -37 58 -15 39 -20 43
-51 44 -23 0 -55 14 -98 43 -64 43 -91 48 -142 26 -18 -8 -19 -3 -10 146 5 85
9 228 9 319 0 147 -3 173 -23 233 -13 37 -27 67 -32 67 -4 0 -10 -15 -13 -32z"/>
<path d="M11051 15895 c-79 -22 -137 -50 -224 -107 -55 -36 -74 -54 -65 -59
29 -19 143 -9 257 22 96 26 129 30 190 27 73 -5 73 -5 92 26 28 47 24 62 -23
81 -60 24 -162 28 -227 10z"/>
<path d="M13874 15661 c-47 -29 -77 -99 -72 -167 5 -63 27 -98 77 -125 40 -21
52 -17 117 43 48 44 84 110 84 152 0 87 -125 146 -206 97z"/>
<path d="M11228 15643 c-14 -16 -42 -59 -61 -98 -19 -38 -51 -85 -71 -104 -33
-32 -41 -35 -114 -39 -138 -8 -242 40 -307 140 -20 31 -37 47 -51 47 -37 1
-45 -20 -42 -122 3 -86 1 -98 -18 -117 -11 -11 -37 -23 -58 -27 -37 -6 -38 -5
-26 16 6 13 9 25 6 28 -7 7 -104 -16 -138 -33 -21 -11 -48 -12 -135 -3 -116
11 -198 6 -280 -17 -64 -18 -83 -36 -83 -79 0 -19 -9 -49 -19 -67 -11 -18 -23
-51 -27 -73 -3 -22 -13 -47 -20 -55 -7 -9 -22 -53 -33 -98 -14 -58 -29 -94
-52 -123 l-32 -40 -18 31 c-12 19 -38 39 -67 51 -57 25 -86 50 -119 106 l-25
43 26 31 c33 39 33 74 1 122 -14 20 -28 37 -30 37 -3 0 -23 -16 -45 -36 -44
-40 -53 -78 -20 -89 28 -9 60 -53 60 -85 0 -46 -21 -91 -47 -101 -42 -16 -73
8 -97 76 -23 66 -67 105 -118 105 -45 0 -64 -15 -99 -80 -26 -49 -43 -66 -95
-99 -53 -33 -68 -49 -85 -88 -20 -46 -20 -50 -4 -109 22 -81 17 -115 -17 -132
-16 -7 -32 -21 -38 -31 -5 -10 -22 -21 -37 -24 -36 -8 -139 -93 -135 -112 2
-9 -11 -23 -27 -33 -17 -9 -36 -29 -42 -44 -20 -48 -92 -118 -122 -118 -34 0
-77 20 -77 36 0 6 -11 15 -25 18 -33 8 -49 39 -35 67 21 38 -2 179 -29 179
-14 0 -79 -76 -100 -117 -32 -63 -55 -78 -124 -79 -35 0 -79 -8 -101 -18 -81
-37 -135 13 -121 113 7 54 -6 95 -34 110 -50 27 -72 -22 -48 -106 l15 -55 -31
-43 c-18 -23 -46 -62 -63 -87 -39 -56 -117 -98 -183 -98 -42 0 -50 5 -101 54
-30 30 -67 58 -81 61 -29 7 -25 16 -80 -143 -15 -46 -37 -98 -47 -115 -19 -32
-46 -103 -47 -122 -1 -29 -42 -62 -83 -67 -25 -4 -57 -18 -79 -35 -19 -15 -47
-35 -62 -44 -36 -21 -40 -68 -9 -109 20 -27 23 -46 26 -135 4 -124 -2 -141
-60 -150 -62 -10 -94 -30 -128 -77 -37 -51 -37 -59 -1 -86 34 -24 47 -78 32
-129 -9 -30 -6 -35 30 -68 l39 -35 -37 0 c-41 0 -127 -44 -243 -126 -143 -100
-234 -196 -315 -329 -31 -53 -40 -61 -73 -65 -32 -4 -39 -10 -48 -40 -11 -33
-10 -36 15 -52 14 -10 26 -22 25 -28 -1 -5 -2 -23 -2 -40 -2 -30 -2 -30 -64
-30 -58 -1 -61 -2 -43 -16 11 -8 36 -20 56 -26 35 -10 37 -14 43 -61 4 -27 10
-63 13 -78 5 -25 2 -29 -15 -29 -28 0 -56 -53 -49 -90 5 -23 0 -31 -34 -53
-38 -25 -41 -25 -80 -12 -71 26 -79 22 -79 -35 0 -88 -46 -139 -98 -111 -30
16 -42 13 -42 -9 0 -17 -7 -20 -44 -20 -57 0 -86 -23 -97 -80 -8 -42 -6 -47
22 -72 16 -16 36 -28 44 -28 18 0 18 -7 4 -49 l-11 -31 -48 68 c-53 75 -105
125 -156 149 -29 14 -40 15 -88 3 -65 -15 -138 -9 -192 17 -35 17 -39 22 -36
52 3 35 -12 61 -33 61 -7 0 -29 -26 -50 -58 -40 -64 -108 -116 -137 -106 -48
15 -128 -35 -128 -81 0 -25 -68 -101 -122 -136 -62 -39 -88 -128 -53 -175 8
-10 15 -36 15 -57 0 -31 -6 -44 -30 -65 -37 -33 -38 -49 0 -109 22 -35 30 -62
31 -100 l2 -52 123 -125 c177 -181 266 -233 349 -206 31 10 39 9 54 -4 22 -20
55 -21 72 0 7 8 26 22 43 31 26 14 39 14 100 2 69 -13 69 -13 85 12 30 45 63
69 96 69 47 0 88 57 63 87 -10 12 -1 25 50 71 59 55 92 108 92 152 0 11 5 20
11 20 24 0 121 -54 197 -109 l82 -59 64 5 c75 6 116 -1 116 -22 0 -18 -37 -38
-57 -31 -57 22 -162 -167 -163 -293 0 -61 18 -131 36 -138 8 -3 6 -20 -8 -66
-22 -71 -23 -73 -41 -59 -10 8 -28 7 -68 -3 -52 -14 -109 -12 -109 5 0 4 -17
12 -37 18 -21 6 -65 22 -98 36 -33 14 -75 26 -92 26 -31 0 -33 -2 -33 -38 0
-32 5 -40 34 -56 28 -15 46 -17 90 -12 31 4 62 3 73 -3 10 -5 35 -13 56 -16
20 -3 37 -10 37 -14 0 -5 23 -14 50 -21 28 -7 52 -16 55 -20 3 -4 14 -6 24 -3
30 8 118 -45 143 -85 12 -19 25 -57 29 -83 8 -52 32 -110 73 -176 l26 -41 -31
-16 c-19 -10 -58 -16 -96 -16 -50 0 -67 -4 -83 -20 -11 -11 -27 -20 -35 -20
-21 0 -75 -41 -75 -57 0 -21 -59 -44 -128 -51 -61 -7 -66 -9 -73 -35 l-8 -28
102 5 c149 7 150 7 156 -3 4 -5 43 -5 95 0 99 10 111 5 98 -41 -4 -14 -7 -55
-6 -91 1 -86 38 -164 110 -236 55 -54 110 -80 217 -103 48 -11 57 -17 57 -35
0 -41 31 -113 67 -155 30 -35 41 -41 65 -38 28 4 29 3 22 -26 -5 -25 -2 -34
21 -51 25 -21 26 -24 15 -64 -18 -69 9 -88 29 -20 l12 41 29 -27 29 -27 28 19
c15 11 38 23 49 27 37 11 91 -23 126 -78 45 -72 86 -114 121 -122 29 -6 29 -7
23 -55 -10 -71 -11 -73 -72 -98 -72 -30 -134 -90 -134 -128 0 -35 -29 -65 -85
-89 -30 -14 -72 -18 -170 -20 -140 -2 -145 -4 -131 -58 7 -30 40 -43 127 -51
144 -12 171 -21 207 -69 17 -24 32 -50 32 -58 0 -28 -72 -159 -109 -197 -27
-29 -47 -40 -81 -46 -64 -10 -90 -29 -90 -66 0 -41 16 -70 35 -62 9 3 30 0 48
-7 39 -16 147 -82 147 -92 0 -3 -12 -20 -26 -37 -33 -39 -72 -41 -181 -7 -102
32 -160 39 -202 23 -63 -22 -43 -47 37 -47 36 0 72 -15 72 -30 0 -5 -14 -23
-32 -39 -18 -17 -30 -33 -26 -36 3 -4 44 -12 89 -19 87 -14 133 -28 143 -44 7
-12 -37 -21 -139 -29 -88 -6 -109 -17 -198 -102 -59 -56 -105 -130 -146 -234
-34 -84 -81 -181 -104 -211 -13 -18 -16 -17 -57 28 -24 26 -85 78 -135 115
-50 38 -112 87 -139 110 -54 46 -55 47 -98 25 -101 -52 -131 -57 -408 -64
-212 -5 -277 -10 -327 -24 -61 -18 -66 -22 -162 -135 -118 -138 -227 -252
-335 -349 l-79 -72 -13 -132 c-18 -190 -18 -504 1 -614 18 -101 47 -197 81
-266 l24 -47 -26 -17 c-14 -10 -39 -41 -55 -70 -41 -71 -47 -76 -94 -63 -85
24 -175 -4 -369 -116 -74 -42 -164 -87 -202 -100 -38 -13 -74 -32 -81 -42 -6
-10 -21 -56 -32 -102 -29 -114 -45 -140 -115 -176 l-58 -30 5 -280 c6 -310 17
-389 76 -540 58 -147 123 -227 255 -308 45 -28 86 -91 86 -134 0 -12 8 -24 18
-27 42 -14 136 -27 286 -41 277 -26 397 -58 521 -136 l49 -31 18 24 c19 24 19
28 2 173 -6 55 6 73 41 57 101 -46 187 20 320 246 43 73 84 132 92 132 7 0 40
-11 73 -25 69 -29 106 -31 138 -9 l22 15 -25 33 c-13 17 -37 59 -52 91 -25 53
-28 71 -28 160 0 92 3 105 33 169 27 59 30 71 19 85 -7 9 -39 46 -70 82 -31
36 -57 72 -57 78 0 24 34 76 95 146 68 78 83 108 65 129 -20 25 -56 26 -115 6
-32 -11 -66 -20 -76 -20 -25 0 -79 48 -79 70 0 26 72 100 96 100 11 0 27 9 36
19 9 11 42 25 73 32 107 24 242 -17 337 -101 l45 -39 44 46 c67 68 260 233
274 233 7 0 18 -6 24 -14 18 -22 96 -39 143 -32 87 13 151 76 170 167 11 52
10 57 -24 128 l-36 73 24 52 c24 52 54 157 54 187 0 24 23 30 99 23 62 -6 69
-5 99 21 l32 27 -48 38 c-51 41 -94 96 -111 143 -19 49 -14 145 9 174 13 17
20 42 21 72 0 31 13 74 37 129 l38 83 64 3 c37 2 108 17 165 35 76 25 113 31
152 28 29 -2 56 -6 59 -10 4 -3 -7 -23 -23 -44 -17 -21 -33 -56 -37 -80 -5
-36 -3 -44 16 -57 21 -15 24 -14 48 9 14 14 33 25 42 25 8 0 20 10 26 23 9 17
11 2 9 -78 -3 -156 4 -165 158 -198 50 -10 61 -16 63 -35 3 -18 10 -22 37 -22
32 0 34 -2 44 -50 6 -28 11 -52 11 -54 0 -2 -29 -6 -64 -8 -104 -9 -165 -62
-152 -132 10 -50 38 -69 112 -77 39 -4 70 -13 77 -22 12 -15 131 -58 215 -78
84 -20 172 -138 194 -260 l10 -59 48 0 c149 0 315 -109 371 -246 l23 -54 81 0
c149 0 253 -44 302 -127 38 -65 52 -122 68 -287 18 -175 30 -242 56 -311 12
-32 15 -53 9 -59 -14 -14 -12 -46 3 -46 7 0 17 4 22 9 6 6 19 -3 34 -23 31
-41 96 -90 139 -104 18 -6 105 -12 193 -13 l160 -1 42 38 c113 103 195 240
217 364 6 36 13 74 16 86 3 18 13 22 61 27 88 9 164 40 321 129 198 112 249
132 342 132 94 0 147 -24 236 -107 l63 -59 43 41 c41 38 43 42 42 98 0 32 -4
85 -8 118 -7 54 -6 63 16 95 18 26 33 36 63 41 22 4 65 19 95 33 110 52 160
27 204 -100 30 -90 43 -111 84 -130 l33 -15 65 56 c36 32 63 60 61 64 -162
296 -135 501 66 501 62 0 66 -5 87 -112 12 -63 35 -88 81 -88 21 0 35 15 85
91 63 98 107 143 162 166 31 13 34 17 28 45 -7 34 -42 83 -130 183 l-60 66 19
31 c10 17 24 61 32 96 7 36 19 72 25 80 7 7 46 31 87 52 42 21 88 51 103 67
24 25 26 32 18 68 -5 22 -10 70 -10 107 0 66 0 67 26 64 15 -2 31 -10 36 -19
14 -26 37 -21 144 32 86 42 110 49 179 53 46 3 81 10 83 17 2 6 22 11 44 11
21 0 45 6 52 13 13 12 13 82 1 124 -6 18 3 28 57 64 34 23 75 52 90 64 24 20
31 21 83 12 45 -7 71 -6 123 7 37 9 70 20 74 24 7 7 -108 106 -133 114 -9 3
-8 17 4 53 9 26 24 108 32 182 20 166 45 268 90 359 56 114 138 185 232 200
34 5 41 11 55 47 8 23 39 95 68 159 l51 118 -34 42 c-18 24 -62 85 -97 136
-66 98 -110 142 -140 142 -32 0 -50 12 -66 42 -14 28 -14 31 4 43 10 8 43 49
72 92 53 79 127 163 142 163 5 0 23 -17 41 -37 17 -21 57 -65 88 -98 46 -49
55 -63 46 -76 -8 -13 -6 -24 6 -43 14 -21 25 -26 60 -26 27 0 63 -11 101 -30
65 -33 106 -39 106 -15 0 23 -37 92 -85 160 -24 33 -129 144 -235 248 -160
156 -190 191 -185 208 5 16 -3 31 -34 63 -31 32 -43 53 -50 91 -5 28 -8 52 -6
54 2 2 26 -3 54 -10 73 -18 144 -2 298 69 150 70 189 82 260 82 l52 0 74 -92
c275 -342 669 -629 983 -716 l71 -20 22 147 c12 80 24 161 26 180 6 51 -12
177 -33 224 l-19 42 -110 28 c-184 45 -219 37 -282 -71 -62 -106 -66 -106
-181 -28 -111 75 -246 190 -308 262 -121 140 -144 317 -48 367 21 11 61 22 88
25 49 5 50 4 39 -17 -12 -22 -25 -128 -25 -216 -1 -38 5 -59 23 -84 l25 -34
57 60 c59 63 82 112 94 204 5 36 3 49 -11 63 -16 17 -16 19 6 39 14 14 21 17
18 7 -3 -8 0 -26 7 -40 7 -14 18 -48 24 -76 7 -27 21 -63 31 -79 l19 -29 17
39 c22 49 25 231 6 286 -12 35 -11 38 44 125 112 177 181 344 209 498 8 44 23
99 35 121 26 51 25 71 -5 99 -14 13 -33 51 -45 88 -11 35 -37 91 -58 124 -72
112 -147 167 -481 355 -132 74 -249 176 -287 250 -13 27 -20 51 -14 54 5 3 58
4 117 3 140 -3 180 14 200 83 13 46 54 92 147 163 40 30 70 85 60 110 -4 10 5
25 23 40 15 13 36 37 45 54 17 29 17 30 -1 35 -27 7 -97 -27 -116 -57 -27 -41
-72 -62 -180 -85 -118 -25 -200 -63 -273 -127 l-53 -46 -157 78 c-175 88 -175
88 -147 173 17 51 45 71 102 71 16 0 30 11 43 33 26 42 25 59 -5 95 -14 17
-25 34 -25 38 0 5 20 27 45 50 25 22 45 48 45 57 0 8 -25 37 -56 63 -31 27
-60 58 -64 69 -13 34 11 67 67 91 29 13 60 35 69 48 13 20 20 24 34 16 30 -16
48 -12 65 14 12 18 13 30 5 50 -8 23 -15 27 -42 24 -25 -2 -34 -9 -38 -28 -6
-24 -6 -24 -19 7 -16 39 -45 66 -96 90 -52 24 -55 50 -16 143 17 40 31 73 31
75 0 2 -39 52 -87 112 -94 118 -121 168 -130 242 -5 46 -8 49 -43 60 -20 6
-49 20 -64 32 -23 18 -26 27 -26 85 0 62 1 65 33 84 17 11 47 23 65 26 l32 6
0 63 c0 49 -5 69 -23 96 -23 33 -36 38 -68 25 -23 -10 -67 30 -74 67 -4 22 1
51 14 87 25 65 24 60 8 60 -18 0 -60 47 -86 95 -12 22 -25 47 -31 55 -5 8 -12
32 -15 53 -3 21 -15 46 -26 55 -28 24 -23 44 16 70 30 19 34 26 25 41 -9 17
-14 18 -42 8 -18 -7 -39 -20 -46 -29 -10 -13 -18 -15 -44 -7 -71 20 -131 6
-172 -40 -33 -37 -48 -26 -25 18 11 22 21 59 22 83 2 42 1 43 -27 41 -15 -1
-49 -14 -75 -28 -25 -14 -79 -42 -120 -62 -69 -34 -74 -35 -87 -19 -18 26 -34
105 -27 141 3 17 13 40 21 53 33 50 -18 181 -100 258 -27 25 -48 54 -48 65 0
35 28 76 85 125 71 60 82 80 60 104 -28 31 -61 32 -139 5 -91 -31 -112 -27
-165 30 -50 54 -56 79 -41 159 10 56 10 69 -5 100 -10 20 -18 36 -20 36 -1 0
-19 -7 -38 -15 -73 -30 -160 -12 -243 52 -20 15 -82 77 -136 138 -110 121
-200 197 -258 214 -47 14 -100 14 -136 1 l-27 -11 7 48 c24 175 20 199 -37
233 -42 26 -48 25 -79 -7z m-4334 -4163 c28 -70 16 -91 -39 -70 -29 11 -29 11
-11 -9 19 -20 18 -21 -8 -42 -17 -14 -24 -24 -17 -29 22 -13 -8 -66 -50 -89
-22 -13 -43 -20 -46 -17 -14 13 -12 73 2 123 17 57 49 88 80 77 15 -6 17 -3
12 16 -8 30 18 80 42 80 13 0 24 -13 35 -40z m5526 -3083 c0 -2 14 -43 30 -91
24 -70 28 -91 19 -108 -9 -16 -7 -26 10 -49 31 -42 6 -48 -36 -8 -83 79 -143
208 -113 244 10 13 90 23 90 12z m394 -449 c-11 -37 -42 -93 -57 -107 -8 -6
-29 -16 -45 -21 -26 -7 -39 -3 -84 26 -63 41 -72 30 -34 -43 32 -59 33 -103 4
-154 -19 -35 -21 -45 -11 -80 9 -36 8 -46 -14 -86 -22 -39 -54 -63 -84 -63 -5
0 -27 16 -48 35 -47 43 -132 76 -139 55 -3 -8 -15 -24 -28 -37 -27 -27 -98
-32 -143 -8 -31 16 -66 78 -57 102 3 8 3 39 0 70 -5 42 -15 64 -40 95 -19 22
-34 46 -34 54 0 23 109 166 123 161 7 -2 13 -22 15 -45 2 -23 7 -42 13 -42 5
0 9 5 9 10 0 28 22 -1 80 -106 97 -176 164 -234 269 -234 l51 0 0 64 c0 35 -7
100 -15 143 -22 114 -20 175 6 199 18 16 35 19 121 17 55 -2 108 2 117 7 26
15 33 12 25 -12z"/>
<path d="M8920 15261 c-27 -51 -6 -99 64 -149 53 -39 60 -39 74 -7 28 60 -2
135 -63 161 -46 19 -62 18 -75 -5z"/>
<path d="M8389 15138 c-41 -9 -49 -15 -64 -48 -15 -33 -15 -44 -5 -77 15 -47
37 -73 62 -73 10 0 34 -6 52 -14 33 -14 34 -14 65 27 44 58 41 85 -16 145
l-48 49 -46 -9z"/>
<path d="M8015 15028 c-66 -24 -124 -69 -144 -112 -12 -23 -21 -49 -21 -57 -1
-8 -7 0 -14 17 -22 51 -96 88 -96 49 0 -8 -10 -25 -21 -36 -17 -17 -20 -30
-17 -68 3 -26 13 -65 24 -87 27 -56 51 -52 91 16 18 30 33 46 33 36 0 -29 31
-87 67 -122 40 -41 94 -69 148 -78 22 -4 50 -14 63 -22 21 -14 23 -13 43 20
11 19 35 46 53 60 46 35 76 100 76 165 0 61 -18 101 -69 154 -66 70 -140 92
-216 65z"/>
<path d="M6922 14872 c-37 -35 -48 -86 -32 -150 23 -94 93 -128 168 -82 43 27
56 61 45 130 -8 51 -11 56 -62 92 -30 21 -62 38 -72 38 -9 0 -31 -13 -47 -28z"/>
<path d="M12747 14738 c-18 -19 -38 -47 -46 -62 -13 -24 -13 -28 6 -47 19 -19
22 -20 49 -6 16 9 47 34 69 56 39 41 39 41 20 60 -38 36 -63 36 -98 -1z"/>
<path d="M4260 14701 c-22 -6 -25 -12 -23 -48 2 -53 53 -153 103 -203 43 -43
96 -60 136 -41 30 13 30 31 0 104 -57 137 -139 209 -216 188z"/>
<path d="M5602 14080 c-25 -15 -32 -25 -27 -38 4 -9 10 -25 12 -35 6 -21 72
-57 103 -57 41 0 60 18 60 59 0 82 -73 117 -148 71z"/>
<path d="M5889 14049 c-18 -18 -20 -29 -15 -67 3 -25 15 -60 25 -78 11 -18 17
-42 14 -53 -4 -15 -1 -21 11 -21 14 0 16 -6 10 -35 -8 -42 33 -134 69 -157 29
-19 69 -29 83 -20 14 9 17 92 3 108 -6 7 -8 17 -5 22 3 6 -1 26 -9 47 -9 20
-17 61 -19 91 -3 54 -4 56 -53 89 -28 19 -55 47 -63 64 -15 37 -23 38 -51 10z"/>
<path d="M14183 13553 c-16 -3 -23 -12 -23 -27 0 -13 -7 -29 -15 -36 -22 -19
-19 -33 19 -69 33 -32 37 -33 66 -21 39 16 60 46 60 86 0 49 -48 79 -107 67z"/>
<path d="M3560 13323 c-28 -11 -100 -66 -100 -78 0 -13 67 -78 97 -94 35 -18
50 -13 72 23 25 39 26 74 7 121 -15 35 -36 43 -76 28z"/>
<path d="M13987 13189 c-29 -17 -56 -81 -45 -105 19 -42 78 -55 128 -29 54 28
69 100 28 129 -25 18 -84 21 -111 5z"/>
<path d="M15382 13174 c-28 -19 -52 -65 -52 -98 0 -47 68 -62 114 -25 50 39
74 120 40 133 -29 11 -79 6 -102 -10z"/>
<path d="M13630 12953 c-8 -3 -27 -15 -42 -25 -25 -17 -28 -25 -28 -79 0 -54
3 -64 29 -90 17 -17 40 -29 55 -29 35 0 93 54 107 99 24 79 -47 151 -121 124z"/>
<path d="M5474 12108 c15 -78 82 -123 209 -139 57 -8 90 -8 102 -1 16 9 13 15
-29 55 -65 64 -174 117 -239 117 l-49 0 6 -32z"/>
<path d="M14375 12001 l-39 -6 26 -17 c34 -23 99 -37 164 -38 29 0 66 -6 83
-13 28 -12 30 -15 17 -27 -21 -17 -20 -32 4 -58 25 -27 49 -19 57 19 6 32 8
32 73 30 61 -2 77 10 62 43 -7 15 -17 23 -25 20 -8 -3 -20 2 -27 11 -8 9 -29
15 -60 15 -26 0 -91 7 -146 15 -103 16 -123 16 -189 6z"/>
<path d="M4820 11871 c-56 -5 -88 -14 -121 -33 -58 -34 -70 -49 -76 -96 -7
-49 1 -55 91 -63 62 -6 73 -4 103 17 19 13 40 21 47 18 8 -3 24 16 41 49 26
49 27 57 16 86 -8 17 -16 30 -20 29 -3 0 -40 -4 -81 -7z"/>
<path d="M3940 11663 c0 -26 50 -94 92 -126 64 -48 171 -64 250 -38 53 17 64
35 44 66 -40 61 -149 101 -302 112 -79 6 -84 5 -84 -14z"/>
<path d="M16860 10756 c-102 -29 -190 -99 -190 -150 0 -22 1 -23 146 -25 135
-1 150 0 198 22 53 25 129 93 123 111 -13 42 -186 69 -277 42z"/>
<path d="M4563 10623 c-25 -5 -33 -23 -35 -78 -1 -30 4 -43 27 -62 40 -35 81
-28 108 19 20 33 20 40 8 75 -8 21 -19 41 -25 45 -11 8 -45 8 -83 1z"/>
<path d="M16128 10550 c-29 -18 -21 -37 25 -64 55 -32 247 -98 265 -91 24 9
10 58 -22 75 -16 8 -37 23 -47 32 -36 34 -190 67 -221 48z"/>
<path d="M3604 10301 c-60 -36 -92 -150 -62 -216 15 -34 56 -55 107 -55 40 0
165 40 183 58 12 12 -30 109 -69 160 -29 39 -79 72 -108 72 -11 0 -34 -9 -51
-19z"/>
<path d="M2855 10236 c-71 -33 -72 -37 -13 -92 62 -59 131 -89 181 -80 41 8
127 61 127 78 -1 17 -75 73 -123 93 -45 18 -132 19 -172 1z"/>
<path d="M4727 10135 c-82 -35 -99 -49 -123 -102 -18 -42 -18 -73 2 -102 15
-21 23 -23 75 -19 45 3 70 12 102 34 41 28 87 100 87 135 0 19 -40 81 -55 85
-5 1 -45 -13 -88 -31z"/>
<path d="M15820 10119 c-15 -29 -18 -44 -11 -53 6 -7 8 -16 4 -19 -3 -4 2 -7
12 -7 10 0 26 -7 36 -16 17 -15 20 -14 48 6 58 40 31 130 -39 130 -25 0 -33
-7 -50 -41z"/>
<path d="M5420 9173 c0 -5 -25 -21 -56 -37 -100 -52 -143 -124 -163 -271 -10
-66 -9 -71 13 -95 12 -14 33 -41 45 -61 12 -21 32 -44 46 -53 59 -38 96 -55
111 -49 9 3 19 0 24 -6 8 -14 111 9 164 36 44 23 126 103 126 124 0 10 7 22
15 26 19 11 22 131 5 193 -28 104 -77 159 -166 186 -50 15 -164 19 -164 7z"/>
<path d="M4877 9046 c-68 -25 -94 -59 -75 -101 9 -20 17 -25 32 -21 12 3 51 9
88 12 64 7 67 8 97 51 17 24 31 47 31 52 0 24 -112 28 -173 7z"/>
<path d="M4380 8678 c-59 -22 -110 -93 -110 -153 0 -45 11 -66 69 -133 37 -43
50 -52 68 -47 31 7 29 -9 -2 -23 -14 -6 -24 -15 -23 -19 0 -5 -2 -16 -7 -26
-23 -53 30 -140 97 -157 36 -10 43 -9 63 10 61 58 57 130 -10 187 l-44 37 39
17 c93 42 106 203 22 281 -30 29 -118 43 -162 26z"/>
<path d="M16594 8602 c-45 -29 -135 -120 -172 -173 -42 -63 -71 -139 -78 -208
-6 -54 -5 -57 19 -68 30 -14 71 -80 86 -140 17 -64 44 -79 154 -87 92 -6 95
-6 155 26 66 36 145 104 137 119 -4 5 14 67 39 139 44 125 45 132 35 187 -27
143 -105 208 -266 219 -66 5 -83 2 -109 -14z"/>
<path d="M15132 8524 c-38 -27 -55 -73 -55 -150 1 -129 35 -183 120 -191 65
-6 155 27 187 70 28 36 48 111 38 136 -15 35 -64 111 -73 111 -5 0 -19 10 -30
21 -19 19 -25 20 -59 9 -28 -9 -42 -9 -58 -1 -28 15 -43 14 -70 -5z"/>
<path d="M3098 8469 c-18 -7 -29 -20 -34 -42 -9 -42 30 -77 87 -77 33 0 41 4
49 26 15 38 12 53 -15 79 -26 27 -44 29 -87 14z"/>
<path d="M6815 8306 c-70 -39 -107 -86 -103 -131 3 -27 7 -30 43 -33 32 -2 47
3 77 28 42 35 113 144 103 160 -12 19 -60 9 -120 -24z"/>
<path d="M13956 8008 c-65 -63 -78 -100 -47 -131 30 -30 118 -31 158 -1 35 26
75 83 71 103 -3 12 -108 81 -124 81 -3 0 -29 -24 -58 -52z"/>
<path d="M14195 6566 c-9 -68 -3 -95 31 -135 19 -23 34 -31 58 -31 43 0 56 16
56 67 0 83 -37 135 -107 149 l-31 6 -7 -56z"/>
<path d="M15985 6553 c18 -96 111 -225 188 -262 63 -30 115 -28 165 9 23 17
42 34 42 39 0 14 -152 150 -210 189 -57 38 -120 62 -162 62 -29 0 -30 -1 -23
-37z"/>
<path d="M2912 6260 c-32 -13 -92 -63 -92 -77 0 -18 59 -63 84 -63 27 0 59 22
86 60 25 35 20 62 -16 78 -29 14 -31 14 -62 2z"/>
<path d="M4194 5757 c-32 -28 -36 -72 -10 -111 21 -33 46 -33 85 0 40 33 44
94 9 118 -31 22 -52 20 -84 -7z"/>
<path d="M13442 5144 c-35 -48 -36 -71 -3 -108 16 -18 83 -56 98 -56 4 0 23
23 42 50 27 41 32 56 27 83 -8 45 -31 64 -86 71 -44 6 -46 5 -78 -40z"/>
<path d="M10360 4384 c-85 -30 -120 -83 -120 -183 0 -50 5 -66 33 -107 45 -66
86 -87 162 -81 86 7 140 44 160 111 20 66 19 122 -4 171 -22 48 -44 69 -94 90
-45 19 -79 18 -137 -1z"/>
<path d="M13157 4350 c-40 -31 -87 -104 -87 -135 0 -42 26 -91 64 -120 30 -23
43 -27 78 -22 76 10 128 72 128 152 0 34 -7 49 -42 88 -53 59 -98 71 -141 37z"/>
<path d="M7624 4308 c-17 -13 -55 -44 -85 -69 -58 -50 -127 -89 -157 -89 -15
0 -17 -6 -14 -33 3 -23 -7 -60 -29 -112 -29 -71 -31 -81 -20 -114 31 -88 126
-191 207 -221 84 -32 129 -32 233 0 79 24 107 38 139 69 59 58 84 132 85 254
l1 98 -48 46 c-44 44 -47 49 -41 85 8 42 1 46 -53 27 -27 -9 -36 -7 -74 19
-39 27 -102 62 -111 62 -2 0 -17 -10 -33 -22z"/>
<path d="M11312 4072 c-8 -6 -14 -38 -17 -89 -3 -66 0 -85 16 -111 15 -26 25
-32 53 -32 18 0 47 -3 64 -6 26 -5 33 -2 56 32 43 64 31 145 -30 193 -28 22
-115 30 -142 13z"/>
<path d="M10841 3878 c-30 -31 -34 -53 -16 -87 21 -42 44 -52 89 -40 35 10 56
37 56 73 0 14 -78 76 -96 76 -7 0 -22 -10 -33 -22z"/>
<path d="M14991 3766 c-29 -34 60 -156 113 -156 13 0 34 8 47 19 l22 18 -21
30 c-58 82 -133 123 -161 89z"/>
<path d="M12730 3210 c-45 -10 -90 -36 -98 -58 -2 -6 15 -20 38 -32 36 -18 57
-20 178 -19 80 1 149 -3 165 -10 15 -6 49 -31 76 -56 l49 -46 7 40 c17 103
-96 179 -280 186 -49 2 -110 0 -135 -5z"/>
<path d="M10375 2838 c-44 -24 -56 -40 -42 -56 6 -8 19 -35 27 -59 l15 -45 60
-3 c78 -4 105 12 105 61 0 69 -41 114 -105 113 -22 0 -49 -5 -60 -11z"/>
<path d="M4293 2668 c-18 -13 -51 -47 -73 -75 l-42 -53 20 -27 c11 -16 34 -41
50 -57 28 -26 33 -27 66 -16 45 14 98 75 124 143 l21 52 -30 28 c-37 35 -91
37 -136 5z"/>
<path d="M8803 2178 c-58 -62 -68 -106 -31 -132 12 -9 32 -16 44 -16 31 0 119
62 118 83 -2 23 -65 95 -85 96 -8 1 -29 -14 -46 -31z"/>
<path d="M7042 1945 c-41 -18 -65 -69 -53 -112 20 -69 82 -156 106 -147 7 3
31 -4 54 -15 22 -12 44 -21 49 -21 15 0 94 85 113 122 10 21 19 48 19 60 0 37
-34 83 -76 103 -51 25 -167 31 -212 10z"/>
</g>
</svg>
