<?xml version="1.0" standalone="no"?>
<!DOCTYPE svg PUBLIC "-//W3C//DTD SVG 20010904//EN"
 "http://www.w3.org/TR/2001/REC-SVG-20010904/DTD/svg10.dtd">
<svg version="1.0" xmlns="http://www.w3.org/2000/svg"
 width="860.000000pt" height="925.000000pt" viewBox="0 0 860.000000 925.000000"
 preserveAspectRatio="xMidYMid meet">

<g transform="translate(0.000000,925.000000) scale(0.100000,-0.100000)"
fill="#000000" stroke="none">
<path d="M4555 8840 c-3 -5 -1 -10 4 -10 6 0 11 5 11 10 0 6 -2 10 -4 10 -3 0
-8 -4 -11 -10z"/>
<path d="M3747 7938 c-38 -90 -51 -128 -44 -128 7 0 89 201 84 206 -2 3 -20
-33 -40 -78z"/>
<path d="M3221 7881 c-12 -12 -21 -32 -21 -46 0 -14 -13 -54 -29 -88 -16 -34
-43 -103 -60 -154 -17 -51 -37 -100 -46 -110 -98 -112 -119 -155 -113 -228 3
-36 7 -42 44 -60 23 -11 48 -26 57 -33 11 -10 16 -10 19 -1 5 16 44 -5 59 -32
20 -38 -5 -64 -34 -34 -13 12 -15 11 -20 -15 -5 -24 -15 -32 -66 -51 -34 -12
-66 -28 -72 -35 -15 -18 -49 -18 -49 0 0 22 -17 28 -40 16 -22 -12 -27 -46 -8
-52 9 -3 4 -16 -15 -41 -30 -39 -63 -51 -53 -19 4 12 -7 36 -30 68 l-36 49 7
-49 c4 -27 13 -56 21 -64 28 -28 13 -65 -36 -90 -25 -13 -44 -27 -43 -32 7
-23 -28 -7 -42 20 -20 39 -20 57 0 40 22 -18 18 -3 -9 33 -13 18 -38 62 -56
99 -18 37 -38 69 -45 72 -7 2 -16 18 -20 35 -7 31 -21 48 -32 37 -3 -3 1 -22
10 -44 8 -21 18 -75 22 -120 7 -81 7 -81 -19 -93 -47 -22 -60 -55 -58 -145 1
-70 -1 -84 -18 -99 -11 -10 -20 -24 -20 -31 0 -22 -31 -45 -51 -39 -21 7 -23
2 -9 -24 13 -25 -19 -86 -75 -141 -43 -42 -45 -43 -64 -26 -23 21 -42 69 -32
83 3 5 14 14 25 20 11 6 20 24 22 46 4 46 30 97 49 97 8 0 15 9 15 20 0 13 5
18 15 14 25 -10 62 4 80 32 16 25 16 27 -7 51 -27 29 -73 55 -82 46 -3 -4 -6
-23 -6 -43 0 -31 -3 -36 -22 -36 -17 1 -23 -6 -29 -33 -11 -54 -48 -83 -108
-86 -48 -3 -53 -1 -66 26 -17 33 -54 46 -83 30 -16 -9 -36 -5 -94 17 l-73 28
-6 46 c-8 54 -43 138 -58 138 -15 0 -14 -22 5 -59 8 -17 18 -65 21 -107 6 -75
6 -76 -15 -69 -20 6 -22 3 -22 -37 0 -68 -15 -81 -106 -89 -70 -7 -82 -11
-102 -36 -12 -15 -25 -38 -28 -50 -8 -29 -23 -29 -93 1 -57 25 -185 66 -205
66 -6 0 -38 11 -71 25 -69 28 -123 32 -131 10 -4 -8 -1 -22 6 -30 17 -20 153
-63 240 -75 81 -11 177 -50 186 -75 8 -19 118 -84 197 -116 44 -17 70 -37 110
-83 28 -33 67 -74 85 -91 17 -17 32 -34 32 -38 0 -4 -14 -13 -30 -22 -18 -10
-30 -23 -30 -36 0 -57 -61 -85 -118 -55 -80 41 -321 3 -372 -59 -20 -24 10
-130 60 -212 22 -37 40 -72 40 -78 0 -20 59 -95 75 -95 8 0 19 -9 25 -20 16
-30 89 -80 117 -80 14 0 36 9 50 20 14 11 41 20 60 20 30 0 34 3 31 22 -5 33
29 36 43 4 18 -38 -1 -72 -44 -80 -19 -4 -56 -18 -83 -32 -40 -20 -60 -24
-114 -22 -36 2 -67 -1 -70 -7 -4 -9 20 -16 98 -31 18 -4 22 -11 22 -43 0 -36
2 -38 26 -33 30 6 44 -10 44 -51 0 -24 -7 -31 -42 -47 -24 -10 -78 -23 -121
-29 -94 -13 -122 -25 -83 -35 21 -5 26 -12 26 -36 0 -26 4 -30 28 -30 34 0 43
-7 35 -26 -6 -16 -34 -19 -49 -5 -17 18 -99 32 -204 34 -102 3 -153 16 -163
41 -3 8 27 11 99 11 85 0 106 3 121 17 13 14 15 23 7 45 -14 40 -54 41 -138 3
-80 -36 -95 -38 -196 -17 -108 23 -188 -1 -234 -71 -21 -33 -74 -56 -101 -45
-40 15 -1 -20 44 -40 34 -15 67 -20 131 -20 74 0 96 -4 167 -33 45 -19 95 -34
112 -34 20 0 32 -6 36 -19 6 -20 58 -31 147 -31 56 0 104 -21 113 -50 3 -11
-1 -53 -10 -94 -19 -83 -11 -125 39 -224 14 -28 26 -66 26 -84 -1 -46 -35
-119 -60 -125 -11 -3 -23 -16 -26 -29 -4 -15 -14 -24 -25 -24 -10 0 -26 -11
-35 -25 -9 -14 -27 -28 -39 -31 -26 -6 -62 -41 -53 -50 4 -3 32 0 65 6 64 13
128 10 128 -5 0 -5 -22 -17 -48 -27 -27 -10 -55 -25 -64 -33 -17 -18 -23 -18
-59 -5 -40 16 -162 -5 -143 -24 3 -3 36 -12 73 -20 38 -8 76 -22 85 -31 15
-15 14 -18 -12 -39 -32 -26 -21 -46 25 -46 18 0 31 -6 35 -17 3 -10 11 -24 16
-31 6 -7 11 -62 12 -123 2 -96 0 -113 -18 -135 -10 -14 -17 -28 -14 -31 14
-13 68 36 99 90 34 62 88 117 113 117 9 0 24 -6 35 -12 16 -10 24 -10 40 0 11
6 29 12 40 12 12 0 38 9 60 20 39 20 81 27 79 13 0 -10 -67 -61 -146 -114 -35
-22 -63 -45 -63 -50 0 -12 37 -12 45 1 10 16 25 11 25 -9 0 -26 -34 -66 -86
-102 -24 -16 -44 -34 -44 -39 0 -21 37 -9 65 20 30 32 62 38 98 19 43 -23 47
-45 12 -61 -14 -6 -25 -17 -25 -24 0 -7 -12 -26 -26 -43 -41 -49 -14 -36 51
24 33 30 66 55 73 55 16 0 15 -20 -3 -44 -8 -11 -15 -29 -15 -40 0 -12 -9 -34
-20 -51 -13 -19 -20 -47 -20 -76 0 -31 -7 -55 -20 -71 -11 -14 -24 -37 -29
-51 -6 -15 -35 -40 -73 -62 -75 -46 -108 -73 -108 -93 0 -11 8 -13 29 -9 15 3
51 9 80 13 l51 7 0 -42 c0 -57 -8 -71 -122 -190 -95 -100 -118 -141 -73 -133
11 2 54 37 97 77 43 41 102 85 132 100 49 24 59 25 127 18 63 -7 74 -11 77
-28 2 -11 17 -34 33 -51 16 -17 34 -46 39 -65 6 -18 10 -135 10 -259 0 -242 9
-420 20 -420 13 0 19 85 26 338 6 223 5 252 -9 273 -10 13 -17 35 -17 49 0 22
8 30 55 49 65 27 84 24 153 -24 29 -19 56 -35 62 -35 5 0 10 17 10 39 0 44 31
91 60 91 28 0 60 -47 60 -90 0 -24 7 -43 20 -55 26 -24 25 -47 -3 -93 -30 -48
-60 -123 -52 -131 8 -8 45 37 45 54 0 7 7 18 16 26 8 7 24 29 34 49 23 46 78
100 102 100 22 0 22 -8 3 -34 -17 -23 -20 -137 -5 -201 13 -55 33 -68 100 -60
48 6 61 3 103 -20 51 -29 55 -36 31 -56 -21 -18 -12 -90 21 -161 14 -29 25
-61 25 -70 0 -18 45 -58 66 -58 8 0 36 -16 63 -35 57 -41 70 -43 103 -12 17
16 43 26 78 30 29 4 55 9 58 12 4 3 0 20 -7 38 -32 79 -24 95 26 53 15 -13 43
-27 60 -30 18 -4 35 -12 38 -17 12 -18 63 -10 79 13 14 19 16 19 22 5 11 -31
24 -18 25 26 1 40 1 41 11 14 8 -22 13 -26 24 -16 8 6 14 18 14 25 0 19 16 18
24 -1 8 -22 78 -54 83 -37 7 19 50 15 56 -7 6 -25 -1 -35 -40 -54 -36 -19 -50
-51 -33 -72 21 -25 52 -17 91 26 l38 41 38 -18 38 -19 7 -80 c4 -50 2 -85 -4
-92 -15 -18 12 -55 66 -92 24 -17 46 -38 50 -46 16 -42 5 -184 -23 -300 -30
-123 -67 -373 -59 -397 9 -27 27 30 38 118 12 104 75 452 96 539 9 33 18 77
21 99 l5 39 70 -7 c80 -7 135 -28 145 -53 4 -10 17 -32 30 -49 13 -17 23 -40
23 -52 0 -29 17 -71 45 -112 16 -22 27 -57 31 -95 4 -33 15 -76 25 -96 11 -22
31 -130 53 -279 20 -135 40 -248 45 -253 13 -13 41 -1 41 18 0 9 -6 26 -14 38
-8 12 -22 76 -31 142 -21 157 -78 439 -110 540 -13 44 -25 94 -25 111 0 31 51
122 72 129 7 2 57 5 111 8 96 4 97 4 80 -15 -23 -26 -6 -53 33 -53 38 0 46 36
12 59 -22 16 -21 16 24 16 46 0 47 -1 57 -37 5 -21 11 -47 13 -57 2 -11 9 -21
16 -24 10 -3 11 10 6 61 -6 60 -5 65 17 81 13 9 29 16 35 16 7 0 35 -36 63
-79 28 -44 55 -83 61 -86 11 -7 40 18 40 34 0 16 18 23 40 16 13 -4 20 -15 20
-30 0 -48 72 -70 130 -40 55 29 52 103 -5 137 -37 21 -42 36 -25 69 7 12 21
19 41 19 16 0 58 12 92 26 46 20 85 28 153 32 103 5 104 4 115 -68 3 -25 8
-51 10 -59 3 -10 -6 -17 -26 -21 -32 -6 -53 -44 -42 -74 8 -21 53 -38 91 -34
37 4 45 32 21 77 l-16 31 41 0 c45 0 51 -10 18 -33 -34 -23 -11 -38 66 -44 73
-6 96 4 96 42 0 26 -43 65 -71 65 -20 0 -25 15 -9 25 5 3 37 0 71 -7 59 -12
62 -12 116 16 53 28 54 30 48 63 -5 26 0 44 19 78 14 24 26 52 26 63 0 11 14
32 31 47 36 30 121 75 142 75 8 0 20 7 27 15 17 21 43 19 65 -5 17 -18 16 -21
-6 -75 -18 -43 -20 -58 -11 -67 7 -7 12 -31 12 -54 0 -50 19 -71 49 -54 14 7
21 21 21 40 0 19 8 35 27 48 l28 20 -18 36 c-21 45 -22 80 -2 100 18 18 43 11
103 -29 48 -32 100 -41 143 -26 22 8 43 8 70 1 32 -9 44 -7 85 15 57 30 69 31
87 4 13 -18 18 -19 36 -7 19 12 51 74 51 100 0 6 10 32 21 56 19 38 20 49 10
83 -8 26 -23 47 -46 61 l-33 22 36 31 35 31 -16 49 c-21 60 -22 117 -2 154 8
16 43 52 79 80 70 56 185 180 233 251 16 25 51 85 78 134 26 50 69 125 95 167
26 43 62 115 80 161 42 106 90 207 101 214 5 3 9 14 9 24 0 11 13 48 29 82 44
95 60 162 67 286 6 97 10 114 26 123 42 23 45 55 36 404 -4 182 -12 372 -17
424 l-9 95 34 31 c28 27 34 40 34 74 0 39 -3 44 -50 73 -33 20 -50 38 -50 51
0 11 -13 58 -29 106 -38 115 -71 232 -71 253 0 12 10 18 37 20 30 2 38 8 46
31 19 57 -25 107 -94 107 -38 0 -72 36 -95 98 -10 26 -25 58 -34 72 -9 14 -38
72 -65 129 -44 93 -60 150 -68 241 -4 41 -14 49 -57 43 -46 -6 -33 -18 -228
204 -185 211 -340 357 -440 416 -121 71 -383 202 -444 222 -29 10 -60 23 -68
31 -18 15 -97 34 -115 28 -7 -3 -16 -1 -20 5 -3 6 -25 11 -48 11 -23 0 -114
13 -202 29 -330 61 -402 66 -865 66 -352 0 -427 2 -436 14 -9 11 -12 10 -17
-8 -6 -25 -57 -31 -57 -6 0 8 -4 15 -9 15 -5 0 -11 -7 -15 -15 -4 -11 -21 -15
-61 -15 -31 0 -66 -6 -78 -14 -12 -8 -53 -22 -91 -31 -58 -15 -78 -16 -119 -6
-44 10 -53 9 -82 -9 -20 -12 -50 -20 -77 -20 -35 0 -54 -7 -83 -30 -44 -35
-50 -36 -92 -10 -74 45 -77 86 -17 215 18 42 34 78 34 82 0 10 -58 -60 -92
-111 -15 -22 -24 -44 -21 -49 3 -5 0 -34 -7 -63 -9 -38 -18 -54 -30 -54 -9 0
-25 -7 -36 -15 -21 -16 -60 -20 -68 -7 -2 4 4 27 15 51 23 52 23 64 3 107 -10
22 -34 43 -69 63 -82 47 -97 71 -92 156 4 72 10 93 59 207 29 68 33 108 11
115 -6 2 -21 -5 -32 -16z m-16 -701 c9 -15 -6 -60 -21 -60 -14 0 -20 51 -7 63
9 10 21 9 28 -3z m75 -20 c0 -5 -7 -10 -15 -10 -8 0 -15 5 -15 10 0 6 7 10 15
10 8 0 15 -4 15 -10z m-727 -250 c51 -137 43 -180 -12 -62 -18 40 -31 85 -31
107 0 51 12 38 43 -45z m-708 -292 c25 -12 44 -27 42 -33 -2 -5 -27 -11 -55
-13 -43 -3 -52 0 -62 18 -14 26 -7 50 14 50 9 0 36 -10 61 -22z m205 -462 c28
-30 21 -51 -18 -59 -29 -6 -72 1 -72 11 0 13 46 72 56 72 6 0 21 -11 34 -24z
m-105 -187 c4 -6 -2 -21 -14 -33 -12 -12 -21 -27 -21 -34 0 -18 -42 -42 -73
-42 -54 0 -43 61 17 100 34 21 81 26 91 9z m-140 -342 c22 -17 16 -52 -15 -88
l-20 -24 -20 24 c-20 23 -25 56 -14 85 7 20 44 21 69 3z m-165 -637 c0 -27
-26 -36 -62 -22 -25 9 -30 8 -44 -14 -18 -27 -34 -23 -34 8 0 11 -8 27 -17 34
-15 11 -5 13 70 14 81 0 87 -1 87 -20z m-260 -147 c14 -14 10 -15 -33 -9 -56
7 -70 13 -61 28 9 14 75 0 94 -19z m120 17 c-8 -5 -22 -10 -30 -10 -13 0 -13
1 0 10 8 5 22 10 30 10 13 0 13 -1 0 -10z m40 0 c0 -5 -2 -10 -4 -10 -3 0 -8
5 -11 10 -3 6 -1 10 4 10 6 0 11 -4 11 -10z m-132 -76 c48 -6 55 -20 15 -30
-29 -8 -213 22 -227 36 -9 9 118 5 212 -6z m927 -2004 c3 -5 1 -10 -4 -10 -6
0 -11 5 -11 10 0 6 2 10 4 10 3 0 8 -4 11 -10z m-12 -51 c41 -21 97 -82 97
-106 0 -34 -22 -28 -61 15 -19 20 -47 47 -62 59 -42 32 -22 56 26 32z"/>
<path d="M3670 7746 c-6 -9 -10 -21 -8 -28 3 -8 9 -4 17 10 15 28 9 39 -9 18z"/>
<path d="M3425 7279 c-9 -17 -15 -33 -13 -35 3 -2 12 12 21 31 21 43 13 47 -8
4z"/>
<path d="M5816 7301 c-7 -11 12 -26 42 -34 28 -7 28 7 0 27 -26 18 -35 20 -42
7z"/>
<path d="M3675 7270 c-3 -5 -1 -10 4 -10 6 0 11 5 11 10 0 6 -2 10 -4 10 -3 0
-8 -4 -11 -10z"/>
<path d="M2661 7224 c-26 -33 -27 -78 -2 -101 11 -10 24 -29 29 -43 10 -24 96
-70 108 -57 3 3 3 50 -1 105 l-7 100 -38 11 c-54 16 -66 14 -89 -15z"/>
<path d="M2910 7108 c0 -15 5 -30 10 -33 13 -8 13 25 0 45 -8 12 -10 9 -10
-12z"/>
<path d="M926 6961 c-4 -5 -2 -12 3 -15 5 -4 12 -2 15 3 4 5 2 12 -3 15 -5 4
-12 2 -15 -3z"/>
<path d="M326 6871 c23 -23 165 -92 181 -88 11 2 -19 21 -80 50 -99 47 -119
55 -101 38z"/>
<path d="M512 6819 c6 -17 129 -90 140 -83 14 9 -11 33 -67 65 -53 30 -79 37
-73 18z"/>
<path d="M1997 6773 c-16 -15 -5 -51 24 -79 17 -16 40 -46 50 -67 21 -40 40
-54 59 -42 7 5 4 18 -10 42 -11 19 -25 57 -31 84 -11 50 -29 69 -67 69 -10 0
-22 -3 -25 -7z"/>
<path d="M1580 6160 c0 -5 7 -10 15 -10 8 0 15 5 15 10 0 6 -7 10 -15 10 -8 0
-15 -4 -15 -10z"/>
<path d="M1560 6054 c0 -8 5 -12 10 -9 6 3 10 10 10 16 0 5 -4 9 -10 9 -5 0
-10 -7 -10 -16z"/>
<path d="M1321 5517 c-14 -7 -26 -17 -28 -23 -6 -17 29 -53 60 -60 26 -6 27
-4 23 19 -2 14 -10 37 -18 51 -12 23 -16 24 -37 13z"/>
<path d="M1296 5421 c-4 -7 -5 -15 -2 -18 9 -9 19 4 14 18 -4 11 -6 11 -12 0z"/>
<path d="M1330 4565 c0 -8 5 -15 10 -15 6 0 10 7 10 15 0 8 -4 15 -10 15 -5 0
-10 -7 -10 -15z"/>
<path d="M1240 4555 c0 -2 13 -11 29 -20 30 -15 49 -7 36 15 -6 10 -65 15 -65
5z"/>
<path d="M940 4313 c-22 -28 -24 -64 -3 -70 14 -5 43 47 43 77 0 28 -14 25
-40 -7z"/>
<path d="M1193 4093 c-23 -9 -14 -33 11 -33 25 0 51 22 39 33 -7 8 -32 8 -50
0z"/>
<path d="M7644 3789 c-3 -6 -1 -16 5 -22 13 -13 42 0 49 21 5 15 -44 16 -54 1z"/>
<path d="M1207 3271 c-48 -53 -63 -81 -42 -81 15 0 92 106 83 115 -3 3 -21
-12 -41 -34z"/>
<path d="M1503 3215 c-18 -8 -33 -19 -33 -25 0 -17 17 -12 47 15 32 28 30 30
-14 10z"/>
<path d="M1554 3039 c-3 -6 -1 -16 5 -22 8 -8 11 -5 11 11 0 24 -5 28 -16 11z"/>
<path d="M8262 2773 c4 -22 38 -30 38 -10 0 8 -7 18 -16 21 -23 9 -26 8 -22
-11z"/>
<path d="M7166 2729 c-18 -27 -11 -47 20 -55 30 -8 44 2 44 30 0 45 -39 60
-64 25z"/>
<path d="M7335 2691 c-10 -20 -15 -50 -13 -79 3 -44 6 -48 42 -66 22 -11 60
-21 86 -24 39 -4 51 -1 68 18 30 32 37 76 18 105 -15 22 -97 60 -157 72 -23 4
-30 0 -44 -26z"/>
<path d="M2095 2475 c3 -33 10 -129 16 -214 13 -198 40 -361 59 -361 17 0 19
32 5 93 -27 116 -46 242 -55 375 -5 73 -14 140 -20 150 -8 12 -9 1 -5 -43z"/>
<path d="M2265 2259 c-10 -15 3 -25 16 -12 7 7 7 13 1 17 -6 3 -14 1 -17 -5z"/>
<path d="M8104 1969 c-16 -27 73 -70 105 -50 19 12 5 30 -35 47 -40 17 -61 18
-70 3z"/>
<path d="M5966 1821 c-3 -5 10 -42 29 -82 49 -102 52 -128 24 -184 -21 -43
-22 -49 -8 -73 11 -20 23 -27 44 -27 25 0 32 6 42 35 7 19 12 59 12 88 1 43 5
56 26 74 27 23 32 57 13 76 -15 15 -60 16 -74 2 -14 -14 -30 5 -47 56 -14 38
-47 58 -61 35z"/>
<path d="M3470 1797 c0 -2 11 -18 25 -37 l25 -34 -31 -13 c-38 -16 -37 -50 3
-73 25 -13 29 -13 44 2 15 15 16 23 6 55 -14 47 -48 103 -62 103 -5 0 -10 -1
-10 -3z"/>
<path d="M3080 1771 c0 -21 13 -41 26 -41 17 0 18 22 2 38 -14 14 -28 16 -28
3z"/>
<path d="M3604 1756 c-20 -15 -11 -36 17 -36 10 0 19 2 19 4 0 2 3 11 6 19 7
20 -20 28 -42 13z"/>
<path d="M5810 1600 c0 -5 5 -10 10 -10 6 0 10 5 10 10 0 6 -4 10 -10 10 -5 0
-10 -4 -10 -10z"/>
<path d="M3150 1566 c0 -8 7 -22 17 -31 14 -15 17 -15 25 -2 4 9 5 22 2 31 -8
20 -44 21 -44 2z"/>
<path d="M4941 1448 c13 -18 25 -26 27 -19 4 13 -25 51 -40 51 -5 0 1 -14 13
-32z"/>
<path d="M6975 1280 c-7 -11 43 -46 52 -36 7 7 -25 46 -38 46 -4 0 -10 -4 -14
-10z"/>
<path d="M5602 1038 c-30 -30 0 -78 38 -58 15 8 20 19 18 38 -3 30 -35 41 -56
20z"/>
</g>
</svg>
