<?xml version="1.0" standalone="no"?>
<!DOCTYPE svg PUBLIC "-//W3C//DTD SVG 20010904//EN"
 "http://www.w3.org/TR/2001/REC-SVG-20010904/DTD/svg10.dtd">
<svg version="1.0" xmlns="http://www.w3.org/2000/svg"
 width="1024.000000pt" height="457.000000pt" viewBox="0 0 1024.000000 457.000000"
 preserveAspectRatio="xMidYMid meet">
<metadata>
Created by potrace 1.16, written by Peter Selinger 2001-2019
</metadata>
<g transform="translate(0.000000,457.000000) scale(0.100000,-0.100000)"
fill="#000000" stroke="none">
<path d="M4515 3580 c-17 -7 -14 -9 13 -9 20 -1 31 3 27 9 -7 12 -13 12 -40 0z"/>
<path d="M4778 3583 c7 -3 16 -2 19 1 4 3 -2 6 -13 5 -11 0 -14 -3 -6 -6z"/>
<path d="M5035 3580 c3 -5 12 -7 20 -3 21 7 19 13 -6 13 -11 0 -18 -4 -14 -10z"/>
<path d="M5260 3582 c0 -5 14 -7 30 -4 17 2 30 6 30 8 0 2 -13 4 -30 4 -16 0
-30 -4 -30 -8z"/>
<path d="M5348 3583 c12 -2 30 -2 40 0 9 3 -1 5 -23 4 -22 0 -30 -2 -17 -4z"/>
<path d="M5508 3583 c7 -3 16 -2 19 1 4 3 -2 6 -13 5 -11 0 -14 -3 -6 -6z"/>
<path d="M5570 3586 c0 -2 7 -6 15 -10 8 -3 15 -1 15 4 0 6 -7 10 -15 10 -8 0
-15 -2 -15 -4z"/>
<path d="M5760 3582 c0 -13 -82 -30 -130 -27 -173 12 -294 14 -305 5 -7 -6
-187 -12 -471 -15 -252 -3 -495 -8 -539 -11 -44 -3 -145 -9 -224 -14 -79 -5
-228 -14 -330 -20 -299 -17 -499 -29 -598 -36 -67 -5 -93 -4 -93 5 0 6 3 11 8
11 137 8 206 13 292 22 58 6 125 12 150 14 25 2 63 8 85 13 39 10 38 10 -15 6
-30 -3 -95 -7 -145 -10 -49 -3 -207 -14 -350 -25 -143 -11 -298 -22 -345 -26
-89 -6 -114 -8 -270 -24 -52 -6 -149 -15 -215 -20 -66 -6 -126 -13 -134 -15
-7 -3 -79 -10 -160 -15 -80 -6 -198 -17 -261 -25 -109 -13 -208 -20 -485 -30
-119 -5 -120 -5 -123 -30 -3 -20 -9 -25 -33 -25 -16 0 -29 -5 -29 -11 0 -6 -7
-9 -15 -5 -11 4 -15 -1 -15 -19 0 -14 5 -25 11 -25 16 0 2 -72 -17 -86 -8 -6
-14 -20 -14 -31 0 -11 -7 -26 -16 -34 -16 -14 -16 -29 5 -139 6 -30 13 -98 15
-150 6 -112 14 -157 34 -187 9 -16 12 -34 7 -55 -9 -45 -9 -65 -1 -283 4 -104
12 -205 17 -223 6 -18 9 -42 6 -52 -7 -27 12 -203 24 -214 5 -6 9 -26 9 -45 0
-82 118 -383 158 -405 11 -6 41 -37 66 -68 28 -34 55 -58 66 -58 11 0 29 -4
42 -10 13 -5 42 -14 66 -20 35 -9 46 -18 57 -43 7 -18 25 -43 40 -57 15 -14
56 -63 90 -110 62 -83 65 -85 130 -104 60 -17 69 -17 108 -3 23 8 91 18 152
20 61 3 137 13 170 22 36 10 111 18 185 20 132 4 421 28 530 44 133 19 355 37
518 40 12 1 22 5 22 10 0 5 -28 10 -61 10 -34 0 -66 4 -72 10 -6 6 10 9 44 9
30 0 92 5 139 12 47 7 94 13 106 14 11 2 26 6 32 10 7 4 17 4 24 0 6 -4 36 -6
66 -5 35 2 58 -2 63 -10 5 -9 11 -9 23 4 19 18 125 32 199 24 28 -2 63 -1 77
4 14 4 149 10 300 13 387 7 604 14 624 22 9 3 23 1 31 -6 11 -9 40 -10 107 -5
51 4 147 8 213 11 66 2 161 6 210 8 156 8 232 9 241 4 5 -4 27 -4 49 -2 36 3
206 4 325 1 25 0 109 2 188 5 114 6 142 4 142 -6 0 -10 10 -12 44 -5 50 9 69
10 340 9 244 0 296 -5 296 -31 0 -11 -7 -19 -17 -20 -14 0 -13 -2 4 -9 25 -10
110 1 105 14 -5 12 48 37 72 34 13 -2 20 2 18 10 -3 15 34 16 44 1 4 -7 22 -9
45 -6 26 3 38 1 36 -6 -1 -8 13 -11 38 -10 22 1 59 2 83 2 44 1 56 15 22 26
-19 6 -126 14 -195 15 l-30 0 25 13 c18 10 55 12 135 8 103 -6 185 4 185 20 0
12 -34 20 -81 19 -123 0 -125 0 -104 12 11 7 57 11 105 11 84 -1 85 -1 25 7
-33 4 -109 11 -169 14 -60 3 -111 7 -112 9 -2 1 1 9 6 17 5 9 23 13 47 12 145
-6 266 -3 274 9 6 10 58 13 216 12 118 0 195 3 178 7 -45 12 -411 41 -567 46
-76 2 -177 8 -225 14 -48 5 -132 10 -185 10 -80 0 -98 3 -98 15 0 8 5 15 11
15 5 0 8 4 5 9 -3 4 -16 6 -30 4 -33 -7 -43 15 -11 23 15 4 77 4 138 0 62 -4
177 -9 257 -11 280 -7 510 -24 510 -36 0 -11 -81 -11 -235 1 -196 15 -542 22
-524 11 8 -6 105 -12 215 -15 109 -3 251 -8 314 -11 303 -13 335 -14 311 -4
-51 20 -2 27 139 19 85 -5 146 -4 148 1 2 5 17 9 33 9 26 0 28 2 19 19 -7 14
-24 21 -62 25 -110 11 -215 25 -264 35 -28 5 -99 11 -158 12 -58 1 -109 5
-111 10 -3 4 -12 6 -20 2 -8 -3 -23 -2 -32 2 -20 8 -160 8 -173 0 -5 -3 -12 0
-15 6 -4 6 -18 8 -30 5 -29 -7 -85 3 -85 16 0 6 50 7 128 4 101 -4 116 -3 72
5 -54 9 -92 29 -57 29 9 0 17 5 17 11 0 8 63 10 233 5 127 -4 318 -9 422 -11
105 -3 213 -7 240 -9 l50 -5 -38 13 c-22 6 -43 19 -48 29 -12 20 7 26 96 29
l60 3 -40 19 -40 19 30 7 c17 4 62 8 100 9 75 1 115 9 115 21 0 9 -68 21 -115
21 -43 -1 -145 20 -151 30 -3 5 2 9 11 9 11 0 15 5 11 15 -5 14 12 16 127 15
72 0 146 3 162 8 26 8 20 10 -45 16 -64 6 -218 41 -228 51 -11 10 68 13 163 6
149 -12 190 9 47 23 -68 7 -87 18 -47 27 28 6 28 7 -10 8 -34 1 -37 3 -25 15
11 11 56 16 178 21 155 6 166 8 220 36 31 16 63 29 70 29 7 0 20 7 28 15 14
13 13 16 -8 24 -13 5 -38 15 -57 23 l-34 14 38 38 c33 33 37 41 26 57 -9 15
-8 24 4 42 12 20 13 33 4 83 -6 32 -17 71 -25 86 -8 15 -14 40 -14 57 0 16 -4
32 -9 36 -5 3 -13 20 -17 37 -3 18 -13 43 -21 55 -11 17 -12 26 -3 42 6 12 15
21 20 21 6 0 10 6 10 14 0 7 -11 13 -27 14 -93 3 -295 24 -314 32 -18 8 6 9
86 6 102 -5 187 3 202 18 4 3 1 12 -5 18 -21 21 -13 36 21 42 19 3 42 12 52
20 21 15 13 17 -119 31 -37 4 -54 10 -46 15 7 5 -23 6 -68 3 -72 -5 -82 -4
-82 11 0 12 -10 16 -45 16 -27 0 -48 5 -50 13 -3 6 -22 13 -43 14 -45 3 -338
29 -477 43 -55 5 -193 15 -307 21 -115 7 -208 15 -208 19 0 3 8 6 18 6 9 1 60
9 112 18 73 14 108 15 150 8 86 -15 283 -14 320 2 l32 13 -63 6 c-34 4 -94 7
-133 8 -79 1 -154 21 -123 34 14 6 15 10 6 21 -7 9 -8 14 -1 14 5 0 12 6 15
13 4 10 -2 13 -18 9 -12 -2 -26 1 -29 7 -9 14 -49 14 -63 0 -14 -14 -163 -22
-163 -9 0 5 21 10 46 10 29 0 43 4 39 11 -4 6 -38 9 -83 8 -43 -1 -122 3 -177
9 -126 14 -335 29 -580 42 -104 6 -217 12 -250 15 -388 30 -1374 63 -1345 45
11 -7 7 -10 -17 -10 -18 0 -33 4 -33 9 0 4 -85 10 -189 13 -192 6 -247 15
-181 30 32 7 216 22 265 21 33 -1 152 -11 197 -18 24 -3 113 -8 198 -11 140
-4 450 -14 525 -16 113 -3 653 11 668 17 9 4 23 2 31 -4 16 -14 127 -24 366
-35 58 -3 159 -12 225 -20 66 -8 164 -17 218 -20 83 -6 97 -4 97 9 0 8 5 15
11 15 6 0 9 -6 6 -14 -6 -15 38 -21 233 -32 137 -8 779 -8 787 -1 3 4 15 7 25
7 11 0 17 4 13 9 -5 9 38 8 210 -3 27 -2 51 -8 53 -15 3 -8 -23 -11 -84 -11
-143 0 -90 -9 81 -14 139 -3 156 -2 133 10 -14 7 -28 21 -32 30 -5 12 -10 13
-19 6 -8 -7 -18 -7 -27 -1 -13 8 -13 10 0 20 11 8 -5 9 -59 5 -56 -5 -76 -3
-85 7 -10 13 -111 24 -501 52 -22 2 -103 8 -180 14 -77 6 -176 14 -220 17 -44
4 -156 13 -250 20 -93 8 -188 14 -210 13 -22 0 -87 5 -145 10 -58 6 -235 18
-395 26 -159 8 -357 20 -440 25 -82 6 -222 15 -310 21 -388 26 -460 34 -457
48 2 11 0 12 -10 4 -7 -6 -31 -12 -53 -13 -68 -3 -78 -1 -71 15 3 8 1 15 -4
15 -6 0 -10 -4 -10 -8z m-2715 -112 c17 -7 16 -9 -10 -11 -16 -1 -41 -3 -55
-5 -47 -5 -56 10 -10 16 25 4 47 7 50 8 3 0 14 -3 25 -8z m-245 -24 c0 -8 -61
-12 -66 -4 -3 4 11 8 30 8 20 0 36 -2 36 -4z m1589 -85 c8 0 12 -4 8 -7 -11
-11 -177 -16 -177 -5 0 5 8 11 18 13 15 4 114 3 151 -1z m2789 -267 c32 -7 28
-27 -5 -20 -16 3 -47 8 -70 11 -24 4 -43 10 -43 13 0 7 78 5 118 -4z m172 -14
c11 -7 6 -10 -20 -10 -26 0 -31 3 -20 10 8 5 17 10 20 10 3 0 12 -5 20 -10z
m1460 -158 c0 -4 -22 -5 -50 -4 -27 2 -50 7 -50 10 0 4 22 5 50 4 27 -2 50 -7
50 -10z m-1486 -1313 c-7 -11 -54 -12 -54 -1 0 15 10 19 35 14 14 -2 22 -8 19
-13z m-1114 -139 c-36 -12 -62 -12 -55 0 3 6 23 10 43 9 33 -1 34 -2 12 -9z
m377 -6 c2 -6 -19 -10 -54 -9 -81 3 -87 7 -23 15 65 8 73 7 77 -6z m316 -4
c17 -7 9 -9 -33 -9 -65 1 -90 6 -90 21 0 12 84 4 123 -12z m27 -29 c0 -17 -68
-33 -117 -27 -27 2 -51 5 -55 5 -15 2 -8 20 10 24 33 9 162 7 162 -2z m37 3
c-3 -3 -12 -4 -19 -1 -8 3 -5 6 6 6 11 1 17 -2 13 -5z m283 -73 c25 -5 41 -10
35 -11 -5 -2 15 -6 45 -9 l55 -7 -70 -8 c-66 -8 -102 -25 -87 -41 4 -4 -58 -5
-138 -1 -80 3 -148 6 -152 6 -5 0 -8 6 -8 14 0 11 23 14 111 14 61 0 114 3
117 6 3 3 -11 6 -31 6 -20 0 -39 5 -42 10 -3 6 5 10 19 10 14 0 28 5 31 10 7
12 51 12 115 1z m-353 -21 c-42 -8 -104 -6 -114 4 -3 3 29 5 73 5 63 -1 71 -3
41 -9z m110 4 c-3 -3 -12 -4 -19 -1 -8 3 -5 6 6 6 11 1 17 -2 13 -5z m-497
-23 c0 -5 10 -12 23 -16 20 -6 19 -7 -12 -17 -24 -6 -42 -6 -58 1 -13 6 -49
11 -80 11 -59 0 -64 15 -8 23 57 8 135 7 135 -2z m-290 -9 c0 -6 -36 -10 -82
-11 -46 0 -78 3 -71 7 18 12 153 15 153 4z m688 -9 c3 -10 -14 -13 -62 -13
-62 0 -96 14 -59 23 37 9 116 2 121 -10z m775 10 c-7 -2 -21 -2 -30 0 -10 3
-4 5 12 5 17 0 24 -2 18 -5z m-511 -56 c16 -5 25 -13 22 -18 -3 -6 5 -7 22 -3
19 5 25 4 20 -5 -4 -6 -17 -11 -29 -12 -18 0 -16 -3 11 -15 17 -8 32 -18 32
-24 0 -16 -70 -23 -159 -14 -47 4 -327 9 -621 10 -294 0 -539 2 -545 4 -5 1
-14 1 -20 0 -48 -10 -443 -15 -453 -5 -3 3 19 5 49 6 56 1 61 1 169 13 92 10
234 17 463 21 108 2 202 7 207 10 17 11 198 9 212 -2 18 -15 438 -23 513 -11
79 14 93 28 27 28 -40 0 -52 3 -52 15 0 13 11 16 53 14 28 -1 64 -7 79 -12z
m406 -14 c-10 -2 -26 -2 -35 0 -10 3 -2 5 17 5 19 0 27 -2 18 -5z m-301 -9
c-3 -3 -12 -4 -19 -1 -8 3 -5 6 6 6 11 1 17 -2 13 -5z m-2497 -68 c-28 -15
-90 -19 -90 -6 0 8 35 15 90 18 l25 1 -25 -13z m496 7 c-11 -11 -307 -13 -300
-2 3 5 73 9 156 9 83 0 148 -3 144 -7z m-838 -21 c-27 -8 -51 -12 -55 -8 -13
12 20 26 62 25 l40 -1 -47 -16z m-323 -12 c3 -5 -3 -10 -14 -10 -12 0 -21 5
-21 10 0 6 6 10 14 10 8 0 18 -4 21 -10z"/>
<path d="M4317 3573 c-3 -5 6 -9 19 -9 13 -1 21 2 18 7 -6 11 -31 12 -37 2z"/>
<path d="M4385 3570 c4 -6 11 -8 16 -5 14 9 11 15 -7 15 -8 0 -12 -5 -9 -10z"/>
<path d="M4448 3573 c6 -2 18 -2 25 0 6 3 1 5 -13 5 -14 0 -19 -2 -12 -5z"/>
<path d="M4090 3562 c-8 -4 -16 -13 -17 -19 -4 -16 38 -14 99 5 26 8 54 12 61
9 8 -3 20 -1 28 4 17 10 -148 11 -171 1z"/>
<path d="M3875 3550 c-11 -18 23 -22 67 -6 l43 15 -52 1 c-28 0 -55 -5 -58
-10z"/>
<path d="M3740 3540 c0 -6 19 -7 48 -3 64 8 66 13 4 13 -29 0 -52 -4 -52 -10z"/>
<path d="M3670 3530 c-13 -9 -13 -10 0 -9 8 0 24 4 35 9 l20 9 -20 0 c-11 0
-27 -4 -35 -9z"/>
<path d="M7070 3520 c0 -12 8 -12 35 0 18 8 17 9 -7 9 -16 1 -28 -3 -28 -9z"/>
<path d="M7141 3521 c-9 -6 -5 -8 13 -8 15 0 29 3 32 8 7 11 -27 11 -45 0z"/>
<path d="M7948 3463 c6 -2 18 -2 25 0 6 3 1 5 -13 5 -14 0 -19 -2 -12 -5z"/>
<path d="M8000 3460 c20 -13 43 -13 35 0 -3 6 -16 10 -28 10 -18 0 -19 -2 -7
-10z"/>
<path d="M7158 1433 c7 -3 16 -2 19 1 4 3 -2 6 -13 5 -11 0 -14 -3 -6 -6z"/>
<path d="M7848 1293 c7 -3 16 -2 19 1 4 3 -2 6 -13 5 -11 0 -14 -3 -6 -6z"/>
<path d="M7958 1183 c7 -3 16 -2 19 1 4 3 -2 6 -13 5 -11 0 -14 -3 -6 -6z"/>
<path d="M6257 1104 c3 -8 11 -14 19 -14 21 0 17 17 -5 23 -14 3 -18 1 -14 -9z"/>
<path d="M6355 1100 c-7 -11 30 -19 45 -10 7 5 2 9 -14 12 -15 3 -29 2 -31 -2z"/>
<path d="M6538 1103 c-10 -2 -18 -8 -18 -12 0 -8 100 6 109 15 6 5 -69 3 -91
-3z"/>
<path d="M6918 1083 c7 -3 16 -2 19 1 4 3 -2 6 -13 5 -11 0 -14 -3 -6 -6z"/>
<path d="M5155 1070 c3 -5 8 -10 11 -10 2 0 4 5 4 10 0 6 -5 10 -11 10 -5 0
-7 -4 -4 -10z"/>
<path d="M4888 1063 c7 -3 16 -2 19 1 4 3 -2 6 -13 5 -11 0 -14 -3 -6 -6z"/>
<path d="M3538 1013 c12 -2 32 -2 45 0 12 2 2 4 -23 4 -25 0 -35 -2 -22 -4z"/>
</g>
</svg>
