<?xml version="1.0" standalone="no"?>
<!DOCTYPE svg PUBLIC "-//W3C//DTD SVG 20010904//EN"
 "http://www.w3.org/TR/2001/REC-SVG-20010904/DTD/svg10.dtd">
<svg version="1.0" xmlns="http://www.w3.org/2000/svg"
 width="929.000000pt" height="458.000000pt" viewBox="0 0 929.000000 458.000000"
 preserveAspectRatio="xMidYMid meet">
<metadata>
Created by potrace 1.16, written by Peter Selinger 2001-2019
</metadata>
<g transform="translate(0.000000,458.000000) scale(0.100000,-0.100000)"
fill="#000000" stroke="none">
<path d="M4925 4545 c-265 -42 -518 -189 -685 -400 -95 -120 -177 -284 -210
-423 l-12 -52 -57 -16 c-293 -86 -533 -345 -596 -645 -18 -85 -21 -260 -5
-339 12 -65 35 -139 62 -198 l19 -43 -26 -64 c-94 -236 -43 -496 133 -685 38
-40 42 -63 42 -234 0 -182 5 -199 58 -180 l27 9 3 148 c1 81 6 147 10 147 30
-1 32 -19 34 -374 l3 -358 28 -24 c36 -31 77 -31 105 -1 22 23 22 28 22 350
l0 327 43 0 c23 0 52 -3 65 -6 l22 -6 0 -739 0 -739 45 0 45 0 0 740 c0 703 1
740 18 749 10 5 30 11 45 13 l26 3 3 -216 c3 -197 5 -219 22 -238 24 -26 77
-28 99 -3 15 16 17 50 17 268 l0 249 65 48 c99 74 187 194 222 304 9 29 19 53
23 53 3 0 14 -16 25 -36 25 -47 116 -129 160 -145 l35 -13 0 -323 c0 -310 1
-324 20 -343 29 -29 74 -26 99 6 20 26 21 38 21 334 l0 307 44 5 c104 12 215
97 261 200 58 130 39 288 -47 384 -18 21 -18 21 60 37 42 9 81 17 85 17 4 0 7
-204 7 -452 0 -249 3 -626 7 -837 6 -354 8 -386 25 -403 46 -46 118 -2 118 73
0 22 5 39 10 39 6 0 10 -3 10 -7 1 -5 3 -80 6 -168 7 -178 13 -195 69 -195 63
0 64 4 66 330 2 162 6 306 10 320 5 16 7 1 8 -46 1 -53 6 -78 19 -94 24 -30
70 -30 94 0 16 20 18 47 18 301 0 179 4 279 10 279 6 0 10 -33 11 -77 0 -114
6 -153 25 -174 22 -24 66 -24 88 0 16 17 17 77 16 788 l0 770 45 87 c362 686
-56 1509 -819 1615 -99 14 -219 12 -321 -4z m812 -3347 c-2 -35 -3 -7 -3 62 0
69 1 97 3 63 2 -35 2 -91 0 -125z"/>
<path d="M3222 4500 c-70 -43 -92 -128 -49 -191 30 -46 81 -71 131 -65 138 17
169 195 45 258 -45 23 -86 23 -127 -2z"/>
<path d="M3455 4114 c-60 -21 -110 -67 -141 -130 -50 -103 -21 -230 71 -299
79 -61 173 -71 261 -28 66 32 106 79 129 151 63 192 -128 374 -320 306z"/>
<path d="M3572 1197 c-47 -50 -48 -171 -1 -218 41 -41 102 -12 115 56 24 128
-49 232 -114 162z"/>
<path d="M4860 1062 c-21 -10 -42 -32 -54 -55 -49 -101 52 -207 157 -164 97
41 99 182 2 223 -45 18 -62 18 -105 -4z"/>
</g>
</svg>
