<?xml version="1.0" standalone="no"?>
<!DOCTYPE svg PUBLIC "-//W3C//DTD SVG 20010904//EN"
 "http://www.w3.org/TR/2001/REC-SVG-20010904/DTD/svg10.dtd">
<svg version="1.0" xmlns="http://www.w3.org/2000/svg"
 width="1024.000000pt" height="724.000000pt" viewBox="0 0 1024.000000 724.000000"
 preserveAspectRatio="xMidYMid meet">
<metadata>
Created by potrace 1.16, written by Peter Selinger 2001-2019
</metadata>
<g transform="translate(0.000000,724.000000) scale(0.100000,-0.100000)"
fill="#000000" stroke="none">
<path d="M3805 5850 c3 -5 8 -10 11 -10 2 0 4 5 4 10 0 6 -5 10 -11 10 -5 0
-7 -4 -4 -10z"/>
<path d="M2470 5787 c0 -10 -4 -15 -10 -12 -5 3 -10 2 -10 -4 0 -5 -5 -22 -12
-38 -6 -15 -12 -35 -12 -43 -1 -8 -10 -15 -21 -15 -11 0 -25 -4 -32 -8 -15 -9
-53 26 -53 49 0 8 -5 12 -10 9 -6 -4 -7 -11 -4 -17 5 -8 1 -9 -10 -5 -10 4
-23 4 -29 0 -23 -14 -47 -13 -47 2 0 8 -4 15 -10 15 -6 0 -10 -28 -10 -65 0
-40 4 -65 11 -65 6 0 4 -6 -4 -14 -10 -11 -14 -56 -15 -197 -5 -443 -11 -530
-33 -473 -7 17 -8 17 -8 2 -1 -18 -41 -26 -41 -9 0 16 18 22 23 9 3 -7 6 -3 6
9 1 12 -3 25 -9 28 -5 3 -10 24 -10 46 0 27 4 38 11 33 6 -3 15 0 20 7 7 12 9
11 9 -2 0 -8 -6 -21 -12 -28 -11 -10 -10 -11 5 -6 11 5 17 18 17 37 0 25 -3
28 -20 23 -18 -6 -20 -2 -20 33 0 22 -5 42 -12 44 -19 7 -17 38 3 49 11 5 17
14 14 20 -4 5 -13 5 -26 -1 -24 -14 -27 11 -3 34 8 9 11 16 6 16 -5 0 -22 13
-38 30 -48 49 -72 37 -66 -33 2 -23 -24 -33 -43 -17 -28 24 -17 -16 14 -49
l30 -32 -21 -21 c-11 -11 -23 -16 -27 -11 -8 14 -53 37 -71 38 -9 0 -17 14
-21 38 -6 40 -19 62 -19 33 0 -9 -4 -15 -9 -11 -5 3 -12 1 -16 -5 -4 -6 -11
-7 -17 -4 -8 5 -9 -3 -5 -24 8 -39 0 -62 -19 -55 -8 3 -17 -3 -21 -13 -4 -10
-2 -19 5 -22 7 -2 9 -8 6 -14 -14 -23 -13 -78 2 -78 21 0 18 -66 -3 -79 -10
-6 -13 -11 -6 -11 30 0 37 -170 7 -170 -9 0 -14 -12 -14 -35 0 -21 5 -35 13
-35 9 0 8 -3 -2 -9 -10 -6 -10 -10 -1 -16 8 -5 7 -10 -3 -18 -20 -16 -11 -78
9 -70 8 3 14 1 14 -5 0 -5 -9 -12 -20 -15 -13 -3 -20 -13 -19 -29 1 -17 3 -18
6 -5 5 21 33 23 33 2 0 -8 -6 -25 -12 -36 -10 -17 -10 -23 0 -26 6 -3 12 -9
12 -15 0 -6 -6 -5 -15 2 -21 18 -30 6 -10 -14 9 -9 12 -16 6 -16 -6 0 -11 -5
-11 -11 0 -6 6 -9 13 -6 9 3 13 -20 15 -92 3 -75 7 -99 20 -110 16 -13 16 -13
-2 -7 -17 6 -18 2 -13 -49 3 -30 13 -62 22 -71 10 -11 12 -20 6 -28 -6 -7 -4
-23 6 -46 18 -41 28 -94 13 -70 -7 10 -10 11 -10 3 0 -7 -9 -13 -20 -13 -17 0
-20 -7 -20 -46 0 -39 -3 -46 -17 -42 -13 4 -18 -1 -18 -17 0 -15 5 -21 14 -17
10 4 13 1 8 -12 -4 -10 -7 -24 -7 -32 0 -10 -7 -13 -25 -8 -21 5 -25 3 -25
-16 0 -11 5 -18 10 -15 6 3 10 -1 10 -10 0 -9 -4 -13 -10 -10 -5 3 -10 -3 -10
-14 0 -12 5 -21 12 -21 9 0 9 -3 0 -12 -10 -10 -6 -17 14 -35 24 -20 25 -24
10 -38 -18 -18 -21 -52 -6 -75 8 -13 10 -12 10 3 0 9 5 17 10 17 16 0 6 -140
-11 -151 -23 -14 -28 -11 -32 24 -2 17 -5 -3 -5 -45 -1 -45 2 -80 9 -83 7 -5
5 -11 -5 -18 -19 -15 -10 -71 10 -63 8 3 14 -1 14 -9 0 -8 -9 -15 -20 -15 -13
0 -20 -7 -20 -20 0 -11 5 -20 11 -20 5 0 8 4 4 9 -3 5 -1 12 4 16 5 3 15 -3
21 -12 10 -15 11 -15 6 -1 -3 9 2 19 10 22 22 9 24 8 18 -8 -3 -8 -1 -17 5
-21 21 -13 10 -24 -21 -22 -25 2 -33 -2 -36 -18 -2 -16 -1 -17 7 -5 8 11 11
12 11 2 0 -8 -9 -16 -21 -19 -19 -5 -19 -7 7 -34 26 -27 22 -43 -4 -17 -9 9
-12 8 -12 -5 0 -11 8 -17 25 -17 18 0 25 5 25 20 0 11 -7 23 -15 26 -8 4 -15
11 -15 16 0 6 7 7 16 4 9 -4 23 -1 32 6 13 11 14 8 8 -19 -7 -28 -5 -32 13
-30 20 1 28 27 21 62 -1 5 2 7 6 3 3 -4 8 -26 10 -49 3 -29 1 -39 -8 -36 -18
6 -50 -12 -42 -24 4 -6 10 -6 19 1 10 8 19 8 34 1 11 -6 29 -11 40 -11 l20 0
-20 -35 c-11 -19 -18 -39 -14 -45 3 -5 1 -10 -4 -10 -6 0 -11 -5 -11 -11 0 -5
4 -8 9 -5 5 3 11 -5 13 -19 4 -18 2 -23 -6 -16 -6 4 -29 12 -50 16 -36 6 -38
5 -27 -9 8 -9 25 -15 40 -14 26 3 26 2 26 -65 l0 -67 -27 6 c-17 3 -28 1 -28
-5 0 -9 48 -15 106 -14 12 0 13 -11 16 -302 2 -170 2 -170 -20 -167 -12 2 -22
-2 -22 -7 0 -6 9 -11 21 -11 17 0 19 -4 13 -22 -3 -13 -12 -26 -19 -30 -17
-10 -7 -51 11 -44 21 8 32 -24 28 -84 -2 -30 -1 -49 2 -42 3 6 10 12 15 12 14
0 11 -28 -3 -32 -8 -3 -12 -23 -10 -56 1 -37 -2 -52 -11 -52 -9 0 -12 -12 -10
-38 1 -20 0 -29 -3 -19 -7 23 -23 22 -21 -3 1 -11 5 -20 9 -20 14 0 8 -38 -7
-44 -8 -3 -15 -14 -15 -25 0 -15 5 -19 17 -14 12 5 15 2 10 -10 -3 -9 -2 -17
3 -17 6 0 6 -9 0 -24 -10 -29 2 -36 58 -34 25 1 31 5 28 17 -3 9 -7 32 -11 51
-4 19 -9 44 -12 54 -4 14 -1 18 10 13 20 -7 31 21 15 40 -6 8 -7 13 -2 12 28
-5 37 2 19 15 -11 8 -23 12 -27 10 -11 -7 -10 2 7 43 19 44 19 47 0 39 -12 -4
-14 0 -9 22 4 15 13 32 20 38 8 7 12 19 8 29 -5 13 -9 14 -15 3 -5 -7 -9 -8
-9 -2 0 5 6 19 14 29 7 10 11 27 8 38 -4 14 -7 16 -13 5 -7 -10 -9 -9 -9 4 0
20 53 41 68 26 7 -7 16 -7 29 1 10 6 12 11 5 11 -20 0 -25 28 -8 45 15 15 16
15 16 -5 0 -12 5 -18 10 -15 6 3 10 0 10 -7 1 -9 3 -9 9 2 17 29 23 60 12 60
-6 0 -11 -7 -11 -15 0 -12 -4 -13 -17 -6 -18 9 -25 11 -42 11 -5 0 -11 11 -13
25 -4 19 -1 25 13 25 11 0 19 7 19 15 0 8 6 15 13 16 6 0 3 4 -8 8 -19 8 -19
8 3 15 12 4 22 14 22 22 0 8 6 14 13 15 6 0 2 5 -11 11 -13 6 -21 17 -18 23 2
7 1 16 -3 21 -5 5 -11 24 -14 41 -6 29 -4 32 11 24 9 -5 25 -12 35 -15 10 -3
15 -11 12 -17 -4 -6 -13 -8 -21 -5 -8 3 -14 1 -14 -4 0 -6 11 -10 25 -10 27 0
31 10 14 41 -10 19 -9 19 10 9 26 -13 26 -21 3 -51 -13 -17 -16 -31 -11 -49 4
-16 7 -19 8 -7 1 17 16 23 25 9 5 -8 -18 -44 -28 -43 -20 3 -26 -1 -26 -13 0
-8 5 -16 11 -18 6 -2 12 -19 14 -38 1 -19 6 -46 10 -60 5 -19 4 -22 -4 -10 -7
9 -11 10 -11 3 0 -6 5 -15 10 -18 7 -4 5 -14 -4 -27 -13 -17 -13 -23 -1 -34
19 -19 45 -17 45 3 0 13 3 14 12 5 19 -19 26 -14 20 14 -2 14 -7 22 -11 17 -6
-9 -47 -33 -56 -33 -3 0 -5 5 -5 10 0 6 6 10 13 10 6 0 19 5 27 10 13 9 13 11
1 19 -16 10 -26 51 -12 51 5 0 14 -6 20 -14 6 -7 22 -11 35 -9 18 4 26 0 31
-17 4 -13 3 -25 -3 -29 -20 -12 -25 -77 -8 -109 21 -40 22 -79 2 -60 -7 7 -13
19 -12 27 1 7 -4 16 -11 18 -9 3 -11 -5 -7 -29 3 -18 5 -42 5 -53 0 -10 4 -24
10 -31 13 -16 1 -64 -17 -64 -8 0 -11 -6 -7 -16 5 -13 8 -13 15 -2 7 9 8 8 5
-7 -2 -11 -9 -19 -16 -17 -7 1 -10 -2 -6 -8 4 -6 2 -16 -4 -23 -13 -16 -23
-69 -11 -62 5 3 16 -8 25 -24 15 -29 14 -31 -12 -46 -19 -10 -22 -14 -9 -13
10 2 21 -3 24 -11 3 -10 0 -12 -12 -8 -12 5 -16 3 -14 -5 3 -7 10 -14 16 -14
7 -1 17 -2 22 -3 6 0 10 -11 10 -23 1 -22 1 -22 12 -3 6 11 12 22 14 24 5 5
30 -22 35 -38 4 -10 12 -5 27 16 21 30 21 31 2 36 -14 4 -20 0 -20 -11 0 -12
-3 -13 -12 -4 -7 7 -20 12 -29 12 -27 0 -32 16 -18 58 10 32 13 34 20 17 4
-11 8 -15 8 -9 1 6 8 11 16 11 9 0 13 -7 10 -16 -2 -9 0 -23 5 -31 9 -13 12
-13 21 3 5 9 17 17 26 17 15 0 15 2 0 18 -19 21 -22 32 -7 32 6 0 10 -7 10
-16 0 -14 2 -15 17 -3 15 13 16 11 9 -13 -4 -17 -2 -28 4 -28 5 0 10 -8 9 -17
0 -11 -3 -13 -6 -6 -6 17 -33 -9 -33 -31 0 -9 -6 -16 -12 -16 -9 0 -9 -3 1 -9
12 -8 12 -10 -1 -12 -10 -3 -12 -11 -7 -29 7 -24 7 -24 8 -2 1 23 15 30 26 12
4 -6 11 -7 17 -4 7 5 9 -4 6 -25 -3 -21 0 -31 8 -31 8 0 11 6 8 14 -3 8 0 17
6 21 7 4 14 -2 17 -14 3 -11 9 -18 14 -15 5 3 9 1 9 -3 0 -5 9 -9 20 -9 11 0
20 4 20 7 0 15 42 21 51 8 7 -11 9 -9 9 6 0 17 2 17 10 5 5 -8 10 -10 11 -5 0
6 4 -1 8 -14 l7 -25 25 25 c21 21 29 24 52 16 31 -10 50 -1 27 13 -8 6 -10 10
-4 10 6 0 21 -11 33 -24 22 -24 71 -33 71 -13 0 7 4 7 12 -1 22 -22 48 -14 48
14 l0 25 25 -27 c22 -24 25 -25 26 -8 0 18 1 18 9 -1 5 -12 9 -14 9 -6 1 11 6
10 22 -5 16 -14 22 -15 28 -5 5 7 21 11 37 10 16 -2 35 0 42 4 8 6 12 2 12
-10 0 -15 2 -16 11 -3 8 11 12 12 16 3 6 -16 33 -17 33 -3 0 7 6 8 16 2 21
-12 107 2 112 18 3 9 11 5 23 -11 10 -13 19 -18 19 -11 0 7 5 10 10 7 6 -3 10
2 10 11 0 16 1 16 16 -2 10 -12 17 -15 20 -7 4 9 13 8 37 -2 36 -15 97 -11
108 7 6 9 9 8 14 -3 7 -19 53 -19 64 0 7 10 12 10 30 -1 18 -11 23 -11 30 1 7
11 9 11 13 0 4 -11 10 -11 24 -3 11 6 30 9 44 8 70 -9 188 -13 213 -8 16 3 27
12 28 22 0 13 3 12 11 -5 10 -20 48 -29 48 -10 0 4 4 6 9 3 5 -3 45 -8 90 -11
61 -5 81 -3 81 6 0 10 3 10 12 1 15 -15 68 -16 68 -1 0 8 4 8 14 -1 17 -13
105 -11 124 3 8 6 12 5 12 -3 0 -8 18 -11 55 -9 30 1 57 0 60 -3 3 -3 33 -3
66 -1 37 3 65 1 73 -6 11 -9 17 -8 29 3 10 11 17 12 25 4 8 -8 15 -8 25 0 8 7
17 9 20 5 11 -10 167 -13 193 -3 15 6 24 6 24 0 0 -10 84 -6 113 5 10 4 17 3
17 -5 0 -7 8 -9 21 -5 16 6 20 4 13 -6 -6 -12 -5 -12 9 0 13 10 20 11 30 2 8
-6 17 -8 20 -4 4 3 35 7 69 7 40 1 63 5 66 13 5 16 23 17 19 1 -3 -17 34 -23
44 -6 6 9 9 9 9 1 0 -8 11 -11 30 -8 17 2 30 0 30 -4 0 -8 95 -5 109 3 5 4 12
2 15 -3 9 -14 56 -7 67 10 8 12 10 12 18 0 11 -17 67 -17 87 -1 8 8 24 9 41 5
37 -10 194 -16 207 -7 17 10 36 11 36 1 0 -5 11 -7 24 -3 33 8 51 -3 35 -22
-6 -8 -9 -18 -5 -22 4 -4 14 2 22 13 14 19 16 19 28 3 7 -10 24 -18 37 -17 13
0 19 3 12 6 -10 3 -10 7 0 18 8 9 17 10 30 3 10 -5 25 -7 33 -4 12 4 14 1 9
-14 -5 -15 -3 -18 9 -14 8 3 12 12 9 20 -8 21 10 17 30 -6 20 -24 59 -26 81
-5 13 14 16 13 25 -2 10 -17 10 -17 11 -1 0 22 30 13 30 -9 0 -13 3 -14 23 -1
30 20 66 28 73 17 9 -15 24 -10 24 8 0 13 7 10 30 -12 17 -16 30 -24 30 -17 0
6 7 9 15 6 8 -4 15 -1 15 6 0 7 6 5 16 -5 21 -20 38 -15 42 13 4 23 21 31 23
10 0 -7 7 1 14 17 8 17 14 23 15 13 0 -9 3 -25 6 -35 5 -15 4 -16 -6 -3 -9 12
-11 12 -8 1 7 -25 28 -24 28 0 l0 23 17 -24 c9 -14 18 -27 20 -30 3 -3 13 6
23 19 17 23 19 24 35 8 22 -22 42 -22 24 0 -12 15 -12 16 4 10 10 -4 25 -7 33
-7 8 0 14 -7 14 -15 0 -8 7 -15 15 -15 9 0 12 6 9 15 -4 8 -1 15 6 15 7 0 9 8
5 20 -5 14 -2 20 10 20 13 0 14 2 3 14 -9 10 -15 11 -20 2 -5 -7 -8 -3 -8 9 0
11 9 26 20 33 17 10 20 10 20 -2 0 -8 8 -20 18 -25 11 -7 13 -10 3 -11 -9 0
-12 -8 -9 -25 3 -14 1 -22 -5 -18 -5 3 -13 -1 -18 -8 -13 -21 -11 -29 8 -22
10 4 14 2 10 -4 -8 -13 59 -11 71 2 4 4 1 5 -5 1 -9 -5 -13 0 -13 14 0 12 4
19 9 16 5 -3 12 5 15 19 7 26 30 33 42 14 3 -6 1 -15 -6 -19 -8 -5 -7 -9 4
-13 9 -4 16 -1 16 5 0 6 3 9 6 5 4 -3 13 0 20 8 18 18 18 26 -1 19 -11 -5 -13
-2 -9 10 3 9 10 16 15 16 5 0 9 8 9 18 0 9 4 13 8 7 4 -5 16 -12 27 -13 27 -5
44 -23 28 -29 -7 -3 -13 -11 -13 -19 0 -9 -5 -12 -10 -9 -6 3 -13 -1 -16 -9
-3 -9 -11 -13 -18 -9 -6 3 -5 0 2 -8 11 -12 14 -12 21 0 7 11 10 9 15 -7 8
-23 44 -36 61 -22 7 6 16 5 24 -3 10 -9 11 -8 5 7 -5 13 -4 17 4 12 7 -4 23 4
37 20 24 26 25 26 25 5 0 -11 -4 -21 -10 -21 -5 0 -10 -7 -10 -15 0 -8 5 -15
11 -15 5 0 7 5 4 10 -3 5 -2 10 4 10 5 0 12 8 14 17 3 11 5 7 6 -9 0 -16 5
-28 10 -28 5 0 8 18 7 40 0 24 5 44 13 49 7 5 11 17 9 27 -3 15 -8 10 -21 -19
-18 -43 -22 -44 -37 -17 -8 15 -6 29 9 61 12 25 15 39 8 36 -9 -3 -12 9 -12
38 0 24 4 41 9 37 5 -3 6 2 3 12 -4 10 -7 20 -7 22 0 2 -5 4 -10 4 -6 0 -9 -3
-9 -7 4 -22 -2 -43 -12 -43 -16 0 -4 72 14 82 23 12 31 62 14 94 -9 18 -16 23
-21 15 -6 -9 -12 -7 -22 6 -18 24 -17 29 8 53 29 26 34 25 46 -7 l10 -28 1 31
c1 24 5 31 18 30 24 -2 29 37 7 58 -14 14 -19 15 -25 4 -7 -10 -9 -9 -9 4 0 9
-4 20 -10 23 -6 3 -7 -1 -4 -9 14 -38 -24 -7 -43 34 -11 24 -12 23 -6 -9 5
-26 3 -33 -8 -29 -7 2 -22 -4 -33 -14 -13 -12 -23 -14 -31 -8 -7 5 -15 7 -18
4 -3 -4 -3 10 0 30 4 24 2 36 -6 36 -6 0 -12 -6 -12 -12 -1 -7 -5 12 -9 42 -7
57 -4 80 11 80 4 0 6 -6 3 -13 -3 -8 2 -20 11 -27 13 -10 15 -9 15 7 0 11 6
20 14 20 8 0 12 -6 10 -12 -3 -7 2 -18 11 -25 12 -10 21 -10 45 0 16 7 30 17
30 22 0 5 -4 6 -10 3 -5 -3 -10 -1 -10 4 0 13 27 15 32 2 2 -5 18 -12 36 -16
32 -7 34 -6 27 16 -5 19 -4 21 4 9 8 -11 11 -12 11 -2 0 7 5 10 10 7 6 -3 10
3 10 14 0 12 5 21 11 21 6 0 9 -6 6 -13 -3 -8 -1 -20 4 -28 6 -10 9 -10 9 -1
0 6 5 12 11 12 5 0 7 -4 4 -10 -3 -6 1 -7 10 -4 10 4 15 14 12 26 -5 16 -3 17
9 7 11 -9 14 -8 14 4 0 9 7 14 17 13 22 -4 45 16 30 26 -6 3 -10 33 -10 67 0
55 -1 58 -13 35 -7 -13 -20 -31 -28 -40 -9 -8 -19 -21 -23 -29 -12 -20 -63
-24 -63 -4 0 6 9 8 20 4 13 -4 20 -2 20 7 0 7 11 26 25 41 23 24 24 32 3 28
-5 0 -8 4 -8 9 0 6 -5 10 -10 10 -6 0 -8 -11 -4 -25 7 -30 -11 -34 -26 -5 -12
22 -36 27 -43 8 -3 -7 -6 -1 -6 15 -1 25 1 26 19 15 16 -11 22 -9 34 7 20 27
20 32 -5 40 -29 9 -36 -2 -13 -20 10 -8 14 -15 7 -15 -6 0 -14 4 -18 10 -3 5
-12 7 -20 3 -16 -5 -19 5 -9 31 3 9 13 16 20 16 12 0 12 3 2 14 -7 8 -17 12
-22 9 -4 -3 -12 1 -17 8 -13 21 -11 32 6 25 8 -3 15 -1 15 4 0 18 22 10 27
-10 3 -11 9 -20 14 -20 5 0 6 -6 3 -13 -3 -9 2 -13 18 -11 13 1 24 3 26 4 2 2
13 6 28 9 3 0 -11 18 -31 38 -33 33 -35 38 -19 44 11 3 25 4 32 2 6 -3 12 0
12 6 0 6 -6 11 -12 11 -9 0 -8 3 1 9 12 8 9 11 -12 16 -15 4 -27 11 -27 16 0
12 53 -1 62 -15 5 -7 8 -7 8 2 0 17 -26 43 -34 35 -3 -4 -6 -1 -6 5 0 7 16 20
35 29 19 9 35 23 35 31 0 13 -3 13 -18 -1 -14 -13 -19 -13 -29 -1 -7 7 -13 18
-13 24 0 6 -4 9 -9 6 -5 -3 -12 1 -15 10 -8 22 -8 26 4 19 6 -3 10 -1 10 4 0
6 -4 11 -8 11 -5 0 -9 21 -10 48 -2 26 -5 56 -9 66 -4 15 -1 18 11 13 11 -4
16 -1 16 11 0 14 2 15 10 2 5 -8 12 -11 16 -7 4 3 1 13 -6 22 -7 9 -8 15 -2
15 6 0 17 3 26 6 12 4 16 0 16 -16 0 -13 -4 -19 -11 -14 -7 4 -10 2 -8 -5 8
-23 24 -16 27 11 2 20 7 25 19 21 13 -5 15 -2 10 18 -4 13 -7 28 -7 32 0 5 -5
5 -12 1 -8 -5 -9 -2 -5 10 4 10 1 19 -8 22 -7 3 -11 12 -8 20 8 22 18 17 28
-17 10 -31 26 -40 34 -18 2 6 -1 9 -7 5 -6 -3 -13 -2 -17 4 -3 5 -1 10 6 10 8
0 8 4 -2 16 -10 13 -10 17 0 24 8 4 10 13 7 19 -5 7 2 11 18 11 14 0 26 -4 26
-10 0 -5 -8 -10 -17 -10 -15 0 -14 -2 3 -14 16 -13 21 -12 36 1 10 9 15 19 13
23 -3 5 0 10 7 12 9 3 7 15 -5 46 -20 50 -21 55 -6 46 7 -4 6 3 -2 17 l-12 24
-10 -28 c-7 -22 -13 -26 -32 -21 -16 4 -23 1 -22 -8 1 -36 -4 -59 -13 -53 -5
3 -10 0 -10 -7 0 -10 -3 -9 -9 1 -8 13 -12 13 -26 1 -15 -12 -16 -11 -10 12 5
19 2 29 -10 36 -16 8 -15 10 4 15 15 4 21 0 21 -11 0 -13 2 -14 9 -4 6 10 10
8 15 -10 7 -22 7 -22 16 -3 5 14 3 24 -8 33 -14 11 -14 12 1 12 10 0 17 8 17
18 0 10 3 22 7 26 4 3 8 16 10 28 5 30 11 34 33 20 13 -8 20 -9 20 -1 0 5 4 8
9 5 5 -3 14 1 21 10 10 11 15 12 20 3 5 -8 13 -8 27 0 11 5 24 7 27 3 4 -4 20
-7 36 -8 25 -1 29 2 33 35 13 81 19 100 33 94 8 -3 14 1 14 11 0 9 -5 16 -11
16 -6 0 -9 6 -6 13 3 8 -1 14 -9 14 -8 0 -14 -5 -15 -11 0 -6 -1 -22 -3 -36
-1 -14 -10 -36 -20 -50 -13 -18 -16 -20 -10 -5 4 11 8 34 9 50 0 17 4 36 8 43
8 11 2 16 -15 13 -12 -2 -9 9 6 24 10 10 16 11 25 2 8 -8 11 -7 11 4 0 20 -12
34 -35 43 -13 5 -15 10 -7 13 6 3 12 11 12 19 0 9 5 12 10 9 6 -3 14 5 20 19
6 17 17 26 31 26 18 0 20 -2 9 -15 -11 -13 -15 -13 -22 -3 -6 9 -8 5 -6 -12 2
-16 9 -24 19 -22 8 1 22 -10 29 -24 12 -22 16 -23 26 -10 6 9 13 14 15 12 2
-2 5 10 5 27 1 18 -1 24 -3 15 -2 -10 -9 -18 -14 -18 -6 0 -8 4 -5 8 3 5 6 26
8 48 1 21 9 44 18 51 13 11 13 12 -5 13 -18 1 -18 2 -4 13 12 10 13 16 3 35
-8 17 -13 20 -17 10 -4 -10 -6 -10 -6 0 -1 7 6 15 15 19 12 4 14 14 9 44 -4
26 -3 39 4 39 6 0 2 9 -9 20 -26 26 -40 26 -33 0 7 -26 -1 -25 -27 2 l-20 22
0 -25 c0 -17 -3 -20 -9 -11 -4 8 -11 13 -15 13 -18 -3 -19 1 -2 14 17 13 17
14 -5 12 -13 0 -27 -6 -31 -12 -5 -6 -8 -6 -8 3 0 6 -5 12 -11 12 -5 0 -8 -4
-5 -9 3 -5 -1 -11 -9 -15 -10 -4 -15 1 -15 14 0 11 -4 20 -9 20 -4 0 -6 -12
-3 -27 5 -25 4 -27 -11 -14 -15 12 -17 11 -17 -3 0 -9 -6 -16 -13 -16 -8 0
-12 13 -11 38 2 42 -11 78 -20 52 -13 -42 -15 -41 -12 8 4 54 16 85 16 43 0
-13 4 -19 10 -16 6 4 17 2 25 -5 10 -9 21 -8 44 5 29 14 31 14 32 -2 0 -15 2
-15 7 -3 4 9 13 15 20 14 6 -1 17 -2 23 -3 5 0 7 -6 4 -11 -3 -5 -3 -10 0 -10
3 0 11 13 16 30 6 17 15 30 20 30 5 0 9 7 9 15 0 8 5 15 11 15 6 0 9 -6 6 -13
-3 -8 -1 -20 4 -28 7 -11 9 -8 9 9 0 14 4 21 11 17 6 -4 8 -14 4 -22 -5 -13
-3 -14 10 -3 9 7 13 20 10 28 -3 10 0 12 10 8 8 -3 15 -1 15 4 0 6 5 9 11 7 6
-1 16 6 22 16 10 15 9 20 -5 28 -10 6 -18 19 -18 29 0 26 -6 25 -34 -5 -13
-13 -26 -22 -29 -18 -4 3 -7 0 -7 -7 0 -10 -3 -11 -11 -3 -6 6 -18 9 -25 6
-10 -3 -14 2 -13 18 0 13 3 18 6 12 2 -7 9 -13 14 -13 12 0 11 41 -1 60 -9 13
-11 13 -20 0 -8 -13 -11 -11 -16 8 -6 20 -8 21 -19 6 -8 -12 -14 -14 -19 -6
-4 7 -2 12 3 12 6 0 11 14 11 30 0 17 5 30 10 30 6 0 10 5 10 11 0 5 -4 8 -9
4 -5 -3 -13 5 -17 17 -7 21 -8 20 -15 -12 -5 -23 -4 -37 4 -42 9 -5 9 -10 -1
-20 -9 -9 -12 -9 -12 3 0 9 -11 21 -24 27 -20 9 -26 8 -31 -6 -5 -11 -9 -13
-12 -5 -2 7 0 20 5 30 6 12 4 27 -4 43 -8 14 -14 21 -14 16 0 -4 -8 2 -19 15
-10 13 -17 28 -14 35 2 6 -3 11 -12 11 -12 0 -15 -7 -12 -26 5 -23 4 -24 -7
-8 -7 9 -16 14 -19 10 -4 -3 -1 5 5 19 8 16 18 23 29 21 9 -3 20 0 23 5 3 6
-2 8 -13 5 -10 -3 -22 0 -25 6 -4 6 -2 11 3 11 6 0 11 7 11 16 0 11 -5 14 -17
9 -15 -5 -16 -4 -5 6 15 16 16 29 1 29 -10 0 -39 24 -39 33 0 3 9 3 20 0 11
-3 20 -10 20 -15 0 -12 21 -6 23 7 2 15 21 33 30 28 4 -2 7 2 7 9 0 8 5 6 11
-5 6 -9 15 -15 21 -11 6 4 5 10 -3 15 -11 7 -11 9 2 9 9 0 20 -8 23 -17 6 -15
9 -15 16 -3 7 12 12 11 30 -5 15 -14 23 -16 32 -7 8 8 7 13 -5 18 -9 3 -15 10
-12 14 3 4 -1 19 -8 33 -11 21 -15 23 -30 12 -9 -7 -18 -18 -18 -26 -1 -8 -4
0 -8 16 -9 39 -3 55 20 55 10 0 19 5 19 11 0 5 -4 7 -10 4 -5 -3 -10 -2 -10 4
0 15 18 23 25 11 10 -16 23 -12 30 10 9 27 25 26 17 -2 -3 -14 -2 -19 6 -14 7
4 12 1 12 -9 0 -10 5 -13 11 -9 7 4 20 -4 30 -17 l19 -24 0 32 c0 27 -3 31
-20 28 -24 -5 -26 8 -5 25 8 7 15 21 15 31 0 10 5 21 10 24 19 12 0 25 -21 15
-16 -9 -19 -7 -20 12 -1 16 -3 18 -6 6 -2 -10 -10 -15 -19 -11 -8 3 -21 -1
-30 -8 -8 -7 -14 -8 -13 -3 4 22 -2 35 -13 31 -12 -3 -14 -7 -17 -43 0 -8 -6
-12 -12 -9 -6 4 -8 13 -6 19 3 7 -4 18 -14 24 -25 16 -24 48 1 62 11 6 20 17
20 25 0 7 5 17 10 20 7 4 9 -2 4 -19 -5 -21 -3 -25 10 -20 9 3 16 1 16 -5 0
-7 -7 -14 -15 -17 -15 -6 -11 -24 4 -24 9 0 19 25 31 75 l7 30 2 -32 c0 -18 4
-33 9 -33 11 0 11 54 0 68 -7 8 -7 12 2 12 18 0 6 23 -14 26 -11 1 -16 -4 -15
-14 3 -30 -1 -35 -14 -23 -11 8 -19 7 -33 -7 -10 -9 -20 -24 -22 -32 -2 -8
-10 -22 -18 -31 -8 -8 -14 -25 -14 -37 0 -11 -5 -24 -10 -27 -6 -4 -10 11 -8
39 0 26 -2 49 -5 53 -4 3 -7 -4 -7 -16 0 -13 -4 -20 -11 -16 -6 4 -10 19 -9
33 1 15 2 33 1 40 -1 16 -45 16 -71 0 -17 -11 -22 -10 -30 2 -9 15 7 33 22 24
4 -3 8 0 8 7 0 8 5 7 17 -2 15 -13 16 -12 11 9 -4 12 -2 22 4 22 5 0 8 6 5 13
-2 7 -16 11 -35 9 -18 -2 -32 1 -32 6 0 26 14 42 36 42 23 0 28 9 25 38 -1 6
3 20 9 30 9 15 10 14 5 -5 -4 -13 1 -33 12 -49 l18 -28 12 40 c6 21 12 33 12
26 1 -18 31 -48 31 -31 0 8 7 5 20 -6 20 -18 20 -17 20 16 l1 34 18 -22 c20
-24 58 -33 45 -11 -5 8 -2 9 9 5 13 -5 17 -1 17 15 0 17 2 18 15 8 13 -11 14
-10 9 4 -4 10 -13 15 -20 12 -7 -3 -16 -1 -19 4 -4 6 -15 10 -25 10 -13 0 -17
5 -14 15 4 8 1 15 -5 15 -6 0 -11 -5 -11 -10 0 -21 -32 -60 -44 -53 -11 8 -16
9 -36 12 -5 0 -10 8 -10 16 0 8 -9 20 -20 27 -11 7 -20 21 -20 30 0 10 -7 18
-16 18 -22 0 -13 34 11 39 17 3 18 1 6 -13 -7 -9 -10 -16 -5 -17 5 0 16 -2 25
-4 11 -2 16 5 16 27 0 27 -3 28 -29 23 -22 -5 -28 -3 -28 10 0 12 6 15 20 10
21 -7 25 1 11 24 -5 7 -14 10 -20 7 -7 -5 -11 5 -11 31 1 31 3 35 11 21 12
-22 29 -23 29 -3 0 8 7 15 15 15 8 0 15 4 15 9 0 5 3 18 7 28 5 14 2 14 -14
-4 -11 -13 -23 -20 -27 -16 -3 3 -6 -5 -7 -18 0 -24 0 -24 -9 -2 -5 13 -5 35
0 53 5 17 6 39 2 48 -5 12 -9 4 -12 -24 -4 -35 -8 -40 -24 -35 -18 7 -18 8 -1
25 13 13 15 20 6 29 -8 8 -11 7 -11 -6 0 -16 -20 -23 -33 -11 -3 3 3 21 13 39
14 25 15 33 5 29 -7 -3 -16 -12 -19 -20 -9 -23 -24 -16 -31 16 -6 28 12 90 26
90 3 0 4 11 1 25 -2 15 0 25 7 25 6 0 11 -4 11 -10 0 -15 16 -12 34 6 15 14
16 14 16 -5 0 -11 5 -23 10 -26 6 -3 10 -15 10 -26 0 -11 -5 -17 -10 -14 -6 4
-10 3 -9 -2 1 -4 1 -21 -1 -38 -1 -26 -3 -27 -10 -10 -8 19 -9 19 -9 -2 -1
-17 5 -23 19 -23 16 0 20 7 20 31 0 16 4 28 9 25 15 -10 19 29 4 43 -8 7 -12
16 -8 19 3 4 10 0 15 -7 4 -8 15 -11 25 -7 13 4 16 2 11 -9 -16 -40 -16 -48 0
-22 20 29 44 36 44 12 0 -8 9 -15 20 -15 15 0 20 7 20 26 0 22 2 24 15 14 12
-10 15 -7 21 14 7 28 14 32 31 15 16 -16 72 16 73 41 0 3 -18 6 -40 7 -30 2
-40 -1 -40 -12 0 -8 -4 -15 -10 -15 -5 0 -7 6 -4 14 7 18 -43 31 -61 16 -9 -8
-15 -8 -20 0 -10 16 -25 12 -25 -7 0 -13 -3 -14 -12 -5 -16 16 -45 15 -51 0
-4 -9 -6 -8 -6 2 -1 14 -48 16 -401 17 -386 1 -400 0 -400 -18 0 -10 -4 -19
-10 -19 -5 0 -10 6 -10 14 0 18 -35 27 -49 13 -8 -8 -11 -7 -11 2 0 8 -7 10
-22 5 -33 -9 -34 -12 -12 -30 16 -13 17 -15 2 -10 -19 6 -57 -39 -44 -51 4 -4
9 3 13 15 5 22 43 32 43 12 0 -5 -7 -10 -16 -10 -21 0 -13 -23 9 -26 16 -2 19
4 21 50 1 11 6 21 13 23 15 5 27 -48 13 -57 -9 -6 -9 -9 -1 -14 17 -11 3 -25
-19 -19 -11 3 -27 -1 -36 -8 -13 -10 -17 -10 -25 2 -7 11 -9 11 -9 -3 0 -10 5
-18 10 -18 6 0 10 -5 10 -12 0 -6 -11 -1 -24 11 -15 14 -26 19 -31 12 -3 -6
-1 -11 4 -11 6 0 11 -7 11 -15 0 -8 -4 -15 -10 -15 -5 0 -10 -9 -10 -20 0 -11
4 -20 10 -20 5 0 7 8 3 18 -6 16 -5 16 13 -1 16 -14 17 -21 6 -37 -6 -11 -12
-31 -12 -45 0 -14 -5 -25 -10 -25 -6 0 -8 12 -5 28 4 21 3 23 -3 7 -9 -19 -9
-19 -20 2 -9 16 -9 23 1 26 8 4 6 6 -4 6 -9 1 -21 11 -27 24 -8 16 -11 17 -11
6 -1 -10 -12 -19 -26 -21 -21 -5 -25 -1 -26 21 l-1 26 -7 -25 c-5 -14 -3 -31
2 -38 7 -9 5 -18 -8 -30 -10 -9 -15 -12 -11 -5 4 7 -6 17 -22 26 -25 12 -31
12 -48 -2 -10 -9 -24 -26 -29 -39 -10 -23 -10 -23 -32 -3 -18 17 -23 18 -39 6
-26 -19 -35 -18 -27 3 5 14 3 15 -8 5 -20 -19 -63 -17 -55 3 4 11 -3 19 -24
27 -18 7 -30 19 -30 29 0 12 -5 15 -16 11 -14 -5 -14 -3 -2 17 10 18 10 24 0
27 -6 3 -9 10 -5 16 4 6 7 23 8 37 4 82 6 94 13 82 6 -8 12 0 20 25 8 27 8 39
0 44 -6 4 -7 12 -4 18 4 6 0 14 -8 17 -9 3 -16 14 -16 23 0 18 -32 23 -38 6
-2 -6 -8 -15 -14 -22 -5 -7 -7 -22 -3 -34 7 -20 5 -21 -22 -16 -24 5 -29 2
-30 -14 -1 -10 4 -19 11 -19 8 0 21 -11 30 -25 9 -14 12 -25 6 -25 -6 0 -8
-18 -6 -45 4 -37 2 -45 -12 -45 -14 0 -14 -3 4 -18 27 -22 38 -52 19 -52 -8 0
-19 8 -25 18 -10 15 -11 14 -7 -5 6 -27 1 -29 -20 -7 -12 12 -13 18 -4 23 9 6
4 13 -14 25 -31 20 -23 39 13 33 15 -2 21 -2 15 0 -7 3 -13 13 -13 23 0 11
-11 30 -25 44 -14 14 -25 21 -25 16 0 -22 -19 -8 -29 20 -8 24 -7 30 3 30 8 0
16 6 19 13 3 7 -4 12 -19 12 -13 0 -24 -3 -24 -6 0 -14 -34 -19 -42 -7 -5 9
-8 4 -8 -14 0 -14 5 -28 11 -30 9 -3 8 -10 -1 -25 -8 -12 -19 -19 -27 -16 -18
7 -29 -27 -12 -38 12 -7 12 -10 1 -18 -8 -5 -13 -24 -12 -47 1 -22 2 -59 1
-84 -1 -44 -2 -46 -32 -48 -17 -1 -38 3 -45 9 -8 6 -23 9 -34 6 -13 -3 -20 0
-20 9 0 23 -51 18 -57 -6 -5 -18 -13 -20 -64 -18 -39 2 -59 7 -59 16 0 6 -4
12 -10 12 -5 0 -7 -8 -3 -17 5 -15 3 -15 -14 2 -11 12 -23 27 -26 35 -4 12 -6
12 -6 -1 -1 -25 -27 -43 -34 -25 -4 9 -2 18 4 21 11 8 2 25 -13 25 -6 0 -8
-12 -5 -29 4 -21 2 -31 -9 -35 -26 -10 -54 -7 -54 7 0 8 -4 7 -10 -3 -6 -9
-13 -11 -17 -5 -11 15 -63 19 -63 5 0 -7 -14 -11 -32 -10 -68 4 -88 0 -88 -16
0 -14 -1 -14 -16 0 -8 9 -19 14 -24 11 -5 -3 -11 -1 -14 4 -3 5 -15 7 -25 4
-16 -4 -21 2 -26 31 -4 20 -11 36 -15 36 -5 0 -11 9 -15 19 -15 48 -63 2 -56
-53 2 -15 -2 -18 -22 -14 -22 4 -26 1 -31 -34 -5 -31 -10 -38 -29 -38 -17 0
-19 2 -7 10 8 5 11 13 6 17 -4 4 -14 -1 -22 -11 -17 -23 -17 -21 -4 23 12 43
-6 62 -60 65 -22 1 -43 5 -46 9 -18 18 -24 1 -24 -67 0 -41 -4 -77 -8 -80 -5
-3 -18 -2 -30 1 -24 6 -30 29 -10 35 9 3 9 6 0 12 -7 4 -12 2 -12 -3 0 -6 -5
-11 -11 -11 -5 0 -7 4 -4 10 9 15 -24 57 -49 62 -18 4 -26 -2 -36 -26 -10 -22
-10 -31 -2 -34 7 -2 12 -7 12 -12 0 -12 -39 -20 -46 -9 -9 16 -22 10 -30 -13
-7 -22 -7 -22 -15 -3 -6 17 -8 17 -8 3 -1 -10 -8 -18 -17 -18 -13 0 -14 3 -5
13 15 19 1 30 -18 14 -14 -11 -15 -10 -1 7 13 16 12 20 -5 32 -14 11 -21 11
-26 2 -4 -7 -6 -15 -3 -19 2 -4 0 -10 -6 -14 -5 -3 -10 -1 -10 4 0 19 -20 12
-21 -6 0 -12 -4 -8 -11 10 -14 39 -32 34 -24 -7 l7 -34 -172 0 -171 0 6 30 c4
21 2 27 -7 23 -6 -4 -4 0 6 8 23 19 57 10 57 -14 0 -13 -5 -17 -17 -12 -15 5
-16 3 -6 -7 18 -19 58 16 42 37 -6 7 -18 13 -26 13 -11 0 -13 4 -6 13 13 17 1
62 -17 62 -8 0 -14 -8 -14 -18 1 -13 -5 -17 -27 -15 -18 1 -29 8 -29 18 -1 20
-38 99 -39 82 -1 -7 -8 -20 -16 -29 -14 -14 -15 -13 -9 13 4 16 11 31 16 32 4
2 8 10 8 18 0 8 7 11 18 8 10 -4 13 -3 6 3 -6 4 -15 19 -19 32 -6 20 -4 23 9
18 12 -5 18 1 22 22 4 16 17 34 30 42 13 7 24 16 24 20 0 4 -39 10 -87 13 -49
4 -100 9 -115 11 -16 3 -28 1 -28 -3 0 -4 -42 -6 -92 -5 -51 1 -151 3 -223 4
-143 2 -165 6 -165 24 0 17 -98 14 -105 -4 -4 -11 -8 -11 -20 -1 -13 11 -14
10 -9 -5 5 -13 3 -16 -7 -13 -9 3 -14 20 -14 49 0 44 -3 49 -27 49 -9 0 -8 -4
2 -10 12 -8 12 -10 -5 -10 -15 0 -20 -7 -20 -25 0 -30 2 -30 28 -7 19 16 20
16 10 -3 -6 -11 -8 -27 -5 -35 4 -12 3 -13 -10 -3 -8 7 -18 10 -21 6 -18 -18
-111 -8 -101 11 3 6 -1 3 -9 -7 -12 -15 -30 -18 -94 -18 -43 0 -114 0 -158 0
-44 -1 -127 0 -185 1 -58 1 -111 2 -117 1 -21 -2 -15 -21 6 -21 13 0 21 -9 26
-30 4 -17 10 -28 15 -25 4 3 11 -2 14 -11 5 -13 2 -15 -14 -11 -14 3 -20 0
-20 -10 0 -10 6 -14 19 -10 14 3 18 1 14 -9 -6 -16 5 -18 25 -6 7 5 10 17 7
28 -6 18 -6 18 8 2 15 -19 33 -25 22 -9 -8 14 15 25 27 13 6 -6 6 -12 -1 -16
-6 -4 -11 -10 -11 -14 0 -12 47 -7 63 6 12 10 16 9 20 -2 4 -11 1 -13 -10 -9
-11 4 -14 2 -9 -5 7 -11 -6 -17 -28 -13 -4 1 -14 -4 -22 -10 -8 -7 -17 -9 -21
-5 -3 3 -1 6 6 6 7 0 9 5 5 11 -4 7 -20 8 -41 4 -21 -4 -40 -2 -48 5 -12 10
-14 7 -10 -17 2 -15 6 -36 10 -45 5 -13 2 -18 -9 -18 -12 0 -15 -6 -10 -24 5
-22 3 -23 -35 -22 -27 0 -41 5 -41 14 0 7 -4 11 -9 8 -13 -9 -7 22 7 36 7 7
12 17 12 23 0 5 -5 3 -10 -5 -6 -10 -10 -11 -10 -2 0 18 -18 15 -24 -5 -3 -10
-3 1 -1 24 4 36 3 41 -11 36 -13 -5 -15 -2 -9 15 4 16 2 22 -9 22 -8 0 -20 9
-26 19 -13 25 -13 64 0 56 6 -4 8 -10 5 -14 -2 -5 7 -8 20 -8 14 0 28 3 31 8
3 5 0 9 -7 9 -7 0 -9 3 -6 6 3 4 1 16 -4 27 -9 15 -13 17 -20 6 -4 -7 -11 -10
-15 -6 -4 4 1 16 11 27 16 18 17 20 1 26 -10 4 -15 13 -11 21 3 10 1 13 -9 10
-10 -4 -21 8 -35 36 -12 23 -21 34 -21 24z m1040 -137 c0 -5 -7 -7 -15 -4 -8
4 -15 8 -15 10 0 2 7 4 15 4 8 0 15 -4 15 -10z m-1173 -22 c-3 -8 -6 -5 -6 6
-1 11 2 17 5 13 3 -3 4 -12 1 -19z m43 -6 c0 -12 -3 -12 -15 -2 -8 7 -15 13
-15 15 0 1 7 2 15 2 8 0 15 -7 15 -15z m413 -28 c-4 -11 -1 -15 13 -12 12 2
19 -3 19 -12 0 -22 -49 -19 -53 4 -2 10 2 22 10 27 18 12 18 11 11 -7z m92 -4
c3 -5 1 -10 -4 -10 -6 0 -11 5 -11 10 0 6 2 10 4 10 3 0 8 -4 11 -10z m4172
-12 c-3 -8 -6 -5 -6 6 -1 11 2 17 5 13 3 -3 4 -12 1 -19z m-4307 -4 c0 -8 -4
-12 -10 -9 -5 3 -10 10 -10 16 0 5 5 9 10 9 6 0 10 -7 10 -16z m191 -14 c6 0
7 -4 4 -10 -3 -5 -1 -10 4 -10 6 0 11 -9 11 -20 0 -11 -7 -20 -15 -20 -8 0
-15 -4 -15 -10 0 -5 -7 -7 -15 -4 -17 7 -21 44 -5 44 6 0 11 15 11 33 1 17 3
24 6 15 2 -10 9 -18 14 -18z m4159 20 c0 -5 -7 -10 -15 -10 -8 0 -15 5 -15 10
0 6 7 10 15 10 8 0 15 -4 15 -10z m977 4 c-3 -3 -12 -4 -19 -1 -8 3 -5 6 6 6
11 1 17 -2 13 -5z m-203 -19 c-4 -8 -10 -15 -15 -15 -4 0 -6 7 -3 15 4 8 10
15 15 15 4 0 6 -7 3 -15z m66 5 c0 -5 -7 -10 -15 -10 -8 0 -15 5 -15 10 0 6 7
10 15 10 8 0 15 -4 15 -10z m40 0 c0 -5 -4 -10 -10 -10 -5 0 -10 5 -10 10 0 6
5 10 10 10 6 0 10 -4 10 -10z m-5565 -10 c3 -5 1 -10 -4 -10 -6 0 -11 5 -11
10 0 6 2 10 4 10 3 0 8 -4 11 -10z m4582 -12 c-3 -8 -6 -5 -6 6 -1 11 2 17 5
13 3 -3 4 -12 1 -19z m40 16 c-3 -3 -12 -4 -19 -1 -8 3 -5 6 6 6 11 1 17 -2
13 -5z m-3137 -32 c0 -8 -1 -13 -3 -11 -1 2 -9 12 -16 22 -12 15 -12 17 3 11
9 -3 16 -13 16 -22z m3804 1 c-2 -39 -4 -41 -15 -14 -8 21 -3 34 16 41 1 0 0
-12 -1 -27z m-4689 7 c3 -5 1 -10 -4 -10 -6 0 -11 5 -11 10 0 6 2 10 4 10 3 0
8 -4 11 -10z m1109 -14 c-7 -18 -29 -22 -39 -6 -3 6 3 10 14 10 12 0 21 5 21
12 0 6 2 9 5 6 3 -3 3 -13 -1 -22z m-246 -27 c3 -27 1 -32 -9 -21 -18 17 -37
15 -42 -5 -4 -14 -5 -13 -6 3 -1 25 21 38 38 21 8 -8 11 -7 11 6 0 9 -4 17
-10 17 -5 0 -10 5 -10 11 0 27 25 -1 28 -32z m3549 19 c-3 -8 -6 -5 -6 6 -1
11 2 17 5 13 3 -3 4 -12 1 -19z m65 -22 c1 -10 -2 -21 -9 -23 -7 -3 -11 7 -11
27 1 32 14 29 20 -4z m184 7 c-10 -10 -19 5 -10 18 6 11 8 11 12 0 2 -7 1 -15
-2 -18z m-5126 -3 c0 -12 -7 -20 -17 -20 -15 0 -16 2 -3 10 8 5 11 10 7 10 -5
0 -5 5 -2 10 10 16 15 12 15 -10z m1588 -10 c-15 -24 -19 -21 -11 8 3 12 9 19
14 16 5 -3 3 -14 -3 -24z m2112 20 c0 -5 -2 -10 -4 -10 -3 0 -8 5 -11 10 -3 6
-1 10 4 10 6 0 11 -4 11 -10z m900 0 c0 -5 -4 -10 -10 -10 -5 0 -10 5 -10 10
0 6 5 10 10 10 6 0 10 -4 10 -10z m-3194 -38 c-15 -15 -15 -15 -4 10 7 15 15
23 17 17 2 -6 -4 -18 -13 -27z m54 28 c0 -5 -2 -10 -4 -10 -3 0 -8 5 -11 10
-3 6 -1 10 4 10 6 0 11 -4 11 -10z m100 -21 c0 -4 -11 -2 -24 4 -13 7 -22 15
-20 19 5 8 44 -13 44 -23z m3470 21 c0 -5 -4 -10 -10 -10 -5 0 -10 5 -10 10 0
6 5 10 10 10 6 0 10 -4 10 -10z m-5186 -15 c3 -8 2 -15 -3 -15 -5 0 -14 7 -21
15 -10 12 -10 15 3 15 8 0 17 -7 21 -15z m5053 -7 c-3 -8 -6 -5 -6 6 -1 11 2
17 5 13 3 -3 4 -12 1 -19z m173 12 c0 -5 -4 -10 -10 -10 -5 0 -10 5 -10 10 0
6 5 10 10 10 6 0 10 -4 10 -10z m40 0 c0 -5 -4 -10 -10 -10 -5 0 -10 5 -10 10
0 6 5 10 10 10 6 0 10 -4 10 -10z m-375 -10 c3 -5 1 -10 -4 -10 -6 0 -11 5
-11 10 0 6 2 10 4 10 3 0 8 -4 11 -10z m395 -34 c-5 -15 -10 -38 -10 -51 0
-18 -4 -22 -20 -18 -11 3 -20 9 -20 14 0 5 6 6 14 3 20 -8 15 44 -5 58 -11 7
-8 9 9 5 17 -4 22 -1 22 16 0 14 3 18 10 11 8 -8 8 -19 0 -38z m-4755 -11 c7
-29 7 -29 -8 -10 -9 11 -17 29 -17 40 0 27 17 7 25 -30z m-99 -1 c-5 -13 -9
-14 -21 -4 -8 7 -15 18 -14 24 0 7 2 6 6 -1 7 -19 23 -16 24 5 0 10 2 12 6 4
3 -7 2 -20 -1 -28z m4774 10 c0 -28 -15 -25 -23 6 -3 13 0 20 9 20 8 0 14 -10
14 -26z m-4723 -16 c-3 -7 -5 -2 -5 12 0 14 2 19 5 13 2 -7 2 -19 0 -25z
m1233 28 c0 -3 -4 -8 -10 -11 -5 -3 -10 -1 -10 4 0 6 5 11 10 11 6 0 10 -2 10
-4z m2103 -13 c-7 -17 -20 -17 -26 1 -4 10 0 14 12 13 11 -1 17 -7 14 -14z
m137 7 c0 -5 -2 -10 -4 -10 -3 0 -8 5 -11 10 -3 6 -1 10 4 10 6 0 11 -4 11
-10z m800 0 c0 -16 -38 -32 -46 -19 -7 12 12 29 34 29 6 0 12 -4 12 -10z m340
-11 c0 -11 -4 -17 -10 -14 -5 3 -10 13 -10 21 0 8 5 14 10 14 6 0 10 -9 10
-21z m-3582 -18 c3 -8 -1 -12 -9 -9 -7 2 -15 10 -17 17 -3 8 1 12 9 9 7 -2 15
-10 17 -17z m62 -17 c0 -25 -35 -12 -38 14 -3 21 -1 22 17 12 12 -6 21 -18 21
-26z m3076 10 c-5 -25 -4 -25 13 -10 22 20 31 20 31 1 0 -8 -4 -15 -10 -15 -5
0 -10 -4 -10 -10 0 -5 7 -7 15 -4 8 4 15 1 15 -5 0 -6 -4 -11 -10 -11 -5 0
-10 -8 -10 -17 0 -15 -2 -16 -10 -3 -5 8 -13 11 -17 6 -4 -4 0 -13 9 -20 15
-11 15 -13 -3 -24 -17 -11 -19 -9 -19 10 -1 22 -1 23 -15 4 -9 -11 -15 -14
-15 -7 0 8 -7 10 -20 6 -11 -4 -20 -2 -20 4 0 6 -5 11 -11 11 -5 0 -7 -5 -3
-12 4 -7 3 -8 -4 -4 -7 4 -12 2 -12 -4 0 -6 -4 -9 -10 -5 -5 3 -2 14 8 26 9
11 16 33 15 52 -1 17 1 24 4 14 4 -18 6 -18 24 -1 15 14 21 14 34 4 13 -10 15
-9 15 7 0 18 8 33 17 33 2 0 1 -12 -1 -26z m129 16 c-3 -5 -10 -10 -16 -10 -5
0 -9 5 -9 10 0 6 7 10 16 10 8 0 12 -4 9 -10z m38 -16 c-1 -10 3 -22 9 -25 5
-4 3 -9 -6 -12 -10 -4 -16 -1 -16 8 0 17 -2 17 -24 9 -17 -7 -11 -33 12 -51
14 -12 14 -13 -1 -13 -9 0 -21 -9 -27 -20 -6 -10 -16 -17 -24 -14 -8 3 -17 -7
-24 -28 -6 -18 -11 -24 -10 -13 1 37 -2 39 -26 16 -13 -12 -26 -19 -29 -14 -3
4 10 19 29 33 22 16 33 31 30 42 -5 24 11 33 30 17 8 -6 17 -9 21 -5 3 3 1 6
-5 6 -7 0 -12 9 -12 20 0 21 52 54 66 42 5 -4 2 2 -6 12 -13 17 -13 19 0 14 8
-3 14 -14 13 -24z m427 5 c0 -5 -4 -9 -10 -9 -5 0 -10 7 -10 16 0 8 5 12 10 9
6 -3 10 -10 10 -16z m-207 -9 c3 -11 1 -20 -4 -20 -5 0 -9 9 -9 20 0 11 2 20
4 20 2 0 6 -9 9 -20z m27 16 c0 -3 -4 -8 -10 -11 -5 -3 -10 -1 -10 4 0 6 5 11
10 11 6 0 10 -2 10 -4z m240 -11 c0 -8 -4 -15 -10 -15 -5 0 -10 7 -10 15 0 8
5 15 10 15 6 0 10 -7 10 -15z m-3690 -17 c0 -13 -23 -5 -28 10 -2 7 2 10 12 6
9 -3 16 -11 16 -16z m109 -10 c8 3 11 0 7 -7 -4 -6 -13 -11 -21 -11 -7 0 -15
-6 -18 -12 -2 -7 -4 3 -5 22 0 29 1 32 11 19 7 -9 18 -14 26 -11z m-939 3 c0
-5 -7 -11 -15 -15 -15 -5 -20 5 -8 17 9 10 23 9 23 -2z m990 -7 c0 -8 -5 -12
-10 -9 -6 4 -8 11 -5 16 9 14 15 11 15 -7z m2740 -14 c-6 -4 -11 -10 -11 -14
3 -22 0 -36 -10 -36 -5 0 -7 5 -4 10 3 6 2 10 -4 10 -14 0 -2 32 18 48 11 9
17 10 20 1 2 -6 -2 -15 -9 -19z m690 0 c-24 -15 -31 -11 -18 10 9 13 16 16 23
9 7 -7 5 -13 -5 -19z m110 4 c0 -8 -5 -12 -10 -9 -6 4 -8 11 -5 16 9 14 15 11
15 -7z m-4795 -4 c3 -5 1 -10 -4 -10 -6 0 -11 5 -11 10 0 6 2 10 4 10 3 0 8
-4 11 -10z m35 0 c0 -5 -4 -10 -10 -10 -5 0 -10 5 -10 10 0 6 5 10 10 10 6 0
10 -4 10 -10z m1020 -2 c0 -6 -3 -8 -7 -5 -3 4 -12 2 -20 -4 -8 -8 -13 -8 -13
-1 0 10 15 19 33 21 4 1 7 -4 7 -11z m2824 -1 c3 3 6 -5 6 -18 -1 -21 -2 -22
-11 -6 -5 9 -17 17 -24 17 -8 0 -15 5 -15 10 0 7 6 7 19 1 10 -6 21 -7 25 -4z
m-3654 -7 c0 -5 -2 -10 -4 -10 -3 0 -8 5 -11 10 -3 6 -1 10 4 10 6 0 11 -4 11
-10z m4185 -20 c3 -5 1 -10 -4 -10 -6 0 -11 5 -11 10 0 6 2 10 4 10 3 0 8 -4
11 -10z m182 -12 c-3 -8 -6 -5 -6 6 -1 11 2 17 5 13 3 -3 4 -12 1 -19z m190
-10 c-3 -7 -5 -2 -5 12 0 14 2 19 5 13 2 -7 2 -19 0 -25z m-927 0 c0 -18 -2
-20 -9 -8 -6 8 -7 18 -5 22 9 14 14 9 14 -14z m-4088 -17 c-18 -18 -28 -10
-18 14 3 8 12 12 20 9 12 -5 12 -8 -2 -23z m4728 19 c0 -5 -4 -10 -10 -10 -5
0 -10 5 -10 10 0 6 5 10 10 10 6 0 10 -4 10 -10z m-4773 -22 c-3 -8 -6 -5 -6
6 -1 11 2 17 5 13 3 -3 4 -12 1 -19z m4573 -1 c0 -7 -9 -13 -20 -14 -25 -2
-27 14 -2 20 9 3 18 5 20 6 1 0 2 -5 2 -12z m357 -20 c-13 -24 -14 -24 -25 -6
-16 25 -15 32 3 26 8 -4 17 -2 21 4 13 21 14 1 1 -24z m-117 14 c0 -6 -4 -13
-10 -16 -5 -3 -10 1 -10 9 0 9 5 16 10 16 6 0 10 -4 10 -9z m-2270 -34 c0 -5
-4 -5 -10 -2 -5 3 -10 14 -10 23 0 15 2 15 10 2 5 -8 10 -19 10 -23z m280 23
c0 -5 -7 -10 -16 -10 -8 0 -12 -4 -9 -10 3 -5 -2 -10 -13 -10 -24 0 -32 8 -25
26 6 16 63 19 63 4z m1840 -1 c0 -5 -4 -7 -10 -4 -5 3 -10 1 -10 -6 0 -7 -3
-10 -6 -6 -8 7 4 27 17 27 5 0 9 -5 9 -11z m-1658 -41 c-9 -9 -12 -7 -12 12 0
19 3 21 12 12 9 -9 9 -15 0 -24z m1373 22 c3 -5 1 -10 -4 -10 -6 0 -11 5 -11
10 0 6 2 10 4 10 3 0 8 -4 11 -10z m150 0 c3 -5 -1 -10 -9 -10 -9 0 -16 5 -16
10 0 6 4 10 9 10 6 0 13 -4 16 -10z m420 0 c3 -5 1 -10 -4 -10 -6 0 -11 5 -11
10 0 6 2 10 4 10 3 0 8 -4 11 -10z m181 -77 c-10 -10 -19 5 -10 18 6 11 8 11
12 0 2 -7 1 -15 -2 -18z m-56 -14 c0 -5 -4 -9 -10 -9 -5 0 -10 7 -10 16 0 8 5
12 10 9 6 -3 10 -10 10 -16z m-40 -14 c0 -8 -4 -15 -10 -15 -5 0 -7 7 -4 15 4
8 8 15 10 15 2 0 4 -7 4 -15z m100 -24 c0 -6 -4 -13 -10 -16 -5 -3 -10 1 -10
9 0 9 5 16 10 16 6 0 10 -4 10 -9z m-5825 -81 c3 -5 1 -10 -4 -10 -6 0 -11 5
-11 10 0 6 2 10 4 10 3 0 8 -4 11 -10z m6048 -27 c3 -5 -6 -9 -19 -9 -13 -1
-24 2 -24 7 0 11 37 12 43 2z m-283 -71 c0 -28 -26 -48 -34 -26 -9 24 -7 42 3
26 7 -11 9 -11 14 2 3 8 2 18 -3 21 -6 4 -10 11 -10 16 0 6 7 4 15 -5 8 -8 15
-23 15 -34z m60 34 c0 -3 -4 -8 -10 -11 -5 -3 -10 -1 -10 4 0 6 5 11 10 11 6
0 10 -2 10 -4z m-110 -42 c0 -8 -4 -12 -10 -9 -5 3 -10 13 -10 21 0 8 5 12 10
9 6 -3 10 -13 10 -21z m-53 -28 c0 -8 -6 -12 -14 -9 -7 3 -10 9 -7 14 8 14 21
11 21 -5z m33 -6 c0 -5 -4 -10 -10 -10 -5 0 -10 5 -10 10 0 6 5 10 10 10 6 0
10 -4 10 -10z m-73 -22 c-3 -8 -6 -5 -6 6 -1 11 2 17 5 13 3 -3 4 -12 1 -19z
m-37 -33 c-7 -8 -16 -12 -21 -10 -4 3 -1 14 9 23 20 20 30 9 12 -13z m-5390
-1 c0 -8 -4 -12 -10 -9 -5 3 -10 10 -10 16 0 5 5 9 10 9 6 0 10 -7 10 -16z
m40 -10 c0 -8 -4 -14 -9 -14 -5 0 -11 -10 -13 -22 -4 -28 -24 -35 -24 -8 0 11
4 20 8 20 4 0 8 11 8 25 0 18 4 23 15 19 8 -4 15 -12 15 -20z m5413 -9 c-7
-21 -13 -19 -13 6 0 11 4 18 10 14 5 -3 7 -12 3 -20z m87 -23 c0 -21 -2 -24
-10 -12 -8 13 -10 13 -10 -2 0 -9 6 -18 13 -21 9 -3 9 -8 1 -17 -9 -9 -14 -4
-22 19 -7 19 -7 33 -1 36 17 11 9 24 -12 20 -17 -3 -19 -2 -9 10 18 22 50 1
50 -33z m17 26 c-3 -8 -6 -5 -6 6 -1 11 2 17 5 13 3 -3 4 -12 1 -19z m21 -36
c2 -7 -2 -10 -12 -6 -9 3 -16 11 -16 16 0 13 23 5 28 -10z m-98 -2 c0 -5 -2
-10 -4 -10 -3 0 -8 5 -11 10 -3 6 -1 10 4 10 6 0 11 -4 11 -10z m-5430 -21 c0
-5 -4 -9 -10 -9 -5 0 -10 7 -10 16 0 8 5 12 10 9 6 -3 10 -10 10 -16z m5575 2
c3 -5 1 -12 -5 -16 -5 -3 -10 1 -10 9 0 18 6 21 15 7z m-5585 -31 c0 -4 -7
-10 -15 -14 -10 -4 -15 1 -15 14 0 13 5 18 15 14 8 -4 15 -10 15 -14z m5 -87
c4 -29 3 -43 -4 -43 -6 0 -11 15 -11 34 0 19 -3 43 -6 53 -5 12 -4 15 3 8 6
-5 14 -29 18 -52z m5629 51 c23 -9 20 -23 -4 -21 -11 1 -20 7 -20 14 0 15 2
15 24 7z m-5597 -36 c-3 -8 -6 -5 -6 6 -1 11 2 17 5 13 3 -3 4 -12 1 -19z
m5600 -20 c-3 -8 -6 -5 -6 6 -1 11 2 17 5 13 3 -3 4 -12 1 -19z m45 -10 c-7
-7 -12 -8 -12 -2 0 14 12 26 19 19 2 -3 -1 -11 -7 -17z m155 -40 c-3 -8 -6 -5
-6 6 -1 11 2 17 5 13 3 -3 4 -12 1 -19z m-410 -10 c-3 -8 -6 -5 -6 6 -1 11 2
17 5 13 3 -3 4 -12 1 -19z m-5387 -13 c-10 -12 -10 -19 -2 -27 15 -15 15 -28
0 -28 -6 0 -9 3 -5 6 3 4 -1 13 -10 22 -14 14 -14 17 3 29 24 17 29 16 14 -2z
m0 -75 c0 -5 -2 -10 -4 -10 -3 0 -8 5 -11 10 -3 6 -1 10 4 10 6 0 11 -4 11
-10z m-9 -43 c-10 -9 -11 -8 -5 6 3 10 9 15 12 12 3 -3 0 -11 -7 -18z m5439
-67 c0 -5 -8 -10 -17 -10 -15 0 -16 2 -3 10 19 12 20 12 20 0z m176 -198 c-17
-16 -18 -16 -5 5 7 12 15 20 18 17 3 -2 -3 -12 -13 -22z m38 -1 c3 -5 -1 -14
-8 -20 -12 -10 -14 -9 -11 6 2 10 4 19 4 21 2 5 10 2 15 -7z m-84 -33 c0 -5 5
-6 10 -3 12 7 13 -5 1 -23 -6 -11 -10 -11 -18 0 -20 26 -22 35 -8 35 8 0 15
-4 15 -9z m-36 -44 c9 -3 16 -9 16 -13 0 -13 -25 -9 -38 6 -14 14 -4 17 22 7z
m16 -38 c0 -11 -19 -15 -25 -6 -3 5 1 10 9 10 9 0 16 -2 16 -4z m260 -20 c0
-2 -7 -7 -16 -10 -8 -3 -12 -2 -9 4 6 10 25 14 25 6z m-126 -40 c8 3 16 -3 18
-14 4 -14 0 -18 -16 -16 -12 1 -23 3 -26 4 -3 1 -8 2 -12 1 -5 0 -8 11 -8 25
0 23 2 24 15 10 9 -8 22 -13 29 -10z m-110 -12 c4 -9 2 -13 -5 -8 -6 4 -15 0
-20 -7 -7 -11 -9 -11 -9 3 0 9 6 19 13 21 6 3 13 6 13 6 1 1 5 -6 8 -15z m178
-7 c-6 -7 -9 -24 -6 -38 2 -13 1 -17 -2 -9 -4 8 -11 18 -16 21 -13 8 2 39 19
39 12 0 13 -3 5 -13z m-142 -13 c0 -3 -7 -12 -15 -20 -16 -17 -18 -14 -9 10 6
15 24 23 24 10z m245 -14 c3 -5 -4 -6 -15 -3 -11 3 -27 0 -35 -7 -9 -7 -19
-10 -23 -6 -11 12 27 34 49 29 10 -3 21 -9 24 -13z m-295 -15 c14 -16 10 -18
-14 -9 -9 3 -16 10 -16 15 0 14 16 11 30 -6z m230 -35 c0 -5 -5 -10 -11 -10
-5 0 -7 5 -4 10 3 6 8 10 11 10 2 0 4 -4 4 -10z m-223 -20 c-3 -11 -2 -20 1
-20 4 0 7 -16 7 -35 0 -19 -3 -35 -6 -35 -8 0 -19 92 -12 102 9 15 15 8 10
-12z m113 -160 c0 -5 -2 -10 -4 -10 -3 0 -8 5 -11 10 -3 6 -1 10 4 10 6 0 11
-4 11 -10z m155 0 c3 -5 -1 -10 -9 -10 -9 0 -16 5 -16 10 0 6 4 10 9 10 6 0
13 -4 16 -10z m41 -32 c4 -6 3 -8 -4 -4 -5 3 -12 0 -15 -6 -2 -7 -8 -9 -13 -5
-5 4 -2 12 6 17 19 12 17 12 26 -2z m-276 -28 c0 -5 -5 -10 -11 -10 -5 0 -7 5
-4 10 3 6 8 10 11 10 2 0 4 -4 4 -10z m80 6 c0 -3 -4 -8 -10 -11 -5 -3 -10 -1
-10 4 0 6 5 11 10 11 6 0 10 -2 10 -4z m115 -27 c-5 -15 -4 -19 4 -15 6 4 11
13 11 21 0 8 9 13 20 12 25 -2 25 -1 -7 -33 -17 -17 -37 -27 -55 -26 -25 1
-28 -2 -23 -21 6 -20 5 -21 -8 -4 -8 9 -22 17 -31 17 -9 0 -16 5 -16 11 0 7
10 9 26 5 21 -6 27 -3 31 14 3 12 11 19 18 16 8 -3 16 2 19 10 9 22 18 16 11
-7z m-154 -23 c8 4 9 3 5 -4 -4 -7 -13 -12 -21 -12 -16 0 -28 27 -18 43 4 6
10 1 15 -12 5 -13 12 -19 19 -15z m-61 20 c0 -3 -4 -8 -10 -11 -5 -3 -10 -1
-10 4 0 6 5 11 10 11 6 0 10 -2 10 -4z m130 -6 c0 -5 -2 -10 -4 -10 -2 0 -12
-3 -20 -6 -12 -5 -15 -2 -10 10 7 17 34 22 34 6z m30 0 c0 -5 -2 -10 -4 -10
-3 0 -8 5 -11 10 -3 6 -1 10 4 10 6 0 11 -4 11 -10z m-6170 -10 c0 -5 -2 -10
-4 -10 -3 0 -8 5 -11 10 -3 6 -1 10 4 10 6 0 11 -4 11 -10z m6260 -40 c0 -5
-2 -10 -4 -10 -3 0 -8 5 -11 10 -3 6 -1 10 4 10 6 0 11 -4 11 -10z m31 -82
c-6 -29 -31 -53 -31 -29 0 6 5 11 10 11 6 0 10 8 10 18 0 16 8 32 15 32 2 0 0
-14 -4 -32z m-6231 -168 c-19 -13 -30 -13 -30 0 0 6 10 10 23 10 18 0 19 -2 7
-10z m6080 -34 c0 -3 -4 -8 -10 -11 -5 -3 -10 -1 -10 4 0 6 5 11 10 11 6 0 10
-2 10 -4z m30 -25 c0 -6 -4 -13 -10 -16 -5 -3 -10 1 -10 9 0 9 5 16 10 16 6 0
10 -4 10 -9z m-115 -31 c3 -5 1 -10 -4 -10 -6 0 -11 5 -11 10 0 6 2 10 4 10 3
0 8 -4 11 -10z m-5975 -42 c0 -5 -7 -3 -15 6 -8 8 -15 18 -15 22 0 3 7 1 15
-6 8 -7 15 -17 15 -22z m5870 -48 c0 -5 -4 -10 -10 -10 -5 0 -10 5 -10 10 0 6
5 10 10 10 6 0 10 -4 10 -10z m-5935 -10 c3 -5 1 -10 -4 -10 -6 0 -11 5 -11
10 0 6 2 10 4 10 3 0 8 -4 11 -10z m39 -28 c-22 -5 -31 7 -14 18 9 6 17 5 22
-3 4 -7 1 -13 -8 -15z m5858 -10 c4 -12 -1 -18 -13 -19 -16 -2 -17 1 -6 18 14
23 14 23 19 1z m-127 -12 c3 -5 1 -10 -4 -10 -6 0 -11 5 -11 10 0 6 2 10 4 10
3 0 8 -4 11 -10z m-5725 -30 c0 -5 -7 -10 -16 -10 -8 0 -12 5 -9 10 3 6 10 10
16 10 5 0 9 -4 9 -10z m5765 -20 c3 -5 1 -10 -4 -10 -6 0 -11 5 -11 10 0 6 2
10 4 10 3 0 8 -4 11 -10z m10 -40 c3 -5 1 -10 -4 -10 -6 0 -11 5 -11 10 0 6 2
10 4 10 3 0 8 -4 11 -10z m15 -32 c0 -7 -5 -20 -10 -28 -8 -12 -10 -9 -10 13
0 15 5 27 10 27 6 0 10 -6 10 -12z m15 -68 c-3 -5 -12 -10 -18 -10 -7 0 -6 4
3 10 19 12 23 12 15 0z m-5735 -111 c0 -6 -4 -7 -10 -4 -5 3 -10 11 -10 16 0
6 5 7 10 4 6 -3 10 -11 10 -16z m4 -44 c-4 -8 -11 -15 -16 -15 -6 0 -5 6 2 15
7 8 14 15 16 15 2 0 1 -7 -2 -15z m226 -22 c0 -18 5 -33 10 -33 6 0 10 -13 10
-30 0 -16 -4 -30 -10 -30 -5 0 -7 -7 -4 -15 4 -8 11 -12 17 -8 6 3 7 1 3 -5
-4 -7 -14 -12 -22 -12 -8 0 -14 -4 -14 -10 0 -5 -4 -10 -9 -10 -5 0 -8 16 -6
35 2 19 -1 35 -5 35 -15 0 -18 41 -4 68 l14 27 1 -30 2 -30 4 28 c3 20 -1 33
-14 42 -17 13 -17 14 5 12 18 -1 22 -7 22 -34z m17 -15 c-3 -8 -6 -5 -6 6 -1
11 2 17 5 13 3 -3 4 -12 1 -19z m5443 -18 c0 -5 -2 -10 -4 -10 -3 0 -8 5 -11
10 -3 6 -1 10 4 10 6 0 11 -4 11 -10z m-5680 -14 c0 -3 -4 -8 -10 -11 -5 -3
-10 -1 -10 4 0 6 5 11 10 11 6 0 10 -2 10 -4z m5670 -80 c-13 -39 -30 -48 -30
-15 0 11 -4 17 -10 14 -5 -3 -10 2 -10 11 0 14 3 15 12 6 20 -20 28 -13 21 21
-5 30 -5 31 12 16 15 -15 16 -22 5 -53z m-130 44 c0 -5 -4 -10 -10 -10 -5 0
-10 5 -10 10 0 6 5 10 10 10 6 0 10 -4 10 -10z m-5360 -64 c0 -3 -4 -8 -10
-11 -5 -3 -10 -1 -10 4 0 6 5 11 10 11 6 0 10 -2 10 -4z m5512 -21 c0 -5 -5
-11 -11 -13 -6 -2 -11 4 -11 13 0 9 5 15 11 13 6 -2 11 -8 11 -13z m-5492 -25
c0 -13 5 -18 15 -14 18 7 20 -11 3 -22 -6 -4 -17 1 -25 11 -15 22 -17 45 -3
45 6 0 10 -9 10 -20z m5427 -2 c-3 -8 -6 -5 -6 6 -1 11 2 17 5 13 3 -3 4 -12
1 -19z m83 -8 c0 -5 -2 -10 -4 -10 -3 0 -8 5 -11 10 -3 6 -1 10 4 10 6 0 11
-4 11 -10z m-143 -37 c-3 -10 -5 -4 -5 12 0 17 2 24 5 18 2 -7 2 -21 0 -30z
m38 16 c11 -17 -1 -21 -15 -4 -8 9 -8 15 -2 15 6 0 14 -5 17 -11z m65 -39 c0
-5 -4 -10 -10 -10 -5 0 -10 5 -10 10 0 6 5 10 10 10 6 0 10 -4 10 -10z m-5450
-20 c0 -5 -5 -10 -11 -10 -5 0 -7 5 -4 10 3 6 8 10 11 10 2 0 4 -4 4 -10z m67
-12 c-3 -8 -6 -5 -6 6 -1 11 2 17 5 13 3 -3 4 -12 1 -19z m-40 -17 c1 -14 -3
-17 -19 -13 -18 4 -20 2 -16 -16 4 -12 2 -20 -3 -16 -14 8 -11 25 8 46 21 23
28 23 30 -1z m5443 -64 c12 -9 19 -20 15 -27 -10 -16 -55 36 -54 63 l0 22 9
-21 c5 -12 18 -29 30 -37z m-80 -47 c0 -5 -5 -10 -11 -10 -5 0 -7 5 -4 10 3 6
8 10 11 10 2 0 4 -4 4 -10z m65 -150 c3 -5 1 -10 -4 -10 -6 0 -11 5 -11 10 0
6 2 10 4 10 3 0 8 -4 11 -10z m-5395 -10 c0 -5 -4 -10 -10 -10 -5 0 -10 5 -10
10 0 6 5 10 10 10 6 0 10 -4 10 -10z m5477 -12 c-3 -8 -6 -5 -6 6 -1 11 2 17
5 13 3 -3 4 -12 1 -19z m-27 -34 c0 -8 -19 -13 -24 -6 -3 5 1 9 9 9 8 0 15 -2
15 -3z m-95 -23 c-3 -6 -11 -11 -17 -11 -6 0 -6 6 2 15 14 17 26 13 15 -4z
m50 1 c-3 -3 -11 0 -18 7 -9 10 -8 11 6 5 10 -3 15 -9 12 -12z m-440 -131 c-6
-21 -25 -29 -25 -11 0 6 5 10 10 10 6 0 10 8 10 17 0 9 3 14 6 10 3 -3 3 -15
-1 -26z m121 4 c7 -30 -2 -59 -16 -50 -6 4 -7 11 -4 17 4 6 0 15 -7 20 -12 8
-12 10 0 15 11 5 11 7 0 14 -11 7 -10 9 3 9 10 0 20 -10 24 -25z m-47 -47 c2
-30 -16 -20 -23 13 -7 39 5 64 15 29 4 -14 7 -33 8 -42z m-4932 20 c-3 -8 -6
-5 -6 6 -1 11 2 17 5 13 3 -3 4 -12 1 -19z m-320 -20 c-3 -8 -6 -5 -6 6 -1 11
2 17 5 13 3 -3 4 -12 1 -19z m-20 -50 c-3 -8 -6 -5 -6 6 -1 11 2 17 5 13 3 -3
4 -12 1 -19z m5463 -5 c0 -15 -2 -16 -10 -3 -8 12 -10 12 -10 1 0 -8 -3 -12
-6 -8 -8 7 4 27 17 27 5 0 9 -8 9 -17z m-5140 -3 c0 -5 -5 -10 -11 -10 -5 0
-7 5 -4 10 3 6 8 10 11 10 2 0 4 -4 4 -10z m130 0 c0 -5 -4 -10 -10 -10 -5 0
-10 5 -10 10 0 6 5 10 10 10 6 0 10 -4 10 -10z m4670 -38 c0 -15 -2 -15 -10
-2 -13 20 -13 33 0 25 6 -3 10 -14 10 -23z m235 19 c3 -5 1 -12 -5 -16 -5 -3
-10 1 -10 9 0 18 6 21 15 7z m64 -22 c3 -11 1 -11 -14 1 -17 14 -18 13 -12
-10 4 -14 7 -31 7 -39 0 -8 6 -11 15 -7 19 7 19 -1 1 -19 -12 -12 -16 -10 -26
16 -12 28 -14 29 -31 13 -24 -21 -24 -5 -1 39 13 27 21 33 36 27 11 -4 22 -13
25 -21z m-5049 -13 c0 -8 -4 -18 -10 -21 -5 -3 -10 3 -10 14 0 12 5 21 10 21
6 0 10 -6 10 -14z m5069 -17 c-19 -11 -24 -3 -8 14 8 9 16 11 18 5 2 -6 -3
-14 -10 -19z m-5122 -11 c-3 -7 -5 -2 -5 12 0 14 2 19 5 13 2 -7 2 -19 0 -25z
m5007 17 c-4 -8 -8 -15 -10 -15 -2 0 -4 7 -4 15 0 8 4 15 10 15 5 0 7 -7 4
-15z m-209 -5 c-3 -5 -12 -10 -18 -10 -7 0 -6 4 3 10 19 12 23 12 15 0z
m-4203 -49 c-3 -9 -1 -12 6 -7 7 4 12 2 12 -3 0 -6 -4 -11 -9 -11 -17 0 -30
27 -24 50 6 22 7 22 13 4 4 -10 5 -25 2 -33z m38 24 c0 -8 -4 -15 -10 -15 -5
0 -10 7 -10 15 0 8 5 15 10 15 6 0 10 -7 10 -15z m4247 -37 c-3 -8 -6 -5 -6 6
-1 11 2 17 5 13 3 -3 4 -12 1 -19z m93 -2 c0 -3 -4 -8 -10 -11 -5 -3 -10 -1
-10 4 0 6 5 11 10 11 6 0 10 -2 10 -4z m-4495 -17 c11 -17 -1 -21 -15 -4 -8 9
-8 15 -2 15 6 0 14 -5 17 -11z m4065 -20 c0 -6 -4 -7 -10 -4 -5 3 -10 11 -10
16 0 6 5 7 10 4 6 -3 10 -11 10 -16z m350 12 c0 -6 -4 -13 -10 -16 -5 -3 -10
1 -10 9 0 9 5 16 10 16 6 0 10 -4 10 -9z m-4934 -48 c-10 -10 -19 5 -10 18 6
11 8 11 12 0 2 -7 1 -15 -2 -18z m104 23 c0 -3 -4 -8 -10 -11 -5 -3 -10 -1
-10 4 0 6 5 11 10 11 6 0 10 -2 10 -4z m110 -5 c0 -6 -4 -13 -10 -16 -5 -3
-10 1 -10 9 0 9 5 16 10 16 6 0 10 -4 10 -9z m4751 -15 c15 9 10 -6 -7 -23 -8
-9 -12 -23 -9 -32 5 -12 3 -13 -5 -5 -6 6 -13 20 -14 30 -4 22 16 53 22 35 2
-6 8 -9 13 -5z m-4811 -16 c0 -5 -6 -7 -14 -4 -7 3 -16 -2 -20 -11 -7 -19 -26
-11 -26 12 0 9 6 13 15 10 8 -4 17 -2 20 4 7 11 25 3 25 -11z m45 -10 c3 -6
-1 -7 -9 -4 -18 7 -21 14 -7 14 6 0 13 -4 16 -10z m4715 6 c0 -3 -4 -8 -10
-11 -5 -3 -10 -1 -10 4 0 6 5 11 10 11 6 0 10 -2 10 -4z m-40 -10 c0 -3 -4 -8
-10 -11 -5 -3 -10 -1 -10 4 0 6 5 11 10 11 6 0 10 -2 10 -4z m-4632 -20 c-7
-8 -15 -12 -17 -11 -5 6 10 25 20 25 5 0 4 -6 -3 -14z m334 -8 c-7 -7 -12 -8
-12 -2 0 14 12 26 19 19 2 -3 -1 -11 -7 -17z m-366 -6 c-3 -2 1 -14 9 -26 17
-23 19 -36 6 -36 -5 0 -15 15 -22 33 -7 17 -14 35 -17 40 -2 4 4 4 13 1 9 -4
14 -9 11 -12z m445 -1 c1 -3 2 -27 3 -53 1 -37 -2 -48 -14 -49 -13 0 -12 -1 1
-7 13 -6 15 -12 6 -32 l-10 -25 -7 30 c-3 17 -3 40 2 53 11 33 10 50 -3 32 -8
-12 -9 -11 -6 5 2 11 9 19 15 18 17 -4 15 14 -3 21 -8 3 -15 10 -15 15 0 11
29 4 31 -8z m4257 -9 c-3 -28 -28 -43 -28 -17 0 9 5 13 11 9 8 -4 8 -1 1 13
-9 15 -8 20 4 20 10 0 14 -8 12 -25z m-4788 -12 c0 -5 -4 -10 -10 -10 -5 0
-10 5 -10 10 0 6 5 10 10 10 6 0 10 -4 10 -10z m200 -10 c1 8 9 -2 20 -23 16
-32 17 -41 6 -62 -7 -14 -16 -22 -19 -18 -4 3 -7 -6 -7 -21 0 -18 -5 -26 -12
-24 -16 6 -27 117 -13 140 7 13 11 14 17 5 6 -9 8 -8 8 3z m-60 -10 c0 -5 -5
-10 -11 -10 -5 0 -7 5 -4 10 3 6 8 10 11 10 2 0 4 -4 4 -10z m110 -22 c0 -16
-3 -19 -11 -11 -6 6 -8 16 -5 22 11 17 16 13 16 -11z m87 -10 c-3 -7 -5 -2 -5
12 0 14 2 19 5 13 2 -7 2 -19 0 -25z m4138 13 c3 -5 1 -12 -5 -16 -5 -3 -10 1
-10 9 0 18 6 21 15 7z m42 -13 c-3 -8 -6 -5 -6 6 -1 11 2 17 5 13 3 -3 4 -12
1 -19z m323 12 c0 -5 -4 -10 -10 -10 -5 0 -10 5 -10 10 0 6 5 10 10 10 6 0 10
-4 10 -10z m-4751 -62 c1 -15 -3 -30 -9 -33 -5 -3 -10 -2 -10 3 0 5 -9 12 -20
15 -14 4 -20 14 -20 33 0 26 1 26 13 9 10 -12 16 -14 21 -7 4 7 2 12 -4 12 -7
0 -6 5 2 14 11 12 14 11 20 -3 4 -9 7 -28 7 -43z m41 42 c0 -5 -2 -10 -4 -10
-3 0 -8 5 -11 10 -3 6 -1 10 4 10 6 0 11 -4 11 -10z m4307 -12 c-3 -8 -6 -5
-6 6 -1 11 2 17 5 13 3 -3 4 -12 1 -19z m358 13 c-3 -6 2 -14 11 -19 9 -5 14
-14 10 -21 -11 -18 -26 -13 -19 7 6 15 5 15 -10 3 -20 -16 -22 -42 -5 -59 9
-9 8 -12 -5 -12 -10 0 -17 8 -17 20 0 13 -5 18 -15 14 -24 -9 -17 9 10 30 14
10 25 25 25 32 0 8 5 14 11 14 5 0 8 -4 4 -9z m-75 -16 c10 -12 10 -15 -4 -15
-9 0 -16 7 -16 15 0 8 2 15 4 15 2 0 9 -7 16 -15z m200 5 c0 -5 -4 -10 -10
-10 -5 0 -10 5 -10 10 0 6 5 10 10 10 6 0 10 -4 10 -10z m-4653 -32 c-3 -7 -5
-2 -5 12 0 14 2 19 5 13 2 -7 2 -19 0 -25z m4594 11 c-13 -11 -26 -17 -29 -14
-7 6 29 34 43 34 6 0 -1 -9 -14 -20z m-4456 1 c3 -5 1 -10 -4 -10 -6 0 -11 5
-11 10 0 6 2 10 4 10 3 0 8 -4 11 -10z m4298 -29 c-6 -8 -44 -8 -49 1 -3 4 1
14 7 21 11 11 16 11 29 -2 9 -9 15 -18 13 -20z m-4589 -21 c-5 -5 -10 4 -11
23 -1 30 -1 31 9 9 7 -14 8 -26 2 -32z m168 18 c-8 -8 -9 -4 -5 13 4 13 8 18
11 10 2 -7 -1 -18 -6 -23z m4150 0 c-9 -9 -12 -7 -12 12 0 19 3 21 12 12 9 -9
9 -15 0 -24z m58 23 c0 -6 -4 -13 -10 -16 -5 -3 -10 1 -10 9 0 9 5 16 10 16 6
0 10 -4 10 -9z m600 -32 c0 -27 -17 -23 -22 5 -4 17 -1 23 9 19 7 -3 13 -14
13 -24z m-593 -11 c-3 -8 -6 -5 -6 6 -1 11 2 17 5 13 3 -3 4 -12 1 -19z m313
12 c0 -5 -2 -10 -4 -10 -3 0 -8 5 -11 10 -3 6 -1 10 4 10 6 0 11 -4 11 -10z
m-260 -10 c0 -5 -2 -10 -4 -10 -3 0 -8 5 -11 10 -3 6 -1 10 4 10 6 0 11 -4 11
-10z m445 0 c-3 -5 -10 -10 -16 -10 -5 0 -9 5 -9 10 0 6 7 10 16 10 8 0 12 -4
9 -10z m-125 -10 c0 -5 -2 -10 -4 -10 -3 0 -8 5 -11 10 -3 6 -1 10 4 10 6 0
11 -4 11 -10z m-200 -10 c0 -5 -2 -10 -4 -10 -3 0 -8 5 -11 10 -3 6 -1 10 4
10 6 0 11 -4 11 -10z m354 -6 c5 -14 4 -15 -9 -4 -17 14 -19 20 -6 20 5 0 12
-7 15 -16z m-533 -31 c-10 -17 -10 -16 -11 3 0 23 13 41 18 25 2 -6 -1 -18 -7
-28z m546 -3 c14 0 25 -28 13 -35 -5 -3 -11 -1 -15 4 -3 6 -12 8 -20 5 -10 -4
-12 0 -8 15 6 24 -12 29 -21 6 -3 -8 -10 -15 -16 -15 -6 0 -4 10 5 23 8 13 12
28 8 33 -5 5 4 -1 18 -13 14 -13 30 -23 36 -23z m53 16 c0 -3 -4 -8 -10 -11
-5 -3 -10 -1 -10 4 0 6 5 11 10 11 6 0 10 -2 10 -4z"/>
<path d="M6974 5369 c-3 -6 0 -18 9 -26 13 -14 15 -13 14 11 -2 27 -11 34 -23
15z"/>
<path d="M3290 5765 c0 -14 5 -25 10 -25 6 0 10 7 10 15 0 8 5 15 10 15 6 0
10 5 10 10 0 6 -9 10 -20 10 -15 0 -20 -7 -20 -25z"/>
<path d="M3225 5740 c3 -5 8 -10 11 -10 2 0 4 5 4 10 0 6 -5 10 -11 10 -5 0
-7 -4 -4 -10z"/>
<path d="M2975 5710 c-3 -5 1 -10 9 -10 9 0 16 5 16 10 0 6 -4 10 -9 10 -6 0
-13 -4 -16 -10z"/>
<path d="M2600 5591 c0 -24 1 -24 15 -5 18 24 19 31 0 31 -9 0 -15 -10 -15
-26z"/>
<path d="M6440 5610 c0 -5 5 -10 11 -10 5 0 7 5 4 10 -3 6 -8 10 -11 10 -2 0
-4 -4 -4 -10z"/>
<path d="M6560 5610 c0 -4 23 -11 50 -16 44 -9 50 -9 50 6 0 14 -10 17 -50 16
-27 0 -50 -3 -50 -6z"/>
<path d="M6670 5606 c0 -9 7 -16 15 -16 8 0 19 -9 25 -20 14 -26 36 -25 43 2
6 21 7 21 26 4 18 -17 19 -17 26 5 7 21 9 19 26 -21 12 -30 18 -38 18 -23 1
12 5 23 9 25 5 2 12 16 16 31 5 22 4 27 -6 21 -18 -12 -38 -14 -38 -4 0 12
-30 5 -39 -9 -6 -10 -10 -9 -14 3 -6 16 -44 18 -64 3 -9 -6 -18 -5 -28 3 -12
10 -15 10 -15 -4z"/>
<path d="M6265 5570 c-3 -5 -2 -10 4 -10 5 0 13 5 16 10 3 6 2 10 -4 10 -5 0
-13 -4 -16 -10z"/>
<path d="M2596 5513 c7 -43 14 -56 14 -25 0 15 7 22 28 24 l27 3 -34 18 c-19
9 -36 17 -37 17 -2 0 -1 -17 2 -37z"/>
<path d="M6758 5523 c7 -3 16 -2 19 1 4 3 -2 6 -13 5 -11 0 -14 -3 -6 -6z"/>
<path d="M6290 5509 c0 -5 5 -7 10 -4 6 3 10 8 10 11 0 2 -4 4 -10 4 -5 0 -10
-5 -10 -11z"/>
<path d="M6620 5505 c0 -8 5 -15 10 -15 6 0 10 7 10 15 0 8 -4 15 -10 15 -5 0
-10 -7 -10 -15z"/>
<path d="M7902 5453 c3 -11 1 -27 -3 -36 -12 -20 0 -55 12 -35 13 19 11 76 -3
84 -7 5 -9 1 -6 -13z"/>
<path d="M4182 5440 c0 -14 2 -19 5 -12 2 6 2 18 0 25 -3 6 -5 1 -5 -13z"/>
<path d="M6620 5441 c0 -22 16 -27 40 -11 17 10 14 15 -17 24 -19 6 -23 3 -23
-13z"/>
<path d="M6736 5452 c-2 -4 -1 -14 5 -22 7 -12 9 -10 9 8 0 23 -5 28 -14 14z"/>
<path d="M7844 5443 c-8 -8 -14 -17 -14 -21 0 -3 5 -1 12 6 17 17 28 15 28 -4
0 -8 5 -12 10 -9 16 10 12 42 -6 42 -9 0 -22 -7 -30 -14z"/>
<path d="M2641 5423 c0 -6 -4 -20 -7 -30 -5 -14 -4 -15 5 -7 7 7 11 20 8 30
-3 11 -5 14 -6 7z"/>
<path d="M7938 5413 c7 -3 16 -2 19 1 4 3 -2 6 -13 5 -11 0 -14 -3 -6 -6z"/>
<path d="M7980 5401 c0 -11 4 -22 9 -25 4 -3 6 6 3 19 -5 30 -12 33 -12 6z"/>
<path d="M7911 5333 c-1 -16 3 -20 19 -16 11 3 17 9 14 14 -3 5 -9 7 -14 4 -4
-3 -11 1 -13 7 -3 7 -6 3 -6 -9z"/>
<path d="M5115 5329 c-4 -6 -5 -13 -2 -16 7 -7 27 6 27 18 0 12 -17 12 -25 -2z"/>
<path d="M7840 5251 c0 -13 7 -21 18 -21 16 -1 16 -1 0 -14 -25 -19 -23 -22
17 -24 19 -2 35 0 35 3 0 2 -16 21 -35 41 -31 31 -35 33 -35 15z"/>
<path d="M7902 5248 c1 -16 6 -28 10 -28 11 0 10 22 -2 40 -8 11 -9 9 -8 -12z"/>
<path d="M1875 5220 c3 -5 8 -10 11 -10 2 0 4 5 4 10 0 6 -5 10 -11 10 -5 0
-7 -4 -4 -10z"/>
<path d="M7862 5165 c0 -11 4 -31 8 -45 6 -20 8 -21 8 -5 0 11 -4 31 -8 45 -6
20 -8 21 -8 5z"/>
<path d="M1947 5163 c-4 -3 -7 -11 -7 -17 0 -6 5 -5 12 2 6 6 9 14 7 17 -3 3
-9 2 -12 -2z"/>
<path d="M7892 5065 c6 -14 13 -24 14 -22 6 6 -9 47 -17 47 -5 0 -3 -11 3 -25z"/>
<path d="M7865 5050 c3 -5 8 -10 11 -10 2 0 4 5 4 10 0 6 -5 10 -11 10 -5 0
-7 -4 -4 -10z"/>
<path d="M1765 4981 c-3 -5 -1 -12 5 -16 5 -3 10 1 10 9 0 18 -6 21 -15 7z"/>
<path d="M7840 4970 c0 -5 5 -10 11 -10 5 0 7 5 4 10 -3 6 -8 10 -11 10 -2 0
-4 -4 -4 -10z"/>
<path d="M8020 4945 c0 -14 4 -25 9 -25 4 0 6 11 3 25 -2 14 -6 25 -8 25 -2 0
-4 -11 -4 -25z"/>
<path d="M7961 4944 c0 -11 3 -14 6 -6 3 7 2 16 -1 19 -3 4 -6 -2 -5 -13z"/>
<path d="M7996 4942 c-7 -11 4 -52 13 -52 4 0 6 14 3 30 -4 31 -7 35 -16 22z"/>
<path d="M7790 4870 c0 -5 5 -10 11 -10 5 0 7 5 4 10 -3 6 -8 10 -11 10 -2 0
-4 -4 -4 -10z"/>
<path d="M7843 4815 c0 -8 8 -15 18 -15 24 0 33 16 13 24 -24 9 -31 7 -31 -9z"/>
<path d="M1762 4775 c0 -16 2 -22 5 -12 2 9 2 23 0 30 -3 6 -5 -1 -5 -18z"/>
<path d="M7860 4779 c0 -5 5 -7 10 -4 6 3 10 8 10 11 0 2 -4 4 -10 4 -5 0 -10
-5 -10 -11z"/>
<path d="M7905 4727 c-4 -10 -5 -21 -1 -24 10 -10 18 4 13 24 -4 17 -4 17 -12
0z"/>
<path d="M7990 4530 c0 -5 5 -10 11 -10 5 0 7 5 4 10 -3 6 -8 10 -11 10 -2 0
-4 -4 -4 -10z"/>
<path d="M7990 4469 c0 -5 5 -7 10 -4 6 3 10 8 10 11 0 2 -4 4 -10 4 -5 0 -10
-5 -10 -11z"/>
<path d="M8055 4420 c-3 -5 -1 -10 4 -10 6 0 11 5 11 10 0 6 -2 10 -4 10 -3 0
-8 -4 -11 -10z"/>
<path d="M7997 4413 c-4 -3 -7 -14 -7 -22 0 -9 -13 -22 -30 -28 -30 -11 -42
-45 -20 -58 6 -3 10 -17 10 -31 0 -13 5 -24 10 -24 6 0 10 -10 10 -23 0 -16 6
-23 20 -23 11 0 20 4 20 8 0 4 -5 8 -12 8 -6 0 -9 3 -5 6 3 4 0 13 -8 21 -21
20 -19 36 3 24 9 -5 21 -9 27 -9 5 0 13 -9 17 -19 5 -11 6 -5 2 14 -9 50 3 76
32 70 16 -3 23 0 21 7 -2 6 -16 11 -30 11 -21 -1 -27 4 -27 20 -1 23 -24 58
-33 48z m20 -105 c-3 -8 -6 -5 -6 6 -1 11 2 17 5 13 3 -3 4 -12 1 -19z"/>
<path d="M7825 4400 c-3 -5 -1 -10 4 -10 6 0 11 5 11 10 0 6 -2 10 -4 10 -3 0
-8 -4 -11 -10z"/>
<path d="M8040 4386 c0 -2 7 -7 16 -10 8 -3 12 -2 9 4 -6 10 -25 14 -25 6z"/>
<path d="M7837 4291 c-3 -14 -1 -18 9 -14 8 3 14 11 14 19 0 21 -17 17 -23 -5z"/>
<path d="M7887 4290 c-9 -11 -13 -20 -7 -20 5 0 12 5 15 10 3 6 11 10 18 10 8
0 8 -3 -1 -12 -7 -7 -12 -21 -12 -32 0 -18 3 -16 19 9 29 49 4 77 -32 35z"/>
<path d="M8040 4305 c0 -5 5 -17 10 -25 5 -8 10 -10 10 -5 0 6 -5 17 -10 25
-5 8 -10 11 -10 5z"/>
<path d="M8087 4229 c6 -22 23 -26 23 -5 0 8 -6 16 -14 19 -10 4 -12 0 -9 -14z"/>
<path d="M8080 4072 c0 -7 -7 -9 -17 -5 -15 5 -16 3 -5 -8 9 -10 15 -10 24 -1
6 6 9 15 5 19 -4 3 -7 1 -7 -5z"/>
<path d="M8510 4069 c0 -5 5 -7 10 -4 6 3 10 8 10 11 0 2 -4 4 -10 4 -5 0 -10
-5 -10 -11z"/>
<path d="M8404 3891 c0 -11 4 -17 8 -15 4 3 8 12 8 20 0 8 -4 14 -8 14 -4 0
-8 -9 -8 -19z"/>
<path d="M7931 3834 c0 -11 3 -14 6 -6 3 7 2 16 -1 19 -3 4 -6 -2 -5 -13z"/>
<path d="M1720 3581 c0 -6 5 -13 10 -16 6 -3 10 1 10 9 0 9 -4 16 -10 16 -5 0
-10 -4 -10 -9z"/>
<path d="M8181 3424 c0 -11 3 -14 6 -6 3 7 2 16 -1 19 -3 4 -6 -2 -5 -13z"/>
<path d="M8006 3425 c7 -3 10 -15 7 -25 -7 -25 5 -26 24 -2 8 9 12 11 8 5 -4
-9 -1 -11 9 -7 19 7 21 24 4 24 -7 0 -24 3 -38 5 -14 3 -20 3 -14 0z"/>
<path d="M8211 3414 c-1 -15 24 -36 32 -27 12 12 7 25 -7 20 -8 -3 -17 -1 -20
6 -3 8 -5 8 -5 1z"/>
<path d="M8011 3274 c0 -11 3 -14 6 -6 3 7 2 16 -1 19 -3 4 -6 -2 -5 -13z"/>
<path d="M7990 3250 c0 -5 5 -10 11 -10 5 0 7 5 4 10 -3 6 -8 10 -11 10 -2 0
-4 -4 -4 -10z"/>
<path d="M8017 3234 c-4 -4 -7 -14 -7 -23 0 -11 3 -12 11 -4 6 6 10 16 7 23
-2 6 -7 8 -11 4z"/>
<path d="M7760 3160 c0 -5 5 -10 11 -10 5 0 7 5 4 10 -3 6 -8 10 -11 10 -2 0
-4 -4 -4 -10z"/>
<path d="M7760 3119 c0 -5 5 -7 10 -4 6 3 10 8 10 11 0 2 -4 4 -10 4 -5 0 -10
-5 -10 -11z"/>
<path d="M7755 3091 c-3 -5 -2 -12 3 -15 5 -3 9 1 9 9 0 17 -3 19 -12 6z"/>
<path d="M7901 3084 c0 -11 3 -14 6 -6 3 7 2 16 -1 19 -3 4 -6 -2 -5 -13z"/>
<path d="M1822 2930 c0 -14 2 -19 5 -12 2 6 2 18 0 25 -3 6 -5 1 -5 -13z"/>
<path d="M1830 2861 c0 -17 18 -21 24 -6 3 9 0 15 -9 15 -8 0 -15 -4 -15 -9z"/>
<path d="M7718 2788 c9 -9 15 -9 24 0 9 9 7 12 -12 12 -19 0 -21 -3 -12 -12z"/>
<path d="M1810 2755 c0 -8 5 -15 10 -15 6 0 10 7 10 15 0 8 -4 15 -10 15 -5 0
-10 -7 -10 -15z"/>
<path d="M7663 2742 c-9 -6 -10 -17 -3 -41 5 -17 7 -38 4 -45 -3 -8 4 -16 15
-19 16 -4 21 0 21 14 0 10 -4 19 -10 19 -5 0 -10 10 -10 23 0 21 -2 57 -4 57
-1 0 -7 -4 -13 -8z"/>
<path d="M8061 2734 c0 -11 3 -14 6 -6 3 7 2 16 -1 19 -3 4 -6 -2 -5 -13z"/>
<path d="M7730 2725 c0 -8 -8 -15 -17 -15 -15 0 -14 -2 3 -19 10 -10 21 -17
23 -15 9 8 10 64 1 64 -6 0 -10 -7 -10 -15z"/>
<path d="M8030 2730 c0 -5 5 -10 11 -10 5 0 7 5 4 10 -3 6 -8 10 -11 10 -2 0
-4 -4 -4 -10z"/>
<path d="M1833 2705 c-3 -9 -3 -18 -1 -21 3 -3 8 4 11 16 6 23 -1 27 -10 5z"/>
<path d="M7631 2684 c0 -11 3 -14 6 -6 3 7 2 16 -1 19 -3 4 -6 -2 -5 -13z"/>
<path d="M1850 2629 c0 -5 5 -7 10 -4 6 3 10 8 10 11 0 2 -4 4 -10 4 -5 0 -10
-5 -10 -11z"/>
<path d="M7650 2600 c0 -5 4 -10 9 -10 6 0 13 5 16 10 3 6 -1 10 -9 10 -9 0
-16 -4 -16 -10z"/>
<path d="M7771 2591 c-11 -7 -9 -11 7 -20 24 -13 39 1 19 17 -7 6 -18 7 -26 3z"/>
<path d="M1876 2541 c-3 -5 1 -14 8 -20 16 -13 32 2 21 19 -8 12 -22 13 -29 1z"/>
<path d="M7690 2496 c0 -22 37 -27 43 -5 4 15 0 19 -19 19 -14 0 -24 -6 -24
-14z"/>
<path d="M1880 2480 c0 -5 5 -10 10 -10 6 0 10 5 10 10 0 6 -4 10 -10 10 -5 0
-10 -4 -10 -10z"/>
<path d="M7770 2455 c0 -8 7 -15 15 -15 9 0 12 6 9 15 -4 8 -10 15 -15 15 -5
0 -9 -7 -9 -15z"/>
<path d="M7727 2435 c7 -36 11 -42 21 -29 4 5 5 8 3 6 -3 -1 -11 10 -17 25
l-13 28 6 -30z"/>
<path d="M7689 2408 c0 -22 -1 -22 -8 -3 l-8 20 -5 -20 c-2 -11 3 -25 12 -32
10 -8 11 -12 3 -13 -15 0 -18 -20 -3 -20 5 0 13 12 16 28 4 15 10 29 14 32 4
3 2 11 -6 18 -12 11 -14 9 -15 -10z"/>
<path d="M7790 2391 c0 -6 -7 -11 -15 -11 -9 0 -15 -9 -14 -22 1 -18 2 -19 6
-5 2 9 8 15 13 12 4 -3 13 2 19 9 8 10 9 16 1 21 -5 3 -10 1 -10 -4z"/>
<path d="M7720 2355 c0 -8 2 -15 4 -15 2 0 6 7 10 15 3 8 1 15 -4 15 -6 0 -10
-7 -10 -15z"/>
<path d="M7784 2326 c-3 -8 -3 -20 1 -26 9 -14 -8 -13 -23 2 -9 9 -12 8 -12
-5 0 -9 -4 -17 -9 -17 -5 0 -7 9 -4 20 3 11 0 20 -6 20 -6 0 -11 -10 -12 -22
0 -13 -2 -33 -5 -45 -4 -24 22 -26 36 -3 5 8 13 11 17 6 4 -5 2 -11 -4 -13 -7
-3 -13 -14 -14 -26 0 -12 -3 -16 -6 -9 -2 6 -8 12 -13 12 -21 0 -15 -25 6 -26
16 -1 24 4 24 14 0 13 3 12 14 -4 19 -26 28 -14 32 43 1 26 4 57 6 67 4 23
-20 34 -28 12z"/>
<path d="M7680 2300 c0 -5 5 -10 10 -10 6 0 10 5 10 10 0 6 -4 10 -10 10 -5 0
-10 -4 -10 -10z"/>
<path d="M1806 2274 c-9 -23 -7 -62 3 -68 5 -3 12 1 15 10 3 9 11 12 18 8 8
-5 9 -2 5 10 -4 10 -7 20 -7 22 0 2 -7 4 -15 4 -9 0 -12 6 -9 15 4 8 4 15 1
15 -3 0 -8 -7 -11 -16z"/>
<path d="M1852 2282 c-18 -12 20 -54 41 -46 17 6 31 44 16 44 -5 0 -9 -7 -9
-15 0 -22 -28 -18 -32 5 -2 13 -7 17 -16 12z"/>
<path d="M7620 2274 c0 -8 5 -12 10 -9 6 3 10 10 10 16 0 5 -4 9 -10 9 -5 0
-10 -7 -10 -16z"/>
<path d="M1840 2194 c0 -8 4 -13 9 -10 5 4 11 1 13 -6 3 -7 7 -3 10 8 4 14 0
20 -13 21 -11 1 -19 -5 -19 -13z"/>
<path d="M7710 2170 c0 -5 5 -10 11 -10 5 0 7 5 4 10 -3 6 -8 10 -11 10 -2 0
-4 -4 -4 -10z"/>
<path d="M7320 1990 c0 -5 5 -10 11 -10 5 0 7 5 4 10 -3 6 -8 10 -11 10 -2 0
-4 -4 -4 -10z"/>
<path d="M7350 1933 c0 -14 19 -38 25 -32 8 8 -5 39 -16 39 -5 0 -9 -3 -9 -7z"/>
<path d="M1900 1864 c0 -10 31 -36 37 -31 10 10 -6 37 -22 37 -8 0 -15 -3 -15
-6z"/>
<path d="M7460 1790 c0 -11 4 -20 9 -20 5 0 7 9 4 20 -3 11 -7 20 -9 20 -2 0
-4 -9 -4 -20z"/>
<path d="M7592 1791 c-11 -7 -11 -9 0 -14 9 -3 15 1 15 9 0 8 -1 14 -1 14 -1
0 -7 -4 -14 -9z"/>
<path d="M7706 1751 c-19 -7 -19 -8 2 -13 15 -4 22 -2 22 8 0 8 -1 14 -2 13
-2 0 -12 -4 -22 -8z"/>
<path d="M7498 1743 c6 -2 18 -2 25 0 6 3 1 5 -13 5 -14 0 -19 -2 -12 -5z"/>
<path d="M7561 1711 c-11 -7 -9 -11 9 -21 25 -14 33 -9 24 14 -7 18 -13 19
-33 7z"/>
<path d="M2217 1600 c3 -11 9 -20 14 -20 11 0 11 3 3 24 -9 23 -23 20 -17 -4z"/>
<path d="M1880 1590 c0 -5 7 -7 15 -4 8 4 15 8 15 10 0 2 -7 4 -15 4 -8 0 -15
-4 -15 -10z"/>
<path d="M7511 1544 c0 -11 3 -14 6 -6 3 7 2 16 -1 19 -3 4 -6 -2 -5 -13z"/>
<path d="M7760 1520 c0 -5 9 -10 21 -10 11 0 17 5 14 10 -3 6 -13 10 -21 10
-8 0 -14 -4 -14 -10z"/>
<path d="M7520 1470 c0 -5 9 -14 20 -20 22 -12 27 -1 8 18 -14 14 -28 16 -28
2z"/>
<path d="M2261 1455 c1 -19 18 -51 18 -35 0 8 -4 22 -9 30 -5 8 -9 11 -9 5z"/>
<path d="M7491 1434 c0 -11 3 -14 6 -6 3 7 2 16 -1 19 -3 4 -6 -2 -5 -13z"/>
<path d="M2310 1417 c0 -15 6 -24 15 -24 10 0 14 6 10 14 -3 8 -5 19 -5 24 0
5 -4 9 -10 9 -5 0 -10 -10 -10 -23z"/>
<path d="M7300 1404 c0 -14 3 -14 15 -4 8 7 15 14 15 16 0 2 -7 4 -15 4 -8 0
-15 -7 -15 -16z"/>
<path d="M7215 1330 c-3 -5 -1 -10 4 -10 6 0 11 5 11 10 0 6 -2 10 -4 10 -3 0
-8 -4 -11 -10z"/>
<path d="M7000 1319 c0 -5 5 -7 10 -4 6 3 10 8 10 11 0 2 -4 4 -10 4 -5 0 -10
-5 -10 -11z"/>
</g>
</svg>
