<?xml version="1.0" standalone="no"?>
<!DOCTYPE svg PUBLIC "-//W3C//DTD SVG 20010904//EN"
 "http://www.w3.org/TR/2001/REC-SVG-20010904/DTD/svg10.dtd">
<svg version="1.0" xmlns="http://www.w3.org/2000/svg"
 width="1024.000000pt" height="1024.000000pt" viewBox="0 0 1024.000000 1024.000000"
 preserveAspectRatio="xMidYMid meet">

<g transform="translate(0.000000,1024.000000) scale(0.100000,-0.100000)"
fill="#000000" stroke="none">
<path d="M4755 8440 c-3 -5 -1 -10 4 -10 6 0 11 5 11 10 0 6 -2 10 -4 10 -3 0
-8 -4 -11 -10z"/>
<path d="M4745 8400 c-3 -5 -1 -10 4 -10 6 0 11 5 11 10 0 6 -2 10 -4 10 -3 0
-8 -4 -11 -10z"/>
<path d="M5120 8310 c0 -5 7 -10 15 -10 8 0 15 5 15 10 0 6 -7 10 -15 10 -8 0
-15 -4 -15 -10z"/>
<path d="M6295 8310 c3 -5 13 -10 21 -10 8 0 12 5 9 10 -3 6 -13 10 -21 10 -8
0 -12 -4 -9 -10z"/>
<path d="M6445 8251 c-3 -5 -1 -12 4 -16 14 -8 62 5 55 16 -7 12 -51 12 -59 0z"/>
<path d="M7150 8090 c34 -27 60 -34 73 -21 7 7 0 15 -26 26 -20 8 -44 15 -54
15 -15 0 -14 -4 7 -20z"/>
<path d="M5283 8003 c-20 -8 -15 -23 7 -23 11 0 20 7 20 15 0 15 -6 17 -27 8z"/>
<path d="M5195 7990 c-19 -7 -19 -8 -2 -15 10 -4 23 -3 29 3 14 14 -3 21 -27
12z"/>
<path d="M5000 7980 c-8 -5 -25 -10 -38 -10 -13 0 -20 -4 -17 -10 3 -5 26 -10
51 -10 37 0 45 3 42 17 -4 20 -18 26 -38 13z"/>
<path d="M5109 7969 l-24 -21 25 6 c14 3 28 6 33 6 10 0 9 30 -2 30 -5 0 -19
-9 -32 -21z"/>
<path d="M4450 7960 c0 -5 5 -10 10 -10 6 0 10 5 10 10 0 6 -4 10 -10 10 -5 0
-10 -4 -10 -10z"/>
<path d="M4820 7960 c0 -5 9 -10 19 -10 11 0 23 5 26 10 4 6 -5 10 -19 10 -14
0 -26 -4 -26 -10z"/>
<path d="M5701 7934 c0 -11 3 -14 6 -6 3 7 2 16 -1 19 -3 4 -6 -2 -5 -13z"/>
<path d="M6210 7934 c0 -14 3 -14 15 -4 8 7 15 14 15 16 0 2 -7 4 -15 4 -8 0
-15 -7 -15 -16z"/>
<path d="M4230 7900 c-11 -11 -20 -24 -20 -30 0 -16 52 -11 95 10 l40 19 -50
-6 c-46 -5 -49 -5 -36 10 20 25 -4 22 -29 -3z"/>
<path d="M4810 7900 c0 -11 2 -20 5 -20 3 0 14 9 25 20 l20 20 -25 0 c-18 0
-25 -5 -25 -20z"/>
<path d="M5080 7910 c0 -5 5 -10 10 -10 6 0 10 5 10 10 0 6 -4 10 -10 10 -5 0
-10 -4 -10 -10z"/>
<path d="M5360 7882 c0 -19 12 -42 22 -42 14 0 5 43 -9 48 -7 2 -13 -1 -13 -6z"/>
<path d="M6290 7870 c0 -5 5 -10 10 -10 6 0 10 5 10 10 0 6 -4 10 -10 10 -5 0
-10 -4 -10 -10z"/>
<path d="M4460 7860 c0 -5 5 -10 10 -10 6 0 10 5 10 10 0 6 -4 10 -10 10 -5 0
-10 -4 -10 -10z"/>
<path d="M6400 7844 c-25 -64 3 -95 46 -49 23 25 24 28 9 51 -20 31 -43 31
-55 -2z"/>
<path d="M3195 7850 c-3 -5 -1 -10 4 -10 6 0 11 5 11 10 0 6 -2 10 -4 10 -3 0
-8 -4 -11 -10z"/>
<path d="M5525 7850 c3 -5 10 -10 16 -10 5 0 9 5 9 10 0 6 -7 10 -16 10 -8 0
-12 -4 -9 -10z"/>
<path d="M6056 7829 c-15 -22 -18 -22 -48 -10 -70 27 -75 26 -43 -8 25 -27 27
-33 15 -41 -19 -12 -23 -12 -92 2 -60 12 -82 7 -57 -15 9 -6 21 -24 27 -40 11
-26 11 -27 -13 -21 -19 5 -25 2 -25 -9 0 -20 -27 -47 -46 -47 -8 0 -14 7 -14
15 0 8 -28 30 -61 50 -58 34 -62 35 -74 18 -13 -17 -15 -17 -38 5 -27 25 -62
26 -62 3 0 -14 66 -33 163 -47 26 -4 42 -12 42 -20 0 -19 -106 -20 -113 -1 -3
9 -7 9 -21 -2 -14 -12 -19 -12 -34 2 -9 9 -39 17 -67 19 -49 3 -50 4 -65 48
-20 56 -45 64 -59 18 -6 -21 -10 -25 -10 -13 -2 29 -38 85 -56 85 -22 0 -18
-23 6 -38 21 -14 21 -14 -10 -33 -41 -25 -42 -51 -1 -42 23 4 30 2 30 -11 0
-11 -9 -16 -31 -16 -19 0 -37 -7 -45 -17 -12 -17 -14 -17 -44 0 -101 58 -89
55 -110 29 -11 -13 -24 -20 -31 -17 -6 4 -18 -3 -26 -15 -15 -21 -17 -21 -28
-7 -11 16 -74 47 -94 47 -5 0 -11 -9 -14 -19 -3 -14 -16 -20 -53 -23 -57 -5
-94 1 -94 13 0 5 23 9 50 9 58 0 75 19 43 51 -19 20 -104 31 -120 16 -4 -4 -2
-22 5 -39 15 -40 4 -52 -31 -36 -22 11 -27 20 -29 63 -3 50 -23 64 -23 16 0
-20 -13 -31 -74 -62 -75 -39 -91 -41 -91 -11 0 12 -3 13 -12 4 -7 -7 -26 -12
-43 -12 -33 0 -108 -31 -119 -49 -13 -20 5 -33 19 -14 11 15 28 18 112 17 54
0 110 -4 126 -7 48 -13 29 -47 -27 -47 -12 0 -28 -6 -35 -12 -11 -11 -12 -9
-7 8 5 17 1 23 -16 28 -38 10 -88 7 -88 -5 0 -7 -12 -10 -33 -6 -20 3 -40 0
-52 -9 -24 -18 -43 -18 -79 1 -17 9 -33 12 -38 7 -5 -5 -22 -40 -37 -77 -15
-38 -33 -71 -39 -73 -7 -2 -4 15 8 44 14 32 17 51 11 57 -17 17 -48 -19 -60
-68 -6 -24 -20 -50 -32 -58 -18 -13 -23 -13 -46 9 -30 28 -54 20 -72 -23 -7
-16 -28 -35 -50 -46 -35 -16 -40 -16 -69 -1 -18 8 -32 22 -32 30 0 19 -19 18
-27 -2 -4 -11 2 -23 17 -34 l23 -17 -42 -23 c-45 -26 -52 -40 -20 -40 18 0 20
-4 14 -30 -6 -30 -6 -30 34 -30 34 0 41 -3 41 -19 0 -11 -13 -25 -34 -35 -42
-20 -52 -20 -60 -1 -8 22 -35 18 -72 -10 -56 -43 -66 -31 -39 45 18 52 19 50
-2 50 -10 0 -40 -21 -66 -45 -47 -44 -67 -55 -67 -35 0 6 -9 10 -20 10 -11 0
-20 6 -20 13 -1 13 -40 -30 -40 -44 0 -5 11 -9 24 -9 35 0 56 -10 56 -26 0 -9
-12 -14 -35 -14 -27 0 -38 -6 -50 -27 -8 -16 -37 -53 -65 -83 -27 -30 -60 -74
-72 -97 -14 -26 -30 -43 -40 -43 -12 0 -18 -8 -18 -22 0 -13 -21 -67 -47 -121
-44 -92 -67 -115 -69 -71 -2 40 -4 45 -20 42 -8 -2 -26 -30 -40 -63 -29 -72
-30 -85 -5 -54 11 13 22 22 25 19 10 -11 -6 -50 -21 -50 -9 0 -12 -6 -8 -19 3
-10 0 -31 -6 -47 -6 -16 -11 -48 -10 -72 1 -46 -22 -92 -46 -92 -13 0 -14 12
-8 71 6 56 5 70 -5 64 -33 -21 -179 -407 -195 -515 -4 -30 -1 -59 9 -89 25
-70 21 -95 -18 -116 -37 -20 -51 -42 -61 -99 -9 -47 7 -46 25 2 14 36 15 33
22 -98 3 -74 16 -182 27 -240 28 -138 27 -157 -1 -156 -17 1 -24 -5 -26 -22
-3 -17 -8 -21 -23 -17 -17 6 -19 1 -19 -49 0 -58 12 -71 36 -38 12 16 13 16
14 -4 0 -12 -9 -33 -21 -48 -20 -25 -20 -28 -5 -80 9 -30 16 -66 16 -80 0 -15
6 -26 14 -26 9 0 15 -19 18 -63 5 -60 23 -115 35 -103 6 6 -15 196 -27 244
-11 42 5 42 26 0 26 -52 35 -60 50 -47 13 11 34 5 34 -11 0 -5 -16 -18 -35
-30 -32 -20 -35 -26 -35 -67 0 -43 1 -45 25 -39 22 6 25 3 25 -19 0 -14 5 -25
10 -25 6 0 10 -9 10 -19 0 -33 11 -51 31 -51 14 0 19 -7 19 -29 0 -16 4 -41
10 -55 16 -43 -2 -30 -68 49 -34 41 -67 75 -72 75 -6 0 -10 -23 -10 -51 0 -40
5 -58 25 -81 30 -35 34 -64 8 -52 -10 4 -35 8 -55 7 -21 -1 -38 3 -38 8 0 5 5
9 10 9 24 0 32 46 17 91 -13 39 -13 46 -1 60 14 15 10 20 -36 48 -28 17 -53
38 -57 47 -5 13 -7 13 -14 2 -7 -10 -15 -6 -34 18 -13 18 -36 34 -49 38 -13 3
-27 13 -30 22 -10 25 2 30 20 8 15 -18 15 -17 10 14 -3 18 -1 32 4 32 6 0 10
5 10 10 0 6 -11 10 -24 10 -13 0 -26 7 -30 15 -5 15 3 75 11 75 15 0 53 -35
53 -50 0 -28 21 -80 32 -80 11 0 7 71 -8 154 -5 28 -4 37 4 32 7 -4 12 -1 12
9 0 11 -5 15 -15 11 -11 -4 -15 2 -15 25 0 17 5 39 10 50 9 16 7 19 -9 19 -14
0 -18 5 -14 20 3 11 0 26 -6 34 -9 11 -9 15 1 19 10 3 9 11 -5 36 -22 38 -13
60 14 35 24 -22 24 -17 -6 91 -29 105 -29 106 -12 102 23 -4 21 63 -4 89 -12
13 -19 27 -14 31 4 5 10 2 12 -4 7 -21 23 -15 23 8 0 16 -5 20 -27 17 -31 -3
-40 -26 -42 -110 -2 -72 -19 -66 -26 9 -4 38 -13 111 -20 163 -11 84 -13 89
-14 40 0 -30 8 -170 19 -310 25 -328 26 -310 -5 -310 -25 0 -31 -13 -19 -44 8
-20 23 -20 44 -1 21 19 50 10 50 -16 0 -24 -65 -89 -89 -89 -16 0 -19 10 -23
70 -3 60 -7 74 -29 93 -14 12 -35 37 -48 54 -12 18 -27 33 -32 33 -13 0 -10
-78 4 -120 13 -39 33 -39 30 0 -4 43 35 -49 60 -144 20 -75 24 -83 35 -66 6
11 12 28 12 38 0 48 16 26 28 -40 17 -91 17 -92 8 -158 -5 -42 -3 -60 8 -75
14 -18 15 -16 9 31 -3 33 -1 54 6 58 7 5 11 -7 11 -39 0 -46 7 -56 64 -103 9
-7 16 -18 16 -24 0 -6 -9 -3 -19 6 -13 11 -27 15 -40 11 -22 -7 -29 -39 -11
-50 5 -3 15 -15 21 -26 9 -19 9 -19 -9 -10 -27 14 -54 49 -76 100 -11 22 -25
41 -33 41 -20 0 -7 -45 32 -110 27 -43 39 -55 57 -53 39 3 64 -5 99 -36 31
-28 49 -32 49 -11 0 5 -9 12 -20 15 -11 3 -20 11 -20 16 0 16 29 10 49 -10 17
-17 18 -24 9 -49 -6 -15 -8 -40 -5 -54 9 -33 60 -88 83 -88 14 0 11 7 -15 34
-27 28 -32 40 -27 60 4 17 13 26 26 26 11 0 20 -4 20 -10 0 -5 7 -10 15 -10 8
0 15 7 15 15 0 25 17 17 23 -11 11 -62 -21 -87 -43 -34 -16 38 -30 48 -30 21
0 -11 12 -34 27 -51 22 -27 31 -31 57 -26 55 11 69 11 73 0 2 -6 -5 -14 -17
-17 -11 -3 -20 -12 -20 -20 0 -18 30 -30 54 -21 21 8 32 -21 16 -41 -18 -22
-23 -20 -78 30 -32 29 -53 41 -57 34 -4 -6 -2 -16 4 -22 7 -7 6 -14 -5 -22
-14 -10 -12 -18 15 -68 36 -66 38 -77 14 -75 -52 4 -103 -3 -103 -15 0 -7 13
-12 32 -12 26 0 37 -8 60 -40 30 -43 85 -144 99 -185 8 -21 4 -19 -23 12 -30
34 -93 78 -110 78 -5 0 -8 -6 -8 -14 0 -11 45 -54 109 -103 13 -9 4 -11 -41
-6 -61 6 -58 8 -62 -39 -1 -7 6 -13 14 -13 20 0 205 -148 191 -153 -6 -2 -11
-11 -11 -19 0 -11 -5 -13 -17 -8 -29 13 -66 11 -70 -3 -3 -7 1 -10 10 -6 22 8
63 -16 137 -81 102 -89 170 -138 241 -174 36 -18 76 -42 90 -52 22 -18 23 -20
7 -33 -16 -12 -14 -14 17 -23 29 -9 37 -8 44 5 12 22 39 0 43 -35 l3 -25 24
21 c13 12 24 21 25 21 1 0 1 -27 1 -60 0 -41 -4 -60 -12 -60 -7 0 -13 -4 -13
-10 0 -5 9 -10 19 -10 11 0 30 -12 43 -27 193 -228 1050 -426 1878 -436 168
-2 202 1 249 17 36 12 70 17 107 14 29 -3 51 -1 49 3 -11 16 31 32 136 51 73
13 134 30 171 49 68 34 149 65 196 73 28 5 35 3 39 -14 5 -20 18 -27 25 -12 9
19 250 182 271 182 5 0 29 14 54 31 44 31 45 31 37 8 -4 -13 -7 -35 -6 -49 1
-14 2 -32 2 -40 1 -12 10 -15 36 -12 40 5 45 -12 14 -49 l-19 -24 -1 22 0 23
-72 -26 c-76 -27 -118 -57 -118 -83 0 -10 9 -6 30 14 33 32 48 32 22 0 -10
-11 -76 -73 -149 -137 -151 -136 -184 -171 -159 -176 16 -3 95 32 106 47 6 8
58 41 65 41 13 0 2 -30 -30 -78 -36 -53 -36 -63 -1 -37 11 8 23 15 28 15 14 0
9 -37 -7 -50 -8 -7 -15 -20 -15 -29 1 -23 50 35 50 59 0 17 39 55 47 46 2 -2
-6 -22 -17 -44 -27 -51 -19 -70 17 -42 14 11 33 20 43 20 20 0 52 33 74 77 14
28 22 33 51 33 29 0 36 -4 41 -26 l7 -26 44 44 c61 59 146 164 227 281 37 53
72 95 77 92 5 -4 9 -21 9 -38 l1 -32 24 28 c31 35 46 89 35 126 -4 16 -25 59
-45 96 -35 63 -38 65 -49 44 -15 -30 -36 -36 -36 -10 0 11 12 47 26 81 15 33
24 63 21 66 -12 12 -27 -9 -33 -45 -6 -35 -8 -37 -43 -37 -21 1 -46 7 -55 15
-14 12 -18 11 -31 -5 -13 -18 -14 -18 -20 -1 -11 28 0 43 59 81 30 19 63 48
73 63 10 15 20 30 24 33 3 3 18 29 34 58 34 63 49 67 41 10 -20 -149 -20 -147
4 -141 15 4 21 2 16 -5 -3 -6 -2 -13 4 -17 6 -4 10 11 10 39 0 38 3 46 19 46
10 0 26 10 34 22 16 23 16 23 16 2 1 -25 -15 -111 -24 -136 -12 -31 11 -19 28
15 66 128 174 312 193 328 13 10 17 10 24 -1 9 -15 16 15 24 112 5 65 23 109
36 87 5 -7 4 -21 -1 -30 -12 -23 -12 -72 1 -64 5 3 16 29 25 57 8 28 23 65 33
83 15 24 18 44 14 88 -2 31 -2 64 2 73 6 15 8 15 26 -1 23 -21 22 -21 39 22 7
17 19 34 28 37 8 3 11 10 8 16 -9 15 -68 12 -91 -5 -26 -19 -34 -19 -34 3 0
28 27 47 104 73 67 23 69 23 80 5 33 -56 42 -62 77 -49 90 34 216 134 278 222
50 71 38 76 -44 21 -41 -28 -82 -53 -90 -56 -28 -11 -16 21 16 41 32 21 82 85
93 121 4 13 1 26 -8 33 -17 14 -41 9 -150 -33 -37 -14 -70 -26 -72 -26 -2 0
-3 11 -2 25 3 29 3 29 29 14 29 -15 55 12 74 74 20 69 19 74 -10 43 -33 -36
-80 -34 -80 3 0 22 7 26 50 36 45 9 53 15 84 63 18 28 40 52 47 52 18 0 18 -3
-6 -43 -18 -30 -18 -35 -6 -40 12 -5 20 10 36 59 29 96 26 106 -18 55 -31 -36
-41 -42 -55 -34 -17 9 -16 10 3 28 24 22 26 41 4 49 -27 10 -39 7 -26 -6 7 -7
12 -16 12 -22 0 -5 -3 -7 -6 -4 -3 4 -18 3 -34 -2 l-28 -8 29 61 c16 34 29 71
29 83 0 30 19 44 46 34 28 -11 41 4 24 25 -15 18 -29 19 -80 3 -25 -8 -40 -19
-40 -29 0 -22 -28 -45 -40 -33 -7 7 -1 22 14 43 14 19 28 48 31 65 4 17 9 39
11 49 4 13 -1 17 -21 17 l-26 0 21 30 c24 34 40 31 40 -6 0 -15 6 -24 16 -24
11 0 14 5 9 18 -4 9 -10 72 -12 139 l-6 121 31 33 c25 27 33 30 45 21 8 -7 22
-10 31 -6 12 4 16 0 16 -15 0 -12 6 -21 15 -21 16 0 19 53 6 100 l-7 25 -13
-24 c-7 -13 -17 -19 -21 -15 -14 15 -16 97 -2 102 17 5 15 22 -3 22 -8 0 -15
7 -15 15 0 8 7 15 15 15 9 0 20 21 30 58 25 89 24 87 37 74 16 -16 28 -15 28
3 0 9 12 27 26 40 24 23 25 26 13 62 -9 27 -9 38 0 41 12 4 15 44 4 55 -3 4
-12 2 -19 -4 -9 -7 -15 -1 -24 28 -24 75 -157 339 -189 376 -40 45 -51 46 -51
7 0 -16 -3 -30 -8 -30 -12 0 -72 105 -74 131 -3 21 1 24 25 22 16 -1 62 -23
103 -48 61 -38 77 -45 89 -35 22 18 31 -14 17 -54 -7 -18 -12 -42 -12 -53 0
-44 62 -59 68 -16 2 16 -3 22 -20 25 -20 3 -22 8 -19 50 2 32 -3 57 -15 78
-22 35 -34 39 -27 8 4 -22 3 -21 -21 5 -32 34 -38 71 -7 43 15 -14 20 -14 29
-3 18 21 -12 55 -73 82 -43 19 -63 36 -104 93 -40 54 -56 69 -71 65 -27 -7
-110 74 -217 214 -116 151 -113 148 -149 166 -16 9 -45 31 -63 49 -30 31 -31
33 -12 38 19 5 18 8 -15 60 -38 61 -44 82 -14 55 29 -27 35 -12 7 20 -21 25
-25 26 -48 14 -13 -8 -32 -20 -41 -28 -20 -16 -20 -17 -22 58 -1 53 -2 55 -46
82 -56 34 -64 35 -78 7 -10 -21 -11 -20 -11 15 -1 30 -6 40 -26 49 -20 9 -22
14 -14 31 13 23 -6 67 -28 67 -16 0 -16 -5 -1 -30 7 -10 9 -22 5 -26 -11 -11
-85 44 -102 76 -9 16 -23 30 -32 30 -13 0 -14 3 -6 11 16 16 -2 53 -32 69 -13
7 -21 18 -18 26 9 23 -44 37 -70 19 -30 -21 -47 -19 -47 5 0 24 -69 101 -117
131 -34 21 -57 19 -35 -3 26 -26 14 -38 -32 -32 -25 4 -52 2 -65 -5 -17 -10
-32 -7 -84 14 -174 73 -270 106 -280 96 -20 -20 -84 -13 -100 10 l-15 20 -16
-22z m82 -121 c16 -16 15 -28 -3 -28 -8 0 -15 2 -15 4 0 2 -3 11 -6 20 -7 19
7 21 24 4z m-1492 -44 c19 -5 20 -9 11 -35 -14 -36 -27 -38 -27 -3 0 23 -3 25
-25 20 -25 -6 -36 8 -12 17 17 7 29 8 53 1z m1559 -4 c3 -5 2 -10 -4 -10 -5 0
-13 5 -16 10 -3 6 -2 10 4 10 5 0 13 -4 16 -10z m-1485 -20 c0 -11 -7 -20 -15
-20 -15 0 -21 21 -8 33 12 13 23 7 23 -13z m2162 -63 c-12 -6 -25 -7 -29 -3
-11 10 18 25 35 18 13 -4 11 -8 -6 -15z m-2432 -7 c0 -5 -4 -10 -10 -10 -5 0
-10 5 -10 10 0 6 5 10 10 10 6 0 10 -4 10 -10z m-200 -34 c0 -3 -4 -8 -10 -11
-5 -3 -10 -1 -10 4 0 6 5 11 10 11 6 0 10 -2 10 -4z m90 -36 c-6 -11 -13 -20
-15 -20 -3 0 -5 9 -5 20 0 11 7 20 15 20 13 0 14 -4 5 -20z m-216 -147 c-10
-40 -14 -41 -14 -5 0 18 5 32 10 32 6 0 8 -11 4 -27z m2326 -73 c0 -5 -4 -10
-10 -10 -5 0 -10 5 -10 10 0 6 5 10 10 10 6 0 10 -4 10 -10z m-2510 -9 c0 -5
-7 -11 -15 -15 -15 -5 -20 5 -8 17 9 10 23 9 23 -2z m-63 -43 c-3 -7 -5 -2 -5
12 0 14 2 19 5 13 2 -7 2 -19 0 -25z m128 2 c-3 -5 -11 -10 -16 -10 -6 0 -7 5
-4 10 3 6 11 10 16 10 6 0 7 -4 4 -10z m2862 -127 c-3 -10 -5 -2 -5 17 0 19 2
27 5 18 2 -10 2 -26 0 -35z m-3177 -2 c0 -6 -4 -13 -10 -16 -5 -3 -10 1 -10 9
0 9 5 16 10 16 6 0 10 -4 10 -9z m-160 -24 c0 -7 -18 -31 -41 -52 -22 -22 -50
-58 -61 -80 -31 -58 -33 -28 -3 39 19 44 32 60 55 67 16 6 29 14 29 17 -2 15
1 22 11 22 6 0 10 -6 10 -13z m126 -34 c-10 -10 -19 5 -10 18 6 11 8 11 12 0
2 -7 1 -15 -2 -18z m162 5 c-2 -6 -10 -14 -16 -16 -7 -2 -10 2 -6 12 7 18 28
22 22 4z m-268 -23 c-7 -9 -15 -13 -18 -10 -3 2 1 11 8 20 7 9 15 13 18 10 3
-2 -1 -11 -8 -20z m194 9 c25 -25 20 -59 -11 -73 -24 -11 -29 -10 -44 8 -14
17 -15 26 -6 51 13 33 37 39 61 14z m-94 -19 c0 -9 -9 -15 -21 -15 -17 0 -20
-4 -15 -27 5 -22 2 -31 -15 -41 -29 -18 -34 -9 -13 24 l18 27 -22 -12 c-12 -7
-28 -21 -35 -31 -12 -20 -37 -28 -37 -12 0 12 111 102 126 102 8 0 14 -7 14
-15z m-250 -30 c0 -10 -82 -181 -106 -223 -14 -24 -28 -41 -31 -38 -7 7 36
133 60 176 33 59 77 108 77 85z m3764 -32 c27 -27 31 -53 9 -60 -18 -6 -53 34
-53 62 0 32 11 32 44 -2z m-3669 -43 c9 -27 1 -37 -49 -60 -25 -11 -46 -28
-49 -40 -3 -13 -10 -18 -21 -14 -14 6 -14 9 2 36 19 33 86 98 101 98 5 0 12
-9 16 -20z m225 -4 c0 -3 -4 -8 -10 -11 -5 -3 -10 -1 -10 4 0 6 5 11 10 11 6
0 10 -2 10 -4z m3524 -11 c3 -9 0 -15 -9 -15 -8 0 -15 7 -15 15 0 8 4 15 9 15
5 0 11 -7 15 -15z m47 -47 c17 3 69 -51 69 -71 -1 -15 -35 -57 -47 -57 -12 0
-35 39 -28 50 3 5 -8 24 -25 43 -37 42 -40 63 -7 45 12 -7 29 -11 38 -10z
m-3821 -72 c-28 -50 -33 -54 -51 -43 -10 6 -19 17 -19 23 0 12 91 87 97 80 3
-2 -10 -29 -27 -60z m3535 34 c7 -23 -2 -43 -16 -35 -12 8 -12 55 0 55 5 0 12
-9 16 -20z m43 2 c2 -7 -2 -10 -12 -6 -9 3 -16 11 -16 16 0 13 23 5 28 -10z
m206 -17 c3 -8 1 -15 -3 -15 -5 0 -11 7 -15 15 -3 8 -1 15 3 15 5 0 11 -7 15
-15z m-139 -15 c3 -5 -1 -10 -10 -10 -9 0 -13 5 -10 10 3 6 8 10 10 10 2 0 7
-4 10 -10z m-3605 -18 c0 -13 -12 -22 -22 -16 -10 6 -1 24 13 24 5 0 9 -4 9
-8z m-278 -52 c-3 -33 -1 -50 7 -50 19 0 12 -25 -14 -50 l-25 -23 0 26 c0 14
-4 29 -10 32 -18 11 -11 47 16 82 14 18 26 33 28 33 2 0 1 -22 -2 -50z m2818
34 c0 -8 -4 -12 -10 -9 -5 3 -10 10 -10 16 0 5 5 9 10 9 6 0 10 -7 10 -16z
m1125 -14 c-6 -9 -9 -9 -16 1 -10 17 0 34 13 21 6 -6 7 -16 3 -22z m230 -10
c3 -5 -1 -10 -9 -10 -9 0 -16 -7 -16 -15 0 -8 -4 -15 -9 -15 -12 0 -23 29 -15
41 7 12 41 11 49 -1z m-165 -9 c0 -12 -20 -25 -27 -18 -7 7 6 27 18 27 5 0 9
-4 9 -9z m410 -27 c0 -17 -22 -14 -28 4 -2 7 3 12 12 12 9 0 16 -7 16 -16z
m-4196 -19 c3 -8 12 -15 21 -15 22 0 19 -13 -10 -40 -20 -19 -27 -21 -40 -10
-18 15 -20 51 -3 68 16 16 25 15 32 -3z m4123 -54 l23 -26 -6 30 c-6 29 -6 29
9 10 9 -11 17 -28 17 -37 0 -10 6 -18 14 -18 19 0 29 17 16 25 -5 3 -15 15
-21 27 -11 20 -11 20 20 2 18 -10 44 -31 58 -47 27 -27 27 -28 10 -56 -20 -35
-21 -44 -4 -38 6 2 17 -3 24 -12 8 -11 12 -12 13 -3 0 6 5 12 10 12 6 0 10
-17 10 -38 0 -22 6 -60 14 -85 13 -42 12 -47 -2 -47 -37 0 -282 302 -282 348
0 18 41 -7 77 -47z m-117 28 c0 -5 -7 -9 -15 -9 -15 0 -20 12 -9 23 8 8 24 -1
24 -14z m-4086 -34 c-7 -19 -14 -43 -14 -53 0 -11 -10 -27 -22 -35 l-23 -16
25 -20 c19 -15 22 -23 14 -31 -15 -15 -54 -4 -54 15 0 7 -7 15 -16 17 -13 2
-10 10 15 38 17 19 31 44 31 55 0 26 27 65 45 65 12 0 12 -5 -1 -35z m46 -29
c0 -16 -18 -31 -27 -22 -8 8 5 36 17 36 5 0 10 -6 10 -14z m4390 -25 c5 -11 7
-27 3 -37 -6 -16 -7 -16 -20 2 -15 21 -17 54 -3 54 5 0 14 -9 20 -19z m-4590
-21 c0 -5 -4 -10 -10 -10 -5 0 -10 5 -10 10 0 6 5 10 10 10 6 0 10 -4 10 -10z
m4300 0 c0 -5 -4 -10 -9 -10 -6 0 -13 5 -16 10 -3 6 1 10 9 10 9 0 16 -4 16
-10z m-4380 -44 c-6 -19 -16 -36 -21 -38 -5 -2 -17 -33 -25 -69 -19 -84 -35
-109 -58 -90 -24 20 -20 60 7 70 17 7 28 23 37 55 11 41 60 119 68 111 2 -2
-1 -19 -8 -39z m169 -91 c1 -19 -1 -18 -18 4 -13 17 -23 22 -39 16 -25 -7 -30
13 -10 45 12 18 13 18 40 -13 15 -18 27 -41 27 -52z m108 63 c-3 -8 -6 -5 -6
6 -1 11 2 17 5 13 3 -3 4 -12 1 -19z m4480 -20 c25 -23 31 -51 10 -42 -15 5
-52 64 -41 64 4 0 18 -10 31 -22z m-680 -50 c-3 -7 -5 -2 -5 12 0 14 2 19 5
13 2 -7 2 -19 0 -25z m-1129 -13 c-11 -25 -28 -34 -28 -14 0 6 5 19 11 30 15
28 31 13 17 -16z m-2918 5 c0 -5 -4 -10 -10 -10 -5 0 -10 5 -10 10 0 6 5 10
10 10 6 0 10 -4 10 -10z m4744 -9 c3 -5 -1 -14 -9 -21 -13 -10 -15 -9 -15 9 0
21 14 28 24 12z m61 -29 c-3 -4 -10 0 -15 8 -6 9 -5 17 3 22 13 8 24 -19 12
-30z m-4815 -68 c0 -13 -13 -47 -29 -76 -28 -50 -32 -53 -68 -53 -45 0 -46 11
-7 93 17 34 32 52 44 52 10 0 21 7 24 16 9 23 36 -1 36 -32z m40 -13 c0 -11
-4 -23 -10 -26 -6 -4 -10 5 -10 19 0 14 5 26 10 26 6 0 10 -9 10 -19z m4710
-6 c0 -8 -2 -15 -4 -15 -2 0 -6 7 -10 15 -3 8 -1 15 4 15 6 0 10 -7 10 -15z
m-4640 -22 c-1 -16 -9 -44 -20 -63 -17 -31 -19 -33 -20 -11 0 32 21 101 32
101 4 0 8 -12 8 -27z m4538 9 c6 -18 -15 -14 -22 4 -4 10 -1 14 6 12 6 -2 14
-10 16 -16z m-58 -11 c0 -5 -9 -11 -20 -14 -22 -6 -29 18 -7 26 14 5 27 -1 27
-12z m-4737 3 c3 -3 3 -12 0 -20 -5 -13 -8 -12 -24 2 -18 16 -21 16 -44 -6
-15 -14 -28 -40 -31 -62 -8 -45 -34 -53 -34 -9 0 32 32 78 64 91 25 10 60 12
69 4z m307 -9 c0 -8 -4 -15 -10 -15 -5 0 -10 7 -10 15 0 8 5 15 10 15 6 0 10
-7 10 -15z m4480 -38 c0 -7 -4 -17 -10 -23 -6 -6 -4 -24 5 -49 22 -62 20 -67
-20 -59 -34 6 -49 -6 -25 -21 17 -10 11 -25 -10 -25 -11 0 -20 -7 -20 -15 0
-8 -8 -19 -19 -24 -17 -9 -19 -6 -24 37 -6 50 14 83 42 74 14 -5 13 13 -5 76
-5 18 -2 22 15 22 11 0 21 -4 21 -10 0 -18 18 -11 25 10 7 22 25 27 25 7z
m-4843 -19 c-3 -8 -6 -5 -6 6 -1 11 2 17 5 13 3 -3 4 -12 1 -19z m4933 2 c0
-13 -5 -18 -15 -14 -8 4 -15 12 -15 20 0 8 7 14 15 14 8 0 15 -9 15 -20z
m-5039 -37 c-4 -28 -6 -32 -9 -15 -3 22 3 52 11 52 1 0 1 -17 -2 -37z m4813
31 c22 -9 10 -74 -16 -93 -15 -10 -19 -22 -16 -47 2 -19 1 -34 -3 -34 -13 0
-17 14 -25 70 -6 46 -5 52 9 47 16 -6 27 11 27 44 0 21 1 22 24 13z m388 -62
c5 -20 5 -39 -1 -50 -9 -15 -10 -15 -11 3 0 11 -7 33 -15 49 -19 36 -19 38 2
34 9 -2 21 -18 25 -36z m-4932 -27 c-11 -39 -40 -82 -40 -59 0 14 45 113 49
108 2 -2 -2 -24 -9 -49z m-160 15 c0 -5 -4 -10 -10 -10 -5 0 -10 5 -10 10 0 6
5 10 10 10 6 0 10 -4 10 -10z m-119 -93 c-8 -8 -11 -4 -11 14 0 33 14 47 18
19 2 -12 -1 -27 -7 -33z m4649 43 c0 -5 -4 -10 -10 -10 -5 0 -10 5 -10 10 0 6
5 10 10 10 6 0 10 -4 10 -10z m-4295 -10 c-3 -5 -11 -10 -16 -10 -6 0 -7 5 -4
10 3 6 11 10 16 10 6 0 7 -4 4 -10z m61 -27 c-11 -11 -19 6 -11 24 8 17 8 17
12 0 3 -10 2 -21 -1 -24z m-288 -42 c2 -18 1 -40 -3 -49 -10 -26 -25 5 -25 51
0 48 23 46 28 -2z m5112 -1 c0 -40 31 -98 56 -104 20 -5 24 -13 24 -41 0 -31
-3 -35 -25 -35 -33 0 -39 -29 -31 -131 4 -43 5 -79 3 -79 -3 0 -15 30 -28 68
-29 88 -46 122 -64 122 -16 0 -29 -53 -23 -91 4 -22 5 -20 14 10 5 19 15 36
21 38 31 11 78 -308 56 -378 -13 -43 -18 -30 -31 87 -11 100 -26 137 -74 186
l-32 32 22 84 c15 58 19 90 12 102 -5 9 -7 20 -4 22 2 3 8 25 13 49 l9 44 1
-52 c1 -54 13 -72 35 -54 7 6 21 9 30 5 21 -8 20 7 -5 55 -16 32 -18 44 -9 60
14 27 30 27 30 1z m-312 -28 c2 -12 -1 -22 -6 -22 -15 0 -34 28 -27 40 10 17
30 6 33 -18z m97 -2 c21 -24 15 -35 -14 -25 -12 3 -21 15 -21 26 0 24 12 24
35 -1z m-5012 -31 c13 -9 4 -44 -12 -44 -18 0 -35 49 -26 73 6 15 7 15 17 -3
6 -11 15 -23 21 -26z m4807 -7 c0 -15 -2 -15 -10 -2 -13 20 -13 33 0 25 6 -3
10 -14 10 -23z m-4622 -32 c-5 -17 -14 -30 -19 -30 -12 0 -11 14 2 44 16 35
30 23 17 -14z m4772 30 c0 -5 -7 -10 -16 -10 -8 0 -12 5 -9 10 3 6 10 10 16
10 5 0 9 -4 9 -10z m-4867 -110 c-3 -25 -10 -49 -14 -54 -11 -12 -12 42 -2 99
9 55 23 16 16 -45z m4962 61 c3 -11 15 -23 27 -27 17 -5 20 -12 15 -45 -3 -22
-10 -46 -17 -54 -10 -12 -17 -8 -42 21 l-31 35 23 25 c18 19 21 27 12 36 -14
14 -16 28 -3 28 5 0 12 -9 16 -19z m-5077 -39 c6 -18 -15 -14 -22 4 -4 10 -1
14 6 12 6 -2 14 -10 16 -16z m5340 -81 c3 -8 -1 -12 -9 -9 -7 2 -15 10 -17 17
-3 8 1 12 9 9 7 -2 15 -10 17 -17z m-5088 -45 c0 -3 -4 -8 -10 -11 -5 -3 -10
-1 -10 4 0 6 5 11 10 11 6 0 10 -2 10 -4z m-262 -17 c-2 -6 -8 -10 -13 -10 -5
0 -11 4 -13 10 -2 6 4 11 13 11 9 0 15 -5 13 -11z m411 -71 c-1 -31 -1 -31 -8
-8 -5 14 -6 28 -4 33 9 15 13 6 12 -25z m-274 -138 c16 -144 15 -170 -5 -170
-6 0 -10 30 -10 75 0 75 0 75 -27 75 l-26 0 22 24 c20 21 21 30 15 92 -5 51
-4 66 5 58 6 -5 18 -75 26 -154z m-105 123 c0 -19 -3 -24 -10 -17 -6 6 -8 18
-4 27 9 24 14 21 14 -10z m5135 -8 c17 -14 18 -19 7 -60 -7 -25 -12 -74 -12
-110 0 -36 -4 -65 -8 -65 -27 0 -55 208 -32 235 15 18 20 18 45 0z m-5207
-128 c10 -11 9 -17 -2 -26 -11 -10 -17 -7 -30 11 -17 24 -20 56 -9 109 6 33 7
32 18 -23 6 -31 16 -63 23 -71z m287 93 c3 -5 1 -10 -4 -10 -6 0 -11 5 -11 10
0 6 2 10 4 10 3 0 8 -4 11 -10z m5089 -34 c9 -13 7 -20 -9 -32 -18 -14 -20
-13 -26 8 -11 46 12 62 35 24z m-5124 -16 c0 -5 -4 -10 -10 -10 -5 0 -10 5
-10 10 0 6 5 10 10 10 6 0 10 -4 10 -10z m91 -27 c-9 -16 -10 -14 -11 12 0 21
3 26 11 18 8 -8 8 -16 0 -30z m4903 11 c4 -9 4 -19 2 -21 -8 -8 -26 8 -26 23
0 19 16 18 24 -2z m-5032 -36 c-9 -9 -12 -7 -12 12 0 19 3 21 12 12 9 -9 9
-15 0 -24z m68 -8 c0 -5 -4 -10 -10 -10 -5 0 -10 5 -10 10 0 6 5 10 10 10 6 0
10 -4 10 -10z m40 -65 c0 -8 -4 -15 -9 -15 -5 0 -11 7 -15 15 -3 9 0 15 9 15
8 0 15 -7 15 -15z m-40 -5 c0 -5 -4 -10 -10 -10 -5 0 -10 5 -10 10 0 6 5 10
10 10 6 0 10 -4 10 -10z m90 0 c0 -5 -4 -10 -10 -10 -5 0 -10 5 -10 10 0 6 5
10 10 10 6 0 10 -4 10 -10z m4890 -36 c0 -24 5 -34 15 -34 8 0 15 -4 15 -10 0
-21 -31 -9 -40 16 -13 33 -13 77 0 69 6 -3 10 -22 10 -41z m-4790 -14 c0 -5
-4 -10 -10 -10 -5 0 -10 5 -10 10 0 6 5 10 10 10 6 0 10 -4 10 -10z m-340 -85
c6 -19 9 -41 7 -48 -5 -13 -37 53 -37 78 0 26 17 8 30 -30z m5020 25 c0 -5 -4
-10 -10 -10 -5 0 -10 5 -10 10 0 6 5 10 10 10 6 0 10 -4 10 -10z m-4960 -26
c0 -8 -4 -14 -10 -14 -5 0 -10 9 -10 21 0 11 5 17 10 14 6 -3 10 -13 10 -21z
m4924 10 c11 -29 6 -71 -9 -84 -13 -11 -18 -10 -30 6 -8 10 -15 25 -15 32 0 6
-4 12 -10 12 -5 0 -7 7 -3 16 3 8 12 13 20 10 7 -3 16 1 19 9 8 20 20 19 28
-1z m-4854 -60 c0 -8 -9 -14 -20 -14 -12 0 -20 -7 -21 -17 0 -11 -2 -13 -6 -5
-6 16 25 64 37 57 6 -4 10 -13 10 -21z m252 4 c-7 -7 -12 -8 -12 -2 0 14 12
26 19 19 2 -3 -1 -11 -7 -17z m-112 -38 c6 -11 7 -20 2 -20 -5 0 -17 9 -27 20
-16 18 -16 20 -2 20 9 0 21 -9 27 -20z m110 -10 c0 -5 -4 -10 -10 -10 -5 0
-10 5 -10 10 0 6 5 10 10 10 6 0 10 -4 10 -10z m4579 -27 c0 -25 -1 -26 -9 -8
-12 27 -12 35 0 35 6 0 10 -12 9 -27z m-5089 -38 c0 -8 -4 -15 -10 -15 -5 0
-10 7 -10 15 0 8 5 15 10 15 6 0 10 -7 10 -15z m98 -37 c16 -16 15 -28 -3 -28
-8 0 -15 2 -15 4 0 2 -3 11 -6 20 -7 19 7 21 24 4z m5018 -53 c-3 -8 -1 -15 4
-15 6 0 10 7 10 16 0 14 3 14 15 4 14 -12 14 -15 0 -30 -9 -9 -13 -24 -10 -32
8 -20 -55 -112 -80 -116 -15 -2 -17 -1 -6 6 8 6 11 18 7 30 -5 14 1 28 17 46
17 18 23 34 19 51 -2 14 1 32 8 40 16 19 24 19 16 0z m-5076 -51 c0 -8 -4 -14
-10 -14 -5 0 -10 9 -10 21 0 11 5 17 10 14 6 -3 10 -13 10 -21z m-52 -18 c3
-12 -1 -17 -10 -14 -7 3 -15 13 -16 22 -3 12 1 17 10 14 7 -3 15 -13 16 -22z
m5182 14 c0 -5 -5 -10 -11 -10 -5 0 -7 5 -4 10 3 6 8 10 11 10 2 0 4 -4 4 -10z
m-4526 -32 c18 -25 21 -48 6 -48 -8 0 -40 51 -40 65 0 13 20 3 34 -17z m-474
8 c0 -3 -4 -8 -10 -11 -5 -3 -10 -1 -10 4 0 6 5 11 10 11 6 0 10 -2 10 -4z
m415 -46 c-3 -5 -13 -10 -21 -10 -8 0 -12 5 -9 10 3 6 13 10 21 10 8 0 12 -4
9 -10z m-436 -86 c6 -15 9 -29 6 -33 -8 -7 -35 28 -35 46 0 22 16 15 29 -13z
m4991 -13 c0 -12 -20 -25 -27 -18 -7 7 6 27 18 27 5 0 9 -4 9 -9z m-4888 -27
c-6 -33 -22 -41 -38 -20 -18 26 -18 34 4 39 27 7 37 1 34 -19z m142 1 c-4 -8
-10 -13 -15 -10 -4 3 -6 12 -3 20 4 8 10 13 15 10 4 -3 6 -12 3 -20z m4856 -8
c0 -19 -37 -50 -49 -42 -15 9 -14 21 5 39 19 20 44 21 44 3z m-5130 -17 c0 -5
-4 -10 -10 -10 -5 0 -10 5 -10 10 0 6 5 10 10 10 6 0 10 -4 10 -10z m60 4 c0
-15 -22 -44 -31 -39 -18 12 -10 45 11 45 11 0 20 -3 20 -6z m140 -24 c0 -33
-2 -35 -31 -19 -20 10 -20 11 -3 30 24 27 34 24 34 -11z m4530 -5 c0 -27 -15
-41 -25 -25 -10 16 4 62 15 55 6 -3 10 -17 10 -30z m210 0 c-14 -16 -40 -20
-40 -6 0 13 44 40 48 30 2 -6 -2 -16 -8 -24z m-4682 -2 c-5 -25 -28 -28 -28
-4 0 12 6 21 16 21 9 0 14 -7 12 -17z m-578 -23 c0 -5 -2 -10 -4 -10 -3 0 -8
5 -11 10 -3 6 -1 10 4 10 6 0 11 -4 11 -10z m5210 -12 c0 -19 -2 -20 -10 -8
-13 19 -13 30 0 30 6 0 10 -10 10 -22z m-4536 -4 c9 -22 -3 -32 -14 -14 -12
19 -12 30 -1 30 5 0 12 -7 15 -16z m4510 -29 c8 -32 10 -29 -71 -115 -80 -85
-109 -94 -83 -24 8 21 8 29 -2 35 -10 6 -10 11 -2 19 9 9 17 8 32 -1 19 -12
25 -10 52 16 19 18 28 35 25 45 -11 26 -10 34 2 35 6 0 15 3 19 8 13 13 22 8
28 -18z m-5194 -35 c0 -13 -1 -13 -10 0 -5 8 -10 22 -10 30 0 13 1 13 10 0 5
-8 10 -22 10 -30z m570 12 c0 -27 11 -34 25 -16 20 28 50 8 80 -56 16 -33 26
-62 23 -65 -9 -9 -68 26 -84 50 -9 13 -21 22 -27 20 -13 -5 -49 63 -41 77 9
15 24 8 24 -10z m4070 -56 c0 -45 3 -54 20 -59 17 -4 19 -9 10 -32 -13 -34
-13 -35 5 -35 18 0 18 0 4 -56 -11 -43 -22 -54 -34 -34 -11 17 -25 11 -25 -11
0 -29 -18 -59 -36 -59 -25 0 -55 82 -55 154 -1 52 5 78 27 123 26 54 28 56 32
30 4 -34 27 -31 28 4 2 37 3 41 14 34 6 -3 10 -30 10 -59z m-4530 9 c0 -26 -3
-33 -15 -29 -15 6 -21 55 -9 67 13 13 24 -5 24 -38z m37 3 c-3 -8 -6 -5 -6 6
-1 11 2 17 5 13 3 -3 4 -12 1 -19z m-7 -93 c0 -19 -4 -35 -10 -35 -12 0 -24
45 -15 59 13 22 25 10 25 -24z m617 13 c-3 -8 -6 -5 -6 6 -1 11 2 17 5 13 3
-3 4 -12 1 -19z m-47 -54 c0 -17 -22 -14 -28 4 -2 7 3 12 12 12 9 0 16 -7 16
-16z m4390 -32 c0 -15 -2 -15 -10 -2 -13 20 -13 33 0 25 6 -3 10 -14 10 -23z
m-4280 10 c0 -13 -12 -22 -22 -16 -10 6 -1 24 13 24 5 0 9 -4 9 -8z m4360 -12
c0 -5 -4 -10 -10 -10 -5 0 -10 5 -10 10 0 6 5 10 10 10 6 0 10 -4 10 -10z
m-113 -66 l-15 -29 3 45 c3 57 4 59 17 34 7 -16 6 -29 -5 -50z m193 46 c0 -5
-5 -10 -11 -10 -5 0 -7 5 -4 10 3 6 8 10 11 10 2 0 4 -4 4 -10z m158 -7 c5
-18 -10 -16 -34 2 -18 15 -18 15 5 13 14 -2 26 -9 29 -15z m-5178 -3 c0 -5 -7
-10 -16 -10 -8 0 -12 5 -9 10 3 6 10 10 16 10 5 0 9 -4 9 -10z m620 0 c0 -5
-7 -10 -16 -10 -8 0 -12 5 -9 10 3 6 10 10 16 10 5 0 9 -4 9 -10z m4256 -27
c-8 -15 -15 -22 -16 -15 0 17 20 55 27 49 2 -3 -2 -18 -11 -34z m-4826 1 c0
-8 -4 -12 -10 -9 -5 3 -10 13 -10 21 0 8 5 12 10 9 6 -3 10 -13 10 -21z m501
-54 c20 -16 21 -21 10 -29 -16 -11 -60 16 -61 37 0 18 25 15 51 -8z m3927 -2
c-6 -16 -33 -22 -56 -13 -14 5 -14 7 -2 15 22 14 62 12 58 -2z m-3888 -52 c0
-15 -18 -31 -26 -23 -7 7 7 37 17 37 5 0 9 -6 9 -14z m4530 -10 c0 -7 -7 -19
-15 -26 -16 -13 -20 -3 -9 24 8 20 24 21 24 2z m-4482 -33 c-3 -24 0 -28 19
-25 25 3 36 -9 27 -32 -9 -24 -50 -19 -68 9 -19 29 -20 47 -4 63 20 20 29 14
26 -15z m4337 17 c3 -5 1 -10 -4 -10 -6 0 -11 5 -11 10 0 6 2 10 4 10 3 0 8
-4 11 -10z m-4925 -101 c0 -6 -4 -7 -10 -4 -5 3 -10 11 -10 16 0 6 5 7 10 4 6
-3 10 -11 10 -16z m140 -19 c0 -5 -4 -10 -10 -10 -5 0 -10 5 -10 10 0 6 5 10
10 10 6 0 10 -4 10 -10z m-83 -142 c21 -24 74 -103 94 -139 14 -26 3 -21 -58
29 -50 40 -87 96 -79 117 8 21 19 19 43 -7z m373 -222 c0 -3 -4 -8 -10 -11 -5
-3 -10 -1 -10 4 0 6 5 11 10 11 6 0 10 -2 10 -4z m-290 -71 c0 -8 -4 -15 -10
-15 -5 0 -10 7 -10 15 0 8 5 15 10 15 6 0 10 -7 10 -15z m140 -100 c18 -19 30
-38 27 -42 -8 -7 -77 55 -77 69 0 16 17 7 50 -27z m4377 13 c-3 -8 -6 -5 -6 6
-1 11 2 17 5 13 3 -3 4 -12 1 -19z m-4409 -123 c40 -27 125 -86 189 -130 64
-44 118 -86 120 -92 2 -6 -5 -17 -17 -23 -28 -15 -80 5 -80 30 0 27 -60 72
-132 99 -77 29 -90 39 -83 61 5 14 -4 21 -37 32 -38 13 -43 19 -46 47 -4 39
-6 40 86 -24z m145 17 c9 -8 17 -22 17 -29 0 -10 -13 -4 -40 17 -22 17 -40 36
-40 41 0 11 36 -6 63 -29z m4067 -67 c0 -8 -6 -15 -14 -15 -8 0 -16 7 -20 15
-4 10 1 15 14 15 11 0 20 -7 20 -15z m-3645 -335 c3 -5 1 -10 -4 -10 -6 0 -11
5 -11 10 0 6 2 10 4 10 3 0 8 -4 11 -10z m3225 -60 c0 -5 -4 -10 -10 -10 -5 0
-10 5 -10 10 0 6 5 10 10 10 6 0 10 -4 10 -10z m-93 -72 c-3 -8 -6 -5 -6 6 -1
11 2 17 5 13 3 -3 4 -12 1 -19z m375 -13 c4 -17 1 -25 -8 -25 -8 0 -14 11 -14
25 0 14 4 25 9 25 5 0 11 -11 13 -25z m-3412 -22 c13 -13 11 -14 -20 -8 -42 9
-50 13 -50 27 0 14 51 1 70 -19z m3465 -52 c5 -10 -35 -44 -43 -37 -6 7 18 46
28 46 5 0 11 -4 15 -9z m-430 -161 c-6 -9 -9 -9 -16 1 -10 17 0 34 13 21 6 -6
7 -16 3 -22z m-75 -41 c-7 -11 -14 -18 -17 -15 -3 3 0 12 7 21 18 21 23 19 10
-6z m-1 -71 c-61 -118 -110 -177 -149 -178 -3 0 -6 16 -8 37 -4 57 26 94 112
139 53 28 59 29 45 2z m-12 -90 c-3 -8 -6 -5 -6 6 -1 11 2 17 5 13 3 -3 4 -12
1 -19z"/>
<path d="M3083 6238 c-29 -14 -31 -48 -3 -48 18 0 40 26 40 49 0 13 -8 13 -37
-1z"/>
<path d="M8006 5785 c4 -8 10 -12 15 -9 11 6 2 24 -11 24 -5 0 -7 -7 -4 -15z"/>
<path d="M8050 5790 c0 -5 5 -10 10 -10 6 0 10 5 10 10 0 6 -4 10 -10 10 -5 0
-10 -4 -10 -10z"/>
<path d="M7210 4350 c0 -5 5 -10 10 -10 6 0 10 5 10 10 0 6 -4 10 -10 10 -5 0
-10 -4 -10 -10z"/>
<path d="M3040 3420 c0 -5 5 -10 11 -10 5 0 7 5 4 10 -3 6 -8 10 -11 10 -2 0
-4 -4 -4 -10z"/>
<path d="M5842 7828 c-18 -18 -15 -28 8 -28 13 0 20 7 20 20 0 23 -10 26 -28
8z"/>
<path d="M5105 7811 c-6 -11 9 -23 19 -14 9 9 7 23 -3 23 -6 0 -12 -4 -16 -9z"/>
<path d="M5203 7804 c15 -8 27 -19 27 -25 0 -21 33 -3 35 19 1 20 -3 22 -44
22 l-46 -1 28 -15z"/>
<path d="M5372 7810 c10 -6 25 -7 40 -1 20 9 18 10 -17 10 -31 0 -36 -2 -23
-9z"/>
<path d="M5890 7811 c0 -6 5 -13 10 -16 6 -3 10 1 10 9 0 9 -4 16 -10 16 -5 0
-10 -4 -10 -9z"/>
<path d="M4974 7799 c-3 -6 -1 -16 5 -22 12 -12 91 9 91 25 0 12 -88 10 -96
-3z"/>
<path d="M5560 7800 c0 -5 5 -10 10 -10 6 0 10 5 10 10 0 6 -4 10 -10 10 -5 0
-10 -4 -10 -10z"/>
<path d="M6480 7808 c0 -3 5 -19 11 -37 10 -29 39 -44 39 -20 0 7 10 9 24 5
34 -8 42 10 13 28 -23 16 -87 33 -87 24z"/>
<path d="M4877 7793 c-10 -10 -8 -43 2 -43 9 0 21 24 21 41 0 11 -14 12 -23 2z"/>
<path d="M3120 7779 c0 -5 5 -7 10 -4 6 3 10 8 10 11 0 2 -4 4 -10 4 -5 0 -10
-5 -10 -11z"/>
<path d="M4910 7776 c0 -9 5 -16 10 -16 6 0 10 4 10 9 0 6 -4 13 -10 16 -5 3
-10 -1 -10 -9z"/>
<path d="M4960 7740 c0 -5 7 -10 16 -10 8 0 12 5 9 10 -3 6 -10 10 -16 10 -5
0 -9 -4 -9 -10z"/>
<path d="M3860 7730 c0 -5 5 -10 10 -10 6 0 10 5 10 10 0 6 -4 10 -10 10 -5 0
-10 -4 -10 -10z"/>
<path d="M4435 7731 c-6 -11 9 -23 19 -14 9 9 7 23 -3 23 -6 0 -12 -4 -16 -9z"/>
<path d="M3677 7643 c-4 -3 -7 -11 -7 -17 0 -6 5 -5 12 2 6 6 9 14 7 17 -3 3
-9 2 -12 -2z"/>
<path d="M3718 7623 c7 -3 16 -2 19 1 4 3 -2 6 -13 5 -11 0 -14 -3 -6 -6z"/>
<path d="M3926 7591 c-4 -7 -5 -15 -2 -18 9 -9 19 4 14 18 -4 11 -6 11 -12 0z"/>
<path d="M3630 7510 c0 -5 5 -10 10 -10 6 0 10 5 10 10 0 6 -4 10 -10 10 -5 0
-10 -4 -10 -10z"/>
<path d="M4040 7490 c0 -5 5 -10 10 -10 6 0 10 5 10 10 0 6 -4 10 -10 10 -5 0
-10 -4 -10 -10z"/>
<path d="M7050 7480 c0 -5 5 -10 10 -10 6 0 10 5 10 10 0 6 -4 10 -10 10 -5 0
-10 -4 -10 -10z"/>
<path d="M3510 7454 c0 -8 5 -12 10 -9 6 4 8 11 5 16 -9 14 -15 11 -15 -7z"/>
<path d="M2907 7433 c-10 -9 -9 -23 2 -23 5 0 11 7 15 15 5 15 -5 20 -17 8z"/>
<path d="M2790 7372 c-60 -61 -72 -82 -47 -82 15 0 90 76 107 108 23 45 -1 35
-60 -26z"/>
<path d="M7160 7410 c0 -5 5 -10 11 -10 5 0 7 5 4 10 -3 6 -8 10 -11 10 -2 0
-4 -4 -4 -10z"/>
<path d="M3210 7384 c0 -14 4 -23 10 -19 6 3 10 15 10 26 0 10 -4 19 -10 19
-5 0 -10 -12 -10 -26z"/>
<path d="M3071 7362 c-14 -26 -7 -42 10 -25 6 6 9 19 7 29 -3 17 -5 17 -17 -4z"/>
<path d="M3415 7357 c-4 -10 -5 -21 -1 -24 10 -10 18 4 13 24 -4 17 -4 17 -12
0z"/>
<path d="M2786 7293 c-31 -37 -53 -69 -50 -72 6 -6 99 92 115 122 22 39 -13
13 -65 -50z"/>
<path d="M3673 7334 c-3 -8 -1 -25 5 -37 10 -20 11 -18 11 16 1 39 -5 48 -16
21z"/>
<path d="M3077 7275 c-51 -76 -63 -115 -22 -71 34 37 78 113 73 128 -3 7 -26
-19 -51 -57z"/>
<path d="M3640 7305 c0 -8 5 -15 10 -15 6 0 10 7 10 15 0 8 -4 15 -10 15 -5 0
-10 -7 -10 -15z"/>
<path d="M2929 7231 c-78 -78 -92 -101 -66 -101 15 0 109 95 146 148 40 57 2
34 -80 -47z"/>
<path d="M3570 7285 c-15 -16 -20 -29 -14 -34 9 -10 66 44 56 54 -10 9 -18 5
-42 -20z"/>
<path d="M3332 7258 c-15 -15 -16 -58 -2 -58 10 0 30 41 30 61 0 13 -14 11
-28 -3z"/>
<path d="M3650 7239 c0 -5 5 -7 10 -4 6 3 10 8 10 11 0 2 -4 4 -10 4 -5 0 -10
-5 -10 -11z"/>
<path d="M3512 7228 c-13 -13 -17 -68 -4 -68 10 1 42 67 35 74 -9 9 -18 7 -31
-6z"/>
<path d="M7670 7186 c0 -8 5 -18 10 -21 6 -3 10 1 10 9 0 8 -4 18 -10 21 -5 3
-10 -1 -10 -9z"/>
<path d="M2952 7133 c-19 -53 -21 -62 -12 -68 8 -5 60 72 60 88 0 4 -8 7 -19
7 -11 0 -23 -11 -29 -27z"/>
<path d="M7780 7153 c0 -14 19 -38 25 -32 8 8 -5 39 -16 39 -5 0 -9 -3 -9 -7z"/>
<path d="M3280 7110 c0 -5 5 -10 10 -10 6 0 10 5 10 10 0 6 -4 10 -10 10 -5 0
-10 -4 -10 -10z"/>
<path d="M3340 7090 c0 -5 5 -10 11 -10 5 0 7 5 4 10 -3 6 -8 10 -11 10 -2 0
-4 -4 -4 -10z"/>
<path d="M2585 7080 c-3 -5 1 -10 10 -10 9 0 13 5 10 10 -3 6 -8 10 -10 10 -2
0 -7 -4 -10 -10z"/>
<path d="M7810 7076 c0 -8 5 -18 10 -21 6 -3 10 1 10 9 0 8 -4 18 -10 21 -5 3
-10 -1 -10 -9z"/>
<path d="M3260 7025 c0 -8 5 -15 10 -15 6 0 10 7 10 15 0 8 -4 15 -10 15 -5 0
-10 -7 -10 -15z"/>
<path d="M3017 7023 c-10 -9 -9 -23 2 -23 5 0 11 7 15 15 5 15 -5 20 -17 8z"/>
<path d="M7480 7010 c0 -5 9 -10 21 -10 11 0 17 5 14 10 -3 6 -13 10 -21 10
-8 0 -14 -4 -14 -10z"/>
<path d="M7645 6970 c-3 -5 1 -13 10 -16 22 -9 29 1 11 15 -10 8 -16 9 -21 1z"/>
<path d="M2717 6964 c-4 -4 -7 -14 -7 -23 0 -11 3 -12 11 -4 6 6 10 16 7 23
-2 6 -7 8 -11 4z"/>
<path d="M7850 6960 c0 -5 5 -10 11 -10 5 0 7 5 4 10 -3 6 -8 10 -11 10 -2 0
-4 -4 -4 -10z"/>
<path d="M2713 6837 c-18 -39 -16 -55 3 -35 9 8 14 26 12 39 -3 23 -3 23 -15
-4z"/>
<path d="M3110 6850 c0 -5 9 -10 20 -10 11 0 20 5 20 10 0 6 -9 10 -20 10 -11
0 -20 -4 -20 -10z"/>
<path d="M2382 6827 c-16 -19 -33 -67 -24 -67 9 0 45 70 39 76 -2 3 -9 -1 -15
-9z"/>
<path d="M2986 6786 c-29 -39 -96 -173 -96 -193 0 -16 12 -17 28 -1 9 9 12 9
12 0 0 -22 38 -12 60 15 16 21 19 35 15 67 -4 23 -1 63 5 90 6 27 9 50 7 53
-2 2 -16 -12 -31 -31z m4 -130 c0 -7 -7 -19 -15 -26 -16 -13 -20 -3 -9 24 8
20 24 21 24 2z"/>
<path d="M7800 6760 c0 -5 7 -10 15 -10 8 0 15 5 15 10 0 6 -7 10 -15 10 -8 0
-15 -4 -15 -10z"/>
<path d="M3050 6741 c0 -6 5 -13 10 -16 6 -3 10 1 10 9 0 9 -4 16 -10 16 -5 0
-10 -4 -10 -9z"/>
<path d="M2147 6700 c-21 -50 -29 -90 -18 -90 12 0 44 96 38 113 -3 6 -11 -4
-20 -23z"/>
<path d="M2372 6695 c-14 -31 -28 -113 -17 -103 8 8 36 120 31 125 -1 2 -8 -8
-14 -22z"/>
<path d="M2633 6684 c-15 -16 -17 -40 -4 -48 5 -4 12 8 16 25 8 36 5 42 -12
23z"/>
<path d="M3110 6689 c0 -5 5 -7 10 -4 6 3 10 8 10 11 0 2 -4 4 -10 4 -5 0 -10
-5 -10 -11z"/>
<path d="M2541 6524 c-32 -87 -38 -124 -22 -124 11 0 21 25 21 50 0 11 9 44
21 75 16 42 25 55 36 51 11 -5 13 -2 9 10 -3 8 -6 18 -6 20 0 2 -6 4 -14 4 -8
0 -26 -35 -45 -86z"/>
<path d="M2763 6395 c-24 -77 -64 -258 -60 -269 2 -6 20 39 41 101 27 82 36
124 34 160 l-3 48 -12 -40z"/>
<path d="M1961 6345 c-7 -33 -15 -70 -18 -82 -10 -42 5 -24 22 27 9 27 15 64
13 82 -3 29 -5 26 -17 -27z"/>
<path d="M2421 6334 c0 -11 3 -14 6 -6 3 7 2 16 -1 19 -3 4 -6 -2 -5 -13z"/>
<path d="M2452 6288 c-11 -35 -23 -85 -27 -113 -4 -27 -15 -60 -26 -73 -45
-58 -71 -223 -46 -285 9 -20 21 -37 26 -37 15 0 14 17 -4 44 -15 22 -15 24 2
22 24 -2 32 53 9 66 -35 20 -15 82 36 109 17 9 19 18 15 50 -4 29 -2 39 8 39
8 0 16 3 19 8 7 11 19 232 12 232 -3 0 -14 -28 -24 -62z m4 -145 c-10 -10 -19
5 -10 18 6 11 8 11 12 0 2 -7 1 -15 -2 -18z"/>
<path d="M2376 6311 c-4 -5 -2 -12 3 -15 5 -4 12 -2 15 3 4 5 2 12 -3 15 -5 4
-12 2 -15 -3z"/>
<path d="M7950 6246 c0 -9 5 -16 10 -16 6 0 10 4 10 9 0 6 -4 13 -10 16 -5 3
-10 -1 -10 -9z"/>
<path d="M2141 6065 c1 -40 1 -40 11 -12 7 21 7 32 -1 40 -8 8 -11 0 -10 -28z"/>
<path d="M2000 6050 c0 -5 5 -10 11 -10 5 0 7 5 4 10 -3 6 -8 10 -11 10 -2 0
-4 -4 -4 -10z"/>
<path d="M2410 5983 c0 -13 5 -23 10 -23 13 0 13 11 0 30 -8 12 -10 11 -10 -7z"/>
<path d="M2127 5943 c-11 -10 -8 -43 3 -43 6 0 10 11 10 25 0 26 -2 29 -13 18z"/>
<path d="M2446 5898 c-5 -32 -5 -66 0 -75 6 -14 9 -9 12 20 2 20 2 54 0 75 -3
34 -4 32 -12 -20z"/>
<path d="M8235 5910 c3 -5 8 -10 11 -10 2 0 4 5 4 10 0 6 -5 10 -11 10 -5 0
-7 -4 -4 -10z"/>
<path d="M2536 5803 c-4 -38 -8 -90 -11 -118 -4 -45 6 -87 19 -74 11 10 19
259 8 259 -6 0 -13 -30 -16 -67z"/>
<path d="M1830 5806 c0 -9 5 -16 10 -16 6 0 10 4 10 9 0 6 -4 13 -10 16 -5 3
-10 -1 -10 -9z"/>
<path d="M1962 5800 c0 -14 2 -19 5 -12 2 6 2 18 0 25 -3 6 -5 1 -5 -13z"/>
<path d="M2052 5795 c0 -16 2 -22 5 -12 2 9 2 23 0 30 -3 6 -5 -1 -5 -18z"/>
<path d="M2337 5774 c-10 -11 -9 -64 2 -64 6 0 12 4 15 8 8 13 -8 65 -17 56z"/>
<path d="M2084 5736 c-6 -26 1 -46 17 -46 5 0 9 16 9 35 0 40 -17 47 -26 11z"/>
<path d="M1761 5653 c1 -86 12 -156 26 -160 23 -8 24 37 3 126 -12 50 -24 91
-26 91 -2 0 -4 -26 -3 -57z"/>
<path d="M2380 5602 c0 -23 4 -42 9 -42 6 0 7 17 4 38 -8 51 -13 53 -13 4z"/>
<path d="M2610 5610 c0 -5 5 -10 10 -10 6 0 10 5 10 10 0 6 -4 10 -10 10 -5 0
-10 -4 -10 -10z"/>
<path d="M2570 5600 c0 -5 5 -10 10 -10 6 0 10 5 10 10 0 6 -4 10 -10 10 -5 0
-10 -4 -10 -10z"/>
<path d="M8312 5560 c0 -14 2 -19 5 -12 2 6 2 18 0 25 -3 6 -5 1 -5 -13z"/>
<path d="M2331 5554 c0 -11 3 -14 6 -6 3 7 2 16 -1 19 -3 4 -6 -2 -5 -13z"/>
<path d="M1900 5498 c0 -35 15 -67 25 -56 7 6 -12 88 -20 88 -3 0 -5 -15 -5
-32z"/>
<path d="M2607 5513 c-11 -10 -8 -71 3 -78 6 -4 10 12 10 39 0 47 -2 51 -13
39z"/>
<path d="M2292 5480 c0 -14 2 -19 5 -12 2 6 2 18 0 25 -3 6 -5 1 -5 -13z"/>
<path d="M2668 5470 c-12 -39 -10 -76 3 -63 6 6 9 28 7 49 -3 35 -4 36 -10 14z"/>
<path d="M8202 5467 c-12 -13 -22 -33 -22 -45 0 -42 18 -24 58 61 8 16 -16 6
-36 -16z"/>
<path d="M2232 5445 c0 -16 2 -22 5 -12 2 9 2 23 0 30 -3 6 -5 -1 -5 -18z"/>
<path d="M8320 5430 c0 -5 5 -10 10 -10 6 0 10 5 10 10 0 6 -4 10 -10 10 -5 0
-10 -4 -10 -10z"/>
<path d="M8290 5386 c0 -9 5 -16 10 -16 6 0 10 4 10 9 0 6 -4 13 -10 16 -5 3
-10 -1 -10 -9z"/>
<path d="M2160 5285 c0 -34 3 -43 14 -39 8 3 16 -2 19 -13 3 -13 5 -10 6 8 1
32 -18 89 -30 89 -5 0 -9 -20 -9 -45z"/>
<path d="M2300 5316 c0 -18 17 -29 30 -21 8 5 7 11 -1 21 -15 18 -29 18 -29 0z"/>
<path d="M2430 5250 c0 -36 -3 -80 -6 -97 -5 -26 -3 -33 10 -33 13 0 16 13 16
83 0 45 -5 89 -10 97 -8 11 -10 -3 -10 -50z"/>
<path d="M2391 5263 c-1 -24 4 -43 9 -43 12 0 12 24 0 60 -7 21 -8 19 -9 -17z"/>
<path d="M8218 5251 c-2 -16 2 -37 9 -47 11 -16 13 -12 13 29 0 52 -15 64 -22
18z"/>
<path d="M2300 5240 c0 -5 5 -10 10 -10 6 0 10 5 10 10 0 6 -4 10 -10 10 -5 0
-10 -4 -10 -10z"/>
<path d="M2716 5212 c-5 -21 -4 -38 3 -45 15 -15 23 12 13 48 l-9 30 -7 -33z"/>
<path d="M1470 5220 c0 -5 5 -10 10 -10 6 0 10 5 10 10 0 6 -4 10 -10 10 -5 0
-10 -4 -10 -10z"/>
<path d="M2670 5211 c-13 -25 -14 -99 -1 -85 11 10 26 104 17 104 -3 0 -10 -9
-16 -19z"/>
<path d="M2230 5211 c0 -5 5 -13 10 -16 6 -3 10 -2 10 4 0 5 -4 13 -10 16 -5
3 -10 2 -10 -4z"/>
<path d="M2310 5181 c0 -16 41 -61 56 -61 23 0 16 27 -12 49 -28 22 -44 27
-44 12z"/>
<path d="M8106 5164 c-4 -15 -3 -31 3 -37 11 -11 17 0 23 37 5 30 -19 30 -26
0z"/>
<path d="M8270 5130 c0 -5 5 -10 10 -10 6 0 10 5 10 10 0 6 -4 10 -10 10 -5 0
-10 -4 -10 -10z"/>
<path d="M8137 5053 c-15 -50 -16 -65 -6 -84 l12 -23 9 24 c5 13 8 51 6 84
l-3 61 -18 -62z"/>
<path d="M8090 5083 c0 -10 5 -25 10 -33 7 -11 10 -7 10 18 0 17 -4 32 -10 32
-5 0 -10 -8 -10 -17z"/>
<path d="M8250 5050 c-1 -43 -3 -50 -10 -32 -9 22 -30 31 -30 12 0 -6 7 -27
15 -47 16 -38 12 -67 -12 -95 -9 -10 -13 -28 -11 -43 3 -16 1 -25 -7 -25 -12
0 -31 -67 -22 -77 10 -9 78 92 74 108 -3 10 1 44 9 76 16 68 18 142 4 163 -7
11 -10 -1 -10 -40z"/>
<path d="M2215 5026 c34 -28 41 -27 25 3 -6 12 -21 21 -33 21 -21 0 -20 -2 8
-24z"/>
<path d="M8096 4931 c-4 -7 -5 -15 -2 -18 9 -9 19 4 14 18 -4 11 -6 11 -12 0z"/>
<path d="M2200 4899 c0 -25 17 -59 30 -59 13 0 13 36 0 61 -14 25 -30 24 -30
-2z"/>
<path d="M2261 4894 c0 -11 3 -14 6 -6 3 7 2 16 -1 19 -3 4 -6 -2 -5 -13z"/>
<path d="M2360 4890 c0 -5 5 -10 11 -10 5 0 7 5 4 10 -3 6 -8 10 -11 10 -2 0
-4 -4 -4 -10z"/>
<path d="M2640 4881 c0 -11 5 -23 10 -26 6 -3 10 3 10 14 0 11 -4 23 -10 26
-5 3 -10 -3 -10 -14z"/>
<path d="M8120 4884 c0 -8 5 -12 10 -9 6 4 8 11 5 16 -9 14 -15 11 -15 -7z"/>
<path d="M8370 4775 c0 -8 4 -15 9 -15 5 0 11 7 15 15 3 9 0 15 -9 15 -8 0
-15 -7 -15 -15z"/>
<path d="M2315 4740 c3 -5 8 -10 11 -10 2 0 4 5 4 10 0 6 -5 10 -11 10 -5 0
-7 -4 -4 -10z"/>
<path d="M2380 4714 c0 -5 6 -35 14 -67 8 -32 11 -67 9 -78 -4 -12 0 -19 9
-19 26 0 26 10 3 87 -22 69 -35 99 -35 77z"/>
<path d="M8080 4700 c0 -5 5 -10 10 -10 6 0 10 5 10 10 0 6 -4 10 -10 10 -5 0
-10 -4 -10 -10z"/>
<path d="M8160 4703 c1 -14 30 -47 36 -41 8 8 -14 48 -26 48 -6 0 -10 -3 -10
-7z"/>
<path d="M8100 4650 c0 -5 5 -10 10 -10 6 0 10 5 10 10 0 6 -4 10 -10 10 -5 0
-10 -4 -10 -10z"/>
<path d="M2172 4548 c2 -6 10 -14 16 -16 7 -2 10 2 6 12 -7 18 -28 22 -22 4z"/>
<path d="M8370 4530 c0 -5 5 -10 11 -10 5 0 7 5 4 10 -3 6 -8 10 -11 10 -2 0
-4 -4 -4 -10z"/>
<path d="M2310 4494 c0 -25 24 -49 40 -39 15 10 12 25 -7 32 -10 4 -21 11 -25
17 -5 6 -8 2 -8 -10z"/>
<path d="M2412 4439 c12 -22 28 -45 35 -51 25 -20 25 1 2 34 -48 69 -73 80
-37 17z"/>
<path d="M2480 4360 c0 -5 5 -10 11 -10 5 0 7 5 4 10 -3 6 -8 10 -11 10 -2 0
-4 -4 -4 -10z"/>
<path d="M2350 4276 c0 -9 5 -16 10 -16 6 0 10 4 10 9 0 6 -4 13 -10 16 -5 3
-10 -1 -10 -9z"/>
<path d="M8210 4259 c0 -5 5 -7 10 -4 6 3 10 8 10 11 0 2 -4 4 -10 4 -5 0 -10
-5 -10 -11z"/>
<path d="M2550 4220 c0 -5 5 -10 11 -10 5 0 7 5 4 10 -3 6 -8 10 -11 10 -2 0
-4 -4 -4 -10z"/>
<path d="M2582 4174 c13 -47 13 -49 -7 -46 -11 2 -32 13 -46 23 -36 25 -58 25
-34 -1 21 -23 80 -44 96 -34 7 4 29 -12 55 -42 36 -42 45 -47 61 -38 26 16 27
47 3 75 l-21 24 6 -37 c9 -54 -8 -48 -55 21 -43 65 -67 87 -58 55z"/>
<path d="M2370 4068 c0 -9 5 -20 10 -23 13 -8 13 5 0 25 -8 13 -10 13 -10 -2z"/>
<path d="M2570 4070 c0 -5 7 -10 15 -10 8 0 15 5 15 10 0 6 -7 10 -15 10 -8 0
-15 -4 -15 -10z"/>
<path d="M2590 4024 c0 -8 5 -12 10 -9 6 4 8 11 5 16 -9 14 -15 11 -15 -7z"/>
<path d="M2760 4005 c0 -8 7 -15 15 -15 9 0 12 6 9 15 -4 8 -10 15 -15 15 -5
0 -9 -7 -9 -15z"/>
<path d="M2530 3980 c20 -29 40 -39 40 -22 0 10 -43 52 -54 52 -4 0 2 -13 14
-30z"/>
<path d="M8060 3981 c0 -6 5 -13 10 -16 6 -3 10 1 10 9 0 9 -4 16 -10 16 -5 0
-10 -4 -10 -9z"/>
<path d="M2665 3950 c-3 -5 1 -10 10 -10 9 0 13 5 10 10 -3 6 -8 10 -10 10 -2
0 -7 -4 -10 -10z"/>
<path d="M2663 3878 c14 -21 23 -23 30 -5 3 8 19 -1 44 -25 43 -42 83 -51 83
-18 0 15 -7 20 -29 20 -18 0 -41 10 -55 23 -15 14 -38 24 -55 24 -26 0 -28 -2
-18 -19z"/>
<path d="M2656 3832 c-3 -6 -1 -14 5 -17 14 -9 20 -2 10 14 -6 8 -11 9 -15 3z"/>
<path d="M7760 3820 c0 -5 5 -10 10 -10 6 0 10 5 10 10 0 6 -4 10 -10 10 -5 0
-10 -4 -10 -10z"/>
<path d="M2930 3484 c0 -8 5 -12 10 -9 6 4 8 11 5 16 -9 14 -15 11 -15 -7z"/>
<path d="M2943 3377 c5 -15 37 -22 37 -9 0 5 -9 12 -21 15 -13 3 -19 1 -16 -6z"/>
<path d="M3090 3240 c0 -5 5 -10 10 -10 6 0 10 5 10 10 0 6 -4 10 -10 10 -5 0
-10 -4 -10 -10z"/>
<path d="M3140 3201 c0 -6 10 -17 22 -26 28 -19 40 1 12 22 -21 15 -34 17 -34
4z"/>
<path d="M7141 3154 c0 -11 3 -14 6 -6 3 7 2 16 -1 19 -3 4 -6 -2 -5 -13z"/>
<path d="M3265 3080 c3 -5 8 -10 11 -10 2 0 4 5 4 10 0 6 -5 10 -11 10 -5 0
-7 -4 -4 -10z"/>
<path d="M7210 3012 c0 -30 24 -71 35 -61 7 8 -17 89 -27 89 -5 0 -8 -13 -8
-28z"/>
<path d="M7291 3024 c0 -11 3 -14 6 -6 3 7 2 16 -1 19 -3 4 -6 -2 -5 -13z"/>
<path d="M3440 2970 c0 -5 7 -10 15 -10 8 0 15 5 15 10 0 6 -7 10 -15 10 -8 0
-15 -4 -15 -10z"/>
<path d="M2640 2840 c0 -11 68 -63 114 -87 50 -26 25 8 -40 54 -62 44 -74 50
-74 33z"/>
<path d="M6337 2606 c-4 -10 -5 -21 -2 -24 9 -9 17 6 13 25 -3 17 -4 17 -11
-1z"/>
<path d="M6286 2581 c-4 -7 -5 -15 -2 -18 9 -9 19 4 14 18 -4 11 -6 11 -12 0z"/>
<path d="M6193 2551 c-39 -29 -61 -51 -48 -51 21 0 75 32 85 50 18 33 7 33
-37 1z"/>
<path d="M6000 2485 c0 -11 4 -27 10 -35 8 -12 10 -12 16 4 4 11 0 24 -10 34
-15 15 -16 15 -16 -3z"/>
<path d="M5970 2460 c0 -5 5 -10 10 -10 6 0 10 5 10 10 0 6 -4 10 -10 10 -5 0
-10 -4 -10 -10z"/>
<path d="M3000 2390 c0 -5 5 -10 10 -10 6 0 10 5 10 10 0 6 -4 10 -10 10 -5 0
-10 -4 -10 -10z"/>
<path d="M6260 2365 c0 -8 5 -15 10 -15 6 0 10 7 10 15 0 8 -4 15 -10 15 -5 0
-10 -7 -10 -15z"/>
<path d="M3050 2361 c0 -12 59 -35 68 -27 4 4 -2 14 -12 22 -22 16 -56 19 -56
5z"/>
<path d="M5170 2360 c0 -5 6 -10 14 -10 8 0 18 5 21 10 3 6 -3 10 -14 10 -12
0 -21 -4 -21 -10z"/>
<path d="M6080 2320 c0 -5 5 -10 11 -10 5 0 7 5 4 10 -3 6 -8 10 -11 10 -2 0
-4 -4 -4 -10z"/>
<path d="M6280 2306 c0 -10 9 -16 21 -16 24 0 21 23 -4 28 -10 2 -17 -3 -17
-12z"/>
<path d="M6114 2254 c3 -9 6 -18 6 -20 0 -2 7 -4 15 -4 13 0 14 4 5 20 -13 24
-35 27 -26 4z"/>
<path d="M3280 2240 c0 -5 5 -10 11 -10 5 0 7 5 4 10 -3 6 -8 10 -11 10 -2 0
-4 -4 -4 -10z"/>
<path d="M3580 2240 c0 -5 5 -10 10 -10 6 0 10 5 10 10 0 6 -4 10 -10 10 -5 0
-10 -4 -10 -10z"/>
<path d="M6015 2170 c-10 -11 -15 -20 -11 -20 14 0 46 21 46 30 0 16 -16 11
-35 -10z"/>
<path d="M6457 2163 c-4 -3 -7 -11 -7 -17 0 -6 5 -5 12 2 6 6 9 14 7 17 -3 3
-9 2 -12 -2z"/>
<path d="M3818 2123 c7 -3 16 -2 19 1 4 3 -2 6 -13 5 -11 0 -14 -3 -6 -6z"/>
<path d="M6200 2064 c0 -8 5 -12 10 -9 6 3 10 10 10 16 0 5 -4 9 -10 9 -5 0
-10 -7 -10 -16z"/>
<path d="M6020 1974 c0 -8 5 -12 10 -9 6 4 8 11 5 16 -9 14 -15 11 -15 -7z"/>
<path d="M5685 1935 c-14 -13 -25 -28 -25 -33 0 -5 -10 -13 -22 -16 l-23 -7
24 -10 c53 -21 144 33 127 76 -8 23 -54 18 -81 -10z"/>
<path d="M4690 1890 c0 -5 9 -10 20 -10 11 0 20 5 20 10 0 6 -9 10 -20 10 -11
0 -20 -4 -20 -10z"/>
<path d="M5100 1890 c0 -5 5 -10 10 -10 6 0 10 5 10 10 0 6 -4 10 -10 10 -5 0
-10 -4 -10 -10z"/>
<path d="M5245 1890 c-3 -5 1 -10 10 -10 9 0 13 5 10 10 -3 6 -8 10 -10 10 -2
0 -7 -4 -10 -10z"/>
<path d="M4495 1840 c3 -5 21 -10 38 -10 24 0 28 3 17 10 -20 13 -63 13 -55 0z"/>
<path d="M5810 1840 c0 -5 5 -10 11 -10 5 0 7 5 4 10 -3 6 -8 10 -11 10 -2 0
-4 -4 -4 -10z"/>
<path d="M5445 1831 c-6 -11 9 -23 19 -14 9 9 7 23 -3 23 -6 0 -12 -4 -16 -9z"/>
<path d="M5340 1809 c0 -5 5 -7 10 -4 6 3 10 8 10 11 0 2 -4 4 -10 4 -5 0 -10
-5 -10 -11z"/>
<path d="M5020 1801 c0 -11 108 -26 118 -17 12 13 -23 26 -70 26 -27 0 -48 -4
-48 -9z"/>
<path d="M5290 1770 c-11 -7 -7 -10 18 -10 17 0 32 5 32 10 0 13 -30 13 -50 0z"/>
</g>
</svg>
