<?xml version="1.0" standalone="no"?>
<!DOCTYPE svg PUBLIC "-//W3C//DTD SVG 20010904//EN"
 "http://www.w3.org/TR/2001/REC-SVG-20010904/DTD/svg10.dtd">
<svg version="1.0" xmlns="http://www.w3.org/2000/svg"
 width="1024.000000pt" height="637.000000pt" viewBox="0 0 1024.000000 637.000000"
 preserveAspectRatio="xMidYMid meet">
<metadata>
Created by potrace 1.16, written by Peter Selinger 2001-2019
</metadata>
<g transform="translate(0.000000,637.000000) scale(0.100000,-0.100000)"
fill="#000000" stroke="none">
<path d="M4545 5410 c3 -5 8 -10 11 -10 2 0 4 5 4 10 0 6 -5 10 -11 10 -5 0
-7 -4 -4 -10z"/>
<path d="M4538 5353 c7 -3 16 -2 19 1 4 3 -2 6 -13 5 -11 0 -14 -3 -6 -6z"/>
<path d="M4030 5327 c0 -13 5 -28 11 -34 17 -17 0 -36 -27 -30 -13 2 -24 0
-24 -4 0 -5 9 -9 20 -9 24 0 25 -8 4 -38 -14 -21 -14 -22 10 -22 14 0 26 -4
26 -9 0 -6 15 -7 34 -4 32 5 157 -16 216 -37 40 -14 193 -22 185 -10 -3 5 1
10 9 10 9 0 16 -4 16 -10 0 -5 14 -10 31 -10 17 0 38 -4 48 -9 22 -12 111 -15
176 -5 44 6 49 5 37 -8 -10 -13 -10 -19 3 -32 15 -15 14 -16 -19 -16 -20 0
-38 6 -43 14 -5 10 -32 17 -78 21 -46 3 -63 2 -50 -4 23 -10 21 -11 -57 -31
-26 -7 -45 -17 -42 -21 3 -6 -19 -6 -53 -2 -32 4 -69 7 -83 6 -136 -8 -163
-11 -170 -22 -4 -7 -16 -12 -26 -11 -11 1 -30 1 -44 0 -24 -2 -24 -2 5 -11 17
-5 42 -6 57 -3 36 7 138 -6 138 -18 0 -5 -9 -6 -20 -3 -12 4 -26 2 -33 -3 -7
-5 -23 -8 -37 -7 -177 19 -189 18 -197 -1 -7 -20 -22 -34 -36 -34 -5 0 -5 5
-2 10 3 6 1 10 -4 10 -6 0 -11 -4 -11 -10 0 -15 -43 -12 -66 4 -11 8 -45 16
-75 18 -48 3 -55 6 -77 38 -13 19 -33 38 -45 42 -12 3 -16 6 -9 7 28 2 -16 31
-47 31 -16 0 -33 5 -37 11 -5 9 3 10 30 5 56 -11 43 1 -16 13 -35 8 -55 8 -62
1 -5 -5 -23 -10 -39 -10 -15 0 -37 -5 -48 -11 -15 -7 -24 -7 -33 0 -12 10 -94
22 -168 25 -16 1 -28 4 -28 9 0 4 -4 7 -10 7 -5 0 -7 -8 -3 -17 5 -16 3 -15
-15 2 -33 31 -46 40 -64 43 -27 4 -22 -17 6 -28 24 -9 45 -30 29 -30 -4 0 -24
4 -43 9 -20 4 -44 4 -55 0 -18 -7 -18 -8 5 -9 l25 -2 -28 -10 c-15 -5 -40 -7
-55 -3 -15 5 -34 9 -42 11 -8 2 -28 6 -45 9 -23 5 -26 4 -15 -4 12 -9 10 -11
-10 -12 -14 0 -19 -3 -12 -6 16 -6 15 -23 -2 -23 -17 0 -19 -52 -2 -62 6 -4
-7 -8 -29 -8 -29 0 -36 -3 -28 -11 7 -7 9 -25 6 -40 -4 -21 -2 -29 9 -29 8 0
23 -10 34 -22 10 -12 14 -18 7 -14 -15 8 -63 -3 -63 -15 0 -5 12 -12 28 -15
15 -4 36 -14 47 -24 11 -10 27 -20 35 -23 8 -3 -2 -6 -22 -6 -21 -1 -38 -5
-38 -11 0 -5 -12 -10 -26 -10 -21 0 -24 -3 -15 -13 13 -16 5 -27 -21 -27 -29
0 -21 -18 12 -25 17 -4 30 -11 30 -17 0 -5 -12 -7 -30 -3 -22 5 -32 3 -36 -8
-4 -12 -39 -15 -207 -16 -116 0 -217 -5 -237 -11 -32 -10 -198 -24 -260 -22
-14 1 -32 -1 -40 -5 -8 -3 -34 -7 -58 -10 -24 -2 -65 -13 -93 -23 -27 -11 -58
-20 -68 -20 -10 0 -32 -7 -49 -15 l-30 -16 5 -96 6 -96 -24 7 c-13 3 -46 11
-72 16 -27 5 -53 12 -58 15 -5 4 -45 8 -90 10 -44 3 -92 11 -107 19 -31 16
-96 32 -170 42 -58 7 -66 -2 -31 -37 11 -11 18 -26 16 -33 -7 -17 37 -30 184
-56 64 -11 141 -27 170 -34 30 -8 81 -14 114 -14 87 1 127 -9 120 -32 -5 -17
18 -28 75 -35 9 -1 25 -7 35 -12 20 -10 34 -9 70 8 44 20 103 25 170 17 101
-14 115 -17 115 -29 0 -6 -6 -7 -12 -3 -9 5 -9 2 1 -9 7 -9 22 -17 31 -17 26
0 50 -11 50 -22 0 -5 -8 -7 -17 -4 -25 8 -53 -11 -35 -22 10 -7 10 -11 -3 -22
-10 -8 -15 -9 -15 -1 0 6 -11 8 -31 4 -17 -3 -40 0 -54 7 -13 7 -37 10 -54 8
-17 -2 -32 -1 -33 3 -3 9 -86 23 -223 40 -44 5 -102 13 -130 18 -27 5 -106 18
-175 30 -69 12 -143 25 -165 31 -22 5 -55 10 -72 10 -18 0 -33 4 -33 9 0 5
-53 12 -117 16 -65 3 -139 10 -166 14 -48 8 -79 -5 -38 -16 12 -3 21 -9 21
-14 0 -6 10 -14 23 -19 17 -7 18 -9 5 -9 -23 -1 -23 -12 4 -62 15 -30 33 -46
67 -62 l46 -21 -73 -9 c-46 -6 -70 -13 -65 -20 4 -7 -6 -8 -30 -4 -26 4 -37 2
-37 -6 0 -7 -12 -24 -27 -37 -41 -37 -42 -92 -2 -121 16 -11 29 -24 29 -28 0
-12 -238 -13 -317 -2 -62 9 -78 8 -107 -6 -45 -21 -53 -41 -21 -49 14 -3 25
-10 25 -15 0 -11 -3 -11 -34 1 -33 12 -33 5 0 -25 15 -14 22 -25 15 -25 -6 0
-11 -9 -11 -20 0 -11 -7 -20 -15 -20 -14 0 -33 -25 -33 -45 0 -5 5 -17 12 -25
7 -8 16 -25 19 -37 4 -18 1 -23 -14 -23 -10 0 -19 -7 -19 -15 0 -9 -9 -15 -22
-15 -20 0 -20 -1 -4 -19 16 -18 16 -19 -9 -25 -22 -6 -25 -9 -15 -21 8 -9 8
-15 2 -15 -27 0 0 -37 42 -59 37 -19 44 -27 35 -37 -9 -11 -7 -14 11 -14 15 0
20 -5 17 -14 -6 -15 20 -26 61 -26 12 0 22 -4 22 -10 0 -13 -66 -13 -91 1 -29
15 -61 2 -57 -24 1 -12 -1 -28 -6 -35 -4 -7 -5 -35 -1 -62 6 -42 11 -51 36
-62 16 -7 29 -18 29 -25 0 -19 53 -25 90 -10 48 19 164 31 154 15 -5 -7 -3 -8
7 -2 8 5 21 7 31 6 33 -6 27 16 -7 22 -58 11 -55 30 4 24 28 -3 54 -1 57 3 3
5 -4 9 -16 9 -12 0 -19 4 -16 9 8 13 -19 21 -70 21 -24 0 -44 5 -44 10 0 6
-11 10 -25 10 -14 0 -25 5 -25 11 0 7 -8 18 -17 24 -16 12 -14 14 19 20 28 5
48 2 85 -16 26 -13 50 -27 51 -31 2 -5 15 -8 28 -8 13 0 24 -4 24 -9 0 -4 19
-16 43 -25 23 -9 53 -25 67 -35 20 -16 22 -21 11 -35 -8 -10 -9 -16 -3 -16 6
0 19 -13 28 -29 20 -34 85 -51 196 -51 54 0 68 -3 68 -15 0 -9 10 -15 28 -16
16 -1 20 -3 10 -6 -37 -9 -17 -27 29 -26 6 0 9 -6 6 -13 -6 -17 -2 -17 31 -1
14 8 22 18 18 22 -4 4 4 5 18 2 14 -4 31 -7 38 -7 8 0 11 -9 8 -27 -2 -16 -5
-32 -5 -37 -1 -5 -16 -6 -35 -3 -19 3 -36 1 -38 -4 -2 -6 -59 -5 -153 2 -113
9 -150 9 -153 1 -2 -7 -11 -12 -20 -13 -9 0 6 -9 33 -19 28 -9 49 -23 47 -29
-1 -6 10 -16 25 -22 16 -6 40 -16 55 -23 18 -9 30 -10 36 -4 11 11 62 -32 62
-51 0 -11 -80 -8 -99 3 -6 4 -16 4 -22 0 -7 -4 2 -15 22 -28 l34 -21 -50 -3
c-27 -2 -55 -8 -62 -14 -9 -7 -13 -7 -13 0 0 6 -21 10 -50 10 -64 -2 -61 -20
5 -32 33 -6 54 -5 67 3 14 9 22 7 38 -9 11 -11 20 -24 20 -30 0 -5 20 -10 45
-10 25 0 45 -4 45 -9 0 -11 -113 -3 -150 9 -33 12 -202 6 -226 -8 -16 -10 -14
-11 18 -12 55 0 86 -15 134 -68 37 -40 43 -44 44 -25 0 12 -5 25 -10 28 -6 3
-10 14 -10 23 0 15 2 15 10 2 5 -8 10 -10 10 -4 0 12 75 24 98 16 7 -2 11 -11
8 -18 -3 -7 -1 -16 4 -19 5 -3 11 4 15 15 8 24 37 26 60 4 12 -12 13 -19 4
-30 -6 -8 -18 -14 -26 -14 -12 0 -13 -3 -4 -14 7 -8 16 -28 21 -45 7 -26 5
-33 -10 -41 -10 -6 -28 -10 -39 -10 -12 0 -21 -7 -21 -15 0 -8 -7 -15 -15 -15
-8 0 -15 -5 -15 -11 0 -6 7 -8 15 -5 9 3 18 -1 22 -10 3 -8 13 -14 22 -12 9 1
21 -1 28 -5 6 -4 40 -10 75 -13 37 -4 82 -17 108 -31 l45 -24 -57 5 c-32 2
-60 0 -63 -5 -4 -5 -25 -9 -48 -9 -36 0 -39 -2 -27 -14 12 -12 30 -13 95 -6
92 11 161 -2 216 -41 45 -32 47 -49 6 -50 l-32 -2 33 -6 c18 -3 32 -10 32 -15
-1 -5 4 -13 12 -17 8 -6 -1 -7 -22 -3 l-35 6 27 -15 c14 -8 39 -15 55 -16 15
0 38 0 50 -1 12 0 35 -13 51 -29 32 -33 28 -55 -13 -65 -14 -4 -25 -14 -25
-22 0 -11 5 -14 16 -10 9 3 34 9 56 13 32 5 39 3 33 -7 -5 -9 -2 -10 14 -5 17
5 33 -2 66 -29 24 -20 48 -36 53 -36 6 0 23 -15 39 -33 16 -18 37 -36 46 -40
20 -8 23 -27 3 -27 -8 0 1 -15 20 -36 19 -19 34 -43 34 -53 0 -10 11 -30 25
-45 14 -15 23 -31 20 -36 -8 -12 5 -60 16 -60 5 0 9 5 9 12 0 21 51 78 69 78
10 0 24 7 31 15 7 8 27 15 46 15 42 0 53 17 20 30 -14 5 -26 14 -26 20 0 5
-12 10 -26 10 -14 0 -23 4 -20 9 7 10 -17 21 -45 21 -20 0 -26 15 -9 25 5 3
32 3 60 -1 44 -6 51 -10 47 -25 -4 -14 0 -19 15 -19 38 0 56 -19 67 -71 8 -36
8 -55 1 -64 -6 -7 -11 -38 -12 -69 -1 -46 2 -60 20 -76 12 -11 24 -20 27 -20
8 0 31 -19 62 -52 15 -16 36 -28 47 -28 21 -1 21 -1 2 -15 -11 -8 -14 -15 -8
-15 18 0 42 -63 28 -72 -7 -5 -7 -8 2 -8 8 0 12 -5 10 -11 -5 -15 -131 -15
-136 -1 -2 6 9 12 25 15 27 4 27 4 -4 6 -44 1 -46 31 -3 31 17 0 30 5 30 10 0
6 -16 10 -35 10 -53 0 -42 20 13 22 46 1 46 1 8 5 -28 3 -36 7 -26 13 21 13 5
23 -17 12 -20 -10 -43 -6 -43 9 0 5 8 9 18 9 31 0 -9 20 -43 21 -26 0 -27 2
-10 9 17 7 17 9 3 9 -10 1 -18 5 -18 10 0 10 -61 34 -68 26 -3 -3 0 -5 6 -5
22 0 12 -20 -13 -30 -14 -5 -27 -15 -29 -22 -2 -7 -8 -28 -14 -45 -5 -18 -7
-35 -3 -37 4 -3 14 -24 21 -47 8 -23 22 -46 32 -53 10 -6 23 -27 28 -47 6 -21
17 -40 26 -43 8 -3 12 -2 9 4 -3 6 1 10 9 10 9 0 16 -7 16 -15 0 -8 7 -15 16
-15 12 0 15 7 12 25 -3 13 -2 23 1 22 3 -1 16 4 28 11 13 7 40 15 60 17 21 2
59 7 84 11 57 8 123 -11 115 -33 -3 -8 -1 -23 4 -34 9 -16 14 -17 31 -6 13 8
19 20 16 34 -4 20 -1 22 20 17 13 -4 29 -1 36 4 8 7 26 8 50 2 42 -9 56 -8 76
4 17 11 106 13 144 3 18 -5 26 -4 23 2 -4 5 3 12 14 14 16 4 15 4 -4 3 -15 0
-34 10 -50 26 -25 28 -25 28 -4 39 11 6 31 9 44 6 21 -4 24 -1 18 17 -4 11
-14 26 -23 33 -27 20 1 35 71 39 35 2 74 5 87 7 13 1 26 -4 28 -10 3 -7 -2
-13 -11 -13 -9 0 -16 -4 -16 -9 0 -5 -8 -12 -17 -14 -12 -3 -9 -5 8 -6 28 -1
74 40 62 54 -5 4 -2 5 5 1 6 -4 12 -2 12 3 0 14 70 14 90 0 11 -8 6 -9 -21 -7
-27 3 -35 0 -32 -10 3 -7 13 -12 22 -11 36 3 51 -2 51 -17 0 -10 -5 -14 -16
-10 -9 3 -12 2 -8 -5 3 -6 15 -9 25 -6 10 3 21 1 24 -4 7 -11 -40 -23 -61 -15
-11 4 -18 -1 -21 -14 -6 -22 -18 -26 -28 -10 -3 5 -22 10 -41 10 -21 0 -33 4
-29 10 4 6 -6 10 -22 10 -16 0 -35 6 -43 12 -12 11 -12 10 -1 -5 7 -9 19 -17
27 -17 7 0 16 -5 20 -12 5 -8 0 -9 -16 -5 -13 3 -30 1 -37 -5 -12 -10 -18 0
-14 25 0 4 -4 7 -9 7 -6 0 -10 -8 -11 -17 0 -11 -3 -13 -6 -6 -3 10 -11 8 -28
-5 l-23 -17 27 -12 26 -11 -25 -2 c-17 -2 -10 -6 25 -15 28 -6 53 -10 58 -8
13 7 -3 23 -24 23 -10 0 -19 5 -19 11 0 7 9 9 23 5 12 -3 38 -6 57 -7 19 0 29
-3 23 -6 -7 -2 -13 -9 -13 -14 0 -16 25 -9 40 11 17 24 33 25 50 5 10 -12 9
-15 -6 -16 -11 -1 -3 -5 16 -9 38 -9 53 -4 30 10 -10 6 32 10 118 10 78 0 131
-4 128 -9 -4 -5 -17 -8 -31 -7 -13 2 -22 -1 -19 -5 3 -5 40 -9 82 -9 54 0 73
3 62 10 -23 15 5 30 57 30 23 0 54 5 70 11 50 19 180 24 474 18 37 -1 75 1 85
5 48 14 80 15 100 1 16 -10 44 -13 108 -9 50 3 86 1 86 -5 0 -5 -6 -11 -12
-14 -7 -2 -10 -8 -5 -12 4 -5 16 1 27 13 17 18 32 22 80 22 37 0 60 -5 64 -12
5 -11 7 -11 12 0 3 6 18 12 32 12 19 0 23 -3 14 -9 -11 -7 -10 -10 3 -15 23
-8 27 -8 21 3 -4 5 15 14 41 19 42 9 50 8 66 -9 17 -18 17 -19 -10 -21 -15 -1
-39 -2 -53 -3 -14 -1 -37 -2 -52 -3 -16 -1 -28 -7 -28 -13 0 -6 9 -8 20 -4 12
4 20 2 20 -6 0 -11 22 -10 97 5 14 3 20 0 17 -8 -9 -24 236 12 266 39 22 20
100 20 100 1 0 -8 -8 -16 -17 -18 -17 -3 -17 -4 0 -11 18 -7 62 27 53 41 -2 4
6 9 19 10 19 1 23 -2 18 -16 -4 -9 -11 -20 -17 -24 -6 -4 11 -8 37 -8 27 0 46
-4 43 -9 -3 -5 13 -2 37 6 27 10 88 16 177 18 74 1 147 7 163 14 20 8 27 8 27
-1 0 -18 142 -3 187 21 21 11 46 22 56 25 13 4 17 12 12 26 -4 11 -2 20 4 20
6 0 11 -7 11 -15 0 -13 3 -13 20 -3 27 17 40 -1 13 -19 -13 -9 -23 -21 -23
-28 0 -14 -22 -25 -48 -24 -14 0 -13 2 3 9 13 6 15 9 5 9 -16 0 -50 -22 -50
-32 0 -8 92 3 105 13 13 10 74 20 146 25 33 2 46 0 34 -5 -18 -7 -19 -8 -2
-15 10 -4 27 -1 42 9 30 20 36 20 29 2 -4 -11 5 -13 48 -9 47 4 82 23 58 31
-6 2 -6 11 0 23 9 16 7 19 -12 19 -13 -1 -34 1 -48 3 -14 3 -35 5 -47 6 -13 0
-23 7 -23 16 0 17 21 20 37 4 8 -8 13 -8 17 0 4 6 2 11 -4 11 -6 0 -8 5 -4 11
4 8 -1 9 -16 4 -16 -5 -21 -4 -18 6 3 8 14 15 26 17 13 2 22 11 22 20 0 14 -2
15 -9 3 -8 -12 -12 -13 -26 -1 -13 10 -13 15 -3 21 10 7 10 11 -1 21 -10 10
-12 10 -7 1 4 -8 1 -13 -8 -13 -9 0 -16 4 -16 10 0 5 -16 9 -35 8 -19 -1 -40
4 -47 10 -21 17 -42 -2 -36 -32 3 -14 -1 -34 -8 -43 -13 -17 -15 -17 -25 0 -7
11 -17 16 -29 12 -10 -3 -22 -1 -25 6 -6 8 -10 7 -16 -2 -8 -12 -10 -12 -18 0
-6 9 -20 11 -50 6 -25 -4 -41 -3 -41 3 0 16 -30 23 -50 12 -14 -7 -19 -5 -23
10 -3 12 -14 20 -26 20 -12 0 -21 4 -21 8 0 5 10 8 23 7 12 -1 28 2 35 8 10 8
16 7 23 -4 6 -10 9 -10 9 -1 0 14 48 16 69 3 8 -5 10 -14 6 -21 -5 -8 -3 -11
6 -8 8 3 14 13 14 24 0 10 6 25 13 33 12 12 18 12 40 -2 16 -9 28 -26 30 -41
2 -14 10 -26 17 -26 12 0 12 6 -1 35 -8 19 -13 35 -12 36 20 6 76 3 86 -4 8
-7 19 -4 32 8 14 13 28 16 54 11 20 -4 37 -2 41 4 3 5 12 10 18 10 8 0 7 -3
-2 -9 -7 -5 -10 -14 -6 -20 5 -8 -1 -10 -18 -6 -19 5 -25 2 -30 -14 -3 -14 0
-21 10 -21 8 0 11 5 8 10 -10 16 11 11 26 -6 12 -14 14 -14 21 5 4 12 15 21
23 21 10 0 13 5 9 12 -5 8 0 9 16 5 13 -3 29 -2 36 4 6 5 36 11 66 13 48 2 59
7 87 37 l31 34 -15 -38 c-8 -20 -11 -37 -6 -37 5 0 12 7 15 16 9 24 27 6 20
-21 -6 -23 -4 -24 27 -15 18 5 43 7 56 4 14 -4 23 -2 23 6 0 6 8 9 18 6 18 -5
60 13 62 28 1 5 -4 13 -12 17 -7 5 -8 9 -2 9 6 0 11 7 11 15 0 8 -4 15 -8 15
-4 0 -5 9 -2 20 5 18 3 19 -21 10 -37 -14 -41 -13 -25 7 13 15 12 16 -9 11
-19 -5 -22 -3 -16 14 4 15 3 18 -6 13 -6 -4 -22 -2 -35 5 -26 14 -80 6 -70
-10 3 -6 18 -10 33 -10 25 0 25 -1 6 -15 -10 -8 -14 -15 -9 -16 81 -9 97 -20
50 -35 -31 -10 -35 -9 -35 7 0 11 -7 19 -15 19 -16 0 -11 -25 11 -50 7 -9 10
-21 5 -28 -9 -16 -27 3 -30 31 -1 9 -2 26 -3 37 -1 10 -9 19 -18 18 -34 -3
-48 3 -53 22 -3 11 1 23 8 28 13 7 15 11 15 32 0 6 20 10 45 10 25 0 45 -4 45
-10 0 -5 8 -10 18 -9 9 0 12 3 6 5 -7 3 -10 14 -7 24 5 17 1 19 -23 14 -26 -5
-65 -10 -104 -13 -11 -1 -12 -3 -2 -9 9 -6 7 -13 -7 -29 -11 -11 -17 -23 -15
-26 3 -3 -6 -13 -21 -23 -23 -15 -28 -15 -36 -3 -12 19 -11 29 1 29 6 0 10 6
10 13 0 8 11 20 25 27 14 7 25 17 25 22 0 14 -43 -2 -57 -21 -10 -13 -15 -14
-32 -4 -28 17 -50 16 -57 -2 -4 -8 -12 -15 -20 -15 -19 0 -18 26 1 34 24 9 6
33 -25 33 -17 0 -30 -4 -30 -9 0 -4 -5 -8 -12 -8 -8 0 -8 4 2 14 19 18 96 25
93 8 -4 -19 11 -14 25 8 12 19 14 19 29 5 19 -19 18 -20 -27 -33 l-35 -10 32
-1 c17 -1 34 3 38 9 3 5 12 7 19 4 8 -3 17 -1 21 5 3 6 -2 11 -12 12 -16 0
-16 1 2 9 19 8 18 9 -4 9 -41 1 -15 13 41 18 54 5 83 6 128 2 14 -2 56 -2 94
-1 56 2 67 5 62 17 -4 11 1 15 18 15 14 0 32 3 41 7 15 5 16 3 5 -16 -13 -26
-6 -41 12 -23 7 7 27 12 45 12 23 0 33 5 33 15 0 8 5 16 10 17 28 4 35 2 35
-11 0 -8 14 -15 38 -17 25 -2 37 1 37 10 0 17 160 33 265 26 l79 -5 -26 -17
c-15 -10 -34 -18 -43 -18 -8 0 -15 -3 -15 -7 0 -5 -20 -17 -45 -28 -25 -11
-45 -23 -45 -28 0 -5 -7 -7 -15 -3 -8 3 -15 2 -15 -3 0 -5 -15 -12 -34 -15
-19 -4 -37 -12 -40 -19 -3 -9 -7 -8 -14 2 -7 9 -16 11 -28 6 -11 -5 -41 -8
-69 -7 -48 1 -49 0 -25 -14 14 -7 41 -14 60 -13 61 2 67 0 50 -11 -12 -8 -10
-10 10 -10 28 0 52 12 51 26 0 9 46 7 62 -3 13 -8 7 -23 -9 -23 -8 0 -12 -5
-8 -11 3 -6 16 -8 28 -4 38 11 66 12 72 3 3 -5 20 -6 38 -2 25 4 35 2 39 -10
5 -14 1 -16 -27 -13 -18 2 -41 -2 -51 -10 -11 -7 -27 -13 -38 -13 -10 0 -15
-4 -12 -10 3 -5 1 -10 -4 -10 -6 0 -11 5 -11 10 0 6 -12 10 -26 10 -14 0 -23
-4 -19 -10 3 -6 -1 -13 -9 -16 -22 -9 -69 24 -62 42 3 8 2 13 -3 9 -5 -3 -12
1 -15 7 -3 7 -4 4 -3 -6 1 -10 -4 -21 -10 -23 -12 -4 -17 11 -16 45 1 6 -8 12
-18 12 -10 0 -16 -5 -14 -12 3 -7 -13 -23 -35 -36 -22 -13 -38 -27 -35 -32 4
-6 -1 -10 -9 -10 -27 0 -17 -18 12 -22 15 -2 -6 -5 -47 -6 -40 -1 -83 -4 -95
-7 -18 -5 -19 -4 -4 5 9 6 35 11 57 13 43 2 57 16 19 18 -15 1 -11 4 12 9 l35
7 -33 13 c-25 9 -31 15 -22 24 8 8 13 7 20 -4 7 -11 12 -12 21 -3 17 17 -56
26 -123 14 -5 0 -8 -6 -8 -12 0 -7 10 -9 28 -5 18 4 22 3 13 -2 -11 -8 -11
-10 0 -15 8 -3 1 -4 -15 -4 -16 1 -31 -4 -33 -10 -3 -8 5 -13 19 -14 20 -1 19
-3 -7 -9 -16 -4 -23 -8 -15 -9 12 -1 13 -3 1 -10 -24 -15 -1 -31 47 -32 26 -1
39 -3 30 -6 -22 -6 -22 -9 0 -31 25 -25 66 -36 58 -16 -6 16 19 19 29 3 4 -6
13 -8 21 -5 8 3 14 1 14 -4 0 -5 -18 -13 -40 -16 -22 -4 -40 -11 -40 -15 0 -5
-9 -4 -19 3 -15 9 -25 9 -46 0 -36 -17 -79 -16 -72 1 3 8 1 20 -4 28 -7 12 -9
12 -10 -1 -1 -8 -2 -22 -3 -30 0 -8 -10 -15 -21 -16 -56 -3 -65 -5 -65 -13 0
-5 13 -11 29 -13 18 -3 28 0 24 5 -4 6 6 8 27 4 18 -4 40 -7 49 -7 14 0 14 -2
1 -11 -16 -11 -6 -10 70 13 41 11 40 11 145 8 89 -2 115 4 115 29 0 22 17 47
26 38 4 -3 2 -12 -4 -20 -19 -22 1 -35 66 -43 43 -4 62 -3 62 5 0 6 7 11 15
11 8 0 15 4 15 9 0 13 43 22 54 11 6 -6 18 -10 28 -10 10 0 17 -3 15 -7 -1 -5
1 -8 5 -8 10 0 37 -38 33 -46 -2 -3 16 -3 40 1 30 4 54 17 75 37 32 31 82 57
133 67 15 4 27 11 27 17 0 7 -10 9 -25 5 -14 -4 -25 -4 -25 -2 0 5 51 20 105
30 17 3 37 1 45 -4 13 -9 13 -11 0 -20 -12 -7 -8 -10 17 -10 17 0 33 -6 36
-12 3 -10 13 -10 50 -1 26 7 68 13 93 13 27 0 54 7 68 17 21 16 21 18 7 50 -8
18 -20 33 -27 33 -7 0 -15 7 -18 16 -3 9 -11 12 -18 8 -10 -6 -10 -5 0 8 7 8
10 23 6 32 -5 13 1 16 28 16 27 0 38 -6 48 -25 10 -18 22 -25 44 -26 29 0 29
-1 9 -9 -34 -14 -28 -20 12 -13 23 4 43 0 59 -10 18 -12 26 -13 29 -4 4 9 8 8
16 -3 8 -11 11 -12 11 -2 0 7 5 10 10 7 6 -4 9 -3 8 2 -5 13 6 16 30 8 18 -5
30 -1 50 18 15 13 35 27 45 30 18 7 24 27 7 27 -5 0 -10 9 -10 19 0 10 -7 21
-15 25 -8 3 -15 12 -15 20 0 28 -107 32 -173 7 -16 -6 -37 -11 -48 -11 -16 0
-18 3 -9 19 5 11 8 35 6 53 -3 18 -5 38 -5 45 -1 9 -25 11 -92 8 -50 -3 -95
-8 -99 -10 -5 -3 -11 -1 -15 5 -4 6 -12 4 -22 -5 -12 -13 -18 -13 -30 -3 -11
9 -16 9 -23 -2 -6 -9 -3 -18 7 -25 30 -22 8 -45 -44 -45 l-48 -1 28 -15 c15
-8 42 -14 60 -12 17 2 32 -1 32 -7 0 -5 -6 -9 -12 -9 -20 3 -15 -14 5 -19 13
-4 11 -5 -6 -6 -12 0 -30 4 -40 10 -21 13 -72 -4 -72 -25 0 -7 -11 -17 -25
-20 -14 -4 -25 -11 -25 -16 0 -15 -56 -40 -87 -39 -17 1 -21 3 -10 6 9 2 17
13 17 23 0 20 19 30 60 30 16 0 32 5 35 10 4 6 11 8 16 5 5 -4 9 -2 9 4 0 6
-10 13 -22 16 -31 7 -68 3 -68 -8 0 -4 -4 -5 -10 -2 -5 3 -10 19 -10 35 0 29
1 29 63 33 l62 3 -61 2 c-72 2 -103 24 -69 48 10 8 33 14 51 14 38 0 57 29 21
31 -27 2 -58 5 -74 7 -7 1 -13 8 -13 15 0 9 -29 11 -117 9 -65 -1 -128 -4
-140 -6 -12 -1 -24 3 -27 10 -4 10 5 14 34 14 21 0 41 4 44 9 3 5 -21 9 -54 8
-33 0 -63 2 -66 5 -10 11 20 47 41 48 108 5 110 5 113 23 3 13 9 16 25 11 36
-11 42 -22 13 -30 -14 -3 -26 -10 -26 -15 0 -5 -7 -9 -16 -9 -8 0 -12 -5 -9
-11 5 -7 12 -6 23 4 10 8 26 17 37 19 11 3 28 9 38 13 13 5 16 3 11 -8 -3 -8
-1 -18 5 -22 7 -3 11 2 11 14 0 27 16 27 23 0 4 -16 12 -20 34 -17 19 2 27 8
25 18 -3 12 -1 13 9 2 17 -16 56 -16 62 1 4 9 8 9 15 -1 5 -8 12 -13 16 -13
29 4 56 -1 51 -9 -3 -5 -1 -10 4 -10 6 0 11 7 11 16 0 10 6 14 14 11 8 -3 17
1 20 9 3 8 2 14 -3 14 -13 0 -22 43 -10 51 5 3 11 19 12 35 1 16 7 29 12 30 6
0 29 6 53 13 23 6 47 9 52 6 5 -3 11 -1 15 5 8 13 55 13 55 0 0 -5 16 -10 35
-10 19 0 35 3 35 8 0 15 62 42 123 53 34 6 84 17 111 25 55 16 99 19 78 5 -28
-17 69 -31 143 -19 39 5 93 11 120 11 45 2 50 4 47 24 -3 21 28 49 41 37 3 -3
10 3 16 14 6 11 22 23 36 26 26 7 33 20 15 31 -15 9 -12 25 4 25 14 0 29 48
19 62 -2 5 -15 5 -29 2 -13 -3 -24 -2 -24 4 0 14 25 22 68 22 52 1 76 25 96
99 l18 64 -27 23 c-15 13 -43 26 -61 30 -27 5 -34 11 -34 30 0 13 -5 24 -11
24 -8 0 -8 4 0 13 14 17 10 105 -5 111 -6 2 -14 16 -16 30 -4 22 -2 26 18 26
13 0 24 4 24 9 0 6 -12 6 -32 0 -66 -19 -138 -1 -138 34 0 10 3 16 8 13 4 -2
24 3 44 13 24 11 52 15 80 12 24 -3 35 -6 26 -9 -33 -7 7 -32 54 -33 34 -2 36
-3 13 -6 -34 -5 -59 -23 -32 -23 9 0 36 6 59 14 72 24 108 29 108 16 0 -9 4
-9 16 1 11 9 42 13 90 13 l74 -1 6 34 c5 26 0 42 -25 81 -17 27 -31 59 -31 72
0 18 -3 20 -13 11 -8 -6 -16 -9 -18 -7 -2 3 -24 7 -49 10 -96 12 -130 19 -130
27 0 5 12 11 28 15 43 9 49 12 23 13 -22 1 -23 3 -10 19 8 9 21 29 29 44 15
31 65 42 53 12 -11 -28 19 -34 39 -8 15 18 17 28 9 43 -6 11 -11 29 -11 40 0
12 -7 21 -15 21 -8 0 -15 7 -15 16 0 12 6 15 25 10 34 -9 31 4 -11 47 -30 29
-35 39 -25 51 14 17 -5 28 -29 16 -8 -4 -31 -10 -51 -14 -36 -6 -37 -6 -35 26
2 33 3 33 49 31 26 -1 47 1 47 4 0 18 -53 72 -76 77 -26 7 -26 7 -8 28 11 11
39 34 64 51 56 37 140 123 140 142 0 7 -5 17 -11 20 -7 5 -5 15 6 32 21 31 21
89 2 150 -9 26 -19 60 -21 74 -3 14 -16 41 -29 60 -22 32 -26 34 -80 34 -31 0
-57 3 -57 7 0 5 4 8 9 8 5 0 11 9 14 19 3 13 22 24 59 35 31 9 61 22 67 30 6
7 12 40 13 71 1 46 -2 60 -17 71 -21 15 -95 8 -107 -10 -6 -8 -11 -6 -18 4 -7
10 -10 11 -10 2 0 -8 -8 -10 -24 -6 -13 3 -27 1 -30 -5 -4 -6 -36 -11 -71 -11
-35 0 -66 -4 -69 -8 -3 -5 -24 -8 -48 -7 -46 1 -85 -12 -133 -45 -16 -11 -46
-20 -65 -21 -19 -1 -48 -5 -65 -10 -21 -5 -10 -7 35 -4 73 5 71 3 -15 -15 -33
-7 -64 -17 -70 -22 -6 -6 -2 -6 9 -2 13 5 17 4 12 -4 -8 -13 -46 -17 -46 -4 0
12 14 29 30 35 9 3 4 6 -12 6 -21 1 -25 5 -21 20 4 17 36 36 106 61 15 5 27
14 27 20 0 5 13 10 28 10 15 0 33 5 39 11 13 13 47 18 211 32 81 7 121 14 119
22 -3 7 17 9 64 7 65 -4 69 -3 80 21 9 19 8 31 -5 55 -15 28 -19 30 -53 25
-51 -8 -51 -8 -108 1 -27 5 -53 13 -56 18 -3 4 -16 11 -29 13 -33 6 -47 23
-27 31 21 8 22 24 2 24 -8 0 -15 3 -15 6 0 12 35 33 54 34 20 0 20 0 0 15 -26
19 -55 20 -48 0 4 -9 0 -15 -10 -15 -9 0 -16 -4 -16 -10 0 -5 -7 -10 -15 -10
-8 0 -15 -7 -15 -15 0 -8 -4 -15 -10 -15 -5 0 -10 -4 -10 -10 0 -5 12 -8 27
-7 14 1 28 -3 30 -9 5 -15 -33 -24 -46 -11 -19 19 -23 -1 -6 -27 16 -24 16
-26 1 -26 -9 0 -16 -4 -16 -10 0 -5 6 -7 14 -4 27 11 29 -18 2 -40 l-27 -21
78 1 c43 0 94 -3 113 -7 33 -6 32 -6 -15 -8 -27 -1 -70 -6 -93 -10 -28 -6 -54
-5 -73 2 -23 9 -34 8 -58 -6 -16 -9 -38 -17 -49 -17 -12 0 -24 -5 -28 -11 -3
-6 -20 -8 -38 -5 -17 2 -49 1 -71 -3 l-40 -8 38 -8 c44 -9 44 -29 1 -31 -16
-1 -46 -5 -66 -9 -44 -9 -50 5 -15 31 24 18 20 18 -243 -5 -52 -5 -97 -7 -99
-5 -3 3 8 17 22 32 17 18 27 39 27 59 0 17 7 50 15 74 9 24 13 49 11 56 -8 20
4 42 20 36 7 -3 17 2 20 11 6 17 49 22 58 7 3 -5 -8 -14 -24 -21 -16 -7 -27
-16 -24 -21 3 -5 12 -5 22 0 9 4 36 11 59 15 23 3 54 12 70 20 15 8 37 18 47
21 35 10 11 13 -48 4 -63 -8 -90 -3 -62 13 9 5 16 16 16 25 0 12 7 14 35 10
20 -3 35 -2 35 4 0 5 10 13 22 18 21 8 21 8 -9 35 -22 19 -29 33 -26 50 4 20
1 23 -26 22 -25 -1 -32 -6 -37 -28 -3 -16 -10 -28 -15 -28 -6 0 -7 5 -4 10 3
6 3 15 -1 22 -5 8 -11 6 -19 -6 -7 -9 -32 -26 -55 -39 -23 -12 -41 -24 -39
-27 4 -7 -47 -60 -59 -60 -18 0 -21 -28 -4 -35 14 -5 12 -9 -11 -21 -32 -17
-54 -10 -36 12 15 19 2 18 -17 -1 -10 -10 -35 -15 -71 -15 -49 0 -54 2 -43 15
26 31 -22 45 -97 29 -18 -3 -33 -4 -33 0 0 12 35 46 47 46 7 0 13 3 13 8 0 4
24 18 53 31 28 13 66 33 82 46 17 12 44 29 60 38 23 12 30 22 30 45 0 27 -3
30 -40 35 -28 4 -45 1 -57 -10 -17 -15 -58 -10 -58 7 0 13 42 40 63 40 11 0
17 5 14 13 -2 6 -17 12 -33 11 -16 0 -32 4 -36 9 -4 7 -16 4 -33 -7 -14 -9
-31 -16 -37 -14 -6 2 4 13 22 25 l33 21 -49 -4 c-27 -2 -42 -1 -34 2 41 16 58
28 54 39 -3 7 12 15 42 21 26 5 49 14 51 21 3 8 -7 9 -38 2 -23 -6 -48 -8 -55
-5 -8 3 -16 1 -19 -4 -9 -15 -25 -12 -25 5 0 8 -4 15 -10 15 -5 0 -10 7 -10
15 0 8 -7 15 -16 15 -12 0 -10 5 9 20 14 11 31 20 39 20 7 0 20 5 28 10 10 7
-6 8 -50 5 -36 -2 -56 -2 -45 1 29 9 43 24 21 24 -30 0 -210 -51 -231 -66 -11
-8 -29 -14 -42 -14 -12 0 -25 -5 -28 -10 -4 -6 -3 -10 2 -9 4 1 16 1 27 0 15
-1 16 -4 6 -16 -7 -8 -20 -14 -29 -13 -9 2 -15 -3 -14 -9 2 -9 -11 -13 -42
-13 -25 0 -45 -5 -45 -11 0 -6 -17 -9 -41 -7 -29 2 -43 -1 -47 -11 -3 -11 2
-12 24 -7 l29 6 -24 -20 c-13 -11 -18 -20 -12 -20 8 0 7 -6 -1 -20 -7 -11 -21
-20 -31 -20 -10 0 -20 -7 -23 -15 -4 -8 -11 -15 -16 -15 -5 0 -22 -8 -36 -19
-26 -17 -106 -33 -182 -36 -19 0 -42 -5 -50 -10 -8 -6 -54 -10 -102 -9 -48 1
-85 -3 -82 -8 3 -4 -3 -8 -14 -8 -10 0 -21 -2 -24 -5 -8 -9 -217 -10 -224 -2
-4 4 8 7 27 8 28 0 30 2 14 9 -11 5 -35 9 -54 9 -25 1 -32 -2 -27 -14 3 -9 0
-15 -8 -15 -8 0 -16 7 -20 15 -3 9 -12 12 -22 8 -12 -4 -15 -3 -10 5 4 7 23
12 43 12 20 0 44 6 52 14 28 23 68 28 86 9 14 -14 22 -15 46 -6 16 6 27 7 23
2 -3 -5 2 -9 10 -9 19 0 22 36 4 42 -7 3 7 8 31 12 24 4 46 4 49 1 3 -3 -5 -5
-18 -5 -15 0 -20 -4 -14 -9 5 -6 24 -6 44 -1 19 4 29 8 23 9 -18 1 -16 21 2
21 8 0 15 -4 15 -10 0 -15 37 -12 54 5 18 18 43 20 48 3 7 -20 198 -7 198 13
0 4 -6 6 -14 3 -8 -3 -19 3 -25 14 -9 17 -8 19 7 15 19 -5 122 53 122 68 0 5
7 9 15 9 8 0 15 5 15 11 0 12 -80 8 -112 -6 -11 -4 -18 -3 -18 4 0 6 8 11 18
11 14 0 15 2 2 10 -13 9 -13 11 0 20 10 6 11 10 3 10 -7 0 -12 6 -10 13 1 7
-7 11 -23 9 -24 -3 -24 -3 -5 11 11 8 33 14 50 12 16 -1 21 0 11 2 -12 3 -15
7 -8 12 16 10 3 51 -14 44 -8 -3 -26 -2 -41 2 -24 6 -26 8 -10 16 9 6 17 16
17 24 0 19 -62 12 -92 -10 l-23 -17 33 6 c24 4 32 2 32 -9 0 -9 -10 -15 -22
-15 -66 -2 -122 -11 -129 -21 -4 -7 -14 -9 -23 -6 -8 3 -28 0 -43 -8 -15 -8
-41 -15 -58 -16 l-30 -1 30 -8 c17 -4 23 -8 14 -9 -24 -2 -109 -47 -102 -54 3
-4 -2 -9 -11 -13 -26 -10 -19 -24 12 -24 30 0 82 -20 82 -32 0 -5 6 -8 14 -8
17 0 28 -24 20 -45 -7 -17 -20 -20 -28 -6 -3 4 -17 6 -31 3 -20 -3 -24 -1 -19
12 4 9 1 16 -6 16 -7 0 -10 7 -6 16 6 16 -7 15 -79 -2 -15 -4 -16 -3 -6 4 11
8 11 10 0 15 -8 3 1 6 20 6 19 1 32 4 28 7 -3 3 -38 3 -77 -1 -63 -6 -71 -9
-67 -25 6 -23 -10 -30 -90 -37 -61 -6 -79 -23 -25 -23 20 0 23 -3 13 -9 -12
-7 -12 -13 -3 -24 7 -7 11 -16 9 -18 -1 -2 3 1 9 8 12 14 74 18 74 5 0 -4 -9
-15 -19 -24 -15 -12 -28 -14 -55 -8 -27 6 -40 4 -51 -6 -8 -8 -34 -14 -60 -14
-28 0 -44 -4 -40 -10 10 -16 -58 -11 -79 5 -18 14 -17 15 22 15 25 0 42 5 42
11 0 8 -15 10 -46 5 -26 -3 -56 -6 -68 -6 -17 0 -18 -2 -6 -10 13 -8 12 -10
-3 -10 -17 0 -47 22 -47 34 0 7 72 30 100 31 14 1 49 2 79 3 79 3 55 14 -41
19 -45 2 -91 9 -102 16 -12 6 -68 12 -126 13 -58 2 -152 10 -209 18 -58 9
-129 16 -158 16 -30 0 -52 3 -50 8 3 4 -74 7 -170 7 -134 1 -176 4 -182 14 -7
11 -21 11 -80 1 -39 -6 -68 -16 -65 -21 3 -6 -10 -7 -33 -3 -21 3 -74 6 -118
7 -44 0 -82 4 -85 8 -3 5 -36 4 -74 -2 -37 -5 -72 -7 -77 -3 -5 3 -9 -6 -9
-20 0 -23 -4 -26 -35 -26 -19 0 -43 4 -53 9 -9 5 -30 15 -45 22 -25 12 -26 14
-10 20 10 4 49 8 87 8 57 1 67 3 62 17 -5 12 2 15 42 12 31 -2 46 -7 45 -15
-4 -18 12 -16 31 2 17 17 30 20 21 5 -4 -6 13 -10 42 -11 26 0 67 -2 91 -4 23
-2 42 0 42 5 0 9 -88 33 -98 26 -5 -3 -14 -1 -22 5 -11 6 -3 9 26 9 22 0 44 3
48 8 4 4 33 7 64 8 147 2 152 2 152 25 0 21 -4 21 -65 17 -42 -4 -78 -1 -102
8 -21 7 -55 13 -75 14 -21 0 -38 4 -38 8 0 13 -109 31 -228 37 -115 6 -168 17
-157 35 8 13 -15 13 -69 -2 -37 -10 -48 -9 -69 5 -29 19 -84 19 -113 0 -23
-14 -84 -8 -84 9 0 6 -7 5 -15 -2 -9 -7 -14 -19 -11 -26 6 -16 -9 -21 -46 -16
-15 2 -28 11 -28 18 0 22 -57 17 -116 -11 -47 -22 -59 -24 -99 -15 -25 6 -53
15 -63 20 -35 20 -114 50 -133 50 -13 0 -19 -7 -19 -23z m133 -74 c-7 -2 -19
-2 -25 0 -7 3 -2 5 12 5 14 0 19 -2 13 -5z m992 -12 c17 -7 16 -9 -11 -13 -46
-6 -110 2 -93 13 17 11 77 10 104 0z m2070 -36 c-18 -15 -42 -25 -60 -24 l-30
1 34 10 c19 5 44 16 55 24 33 23 34 15 1 -11z m-2135 5 c0 -7 16 -9 43 -5 42
5 152 -4 144 -12 -3 -2 -31 -6 -63 -7 -33 -2 -79 -6 -104 -9 -29 -4 -34 -4
-15 1 30 8 30 8 -12 15 -51 9 -67 27 -24 27 17 0 31 -5 31 -10z m2219 -22
c-13 -5 -31 -7 -40 -5 -9 2 -24 0 -33 -5 -10 -6 -16 -5 -16 1 0 13 18 18 69
18 37 0 40 -2 20 -9z m61 -8 c0 -5 -9 -14 -19 -20 -25 -13 -104 -13 -96 0 3 5
19 7 35 3 18 -3 30 -1 30 5 0 9 15 17 43 21 4 0 7 -3 7 -9z m-180 -30 c0 -5
-8 -10 -17 -10 -15 0 -16 2 -3 10 19 12 20 12 20 0z m164 -25 c-4 -8 -14 -15
-23 -15 -14 1 -13 3 3 15 25 19 27 19 20 0z m801 5 c-3 -5 -18 -10 -33 -9
l-27 1 25 8 c35 11 42 11 35 0z m-595 -8 c0 -11 -37 -32 -44 -25 -11 11 -6 21
12 26 28 8 32 7 32 -1z m-385 -12 c-28 -12 -37 -12 -30 0 3 6 16 10 28 9 21 0
21 -1 2 -9z m260 -10 c-3 -5 -14 -10 -23 -10 -15 0 -15 2 -2 10 20 13 33 13
25 0z m-2587 -17 c-10 -2 -26 -2 -35 0 -10 3 -2 5 17 5 19 0 27 -2 18 -5z
m302 3 c0 -2 -9 -6 -20 -9 -11 -3 -18 -1 -14 4 5 9 34 13 34 5z m2665 -55 c38
-20 36 -31 -4 -31 -18 0 -22 3 -12 9 10 7 10 10 1 16 -7 4 -16 2 -20 -5 -5 -8
-18 -10 -40 -5 -35 8 -30 21 10 28 14 2 26 5 28 6 1 0 18 -7 37 -18z m-825
-51 c0 -5 -7 -10 -16 -10 -8 0 -12 5 -9 10 3 6 10 10 16 10 5 0 9 -4 9 -10z
m-2473 -6 c-3 -3 -12 -4 -19 -1 -8 3 -5 6 6 6 11 1 17 -2 13 -5z m1833 -4 c26
-16 3 -22 -27 -6 -23 13 -24 15 -8 15 11 1 27 -3 35 -9z m-2203 -26 c-3 -3
-12 -4 -19 -1 -8 3 -5 6 6 6 11 1 17 -2 13 -5z m-260 -12 c7 -4 9 -12 5 -18
-5 -6 -19 -4 -42 8 l-35 17 30 0 c17 1 35 -3 42 -7z m30 -24 c-3 -8 -6 -5 -6
6 -1 11 2 17 5 13 3 -3 4 -12 1 -19z m3596 15 c-7 -2 -21 -2 -30 0 -10 3 -4 5
12 5 17 0 24 -2 18 -5z m-3476 -29 c-3 -3 -12 -4 -19 -1 -8 3 -5 6 6 6 11 1
17 -2 13 -5z m-638 -190 c2 -2 -14 -4 -37 -4 -22 0 -43 4 -47 9 -5 10 75 5 84
-5z m5166 -324 c-3 -5 -13 -10 -21 -10 -8 0 -12 5 -9 10 3 6 13 10 21 10 8 0
12 -4 9 -10z m-55 -10 c0 -5 -7 -10 -15 -10 -8 0 -15 5 -15 10 0 6 7 10 15 10
8 0 15 -4 15 -10z m-6271 -126 c3 -16 1 -17 -13 -5 -19 16 -21 34 -3 29 6 -3
14 -13 16 -24z m-1084 -24 c-3 -5 -12 -7 -20 -3 -21 7 -19 13 6 13 11 0 18 -4
14 -10z m85 2 c0 -5 -13 -9 -30 -10 -16 0 -30 4 -30 9 0 5 14 9 30 9 17 0 30
-4 30 -8z m7575 -2 c-3 -5 -14 -10 -25 -10 -10 0 -20 -6 -23 -13 -4 -12 -145
-42 -154 -33 -9 9 63 41 117 52 72 15 93 16 85 4z m127 -16 c20 -12 -23 -34
-68 -34 -47 0 -71 19 -51 39 12 13 95 9 119 -5z m-6557 -24 c3 -5 -1 -10 -9
-10 -8 0 -18 5 -21 10 -3 6 1 10 9 10 8 0 18 -4 21 -10z m6885 -20 c0 -5 -4
-10 -10 -10 -5 0 -10 5 -10 10 0 6 5 10 10 10 6 0 10 -4 10 -10z m-7466 -16
c39 -9 82 -18 96 -21 14 -3 19 -8 12 -10 -19 -7 -192 28 -192 38 0 12 0 12 84
-7z m902 -50 c-3 -9 -6 -20 -6 -25 0 -6 -4 -7 -10 -4 -16 10 -12 45 6 45 11 0
14 -5 10 -16z m114 1 c0 -14 -11 -19 -35 -16 -5 1 -1 -6 9 -14 11 -8 26 -15
33 -15 7 0 13 -4 13 -9 0 -7 -89 -5 -116 4 -16 5 -5 55 13 55 7 0 13 -7 11
-16 -2 -10 3 -19 11 -22 9 -3 11 1 6 17 -5 16 -3 20 8 15 8 -3 18 -1 22 5 9
16 25 13 25 -4z m-787 -2 c-7 -2 -19 -2 -25 0 -7 3 -2 5 12 5 14 0 19 -2 13
-5z m361 -14 c-6 -11 -24 -2 -24 11 0 5 7 7 15 4 8 -4 12 -10 9 -15z m-205
-16 c28 -13 35 -13 42 -2 7 11 9 10 9 -3 0 -10 -2 -18 -6 -18 -17 0 -151 34
-164 41 -25 15 81 -1 119 -18z m124 -30 c-7 -2 -21 -2 -30 0 -10 3 -4 5 12 5
17 0 24 -2 18 -5z m6977 -524 c0 -6 -4 -7 -10 -4 -5 3 -10 11 -10 16 0 6 5 7
10 4 6 -3 10 -11 10 -16z m-7730 -549 c0 -5 -4 -10 -10 -10 -5 0 -10 5 -10 10
0 6 5 10 10 10 6 0 10 -4 10 -10z m70 -20 c0 -11 -2 -20 -4 -20 -2 0 -11 -3
-19 -6 -10 -4 -14 1 -12 18 3 29 2 28 20 28 8 0 15 -9 15 -20z m-90 -8 c0 -4
-9 -8 -20 -8 -11 0 -20 4 -20 8 0 4 9 8 20 8 11 0 20 -4 20 -8z m-324 -81 c-4
-5 0 -12 6 -15 7 -3 4 -5 -6 -3 -24 3 -34 27 -11 27 9 0 14 -4 11 -9z m309 -1
c3 -6 -4 -10 -17 -10 -18 0 -20 2 -8 10 19 12 18 12 25 0z m-298 -46 c-3 -3
-12 -4 -19 -1 -8 3 -5 6 6 6 11 1 17 -2 13 -5z m53 -488 c0 -3 -4 -8 -10 -11
-5 -3 -10 -1 -10 4 0 6 5 11 10 11 6 0 10 -2 10 -4z m934 -192 c9 -24 -3 -35
-24 -22 -14 9 -16 16 -8 25 14 17 25 16 32 -3z m293 -3 c-10 -4 -18 -10 -18
-15 1 -4 -39 -9 -89 -11 -58 -2 -88 1 -84 7 4 6 -2 8 -15 3 -12 -3 -21 -2 -21
4 0 11 38 15 160 17 47 1 77 -1 67 -5z m-187 -86 c0 -3 -13 -5 -30 -5 -22 0
-28 4 -24 15 5 11 0 15 -17 14 -13 0 -18 -3 -11 -6 22 -9 13 -23 -16 -23 -52
0 -71 40 -19 41 17 0 41 4 52 9 15 6 26 2 43 -16 12 -13 22 -26 22 -29z m110
24 c0 -5 -9 -9 -19 -9 -10 0 -22 -7 -25 -16 -5 -12 -8 -13 -20 -2 -7 7 -11 18
-9 25 8 21 73 23 73 2z m118 4 c2 -9 -9 -13 -37 -13 -47 0 -64 17 -24 23 41 6
56 4 61 -10z m5603 -16 c-10 -9 -11 -8 -5 6 3 10 9 15 12 12 3 -3 0 -11 -7
-18z m-5217 -19 c13 -18 27 -23 71 -25 51 -2 72 8 43 20 -7 3 -1 6 14 6 14 1
34 4 43 8 14 5 16 2 10 -15 -4 -13 -2 -22 4 -22 6 0 11 7 11 16 0 14 7 15 38
10 20 -3 53 -6 72 -6 28 0 32 -3 20 -11 -12 -9 -11 -9 5 -4 11 4 28 10 38 12
9 3 17 9 17 14 0 5 5 9 10 9 6 0 10 -7 10 -15 0 -12 14 -15 67 -15 61 0 65 -1
47 -15 -18 -14 -18 -14 5 -15 19 0 21 -3 12 -14 -10 -11 -8 -15 6 -19 12 -3 8
-5 -9 -6 -16 0 -28 4 -28 9 0 6 -24 10 -53 10 -29 0 -57 4 -63 9 -9 9 -242 -4
-252 -14 -3 -3 9 -5 26 -5 18 0 32 -4 32 -10 0 -5 7 -10 15 -10 8 0 19 -10 26
-21 11 -21 10 -21 -27 -15 -22 4 -47 9 -56 12 -12 4 -18 0 -18 -10 0 -9 -7
-16 -15 -16 -8 0 -15 4 -15 10 0 6 -9 6 -26 -1 -15 -5 -94 -14 -176 -19 -82
-5 -157 -14 -167 -19 -10 -6 -42 -8 -71 -4 -39 4 -51 3 -46 -5 5 -8 -4 -12
-28 -12 -19 0 -38 5 -41 10 -3 6 -15 10 -27 10 -15 0 -18 -4 -14 -16 6 -15 -2
-16 -66 -12 -40 3 -65 3 -55 1 9 -3 15 -9 12 -14 -4 -5 7 -6 23 -3 21 4 31 2
35 -10 4 -9 13 -16 22 -16 8 0 15 -5 15 -11 0 -7 10 -9 25 -5 18 5 25 2 25 -9
0 -8 -3 -15 -7 -15 -5 1 -55 7 -113 14 -58 7 -107 11 -110 7 -9 -11 -100 -13
-100 -2 0 6 5 11 10 11 6 0 10 9 10 20 0 11 -4 20 -10 20 -18 0 -11 20 8 21
12 0 10 3 -8 12 -14 6 -26 12 -28 13 -7 4 11 33 24 38 8 3 13 2 10 -3 -3 -5 3
-11 13 -14 14 -3 17 0 14 14 -3 12 0 19 8 19 20 0 89 51 83 61 -3 5 4 9 15 9
12 0 21 -6 21 -12 1 -9 5 -8 13 3 7 9 18 14 25 12 6 -3 12 2 12 11 0 14 8 17
92 30 29 5 146 9 163 6 27 -5 103 -2 129 5 18 5 36 4 47 -4 22 -13 29 -14 28
-3 -3 18 4 22 45 22 35 0 48 -5 60 -22z m4776 -38 c0 -5 -4 -10 -9 -10 -6 0
-13 5 -16 10 -3 6 1 10 9 10 9 0 16 -4 16 -10z m-4170 -20 c0 -5 -4 -10 -10
-10 -5 0 -10 5 -10 10 0 6 5 10 10 10 6 0 10 -4 10 -10z m4027 -26 c-3 -3 -12
-4 -19 -1 -8 3 -5 6 6 6 11 1 17 -2 13 -5z m-4340 -10 c-3 -3 -12 -4 -19 -1
-8 3 -5 6 6 6 11 1 17 -2 13 -5z m128 -4 c-3 -5 -12 -7 -20 -3 -21 7 -19 13 6
13 11 0 18 -4 14 -10z m4165 -5 c10 -12 9 -15 -7 -15 -10 0 -28 7 -39 15 -18
14 -18 14 7 15 15 0 32 -7 39 -15z m-5459 -25 c25 -14 25 -30 -1 -23 -24 6
-49 33 -31 33 7 0 21 -5 32 -10z m5539 -16 c0 -2 -42 -3 -92 -2 l-93 2 80 5
c75 6 105 4 105 -5z m-4275 -34 c3 -5 -3 -10 -14 -10 -12 0 -21 5 -21 10 0 6
6 10 14 10 8 0 18 -4 21 -10z m4615 -1 c0 -4 8 -10 18 -12 11 -3 7 -5 -10 -6
-30 -1 -58 8 -58 19 0 4 11 8 25 8 14 0 25 -4 25 -9z m-4704 -14 c-25 -19 -36
-19 -36 0 0 10 10 15 28 15 26 -1 26 -1 8 -15z m237 8 c-7 -2 -19 -2 -25 0 -7
3 -2 5 12 5 14 0 19 -2 13 -5z m-311 -29 c-12 -8 -26 -13 -31 -10 -5 4 -12 0
-14 -6 -4 -10 -7 -10 -15 0 -10 15 -37 7 -64 -20 -25 -25 -23 -28 14 -28 29 0
30 -1 13 -13 -10 -8 -15 -19 -11 -25 4 -8 0 -12 -10 -12 -12 0 -15 -3 -8 -10
11 -11 54 -2 54 11 0 5 -6 9 -12 10 -7 0 -3 4 10 9 12 5 22 14 22 20 0 5 4 10
8 10 5 0 9 -7 9 -15 0 -8 -6 -15 -13 -15 -7 0 -11 -8 -9 -20 2 -13 -2 -20 -11
-20 -8 0 -14 -5 -14 -11 0 -6 -7 -8 -16 -5 -8 3 -36 -5 -62 -19 -26 -14 -50
-25 -54 -25 -15 0 -8 29 10 39 15 9 14 10 -6 11 -13 0 -20 4 -17 10 3 6 -3 10
-14 10 -12 0 -21 7 -21 15 0 8 -7 15 -15 15 -8 0 -15 5 -15 10 0 6 17 10 38
10 23 0 32 -3 24 -8 -8 -6 -2 -9 18 -9 16 0 30 4 30 9 0 4 7 8 15 8 17 0 19 9
7 28 -6 9 -13 7 -30 -8 -13 -12 -23 -16 -27 -9 -4 5 -14 7 -23 5 -10 -3 -24
-1 -32 4 -13 9 -13 11 0 19 8 5 18 8 21 8 3 -1 14 4 23 12 17 14 103 27 201
30 47 1 49 0 27 -15z m4805 0 c-3 -3 -12 -4 -19 -1 -8 3 -5 6 6 6 11 1 17 -2
13 -5z m283 -9 c0 -9 -9 -15 -22 -15 -22 1 -23 1 -4 15 25 19 26 19 26 0z
m-5500 -5 c0 -5 -7 -7 -15 -4 -8 4 -15 8 -15 10 0 2 7 4 15 4 8 0 15 -4 15
-10z m115 0 c-28 -12 -65 -12 -65 0 0 6 19 10 43 9 32 0 37 -2 22 -9z m337 -7
c10 -9 18 -22 18 -28 0 -15 53 -27 75 -19 10 4 15 1 13 -7 -4 -17 -37 -43 -45
-35 -4 3 -1 6 5 6 7 0 12 4 12 9 0 5 -9 7 -20 4 -12 -3 -20 0 -20 7 0 7 -8 9
-20 5 -14 -5 -20 -2 -20 9 0 9 -6 16 -12 16 -9 0 -8 3 2 10 12 8 12 10 -3 16
-9 3 -17 10 -17 15 0 14 11 11 32 -8z m-117 -13 c3 -5 -1 -10 -10 -10 -9 0
-13 5 -10 10 3 6 8 10 10 10 2 0 7 -4 10 -10z m-271 -6 c-7 -3 -10 -13 -7 -23
3 -10 0 -22 -7 -26 -8 -5 -8 -11 1 -21 9 -11 9 -18 1 -26 -15 -15 -16 -32 -2
-23 16 10 24 -23 10 -40 -9 -11 -9 -15 -1 -15 7 0 9 -4 6 -10 -3 -5 2 -10 12
-10 22 -1 55 -24 46 -33 -10 -10 -65 -8 -59 2 8 12 -10 17 -61 16 -28 0 -43 4
-43 13 0 15 -12 16 -27 1 -11 -11 -63 -2 -63 12 0 5 -11 19 -24 30 -15 13 -22
27 -19 37 4 9 2 13 -4 9 -6 -4 -25 -4 -42 -1 -26 6 -29 9 -19 21 9 12 25 14
66 9 57 -7 124 8 143 31 9 10 6 12 -20 7 -20 -4 -31 -3 -31 5 0 6 6 11 13 12
79 6 103 11 105 19 2 6 11 10 20 9 10 0 12 -3 6 -5z m443 -10 c-3 -3 -12 -4
-19 -1 -8 3 -5 6 6 6 11 1 17 -2 13 -5z m-744 -61 c-6 -14 -37 -13 -81 4 -17
7 -10 9 32 9 43 1 53 -2 49 -13z m662 7 c-3 -5 -13 -10 -21 -10 -8 0 -14 5
-14 10 0 6 9 10 21 10 11 0 17 -4 14 -10z m3425 -5 c0 -8 -4 -15 -9 -15 -5 0
-11 7 -15 15 -3 9 0 15 9 15 8 0 15 -7 15 -15z m-4295 -5 c3 -5 -1 -10 -9 -10
-9 0 -16 5 -16 10 0 6 4 10 9 10 6 0 13 -4 16 -10z m6135 1 c0 -16 -12 -41
-20 -41 -4 0 -5 11 -2 25 4 23 22 36 22 16z m-5240 -26 c0 -9 -9 -15 -24 -15
-13 0 -29 7 -36 15 -11 13 -7 15 24 15 25 0 36 -4 36 -15z m5311 -5 c6 0 7 -5
3 -11 -5 -9 1 -10 20 -5 35 9 60 -6 26 -15 l-25 -7 25 -1 c24 -2 23 -3 -10
-21 -43 -24 -70 -25 -70 -4 0 9 -8 22 -17 29 -14 11 -15 14 -2 28 8 9 20 14
27 12 8 -3 18 -5 23 -5z m-6231 -15 c0 -8 -4 -15 -10 -15 -5 0 -7 7 -4 15 4 8
8 15 10 15 2 0 4 -7 4 -15z m845 5 c3 -6 -1 -13 -10 -16 -19 -8 -30 0 -20 15
8 14 22 14 30 1z m5075 0 c0 -5 -4 -10 -10 -10 -5 0 -10 5 -10 10 0 6 5 10 10
10 6 0 10 -4 10 -10z m-1520 -10 c0 -5 -4 -10 -10 -10 -5 0 -10 5 -10 10 0 6
5 10 10 10 6 0 10 -4 10 -10z m-57 -22 c9 2 17 -2 17 -8 0 -7 -6 -10 -14 -7
-8 3 -16 1 -19 -6 -2 -8 -9 -7 -20 4 -17 18 -12 33 7 21 6 -3 19 -5 29 -4z
m1817 -3 c0 -8 -2 -15 -4 -15 -2 0 -6 7 -10 15 -3 8 -1 15 4 15 6 0 10 -7 10
-15z m-1900 1 c0 -3 -4 -8 -10 -11 -5 -3 -10 -1 -10 4 0 6 5 11 10 11 6 0 10
-2 10 -4z m250 -6 c0 -5 -4 -10 -10 -10 -5 0 -10 5 -10 10 0 6 5 10 10 10 6 0
10 -4 10 -10z m934 -8 c13 -7 -46 -53 -62 -47 -17 6 -40 -16 -34 -33 2 -7 -2
-10 -12 -6 -11 4 -19 -2 -26 -20 -5 -14 -16 -26 -24 -26 -8 0 -16 -3 -19 -7
-2 -5 -2 -2 0 5 2 8 -6 16 -17 19 -11 3 -20 9 -20 14 0 5 11 7 24 3 21 -5 24
-3 19 15 -4 17 -2 20 11 15 21 -8 21 12 0 24 -12 7 5 11 60 17 42 3 76 11 76
16 0 5 -4 9 -10 9 -5 0 -10 4 -10 10 0 8 21 5 44 -8z m-5144 -1 c0 -5 8 -11
18 -13 11 -2 13 -6 6 -10 -6 -4 -19 1 -29 12 -10 12 -13 20 -7 20 7 0 12 -4
12 -9z m800 5 c0 -3 -4 -8 -10 -11 -5 -3 -10 -1 -10 4 0 6 5 11 10 11 6 0 10
-2 10 -4z m70 -6 c11 -7 6 -10 -20 -10 -26 0 -31 3 -20 10 8 5 17 10 20 10 3
0 12 -5 20 -10z m3260 0 c0 -5 -4 -10 -10 -10 -5 0 -10 5 -10 10 0 6 5 10 10
10 6 0 10 -4 10 -10z m-3188 -15 c0 -5 -5 -11 -11 -13 -6 -2 -11 4 -11 13 0 9
5 15 11 13 6 -2 11 -8 11 -13z m3828 5 c0 -5 -2 -10 -4 -10 -3 0 -8 5 -11 10
-3 6 -1 10 4 10 6 0 11 -4 11 -10z m-4142 -12 c-2 -5 -8 -9 -13 -9 -5 0 -11 4
-13 9 -1 5 4 9 13 9 9 0 14 -4 13 -9z m3632 2 c0 -5 -4 -10 -10 -10 -5 0 -10
5 -10 10 0 6 5 10 10 10 6 0 10 -4 10 -10z m1089 -41 c-16 -10 -23 -4 -14 10
3 6 11 8 17 5 6 -4 5 -9 -3 -15z m-1429 1 c0 -13 -11 -13 -30 0 -12 8 -11 10
8 10 12 0 22 -4 22 -10z m230 3 c0 -5 -4 -14 -8 -20 -6 -9 -12 -7 -25 7 -16
19 -16 20 8 20 14 0 25 -3 25 -7z m-4020 -7 c0 -11 -19 -15 -25 -6 -3 5 1 10
9 10 9 0 16 -2 16 -4z m90 -12 c0 -7 12 -15 28 -17 21 -3 19 -4 -11 -6 -23 0
-36 3 -32 9 3 6 -3 10 -14 10 -12 0 -21 4 -21 9 0 5 11 9 25 9 14 0 25 -6 25
-14z m4240 2 c0 -3 -4 -8 -10 -11 -5 -3 -10 -1 -10 4 0 6 5 11 10 11 6 0 10
-2 10 -4z m930 -16 c0 -5 -9 -10 -21 -10 -11 0 -17 5 -14 10 3 6 13 10 21 10
8 0 14 -4 14 -10z m-757 -7 c-13 -2 -33 -2 -45 0 -13 2 -3 4 22 4 25 0 35 -2
23 -4z m707 -13 c0 -16 -89 -51 -114 -44 -14 3 -30 -2 -45 -15 -25 -21 -57
-29 -46 -11 3 6 12 10 20 10 8 0 18 6 22 13 11 18 45 30 52 18 9 -14 82 11 76
26 -2 8 4 13 15 13 11 0 20 -5 20 -10z m-5047 -7 c-7 -2 -21 -2 -30 0 -10 3
-4 5 12 5 17 0 24 -2 18 -5z m4462 -2 c-16 -14 -75 -31 -75 -21 0 4 12 13 28
18 35 13 59 15 47 3z m185 -11 c0 -5 -12 -10 -27 -9 l-28 1 25 8 c14 4 26 8
28 9 1 1 2 -3 2 -9z m-1507 -45 c5 -19 5 -19 12 3 10 30 32 28 37 -3 5 -22 2
-25 -21 -25 -32 0 -51 16 -51 44 0 24 16 11 23 -19z m1683 10 c-21 -16 -32
-13 -21 4 3 6 14 11 23 11 15 -1 15 -2 -2 -15z m-1746 -5 c0 -5 -9 -10 -20
-10 -11 0 -20 5 -20 10 0 6 9 10 20 10 11 0 20 -4 20 -10z m1409 6 c-2 -2 -17
-6 -34 -10 -22 -5 -26 -4 -15 4 14 9 59 15 49 6z m-839 -48 c0 -5 -18 -8 -40
-8 -22 0 -40 3 -40 8 0 4 18 7 40 7 22 0 40 -3 40 -7z m967 6 c-3 -3 -12 -4
-19 -1 -8 3 -5 6 6 6 11 1 17 -2 13 -5z m-1037 -34 c-19 -13 -30 -13 -30 0 0
6 10 10 23 10 18 0 19 -2 7 -10z m-2936 -25 c-6 -16 -44 -21 -44 -7 0 14 12
22 31 22 12 0 16 -5 13 -15z m2927 -5 c20 0 33 -27 16 -33 -7 -2 22 -9 63 -14
47 -7 61 -11 38 -12 -20 0 -38 -6 -40 -11 -2 -6 -23 -12 -48 -15 -25 -2 -69
-7 -99 -11 -40 -5 -52 -4 -47 4 4 7 14 12 22 12 8 0 14 7 14 15 0 8 9 15 20
15 13 0 18 -5 14 -15 -4 -11 0 -15 17 -15 12 0 19 3 16 6 -3 4 -2 15 4 25 8
16 6 19 -17 19 -19 0 -25 4 -20 15 6 18 2 19 -26 4 -16 -9 -19 -8 -16 2 6 17
50 29 63 17 5 -4 17 -8 26 -8z m82 3 c-7 -2 -21 -2 -30 0 -10 3 -4 5 12 5 17
0 24 -2 18 -5z m-2793 -48 c0 -7 -6 -13 -12 -12 -7 0 -42 -1 -78 -2 -54 -1
-62 -4 -45 -13 10 -6 33 -15 50 -19 l30 -7 -27 -1 c-17 -1 -28 -7 -28 -15 0
-10 -17 -13 -69 -12 -60 0 -69 3 -68 19 1 12 6 15 17 10 15 -7 119 -18 110
-12 -3 2 -18 15 -34 29 -27 24 -28 24 -22 4 6 -19 3 -21 -19 -16 -14 2 -25 9
-24 16 3 25 -2 36 -17 36 -8 0 -12 5 -9 11 5 7 14 4 26 -7 11 -10 19 -12 19
-6 0 15 76 16 85 2 10 -16 40 -11 54 9 12 16 18 17 38 8 12 -5 23 -16 23 -22z
m68 2 c3 -13 -4 -17 -30 -17 -25 0 -29 3 -18 10 8 5 11 10 5 10 -5 0 -3 5 5
10 20 13 34 7 38 -13z m2719 17 c-3 -3 -12 -4 -19 -1 -8 3 -5 6 6 6 11 1 17
-2 13 -5z m-270 -10 c-3 -3 -12 -4 -19 -1 -8 3 -5 6 6 6 11 1 17 -2 13 -5z
m90 0 c-3 -3 -12 -4 -19 -1 -8 3 -5 6 6 6 11 1 17 -2 13 -5z m-193 -39 c3 -9
0 -15 -9 -15 -8 0 -15 7 -15 15 0 8 4 15 9 15 5 0 11 -7 15 -15z m49 8 c-7 -2
-19 -2 -25 0 -7 3 -2 5 12 5 14 0 19 -2 13 -5z m440 -12 c-4 -16 -8 -17 -18
-8 -15 14 -10 27 10 27 8 0 11 -7 8 -19z m-3496 3 c-3 -3 -12 -4 -19 -1 -8 3
-5 6 6 6 11 1 17 -2 13 -5z m3006 -41 c-7 -2 -19 -2 -25 0 -7 3 -2 5 12 5 14
0 19 -2 13 -5z m-2846 -9 c-3 -3 -12 -4 -19 -1 -8 3 -5 6 6 6 11 1 17 -2 13
-5z"/>
<path d="M2565 2010 c-3 -5 1 -10 10 -10 9 0 13 5 10 10 -3 6 -8 10 -10 10 -2
0 -7 -4 -10 -10z"/>
<path d="M2436 1986 c3 -9 11 -16 16 -16 13 0 5 23 -10 28 -7 2 -10 -2 -6 -12z"/>
<path d="M3380 1990 c0 -5 7 -10 15 -10 8 0 15 5 15 10 0 6 -7 10 -15 10 -8 0
-15 -4 -15 -10z"/>
<path d="M2595 1980 c-3 -5 -1 -10 4 -10 6 0 11 5 11 10 0 6 -2 10 -4 10 -3 0
-8 -4 -11 -10z"/>
<path d="M2990 1980 c0 -5 4 -10 9 -10 6 0 13 5 16 10 3 6 -1 10 -9 10 -9 0
-16 -4 -16 -10z"/>
<path d="M2680 1970 c0 -5 5 -10 11 -10 5 0 7 5 4 10 -3 6 -8 10 -11 10 -2 0
-4 -4 -4 -10z"/>
<path d="M2955 1950 c-3 -6 1 -7 9 -4 18 7 21 14 7 14 -6 0 -13 -4 -16 -10z"/>
<path d="M2728 1933 c6 -2 18 -2 25 0 6 3 1 5 -13 5 -14 0 -19 -2 -12 -5z"/>
<path d="M2340 1880 c0 -5 5 -10 10 -10 6 0 10 5 10 10 0 6 -4 10 -10 10 -5 0
-10 -4 -10 -10z"/>
<path d="M2463 1863 c9 -2 23 -2 30 0 6 3 -1 5 -18 5 -16 0 -22 -2 -12 -5z"/>
<path d="M3025 1790 c3 -5 8 -10 11 -10 2 0 4 5 4 10 0 6 -5 10 -11 10 -5 0
-7 -4 -4 -10z"/>
<path d="M2737 1713 c-10 -9 -9 -23 2 -23 5 0 11 7 15 15 5 15 -5 20 -17 8z"/>
<path d="M2698 1663 c7 -3 16 -2 19 1 4 3 -2 6 -13 5 -11 0 -14 -3 -6 -6z"/>
<path d="M2750 1659 c0 -5 5 -7 10 -4 6 3 10 8 10 11 0 2 -4 4 -10 4 -5 0 -10
-5 -10 -11z"/>
<path d="M2768 1613 c7 -3 16 -2 19 1 4 3 -2 6 -13 5 -11 0 -14 -3 -6 -6z"/>
<path d="M2735 1590 c-19 -8 -19 -9 2 -9 12 -1 25 4 28 9 7 12 -2 12 -30 0z"/>
<path d="M7590 1550 c0 -5 5 -10 11 -10 5 0 7 5 4 10 -3 6 -8 10 -11 10 -2 0
-4 -4 -4 -10z"/>
<path d="M4358 5333 c7 -3 16 -2 19 1 4 3 -2 6 -13 5 -11 0 -14 -3 -6 -6z"/>
<path d="M7098 5323 c7 -3 16 -2 19 1 4 3 -2 6 -13 5 -11 0 -14 -3 -6 -6z"/>
<path d="M8265 5250 c-8 -13 5 -13 25 0 13 8 13 10 -2 10 -9 0 -20 -4 -23 -10z"/>
<path d="M6738 5243 c7 -3 16 -2 19 1 4 3 -2 6 -13 5 -11 0 -14 -3 -6 -6z"/>
<path d="M7045 5230 c3 -5 11 -10 16 -10 6 0 7 5 4 10 -3 6 -11 10 -16 10 -6
0 -7 -4 -4 -10z"/>
<path d="M5762 5216 c31 -13 119 -9 97 5 -8 5 -39 8 -69 8 -51 -1 -53 -1 -28
-13z"/>
<path d="M6460 5220 c14 -4 32 -8 40 -9 13 -1 13 0 0 9 -8 5 -26 9 -40 9 l-25
-1 25 -8z"/>
<path d="M6088 5213 c7 -3 16 -2 19 1 4 3 -2 6 -13 5 -11 0 -14 -3 -6 -6z"/>
<path d="M8280 5211 c0 -6 -10 -12 -22 -12 -17 -1 -18 -3 -6 -6 23 -6 55 12
39 21 -6 4 -11 2 -11 -3z"/>
<path d="M3953 5203 c9 -2 23 -2 30 0 6 3 -1 5 -18 5 -16 0 -22 -2 -12 -5z"/>
<path d="M6490 5180 c0 -6 7 -10 15 -10 8 0 15 2 15 4 0 2 -7 6 -15 10 -8 3
-15 1 -15 -4z"/>
<path d="M5770 5160 c-13 -8 -12 -10 3 -10 9 0 17 5 17 10 0 12 -1 12 -20 0z"/>
<path d="M5828 5163 c7 -3 16 -2 19 1 4 3 -2 6 -13 5 -11 0 -14 -3 -6 -6z"/>
<path d="M5676 5152 c-2 -4 4 -9 15 -9 10 -1 19 2 19 8 0 11 -27 12 -34 1z"/>
<path d="M3923 5143 c9 -2 25 -2 35 0 9 3 1 5 -18 5 -19 0 -27 -2 -17 -5z"/>
<path d="M6533 5143 c15 -2 37 -2 50 0 12 2 0 4 -28 4 -27 0 -38 -2 -22 -4z"/>
<path d="M5478 5133 c7 -3 16 -2 19 1 4 3 -2 6 -13 5 -11 0 -14 -3 -6 -6z"/>
<path d="M5563 5133 c9 -2 23 -2 30 0 6 3 -1 5 -18 5 -16 0 -22 -2 -12 -5z"/>
<path d="M5713 5123 c-16 -12 -13 -13 22 -7 50 8 52 10 20 16 -14 3 -33 -1
-42 -9z"/>
<path d="M8280 5065 c-19 -23 -8 -26 19 -4 16 13 18 19 8 19 -8 0 -20 -7 -27
-15z"/>
<path d="M7135 5050 c4 -6 11 -8 16 -5 14 9 11 15 -7 15 -8 0 -12 -5 -9 -10z"/>
<path d="M7588 5043 c6 -2 18 -2 25 0 6 3 1 5 -13 5 -14 0 -19 -2 -12 -5z"/>
<path d="M6683 5033 c9 -2 23 -2 30 0 6 3 -1 5 -18 5 -16 0 -22 -2 -12 -5z"/>
<path d="M7415 4960 l-40 -7 47 -2 c26 0 50 4 53 9 7 11 1 11 -60 0z"/>
<path d="M8640 4746 c0 -2 9 -6 20 -9 11 -3 18 -1 14 4 -5 9 -34 13 -34 5z"/>
<path d="M9205 4690 c-4 -6 5 -10 20 -10 15 0 24 4 20 10 -3 6 -12 10 -20 10
-8 0 -17 -4 -20 -10z"/>
<path d="M8868 4363 c6 -2 18 -2 25 0 6 3 1 5 -13 5 -14 0 -19 -2 -12 -5z"/>
<path d="M9470 3210 c0 -5 9 -10 20 -10 11 0 20 -4 20 -9 0 -10 30 -24 38 -17
5 5 -58 46 -70 46 -5 0 -8 -4 -8 -10z"/>
<path d="M9408 3193 c7 -3 16 -2 19 1 4 3 -2 6 -13 5 -11 0 -14 -3 -6 -6z"/>
<path d="M9439 3161 c23 -21 61 -29 61 -12 0 5 -10 11 -22 14 -13 2 -32 8 -43
12 -17 6 -17 4 4 -14z"/>
<path d="M1088 2973 c18 -2 45 -2 60 0 15 2 0 4 -33 4 -33 0 -45 -2 -27 -4z"/>
<path d="M1197 2969 c7 -7 15 -10 18 -7 3 3 -2 9 -12 12 -14 6 -15 5 -6 -5z"/>
<path d="M1248 2973 c6 -2 18 -2 25 0 6 3 1 5 -13 5 -14 0 -19 -2 -12 -5z"/>
<path d="M9158 2913 c7 -3 16 -2 19 1 4 3 -2 6 -13 5 -11 0 -14 -3 -6 -6z"/>
<path d="M929 2477 c-9 -7 -14 -18 -11 -26 6 -18 -18 -32 -45 -26 -27 6 -30
-10 -9 -52 8 -15 23 -45 33 -67 10 -21 27 -42 38 -46 36 -14 49 -39 46 -86 -1
-24 1 -44 6 -44 4 0 25 16 46 35 21 19 40 35 43 35 11 0 2 -35 -13 -52 -15
-17 -15 -18 1 -18 9 0 27 10 39 23 12 12 33 28 47 34 l25 12 -25 0 c-25 1 -35
13 -60 74 -18 41 -34 34 -27 -12 4 -36 3 -40 -21 -46 -36 -9 -49 8 -35 45 6
17 7 30 2 30 -15 0 -23 51 -8 60 10 7 5 16 -19 41 -18 18 -32 40 -32 48 0 9
12 1 30 -19 16 -18 33 -30 37 -27 4 4 1 13 -5 19 -20 20 -14 46 11 51 21 3 21
4 -6 15 -36 15 -68 15 -88 -1z"/>
<path d="M840 2471 c0 -19 20 -22 42 -7 22 16 22 16 -10 16 -17 0 -32 -4 -32
-9z"/>
<path d="M1240 2460 c20 -13 33 -13 25 0 -3 6 -14 10 -23 10 -15 0 -15 -2 -2
-10z"/>
<path d="M9388 2402 c-16 -2 -28 -10 -28 -18 0 -16 12 -18 26 -4 8 8 19 7 39
0 31 -12 69 -4 59 12 -3 5 -14 8 -24 5 -9 -2 -23 -1 -31 2 -8 4 -26 5 -41 3z"/>
<path d="M1258 2393 c7 -3 16 -2 19 1 4 3 -2 6 -13 5 -11 0 -14 -3 -6 -6z"/>
<path d="M9497 2315 c-35 -32 -37 -36 -22 -51 15 -15 17 -15 34 0 12 11 36 16
75 16 49 0 57 3 52 16 -3 9 -6 18 -6 20 0 2 -10 4 -23 4 -13 0 -32 7 -43 15
-25 19 -24 20 -67 -20z"/>
<path d="M1218 2292 c-10 -2 -18 -10 -18 -18 0 -8 -7 -14 -15 -14 -8 0 -15 -5
-15 -10 0 -12 19 -3 54 25 22 17 19 23 -6 17z"/>
<path d="M9345 2237 c-20 -20 -20 -20 15 -13 19 3 39 11 45 18 7 8 5 9 -9 4
-11 -4 -22 -3 -25 2 -3 5 -15 0 -26 -11z"/>
<path d="M1130 2240 c0 -5 5 -10 10 -10 6 0 10 5 10 10 0 6 -4 10 -10 10 -5 0
-10 -4 -10 -10z"/>
<path d="M8874 2145 c8 -8 23 -15 33 -15 13 0 10 4 -11 15 -36 19 -41 19 -22
0z"/>
<path d="M8990 2140 c0 -5 5 -10 10 -10 6 0 10 5 10 10 0 6 -4 10 -10 10 -5 0
-10 -4 -10 -10z"/>
<path d="M9078 2125 c-12 -26 -34 -36 -25 -11 8 20 -3 27 -24 15 -21 -11 -15
-36 9 -42 12 -3 10 -5 -5 -6 -37 -2 -38 -1 -35 19 2 11 -2 20 -7 20 -6 0 -11
-9 -11 -20 0 -11 -7 -20 -16 -20 -8 0 -12 -4 -9 -10 3 -5 -1 -10 -9 -10 -9 0
-16 -4 -16 -10 0 -5 4 -10 9 -10 14 0 21 -54 8 -63 -9 -5 -8 -11 3 -20 16 -13
20 -41 7 -53 -4 -4 -2 -13 4 -21 7 -7 7 -13 2 -13 -5 0 -15 -11 -21 -25 -11
-23 -9 -25 26 -34 24 -7 40 -7 46 -1 6 6 36 10 67 10 32 0 60 3 63 8 2 4 -25
6 -60 5 -44 -2 -63 1 -58 8 3 6 19 8 35 5 15 -3 31 -1 34 4 3 6 1 10 -4 10 -6
0 -11 9 -11 20 0 15 7 20 24 20 14 0 28 5 32 11 4 7 22 9 44 6 32 -4 42 -1 63
22 29 31 40 68 26 92 -8 16 -19 18 -72 14 -34 -3 -56 -3 -49 1 23 11 12 24
-20 24 -30 0 -31 1 -13 14 17 12 18 18 7 40 -15 33 -29 33 -44 1z m-38 -219
c0 -15 -18 -31 -26 -23 -7 7 7 37 17 37 5 0 9 -6 9 -14z"/>
<path d="M9557 2136 c-35 -15 -25 -26 25 -26 31 0 38 3 38 20 0 23 -20 25 -63
6z"/>
<path d="M8540 2136 c0 -2 7 -6 15 -10 8 -3 15 -1 15 4 0 6 -7 10 -15 10 -8 0
-15 -2 -15 -4z"/>
<path d="M8775 2130 c-30 -11 -3 -19 35 -11 33 7 34 8 9 12 -14 3 -34 3 -44
-1z"/>
<path d="M8638 2123 c6 -2 18 -2 25 0 6 3 1 5 -13 5 -14 0 -19 -2 -12 -5z"/>
<path d="M1346 2100 c7 -7 24 -7 50 -1 l39 9 -49 1 c-34 1 -47 -2 -40 -9z"/>
<path d="M8728 2093 c7 -3 16 -2 19 1 4 3 -2 6 -13 5 -11 0 -14 -3 -6 -6z"/>
<path d="M8838 2043 c6 -2 18 -2 25 0 6 3 1 5 -13 5 -14 0 -19 -2 -12 -5z"/>
<path d="M8775 2020 c-3 -5 1 -10 9 -10 9 0 16 5 16 10 0 6 -4 10 -9 10 -6 0
-13 -4 -16 -10z"/>
<path d="M8848 2023 c7 -3 16 -2 19 1 4 3 -2 6 -13 5 -11 0 -14 -3 -6 -6z"/>
<path d="M1715 1930 c19 -12 31 -16 34 -9 4 14 -18 29 -44 29 -17 0 -15 -4 10
-20z"/>
<path d="M7764 1899 c-3 -5 9 -9 25 -9 17 0 31 2 31 4 0 8 -51 13 -56 5z"/>
<path d="M7894 1898 c-3 -4 11 -8 30 -8 20 0 36 2 36 4 0 8 -61 12 -66 4z"/>
<path d="M7848 1893 c6 -2 18 -2 25 0 6 3 1 5 -13 5 -14 0 -19 -2 -12 -5z"/>
<path d="M8427 1884 c6 -15 23 -19 23 -5 0 5 -7 11 -14 14 -10 4 -13 1 -9 -9z"/>
<path d="M1811 1873 c7 -7 5 -13 -3 -16 -8 -4 -7 -6 5 -6 9 -1 26 -10 37 -21
29 -29 48 -25 20 5 -18 19 -20 27 -11 38 9 12 5 14 -23 13 -25 -1 -32 -4 -25
-13z"/>
<path d="M8480 1860 c0 -5 7 -10 15 -10 8 0 15 5 15 10 0 6 -7 10 -15 10 -8 0
-15 -4 -15 -10z"/>
<path d="M8084 1835 c3 -8 0 -15 -7 -16 -7 0 -1 -5 12 -10 34 -13 60 -3 54 21
-4 14 -14 20 -35 20 -23 0 -29 -4 -24 -15z"/>
<path d="M1485 1830 c-4 -6 -17 -10 -28 -9 -17 2 -77 -21 -95 -36 -2 -2 9 -15
24 -30 l26 -26 22 20 c11 11 33 23 49 26 27 7 37 24 15 26 -7 0 -5 4 5 8 17 6
17 8 4 19 -11 9 -17 10 -22 2z"/>
<path d="M9190 1832 c0 -13 49 -22 56 -11 3 5 -1 9 -10 9 -8 0 -21 3 -30 6 -9
3 -16 2 -16 -4z"/>
<path d="M1696 1798 c-16 -32 -16 -32 30 -91 25 -32 47 -71 48 -85 4 -34 22
-40 29 -10 4 13 2 25 -3 26 -13 5 -13 42 0 42 6 0 22 -12 36 -27 l25 -28 -3
31 c-4 29 -2 31 14 20 20 -12 24 -26 8 -26 -5 0 -10 -10 -9 -22 0 -15 2 -18 6
-8 11 32 33 39 66 22 60 -29 65 -31 86 -25 21 5 20 7 -11 26 -18 11 -51 38
-74 61 -57 58 -102 89 -154 109 -63 24 -76 22 -94 -15z"/>
<path d="M7516 1822 c-3 -5 1 -9 9 -9 8 0 15 4 15 9 0 4 -4 8 -9 8 -6 0 -12
-4 -15 -8z"/>
<path d="M9368 1823 c6 -2 18 -2 25 0 6 3 1 5 -13 5 -14 0 -19 -2 -12 -5z"/>
<path d="M7376 1811 c-4 -5 12 -7 36 -4 57 8 61 13 10 13 -22 0 -43 -4 -46 -9z"/>
<path d="M1535 1780 c-19 -8 -19 -9 2 -9 12 -1 30 -4 40 -8 16 -6 16 -5 4 10
-15 19 -17 19 -46 7z"/>
<path d="M8648 1783 c7 -3 16 -2 19 1 4 3 -2 6 -13 5 -11 0 -14 -3 -6 -6z"/>
<path d="M1920 1754 c0 -14 3 -14 15 -4 8 7 15 14 15 16 0 2 -7 4 -15 4 -8 0
-15 -7 -15 -16z"/>
<path d="M6960 1760 c0 -6 16 -8 43 -4 58 9 59 14 4 14 -26 0 -47 -5 -47 -10z"/>
<path d="M8670 1760 c19 -13 30 -13 30 0 0 6 -10 10 -22 10 -19 0 -20 -2 -8
-10z"/>
<path d="M1340 1741 c0 -13 29 -35 37 -28 7 8 -15 37 -28 37 -5 0 -9 -4 -9 -9z"/>
<path d="M6998 1702 c-10 -2 -18 -8 -18 -14 0 -5 7 -7 16 -4 13 5 15 2 11 -13
-3 -12 1 -22 10 -25 23 -9 29 -7 13 5 -11 8 -6 9 20 5 27 -5 32 -4 22 6 -16
16 -15 28 3 28 8 0 15 3 15 8 0 8 -63 11 -92 4z m42 -22 c0 -5 -4 -10 -10 -10
-5 0 -10 5 -10 10 0 6 5 10 10 10 6 0 10 -4 10 -10z"/>
<path d="M7145 1690 c3 -5 8 -10 11 -10 2 0 4 5 4 10 0 6 -5 10 -11 10 -5 0
-7 -4 -4 -10z"/>
<path d="M7169 1684 c-6 -8 -20 -14 -30 -14 -40 0 -17 -15 27 -18 38 -2 45 0
41 12 -4 9 1 16 11 18 11 3 8 6 -10 10 -17 3 -32 0 -39 -8z"/>
<path d="M1319 1656 c-25 -6 -59 -22 -76 -34 -17 -12 -38 -19 -46 -16 -8 3
-18 1 -21 -5 -3 -5 7 -12 23 -16 22 -5 28 -11 24 -24 -3 -14 3 -20 23 -25 27
-7 49 8 38 26 -3 4 9 16 25 26 17 10 28 22 24 25 -3 4 3 7 15 7 11 0 28 3 38
7 16 6 16 7 -2 14 -18 6 -17 8 6 17 l25 11 -25 0 c-14 0 -46 -6 -71 -13z"/>
<path d="M6858 1633 c7 -3 16 -2 19 1 4 3 -2 6 -13 5 -11 0 -14 -3 -6 -6z"/>
<path d="M7265 1630 c3 -5 8 -10 11 -10 2 0 4 5 4 10 0 6 -5 10 -11 10 -5 0
-7 -4 -4 -10z"/>
<path d="M7440 1609 c0 -5 5 -7 10 -4 6 3 10 8 10 11 0 2 -4 4 -10 4 -5 0 -10
-5 -10 -11z"/>
<path d="M8830 1576 c0 -7 -7 -19 -15 -26 -8 -7 -15 -21 -15 -32 0 -16 4 -14
30 12 32 33 39 60 15 60 -8 0 -15 -6 -15 -14z"/>
<path d="M8663 1563 c4 -3 -1 -12 -11 -19 -15 -12 -15 -13 -1 -14 9 0 22 6 28
13 11 14 5 27 -12 27 -6 0 -7 -3 -4 -7z"/>
<path d="M7010 1470 l-45 -7 40 -1 c22 0 58 3 80 7 l40 9 -35 -1 c-19 0 -55
-3 -80 -7z"/>
<path d="M6781 1457 c-9 -12 -29 -17 -69 -17 -69 0 -62 -11 10 -15 29 -2 67
-5 83 -7 20 -2 29 1 28 10 -2 8 11 12 38 12 32 0 40 -3 35 -15 -3 -8 -1 -15 5
-15 5 0 13 8 16 18 4 9 11 20 17 24 21 14 -3 18 -55 10 -30 -5 -61 -13 -71
-16 -11 -5 -17 -2 -20 10 -3 16 -4 16 -17 1z"/>
<path d="M7090 1436 c0 -2 7 -6 15 -10 8 -3 15 -1 15 4 0 6 -7 10 -15 10 -8 0
-15 -2 -15 -4z"/>
<path d="M6300 1419 c0 -5 5 -7 10 -4 6 3 10 8 10 11 0 2 -4 4 -10 4 -5 0 -10
-5 -10 -11z"/>
<path d="M6960 1422 c0 -4 9 -8 20 -8 11 0 20 4 20 8 0 4 -9 8 -20 8 -11 0
-20 -4 -20 -8z"/>
<path d="M6358 1403 c7 -3 16 -2 19 1 4 3 -2 6 -13 5 -11 0 -14 -3 -6 -6z"/>
<path d="M6640 1395 c0 -8 2 -15 4 -15 2 0 6 7 10 15 3 8 1 15 -4 15 -6 0 -10
-7 -10 -15z"/>
<path d="M6915 1381 c-3 -6 -15 -8 -27 -6 -15 3 -18 1 -11 -6 14 -14 65 -8 71
9 4 14 -24 17 -33 3z"/>
<path d="M6705 1369 l-20 -9 20 2 c11 2 26 -1 33 -5 7 -5 12 -4 12 2 0 6 11
11 25 11 17 0 23 -4 19 -14 -4 -11 0 -13 18 -9 18 4 20 3 8 -6 -22 -15 -107
-13 -133 3 -13 9 -34 12 -50 9 -26 -5 -26 -6 -10 -20 10 -8 13 -12 6 -9 -6 4
-14 2 -17 -3 -3 -5 25 -7 67 -6 39 2 91 4 115 4 30 1 42 5 42 16 0 8 8 15 18
16 9 0 1 7 -18 14 -40 16 -106 18 -135 4z"/>
<path d="M7488 1363 c7 -3 16 -2 19 1 4 3 -2 6 -13 5 -11 0 -14 -3 -6 -6z"/>
<path d="M6980 1350 c0 -6 7 -10 15 -10 8 0 15 2 15 4 0 2 -7 6 -15 10 -8 3
-15 1 -15 -4z"/>
<path d="M7473 1323 c9 -2 25 -2 35 0 9 3 1 5 -18 5 -19 0 -27 -2 -17 -5z"/>
<path d="M3349 1299 c-8 -5 -9 -9 -4 -10 6 0 20 -2 33 -3 12 -2 22 1 22 5 0
11 -37 17 -51 8z"/>
<path d="M6790 1300 c-13 -8 -12 -10 3 -10 9 0 17 5 17 10 0 12 -1 12 -20 0z"/>
<path d="M7433 1285 l-21 -25 30 0 c17 0 28 3 25 6 -3 4 -2 15 4 25 15 29 -11
24 -38 -6z"/>
<path d="M7490 1270 c0 -5 5 -10 11 -10 5 0 7 5 4 10 -3 6 -8 10 -11 10 -2 0
-4 -4 -4 -10z"/>
<path d="M1690 1250 c12 -8 11 -10 -7 -10 -33 0 -28 -22 12 -57 36 -32 42 -47
25 -58 -13 -8 10 -45 28 -45 9 0 11 -7 7 -21 -5 -15 -4 -19 4 -15 7 4 11 0 11
-11 0 -25 26 -60 36 -50 5 4 3 17 -4 27 -7 11 -12 26 -12 33 0 8 -11 30 -24
50 -25 37 -24 57 1 31 9 -8 18 -12 21 -9 3 3 0 11 -6 17 -24 24 -13 35 29 32
38 -3 40 -2 33 19 -11 37 -26 49 -56 45 -16 -3 -31 -1 -34 4 -3 4 -10 8 -16 8
-6 0 -3 -9 7 -20 11 -13 14 -20 6 -20 -20 0 -41 27 -35 44 5 12 0 16 -17 16
-19 0 -21 -2 -9 -10z"/>
<path d="M3348 1253 c7 -3 16 -2 19 1 4 3 -2 6 -13 5 -11 0 -14 -3 -6 -6z"/>
<path d="M6790 1240 c-8 -5 -25 -10 -37 -10 -13 0 -23 -5 -23 -11 0 -7 9 -9
23 -5 12 3 27 6 33 6 7 0 14 7 18 15 6 18 6 18 -14 5z"/>
<path d="M6843 1233 c-19 -7 -16 -20 6 -26 13 -3 21 1 24 14 5 19 -5 23 -30
12z"/>
<path d="M7398 1224 c-14 -14 -41 -21 -95 -23 -19 -1 -11 -24 12 -38 20 -12
20 -12 -2 -13 -35 0 -53 -11 -53 -31 0 -23 13 -24 34 -4 22 23 66 20 66 -5 0
-14 7 -20 24 -20 20 0 25 6 30 45 4 25 14 52 23 60 12 12 13 19 3 30 -16 19
-22 19 -42 -1z"/>
<path d="M6980 1220 c0 -5 7 -7 15 -4 8 4 15 8 15 10 0 2 -7 4 -15 4 -8 0 -15
-4 -15 -10z"/>
<path d="M2570 1216 c0 -2 7 -7 16 -10 8 -3 12 -2 9 4 -6 10 -25 14 -25 6z"/>
<path d="M1850 1200 c0 -5 7 -10 16 -10 8 0 12 5 9 10 -3 6 -10 10 -16 10 -5
0 -9 -4 -9 -10z"/>
<path d="M4560 1195 c0 -8 -8 -15 -17 -15 -12 0 -14 -3 -6 -11 15 -15 56 -1
49 16 -3 8 0 16 7 19 7 2 2 5 -10 5 -14 1 -23 -5 -23 -14z"/>
<path d="M4616 1197 c2 -7 17 -14 32 -15 l27 -2 -29 15 c-35 18 -37 18 -30 2z"/>
<path d="M6880 1200 c0 -5 7 -7 15 -4 8 4 15 8 15 10 0 2 -7 4 -15 4 -8 0 -15
-4 -15 -10z"/>
<path d="M8020 1165 c-41 -19 -94 -39 -118 -45 -36 -9 -41 -14 -32 -26 10 -11
9 -14 -4 -15 -29 -3 -34 -4 -42 -11 -4 -5 0 -8 9 -8 10 0 17 -7 17 -15 0 -8
-3 -14 -7 -13 -17 3 -63 -23 -63 -36 0 -7 -7 -16 -15 -20 -24 -9 -17 -25 8
-19 47 10 53 15 34 22 -18 7 -18 8 -1 21 10 8 15 10 11 3 -5 -7 3 -14 22 -18
22 -5 35 -1 50 14 27 27 61 28 61 1 0 -15 -9 -22 -32 -27 -32 -7 -32 -7 -8
-13 26 -7 30 -24 16 -67 -6 -19 -4 -23 12 -23 21 0 49 44 44 72 -2 10 1 18 7
18 6 0 22 20 37 45 14 25 32 45 39 45 7 0 15 6 18 14 9 23 57 51 66 38 4 -7
12 -8 21 -2 13 8 12 10 -3 10 -10 0 -16 4 -12 9 8 14 67 25 74 14 4 -6 18 -5
36 3 l30 13 -27 1 c-32 0 -35 7 -10 26 16 12 15 13 -8 13 -14 0 -42 -6 -62
-13 -21 -8 -35 -9 -31 -3 3 5 0 7 -8 5 -8 -3 -13 -10 -12 -16 1 -5 -7 -8 -18
-5 -19 5 -19 7 -3 24 16 18 16 19 -2 18 -10 0 -53 -16 -94 -34z"/>
<path d="M4825 1179 c-22 -4 -58 -8 -79 -8 -22 -1 -37 -4 -33 -7 9 -9 167 7
167 17 0 10 1 10 -55 -2z"/>
<path d="M4928 1183 c7 -3 16 -2 19 1 4 3 -2 6 -13 5 -11 0 -14 -3 -6 -6z"/>
<path d="M4425 1174 c-6 -2 -57 -8 -115 -13 l-105 -8 131 -1 c105 0 131 3 131
14 0 13 -20 17 -42 8z"/>
<path d="M5798 1173 c7 -3 16 -2 19 1 4 3 -2 6 -13 5 -11 0 -14 -3 -6 -6z"/>
<path d="M4928 1163 c7 -3 16 -2 19 1 4 3 -2 6 -13 5 -11 0 -14 -3 -6 -6z"/>
<path d="M4818 1153 c7 -3 16 -2 19 1 4 3 -2 6 -13 5 -11 0 -14 -3 -6 -6z"/>
<path d="M7680 1131 c0 -5 -7 -17 -16 -25 -11 -12 -12 -16 -2 -16 7 0 18 11
25 25 6 14 7 25 2 25 -5 0 -9 -4 -9 -9z"/>
<path d="M8226 1101 c-3 -5 0 -11 7 -14 8 -3 14 1 14 9 0 16 -13 19 -21 5z"/>
<path d="M7401 1044 c0 -11 3 -14 6 -6 3 7 2 16 -1 19 -3 4 -6 -2 -5 -13z"/>
<path d="M8123 1053 c9 -2 25 -2 35 0 9 3 1 5 -18 5 -19 0 -27 -2 -17 -5z"/>
<path d="M8250 1005 c-7 -8 -10 -22 -6 -30 7 -18 4 -31 -6 -28 -4 2 2 -15 13
-38 l22 -40 34 51 c33 50 36 77 6 65 -9 -3 -25 -3 -36 1 -20 6 -20 7 -2 20 15
11 16 14 3 14 -8 0 -21 -7 -28 -15z"/>
<path d="M7840 941 c0 -5 6 -11 13 -14 8 -3 14 1 14 9 0 8 -6 14 -14 14 -7 0
-13 -4 -13 -9z"/>
</g>
</svg>
