<?xml version="1.0" standalone="no"?>
<!DOCTYPE svg PUBLIC "-//W3C//DTD SVG 20010904//EN"
 "http://www.w3.org/TR/2001/REC-SVG-20010904/DTD/svg10.dtd">
<svg version="1.0" xmlns="http://www.w3.org/2000/svg"
 width="1024.000000pt" height="724.000000pt" viewBox="0 0 1024.000000 724.000000"
 preserveAspectRatio="xMidYMid meet">
<metadata>
Created by potrace 1.16, written by Peter Selinger 2001-2019
</metadata>
<g transform="translate(0.000000,724.000000) scale(0.100000,-0.100000)"
fill="#000000" stroke="none">
<path d="M2319 6818 c-1 -7 0 -28 1 -45 1 -25 -2 -32 -13 -27 -8 3 -17 -2 -21
-11 -3 -9 -10 -13 -16 -10 -6 3 -10 -4 -11 -17 0 -19 -3 -17 -14 12 -14 38
-16 35 -19 -42 -2 -38 -14 -45 -22 -14 -7 28 -24 36 -24 11 0 -8 -4 -15 -10
-15 -5 0 -10 5 -10 11 0 5 -4 8 -10 4 -5 -3 -7 -12 -3 -20 4 -11 1 -13 -11 -9
-12 4 -16 0 -16 -15 0 -12 -6 -21 -15 -21 -10 0 -15 -10 -15 -27 -1 -26 -2
-27 -14 -10 -13 16 -15 16 -40 -14 -14 -17 -24 -34 -21 -39 3 -4 -4 -10 -16
-13 -15 -4 -18 -11 -14 -30 6 -20 1 -28 -24 -43 -33 -19 -41 -44 -16 -44 19 0
19 -20 2 -44 -16 -22 -109 -34 -101 -13 3 8 -7 14 -28 15 -62 5 -94 25 -45 29
12 1 38 5 57 8 19 3 45 6 58 7 28 0 32 38 3 38 -11 0 -23 5 -26 10 -5 8 -11 8
-20 0 -13 -11 -45 -3 -57 14 -9 14 -88 7 -112 -10 -11 -8 -42 -17 -69 -20 -47
-7 -70 -26 -51 -44 5 -4 32 -11 59 -14 70 -7 95 -16 95 -33 0 -12 10 -14 44
-11 33 2 46 -1 50 -12 4 -8 9 -20 12 -27 4 -9 -10 -12 -50 -11 -31 1 -56 5
-56 8 0 4 -14 7 -30 8 -18 0 -28 -3 -24 -10 4 -6 -4 -9 -17 -8 -33 3 -67 -9
-73 -26 -6 -17 24 -16 36 1 5 6 8 4 8 -5 0 -9 9 -23 20 -33 11 -9 20 -12 20
-7 0 6 5 10 11 10 5 0 7 -5 3 -12 -5 -8 0 -9 14 -6 18 5 22 2 22 -17 0 -27
-16 -42 -23 -23 -3 9 -11 6 -26 -9 -11 -12 -21 -26 -21 -32 0 -15 -33 -23 -42
-9 -5 9 -8 4 -8 -14 0 -16 -4 -28 -10 -28 -14 0 -12 -28 2 -32 14 -5 -47 -38
-69 -38 -7 0 -19 -12 -25 -27 -24 -55 -61 -103 -79 -103 -21 0 -23 -8 -9 -30
8 -12 13 -13 30 -2 19 11 20 11 15 -11 -8 -29 11 -46 56 -51 19 -2 37 -4 41
-5 4 0 12 -18 17 -38 9 -32 8 -40 -9 -55 -21 -20 -25 -29 -12 -27 19 3 22 -2
8 -17 -9 -8 -14 -20 -11 -24 3 -5 -4 -14 -15 -20 -24 -13 -27 -35 -4 -26 14 5
15 4 5 -8 -10 -12 -8 -13 10 -9 19 5 21 3 17 -19 -6 -30 22 -54 41 -35 8 8 11
8 11 0 0 -7 -4 -15 -10 -18 -5 -3 -10 -16 -9 -28 l0 -22 9 23 c13 31 26 27 26
-8 -1 -21 -13 -40 -43 -69 -24 -22 -44 -44 -44 -50 -1 -6 -3 -15 -4 -21 -1 -5
-3 -14 -4 -20 0 -5 -12 -10 -25 -10 -14 0 -28 -5 -31 -11 -4 -6 -13 -8 -21 -5
-8 3 -14 2 -14 -3 0 -16 14 -20 28 -9 11 10 17 9 27 -5 8 -12 15 -14 20 -8 9
15 23 14 21 -1 0 -7 3 -14 7 -15 4 -1 15 -9 24 -18 9 -9 23 -13 32 -10 9 4 26
8 38 10 13 1 29 7 36 14 16 13 27 5 27 -21 0 -19 -15 -24 -25 -8 -4 6 -11 5
-19 -3 -19 -17 -8 -30 19 -23 14 4 28 0 35 -9 11 -13 1 -22 -14 -12 -2 1 -13
-7 -25 -17 -18 -16 -25 -17 -46 -8 -22 10 -25 9 -25 -9 0 -13 -11 -25 -33 -34
-43 -18 -61 -39 -54 -65 4 -17 2 -18 -14 -9 -16 8 -19 6 -19 -16 0 -14 -6 -25
-13 -25 -11 0 -47 -48 -47 -64 0 -3 16 -13 35 -22 19 -9 35 -21 35 -26 0 -5 9
-7 19 -3 16 5 19 1 18 -15 -1 -11 -5 -20 -10 -20 -5 0 -6 -7 -3 -15 3 -10 1
-15 -7 -13 -13 3 -77 -45 -77 -58 0 -4 8 -13 18 -20 14 -11 15 -15 3 -26 -12
-11 -13 -11 -6 1 6 11 3 13 -16 8 -13 -4 -27 -7 -31 -7 -5 0 -8 -7 -8 -15 0
-18 -17 -20 -23 -2 -2 7 -10 0 -17 -15 -7 -16 -17 -28 -22 -28 -4 0 -8 -4 -8
-10 0 -5 7 -7 15 -4 8 4 23 0 32 -7 15 -12 16 -12 10 3 -5 15 -4 16 13 6 24
-15 37 -4 20 17 -7 8 -8 15 -2 15 5 0 15 -7 22 -15 7 -8 27 -15 44 -15 36 0
56 -15 56 -42 0 -11 -7 -18 -20 -18 -10 0 -24 -9 -30 -20 -6 -11 -19 -20 -29
-20 -11 0 -24 -12 -31 -30 -7 -18 -27 -37 -46 -46 -33 -16 -44 -37 -25 -48 5
-4 11 -1 13 4 2 7 16 5 41 -5 39 -16 47 -32 22 -41 -8 -4 -15 -10 -15 -15 0
-6 9 -5 20 1 18 10 24 7 21 -12 0 -4 6 -5 14 -2 11 4 13 2 9 -9 -3 -10 5 -21
24 -33 17 -9 28 -22 26 -29 -3 -6 11 -19 31 -28 32 -15 34 -19 25 -42 -6 -15
-10 -28 -10 -30 0 -9 46 -28 69 -29 42 -2 37 -26 -6 -26 -37 -1 -76 -20 -72
-37 1 -4 16 -17 33 -27 l31 -20 -35 -6 c-19 -3 -44 -11 -54 -17 -12 -7 -30 -7
-50 -2 -40 12 -49 11 -41 -1 4 -6 12 -7 18 -4 8 5 8 3 0 -7 -18 -18 -16 -30 2
-23 8 4 15 1 15 -6 0 -6 5 -8 10 -5 6 3 10 1 10 -6 0 -8 -11 -9 -36 -4 -33 6
-35 5 -29 -15 5 -15 1 -26 -12 -36 -17 -13 -17 -15 10 -37 15 -12 27 -28 27
-34 0 -16 26 -34 62 -43 18 -4 41 -11 51 -15 13 -5 17 -2 17 13 0 12 -5 24
-11 28 -18 11 11 24 30 13 9 -5 34 -16 56 -25 35 -14 38 -17 20 -24 -11 -5
-33 -9 -48 -9 -16 -1 -26 -5 -22 -11 3 -5 1 -10 -4 -10 -6 0 -11 -9 -11 -19 0
-17 -6 -20 -39 -18 -38 1 -71 -19 -71 -43 0 -6 -11 -16 -25 -22 -14 -6 -24
-17 -21 -24 3 -7 -2 -15 -10 -18 -22 -8 -17 -36 7 -36 18 0 19 -2 9 -15 -25
-30 -2 -26 26 5 16 16 34 30 41 30 6 0 18 9 26 20 18 26 70 38 61 15 -7 -16
21 -21 43 -7 16 10 -5 62 -25 62 -7 0 -11 4 -8 9 3 5 36 7 72 5 60 -3 65 -2
53 13 -12 14 -11 15 18 11 27 -4 33 -1 35 16 4 26 20 25 32 -1 6 -13 20 -20
40 -22 17 -1 49 -3 71 -4 22 -2 50 3 62 11 20 12 24 12 29 -2 8 -21 -4 -35
-15 -17 -7 11 -11 9 -20 -7 -12 -23 -2 -35 19 -22 9 5 19 5 27 -2 19 -15 16
-28 -7 -28 -11 0 -29 -5 -39 -12 -26 -16 -54 -3 -46 22 4 12 2 20 -6 20 -8 0
-10 -11 -6 -34 6 -37 -2 -49 -43 -61 -30 -9 -40 -22 -40 -53 0 -19 -4 -22 -20
-17 -14 4 -20 2 -20 -9 0 -14 -48 -47 -67 -46 -5 0 -8 -15 -8 -32 0 -34 -16
-52 -65 -76 -14 -6 -33 -18 -43 -24 -14 -11 -23 -10 -48 5 -34 19 -51 15 -42
-9 4 -11 8 -12 13 -4 5 7 10 1 14 -16 5 -20 3 -31 -8 -40 -22 -16 -20 -24 7
-24 12 0 28 -4 36 -9 12 -8 12 -13 -3 -36 -18 -27 -21 -29 -69 -40 -16 -3 -39
-16 -51 -28 -12 -12 -35 -29 -51 -37 -16 -8 -37 -19 -47 -25 -23 -13 -23 -37
1 -52 14 -9 27 -8 57 2 22 8 53 14 69 15 17 0 45 9 63 20 18 11 41 20 52 20
11 0 29 6 40 12 16 10 23 10 37 -5 14 -14 15 -17 3 -18 -8 -1 -19 0 -25 1 -5
1 -6 -2 -2 -7 14 -13 41 -9 55 10 7 9 18 17 23 17 6 0 3 -7 -5 -16 -18 -18
-21 -44 -5 -44 5 0 7 -5 4 -11 -4 -6 -9 -8 -12 -5 -7 7 -43 -27 -43 -42 0 -7
-7 -15 -15 -18 -15 -6 -30 -41 -27 -60 2 -12 -24 -23 -72 -30 l-28 -4 23 20
c20 16 21 21 10 29 -11 7 -7 13 17 25 26 13 62 60 62 80 0 8 -95 -5 -104 -15
-6 -5 -18 -9 -28 -9 -10 0 -18 -4 -18 -9 0 -5 -11 -12 -25 -15 -35 -9 -43 -34
-16 -52 11 -8 21 -22 21 -30 0 -8 7 -14 16 -14 12 0 14 -4 7 -12 -6 -7 -9 -21
-8 -30 2 -10 -2 -18 -8 -18 -7 -1 6 -10 28 -21 22 -12 45 -27 51 -35 7 -8 38
-25 70 -38 48 -18 58 -26 56 -43 -2 -17 5 -24 35 -34 21 -7 54 -24 73 -39 19
-15 58 -37 85 -49 28 -13 38 -20 22 -16 -16 3 -35 1 -42 -5 -10 -8 -19 -8 -34
-1 -23 13 -42 15 -23 3 7 -5 -17 -7 -53 -6 -106 3 -135 -13 -72 -40 l32 -14
-27 -1 c-31 -1 -39 -21 -8 -21 13 0 18 -5 14 -14 -3 -8 -12 -12 -20 -9 -22 8
-16 -13 8 -30 36 -23 72 -57 67 -61 -3 -3 -31 6 -63 19 -56 23 -83 25 -71 5 3
-5 -5 -7 -17 -4 -68 14 -183 23 -186 14 -2 -6 -16 -10 -31 -10 -36 0 -45 -10
-23 -26 16 -12 16 -13 -3 -14 -18 -1 -18 -2 3 -10 28 -12 28 -28 0 -39 -21 -8
-21 -10 -5 -16 10 -4 16 -14 13 -21 -7 -18 10 -27 59 -34 32 -4 40 -9 40 -25
0 -15 10 -22 38 -29 30 -8 37 -14 34 -28 -3 -10 -1 -16 3 -13 5 3 11 -3 15
-14 4 -12 12 -17 24 -14 11 3 21 -2 25 -12 9 -24 -2 -37 -26 -29 -19 6 -20 3
-15 -24 l6 -31 -52 15 c-75 22 -120 43 -138 67 -11 13 -18 16 -23 8 -4 -6 -2
-11 4 -11 6 0 8 -4 5 -10 -3 -5 2 -10 11 -10 10 0 15 -3 11 -6 -9 -9 19 -34
37 -34 8 0 18 -5 21 -11 4 -6 13 -8 21 -5 8 3 13 0 11 -6 -1 -6 22 -18 52 -27
59 -18 75 -35 42 -46 -12 -3 -21 -13 -21 -21 0 -11 4 -12 19 -4 33 17 53 13
46 -10 -3 -11 -2 -20 3 -20 6 0 8 -10 6 -23 -4 -20 -4 -21 5 -2 5 11 10 14 10
7 1 -7 6 -10 12 -6 6 3 15 0 20 -7 8 -12 10 -12 18 0 7 11 11 9 21 -9 11 -20
9 -26 -20 -53 -29 -27 -35 -29 -65 -20 -30 10 -33 9 -32 -8 1 -11 6 -20 12
-20 50 -6 77 -19 71 -36 -7 -16 17 -57 27 -47 3 4 14 3 24 0 16 -7 15 -9 -7
-26 -24 -19 -24 -20 -4 -20 19 0 54 -28 54 -43 0 -4 -7 -7 -15 -7 -10 0 -12 6
-8 18 6 15 5 15 -10 3 -23 -18 -21 -42 3 -48 10 -3 22 -14 25 -24 4 -11 11
-17 16 -13 7 4 6 10 0 18 -11 13 -4 56 9 56 4 0 10 9 13 21 5 17 2 20 -14 16
-12 -3 -19 0 -19 9 0 10 8 13 28 11 19 -3 26 -9 25 -23 -1 -10 4 -22 10 -26 8
-5 6 -8 -5 -8 -23 0 -23 -8 -1 -33 11 -12 12 -17 4 -12 -10 6 -12 4 -7 -4 5
-7 5 -28 2 -47 -7 -34 -7 -34 -61 -34 -37 0 -55 -4 -56 -12 0 -7 -5 -3 -11 10
-6 12 -17 22 -24 22 -7 0 -19 3 -27 6 -11 4 -13 -1 -10 -23 10 -65 13 -72 29
-66 12 4 14 0 8 -22 -5 -20 -4 -26 5 -21 6 4 11 22 11 40 0 33 17 41 48 22 7
-4 12 -2 12 6 0 9 3 9 10 -2 8 -12 10 -12 11 5 0 20 1 20 8 0 8 -19 8 -19 19
0 10 18 11 18 12 3 0 -10 5 -18 10 -18 6 0 10 5 10 11 0 5 3 8 8 5 4 -2 36 -7
72 -11 35 -3 68 -9 72 -11 4 -3 9 5 9 18 1 18 2 19 6 5 4 -15 7 -16 20 -5 12
10 18 9 29 -6 11 -15 16 -17 28 -7 11 9 15 9 19 -1 4 -9 6 -9 6 2 1 9 6 5 14
-10 8 -14 20 -24 30 -22 9 1 23 -8 32 -22 22 -33 14 -78 -16 -94 -23 -13 -23
-13 9 -9 18 2 35 0 38 -4 2 -4 5 -30 5 -58 1 -28 5 -51 8 -51 4 0 15 -13 24
-30 10 -16 23 -30 28 -30 5 0 0 10 -11 22 l-21 23 22 3 c13 2 28 -3 35 -13 9
-12 13 -13 18 -3 3 7 4 0 1 -15 -4 -18 -2 -26 4 -22 6 3 13 21 17 40 3 19 10
32 15 30 4 -3 5 -13 2 -23 -6 -15 -5 -15 10 -4 9 8 22 10 28 6 8 -4 9 -3 5 4
-4 7 -14 12 -22 12 -11 0 -13 11 -10 50 2 28 6 50 10 50 3 0 11 0 16 0 6 0 10
-12 10 -26 0 -18 4 -25 14 -21 11 5 11 -1 1 -36 -8 -28 -18 -41 -28 -39 -20 3
-16 -27 6 -43 9 -7 17 -17 17 -23 0 -6 4 -14 10 -17 5 -3 7 0 4 9 -10 25 6 39
22 19 11 -14 13 -15 14 -3 0 13 1 13 10 0 6 -9 5 -17 -3 -22 -7 -4 -8 -8 -3
-8 4 0 21 11 37 24 29 24 29 25 9 39 -11 7 -17 17 -13 20 3 4 -1 7 -10 7 -9 0
-17 5 -17 10 0 19 32 10 37 -10 5 -21 23 -28 23 -10 0 13 40 29 57 23 14 -5
24 -40 16 -59 -3 -9 -13 -12 -24 -9 -11 4 -19 2 -19 -3 0 -5 9 -12 20 -15 13
-3 21 1 25 14 4 11 11 17 16 13 6 -4 6 -11 -2 -20 -9 -11 -8 -14 5 -14 9 0 16
8 16 18 0 10 3 22 7 25 10 11 32 -40 29 -68 -3 -19 0 -23 9 -15 6 5 16 6 20 2
5 -4 5 2 1 13 -13 34 -17 82 -6 65 6 -10 10 -11 10 -2 0 6 4 12 10 12 5 0 7
-6 5 -13 -3 -6 5 -17 17 -22 12 -6 24 -17 26 -25 4 -11 1 -10 -12 3 -25 25
-30 21 -9 -7 17 -22 19 -23 34 -7 11 11 13 18 5 23 -8 5 -7 8 2 8 13 0 14 49
1 60 -3 3 -9 21 -13 40 -4 21 -3 31 3 25 12 -13 39 -106 35 -123 -1 -7 0 -8 3
-2 3 6 11 7 22 0 18 -9 31 -4 31 12 0 5 -5 6 -10 3 -15 -9 -12 8 5 31 14 18
14 17 15 -11 0 -17 6 -37 13 -44 10 -11 9 -13 -6 -8 -10 4 -16 3 -13 -2 3 -5
15 -11 26 -14 20 -5 20 -4 6 18 -14 21 -14 26 0 54 16 32 31 43 20 15 -4 -9
-1 -24 6 -32 11 -13 10 -15 -4 -9 -12 4 -18 2 -18 -7 0 -16 38 -51 46 -43 4 4
-1 9 -10 13 -24 9 -20 21 9 26 18 4 25 1 25 -10 0 -12 2 -12 17 -1 11 10 14
10 9 2 -4 -7 -2 -13 3 -13 6 0 11 8 12 18 0 14 2 14 9 -3 6 -14 9 -16 10 -5 2
8 2 19 1 23 -1 5 3 6 9 2 6 -3 8 -10 6 -14 -3 -4 0 -13 5 -21 8 -12 12 -12 16
-2 2 6 9 12 14 12 6 0 7 -4 4 -10 -3 -5 -2 -10 4 -10 5 0 12 13 16 29 4 20 11
28 21 24 8 -3 14 0 14 6 0 18 -38 12 -44 -7 -6 -18 -36 -27 -36 -10 0 4 6 8
14 8 9 0 17 15 21 40 8 47 21 50 54 13 15 -18 25 -24 28 -15 8 20 26 13 20 -8
-6 -24 8 -27 17 -4 4 10 12 14 22 10 12 -5 15 -2 10 9 -6 17 20 65 36 65 5 0
7 -13 3 -30 -4 -19 -3 -30 4 -30 6 0 11 -7 11 -16 0 -14 3 -14 15 -4 8 7 15
22 15 34 0 23 20 61 20 38 0 -7 5 -10 11 -6 8 5 10 -1 7 -21 -5 -25 -4 -27 24
-21 20 4 27 2 22 -6 -4 -6 -3 -8 4 -5 5 4 8 17 4 29 -4 18 -2 20 13 14 11 -4
22 -2 27 6 13 21 9 31 -6 19 -12 -10 -15 -7 -14 17 1 26 4 29 18 20 9 -6 24
-27 33 -47 l16 -36 0 43 c1 30 5 42 16 42 8 0 15 8 15 18 1 13 4 11 15 -8 14
-24 14 -23 9 23 -3 27 -1 47 5 47 5 0 17 3 25 6 14 5 16 0 11 -37 -3 -26 -2
-37 3 -26 4 10 12 18 16 17 5 -1 12 3 16 10 8 13 72 -20 66 -35 -2 -5 1 -18 5
-27 7 -13 5 -16 -10 -15 -11 0 -17 5 -15 9 3 4 -3 8 -13 8 -15 0 -16 2 -3 10
10 7 12 12 4 17 -6 5 -14 15 -17 23 -3 8 -6 -1 -8 -20 -1 -26 -3 -29 -6 -12
-4 22 -5 23 -18 5 -8 -10 -14 -31 -15 -48 0 -23 3 -26 10 -15 7 12 10 8 10
-15 0 -18 8 -38 20 -48 17 -14 20 -14 20 -2 0 8 4 15 9 15 5 0 12 10 14 22 2
13 3 -1 2 -29 -2 -38 1 -53 10 -53 15 0 28 27 19 41 -3 5 0 9 5 9 6 0 11 -7
11 -15 0 -8 4 -15 9 -15 14 0 32 26 28 41 -2 8 -2 11 0 7 6 -10 33 -11 33 -2
0 4 -7 12 -15 18 -12 10 -12 14 2 31 14 18 15 18 9 1 -5 -14 -2 -17 10 -12 13
5 15 1 12 -19 -5 -22 -3 -23 10 -13 12 11 16 11 19 0 3 -6 9 -10 14 -6 5 3 9
0 9 -6 0 -6 5 -8 11 -4 8 4 7 9 -2 15 -12 7 -11 11 4 26 16 16 17 16 17 -5 0
-12 5 -22 10 -22 14 0 13 12 -4 35 -7 11 -12 30 -11 42 1 12 -2 20 -7 17 -4
-3 -8 -17 -9 -32 0 -24 -1 -25 -9 -7 -5 11 -9 16 -9 12 -1 -5 -8 -1 -17 7 -8
9 -12 21 -9 27 5 6 12 4 20 -7 12 -17 13 -16 19 3 4 12 14 27 23 35 15 11 16
11 10 -4 -5 -13 -1 -18 13 -18 19 0 25 -11 20 -35 -1 -5 4 -5 11 2 9 9 18 9
33 2 20 -10 20 -10 2 5 -10 9 -23 13 -27 10 -12 -7 -11 7 1 26 8 13 10 12 10
-2 0 -19 25 -25 35 -8 4 6 15 4 30 -6 15 -10 25 -12 30 -4 9 14 35 -13 36 -37
0 -10 3 -13 6 -5 2 6 9 10 14 6 14 -8 11 13 -4 28 -12 11 -6 13 37 12 28 0 65
-4 83 -8 25 -6 34 -3 42 11 9 16 10 16 11 -4 0 -16 6 -23 19 -23 11 0 22 4 26
10 3 5 21 8 40 6 19 -1 35 2 35 8 0 6 5 5 11 -1 9 -9 23 -5 55 17 23 17 49 36
57 45 24 23 95 57 107 50 5 -3 24 3 40 15 25 18 30 19 30 6 0 -9 -8 -16 -18
-16 -16 0 -56 -36 -93 -84 -7 -11 -14 -38 -14 -62 0 -38 1 -41 18 -32 10 5 21
16 24 24 3 9 13 12 23 9 10 -3 21 -1 25 5 5 8 14 5 26 -9 25 -26 34 -26 53 0
15 22 36 18 36 -7 0 -20 15 -17 31 7 13 19 17 20 49 7 31 -13 36 -12 52 4 10
10 23 16 27 14 5 -3 11 12 15 33 4 26 14 44 31 55 18 12 25 13 25 4 0 -9 3 -8
10 2 5 8 10 11 10 5 0 -5 5 -3 10 5 6 10 10 11 10 3 0 -7 5 -12 12 -10 6 1 15
-16 20 -37 8 -35 6 -42 -19 -68 -20 -21 -29 -25 -36 -16 -5 8 -6 -1 -2 -22 5
-26 4 -31 -4 -20 -9 13 -11 12 -12 -5 -1 -11 -1 -23 0 -27 0 -5 -3 -8 -7 -8
-5 0 -9 -16 -9 -36 0 -20 -6 -40 -14 -44 -11 -7 -10 -10 4 -16 9 -3 14 -10 11
-15 -3 -5 6 -21 20 -36 29 -31 30 -31 15 17 -17 56 -19 71 -8 65 5 -4 9 -16
10 -28 1 -18 3 -17 11 8 5 17 20 38 33 47 21 16 25 16 38 3 18 -17 27 -10 28
24 0 23 1 24 8 6 5 -11 6 -24 3 -29 -3 -5 0 -6 7 -1 7 4 11 15 8 26 -4 15 -2
16 13 7 28 -18 52 12 48 59 -3 35 -4 36 -21 19 -11 -12 -15 -26 -11 -44 7 -36
-11 -8 -20 30 -5 21 -1 33 15 49 20 20 23 20 31 5 5 -9 14 -16 20 -16 6 0 8 3
5 7 -11 10 30 34 47 27 9 -3 23 -1 30 6 11 8 20 8 34 1 13 -7 22 -7 29 0 8 8
13 5 18 -10 6 -19 8 -19 21 -6 20 19 58 19 78 0 10 -10 17 -12 21 -5 5 8 11 7
21 0 7 -7 19 -10 26 -7 7 3 4 6 -7 7 -20 1 -20 1 -1 15 10 8 23 12 27 9 5 -3
9 0 9 5 0 19 17 12 23 -9 4 -15 0 -20 -16 -20 -26 0 -20 -5 16 -14 18 -4 26
-3 23 3 -11 17 9 20 37 6 14 -7 28 -11 31 -8 3 3 13 2 23 -2 10 -5 22 -7 26
-6 4 1 17 -5 28 -13 17 -11 27 -12 64 -1 43 14 44 13 54 -13 7 -22 10 -23 10
-7 1 17 3 18 11 5 8 -12 12 -13 19 -2 7 11 9 11 14 -1 8 -21 57 -10 57 13 0
12 10 19 33 23 55 9 118 2 127 -13 7 -10 10 -11 10 -2 0 6 5 12 10 12 6 0 10
-6 10 -14 0 -8 5 -18 12 -22 6 -4 8 -3 4 4 -3 6 -2 13 4 17 5 3 10 0 10 -8 0
-7 7 -14 15 -14 11 0 14 7 10 21 -6 20 -6 20 9 2 9 -10 13 -23 9 -28 -3 -6 5
-4 18 3 13 7 29 12 35 11 7 -1 15 8 18 20 l7 23 9 -23 c11 -27 32 -25 36 2 4
28 14 33 29 13 7 -9 19 -15 27 -12 10 4 17 -1 21 -14 7 -27 37 -28 37 -2 0 11
5 23 10 26 6 3 10 -3 10 -14 0 -12 7 -21 15 -21 8 0 15 7 15 15 0 21 10 19 38
-7 l23 -23 18 24 19 24 11 -21 c13 -25 41 -30 41 -8 0 21 21 31 31 15 11 -18
22 -5 22 27 0 24 1 26 12 11 6 -9 15 -14 19 -10 4 4 11 1 16 -7 8 -13 10 -12
10 2 0 9 8 21 17 27 13 7 17 22 16 62 -1 30 1 45 4 34 3 -11 8 -22 12 -25 4
-3 15 -35 25 -73 17 -61 36 -89 36 -52 0 8 5 15 11 15 6 0 9 -9 6 -20 -3 -10
-1 -20 5 -22 6 -2 6 -13 0 -28 -5 -15 -4 -37 2 -56 9 -25 15 -30 31 -24 11 4
23 6 28 3 16 -9 47 9 47 29 0 15 5 19 20 15 11 -3 23 -1 26 5 3 5 18 -14 33
-44 18 -35 24 -57 18 -65 -16 -22 1 -14 28 13 15 15 34 24 47 22 25 -4 37 -28
14 -28 -9 0 -19 -7 -22 -15 -4 -8 -11 -15 -18 -15 -6 0 -22 -7 -35 -16 -17
-12 -20 -19 -10 -25 10 -6 10 -11 0 -22 -8 -11 -9 -17 -1 -22 6 -4 16 8 24 26
9 21 15 27 19 18 4 -11 6 -10 6 2 1 20 39 55 49 44 4 -4 1 -10 -5 -12 -7 -3
-13 -14 -13 -26 0 -16 3 -18 9 -9 7 11 9 10 15 -3 3 -9 10 -13 16 -10 6 4 7
11 4 17 -5 7 -2 8 6 3 9 -5 10 -2 5 14 -4 12 -2 21 4 21 6 0 11 -4 11 -10 0
-5 5 -10 10 -10 13 0 13 53 0 66 -5 5 -6 15 0 24 8 13 9 13 14 0 2 -8 7 -24
11 -35 l7 -20 8 20 c4 11 3 23 -3 27 -7 4 -7 11 1 21 20 23 -48 20 -69 -4 -19
-22 -32 -24 -48 -6 -8 10 -7 17 2 27 10 10 8 12 -10 7 -18 -4 -23 -1 -23 14 0
10 -4 19 -10 19 -5 0 -10 9 -10 19 0 17 3 18 37 8 28 -9 37 -9 41 1 4 14 32
16 32 2 0 -5 7 -10 15 -10 9 0 15 -7 13 -17 -2 -12 5 -18 25 -19 15 -2 27 2
27 9 0 7 6 5 16 -5 13 -13 14 -20 4 -38 -6 -12 -9 -28 -6 -36 3 -8 -1 -14 -8
-14 -19 0 -29 -30 -15 -46 6 -7 7 -19 3 -25 -5 -8 -3 -9 5 -5 7 5 16 18 21 30
7 17 9 18 9 3 1 -10 6 -15 12 -11 6 3 8 17 4 33 -14 53 -16 79 -5 86 5 3 10 1
10 -4 0 -19 20 -12 21 7 0 10 3 12 6 4 2 -6 9 -10 14 -6 5 3 9 -4 9 -15 0 -11
5 -23 11 -27 8 -4 9 0 4 15 -4 13 -2 21 5 21 8 0 11 -11 8 -29 -3 -20 -1 -27
8 -24 7 3 15 12 17 21 4 15 5 15 6 1 0 -9 -6 -22 -14 -29 -19 -16 -20 -31 -1
-24 7 3 16 -2 19 -11 5 -11 14 -14 32 -9 17 4 25 2 25 -7 0 -12 2 -12 9 -1 7
11 11 11 24 -2 22 -22 32 -20 33 7 1 12 5 33 10 47 7 23 6 24 -9 11 -15 -12
-17 -12 -11 3 6 15 18 20 39 16 6 -1 4 4 -2 11 -7 7 -13 22 -13 33 0 19 1 19
17 3 10 -9 18 -27 18 -40 0 -28 41 -38 47 -11 2 11 13 18 30 18 14 1 25 -1 23
-4 -2 -3 0 -12 6 -20 7 -13 9 -13 9 1 0 9 7 16 15 16 16 0 21 -22 6 -31 -11
-7 -2 -46 10 -46 6 0 14 -10 19 -22 8 -21 9 -22 9 -3 1 11 10 28 21 38 19 16
20 16 20 -6 1 -20 2 -20 11 -4 5 9 15 17 20 17 6 0 7 -4 4 -10 -3 -5 4 -10 16
-10 17 0 19 3 10 14 -10 12 -9 13 8 9 27 -7 34 -31 10 -38 -10 -4 -19 -10 -19
-15 0 -14 19 -22 33 -13 6 4 28 8 47 8 31 0 35 2 31 25 -3 23 -28 61 -68 102
-15 16 -15 18 1 24 20 8 21 24 1 24 -8 0 -15 -5 -15 -11 0 -8 -4 -8 -14 0 -8
7 -12 20 -9 30 6 24 53 26 54 2 0 -12 2 -11 9 4 6 13 9 15 9 5 1 -13 3 -13 10
-1 9 14 88 23 96 11 7 -11 97 -3 105 10 11 17 50 -5 50 -29 0 -23 20 -32 51
-24 20 5 21 3 15 -20 -7 -29 11 -47 26 -26 8 11 9 10 4 -4 -5 -16 17 -58 51
-94 18 -20 23 -16 23 15 0 21 -7 32 -27 42 -23 11 -25 14 -10 17 9 3 17 10 17
17 0 6 5 17 11 23 9 9 21 4 50 -19 41 -33 59 -31 59 7 0 19 4 23 18 18 11 -4
10 0 -5 11 -23 17 -32 56 -13 56 6 0 10 -5 10 -11 0 -6 7 -9 15 -5 16 6 19 -6
15 -58 -2 -28 -1 -29 17 -11 18 18 18 18 21 -7 5 -45 42 -41 73 7 41 65 41 65
26 59 -8 -3 -20 2 -26 10 -11 13 -9 17 14 26 15 6 34 20 44 31 20 25 46 17
111 -34 24 -20 48 -33 53 -30 5 3 3 9 -4 14 -11 7 -9 9 5 9 11 0 16 3 13 7 -4
3 -2 12 5 20 8 11 7 12 -5 8 -8 -4 -17 -3 -20 2 -3 4 11 9 31 11 20 1 40 9 45
17 6 12 17 14 42 9 41 -7 56 13 46 62 0 4 -7 1 -15 -5 -12 -10 -13 -9 -9 7 2
11 0 29 -6 40 -8 15 -8 23 0 28 6 3 14 2 18 -4 3 -5 33 -15 65 -22 54 -11 61
-11 73 6 16 22 17 56 1 72 -9 9 -7 12 9 12 26 0 40 35 22 56 -8 9 -23 14 -36
11 -18 -3 -23 -1 -19 9 3 8 1 14 -4 14 -6 0 -10 4 -10 9 0 6 9 8 20 6 11 -2
20 0 20 6 0 5 5 9 11 9 6 0 9 -9 6 -20 -3 -11 -2 -18 2 -16 4 3 25 1 47 -4 44
-10 59 -2 49 29 -4 13 -15 21 -30 21 -13 0 -29 10 -39 25 -9 14 -23 25 -31 25
-8 0 -15 4 -15 9 0 5 -16 15 -35 22 -23 9 -38 22 -42 37 -3 13 -11 21 -18 19
-6 -3 -12 1 -12 9 0 16 24 27 32 14 8 -13 45 -13 45 0 0 5 -15 13 -32 18 -23
6 -34 15 -36 31 -3 22 -4 22 -19 4 -12 -15 -14 -15 -9 -1 2 9 -2 19 -10 22 -8
3 -12 2 -9 -4 3 -5 -3 -8 -14 -7 -16 1 -18 4 -8 16 9 12 9 13 0 8 -18 -11 -68
23 -51 34 9 6 8 9 -7 10 -17 0 -16 2 6 12 14 7 24 18 22 25 -5 13 19 17 31 5
3 -4 15 -8 26 -10 34 -5 22 25 -15 38 -19 7 -35 16 -35 20 0 3 -14 5 -31 3
-20 -3 -37 3 -51 16 l-21 19 24 21 c13 12 18 18 11 15 -9 -5 -12 -1 -10 10 2
10 -3 20 -10 22 -7 3 -12 1 -11 -4 5 -27 -2 -34 -18 -17 -12 12 -14 19 -6 21
7 3 9 11 6 19 -3 8 -1 14 5 14 6 0 13 -6 15 -12 3 -8 6 -6 6 5 1 10 -10 22
-26 28 -46 18 -57 25 -61 37 -2 7 3 12 12 12 22 0 20 36 -2 58 -13 13 -16 26
-11 54 3 21 1 42 -4 47 -6 6 -4 21 6 41 16 30 14 60 -4 60 -5 0 -9 7 -9 15 0
9 -7 29 -15 45 -9 17 -11 30 -5 30 5 0 10 -4 10 -10 0 -5 14 -17 32 -26 18 -9
54 -38 80 -65 60 -60 79 -71 95 -54 10 11 10 17 -2 29 -20 20 -19 53 2 64 16
9 16 11 0 36 -9 14 -17 32 -17 41 0 8 -5 15 -11 15 -6 0 -9 -6 -6 -13 3 -8 0
-14 -6 -14 -7 0 -20 -4 -29 -8 -21 -9 -25 14 -5 34 10 11 8 13 -9 9 -12 -3
-28 -2 -35 3 -9 5 -5 11 17 21 16 7 37 22 46 33 18 21 24 55 10 55 -5 0 -9 14
-9 30 0 36 -9 48 -25 32 -8 -8 -16 -6 -29 10 -37 42 -1 43 77 2 l43 -23 16 22
c15 21 14 22 -16 30 -47 12 -76 35 -82 63 -5 29 12 44 25 20 5 -9 15 -16 23
-16 8 0 35 -14 61 -32 41 -27 48 -29 56 -15 8 15 70 38 111 41 9 0 17 4 17 9
0 4 0 10 0 15 0 12 -96 52 -125 52 -17 0 -34 9 -46 24 -10 13 -31 27 -46 31
-15 3 -33 14 -40 23 -7 10 -12 12 -13 5 0 -19 -30 -3 -30 16 0 12 -2 13 -9 3
-6 -11 -10 -10 -15 4 -9 23 -2 28 23 14 12 -6 21 -8 21 -4 0 3 7 1 15 -6 9 -7
18 -10 22 -6 3 3 0 6 -7 6 -7 0 -11 3 -8 6 4 3 19 -2 34 -12 21 -14 26 -15 22
-4 -2 8 -15 20 -27 26 -12 6 -22 14 -22 18 3 22 -1 27 -14 22 -21 -8 -19 11 4
31 11 9 17 22 14 29 -7 19 6 17 47 -4 19 -10 58 -24 85 -31 28 -7 56 -15 63
-17 6 -2 12 0 12 4 0 13 -54 40 -95 47 -54 10 -66 22 -58 54 6 23 5 25 -10 12
-15 -12 -17 -11 -17 7 0 15 -5 20 -15 16 -8 -4 -15 -2 -15 4 0 5 -9 12 -20 15
-11 3 -20 13 -20 22 0 10 5 13 12 9 8 -5 9 -2 5 10 -6 16 -5 16 15 1 58 -40
80 17 28 74 -16 17 -24 31 -17 31 8 0 7 3 -2 9 -11 7 -9 13 8 30 23 23 27 41
10 41 -5 0 -9 12 -8 28 1 15 1 36 0 47 -2 17 -3 17 -9 4 -6 -14 -9 -14 -19 -4
-17 18 6 47 38 49 14 0 24 7 24 16 0 11 11 15 36 14 27 -1 35 3 36 18 1 10 -2
18 -7 18 -5 0 -16 3 -24 6 -12 5 -15 2 -10 -10 3 -9 1 -16 -5 -16 -6 0 -11 6
-11 13 0 8 -4 7 -10 -3 -8 -12 -9 -10 -8 10 2 21 7 25 32 25 17 0 34 -4 38
-10 7 -9 13 16 9 38 0 4 4 7 9 7 6 0 8 15 4 39 -4 24 -2 41 5 45 16 10 14 26
-4 26 -8 0 -15 5 -15 10 0 6 -7 10 -15 10 -17 0 -19 13 -6 58 7 24 6 35 -4 46
-8 7 -11 17 -7 20 3 4 -1 4 -11 0 -10 -3 -17 -1 -17 5 0 6 -3 10 -7 9 -16 -4
-71 32 -76 51 -4 15 2 20 27 26 27 6 29 8 11 14 l-20 8 20 5 c17 3 15 7 -15
23 -19 11 -38 18 -42 17 -5 -1 -8 3 -8 9 0 7 10 9 24 5 14 -3 28 -2 31 4 4 6
32 8 74 4 46 -5 70 -3 75 5 4 6 18 8 32 5 56 -14 18 11 -139 93 -25 12 -45 31
-48 45 -5 16 -7 17 -8 6 -1 -10 -5 -18 -10 -18 -5 0 -6 15 -1 33 7 32 6 33
-22 31 -16 -1 -35 5 -43 13 -8 8 -19 11 -25 8 -5 -3 -10 0 -10 8 0 8 -9 17
-21 20 -27 7 -19 33 9 29 11 -2 23 2 27 7 4 7 -1 9 -12 5 -17 -5 -17 -5 0 6
10 6 25 9 33 6 8 -3 14 -1 14 4 0 6 -4 10 -10 10 -5 0 -10 8 -10 19 0 20 37
36 43 18 2 -6 14 -3 30 8 22 14 25 20 16 31 -9 11 -8 14 5 15 9 1 21 3 26 4 6
1 13 3 18 4 4 1 -6 12 -23 26 -25 20 -27 24 -11 25 16 0 17 2 5 16 -11 14 -9
20 18 44 33 29 52 70 34 70 -6 0 -11 -5 -11 -10 0 -11 -40 8 -51 24 -4 5 -13
7 -21 4 -7 -3 -24 2 -36 12 -20 16 -21 22 -10 47 19 45 16 72 -9 89 -13 8 -21
20 -17 26 5 8 1 9 -11 5 -9 -4 -24 -2 -31 4 -16 13 -19 33 -4 24 6 -3 10 -1
10 4 0 6 6 11 14 11 8 0 17 7 20 15 3 9 18 20 34 26 28 9 62 49 42 49 -6 0 -4
12 5 30 18 35 70 49 115 30 41 -17 53 -4 24 25 -14 14 -29 25 -34 25 -5 0 -12
5 -16 12 -5 8 -2 9 10 5 13 -5 20 0 27 21 6 18 23 33 49 44 22 9 40 23 40 32
0 12 7 14 29 10 16 -4 32 -1 35 5 4 6 20 11 37 11 39 0 37 13 -6 33 -19 9 -35
20 -35 24 0 5 -12 9 -26 10 -15 0 -29 5 -33 10 -3 5 -32 20 -64 34 -43 18 -56
28 -53 41 5 22 -7 31 -71 53 -29 11 -53 25 -53 32 0 6 -16 20 -35 29 -34 16
-48 44 -22 44 8 0 7 3 -3 10 -12 8 -12 10 4 16 11 4 21 2 27 -7 7 -11 9 -11 9
4 0 16 10 21 38 18 6 -1 12 3 12 9 0 5 12 10 26 10 21 0 24 3 18 22 -5 17 2
30 38 62 25 23 53 53 63 69 9 15 23 27 30 27 7 0 16 7 19 16 10 25 7 27 -11 8
-14 -13 -18 -14 -22 -3 -10 34 -61 45 -113 24 -21 -8 -49 -15 -62 -15 -13 0
-29 -7 -36 -15 -7 -8 -20 -15 -29 -15 -14 1 -14 2 0 13 8 7 19 21 23 32 5 14
9 16 15 7 11 -19 41 -4 34 16 -4 9 -11 20 -17 24 -15 10 24 37 44 30 13 -5 13
-3 2 10 -11 14 -11 21 0 40 7 13 18 26 23 30 6 4 -1 8 -15 9 -23 0 -23 1 -5 9
15 6 11 8 -20 8 -22 -1 -43 -6 -47 -12 -4 -6 -6 3 -5 21 1 17 5 29 8 27 4 -2
13 4 20 13 12 14 11 15 -9 9 -19 -6 -22 -4 -22 18 0 20 5 26 23 26 20 -1 20
-2 5 -11 -25 -14 -22 -24 6 -25 14 -1 27 4 30 12 3 8 12 14 21 14 13 0 14 4 5
20 -14 27 -30 25 -31 -2 0 -22 -1 -22 -8 -3 -12 29 28 52 47 27 13 -16 13 -16
10 0 -2 9 5 23 16 31 25 18 14 77 -15 77 -21 0 -27 -20 -6 -20 6 -1 1 -7 -13
-16 l-25 -15 25 7 c22 6 23 5 8 -10 -19 -18 -38 -21 -38 -5 0 5 -4 8 -10 4 -5
-3 -7 -12 -3 -20 3 -8 0 -15 -6 -15 -6 0 -11 7 -11 15 0 8 -7 15 -15 15 -8 0
-15 -4 -15 -10 0 -5 5 -10 11 -10 5 0 8 -4 5 -9 -9 -14 -54 -10 -60 5 -3 7 -1
16 4 19 20 12 9 25 -20 25 -16 0 -30 4 -30 9 0 8 -58 5 -87 -4 -7 -2 -10 4 -8
16 4 22 -13 26 -21 5 -6 -15 -54 -17 -55 -3 -1 10 97 122 174 200 31 32 57 60
57 62 0 3 -9 5 -20 5 -11 0 -20 -4 -20 -10 0 -5 -13 -10 -28 -10 -28 0 -138
-69 -155 -97 -4 -7 -15 -13 -22 -13 -8 0 -15 -7 -15 -15 0 -9 -9 -15 -25 -15
-14 0 -25 5 -25 10 0 6 -4 10 -10 10 -5 0 -10 -7 -10 -15 0 -9 -7 -18 -16 -22
-9 -3 -26 -15 -39 -27 -53 -48 -81 -64 -95 -56 -9 5 -17 5 -21 -1 -4 -6 -16
-6 -34 1 -18 7 -32 7 -38 1 -5 -5 -16 -7 -25 -4 -10 4 -13 2 -8 -5 4 -7 2 -12
-3 -12 -6 0 -11 8 -11 18 0 14 -2 15 -10 2 -8 -12 -10 -12 -10 -1 0 10 -3 11
-13 2 -19 -15 -45 32 -29 51 8 10 4 13 -17 12 -38 -1 -51 -11 -51 -39 0 -13
-4 -26 -10 -30 -5 -3 -6 -13 -3 -23 4 -13 1 -12 -16 5 -11 12 -21 26 -21 30 0
4 -39 8 -88 8 -48 0 -105 3 -127 7 -79 16 -95 17 -95 8 0 -5 -8 -6 -17 -3 -9
4 -12 8 -6 10 7 3 3 19 -10 46 -19 41 -20 41 -29 18 -5 -14 -7 -30 -4 -37 3
-7 -2 -10 -15 -7 -14 4 -19 0 -19 -13 -1 -19 -1 -19 -11 0 -9 14 -13 15 -19 5
-7 -10 -12 -10 -23 -1 -12 10 -16 9 -21 -4 -5 -13 -9 -15 -18 -6 -17 17 -48
15 -55 -5 -6 -15 -7 -15 -14 3 -7 18 -8 18 -8 0 -1 -15 -4 -16 -16 -6 -8 7
-15 10 -15 7 0 -3 -13 -2 -30 3 -18 5 -30 5 -30 0 0 -6 -10 -6 -24 0 -13 5
-26 6 -29 3 -10 -9 -66 -9 -60 0 4 6 -4 7 -20 3 -16 -4 -27 -2 -30 7 -3 9 -9
9 -25 0 -11 -6 -29 -9 -41 -6 -11 3 -21 1 -21 -3 0 -14 -134 -14 -142 0 -6 8
-11 7 -18 -4 -9 -13 -10 -13 -10 0 0 13 -1 13 -11 0 -8 -11 -12 -12 -16 -2 -2
6 -14 12 -24 12 -11 0 -18 -4 -15 -9 7 -11 -13 -9 -32 2 -7 5 -14 2 -18 -7 -3
-9 -11 -13 -18 -9 -19 13 -55 14 -76 3 -16 -9 -20 -8 -21 7 0 10 -3 13 -5 7
-3 -7 -19 -8 -42 -5 -20 4 -57 4 -82 0 -25 -4 -57 -5 -72 -3 -16 2 -28 -1 -28
-6 0 -4 -9 -6 -19 -3 -19 5 -38 -26 -33 -55 2 -8 -9 -5 -33 8 -44 25 -45 25
-40 0 2 -13 -2 -20 -11 -20 -8 0 -14 4 -14 9 0 5 -17 8 -39 7 -29 0 -37 -4
-33 -14 4 -12 1 -12 -16 -3 -12 7 -22 9 -22 6 0 -3 -8 -2 -17 4 -10 5 -26 5
-40 0 -15 -6 -23 -5 -23 2 0 8 -4 8 -12 1 -17 -13 -88 -24 -88 -13 0 4 -13 7
-30 5 -16 -2 -30 0 -30 4 0 4 -9 8 -20 8 -13 0 -19 -5 -16 -13 6 -15 -15 -13
-26 2 -4 6 -13 2 -21 -9 -9 -12 -16 -15 -21 -8 -3 6 -26 9 -51 7 -25 -2 -45
-1 -45 3 0 4 -42 7 -92 6 -51 -1 -103 3 -115 7 -14 5 -23 5 -23 -1 0 -6 -5
-10 -10 -10 -6 0 -8 11 -4 27 6 22 4 25 -10 20 -10 -4 -21 1 -28 13 -19 30
-28 24 -30 -17 -1 -36 -1 -36 -5 -7 -2 18 -13 40 -24 50 -20 18 -27 6 -7 -14
9 -9 9 -12 0 -12 -7 0 -12 -7 -12 -15 0 -8 -4 -15 -10 -15 -5 0 -7 12 -4 28 5
27 5 27 -53 29 -32 2 -59 7 -61 13 -3 7 -10 7 -22 0 -22 -12 -42 -10 -52 5 -5
6 -8 5 -8 -4 0 -8 -6 -11 -16 -7 -9 4 -24 1 -32 -6 -13 -11 -15 -10 -9 5 5 15
4 16 -12 7 -14 -7 -21 -6 -24 3 -3 6 -6 3 -7 -8 0 -17 -2 -18 -13 -5 -13 16
-86 25 -124 15 -19 -4 -23 -13 -24 -48 -1 -23 -3 -33 -6 -22 -2 11 -6 30 -9
43 -2 13 -9 20 -14 17 -6 -3 -10 0 -10 8 0 11 -15 16 -52 19 -29 2 -58 1 -63
-3 -6 -4 -17 -4 -24 1 -8 4 -21 6 -29 3 -8 -3 -18 0 -23 8 -7 12 -9 12 -9 0 0
-9 -7 -11 -27 -6 -42 11 -66 12 -90 3 -13 -4 -25 -3 -29 3 -3 5 -11 8 -17 6
-7 -2 -18 3 -25 12 -12 14 -13 14 -8 -1 4 -13 0 -18 -14 -18 -11 0 -20 6 -20
13 0 9 -2 9 -8 0 -5 -8 -19 -9 -55 0 -38 8 -50 8 -56 -2 -5 -8 -22 -10 -54 -6
-39 6 -47 4 -47 -9 0 -20 -14 -20 -30 0 -19 22 -62 14 -77 -16 -10 -20 -13
-21 -18 -8 -8 19 -86 41 -118 33 -13 -4 -36 -1 -52 5 -35 13 -62 -4 -32 -21
21 -12 23 -62 3 -78 -11 -9 -20 -6 -42 17 -16 16 -35 41 -43 55 -8 15 -18 28
-23 28 -19 3 -24 5 -35 12 -7 5 -20 0 -31 -11 -17 -17 -20 -17 -30 -3 -7 11
-14 13 -19 5 -15 -20 -41 -23 -59 -6 -14 13 -38 17 -91 18 -40 0 -73 -2 -73
-3 0 -2 11 -25 25 -51 29 -53 31 -70 11 -78 -8 -3 -17 -17 -21 -32 -4 -15 -10
-21 -12 -14 -3 6 -9 10 -14 7 -5 -4 -6 1 -3 9 6 15 -6 21 -29 17 -11 -2 -32
20 -40 42 -4 10 -11 15 -17 12 -5 -3 -10 1 -10 9 0 9 -4 16 -10 16 -5 0 -10
-6 -10 -12 0 -9 -3 -9 -9 1 -8 12 -12 12 -25 2 -21 -18 -20 -28 4 -34 26 -7
26 -24 0 -32 -27 -9 -39 1 -33 25 3 11 1 20 -5 20 -13 0 -36 56 -27 69 3 6 0
11 -7 11 -8 0 -20 16 -27 36 -7 19 -18 37 -25 40 -7 3 -11 15 -9 27 5 29 -6
44 -37 52 -19 4 -28 1 -38 -15 -18 -29 -7 -59 18 -53 28 7 39 -26 15 -43 -26
-19 -33 -18 -38 9 -3 16 -5 14 -6 -9 0 -19 -8 -34 -17 -38 -12 -5 -15 -17 -12
-54 3 -42 1 -47 -17 -44 -109 18 -100 12 -103 66 -2 27 -10 55 -18 63 -8 8
-14 10 -14 4 0 -6 -7 -8 -15 -4 -14 5 -14 7 0 22 10 12 15 37 14 82 0 35 3 91
8 124 6 45 5 67 -6 90 -18 36 -27 16 -12 -27 13 -37 14 -88 3 -88 -5 0 -20 16
-34 36 -15 20 -29 31 -32 25 -4 -5 -14 -7 -22 -4 -13 5 -15 -1 -9 -39 4 -29 3
-48 -4 -52 -6 -4 -11 0 -11 9 0 11 -5 15 -14 12 -16 -7 -30 25 -35 81 -1 6 -4
11 -8 10 -5 0 -15 2 -24 6 -10 4 -31 -2 -54 -15 -37 -22 -38 -22 -52 -3 -13
18 -15 18 -24 1 -6 -11 -17 -16 -28 -12 -12 4 -17 -1 -18 -17 -1 -13 -10 -28
-20 -35 -57 -38 -92 -70 -95 -87 -8 -47 -46 -12 -51 45 -1 15 -27 23 -27 8 0
-13 -94 -4 -96 9 -1 7 0 8 3 2 8 -17 21 -11 27 15 4 14 11 25 17 25 8 0 7 -5
-1 -15 -10 -12 -10 -15 4 -15 23 0 20 29 -6 51 -23 20 -33 24 -24 10 3 -4 -6
-7 -21 -5 -31 3 -43 19 -43 57 0 15 -4 27 -8 27 -5 0 -19 34 -31 75 -21 72
-30 90 -32 63z m3064 -628 c-23 -9 -23 -28 1 -59 9 -11 7 -13 -9 -8 -24 8 -53
-7 -36 -17 16 -11 13 -29 -4 -22 -8 3 -14 2 -14 -2 4 -26 -2 -32 -21 -22 -15
8 -20 8 -20 -3 0 -8 -6 -14 -13 -14 -8 0 -14 6 -14 13 0 7 4 11 9 8 4 -3 8 4
8 15 0 11 5 23 10 26 6 3 10 -3 10 -14 0 -25 15 -28 24 -5 5 14 -8 54 -19 54
-17 0 -35 -16 -35 -32 0 -10 -4 -16 -10 -13 -5 3 -10 0 -10 -7 0 -10 -3 -9
-10 2 -5 8 -12 12 -15 8 -10 -9 -13 -78 -4 -72 5 3 7 9 5 13 -3 4 -1 13 5 21
6 11 9 4 9 -22 0 -20 5 -40 11 -43 6 -4 8 -13 5 -20 -3 -8 7 -17 25 -24 23 -8
29 -7 29 3 0 34 95 61 107 30 3 -8 9 -12 13 -9 5 3 11 1 15 -5 3 -5 2 -10 -4
-10 -7 0 -7 -8 -1 -26 9 -22 8 -25 -5 -20 -10 3 -15 -1 -15 -12 0 -15 -2 -15
-10 -2 -8 13 -10 12 -11 -5 -1 -17 -2 -17 -6 -2 -5 20 -53 24 -54 5 0 -10 -2
-10 -6 0 -2 6 -9 10 -14 6 -5 -3 -9 -1 -9 5 0 5 3 11 8 14 4 2 2 2 -5 1 -7 -2
-15 1 -18 6 -4 6 -12 10 -18 10 -7 0 -6 -4 3 -10 10 -6 11 -10 3 -10 -7 0 -13
-10 -14 -22 l0 -23 -9 23 c-5 12 -12 22 -15 22 -4 0 -4 -4 0 -9 3 -6 -3 -9
-13 -8 -15 1 -27 37 -12 37 3 0 6 8 6 19 0 12 -5 17 -15 13 -9 -3 -12 -1 -7 6
4 7 1 12 -8 12 -9 0 -16 -7 -16 -15 0 -16 -9 -19 -34 -9 -11 4 -13 11 -6 23 6
13 5 18 -5 18 -8 0 -12 -4 -9 -9 3 -4 0 -8 -5 -8 -6 0 -11 12 -11 26 0 14 -4
23 -10 19 -5 -3 -10 2 -11 12 0 11 -3 13 -6 5 -2 -6 -9 -10 -13 -7 -5 3 0 15
11 26 16 16 17 23 8 41 -7 13 -8 23 -1 27 5 3 12 15 14 26 4 17 7 15 18 -12
11 -31 30 -45 30 -23 0 6 9 10 20 10 11 0 20 -5 20 -12 0 -6 3 -8 7 -5 3 4 12
2 20 -5 11 -8 12 -7 7 6 -3 9 -11 16 -16 16 -6 0 -5 7 2 15 10 12 15 13 21 3
4 -6 5 -16 3 -20 -3 -4 0 -8 6 -8 6 0 8 -4 5 -10 -3 -5 -1 -10 4 -10 6 0 11 3
12 8 0 4 2 17 3 29 3 26 13 39 22 30 4 -4 2 -12 -4 -20 -9 -10 -4 -12 25 -9
25 3 34 1 29 -7 -4 -6 -2 -11 3 -11 6 0 11 7 11 16 0 28 20 54 43 53 l22 0
-22 -9z"/>
<path d="M1336 3774 c-3 -9 -6 -17 -6 -19 0 -2 16 -13 36 -24 41 -25 41 -28
-3 -35 -21 -4 -38 0 -55 13 -24 19 -24 19 -26 -5 -1 -16 5 -27 16 -31 9 -4 23
-13 30 -20 11 -10 8 -12 -17 -7 -17 4 -31 4 -31 1 0 -15 24 -57 33 -57 5 0 27
19 49 41 37 38 44 41 79 36 22 -3 39 -4 39 -2 0 2 2 10 5 17 4 9 -12 27 -40
47 -25 18 -45 27 -45 21 0 -6 -5 -8 -11 -5 -6 4 -8 10 -5 13 8 8 -14 32 -29
32 -7 0 -16 -7 -19 -16z"/>
</g>
</svg>
