<?xml version="1.0" standalone="no"?>
<!DOCTYPE svg PUBLIC "-//W3C//DTD SVG 20010904//EN"
 "http://www.w3.org/TR/2001/REC-SVG-20010904/DTD/svg10.dtd">
<svg version="1.0" xmlns="http://www.w3.org/2000/svg"
 width="1024.000000pt" height="724.000000pt" viewBox="0 0 1024.000000 724.000000"
 preserveAspectRatio="xMidYMid meet">
<metadata>
Created by potrace 1.16, written by Peter Selinger 2001-2019
</metadata>
<g transform="translate(0.000000,724.000000) scale(0.100000,-0.100000)"
fill="#000000" stroke="none">
<path d="M5930 5620 c0 -5 5 -10 10 -10 6 0 10 5 10 10 0 6 -4 10 -10 10 -5 0
-10 -4 -10 -10z"/>
<path d="M5957 5589 c-14 -23 -67 -26 -67 -4 0 11 -12 15 -46 15 -39 0 -44 -2
-35 -14 10 -12 0 -15 -61 -21 -40 -4 -90 -12 -111 -18 -30 -8 -40 -8 -46 2 -9
14 -151 26 -151 13 0 -5 25 -9 56 -9 31 0 59 -6 63 -12 4 -6 24 -12 45 -13 20
-1 39 -5 41 -9 6 -9 -43 -22 -55 -14 -16 10 -116 16 -102 7 19 -12 -8 -23 -37
-15 -13 3 -21 1 -21 -6 0 -7 -4 -10 -8 -7 -5 3 -22 1 -38 -4 l-29 -8 30 -2
c22 -2 25 -4 10 -7 -11 -3 -26 -10 -33 -15 -7 -6 -28 -12 -48 -13 -27 -2 -42
5 -67 29 l-32 30 30 7 c17 4 23 7 13 8 -11 1 -15 7 -10 23 3 14 1 19 -6 14 -6
-4 -12 3 -14 16 -2 17 -9 22 -23 20 -11 -2 -41 -3 -67 -3 -38 1 -46 -2 -42
-14 4 -10 0 -15 -11 -15 -9 0 -13 5 -10 10 11 17 -42 11 -56 -7 -12 -14 -12
-16 2 -11 9 3 22 2 30 -3 9 -6 -2 -9 -33 -9 -27 0 -48 4 -48 9 0 5 -15 11 -34
13 -19 2 -33 1 -30 -3 2 -4 -23 -5 -56 -3 -64 5 -81 -8 -27 -22 31 -8 31 -8
-17 -12 -32 -2 -54 2 -65 11 -9 9 -29 13 -49 11 -20 -2 -31 0 -27 6 3 6 1 10
-5 10 -6 0 -13 -7 -16 -15 -4 -10 -20 -15 -45 -15 -32 0 -37 3 -32 16 5 14 2
16 -18 11 -13 -3 -64 -11 -114 -17 -153 -19 -321 -53 -299 -61 15 -5 9 -10
-28 -20 -27 -7 -48 -16 -48 -20 0 -4 -9 -5 -21 -2 -12 4 -25 0 -30 -8 -4 -8
-21 -15 -36 -16 -15 0 -45 -2 -66 -4 l-38 -2 28 -19 c34 -22 47 -23 67 -3 8 8
28 17 44 19 16 2 42 10 59 18 30 15 93 13 93 -2 0 -5 15 -1 33 8 43 22 280 39
321 23 24 -10 26 -14 15 -27 -7 -9 -21 -13 -34 -10 -12 3 -25 2 -29 -2 -13
-13 -71 -10 -87 4 -15 13 -45 10 -59 -5 -13 -15 -69 -38 -77 -31 -4 4 -21 10
-37 14 -26 7 -27 6 -12 -9 9 -10 23 -14 31 -11 8 3 15 1 15 -5 0 -17 -32 -23
-54 -9 -24 15 -97 14 -107 -2 -4 -6 -12 -7 -18 -4 -6 4 -11 3 -11 -2 0 -6 -10
-10 -22 -10 -13 0 -61 -8 -108 -16 -59 -11 -110 -14 -168 -10 -76 6 -85 9 -95
32 -11 23 -14 24 -87 19 -41 -3 -115 -1 -164 4 -71 7 -117 5 -235 -11 -186
-26 -191 -27 -191 -45 0 -8 -6 -16 -12 -16 -7 -1 -17 -2 -23 -4 -5 -1 -17 -3
-25 -4 -8 -1 -22 -6 -30 -11 -13 -8 -13 -11 -1 -19 7 -5 10 -14 6 -21 -5 -8
-12 -7 -26 6 -13 12 -19 13 -19 4 0 -8 -4 -9 -12 -3 -7 5 -26 10 -43 11 -28 1
-29 1 -11 -13 11 -8 24 -15 30 -15 6 0 6 -4 -1 -11 -7 -7 -28 -7 -72 2 -47 9
-65 9 -74 0 -16 -16 -30 -14 -24 3 4 9 -2 17 -13 21 -23 7 -43 -2 -35 -16 10
-15 -7 -10 -19 6 -14 18 -83 34 -72 17 5 -8 -2 -12 -18 -12 -15 0 -25 5 -23
12 1 9 -25 15 -89 19 -50 4 -100 11 -110 16 -11 5 -49 9 -86 8 -38 0 -68 3
-68 6 0 6 -19 7 -135 8 -27 0 -52 -5 -56 -11 -4 -7 -9 -7 -13 1 -9 14 -46 15
-46 1 0 -5 -7 -10 -15 -10 -8 0 -15 5 -15 10 0 6 -19 10 -42 9 -33 0 -38 -2
-23 -9 19 -8 19 -9 -3 -9 -13 -1 -36 6 -50 15 -24 14 -30 14 -62 0 l-35 -15
47 6 c51 6 58 1 32 -24 -15 -15 -14 -17 6 -28 22 -12 22 -12 -7 -23 -79 -30
-163 -36 -147 -11 3 5 1 9 -4 9 -13 0 -50 -45 -54 -67 -2 -10 -13 -22 -26 -28
-13 -6 -22 -19 -22 -32 0 -17 -6 -23 -22 -23 -21 -1 -21 -2 -5 -11 21 -12 22
-29 2 -29 -9 0 -12 -6 -9 -15 4 -9 -7 -22 -31 -36 -34 -20 -46 -54 -18 -54 6
0 15 -3 19 -8 4 -4 -2 -7 -13 -7 -16 0 -21 -7 -21 -27 0 -16 5 -32 12 -36 8
-6 7 -10 -2 -14 -10 -4 -9 -9 4 -24 16 -18 16 -19 0 -19 -14 0 -17 -8 -15 -45
2 -24 0 -47 -4 -51 -12 -13 -8 -23 25 -55 23 -22 29 -32 20 -38 -10 -6 -10
-11 3 -21 19 -16 19 -30 1 -30 -9 0 -12 -7 -9 -18 3 -12 -5 -23 -24 -32 -15
-8 -31 -19 -35 -24 -10 -15 2 -35 25 -39 l22 -4 -21 -2 c-16 -1 -23 -9 -26
-31 -3 -20 0 -30 9 -30 7 0 13 -4 13 -10 0 -5 -5 -10 -11 -10 -8 0 -7 -5 2
-16 11 -13 11 -17 -3 -25 -12 -6 -15 -23 -14 -70 2 -55 5 -64 31 -87 20 -17
26 -27 17 -30 -19 -6 5 -32 32 -32 17 -1 16 -3 -9 -15 -16 -7 -24 -14 -17 -14
6 -1 12 -10 12 -21 0 -16 7 -20 36 -20 19 0 44 -5 55 -10 25 -14 25 -40 -1
-35 -24 5 -38 -14 -19 -26 10 -6 5 -9 -16 -9 l-29 0 24 -17 c31 -21 41 -33 58
-61 16 -30 15 -47 -5 -68 -13 -13 -14 -19 -5 -22 6 -2 12 -11 12 -21 0 -9 23
-41 51 -70 42 -44 48 -56 36 -62 -18 -10 -12 -45 11 -71 14 -17 13 -18 -16
-18 -21 0 -36 7 -44 20 -9 13 -24 20 -45 20 -17 0 -52 9 -77 20 l-46 19 0 -22
c0 -22 -37 -47 -71 -47 -19 0 -36 -33 -20 -38 6 -2 21 -12 33 -22 l23 -19 -37
-1 c-31 0 -36 -3 -31 -17 3 -10 13 -26 21 -36 22 -25 7 -33 -38 -21 -21 6 -45
7 -52 3 -12 -7 -1 -19 61 -66 9 -6 13 -15 9 -19 -4 -4 -15 -1 -24 7 -16 13
-16 12 -7 -6 6 -11 8 -25 6 -32 -4 -12 69 -53 95 -53 11 0 11 -3 -2 -15 -8 -8
-19 -15 -25 -15 -6 0 -11 -5 -11 -11 0 -5 -5 -7 -10 -4 -6 4 -7 11 -4 17 5 7
1 9 -9 5 -10 -3 -17 -3 -17 2 0 5 -11 11 -25 13 -24 5 -24 5 -8 -23 11 -19 28
-29 52 -34 57 -10 71 -15 71 -28 0 -7 14 -24 32 -40 32 -26 32 -28 14 -42 -19
-14 -19 -15 -1 -15 17 0 17 -1 2 -18 -16 -17 -15 -20 3 -40 11 -12 20 -26 20
-32 0 -9 14 -14 33 -11 5 1 6 -3 2 -9 -8 -13 -42 -13 -50 0 -3 6 -12 10 -18
10 -15 -1 40 -50 56 -50 15 0 61 -48 70 -72 5 -13 18 -18 50 -18 47 0 69 -14
60 -37 -3 -8 0 -19 8 -24 11 -7 12 -11 1 -17 -10 -7 -10 -12 3 -22 16 -13 15
-15 0 -27 -14 -9 -16 -22 -12 -53 3 -22 1 -40 -4 -40 -19 0 -8 -29 20 -53 16
-13 29 -33 28 -43 -1 -13 5 -20 21 -22 31 -5 28 -22 -5 -23 -16 0 -22 -3 -15
-6 6 -2 12 -13 12 -22 0 -19 49 -31 129 -31 32 -1 34 -2 19 -14 -28 -20 -22
-26 27 -26 42 0 65 -18 28 -22 -10 0 -29 -2 -43 -3 -14 -2 -61 -6 -104 -9 -44
-3 -81 -8 -83 -10 -8 -8 10 -36 23 -36 8 0 14 -3 14 -7 0 -5 -33 -9 -72 -11
-40 -2 -75 -5 -77 -8 -15 -15 41 -19 281 -19 l270 0 29 -33 c42 -46 41 -47
-91 -71 -40 -7 -36 -8 40 -10 47 -1 160 -6 253 -11 92 -6 241 -12 330 -14 90
-2 172 -8 182 -13 10 -6 26 -8 35 -6 10 3 21 0 24 -6 8 -12 -6 -13 -249 -15
-150 -1 -160 -2 -160 -20 0 -22 -16 -28 -121 -46 -55 -10 -79 -10 -107 -1 -26
9 -42 9 -56 2 -11 -6 -29 -11 -40 -11 -23 0 -28 -15 -8 -23 9 -4 8 -8 -3 -17
-13 -10 -13 -11 0 -7 18 5 50 -10 50 -24 0 -6 -64 -7 -184 -3 -145 5 -185 4
-191 -6 -5 -9 0 -20 13 -31 12 -9 22 -19 22 -21 0 -1 -27 -3 -60 -3 -65 0
-100 -8 -84 -18 34 -20 1452 -27 1589 -7 39 6 88 12 110 14 22 2 74 9 115 16
52 8 98 8 150 2 41 -6 131 -8 200 -6 92 3 121 2 110 -7 -11 -8 -12 -12 -2 -16
6 -2 12 -11 12 -18 0 -9 21 -15 68 -19 101 -9 119 -8 222 9 52 9 113 19 135
22 32 5 36 7 20 14 -19 7 -19 8 3 8 12 1 22 -4 22 -11 0 -6 6 -3 14 8 8 10 17
16 21 13 3 -4 22 -3 41 1 25 6 38 4 49 -6 16 -16 61 -19 70 -4 3 6 0 10 -8 10
-8 0 -28 7 -43 16 l-29 15 45 -7 c25 -3 48 -12 53 -18 5 -8 9 -8 15 0 4 6 18
15 32 19 14 4 27 10 30 14 3 3 15 12 28 19 18 10 27 11 38 1 19 -15 96 -29
109 -20 6 5 31 11 58 14 26 4 57 13 70 20 12 8 36 13 52 12 17 -1 38 2 47 7
20 10 72 -8 63 -22 -3 -5 2 -10 13 -10 10 0 29 -12 41 -26 20 -23 28 -26 64
-20 23 3 112 11 197 16 216 15 314 27 318 39 2 5 10 7 18 4 8 -3 20 -1 27 5
15 13 77 13 77 0 0 -4 8 -8 18 -7 10 0 12 3 5 6 -23 9 -14 33 11 33 19 0 23 4
19 20 -3 11 0 20 6 20 6 0 11 -6 11 -12 0 -7 5 -5 11 5 7 12 17 16 30 12 10
-4 29 -3 40 0 17 6 19 9 8 16 -21 13 85 11 114 -2 19 -8 30 -8 48 2 23 13 22
13 -26 22 -27 4 -52 13 -56 18 -3 5 -36 11 -72 12 -99 3 -81 15 22 15 76 0 89
-3 84 -16 -5 -12 0 -14 28 -8 19 3 77 11 129 17 52 6 97 13 99 15 2 2 -2 10
-9 19 -11 13 -5 15 49 15 58 0 62 -1 56 -20 -9 -30 38 -27 67 4 21 23 25 23
53 11 17 -7 23 -14 14 -14 -17 -1 -45 -51 -29 -51 6 0 10 -10 10 -21 0 -20 4
-21 48 -15 129 19 162 19 183 0 17 -16 39 -18 174 -18 85 0 155 -3 155 -7 0
-14 49 -19 96 -10 41 8 54 7 80 -8 33 -20 64 -20 184 -1 67 10 318 44 402 54
26 3 50 2 53 -3 8 -15 84 27 124 68 64 67 182 171 193 171 6 0 3 -9 -7 -20
-27 -29 -8 -24 35 10 20 16 56 32 78 36 46 7 80 34 43 34 -11 0 -21 5 -21 10
0 6 -7 10 -15 10 -8 0 -15 -7 -15 -16 0 -13 -3 -14 -15 -4 -8 6 -18 9 -24 6
-16 -10 -18 17 -3 46 13 27 25 33 47 28 6 -2 23 -4 39 -5 26 -2 27 -1 12 11
-10 7 -24 10 -31 8 -7 -3 -15 2 -19 11 -5 15 2 16 71 10 43 -4 80 -9 82 -11
12 -11 -13 -51 -39 -62 -45 -20 -38 -37 18 -40 26 -1 63 -4 83 -8 25 -4 39 -1
48 10 17 20 106 22 118 3 4 -7 33 -20 64 -29 54 -15 58 -15 88 4 31 20 42 13
19 -10 -22 -22 2 -12 27 11 16 14 26 35 27 60 2 20 6 37 10 37 4 0 6 17 5 38
-1 21 2 36 8 35 6 -1 12 13 13 30 1 18 9 37 17 43 17 13 20 47 6 73 -8 14 -77
72 -130 108 -16 11 13 10 59 -2 59 -16 75 -13 38 6 -41 21 -62 75 -25 65 19
-5 18 -2 -6 20 -35 33 -34 38 8 31 30 -5 35 -3 35 14 0 10 -5 19 -10 19 -6 0
-10 6 -8 13 4 23 -13 56 -33 62 -11 4 -19 15 -19 28 0 12 -11 46 -25 75 -14
30 -25 69 -25 87 0 18 -15 62 -32 96 -18 35 -33 71 -34 79 -1 8 -3 20 -4 25
-6 25 1 43 19 48 12 3 19 14 19 28 0 13 4 56 8 94 4 39 8 87 8 107 0 27 5 40
18 43 9 4 15 12 12 20 -5 11 -35 14 -157 13 -170 -2 -272 4 -284 16 -4 4 13 7
40 5 26 -3 47 0 47 4 0 5 7 7 15 3 8 -3 15 -1 15 4 0 6 7 10 15 10 9 0 25 9
37 20 17 16 18 20 6 20 -9 0 -21 7 -28 15 -10 13 -9 15 11 16 13 1 35 2 49 3
14 1 48 3 75 5 47 2 48 3 22 13 -21 7 -27 16 -25 32 3 20 9 21 106 24 l102 3
0 34 c0 18 -4 36 -9 40 -5 3 -12 18 -16 34 -3 16 -13 35 -21 42 -8 6 -14 20
-14 30 0 30 -21 67 -41 72 -12 3 -19 14 -19 29 0 12 -8 39 -18 58 -14 28 -26
36 -61 45 -57 14 -68 36 -14 28 36 -5 37 -5 18 10 -11 9 -28 17 -37 17 -20 0
-24 15 -8 25 27 16 3 25 -69 25 -53 0 -82 4 -90 13 -6 8 -8 17 -4 20 3 4 -2 9
-11 13 -22 9 -10 24 20 24 15 0 23 4 19 10 -4 6 -10 8 -14 5 -5 -2 -16 2 -27
9 -16 12 -16 16 -4 30 11 15 11 18 -6 22 -25 7 -67 65 -55 77 5 5 7 34 4 63
-5 46 -3 54 11 54 20 0 21 14 1 30 -8 7 -15 16 -15 21 0 5 7 6 15 3 8 -4 15
-2 15 4 0 5 -6 12 -14 15 -21 8 -15 69 9 77 18 6 18 7 -3 12 -22 6 -32 48 -11
48 17 0 43 31 33 38 -5 4 -15 19 -21 34 -9 21 -9 28 0 31 9 3 9 9 -1 23 -6 11
-15 26 -19 34 -8 18 -43 50 -55 50 -4 0 -8 9 -8 19 0 12 -18 33 -45 52 -25 18
-44 34 -42 35 2 2 20 -1 41 -7 20 -6 47 -9 59 -6 21 3 21 4 2 12 -32 13 -55
37 -55 57 0 19 -28 34 -85 45 -16 4 -34 12 -40 19 -6 7 -52 15 -110 19 -55 3
-113 8 -130 10 -39 4 -197 -15 -208 -25 -5 -4 -17 -5 -28 -3 -39 11 -17 21 59
28 84 7 193 28 232 44 34 14 12 13 -110 -3 -99 -14 -215 -14 -228 -2 -3 3 13
6 36 6 47 0 94 18 89 34 -3 6 -11 9 -18 8 -8 -2 -44 -6 -81 -9 -58 -5 -68 -3
-68 10 0 9 -5 27 -11 40 -13 29 -87 54 -117 38 -14 -7 -24 -6 -40 5 -16 11
-41 13 -108 9 -48 -3 -93 -10 -99 -15 -7 -6 -34 -13 -61 -16 -27 -4 -60 -13
-72 -21 -14 -8 -34 -12 -48 -9 -14 4 -24 2 -24 -4 0 -6 -25 -10 -56 -10 -35 0
-61 -5 -70 -14 -8 -8 -36 -18 -62 -21 -81 -10 -92 -15 -102 -39 -5 -13 -19
-26 -32 -29 -13 -3 -43 -11 -67 -17 -24 -6 -72 -11 -107 -12 -57 -1 -65 2 -88
28 -14 16 -25 31 -26 34 0 23 27 33 106 41 48 5 91 14 94 19 4 6 14 8 22 5 14
-5 142 10 283 33 39 7 46 11 31 17 -12 5 -96 -2 -215 -19 -287 -40 -295 -40
-322 -25 -15 8 -50 12 -91 10 -38 -1 -68 1 -68 6 0 5 -61 9 -136 9 -107 0
-137 3 -144 14 -10 16 -59 17 -146 5 -48 -7 -51 -6 -57 16 -4 14 0 33 8 45 13
20 12 22 -6 27 -13 4 -24 -1 -32 -14z m-90 -19 c10 -11 24 -20 33 -20 12 -1
12 -2 -2 -10 -13 -8 -23 -4 -42 15 -14 14 -26 28 -26 30 0 12 22 3 37 -15z
m-677 -15 c0 -9 -9 -15 -21 -15 -18 0 -19 2 -9 15 7 8 16 15 21 15 5 0 9 -7 9
-15z m645 -15 c3 -5 1 -10 -4 -10 -6 0 -11 5 -11 10 0 6 2 10 4 10 3 0 8 -4
11 -10z m-1305 -30 c0 -5 -7 -10 -15 -10 -8 0 -15 5 -15 10 0 6 7 10 15 10 8
0 15 -4 15 -10z m325 -30 c12 10 21 10 41 1 14 -6 40 -11 59 -11 19 0 35 -4
35 -10 0 -5 7 -10 15 -10 8 0 15 7 15 15 0 18 12 19 28 3 9 -9 15 -9 24 0 14
14 42 16 33 2 -4 -6 5 -7 24 -4 23 5 32 2 40 -15 19 -34 -20 -51 -135 -57 -54
-2 -132 -10 -172 -16 -69 -10 -74 -10 -95 11 -13 11 -31 21 -40 21 -9 0 -17 7
-17 15 0 14 -16 20 -52 17 -9 -1 -19 6 -22 15 -5 13 -1 15 26 11 18 -3 60 0
93 7 40 8 64 9 73 2 8 -6 17 -5 27 3z m-245 -25 c-6 -8 -18 -11 -26 -8 -8 3
-14 -1 -14 -11 0 -22 -17 -20 -23 3 -5 20 3 25 50 27 19 2 21 -1 13 -11z m780
-31 c0 -2 -7 -4 -15 -4 -8 0 -15 4 -15 10 0 5 7 7 15 4 8 -4 15 -8 15 -10z
m-940 -78 c0 -11 -19 -15 -25 -6 -3 5 1 10 9 10 9 0 16 -2 16 -4z m1260 -16
c0 -5 -7 -10 -15 -10 -8 0 -15 5 -15 10 0 6 7 10 15 10 8 0 15 -4 15 -10z
m-1695 -40 c-4 -6 -18 -10 -33 -10 -15 0 -33 -4 -41 -9 -15 -10 -41 -4 -41 9
0 10 20 14 78 17 25 1 40 -2 37 -7z m-1865 -85 c-7 -9 -15 -13 -17 -11 -7 7 7
26 19 26 6 0 6 -6 -2 -15z m2070 -25 c0 -13 -11 -13 -30 0 -12 8 -11 10 8 10
12 0 22 -4 22 -10z m4485 -1410 c-3 -5 -22 -10 -41 -10 -21 0 -33 4 -29 10 3
6 22 10 41 10 21 0 33 -4 29 -10z m-45 -130 c0 -5 -12 -13 -27 -16 -16 -4 -33
-10 -38 -15 -9 -7 -103 6 -113 15 -4 5 53 14 123 19 22 2 43 4 48 5 4 1 7 -2
7 -8z m170 -59 c0 -11 -49 -21 -67 -14 -27 10 -12 23 27 23 22 0 40 -4 40 -9z
m-7470 -421 c8 -5 12 -11 9 -14 -3 -3 -14 1 -25 9 -21 16 -8 20 16 5z m7155
-540 c-3 -5 -15 -10 -26 -10 -10 0 -19 5 -19 10 0 6 12 10 26 10 14 0 23 -4
19 -10z m450 -70 c14 -5 23 -15 20 -20 -4 -6 -11 -8 -16 -4 -5 3 -15 1 -22 -4
-15 -13 -53 -19 -55 -9 -5 23 0 36 16 40 28 8 30 7 57 -3z m-31 -149 c7 -11
-43 -30 -61 -24 -7 3 -13 11 -13 19 0 16 65 20 74 5z m-447 -7 c-3 -3 -12 -4
-19 -1 -8 3 -5 6 6 6 11 1 17 -2 13 -5z m-1827 -284 c0 -13 -11 -13 -30 0 -12
8 -11 10 8 10 12 0 22 -4 22 -10z m-1480 -10 c-8 -5 -26 -9 -40 -9 -23 1 -23
2 5 9 43 11 52 11 35 0z m-96 -9 c8 -12 -42 -18 -90 -12 l-39 5 30 7 c45 10
93 10 99 0z m-219 -21 c-27 -12 -35 -12 -35 0 0 6 12 10 28 9 24 0 25 -1 7 -9z
m-67 -7 c-10 -2 -28 -2 -40 0 -13 2 -5 4 17 4 22 1 32 -1 23 -4z m-105 -10
c-7 -2 -19 -2 -25 0 -7 3 -2 5 12 5 14 0 19 -2 13 -5z m2124 -17 c43 -1 57 2
55 12 -2 9 2 11 10 5 7 -4 20 -6 30 -5 28 5 29 -16 0 -23 -35 -10 -173 -12
-178 -3 -2 3 -1 14 2 23 5 13 9 14 15 4 4 -7 30 -13 66 -13z m-1437 10 c0 -2
-7 -6 -15 -10 -8 -3 -15 -1 -15 4 0 6 7 10 15 10 8 0 15 -2 15 -4z m1640 0 c0
-9 -30 -14 -35 -6 -4 6 3 10 14 10 12 0 21 -2 21 -4z m-1856 -27 c-2 -5 11 -8
31 -7 19 1 43 -6 52 -14 20 -17 133 -25 133 -9 0 6 -17 13 -37 18 l-38 7 45 7
c25 3 50 3 56 -2 6 -5 25 -4 44 2 26 10 38 9 59 -3 18 -10 46 -13 91 -11 110
7 123 7 185 4 44 -2 53 -5 35 -10 -17 -5 -25 -14 -24 -28 0 -17 -7 -22 -41
-28 -23 -3 -61 -3 -83 1 -29 4 -42 3 -42 -5 0 -6 -7 -11 -16 -11 -8 0 -12 5
-9 10 3 6 -3 10 -14 10 -14 0 -21 -6 -21 -20 0 -11 -7 -20 -15 -20 -8 0 -15 6
-15 13 0 8 -17 13 -47 15 -27 1 -58 7 -71 14 -18 10 -27 9 -43 -1 -15 -8 -24
-9 -33 -2 -7 6 -15 8 -18 5 -8 -7 -106 -18 -160 -17 -36 1 -48 -2 -48 -13 0
-8 -8 -14 -17 -14 -14 0 -15 2 -4 9 17 11 -1 23 -22 15 -8 -3 -18 0 -22 6 -4
7 -17 4 -41 -10 -25 -16 -48 -21 -96 -20 -137 3 -314 -20 -329 -42 -3 -5 -24
-2 -47 6 -36 13 -44 13 -56 1 -7 -8 -42 -19 -77 -24 -37 -6 -66 -17 -71 -26
-11 -19 -52 -19 -72 0 -8 8 -21 16 -28 16 -7 1 25 7 72 13 54 7 84 15 83 22
-1 7 9 11 27 10 16 -1 31 3 34 10 2 6 25 15 50 18 42 7 64 25 34 27 -27 2 211
48 282 55 41 3 106 13 143 20 85 17 90 17 84 0 -4 -10 5 -15 34 -18 40 -4 59
5 39 17 -20 12 -9 21 20 17 16 -2 27 -8 24 -13z m-2371 -29 c16 -14 -3 -48
-32 -60 -39 -16 -71 1 -71 37 0 22 -4 25 -25 21 -23 -5 -32 2 -20 14 8 8 138
-3 148 -12z m3067 -16 c0 -2 -11 -4 -25 -4 -14 0 -25 4 -25 9 0 4 11 6 25 3
14 -2 25 -6 25 -8z m144 -33 c4 -5 -3 -7 -14 -4 -23 6 -26 13 -6 13 8 0 17 -4
20 -9z m-554 -52 c0 -5 -11 -9 -25 -9 -21 0 -24 2 -13 14 13 14 38 11 38 -5z
m-75 -9 c3 -5 2 -10 -4 -10 -5 0 -13 5 -16 10 -3 6 -2 10 4 10 5 0 13 -4 16
-10z m-45 -10 c0 -12 -8 -12 -35 0 -18 8 -17 9 8 9 15 1 27 -3 27 -9z m-1065
-80 c3 -5 2 -10 -4 -10 -5 0 -13 5 -16 10 -3 6 -2 10 4 10 5 0 13 -4 16 -10z"/>
<path d="M4880 5430 c-12 -8 -9 -10 13 -10 15 0 27 5 27 10 0 13 -20 13 -40 0z"/>
<path d="M4835 5420 c3 -5 8 -10 11 -10 2 0 4 5 4 10 0 6 -5 10 -11 10 -5 0
-7 -4 -4 -10z"/>
<path d="M4778 5413 c6 -2 18 -2 25 0 6 3 1 5 -13 5 -14 0 -19 -2 -12 -5z"/>
<path d="M4970 1986 c0 -9 7 -16 16 -16 17 0 14 22 -4 28 -7 2 -12 -3 -12 -12z"/>
<path d="M6014 5559 c-10 -17 1 -21 66 -20 67 0 100 7 100 22 0 10 -33 12 -43
2 -12 -11 -65 -13 -91 -3 -17 6 -27 6 -32 -1z"/>
<path d="M7453 5553 c9 -2 25 -2 35 0 9 3 1 5 -18 5 -19 0 -27 -2 -17 -5z"/>
<path d="M1343 3913 c9 -2 25 -2 35 0 9 3 1 5 -18 5 -19 0 -27 -2 -17 -5z"/>
<path d="M1245 3520 c-3 -5 -1 -10 4 -10 6 0 11 5 11 10 0 6 -2 10 -4 10 -3 0
-8 -4 -11 -10z"/>
<path d="M1435 2210 c-4 -7 3 -8 22 -4 38 9 42 14 10 14 -14 0 -29 -5 -32 -10z"/>
<path d="M8344 2159 c-19 -22 -19 -22 4 -10 12 6 22 16 22 21 0 15 -5 12 -26
-11z"/>
<path d="M6520 2070 c0 -5 9 -15 20 -22 11 -7 20 -18 20 -25 0 -7 11 -13 25
-13 14 0 25 5 25 10 0 6 -4 10 -9 10 -4 0 -20 11 -35 25 -28 26 -46 32 -46 15z"/>
<path d="M6510 2014 c0 -8 5 -12 10 -9 6 4 8 11 5 16 -9 14 -15 11 -15 -7z"/>
<path d="M7975 1959 c-27 -5 -81 -15 -120 -21 -77 -12 -98 -23 -75 -39 17 -11
54 -7 128 13 28 8 52 11 52 6 0 -10 50 0 65 13 5 5 17 9 26 9 9 0 22 7 29 15
11 13 8 15 -21 14 -19 -1 -56 -5 -84 -10z"/>
<path d="M7490 1893 c-18 -7 -30 -23 -30 -42 0 -11 9 -12 43 -6 23 4 52 7 65
7 28 0 28 13 0 32 -23 16 -51 19 -78 9z"/>
<path d="M5800 1837 c0 -9 11 -14 31 -15 38 -1 34 22 -4 26 -18 2 -27 -1 -27
-11z"/>
<path d="M1613 1793 c9 -2 25 -2 35 0 9 3 1 5 -18 5 -19 0 -27 -2 -17 -5z"/>
<path d="M4880 1785 c0 -9 6 -12 15 -9 8 4 15 10 15 15 0 5 -7 9 -15 9 -8 0
-15 -7 -15 -15z"/>
<path d="M6340 1770 c0 -5 9 -10 20 -10 11 0 20 5 20 10 0 6 -9 10 -20 10 -11
0 -20 -4 -20 -10z"/>
<path d="M4326 1731 c-52 -6 -77 -31 -32 -31 14 0 26 4 26 10 0 5 8 9 18 8 35
-3 62 2 62 12 0 6 -6 9 -12 8 -7 0 -35 -4 -62 -7z"/>
</g>
</svg>
