<?xml version="1.0" standalone="no"?>
<!DOCTYPE svg PUBLIC "-//W3C//DTD SVG 20010904//EN"
 "http://www.w3.org/TR/2001/REC-SVG-20010904/DTD/svg10.dtd">
<svg version="1.0" xmlns="http://www.w3.org/2000/svg"
 width="1024.000000pt" height="724.000000pt" viewBox="0 0 1024.000000 724.000000"
 preserveAspectRatio="xMidYMid meet">
<metadata>
Created by potrace 1.16, written by Peter Selinger 2001-2019
</metadata>
<g transform="translate(0.000000,724.000000) scale(0.100000,-0.100000)"
fill="#000000" stroke="none">
<path d="M6287 5230 c-66 -4 -122 -12 -125 -17 -4 -7 -46 -10 -102 -10 -143 1
-552 -23 -573 -34 -10 -6 -97 -14 -194 -20 -97 -5 -206 -16 -242 -25 -51 -11
-114 -14 -276 -12 -158 2 -216 0 -233 -10 -24 -14 -191 -33 -207 -23 -5 3 -18
4 -29 2 -10 -1 -37 4 -60 12 -22 8 -84 18 -137 22 -81 5 -97 4 -102 -9 -5 -13
-10 -13 -37 0 -34 17 -84 11 -77 -9 2 -7 10 -13 18 -13 8 -1 20 -2 28 -3 8 0
11 -4 7 -8 -4 -4 -39 -9 -79 -11 -40 -2 -75 -8 -79 -15 -5 -9 -10 -9 -20 1
-17 17 -68 16 -68 -2 0 -20 45 -46 81 -46 19 0 43 -10 61 -25 24 -20 33 -23
44 -14 11 9 17 9 28 0 11 -9 19 -9 34 0 26 16 168 -11 165 -32 -6 -33 41 -70
110 -88 37 -9 64 -20 61 -24 -4 -4 -34 -7 -66 -7 -52 0 -58 -2 -58 -21 0 -12
-4 -17 -11 -13 -6 3 -8 17 -4 31 4 18 1 29 -12 39 -26 19 -46 17 -78 -8 -21
-17 -42 -22 -82 -22 -29 0 -53 -4 -53 -8 0 -4 -7 -8 -16 -8 -13 0 -14 3 -5 13
8 11 7 18 -7 30 -15 13 -31 15 -84 10 -44 -4 -67 -2 -72 6 -12 19 -50 12 -80
-15 -27 -26 -29 -26 -56 -10 -35 20 -47 20 -84 1 -24 -13 -31 -13 -37 -3 -5 8
-3 14 4 16 38 11 40 12 27 27 -20 24 -54 17 -94 -20 -38 -35 -38 -35 -72 -19
-29 14 -39 14 -65 4 -24 -10 -35 -10 -53 -1 -17 10 -33 10 -65 1 -23 -6 -46
-8 -52 -4 -6 3 -45 8 -87 9 -63 3 -81 0 -97 -15 -11 -10 -33 -20 -50 -23 -66
-12 -91 -21 -115 -37 -14 -9 -45 -20 -70 -22 -43 -5 -193 -69 -205 -87 -2 -5
-17 -12 -32 -16 -16 -3 -45 -18 -65 -31 -29 -21 -40 -24 -57 -15 -30 16 -61
13 -68 -6 -3 -10 -15 -30 -25 -45 -17 -25 -26 -28 -73 -28 -30 0 -57 5 -60 10
-3 6 -16 10 -29 10 -31 0 -46 -37 -46 -113 0 -42 -6 -71 -17 -87 -20 -30 -73
-80 -85 -80 -4 0 -8 -6 -8 -14 0 -15 -80 -78 -138 -109 -46 -25 -155 -15 -176
15 -19 26 -54 16 -62 -18 -5 -19 0 -32 20 -53 14 -15 30 -41 34 -57 11 -42 7
-251 -5 -266 -6 -7 -21 -42 -33 -78 -13 -36 -28 -71 -34 -79 -6 -7 -12 -57
-14 -110 -4 -92 -3 -98 21 -127 14 -16 29 -47 33 -68 4 -22 21 -55 39 -75 17
-20 42 -55 55 -78 13 -24 29 -43 36 -43 16 0 51 -48 60 -84 3 -15 20 -37 36
-49 16 -12 43 -49 59 -82 17 -33 44 -78 61 -99 28 -35 30 -40 15 -51 -24 -18
-21 -25 11 -25 15 0 35 -9 45 -20 9 -11 23 -20 31 -20 18 0 46 -38 46 -63 0
-20 124 -199 163 -236 l26 -24 115 13 c109 12 117 14 156 47 23 20 40 44 40
56 1 39 33 67 76 65 22 0 48 -5 59 -11 11 -6 34 -14 50 -18 l30 -7 -27 -1
c-16 -1 -28 -5 -28 -11 0 -5 -11 -10 -25 -10 -45 0 -17 -26 42 -40 38 -8 52
-15 42 -21 -8 -4 -23 -6 -34 -4 -99 20 -131 12 -42 -11 25 -6 42 -16 42 -25 1
-25 14 -37 35 -32 12 3 22 0 25 -9 9 -22 -28 -98 -68 -143 -40 -44 -44 -57
-23 -74 14 -12 32 -7 86 24 14 8 37 15 53 15 15 0 27 4 27 8 0 5 15 16 33 26
98 52 119 65 155 98 77 70 114 80 218 62 43 -8 89 -12 100 -9 27 6 39 34 19
41 -32 13 -14 26 24 20 22 -3 52 -1 67 4 31 12 37 9 28 -14 -4 -11 -18 -16
-48 -16 -26 0 -36 -3 -28 -9 12 -7 12 -12 1 -30 -8 -11 -17 -22 -21 -22 -17
-3 -24 -6 -58 -22 -46 -23 -111 -63 -119 -73 -3 -5 -35 -24 -71 -43 -91 -47
-151 -97 -143 -119 4 -9 11 -20 16 -23 12 -9 69 20 85 43 7 10 25 18 40 18 16
0 37 11 51 26 32 33 97 64 137 64 33 0 60 11 109 46 17 12 44 24 60 27 40 7
106 32 114 43 5 8 56 34 66 34 2 0 2 -7 -1 -15 -5 -12 3 -15 36 -15 25 0 39 4
35 10 -3 6 3 10 14 10 24 0 36 -16 19 -23 -7 -3 8 -6 33 -6 32 -1 49 4 52 13
7 17 -13 26 -56 26 -42 0 -77 10 -77 21 0 5 14 9 30 9 17 0 30 5 30 11 0 6 11
9 25 7 14 -2 25 -7 24 -12 -4 -31 140 -37 190 -8 25 14 34 15 50 5 11 -7 50
-15 88 -18 37 -4 78 -8 91 -11 15 -3 22 0 22 11 0 8 7 15 15 15 8 0 15 -7 15
-15 0 -8 7 -15 16 -15 14 0 14 3 4 15 -11 13 -8 15 15 15 19 0 28 -6 32 -20 6
-21 30 -22 26 -1 -5 18 54 13 61 -5 6 -14 20 -15 119 -9 61 5 168 9 237 10
147 3 252 16 273 33 8 7 21 10 30 6 8 -3 18 -1 22 5 4 7 13 8 23 2 9 -5 28 -7
41 -5 13 3 32 -3 43 -12 16 -16 23 -13 19 9 -1 4 6 10 14 13 8 4 15 10 15 15
0 8 -98 7 -129 -2 -7 -2 -15 1 -17 6 -3 7 29 16 78 23 46 7 84 16 86 22 5 14
42 13 42 -1 0 -7 11 -9 30 -6 22 5 28 3 24 -8 -5 -11 4 -13 40 -11 52 3 53 -9
1 -18 -19 -4 -35 -12 -35 -17 0 -13 141 -5 215 11 23 5 85 -1 85 -8 0 -4 -16
-6 -36 -4 -27 3 -35 1 -32 -9 3 -9 31 -14 94 -16 49 -2 98 -4 109 -5 11 -1 68
-1 128 0 88 2 107 5 107 17 0 9 10 15 28 16 152 7 162 6 162 -6 0 -8 17 -16
39 -20 45 -7 194 3 201 15 3 4 20 11 38 15 18 3 46 14 64 22 17 9 70 21 117
26 47 5 102 15 121 22 93 34 128 48 160 64 21 11 60 18 99 19 36 1 69 6 75 12
5 5 15 10 22 10 7 0 34 10 61 22 26 12 52 20 57 19 5 -1 15 7 22 18 8 11 28
22 44 26 17 4 30 11 30 16 0 12 47 12 55 -1 3 -6 15 -10 26 -10 11 0 22 -7 25
-15 3 -8 14 -17 25 -20 10 -4 19 -15 19 -25 0 -10 11 -25 25 -34 14 -9 25 -22
25 -30 0 -16 110 -16 131 0 8 6 40 10 72 9 31 -1 57 2 57 6 0 5 7 9 16 9 21 0
67 37 70 56 7 44 14 48 41 23 17 -16 27 -20 30 -12 2 7 15 28 27 46 21 31 22
37 11 72 -8 20 -28 49 -46 64 -43 36 -35 57 21 56 23 0 44 -6 48 -11 11 -17
56 -24 73 -11 8 7 18 20 22 31 6 14 13 17 33 12 24 -6 26 -5 22 18 -3 15 1 31
8 37 20 17 17 38 -11 75 -29 37 -34 98 -10 108 18 7 20 47 3 64 -7 7 -22 12
-34 12 -13 0 -35 15 -54 36 -32 37 -34 60 -2 31 27 -25 37 -21 18 8 -9 13 -16
26 -16 28 0 2 18 2 40 0 44 -4 56 13 15 23 -39 10 -49 29 -32 62 13 26 12 31
-5 55 -18 25 -18 27 -3 34 11 4 21 0 27 -10 5 -10 21 -17 38 -17 32 0 35 8 31
63 -2 22 3 30 19 34 15 4 19 11 15 24 -5 14 0 22 19 29 16 6 26 17 26 29 0 11
9 29 21 40 19 18 20 21 6 41 -10 15 -17 18 -22 10 -4 -7 -16 -10 -26 -7 -12 3
-19 0 -19 -8 0 -23 -21 -28 -35 -9 -16 22 -1 48 22 39 20 -7 64 5 58 16 -3 4
-19 6 -35 2 -39 -7 -39 11 1 27 20 9 26 15 18 21 -7 4 -19 5 -27 1 -10 -3 -13
0 -10 9 2 8 14 15 26 17 12 2 22 8 22 13 0 6 4 8 9 5 5 -3 11 1 15 9 5 13 11
12 45 -6 54 -28 106 -12 67 20 -12 10 -36 16 -78 20 -5 1 -8 15 -8 31 0 23 -4
30 -20 30 -15 0 -20 7 -20 27 0 21 3 24 12 15 16 -16 28 -15 28 3 0 17 18 15
103 -12 46 -14 97 -12 97 5 0 16 -61 54 -109 68 -43 12 -49 18 -60 54 -7 23
-18 43 -26 46 -7 3 -16 20 -19 39 -5 25 -14 36 -37 44 -24 8 -29 15 -24 31 6
18 3 19 -24 14 l-30 -6 3 43 c2 24 -3 51 -9 59 -22 28 -25 49 -7 59 9 6 12 11
5 11 -6 0 -25 -8 -42 -17 -28 -17 -31 -17 -43 -1 -7 9 -22 18 -33 21 -17 4
-17 5 4 6 18 1 22 5 16 19 -4 9 -7 27 -6 40 0 12 -4 22 -10 22 -5 0 -7 5 -3
11 4 8 9 8 17 0 6 -6 18 -11 26 -11 11 0 10 4 -4 20 -14 15 -26 19 -45 15 -18
-4 -31 -1 -40 10 -17 20 -26 19 -52 -5 -28 -26 -40 -25 -57 1 -11 18 -11 23 1
30 7 5 23 7 35 4 12 -3 33 -1 46 4 20 8 25 17 25 50 0 23 -3 41 -8 41 -5 0 -7
7 -4 15 4 8 -10 29 -33 52 -30 29 -47 38 -73 38 -19 0 -41 -4 -48 -9 -9 -5
-22 0 -36 13 -19 18 -28 20 -49 12 -22 -9 -27 -8 -27 4 0 8 -5 15 -11 15 -5 0
-7 5 -4 11 4 6 13 8 21 5 8 -3 14 -1 14 4 0 6 -15 10 -32 10 -37 1 -59 14 -77
48 -6 12 -20 22 -29 22 -10 0 -24 6 -30 12 -10 10 -15 10 -21 -1 -7 -10 -26
-13 -80 -9 -56 4 -75 10 -95 29 -18 18 -22 27 -14 37 23 27 -6 35 -87 24 -52
-7 -86 -7 -106 0 -16 5 -41 7 -55 4 -16 -4 -58 3 -111 19 -84 26 -135 29 -78
5 l30 -13 -32 -10 c-18 -5 -33 -14 -33 -18 0 -5 3 -8 8 -7 4 0 18 -4 32 -10
l25 -11 -30 -2 c-16 -1 -47 -1 -68 1 -21 1 -45 -4 -53 -11 -17 -14 -32 -3 -38
27 -5 26 14 51 44 56 39 5 34 26 -9 38 -49 13 -54 30 -8 30 18 0 42 6 53 14
26 20 10 35 -61 57 -58 18 -140 14 -198 -10 -44 -17 -71 -13 -97 14 -22 24
-29 25 -124 23 -56 0 -154 -4 -219 -8z m843 -220 c0 -5 -4 -10 -10 -10 -5 0
-10 5 -10 10 0 6 5 10 10 10 6 0 10 -4 10 -10z m-2882 -106 c33 -9 27 -21 -8
-16 -16 2 -30 8 -30 13 0 10 7 11 38 3z m77 -34 c3 -5 1 -10 -4 -10 -6 0 -11
5 -11 10 0 6 2 10 4 10 3 0 8 -4 11 -10z m3610 -114 c0 -5 -10 -15 -23 -24
-21 -14 -23 -14 -29 6 -3 11 -15 23 -27 25 -11 3 2 4 29 3 28 0 50 -5 50 -10z
m-4490 -16 c3 -5 1 -10 -4 -10 -6 0 -11 5 -11 10 0 6 2 10 4 10 3 0 8 -4 11
-10z m250 -10 c3 -5 1 -10 -4 -10 -6 0 -11 5 -11 10 0 6 2 10 4 10 3 0 8 -4
11 -10z m4365 -10 l25 -8 -25 -1 c-14 0 -32 4 -40 9 -13 9 -13 10 0 9 8 -1 26
-5 40 -9z m-4583 -19 c14 -22 8 -31 -20 -31 -13 0 -17 5 -13 16 3 9 6 20 6 25
0 15 15 10 27 -10z m247 -7 c9 -23 8 -24 -19 -24 -23 0 -24 2 -13 20 15 24 24
25 32 4z m366 -145 c0 -6 -4 -7 -10 -4 -5 3 -10 11 -10 16 0 6 5 7 10 4 6 -3
10 -11 10 -16z m240 1 c0 -5 -2 -10 -4 -10 -3 0 -8 5 -11 10 -3 6 -1 10 4 10
6 0 11 -4 11 -10z m3803 3 c-7 -2 -19 -2 -25 0 -7 3 -2 5 12 5 14 0 19 -2 13
-5z m-3943 -22 c0 -14 -18 -23 -30 -16 -6 4 -8 11 -5 16 8 12 35 12 35 0z
m245 -1 c3 -6 -1 -13 -10 -16 -19 -8 -30 0 -20 15 8 14 22 14 30 1z m3730 -29
c-7 -24 -35 -29 -35 -6 0 13 31 38 38 30 2 -2 1 -13 -3 -24z m-125 -34 c0 -14
-20 -37 -32 -37 -12 0 -10 24 4 38 16 16 28 15 28 -1z m155 -67 c4 -6 -5 -10
-19 -10 -14 0 -26 5 -26 10 0 6 9 10 19 10 11 0 23 -4 26 -10z m-10 -40 c-3
-5 -10 -10 -16 -10 -5 0 -9 5 -9 10 0 6 7 10 16 10 8 0 12 -4 9 -10z m75 -10
c0 -5 -6 -10 -13 -10 -8 0 -19 -11 -25 -25 -14 -30 -47 -35 -39 -6 3 13 -1 21
-12 24 -9 3 -1 5 17 6 17 0 32 6 32 11 0 6 9 10 20 10 11 0 20 -4 20 -10z m27
-26 c-3 -3 -12 -4 -19 -1 -8 3 -5 6 6 6 11 1 17 -2 13 -5z m123 -150 c0 -8 -4
-12 -10 -9 -5 3 -10 13 -10 21 0 8 5 12 10 9 6 -3 10 -13 10 -21z m-150 -654
c24 -16 -2 -26 -54 -22 -56 5 -60 19 -8 25 20 2 39 4 42 5 3 1 12 -3 20 -8z
m40 6 c0 -3 -4 -8 -10 -11 -5 -3 -10 -1 -10 4 0 6 5 11 10 11 6 0 10 -2 10 -4z
m-593 -632 c-3 -3 -12 -4 -19 -1 -8 3 -5 6 6 6 11 1 17 -2 13 -5z m-17 -35 c0
-6 -4 -7 -10 -4 -5 3 -10 11 -10 16 0 6 5 7 10 4 6 -3 10 -11 10 -16z m-2415
-409 c-3 -5 -10 -10 -16 -10 -5 0 -9 5 -9 10 0 6 7 10 16 10 8 0 12 -4 9 -10z
m455 -9 c-28 -16 -60 -22 -60 -12 0 8 18 14 65 19 6 1 3 -2 -5 -7z m-110 -21
c-36 -12 -72 -12 -65 0 3 6 25 10 48 9 36 -1 38 -2 17 -9z m-1193 -6 c-3 -3
-12 -4 -19 -1 -8 3 -5 6 6 6 11 1 17 -2 13 -5z m-1067 -11 c0 -5 -20 -8 -45
-8 -25 0 -45 3 -45 7 0 5 20 8 45 8 25 0 45 -3 45 -7z m1750 -18 c0 -6 -19
-10 -42 -10 -56 2 -60 3 -53 14 7 13 95 9 95 -4z m965 5 c18 -5 -33 -8 -127
-9 -100 -1 -158 3 -158 9 0 12 239 12 285 0z m-1248 -7 c-4 -4 -26 -8 -50 -10
-31 -3 -38 -1 -27 7 17 11 87 14 77 3z m142 -2 c9 -6 6 -8 -13 -8 -14 0 -23 3
-20 8 7 11 15 11 33 0z m-702 -27 c-3 -3 -12 -4 -19 -1 -8 3 -5 6 6 6 11 1 17
-2 13 -5z m305 -16 c-17 -8 -26 -8 -34 0 -9 9 -4 12 23 11 32 0 33 -1 11 -11z"/>
<path d="M7055 5184 c-20 -20 -20 -20 33 -27 43 -5 79 13 67 34 -10 15 -82 10
-100 -7z"/>
<path d="M3625 5040 c3 -5 13 -10 21 -10 8 0 14 5 14 10 0 6 -9 10 -21 10 -11
0 -17 -4 -14 -10z"/>
<path d="M6950 5020 c19 -13 30 -13 30 0 0 6 -10 10 -22 10 -19 0 -20 -2 -8
-10z"/>
<path d="M7820 4914 c0 -17 22 -14 28 4 2 7 -3 12 -12 12 -9 0 -16 -7 -16 -16z"/>
<path d="M2090 4840 c-139 -4 -160 -8 -203 -30 -27 -13 -53 -33 -58 -43 -6
-10 -21 -22 -34 -27 -37 -14 -21 -34 50 -63 l65 -27 32 20 c26 16 43 19 76 14
37 -6 42 -4 42 13 0 30 20 43 68 43 43 0 75 11 100 37 7 7 25 13 39 13 15 0
33 10 44 24 11 14 32 27 47 29 36 5 -75 4 -268 -3z m55 -59 c3 -5 1 -13 -5
-16 -15 -9 -43 3 -35 15 8 13 32 13 40 1z m-75 -20 c0 -14 -18 -23 -31 -15 -8
4 -7 9 2 15 18 11 29 11 29 0z"/>
<path d="M2633 4843 c7 -10 -12 -36 -38 -52 -17 -10 -12 -11 30 -6 160 18 285
42 285 55 0 3 -64 7 -141 9 -78 1 -139 -1 -136 -6z"/>
<path d="M1760 4761 c0 -7 -4 -9 -10 -6 -5 3 -10 1 -10 -4 0 -6 4 -11 9 -11
13 0 25 20 17 27 -3 4 -6 1 -6 -6z"/>
<path d="M8323 4393 c2 -23 43 -67 51 -55 6 10 -30 72 -43 72 -5 0 -9 -8 -8
-17z"/>
<path d="M1686 4194 c-26 -25 -19 -37 15 -30 17 3 43 6 57 6 24 0 25 1 7 20
-22 24 -58 26 -79 4z"/>
<path d="M8330 3279 c-13 -8 -12 -11 4 -24 11 -8 23 -15 26 -15 11 0 45 28 40
33 -13 11 -57 15 -70 6z"/>
<path d="M8502 3074 c2 -11 11 -20 22 -22 13 -3 17 1 14 14 -2 11 -11 20 -22
22 -13 3 -17 -1 -14 -14z"/>
<path d="M1578 2734 c-37 -20 -35 -37 9 -91 l38 -46 47 54 47 54 72 0 c47 0
74 4 76 12 6 18 -53 25 -129 15 -49 -6 -73 -5 -90 4 -29 17 -37 17 -70 -2z"/>
<path d="M8245 2670 c-8 -12 20 -24 35 -15 6 3 8 11 5 16 -8 12 -32 12 -40 -1z"/>
<path d="M2645 2500 c-4 -6 7 -10 25 -10 18 0 29 4 25 10 -3 6 -15 10 -25 10
-10 0 -22 -4 -25 -10z"/>
<path d="M1536 2431 c-18 -19 -27 -37 -24 -52 5 -36 34 -35 67 2 22 24 28 37
22 53 -12 31 -33 30 -65 -3z"/>
<path d="M5390 2390 c0 -5 11 -10 25 -10 14 0 25 5 25 10 0 6 -11 10 -25 10
-14 0 -25 -4 -25 -10z"/>
<path d="M6142 2369 c2 -6 7 -10 11 -10 4 1 14 1 22 1 8 0 15 5 15 10 0 6 -12
10 -26 10 -14 0 -24 -5 -22 -11z"/>
<path d="M3840 2360 c0 -5 5 -10 10 -10 6 0 10 5 10 10 0 6 -4 10 -10 10 -5 0
-10 -4 -10 -10z"/>
<path d="M5220 2350 c0 -5 5 -10 10 -10 6 0 10 5 10 10 0 6 -4 10 -10 10 -5 0
-10 -4 -10 -10z"/>
<path d="M3315 2310 c-4 -6 5 -10 19 -10 14 0 26 5 26 10 0 6 -9 10 -19 10
-11 0 -23 -4 -26 -10z"/>
<path d="M4030 2301 c0 -9 86 -21 140 -20 l35 1 -35 8 c-60 13 -140 19 -140
11z"/>
<path d="M4218 2279 c-12 -8 106 -19 192 -19 45 1 60 3 49 10 -18 10 -226 18
-241 9z"/>
<path d="M4775 2280 c-3 -5 1 -10 9 -10 9 0 16 5 16 10 0 6 -4 10 -9 10 -6 0
-13 -4 -16 -10z"/>
<path d="M4490 2270 c-8 -5 -4 -9 12 -13 38 -11 70 -8 66 5 -5 14 -59 20 -78
8z"/>
<path d="M4640 2270 c-8 -5 -11 -12 -8 -16 10 -9 58 4 58 16 0 13 -30 13 -50
0z"/>
<path d="M4715 2270 c3 -5 12 -7 20 -3 21 7 19 13 -6 13 -11 0 -18 -4 -14 -10z"/>
<path d="M2990 2021 c0 -28 21 -37 36 -16 16 22 10 35 -17 35 -12 0 -19 -7
-19 -19z"/>
</g>
</svg>
