<?xml version="1.0" standalone="no"?>
<!DOCTYPE svg PUBLIC "-//W3C//DTD SVG 20010904//EN"
 "http://www.w3.org/TR/2001/REC-SVG-20010904/DTD/svg10.dtd">
<svg version="1.0" xmlns="http://www.w3.org/2000/svg"
 width="1024.000000pt" height="1024.000000pt" viewBox="0 0 1024.000000 1024.000000"
 preserveAspectRatio="xMidYMid meet">
<metadata>
Created by potrace 1.16, written by Peter Selinger 2001-2019
</metadata>
<g transform="translate(0.000000,1024.000000) scale(0.100000,-0.100000)"
fill="#000000" stroke="none">
<path d="M5463 8627 c-46 -9 -53 -14 -53 -34 0 -13 -4 -22 -9 -19 -4 3 -6 17
-3 31 3 20 0 25 -17 25 -14 0 -21 -6 -21 -20 0 -22 -35 -28 -43 -7 -4 7 -8 4
-12 -9 -6 -19 -15 -21 -76 -22 -70 -2 -109 -13 -109 -34 0 -14 -51 -61 -58
-53 -4 3 0 10 8 16 11 6 5 8 -20 7 -19 -2 -37 -6 -40 -9 -3 -3 -17 -9 -32 -13
-24 -5 -28 -3 -28 14 0 17 -4 20 -20 15 -15 -5 -18 -3 -14 9 3 9 1 16 -5 16
-6 0 -11 -6 -11 -13 0 -8 -17 -21 -38 -29 -45 -18 -54 -14 -124 56 -57 56 -64
57 -233 38 -584 -65 -768 -106 -1030 -227 -38 -18 -104 -47 -145 -66 -41 -18
-82 -39 -91 -46 -8 -7 -20 -13 -26 -13 -6 0 -13 -3 -15 -7 -1 -5 -25 -19 -52
-33 -98 -50 -110 -58 -118 -79 -6 -16 -13 -20 -30 -16 -17 4 -39 -7 -83 -40
-33 -25 -64 -45 -70 -45 -6 0 -20 -8 -31 -18 -10 -10 -26 -23 -35 -28 -9 -5
-32 -21 -50 -36 -19 -15 -62 -48 -97 -73 -44 -34 -60 -51 -53 -59 5 -6 6 -18
2 -25 -7 -10 -12 -10 -29 0 -18 11 -28 5 -106 -67 -48 -44 -86 -87 -86 -98 0
-12 -5 -16 -15 -12 -20 7 -53 -20 -133 -109 -10 -11 -28 -37 -41 -57 -13 -23
-30 -38 -42 -38 -12 0 -19 -7 -19 -20 0 -11 -13 -29 -30 -42 -16 -12 -30 -28
-30 -35 0 -7 -5 -13 -11 -13 -15 0 -99 -82 -99 -97 0 -7 -4 -13 -10 -13 -5 0
-16 -16 -25 -36 -8 -19 -25 -47 -39 -62 -116 -129 -144 -165 -154 -199 -6 -22
-29 -58 -49 -80 -40 -44 -100 -188 -82 -198 5 -4 9 -18 9 -32 0 -22 -3 -24
-25 -19 -21 5 -25 3 -25 -14 0 -19 -12 -55 -59 -180 -25 -65 -25 -70 -6 -70
17 0 19 -18 4 -40 -8 -11 -12 -12 -16 -2 -8 19 -23 14 -23 -8 0 -11 -4 -20 -8
-20 -5 0 -14 -18 -21 -40 -11 -38 -19 -45 -50 -40 -10 1 -10 -3 3 -16 10 -10
16 -29 15 -48 -4 -61 0 -76 19 -70 10 4 13 3 6 -3 -7 -4 -14 -17 -16 -28 -3
-18 -6 -17 -20 9 l-15 29 -1 -51 c-2 -49 -25 -97 -43 -87 -4 3 -9 -2 -13 -10
-3 -8 -2 -15 3 -15 5 0 11 -16 14 -34 3 -19 13 -51 23 -71 19 -41 9 -61 -13
-27 l-16 22 -13 -26 c-19 -36 -18 -44 9 -41 19 2 22 -2 19 -31 -3 -33 -3 -33
32 -26 32 6 36 4 36 -15 0 -13 9 -25 22 -30 21 -7 20 -8 -10 -24 -31 -15 -32
-15 -32 5 0 17 -2 18 -15 8 -10 -9 -15 -9 -15 -1 0 6 -4 11 -10 11 -5 0 -10
-4 -10 -9 0 -5 -13 -23 -30 -39 -16 -17 -30 -38 -30 -46 0 -23 17 -20 25 4 3
11 12 20 20 20 7 0 12 8 11 17 0 10 7 19 18 21 16 4 18 0 12 -28 -5 -26 -3
-31 9 -27 22 9 32 -57 12 -78 -19 -19 -30 -5 -29 36 0 15 -6 33 -14 40 -11 9
-14 8 -14 -4 0 -8 -16 -24 -35 -36 -29 -17 -35 -26 -35 -53 0 -18 9 -50 20
-71 13 -23 18 -47 14 -59 -3 -11 -7 -68 -8 -127 -2 -97 -1 -107 16 -108 15 -2
18 6 18 48 0 30 4 49 11 49 8 0 10 -12 6 -35 -3 -19 -3 -34 1 -33 4 1 14 -2
23 -6 12 -5 16 -22 17 -67 1 -39 6 -65 16 -75 15 -14 16 -14 16 0 0 18 8 20
29 7 16 -10 6 -31 -15 -31 -16 0 -19 -26 -4 -35 15 -10 12 -28 -4 -22 -10 4
-16 -2 -18 -16 -2 -17 -11 -23 -35 -25 -31 -3 -33 -1 -33 28 0 18 -4 29 -10
25 -6 -4 -10 6 -10 22 -1 38 -39 -73 -40 -113 0 -69 -6 -119 -14 -125 -4 -4
-4 -14 1 -24 7 -12 13 -14 17 -6 15 23 32 11 32 -24 0 -20 7 -43 17 -52 16
-16 17 -16 17 2 0 11 7 28 15 38 7 11 11 25 9 32 -7 17 27 29 38 13 4 -7 8
-21 8 -30 0 -9 5 -20 10 -23 6 -3 10 -15 10 -25 0 -10 5 -31 10 -46 8 -21 14
-24 22 -16 13 13 18 112 6 112 -5 0 -8 7 -8 15 0 8 4 15 9 15 13 0 21 -26 21
-65 0 -19 4 -36 10 -40 5 -3 7 -13 4 -23 -5 -16 -5 -16 5 0 6 9 12 27 13 40 2
27 -29 97 -52 116 -12 10 -7 12 32 10 30 -2 48 -8 48 -15 0 -7 7 -13 15 -13
10 0 15 -10 15 -29 0 -32 15 -49 23 -27 3 7 0 48 -6 91 -9 69 -9 78 6 87 9 5
17 16 17 25 0 14 4 12 21 -6 16 -17 19 -25 10 -31 -7 -4 -12 -10 -12 -14 1 -3
0 -16 0 -28 -1 -17 -2 -19 -6 -5 -2 9 -11 17 -20 17 -10 0 -13 -5 -8 -17 3
-10 11 -42 17 -71 9 -44 13 -50 23 -36 9 13 14 14 20 4 4 -7 2 -15 -4 -20 -9
-5 -9 -13 0 -33 10 -21 9 -29 -5 -43 -10 -10 -15 -26 -12 -38 3 -12 2 -36 -2
-55 -7 -32 -9 -33 -24 -18 -22 22 -26 21 -30 -5 -5 -32 -28 -35 -28 -3 0 17 4
24 12 19 7 -5 8 -3 2 7 -4 8 -7 25 -5 38 2 19 -1 22 -14 17 -9 -3 -21 -6 -26
-6 -5 0 -9 -9 -9 -20 0 -26 -13 -25 -25 2 -6 12 -16 24 -23 26 -10 3 -13 -12
-11 -69 1 -41 7 -80 12 -86 5 -7 7 -20 3 -28 -3 -9 -2 -14 3 -11 8 5 31 -36
31 -56 0 -6 8 -20 17 -30 12 -13 17 -36 17 -74 0 -30 4 -54 8 -54 4 0 8 -5 8
-11 0 -11 24 -39 34 -39 3 0 6 8 6 18 0 12 7 18 20 17 21 -1 41 -15 22 -15 -7
0 2 -19 18 -42 23 -31 29 -49 25 -68 -4 -16 -3 -20 3 -12 13 20 21 -6 15 -44
l-6 -29 29 25 c16 14 31 26 32 27 2 1 -4 18 -13 38 -10 19 -15 39 -11 43 14
14 42 -17 73 -82 19 -38 39 -66 48 -66 8 0 15 -4 15 -10 0 -5 9 -20 20 -32 43
-49 50 -58 50 -69 0 -7 9 -26 20 -45 12 -19 17 -35 11 -38 -6 -4 -15 3 -22 15
-9 17 -13 19 -20 8 -6 -10 -1 -21 20 -39 15 -14 40 -44 54 -67 23 -36 24 -43
11 -54 -13 -10 -13 -14 1 -29 8 -9 15 -21 15 -27 0 -6 5 -13 10 -15 6 -2 12
-14 15 -27 5 -27 12 -36 28 -36 16 0 33 -58 19 -63 -17 -5 -14 -34 7 -61 16
-20 20 -22 39 -10 18 11 26 9 61 -14 33 -22 41 -24 41 -12 0 9 4 14 9 10 6 -3
14 2 18 10 7 12 13 8 26 -20 10 -20 14 -42 10 -48 -4 -7 1 -6 11 2 15 13 18
12 23 -7 3 -14 17 -25 37 -30 22 -6 32 -15 34 -33 2 -13 8 -29 14 -36 5 -6 8
-20 7 -30 -3 -21 20 -73 32 -73 17 0 18 19 2 29 -17 10 -17 12 0 25 23 18 69
9 65 -13 -2 -9 -10 -16 -18 -16 -8 0 -16 -7 -18 -16 -1 -9 4 -16 13 -16 8 0
15 4 15 8 0 4 9 10 19 14 25 8 61 -14 61 -37 0 -9 5 -20 10 -23 6 -3 10 -18
10 -33 0 -15 5 -34 10 -42 8 -12 10 -9 10 12 0 24 4 27 38 30 34 3 37 6 35 31
-2 32 11 35 34 7 10 -11 26 -20 36 -20 9 0 20 -7 24 -15 7 -21 -3 -30 -19 -18
-7 6 -24 14 -38 17 -22 6 -23 5 -7 -4 17 -11 17 -13 2 -30 -13 -15 -14 -23 -5
-39 11 -22 30 -28 30 -11 0 18 30 11 31 -7 0 -15 2 -15 9 2 13 33 36 48 62 39
13 -4 29 -7 36 -6 6 2 12 -2 12 -8 0 -5 7 -10 15 -10 7 0 18 -7 23 -16 5 -9
21 -16 36 -16 19 0 26 -6 26 -19 0 -24 6 -24 37 1 30 24 46 25 62 6 9 -11 9
-19 -1 -35 -7 -11 -9 -24 -5 -28 5 -4 12 -1 16 6 5 7 14 10 20 7 6 -4 9 -10 7
-14 -12 -19 78 -72 93 -55 3 3 0 8 -6 10 -17 6 -16 23 1 23 19 0 110 -41 117
-53 4 -5 11 -7 16 -4 5 3 31 -5 59 -17 27 -13 64 -27 82 -31 28 -6 32 -4 32
13 0 11 -6 23 -12 25 -7 3 6 6 29 6 23 1 45 -4 48 -9 3 -6 17 -7 30 -4 17 4
26 0 34 -14 16 -29 14 -34 -11 -32 -37 3 -48 1 -48 -11 0 -7 -7 -17 -16 -24
-27 -19 -2 -55 39 -56 120 -3 165 -6 187 -14 24 -8 25 -8 8 12 -23 26 -23 32
2 26 11 -3 20 0 20 6 0 16 57 13 63 -3 5 -11 13 -13 36 -6 16 4 32 6 34 4 3
-3 17 -7 33 -10 16 -2 42 -10 57 -16 24 -9 26 -13 13 -20 -9 -5 -20 -7 -25 -4
-5 3 -11 -3 -14 -13 -3 -12 1 -22 10 -25 21 -8 -2 -36 -28 -36 -11 0 -19 -5
-19 -11 0 -8 12 -9 38 -4 20 4 56 8 79 10 23 2 50 10 58 19 15 15 15 17 1 32
-9 8 -16 11 -16 5 0 -6 -7 -11 -16 -11 -11 0 -14 6 -9 20 5 16 2 20 -16 20
-12 0 -19 3 -16 6 4 4 50 6 104 5 159 -4 158 -4 157 -24 -2 -18 16 -23 32 -8
5 6 29 11 54 13 37 2 46 7 48 24 2 16 -2 22 -14 20 -9 0 -18 4 -20 9 -2 6 8
11 24 12 15 1 44 5 65 9 34 6 39 4 35 -12 -2 -13 -14 -21 -38 -24 -27 -4 -36
-10 -38 -28 -3 -19 1 -22 30 -22 18 0 80 -3 137 -6 93 -5 103 -4 98 10 -4 10
-1 16 9 16 12 0 15 9 12 41 -3 42 6 55 29 41 10 -6 10 -16 1 -44 -17 -57 -6
-72 47 -65 25 2 48 1 51 -4 9 -15 24 -10 24 9 0 14 2 15 10 2 9 -13 11 -13 20
0 8 12 10 11 10 -6 0 -27 -17 -34 -80 -34 -27 0 -52 -4 -55 -10 -4 -6 -46 -8
-108 -5 -56 3 -132 6 -169 8 -38 1 -68 5 -68 10 0 4 -10 7 -21 7 -17 0 -19 -3
-10 -13 6 -8 8 -17 4 -21 -12 -12 32 -35 68 -36 19 0 41 -6 47 -12 10 -10 14
-8 19 11 4 16 8 19 14 10 6 -10 23 -10 86 -1 113 17 130 16 158 -14 14 -15 22
-30 19 -35 -3 -5 6 -4 20 3 14 6 26 17 26 25 0 7 5 13 10 13 6 0 10 -6 10 -13
0 -14 41 -57 53 -57 4 0 7 7 7 15 0 9 -6 12 -15 9 -8 -4 -15 -1 -15 5 0 18 29
25 45 11 13 -11 18 -10 28 2 15 19 47 31 47 18 0 -6 9 -5 20 2 11 7 20 18 20
24 0 21 26 23 27 2 2 -27 5 -28 32 -21 19 5 22 11 17 34 -5 26 -2 29 30 35 24
4 39 3 44 -6 5 -7 17 -10 31 -6 l24 7 -24 -14 -23 -14 23 -6 c25 -7 49 8 49
29 0 8 11 19 25 24 14 5 28 17 32 27 6 15 7 15 13 -2 6 -17 8 -17 29 4 21 21
24 21 47 6 14 -9 29 -13 34 -10 6 3 14 -5 20 -19 10 -28 30 -35 30 -11 0 8 -4
15 -10 15 -5 0 -10 5 -10 10 0 6 7 10 15 10 9 0 20 11 25 24 4 13 20 26 33 30
14 3 32 9 41 12 9 3 16 1 16 -5 0 -6 -7 -11 -16 -11 -13 0 -14 -3 -5 -14 6 -8
10 -20 9 -27 -2 -8 7 -15 19 -17 21 -3 22 0 17 28 -4 17 -3 30 2 29 19 -3 35
1 30 9 -2 4 -1 14 4 22 8 12 13 13 29 3 17 -11 19 -10 16 7 -3 17 -1 18 15 7
16 -9 23 -8 37 7 17 18 17 18 -9 12 -37 -8 -35 0 2 19 17 9 30 22 30 30 0 8 7
15 15 15 8 0 15 5 15 11 0 23 28 -11 34 -41 4 -24 11 -30 31 -30 14 0 25 5 25
10 0 9 -15 14 -33 11 -5 -1 -7 4 -4 11 2 7 12 12 21 10 9 -2 15 1 14 5 -5 14
40 56 51 48 6 -3 29 7 50 24 21 17 46 31 54 31 9 0 19 5 22 10 3 5 15 10 27
10 11 0 33 11 50 25 39 33 52 32 45 -5 -4 -16 -2 -30 3 -30 5 0 12 -9 15 -20
9 -27 40 -26 42 1 2 28 23 51 23 26 0 -22 48 -23 56 -2 4 8 12 15 19 15 7 0
15 10 18 21 4 13 11 20 20 16 8 -3 20 -1 28 3 10 7 6 12 -16 20 -17 6 -38 12
-48 13 -17 1 -17 2 -1 14 10 7 21 13 26 13 4 0 8 7 8 15 0 8 9 15 19 15 11 0
23 5 26 10 3 6 14 10 24 10 10 0 29 11 43 24 33 30 55 38 64 24 5 -7 10 -3 16
11 5 15 14 21 23 17 8 -3 37 6 64 19 58 30 58 30 64 8 3 -11 5 -7 6 10 1 27
14 36 26 17 9 -15 35 1 35 22 0 21 36 57 58 58 6 0 12 7 12 16 0 8 4 13 9 9 5
-3 12 -1 16 5 4 6 11 8 16 5 5 -3 6 1 3 9 -3 8 3 19 15 25 25 14 34 14 26 1
-16 -26 16 -5 58 38 59 60 101 92 120 92 8 0 20 6 26 14 6 7 25 16 42 20 17 3
33 14 36 23 2 10 16 27 30 37 21 16 29 17 45 7 11 -7 23 -10 26 -7 3 3 0 6 -6
6 -20 0 -13 35 11 56 36 33 77 55 87 49 6 -3 10 4 10 17 1 20 2 21 11 5 5 -9
7 -22 4 -27 -13 -21 13 -9 43 20 17 16 29 36 26 44 -3 7 2 16 10 19 9 4 16 1
16 -5 0 -20 13 0 15 24 4 39 5 41 12 35 3 -4 12 2 20 13 8 11 20 17 28 14 8
-4 15 -1 15 6 0 6 -5 8 -11 4 -7 -4 -10 -1 -7 7 3 8 12 13 20 11 15 -2 38 36
38 63 0 20 19 19 27 -1 5 -13 8 -13 15 -2 7 10 11 10 15 1 10 -27 21 -11 16
23 -5 29 -2 39 13 48 10 6 24 11 31 11 7 0 32 21 57 47 29 31 51 46 61 42 10
-4 15 0 15 15 0 12 5 21 11 21 6 0 9 7 5 15 -3 9 8 31 27 53 18 20 37 42 42
49 30 37 37 43 45 43 6 0 10 -7 10 -15 0 -8 -6 -15 -13 -15 -9 0 -12 -11 -9
-36 5 -41 20 -34 38 19 8 22 17 31 28 29 14 -3 16 1 11 18 -7 22 11 54 25 45
14 -9 21 27 8 44 -8 10 -3 8 11 -4 22 -18 24 -18 18 -2 -4 10 -3 16 2 12 14
-8 24 14 13 28 -12 16 18 145 36 152 7 2 17 -5 22 -18 8 -21 9 -21 9 6 1 22
-3 27 -24 27 -35 0 -32 23 9 63 18 19 37 44 41 56 3 12 10 19 14 16 5 -2 -1
-32 -13 -65 -17 -51 -19 -62 -7 -69 9 -6 12 -18 7 -37 l-7 -29 17 23 c12 17
14 30 7 45 -5 12 -8 28 -7 35 1 6 2 21 3 33 0 11 5 18 10 14 17 -10 22 13 12
52 -15 60 -22 153 -12 153 5 0 7 -10 3 -22 -5 -21 -4 -22 11 -9 9 7 17 20 17
28 0 8 5 11 10 8 6 -3 10 1 10 10 0 9 10 37 22 63 15 33 23 42 26 29 3 -16 5
-17 15 -3 17 23 46 3 32 -21 -6 -10 -9 -28 -7 -41 3 -18 8 -21 24 -16 17 5 20
3 14 -11 -3 -9 -8 -27 -10 -38 -2 -12 -1 -16 1 -9 3 6 8 12 12 12 4 0 7 9 8
21 5 63 29 96 66 90 4 0 7 4 7 9 0 6 -4 10 -10 10 -14 0 -12 46 3 58 10 8 16
4 25 -18 11 -24 10 -33 -8 -65 -12 -21 -19 -45 -17 -54 3 -13 5 -13 12 4 5 11
17 32 27 47 14 20 16 32 9 50 -5 15 -5 31 0 41 7 11 6 17 -1 17 -5 0 -10 7
-10 16 0 8 -5 12 -11 8 -18 -11 -29 18 -23 56 l7 35 -22 -24 c-11 -13 -21 -28
-21 -34 0 -5 -7 -7 -15 -3 -8 3 -15 1 -15 -4 0 -6 5 -10 10 -10 14 0 13 -33
-2 -48 -16 -16 -28 -15 -28 3 0 8 5 15 11 15 10 0 7 16 -9 59 -3 9 -1 12 6 7
8 -5 12 0 12 13 0 12 -4 21 -10 21 -5 0 -11 8 -11 18 -1 9 -4 4 -8 -12 -6 -32
-28 -38 -23 -7 2 10 -4 21 -13 24 -19 8 -19 35 1 67 14 23 14 23 9 3 -4 -13
-2 -23 4 -23 5 0 12 14 16 30 8 37 23 40 19 4 -1 -15 2 -38 8 -53 10 -24 11
-25 18 -6 4 11 3 23 -3 26 -5 4 -6 12 -2 19 4 6 7 27 7 46 0 19 4 34 9 34 5 0
9 16 9 35 0 29 -4 35 -21 35 -18 0 -20 4 -15 26 4 15 8 38 10 53 2 14 1 18 -1
9 -5 -20 -18 -23 -28 -8 -3 6 -2 10 3 10 5 0 12 18 16 40 7 43 26 55 26 17 0
-13 3 -27 7 -31 4 -3 6 -29 4 -56 -2 -46 10 -67 22 -37 3 7 6 6 6 -5 2 -38 21
-27 21 11 0 32 -4 41 -17 42 -14 0 -13 2 5 9 12 6 22 18 22 30 0 11 4 20 8 20
9 0 8 -47 -2 -105 -6 -29 -5 -36 3 -25 9 13 11 12 12 -5 l0 -20 10 20 c11 25
2 -99 -11 -143 -6 -22 -5 -32 3 -35 9 -3 9 -12 0 -37 -7 -18 -10 -37 -6 -43 9
-14 43 61 43 95 0 19 5 28 16 28 15 0 16 -9 11 -65 -8 -83 6 -84 21 -1 14 73
15 119 5 130 -5 4 -9 20 -10 34 0 15 -3 56 -6 92 -3 42 -1 68 7 73 8 6 8 10
-1 13 -8 4 -10 21 -6 54 5 40 3 51 -11 56 -22 8 -20 24 3 24 10 0 21 6 24 13
9 24 -5 70 -24 74 -14 4 -19 15 -19 42 1 34 2 35 15 17 14 -19 15 -19 15 7 0
17 -8 30 -21 38 -17 8 -20 17 -15 40 3 16 3 43 -1 59 -4 24 -8 28 -19 19 -11
-9 -14 -7 -14 8 0 28 -23 73 -37 73 -7 0 -13 5 -13 11 0 6 9 9 20 6 16 -4 20
0 19 21 -1 17 -3 21 -6 10 -4 -16 -33 -26 -33 -12 0 16 22 44 32 38 12 -8 1
56 -13 70 -5 6 -9 17 -9 25 0 11 4 10 15 -5 14 -18 14 -18 15 9 0 16 4 26 10
22 13 -8 13 20 1 43 -6 9 -12 30 -16 45 -4 22 -11 27 -28 25 -16 -2 -23 3 -25
20 -2 14 1 22 10 20 9 -2 12 9 11 42 -3 60 -11 90 -24 90 -7 0 -8 -7 -4 -17 4
-10 9 -24 12 -30 3 -8 -3 -13 -15 -13 -11 0 -23 -6 -25 -12 -3 -7 -6 1 -6 19
-1 17 5 33 12 36 8 2 11 21 11 53 -3 98 -9 114 -48 141 -20 15 -39 38 -42 52
-4 14 -26 67 -50 117 -24 50 -44 100 -44 109 0 34 -24 85 -42 91 -17 5 -22 17
-19 37 3 18 -29 108 -44 123 -8 8 -15 25 -15 37 0 27 -15 52 -32 52 -7 0 -17
26 -24 60 -20 96 -24 109 -45 135 -16 21 -20 23 -28 10 -8 -11 -12 -8 -21 15
-7 17 -14 47 -17 68 -3 20 -9 37 -14 37 -5 0 -6 -7 -3 -15 3 -8 -1 -22 -10
-30 -15 -15 -16 -15 -16 4 0 12 -6 21 -14 21 -16 0 -56 51 -56 70 0 9 4 9 17
-1 15 -12 16 -12 10 5 -4 10 -3 24 3 31 20 24 -8 27 -29 3 l-21 -22 -1 25 c0
13 -3 18 -6 11 -6 -17 -63 37 -63 60 0 21 -16 24 -23 6 -4 -10 -6 -10 -6 0 -1
8 8 16 19 19 11 3 20 9 20 14 0 5 9 9 20 9 15 0 20 7 20 24 0 19 -5 24 -20 23
-12 -1 -20 -8 -20 -20 0 -13 -5 -17 -16 -13 -9 3 -20 6 -25 6 -5 0 -9 5 -9 11
0 6 9 9 20 6 19 -5 20 -1 18 34 -2 33 -5 38 -20 33 -24 -7 -23 7 2 29 24 20
26 43 4 51 -23 9 -24 8 -25 -21 0 -16 -3 -22 -6 -15 -2 6 -10 12 -16 12 -22 1
-49 28 -41 41 5 9 11 7 21 -6 7 -11 13 -13 13 -7 0 7 8 12 18 12 14 1 13 4 -7
20 -13 11 -29 20 -36 20 -8 0 -16 9 -20 20 -9 30 -63 81 -67 63 -2 -11 -7 -11
-26 3 -19 13 -21 19 -11 30 9 12 9 18 0 27 -9 9 -14 9 -21 -3 -8 -12 -11 -11
-16 8 -6 20 -11 22 -55 19 -44 -4 -67 5 -37 15 6 2 -3 10 -20 17 -18 8 -32 17
-32 22 0 5 -13 9 -30 9 -20 0 -30 5 -30 15 0 8 -7 15 -16 15 -11 0 -14 6 -9
20 4 12 2 20 -4 20 -14 0 -54 -22 -63 -35 -4 -5 -8 1 -8 15 0 30 -9 44 -32 53
-10 3 -18 11 -18 16 0 5 8 11 18 14 16 4 16 4 -2 12 -12 5 -21 3 -26 -5 -11
-18 -41 5 -33 26 3 8 0 14 -6 14 -6 0 -11 10 -11 23 1 19 2 20 10 5 6 -9 18
-14 29 -11 11 3 25 -4 37 -19 11 -14 25 -23 33 -20 10 3 12 0 8 -12 -4 -9 -2
-16 3 -16 6 0 10 5 10 12 0 9 3 9 12 0 10 -10 10 -15 1 -20 -8 -5 -9 -12 -2
-22 8 -13 11 -12 21 5 12 19 12 19 18 -5 4 -16 13 -25 27 -26 22 -1 63 -37 63
-55 0 -6 7 -8 16 -5 9 3 22 6 30 6 10 0 7 8 -11 27 -24 27 -35 73 -16 73 11 0
1 53 -13 63 -6 5 -1 7 12 4 19 -5 21 -3 11 9 -6 8 -8 14 -3 14 5 0 4 4 -3 8
-7 4 -10 17 -6 31 4 18 11 22 30 18 l24 -4 -27 28 c-24 25 -53 32 -39 8 4 -5
2 -16 -3 -25 -8 -15 -11 -14 -29 5 -11 12 -30 23 -42 24 -11 1 -21 7 -21 14 0
12 -26 18 -58 14 -7 -1 -16 6 -20 16 -4 10 -18 19 -32 21 -19 2 -22 0 -10 -8
9 -6 10 -10 3 -10 -6 0 -18 8 -25 18 -8 10 -28 18 -53 19 -22 1 -34 -2 -27 -6
26 -16 -14 -33 -60 -26 -31 4 -39 3 -28 -4 11 -8 12 -13 3 -22 -6 -6 -9 -18
-6 -25 10 -27 -5 -14 -26 22 -17 28 -18 35 -6 31 8 -4 15 -3 15 2 0 4 -18 15
-40 24 l-39 15 -7 -59 c-4 -33 -10 -62 -14 -64 -14 -9 -23 74 -10 90 7 8 10
20 7 27 -4 8 -6 7 -6 -4 -1 -10 -5 -18 -10 -18 -18 0 -41 12 -41 22 0 10 -38
48 -47 48 -2 0 -2 -8 2 -19 4 -12 0 -21 -11 -25 -12 -5 -15 -2 -10 9 3 9 -3
25 -13 36 -17 18 -19 19 -25 3 -6 -16 -8 -16 -21 2 -12 17 -14 17 -20 2 -4 -9
-8 -25 -9 -35 -2 -12 -12 -18 -30 -18 -15 -1 -31 -7 -35 -14 -10 -15 -36 7
-46 39 -3 11 -13 20 -22 20 -13 0 -13 3 -3 15 7 8 8 15 3 15 -5 0 -15 -11 -21
-25 -10 -22 -16 -24 -63 -22 -42 3 -54 7 -60 24 -7 21 -10 21 -55 7 -42 -12
-49 -12 -65 2 -9 8 -20 11 -23 6 -3 -5 -17 -7 -31 -4 -14 2 -36 -3 -50 -12
-14 -9 -25 -12 -25 -6 0 5 -17 10 -37 10 -32 0 -116 6 -173 12 -8 0 -18 6 -23
12 -5 7 -11 5 -18 -7 -8 -14 -14 -16 -25 -6 -13 11 -29 10 -65 -5 -10 -4 -23
0 -33 10 -16 15 -18 15 -32 -2 -14 -19 -14 -19 -29 0 -11 14 -22 17 -50 13
-19 -3 -35 -2 -35 4 0 5 -4 9 -10 9 -5 0 -10 -6 -10 -14 0 -26 -29 -27 -36 -2
-6 25 -44 44 -44 23 0 -7 -4 -7 -9 2 -6 10 -18 12 -37 6 -16 -4 -49 -9 -74
-12 -25 -3 -49 -9 -54 -14 -18 -16 -34 -10 -29 11 3 11 4 19 2 18 -2 0 -28 -6
-56 -11z m427 -36 c0 -19 -22 -23 -38 -7 -15 15 -14 16 11 16 15 0 27 -4 27
-9z m-55 -10 c3 -5 1 -12 -5 -16 -5 -3 -10 1 -10 9 0 18 6 21 15 7z m-290 -21
c3 -5 -1 -10 -9 -10 -9 0 -16 5 -16 10 0 6 4 10 9 10 6 0 13 -4 16 -10z m-195
-9 c0 -5 -12 -11 -27 -14 -16 -3 -36 -9 -45 -12 -11 -4 -18 -3 -18 4 0 6 15
15 33 20 42 12 57 13 57 2z m590 -1 c0 -5 -12 -10 -27 -9 l-28 1 25 8 c14 4
26 8 28 9 1 1 2 -3 2 -9z m610 0 c0 -5 -10 -10 -22 -10 -19 0 -20 2 -8 10 19
13 30 13 30 0z m-1124 -20 c9 0 12 -5 8 -11 -3 -6 -17 -9 -30 -6 -13 2 -24 0
-24 -4 0 -11 -60 -36 -105 -45 -31 -5 -33 -4 -28 16 4 15 8 18 13 10 11 -17
30 -3 23 16 -5 13 -1 15 15 9 13 -4 22 -2 22 4 0 6 5 11 10 11 6 0 10 -7 10
-15 0 -8 5 -15 10 -15 6 0 10 7 10 15 0 8 9 15 20 15 11 0 20 6 21 13 0 10 2
10 6 0 2 -7 11 -13 19 -13z m-266 -32 c0 -4 -7 -8 -15 -8 -10 0 -15 10 -15 28
1 26 1 26 15 8 8 -11 15 -23 15 -28z m1560 38 c0 -3 -4 -8 -10 -11 -5 -3 -10
-1 -10 4 0 6 5 11 10 11 6 0 10 -2 10 -4z m-920 -16 c0 -5 -5 -10 -11 -10 -5
0 -7 5 -4 10 3 6 8 10 11 10 2 0 4 -4 4 -10z m337 -22 c-3 -7 -5 -2 -5 12 0
14 2 19 5 13 2 -7 2 -19 0 -25z m753 2 c0 -5 -7 -10 -15 -10 -8 0 -15 5 -15
10 0 6 7 10 15 10 8 0 15 -4 15 -10z m77 -5 c8 -22 -6 -33 -17 -15 -13 20 -12
30 0 30 6 0 13 -7 17 -15z m-307 -26 c0 -10 -4 -19 -9 -19 -5 0 -8 11 -7 24 1
28 16 24 16 -5z m673 16 c0 -6 -7 -11 -16 -13 -12 -3 -15 1 -11 13 7 17 25 17
27 0z m-1728 -5 c-3 -5 -13 -10 -21 -10 -8 0 -12 5 -9 10 3 6 13 10 21 10 8 0
12 -4 9 -10z m-726 -9 c17 -11 6 -31 -17 -31 -11 0 -18 8 -18 20 0 21 12 25
35 11z m321 -28 c0 -7 -4 -13 -10 -13 -5 0 -10 12 -10 28 0 21 2 24 10 12 5
-8 10 -21 10 -27z m1130 27 c0 -5 -4 -10 -10 -10 -5 0 -10 5 -10 10 0 6 5 10
10 10 6 0 10 -4 10 -10z m1037 -15 c-15 -16 -22 -11 -13 10 3 9 10 13 16 10 6
-4 5 -11 -3 -20z m-1160 -17 c-3 -8 -6 -5 -6 6 -1 11 2 17 5 13 3 -3 4 -12 1
-19z m1046 14 c3 -4 -3 -18 -14 -31 l-19 -23 0 24 c0 33 21 51 33 30z m210
-45 c6 -16 14 -18 46 -12 36 6 90 -9 78 -22 -3 -2 -15 0 -26 7 -12 6 -21 7
-21 2 0 -6 8 -12 19 -15 19 -5 35 -54 20 -63 -5 -2 -3 -15 2 -28 8 -17 8 -30
-2 -47 -9 -18 -13 -20 -17 -9 -8 27 -34 49 -49 43 -13 -5 -12 -1 3 23 10 16
22 32 27 35 5 3 2 9 -7 12 -10 4 -16 1 -16 -8 0 -7 -4 -16 -9 -19 -13 -8 -69
26 -74 44 -5 20 29 24 37 4 3 -8 10 -14 15 -14 23 0 -3 29 -47 50 -25 13 -41
25 -34 28 7 2 12 12 12 23 0 19 1 19 18 2 11 -10 22 -26 25 -36z m-263 -18 c0
-5 8 -9 19 -9 10 0 24 -7 31 -15 7 -8 18 -15 26 -15 12 0 34 -29 34 -46 0 -3
-9 -4 -20 -1 -10 3 -20 1 -22 -5 -6 -18 -34 3 -63 50 -39 61 -39 63 -21 56 9
-3 16 -10 16 -15z m-140 4 c0 -2 -6 -10 -13 -18 -11 -11 -15 -10 -25 5 -9 15
-7 18 14 18 13 0 24 -3 24 -5z m230 -13 c0 -5 -4 -10 -10 -10 -5 0 -10 5 -10
10 0 6 5 10 10 10 6 0 10 -4 10 -10z m-152 -43 c7 -15 10 -31 7 -37 -7 -11
-35 -2 -35 12 0 5 4 6 10 3 6 -4 7 1 3 11 -4 11 -8 13 -11 6 -6 -18 -19 -14
-25 7 -11 42 31 40 51 -2z m182 -61 c0 -3 -4 -8 -10 -11 -5 -3 -10 -1 -10 4 0
6 5 11 10 11 6 0 10 -2 10 -4z m370 -242 c0 -3 -7 -12 -15 -21 -20 -19 -32
-10 -14 11 14 15 29 21 29 10z m130 -109 c7 -9 8 -15 2 -15 -5 0 -12 7 -16 15
-3 8 -4 15 -2 15 2 0 9 -7 16 -15z m55 -133 c-6 -7 -34 29 -34 43 0 6 9 -1 20
-14 11 -13 17 -26 14 -29z m32 -47 c0 -8 -4 -12 -9 -9 -4 3 -8 9 -8 15 0 5 4
9 8 9 5 0 9 -7 9 -15z m33 -70 c0 -5 -5 -3 -10 5 -5 8 -10 20 -10 25 0 6 5 3
10 -5 5 -8 10 -19 10 -25z m40 -9 c0 -3 -4 -8 -10 -11 -5 -3 -10 -1 -10 4 0 6
5 11 10 11 6 0 10 -2 10 -4z m-5260 -175 c0 -6 -4 -13 -10 -16 -5 -3 -10 1
-10 9 0 9 5 16 10 16 6 0 10 -4 10 -9z m-120 -17 c0 -8 -4 -12 -10 -9 -5 3
-10 10 -10 16 0 5 5 9 10 9 6 0 10 -7 10 -16z m-300 -394 c0 -5 -7 -10 -15
-10 -8 0 -15 5 -15 10 0 6 7 10 15 10 8 0 15 -4 15 -10z m-311 -290 c9 0 8 -4
-3 -15 -24 -24 -42 -18 -44 17 -2 30 -2 31 16 15 10 -9 24 -17 31 -17z m61
-25 c0 -11 -26 -50 -37 -58 -7 -4 -13 -15 -13 -22 0 -8 -4 -15 -10 -15 -5 0
-10 7 -10 15 0 8 5 15 11 15 6 0 9 6 6 13 -2 6 5 22 16 35 19 20 37 29 37 17z
m-70 -114 c0 -6 -4 -13 -10 -16 -5 -3 -10 1 -10 9 0 9 5 16 10 16 6 0 10 -4
10 -9z m-160 -41 c0 -5 -4 -10 -10 -10 -5 0 -10 5 -10 10 0 6 5 10 10 10 6 0
10 -4 10 -10z m106 -47 c-11 -11 -19 6 -11 24 8 17 8 17 12 0 3 -10 2 -21 -1
-24z m34 7 c0 -5 -5 -10 -11 -10 -5 0 -7 5 -4 10 3 6 8 10 11 10 2 0 4 -4 4
-10z m-50 -33 c0 -8 -9 -22 -20 -32 -18 -16 -20 -16 -20 -2 0 10 5 17 10 17 6
0 10 7 10 15 0 8 5 15 10 15 6 0 10 -6 10 -13z m6731 -97 c13 -9 0 -40 -17
-40 -9 0 -14 11 -14 33 0 17 -3 43 -6 57 -3 17 0 14 11 -10 9 -19 20 -37 26
-40z m-6839 11 c-12 -22 -20 -27 -29 -19 -10 8 -9 14 8 29 32 28 40 23 21 -10z
m40 -3 c-7 -7 -12 -8 -12 -2 0 14 12 26 19 19 2 -3 -1 -11 -7 -17z m-292 -58
c0 -5 -2 -10 -4 -10 -3 0 -8 5 -11 10 -3 6 -1 10 4 10 6 0 11 -4 11 -10z m266
-6 c-3 -9 -6 -18 -6 -20 0 -3 -4 -3 -10 1 -11 7 -2 35 12 35 6 0 7 -7 4 -16z
m-22 -62 c-7 -4 -14 -16 -17 -27 -3 -14 -5 -11 -6 11 -1 35 8 49 23 34 8 -8 7
-13 0 -18z m-244 -99 c0 -5 -4 -15 -10 -23 -11 -18 -25 -7 -17 15 6 15 27 21
27 8z m178 -81 c-7 -18 -16 -32 -20 -32 -4 0 -8 -16 -8 -35 0 -19 5 -35 10
-35 6 0 10 9 10 20 0 11 5 20 10 20 6 0 10 -11 10 -25 0 -18 -7 -26 -26 -31
-17 -4 -29 -2 -35 7 -13 21 -12 -17 1 -41 15 -27 2 -70 -24 -79 -33 -13 -86
-2 -79 16 5 12 7 12 15 1 7 -9 8 -5 4 13 -6 28 16 59 28 40 4 -6 13 -8 20 -5
8 3 17 -2 20 -13 3 -10 3 -4 0 12 -9 45 -6 107 6 119 5 5 10 23 10 38 0 18 5
28 15 28 9 0 18 7 22 16 3 8 9 12 14 7 5 -5 3 -23 -3 -41z m-288 -9 c0 -5 -4
-15 -10 -23 -11 -18 -25 -7 -17 15 6 15 27 21 27 8z m297 -25 c-3 -8 -6 -5 -6
6 -1 11 2 17 5 13 3 -3 4 -12 1 -19z m6721 -49 c-3 -8 -7 -3 -11 10 -4 17 -3
21 5 13 5 -5 8 -16 6 -23z m263 18 c-1 -12 -15 -9 -19 4 -3 6 1 10 8 8 6 -3
11 -8 11 -12z m-7286 -36 c-7 -22 -35 -29 -35 -10 0 12 32 40 38 34 2 -2 1
-13 -3 -24z m327 -3 c-9 -9 -12 -7 -12 12 0 19 3 21 12 12 9 -9 9 -15 0 -24z
m-262 -1 c0 -33 -22 -59 -43 -51 -21 8 -22 23 -1 52 20 29 44 28 44 -1z m7220
-102 c0 -8 -4 -15 -10 -15 -5 0 -10 7 -10 15 0 8 5 15 10 15 6 0 10 -7 10 -15z
m-7270 -30 c0 -8 -4 -15 -10 -15 -5 0 -10 7 -10 15 0 8 5 15 10 15 6 0 10 -7
10 -15z m-99 -72 c-10 -17 -10 -16 -11 3 0 23 13 41 18 25 2 -6 -1 -18 -7 -28z
m7379 -24 c0 -10 -4 -19 -10 -19 -5 0 -10 12 -10 26 0 14 4 23 10 19 6 -3 10
-15 10 -26z m-7122 -31 c-10 -6 -10 -10 2 -17 12 -9 12 -14 -3 -45 -9 -20 -13
-36 -8 -36 5 0 12 8 15 17 5 12 10 13 18 5 8 -8 6 -15 -5 -26 -9 -9 -19 -25
-22 -36 -3 -11 -11 -20 -16 -20 -5 0 -9 -9 -9 -19 0 -11 -4 -23 -10 -26 -5 -3
-10 -15 -10 -25 0 -10 -5 -22 -12 -26 -8 -5 -9 5 -5 36 3 24 11 46 17 50 7 4
9 16 5 29 -5 17 -10 19 -25 11 -14 -8 -20 -6 -23 8 -3 12 -5 9 -6 -8 -2 -23
-3 -24 -15 -7 -8 10 -20 15 -30 11 -12 -4 -16 0 -16 15 0 12 5 21 10 21 6 0
10 9 10 20 0 12 5 17 14 14 8 -3 21 5 30 18 9 12 16 18 16 13 0 -5 5 -4 12 3
13 13 32 16 24 4 -2 -4 -1 -14 5 -22 7 -12 9 -11 9 4 0 11 5 35 12 53 12 32
13 32 20 12 6 -15 4 -25 -4 -31z m-198 -37 c0 -43 -17 -81 -36 -81 -12 0 -15
5 -9 23 4 12 8 33 9 47 4 38 5 40 21 40 10 0 15 -10 15 -29z m230 -133 c0 -16
-3 -19 -11 -11 -6 6 -8 16 -5 22 11 17 16 13 16 -11z m-113 -50 c-3 -8 -6 -5
-6 6 -1 11 2 17 5 13 3 -3 4 -12 1 -19z m23 -127 c0 -75 -7 -88 -36 -67 -14
11 -16 17 -7 27 6 8 14 35 18 62 11 70 25 57 25 -22z m-17 -218 c-1 -65 -3
-144 -5 -176 -1 -40 3 -61 12 -67 11 -7 10 -13 -3 -34 -9 -14 -17 -34 -17 -45
0 -14 -5 -19 -16 -14 -12 5 -14 15 -9 53 4 32 2 55 -7 69 -26 42 -45 20 -39
-46 2 -26 -16 -31 -25 -8 -4 8 -12 15 -20 15 -9 0 -14 11 -14 30 0 17 5 30 10
30 6 0 10 6 10 14 0 8 7 16 15 20 8 3 12 11 9 19 -3 8 2 20 11 27 8 7 15 9 15
4 0 -4 7 1 15 12 9 12 14 14 15 6 0 -7 4 -11 10 -7 5 3 8 49 6 105 -2 102 -1
110 19 110 8 0 10 -34 8 -117z m7174 80 c-3 -10 -5 -4 -5 12 0 17 2 24 5 18 2
-7 2 -21 0 -30z m-7347 -19 c0 -23 -20 -54 -34 -54 -3 0 -6 18 -6 40 0 33 3
40 20 40 15 0 20 -7 20 -26z m220 -84 c10 -6 11 -10 3 -10 -7 0 -13 -7 -13
-15 0 -8 -4 -15 -10 -15 -5 0 -10 11 -10 25 0 27 7 30 30 15z m7066 -57 c-10
-10 -19 5 -10 18 6 11 8 11 12 0 2 -7 1 -15 -2 -18z m-90 -110 c-10 -10 -19 5
-10 18 6 11 8 11 12 0 2 -7 1 -15 -2 -18z m-6909 -20 c-3 -10 -5 -4 -5 12 0
17 2 24 5 18 2 -7 2 -21 0 -30z m6950 -143 c-1 -33 -4 -45 -9 -36 -5 9 -7 28
-4 43 2 16 5 31 5 36 1 4 3 7 5 7 2 0 3 -23 3 -50z m-7040 -27 c-3 -10 -5 -4
-5 12 0 17 2 24 5 18 2 -7 2 -21 0 -30z m-68 -40 c1 -7 -3 -13 -9 -13 -5 0
-10 15 -9 33 0 27 2 29 9 12 5 -11 9 -26 9 -32z m34 12 c-7 -21 -13 -19 -13 6
0 11 4 18 10 14 5 -3 7 -12 3 -20z m-3 -35 c0 -5 -5 -10 -11 -10 -5 0 -7 5 -4
10 3 6 8 10 11 10 2 0 4 -4 4 -10z m273 -70 c3 -11 1 -23 -4 -26 -5 -3 -9 6
-9 20 0 31 6 34 13 6z m6654 -2 c-3 -8 -6 -5 -6 6 -1 11 2 17 5 13 3 -3 4 -12
1 -19z m33 2 c-6 -11 -13 -20 -15 -20 -3 0 -5 9 -5 20 0 11 7 20 15 20 13 0
14 -4 5 -20z m-7183 -82 c-3 -8 -6 -5 -6 6 -1 11 2 17 5 13 3 -3 4 -12 1 -19z
m113 7 c0 -8 -2 -15 -4 -15 -2 0 -6 7 -10 15 -3 8 -1 15 4 15 6 0 10 -7 10
-15z m-93 -37 c-3 -8 -6 -5 -6 6 -1 11 2 17 5 13 3 -3 4 -12 1 -19z m390 -90
c-3 -7 -5 -2 -5 12 0 14 2 19 5 13 2 -7 2 -19 0 -25z m6688 -38 c3 -5 1 -10
-4 -10 -6 0 -11 5 -11 10 0 6 2 10 4 10 3 0 8 -4 11 -10z m-78 -65 c-7 -13
-14 -20 -15 -14 -5 14 6 39 17 39 5 0 4 -11 -2 -25z m-6793 -37 c11 -55 15
-137 7 -142 -5 -3 -14 1 -21 9 -7 9 -8 15 -2 15 10 0 5 28 -16 97 -6 17 -8 34
-4 37 13 13 32 5 36 -16z m4033 -95 c7 -18 -40 -63 -67 -63 -8 0 -24 -7 -34
-15 -11 -8 -29 -15 -39 -15 -18 0 -18 2 6 24 14 13 36 26 49 30 34 9 56 26 41
33 -22 8 -14 23 12 23 15 0 28 -7 32 -17z m2731 -28 c-1 -13 -6 -21 -10 -17
-5 5 -6 16 -2 25 9 24 14 21 12 -8z m-35 -45 c-3 -11 -9 -20 -14 -20 -11 0
-11 3 -3 24 9 23 23 20 17 -4z m52 0 c3 -5 1 -10 -4 -10 -6 0 -11 5 -11 10 0
6 2 10 4 10 3 0 8 -4 11 -10z m-6538 -139 c-1 -17 -6 -26 -10 -21 -8 7 -1 50
8 50 2 0 3 -13 2 -29z m-53 -43 c5 -14 6 -34 2 -44 -6 -15 -9 -14 -26 14 -11
18 -20 39 -20 46 0 24 34 11 44 -16z m266 -81 c0 -5 -4 -5 -10 -2 -5 3 -10 14
-10 23 0 15 2 15 10 2 5 -8 10 -19 10 -23z m5890 -161 c0 -3 -4 -8 -10 -11 -5
-3 -10 -1 -10 4 0 6 5 11 10 11 6 0 10 -2 10 -4z m-5740 -186 c0 -5 -5 -10
-11 -10 -5 0 -7 5 -4 10 3 6 8 10 11 10 2 0 4 -4 4 -10z m27 -72 c-3 -8 -6 -5
-6 6 -1 11 2 17 5 13 3 -3 4 -12 1 -19z m5455 0 c-6 -6 -15 -8 -19 -4 -4 4 -1
11 7 16 8 5 17 7 19 4 3 -2 -1 -10 -7 -16z m-5488 -14 c8 -21 8 -24 -3 -24 -5
0 -11 9 -14 20 -6 24 8 27 17 4z m-98 -62 c-11 -10 -15 4 -8 28 l7 25 3 -23
c2 -13 1 -26 -2 -30z m224 21 c0 -5 -4 -14 -9 -21 -7 -11 -9 -11 -14 1 -3 8
-3 18 0 21 9 8 23 7 23 -1z m-186 -46 c-10 -28 -24 -19 -24 15 0 29 2 31 15
17 9 -9 13 -23 9 -32z m76 -27 c0 -5 -2 -10 -4 -10 -3 0 -8 5 -11 10 -3 6 -1
10 4 10 6 0 11 -4 11 -10z m-5 -30 c10 -11 15 -20 11 -20 -4 0 -16 9 -28 20
-12 11 -17 20 -11 20 5 0 18 -9 28 -20z m255 -21 c0 -6 -4 -7 -10 -4 -5 3 -10
11 -10 16 0 6 5 7 10 4 6 -3 10 -11 10 -16z m-145 1 c3 -5 11 -7 18 -5 7 3 20
-8 29 -25 16 -27 16 -30 1 -30 -9 0 -25 7 -35 17 -35 31 -30 4 6 -30 33 -32
46 -57 30 -57 -11 0 -104 104 -104 116 0 3 7 4 15 0 9 -3 15 0 15 9 0 17 16
20 25 5z m-77 -85 c-3 -3 -9 2 -12 12 -6 14 -5 15 5 6 7 -7 10 -15 7 -18z
m-33 -6 c12 -19 -5 -23 -22 -6 -16 16 -16 17 -1 17 9 0 20 -5 23 -11z m218 -3
c19 -15 23 -40 5 -34 -14 5 -43 48 -32 48 5 0 17 -7 27 -14z m177 -226 c8 -5
11 -12 7 -16 -4 -4 -15 0 -24 9 -18 18 -8 23 17 7z m145 -150 c3 -5 2 -10 -4
-10 -5 0 -13 5 -16 10 -3 6 -2 10 4 10 5 0 13 -4 16 -10z m390 -70 c3 -5 -1
-10 -9 -10 -9 0 -16 5 -16 10 0 6 4 10 9 10 6 0 13 -4 16 -10z m3392 -87 c-9
-9 -19 -14 -23 -11 -10 10 6 28 24 28 15 0 15 -1 -1 -17z m-3271 -28 c10 -8
14 -15 8 -15 -5 0 -19 7 -30 15 -10 8 -14 15 -8 15 5 0 19 -7 30 -15z m394 6
c0 -6 -4 -13 -10 -16 -5 -3 -10 1 -10 9 0 9 5 16 10 16 6 0 10 -4 10 -9z m100
-21 c0 -5 -7 -10 -15 -10 -8 0 -18 0 -22 -1 -4 0 -9 4 -11 10 -2 6 8 11 22 11
14 0 26 -4 26 -10z m-173 -52 c-3 -8 -6 -5 -6 6 -1 11 2 17 5 13 3 -3 4 -12 1
-19z m2503 -23 c0 -8 -7 -15 -16 -15 -14 0 -14 3 -4 15 7 8 14 15 16 15 2 0 4
-7 4 -15z m-145 -22 c11 -15 8 -21 -20 -40 -18 -12 -50 -25 -70 -27 -20 -3
-42 -9 -48 -14 -7 -5 -27 -13 -45 -17 -34 -7 -34 -6 -45 38 -3 13 76 38 83 26
4 -6 17 -4 34 5 18 9 23 16 14 19 -7 3 1 6 19 6 17 1 35 6 38 11 9 15 26 12
40 -7z m-2085 -62 c0 -23 -16 -36 -25 -21 -3 5 -17 10 -31 10 -13 0 -24 5 -24
11 0 6 7 9 15 6 8 -4 17 -2 20 3 11 18 45 11 45 -9z m1798 -23 c-2 -26 -7 -33
-23 -31 -11 1 -23 -4 -28 -10 -6 -9 -10 -9 -13 -1 -3 6 -16 9 -29 6 -35 -6
-33 25 3 39 15 6 34 15 42 19 8 5 23 9 33 9 15 1 18 -5 15 -31z m-1368 2 c0
-5 -2 -10 -4 -10 -3 0 -8 5 -11 10 -3 6 -1 10 4 10 6 0 11 -4 11 -10z m-185
-20 c3 -5 1 -10 -4 -10 -6 0 -11 5 -11 10 0 6 2 10 4 10 3 0 8 -4 11 -10z
m851 -17 c-10 -10 -19 5 -10 18 6 11 8 11 12 0 2 -7 1 -15 -2 -18z m-639 1
c-3 -3 -12 -4 -19 -1 -8 3 -5 6 6 6 11 1 17 -2 13 -5z m1137 -4 c31 7 59 10
63 7 10 -11 -3 -19 -44 -27 -133 -28 -163 -32 -179 -26 -17 7 -17 9 6 21 14 8
33 14 43 15 9 0 17 5 17 10 0 6 7 6 19 -2 15 -9 31 -9 75 2z m-1059 -10 c3 -5
2 -10 -4 -10 -5 0 -13 5 -16 10 -3 6 -2 10 4 10 5 0 13 -4 16 -10z m858 -50
c-7 -25 -20 -26 -26 -2 -4 13 -5 12 -6 -5 -1 -15 -9 -25 -26 -29 -33 -8 -38
-3 -26 30 9 22 17 26 50 26 34 0 38 -3 34 -20z m67 -10 c0 -5 -4 -10 -9 -10
-6 0 -13 5 -16 10 -3 6 1 10 9 10 9 0 16 -4 16 -10z m-190 -10 c0 -5 -7 -10
-15 -10 -8 0 -15 -4 -15 -10 0 -5 -4 -10 -10 -10 -15 0 0 28 18 33 10 3 18 5
20 6 1 0 2 -3 2 -9z m-930 -20 c0 -5 -7 -10 -16 -10 -8 0 -12 5 -9 10 3 6 10
10 16 10 5 0 9 -4 9 -10z m810 -60 c0 -5 -4 -10 -9 -10 -6 0 -13 5 -16 10 -3
6 1 10 9 10 9 0 16 -4 16 -10z"/>
<path d="M1550 5679 c0 -5 5 -7 10 -4 6 3 10 8 10 11 0 2 -4 4 -10 4 -5 0 -10
-5 -10 -11z"/>
<path d="M1380 5750 c0 -5 5 -10 11 -10 5 0 7 5 4 10 -3 6 -8 10 -11 10 -2 0
-4 -4 -4 -10z"/>
<path d="M1486 5083 c-4 -9 -2 -21 4 -27 7 -7 10 -2 10 17 0 31 -5 34 -14 10z"/>
<path d="M7097 8619 c7 -7 15 -10 18 -7 3 3 -2 9 -12 12 -14 6 -15 5 -6 -5z"/>
<path d="M7260 8606 c0 -21 -27 -40 -33 -24 -4 10 -6 10 -6 0 -2 -22 31 -27
45 -7 16 22 18 45 4 45 -5 0 -10 -6 -10 -14z"/>
<path d="M5207 8603 c-12 -12 -7 -22 8 -17 8 4 15 10 15 15 0 11 -14 12 -23 2z"/>
<path d="M7080 8587 c0 -10 8 -17 18 -17 9 0 13 4 7 8 -5 4 -13 11 -17 16 -5
5 -8 2 -8 -7z"/>
<path d="M7440 8585 c0 -8 6 -15 13 -15 8 0 14 7 14 15 0 8 -6 15 -14 15 -7 0
-13 -7 -13 -15z"/>
<path d="M5025 8563 c-33 -8 -39 -21 -8 -17 15 2 22 1 16 -2 -23 -10 -14 -24
15 -24 15 0 36 8 47 17 19 15 19 15 -12 9 -32 -5 -46 7 -20 17 16 7 -10 7 -38
0z"/>
<path d="M6805 8560 c-3 -5 -1 -10 4 -10 6 0 11 5 11 10 0 6 -2 10 -4 10 -3 0
-8 -4 -11 -10z"/>
<path d="M7137 8550 c-9 -11 -13 -20 -7 -20 5 0 14 9 20 20 6 11 9 20 8 20 -2
0 -11 -9 -21 -20z"/>
<path d="M7320 8560 c0 -5 5 -10 11 -10 5 0 7 5 4 10 -3 6 -8 10 -11 10 -2 0
-4 -4 -4 -10z"/>
<path d="M7226 8534 c-8 -22 -8 -24 8 -24 15 0 28 24 19 34 -11 10 -21 7 -27
-10z"/>
<path d="M7449 8540 c-14 -9 -3 -23 41 -51 24 -16 25 -15 27 10 1 21 -4 29
-27 38 -15 6 -34 7 -41 3z"/>
<path d="M7628 8515 c13 -9 26 -14 29 -11 8 8 3 12 -27 21 l-25 7 23 -17z"/>
<path d="M7684 8481 c20 -22 26 -25 26 -13 0 4 -10 13 -22 21 -23 14 -23 14
-4 -8z"/>
<path d="M7793 8443 c-22 -8 -14 -21 12 -19 14 0 25 4 25 7 0 10 -23 17 -37
12z"/>
<path d="M7750 8395 c0 -5 5 -17 10 -25 5 -8 10 -10 10 -5 0 6 -5 17 -10 25
-5 8 -10 11 -10 5z"/>
<path d="M7670 8380 c-12 -7 -9 -13 13 -30 15 -12 27 -28 27 -37 0 -23 -25 -9
-28 16 -3 18 -6 20 -18 10 -12 -9 -10 -14 11 -31 14 -11 25 -26 25 -34 0 -8 5
-12 10 -9 6 4 8 10 5 15 -3 5 -1 11 5 15 6 4 8 10 5 15 -3 4 1 10 9 13 21 8 8
47 -15 47 -11 0 -19 5 -19 10 0 12 -10 13 -30 0z"/>
<path d="M7760 8307 c0 -9 4 -17 9 -17 13 0 21 -27 15 -45 -5 -11 -11 -12 -24
-5 -10 6 -20 10 -22 10 -3 0 -2 -44 1 -59 1 -2 8 2 16 9 8 6 18 9 24 6 5 -4
12 2 15 12 4 10 15 28 27 40 18 20 18 22 3 22 -10 0 -28 10 -41 22 -20 18 -23
19 -23 5z"/>
<path d="M7957 8305 c-4 -8 0 -26 7 -40 l13 -25 13 29 c6 16 9 35 5 40 -9 16
-32 13 -38 -4z"/>
<path d="M7851 8226 c-9 -10 -8 -16 4 -26 8 -7 15 -18 15 -25 0 -7 7 -16 16
-19 24 -9 31 -7 12 4 -13 8 -15 19 -11 45 4 27 2 35 -9 35 -9 0 -21 -6 -27
-14z"/>
<path d="M8069 8215 c-3 -5 5 -28 17 -50 13 -22 24 -33 24 -25 0 8 3 25 6 37
5 18 3 21 -14 16 -14 -3 -21 1 -24 14 -2 10 -6 14 -9 8z"/>
<path d="M7976 8185 c2 -11 4 -23 4 -27 0 -15 20 -8 20 7 0 8 -4 15 -9 15 -5
0 -11 6 -14 13 -2 6 -3 3 -1 -8z"/>
<path d="M7804 8191 c8 -13 -21 -34 -36 -25 -7 4 -4 -2 7 -13 14 -14 21 -16
23 -7 2 7 12 16 23 19 16 6 17 8 5 21 -16 15 -30 19 -22 5z"/>
<path d="M7690 8180 c-13 -8 -12 -10 3 -10 9 0 17 5 17 10 0 12 -1 12 -20 0z"/>
<path d="M7850 8152 c0 -5 7 -15 15 -22 8 -7 15 -8 15 -2 0 5 -7 15 -15 22 -8
7 -15 8 -15 2z"/>
<path d="M7659 8130 c-12 -8 -11 -12 6 -24 34 -26 47 -17 22 16 -9 11 -18 14
-28 8z"/>
<path d="M7750 8125 c0 -9 6 -12 15 -9 8 4 12 10 9 15 -8 14 -24 10 -24 -6z"/>
<path d="M7990 8114 c-13 -32 -13 -51 0 -59 6 -3 10 1 10 9 0 22 18 20 22 -1
2 -11 6 -14 10 -7 4 6 -1 20 -12 32 -11 12 -17 28 -14 36 3 9 3 16 0 16 -4 0
-11 -12 -16 -26z"/>
<path d="M8140 8116 c0 -9 5 -16 10 -16 6 0 10 4 10 9 0 6 -4 13 -10 16 -5 3
-10 -1 -10 -9z"/>
<path d="M7830 8100 c0 -5 5 -10 11 -10 5 0 7 5 4 10 -3 6 -8 10 -11 10 -2 0
-4 -4 -4 -10z"/>
<path d="M7884 8085 c-4 -14 -4 -28 -1 -31 10 -11 34 20 29 38 -6 26 -21 22
-28 -7z"/>
<path d="M8051 8085 c8 -11 20 -26 27 -33 6 -7 12 -21 12 -31 0 -10 8 -17 20
-17 11 0 20 3 20 6 -1 3 -22 25 -47 50 -26 25 -40 36 -32 25z"/>
<path d="M8210 8084 c0 -8 5 -12 10 -9 6 4 8 11 5 16 -9 14 -15 11 -15 -7z"/>
<path d="M7814 8065 c8 -8 20 -15 26 -15 7 0 6 6 -4 15 -8 8 -20 15 -26 15 -7
0 -6 -6 4 -15z"/>
<path d="M8270 8066 c0 -9 5 -16 10 -16 6 0 10 4 10 9 0 6 -4 13 -10 16 -5 3
-10 -1 -10 -9z"/>
<path d="M8224 8062 c-16 -11 -26 -44 -12 -40 6 2 15 14 19 26 9 24 9 25 -7
14z"/>
<path d="M8223 8004 c-3 -8 -1 -20 6 -27 8 -8 11 -4 11 16 0 30 -7 35 -17 11z"/>
<path d="M8310 8010 c0 -6 7 -10 15 -10 8 0 15 2 15 4 0 2 -7 6 -15 10 -8 3
-15 1 -15 -4z"/>
<path d="M7925 8000 c-3 -5 -1 -10 4 -10 6 0 11 5 11 10 0 6 -2 10 -4 10 -3 0
-8 -4 -11 -10z"/>
<path d="M7966 7994 c-9 -23 -7 -34 4 -34 6 0 10 7 10 15 0 8 5 15 10 15 6 0
10 5 10 10 0 16 -27 11 -34 -6z"/>
<path d="M8050 7996 c0 -9 5 -16 10 -16 6 0 10 4 10 9 0 6 -4 13 -10 16 -5 3
-10 -1 -10 -9z"/>
<path d="M8354 7974 c3 -8 6 -18 6 -20 0 -3 5 -2 10 1 15 9 12 22 -6 29 -12 5
-15 2 -10 -10z"/>
<path d="M8000 7972 c0 -7 9 -21 20 -32 11 -11 20 -16 20 -12 0 5 -9 19 -20
32 -11 13 -20 18 -20 12z"/>
<path d="M8152 7954 c7 -15 14 -21 16 -15 5 16 -5 41 -17 41 -7 0 -6 -10 1
-26z"/>
<path d="M8212 7862 c4 -15 2 -22 -8 -22 -8 0 -14 -10 -14 -26 0 -14 4 -23 10
-19 6 3 10 13 10 21 0 8 5 14 10 14 14 0 13 37 -2 46 -8 5 -9 0 -6 -14z"/>
<path d="M8431 7854 c0 -11 3 -14 6 -6 3 7 2 16 -1 19 -3 4 -6 -2 -5 -13z"/>
<path d="M8040 7850 c0 -5 5 -10 11 -10 5 0 7 5 4 10 -3 6 -8 10 -11 10 -2 0
-4 -4 -4 -10z"/>
<path d="M8010 7802 c0 -6 6 -12 13 -15 10 -4 10 -7 0 -18 -18 -19 -16 -34 2
-19 18 15 16 51 -2 58 -7 2 -13 -1 -13 -6z"/>
<path d="M8506 7788 c4 -19 2 -28 -7 -28 -7 0 -10 -2 -7 -5 7 -7 38 5 38 14 0
4 -7 16 -15 27 -15 18 -15 18 -9 -8z"/>
<path d="M8066 7754 c-4 -9 -4 -19 -1 -22 3 -3 11 0 17 6 9 9 9 15 1 23 -7 7
-12 5 -17 -7z"/>
<path d="M8286 7757 c3 -10 9 -15 12 -12 3 3 0 11 -7 18 -10 9 -11 8 -5 -6z"/>
<path d="M8108 7714 c-3 -3 -3 -17 1 -32 6 -21 14 -27 35 -27 15 0 34 -8 41
-18 7 -10 16 -14 19 -9 3 5 -4 21 -15 36 -11 15 -17 31 -13 38 4 7 -3 4 -15
-6 -22 -20 -22 -20 -28 2 -5 22 -14 27 -25 16z"/>
<path d="M8370 7673 c0 -23 15 -39 24 -25 3 5 -1 18 -9 28 -14 18 -14 18 -15
-3z"/>
<path d="M8560 7650 c0 -5 5 -10 11 -10 5 0 7 5 4 10 -3 6 -8 10 -11 10 -2 0
-4 -4 -4 -10z"/>
<path d="M8162 7608 c2 -6 10 -14 16 -16 7 -2 10 2 6 12 -7 18 -28 22 -22 4z"/>
<path d="M8220 7605 c0 -8 4 -15 10 -15 5 0 7 7 4 15 -4 8 -8 15 -10 15 -2 0
-4 -7 -4 -15z"/>
<path d="M8095 7580 c3 -5 8 -10 11 -10 2 0 4 5 4 10 0 6 -5 10 -11 10 -5 0
-7 -4 -4 -10z"/>
<path d="M8324 7579 c-3 -6 -1 -15 6 -19 10 -6 9 -9 -1 -13 -8 -3 -4 -6 9 -6
23 -1 26 6 16 33 -7 19 -20 21 -30 5z"/>
<path d="M8260 7543 c0 -10 5 -25 10 -33 8 -12 10 -9 10 12 0 15 -4 30 -10 33
-5 3 -10 -2 -10 -12z"/>
<path d="M8505 7530 c-3 -5 -1 -10 4 -10 6 0 11 5 11 10 0 6 -2 10 -4 10 -3 0
-8 -4 -11 -10z"/>
<path d="M8481 7508 c0 -7 4 -22 9 -33 8 -18 9 -17 9 7 1 15 -3 30 -9 33 -5 3
-10 0 -9 -7z"/>
<path d="M8650 7505 c0 -8 2 -15 4 -15 2 0 11 -3 20 -6 12 -4 16 0 16 15 0 14
-6 21 -20 21 -11 0 -20 -7 -20 -15z"/>
<path d="M8120 7470 c0 -5 5 -10 11 -10 5 0 7 5 4 10 -3 6 -8 10 -11 10 -2 0
-4 -4 -4 -10z"/>
<path d="M8387 7473 c-4 -3 -7 -11 -7 -17 0 -6 5 -5 12 2 6 6 9 14 7 17 -3 3
-9 2 -12 -2z"/>
<path d="M8291 7433 c0 -16 3 -22 6 -15 9 22 33 12 54 -22 13 -23 25 -33 35
-29 21 8 12 39 -10 35 -11 -2 -20 4 -23 17 -3 12 -14 21 -24 21 -11 0 -19 5
-19 10 0 6 -4 10 -10 10 -5 0 -10 -12 -9 -27z"/>
<path d="M8695 7429 c-4 -6 -5 -13 -2 -16 7 -7 27 6 27 18 0 12 -17 12 -25 -2z"/>
<path d="M8400 7420 c0 -5 7 -10 15 -10 8 0 15 5 15 10 0 6 -7 10 -15 10 -8 0
-15 -4 -15 -10z"/>
<path d="M8567 7339 c4 -13 8 -18 11 -10 2 7 -1 18 -6 23 -8 8 -9 4 -5 -13z"/>
<path d="M8440 7308 c0 -16 5 -28 10 -28 13 0 13 20 0 40 -8 12 -10 9 -10 -12z"/>
<path d="M8760 7305 c0 -8 4 -15 10 -15 5 0 7 7 4 15 -4 8 -8 15 -10 15 -2 0
-4 -7 -4 -15z"/>
<path d="M8491 7284 c0 -11 3 -14 6 -6 3 7 2 16 -1 19 -3 4 -6 -2 -5 -13z"/>
<path d="M8416 7262 c-6 -11 24 -72 36 -72 8 0 -10 60 -22 73 -4 5 -11 4 -14
-1z"/>
<path d="M8640 7133 c0 -5 5 -15 10 -23 8 -12 10 -11 10 8 0 12 -4 22 -10 22
-5 0 -10 -3 -10 -7z"/>
<path d="M8599 7027 c-5 -35 4 -57 24 -57 5 0 5 6 -1 13 -6 6 -12 28 -14 47
l-3 35 -6 -38z"/>
<path d="M8662 6963 c1 -60 11 -94 23 -81 4 4 3 13 -1 20 -5 7 -7 24 -6 38 1
14 -2 39 -7 55 -8 26 -10 21 -9 -32z"/>
<path d="M8591 6733 c-1 -18 -1 -36 -2 -40 0 -4 5 -9 11 -11 8 -3 10 3 5 17
-4 14 -2 21 7 21 9 0 9 3 2 8 -6 4 -14 14 -17 22 -3 8 -6 0 -6 -17z"/>
<path d="M8665 6751 c-3 -5 -1 -12 5 -16 5 -3 10 1 10 9 0 18 -6 21 -15 7z"/>
<path d="M8680 6710 c0 -5 5 -10 11 -10 5 0 7 5 4 10 -3 6 -8 10 -11 10 -2 0
-4 -4 -4 -10z"/>
<path d="M8580 6651 c0 -5 7 -11 15 -15 8 -3 15 -17 15 -31 0 -14 5 -25 10
-25 6 0 9 -12 8 -27 -2 -19 2 -28 15 -31 9 -2 17 2 17 8 0 6 -5 8 -11 5 -7 -5
-8 4 -4 27 4 24 0 42 -15 66 -18 29 -50 44 -50 23z"/>
<path d="M8591 6604 c0 -11 3 -14 6 -6 3 7 2 16 -1 19 -3 4 -6 -2 -5 -13z"/>
<path d="M8691 6494 c0 -11 3 -14 6 -6 3 7 2 16 -1 19 -3 4 -6 -2 -5 -13z"/>
<path d="M8700 6444 c-12 -30 -12 -62 0 -89 7 -17 9 -16 10 10 1 17 3 47 5 68
5 43 -1 48 -15 11z"/>
<path d="M8737 6295 c-4 -8 -2 -17 3 -20 6 -4 10 3 10 14 0 25 -6 27 -13 6z"/>
<path d="M1226 5215 c-7 -37 -1 -59 15 -50 10 7 9 85 -2 85 -4 0 -10 -16 -13
-35z"/>
<path d="M8690 5136 c0 -14 4 -27 8 -30 5 -3 9 8 9 24 0 17 -4 30 -9 30 -4 0
-8 -11 -8 -24z"/>
<path d="M8721 5094 c0 -11 3 -14 6 -6 3 7 2 16 -1 19 -3 4 -6 -2 -5 -13z"/>
<path d="M8714 5056 c-8 -22 -2 -27 16 -16 12 7 12 12 3 21 -10 10 -14 9 -19
-5z"/>
<path d="M8697 5001 c-2 -10 -1 -25 4 -32 7 -11 9 -10 9 4 0 9 4 17 10 17 5 0
7 7 4 15 -8 21 -21 19 -27 -4z"/>
<path d="M8782 4930 c0 -14 2 -19 5 -12 2 6 2 18 0 25 -3 6 -5 1 -5 -13z"/>
<path d="M8861 4934 c0 -11 3 -14 6 -6 3 7 2 16 -1 19 -3 4 -6 -2 -5 -13z"/>
<path d="M1325 4920 c-8 -13 3 -30 21 -30 18 0 18 14 0 29 -10 8 -16 9 -21 1z"/>
<path d="M8840 4874 c0 -12 -7 -15 -27 -10 -16 3 -23 3 -17 0 13 -5 0 -84 -15
-94 -5 -3 -12 -24 -15 -46 -6 -32 -3 -45 10 -58 9 -9 19 -14 22 -11 3 3 1 10
-5 16 -6 6 -8 19 -6 30 9 33 36 -30 29 -68 -2 -18 -1 -33 4 -33 12 0 31 70 35
132 2 27 7 59 10 71 4 14 3 18 -3 9 -6 -10 -13 -8 -27 8 -10 11 -14 20 -8 20
5 0 15 11 21 25 7 15 8 25 2 25 -6 0 -10 -7 -10 -16z m-20 -136 c0 -16 -3 -19
-11 -11 -6 6 -8 16 -5 22 11 17 16 13 16 -11z"/>
<path d="M8553 4732 c-25 -28 -28 -38 -13 -47 6 -3 10 3 10 15 0 12 4 19 9 15
5 -3 13 4 16 16 10 29 3 30 -22 1z"/>
<path d="M8871 4674 c0 -11 3 -14 6 -6 3 7 2 16 -1 19 -3 4 -6 -2 -5 -13z"/>
<path d="M8550 4651 c0 -5 5 -13 10 -16 6 -3 10 -2 10 4 0 5 -4 13 -10 16 -5
3 -10 2 -10 -4z"/>
<path d="M8709 4645 c-1 -3 -2 -8 -3 -12 -3 -15 -40 -88 -47 -93 -3 -3 -10
-21 -13 -40 l-7 -35 18 35 c9 19 24 40 33 47 8 7 11 13 5 13 -6 0 -5 3 1 8 12
7 29 82 19 82 -3 0 -6 -2 -6 -5z"/>
<path d="M8738 4600 c-7 -16 -17 -30 -23 -30 -5 0 -2 -7 9 -15 17 -13 17 -16
1 -66 -13 -38 -20 -48 -27 -38 -7 11 -8 9 -4 -4 3 -10 6 -23 6 -27 0 -5 9 -14
20 -20 19 -10 20 -9 9 8 -10 16 -8 31 11 81 12 33 27 61 32 61 6 0 4 7 -3 16
-8 9 -12 27 -11 40 5 33 -4 30 -20 -6z"/>
<path d="M8591 4584 c0 -11 3 -14 6 -6 3 7 2 16 -1 19 -3 4 -6 -2 -5 -13z"/>
<path d="M8810 4574 c0 -11 29 -34 34 -26 2 4 -4 13 -15 20 -10 7 -19 10 -19
6z"/>
<path d="M8486 4535 c15 -24 17 -24 30 -8 16 22 18 33 4 33 -5 0 -10 -8 -10
-17 -1 -17 -1 -17 -14 0 -20 26 -29 20 -10 -8z"/>
<path d="M8681 4484 c0 -11 3 -14 6 -6 3 7 2 16 -1 19 -3 4 -6 -2 -5 -13z"/>
<path d="M1307 4483 c-12 -12 -7 -33 8 -33 17 0 19 9 7 28 -5 7 -11 9 -15 5z"/>
<path d="M1570 4433 c0 -22 2 -25 10 -13 13 20 13 40 0 40 -5 0 -10 -12 -10
-27z"/>
<path d="M8660 4444 c0 -8 5 -12 10 -9 6 3 10 10 10 16 0 5 -4 9 -10 9 -5 0
-10 -7 -10 -16z"/>
<path d="M8810 4424 c0 -8 5 -12 10 -9 6 3 10 10 10 16 0 5 -4 9 -10 9 -5 0
-10 -7 -10 -16z"/>
<path d="M8477 4354 c-10 -14 -17 -32 -15 -42 3 -12 9 -6 22 21 22 45 18 55
-7 21z"/>
<path d="M8620 4371 c0 -6 5 -13 10 -16 6 -3 10 1 10 9 0 9 -4 16 -10 16 -5 0
-10 -4 -10 -9z"/>
<path d="M8580 4341 c0 -6 5 -13 10 -16 6 -3 10 1 10 9 0 9 -4 16 -10 16 -5 0
-10 -4 -10 -9z"/>
<path d="M1345 4301 c3 -18 5 -43 5 -54 0 -14 3 -18 10 -11 7 7 5 25 -5 54
-12 38 -14 40 -10 11z"/>
<path d="M8661 4268 c0 -9 -4 -25 -7 -35 -5 -14 -4 -15 5 -7 7 7 11 22 8 35
-2 13 -5 16 -6 7z"/>
<path d="M8626 4235 c-9 -26 -7 -32 5 -12 6 10 9 21 6 23 -2 3 -7 -2 -11 -11z"/>
<path d="M8541 4203 c-7 -8 -11 -16 -8 -19 2 -2 10 2 17 11 17 20 9 27 -9 8z"/>
<path d="M1371 4184 c0 -11 3 -14 6 -6 3 7 2 16 -1 19 -3 4 -6 -2 -5 -13z"/>
<path d="M8525 4161 c-3 -5 -1 -12 4 -15 5 -3 11 1 15 9 6 16 -9 21 -19 6z"/>
<path d="M8491 4119 c-11 -19 -11 -21 4 -15 9 3 19 6 21 6 2 0 4 7 4 15 0 21
-13 19 -29 -6z"/>
<path d="M8260 4080 c0 -5 5 -10 10 -10 6 0 10 5 10 10 0 6 -4 10 -10 10 -5 0
-10 -4 -10 -10z"/>
<path d="M8255 3960 c-3 -5 1 -10 9 -10 9 0 16 5 16 10 0 6 -4 10 -9 10 -6 0
-13 -4 -16 -10z"/>
<path d="M8347 3902 c-19 -20 -22 -32 -9 -32 5 0 14 11 20 25 14 30 11 31 -11
7z"/>
<path d="M1717 3786 c-7 -19 15 -48 29 -38 7 4 8 15 3 30 -9 25 -24 29 -32 8z"/>
<path d="M1675 3730 c-4 -6 -2 -17 4 -23 15 -15 25 -2 13 19 -7 12 -11 13 -17
4z"/>
<path d="M1842 3709 c2 -6 8 -10 13 -10 5 0 11 4 13 10 2 6 -4 11 -13 11 -9 0
-15 -5 -13 -11z"/>
<path d="M1807 3681 c-7 -28 2 -53 17 -48 17 6 18 30 3 51 -13 18 -14 18 -20
-3z"/>
<path d="M1700 3671 c0 -6 5 -13 10 -16 6 -3 10 1 10 9 0 9 -4 16 -10 16 -5 0
-10 -4 -10 -9z"/>
<path d="M7784 3593 c10 -11 37 -12 30 -2 -3 5 -12 9 -21 9 -9 0 -13 -3 -9 -7z"/>
<path d="M1780 3563 c0 -13 5 -23 10 -23 13 0 13 11 0 30 -8 12 -10 11 -10 -7z"/>
<path d="M1885 3540 c3 -5 8 -10 11 -10 2 0 4 5 4 10 0 6 -5 10 -11 10 -5 0
-7 -4 -4 -10z"/>
<path d="M1905 3361 c-3 -5 -1 -12 4 -15 5 -3 11 1 15 9 6 16 -9 21 -19 6z"/>
<path d="M7418 3333 c7 -3 16 -2 19 1 4 3 -2 6 -13 5 -11 0 -14 -3 -6 -6z"/>
<path d="M2200 3144 c0 -10 3 -14 7 -11 3 4 12 2 20 -5 7 -6 16 -9 19 -6 2 3
-7 13 -21 22 -23 15 -25 15 -25 0z"/>
<path d="M2160 3125 c0 -9 6 -12 15 -9 8 4 15 10 15 15 0 5 -7 9 -15 9 -8 0
-15 -7 -15 -15z"/>
<path d="M2205 3102 c-3 -3 -5 -9 -5 -14 0 -11 47 -10 54 1 6 9 -40 22 -49 13z"/>
<path d="M2265 3030 c3 -5 8 -10 11 -10 2 0 4 5 4 10 0 6 -5 10 -11 10 -5 0
-7 -4 -4 -10z"/>
<path d="M2325 3030 c-3 -5 -1 -10 4 -10 6 0 11 5 11 10 0 6 -2 10 -4 10 -3 0
-8 -4 -11 -10z"/>
<path d="M2360 3010 c0 -5 5 -10 11 -10 5 0 7 5 4 10 -3 6 -8 10 -11 10 -2 0
-4 -4 -4 -10z"/>
<path d="M2300 2995 c7 -9 15 -13 17 -11 7 7 -7 26 -19 26 -6 0 -6 -6 2 -15z"/>
<path d="M2485 2880 c3 -5 14 -10 23 -10 15 0 15 2 2 10 -20 13 -33 13 -25 0z"/>
<path d="M2572 2833 c-10 -4 -10 -8 -1 -19 16 -20 29 -17 29 6 0 20 -5 23 -28
13z"/>
<path d="M2550 2796 c0 -2 7 -9 15 -16 9 -7 15 -8 15 -2 0 5 -7 12 -15 16 -8
3 -15 4 -15 2z"/>
<path d="M2846 2735 c5 -13 4 -16 -4 -11 -7 4 -12 2 -12 -3 0 -13 27 -15 34
-2 3 5 -1 14 -9 21 -13 11 -14 10 -9 -5z"/>
<path d="M3005 2670 c3 -5 8 -10 11 -10 2 0 4 5 4 10 0 6 -5 10 -11 10 -5 0
-7 -4 -4 -10z"/>
<path d="M6232 2643 c-53 -31 -49 -42 4 -14 44 24 54 26 54 10 0 -5 -16 -17
-35 -25 -19 -8 -35 -20 -35 -27 0 -6 -3 -22 -6 -34 -10 -37 20 -28 34 10 12
29 14 31 26 15 19 -26 29 -22 23 9 -3 16 1 32 9 40 12 12 12 16 0 29 -18 18
-22 17 -74 -13z"/>
<path d="M2957 2654 c-7 -8 36 -44 52 -44 17 0 13 21 -6 36 -20 15 -36 17 -46
8z"/>
<path d="M3275 2570 c-7 -11 -3 -13 37 -14 30 -2 26 8 -9 18 -12 4 -24 2 -28
-4z"/>
<path d="M6100 2562 c0 -5 7 -9 15 -9 8 0 12 4 9 9 -3 4 -9 8 -15 8 -5 0 -9
-4 -9 -8z"/>
<path d="M6060 2540 c0 -5 5 -10 10 -10 6 0 10 5 10 10 0 6 -4 10 -10 10 -5 0
-10 -4 -10 -10z"/>
<path d="M3370 2510 c0 -5 5 -10 10 -10 6 0 10 5 10 10 0 6 -4 10 -10 10 -5 0
-10 -4 -10 -10z"/>
<path d="M3568 2513 c6 -2 18 -2 25 0 6 3 1 5 -13 5 -14 0 -19 -2 -12 -5z"/>
<path d="M3455 2480 c3 -5 8 -10 11 -10 2 0 4 5 4 10 0 6 -5 10 -11 10 -5 0
-7 -4 -4 -10z"/>
<path d="M3500 2472 c0 -5 11 -12 25 -15 16 -3 24 0 22 7 -4 14 -47 21 -47 8z"/>
<path d="M5946 2472 c-3 -6 -1 -14 4 -17 15 -9 80 4 80 15 0 13 -17 13 -42 -1
-15 -8 -22 -8 -28 1 -5 8 -10 9 -14 2z"/>
<path d="M5850 2420 c0 -5 5 -10 10 -10 6 0 10 5 10 10 0 6 -4 10 -10 10 -5 0
-10 -4 -10 -10z"/>
<path d="M3600 2390 c13 -23 20 -26 20 -6 0 8 -7 16 -15 20 -13 4 -14 2 -5
-14z"/>
<path d="M3918 2388 c3 -12 -1 -18 -12 -18 -20 0 -21 -16 -1 -24 8 -3 15 -1
15 5 0 6 5 7 10 4 6 -4 9 -19 8 -33 -3 -23 1 -27 25 -30 30 -4 35 9 12 32 -13
13 -12 17 8 33 36 29 24 50 -27 49 -36 -1 -42 -4 -38 -18z"/>
<path d="M4320 2344 c0 -11 -6 -14 -22 -9 -62 18 -61 18 -55 1 4 -9 2 -16 -2
-16 -5 0 -11 5 -13 12 -3 8 -7 6 -11 -5 -8 -22 37 -35 58 -17 15 13 14 14 30
-35 3 -10 17 -15 41 -15 36 0 37 0 31 -36 -4 -25 -2 -34 6 -31 7 2 13 16 15
30 3 24 8 27 45 28 34 1 37 2 17 8 -27 7 -41 41 -17 41 14 0 27 20 27 41 0 16
-52 10 -65 -8 -13 -18 -35 -10 -35 13 0 8 -10 14 -25 14 -16 0 -25 -6 -25 -16z"/>
<path d="M3790 2341 c0 -5 7 -11 15 -15 9 -3 15 0 15 9 0 8 -7 15 -15 15 -8 0
-15 -4 -15 -9z"/>
<path d="M5340 2280 c0 -5 5 -10 10 -10 6 0 10 5 10 10 0 6 -4 10 -10 10 -5 0
-10 -4 -10 -10z"/>
<path d="M4160 2254 c0 -8 5 -12 10 -9 6 4 8 11 5 16 -9 14 -15 11 -15 -7z"/>
<path d="M3630 2240 c8 -5 20 -10 25 -10 6 0 3 5 -5 10 -8 5 -19 10 -25 10 -5
0 -3 -5 5 -10z"/>
<path d="M4870 2170 c0 -5 7 -10 15 -10 8 0 15 5 15 10 0 6 -7 10 -15 10 -8 0
-15 -4 -15 -10z"/>
<path d="M4445 2080 c3 -5 8 -10 11 -10 2 0 4 5 4 10 0 6 -5 10 -11 10 -5 0
-7 -4 -4 -10z"/>
</g>
</svg>
