<?xml version="1.0" standalone="no"?>
<!DOCTYPE svg PUBLIC "-//W3C//DTD SVG 20010904//EN"
 "http://www.w3.org/TR/2001/REC-SVG-20010904/DTD/svg10.dtd">
<svg version="1.0" xmlns="http://www.w3.org/2000/svg"
 width="1024.000000pt" height="1024.000000pt" viewBox="0 0 1024.000000 1024.000000"
 preserveAspectRatio="xMidYMid meet">
<metadata>
Created by potrace 1.16, written by Peter Selinger 2001-2019
</metadata>
<g transform="translate(0.000000,1024.000000) scale(0.100000,-0.100000)"
fill="#000000" stroke="none">
<path d="M3986 9839 c-32 -5 -69 -15 -82 -24 -13 -8 -32 -15 -43 -15 -11 0
-35 -9 -53 -19 -18 -11 -54 -25 -80 -32 -54 -13 -62 -25 -20 -31 46 -6 87 6
86 25 -1 11 6 17 20 17 11 0 59 14 106 30 47 16 102 30 123 30 26 0 37 4 37
15 0 16 -7 17 -94 4z"/>
<path d="M3390 9774 c-30 -14 -32 -17 -16 -23 34 -13 -101 -51 -180 -51 -43 0
-64 -4 -55 -9 23 -15 -36 -46 -89 -46 -48 -1 -79 -16 -142 -72 -52 -45 -111
-73 -155 -73 -21 0 -55 -4 -75 -9 -26 -6 -38 -5 -41 3 -3 7 -11 5 -23 -7 -11
-10 -34 -28 -52 -41 -25 -18 -29 -25 -17 -29 8 -4 15 -11 15 -18 0 -6 -7 -9
-15 -5 -8 3 -18 -1 -22 -8 -5 -7 -18 -18 -30 -25 -34 -17 -31 12 3 34 41 27
22 27 -39 1 -57 -26 -92 -55 -42 -36 35 13 35 13 35 -14 0 -28 -21 -39 -54
-26 -27 10 -39 3 -126 -70 -31 -26 -79 -54 -110 -64 -30 -11 -72 -27 -92 -38
-37 -18 -78 -24 -78 -11 0 4 10 17 22 30 12 13 19 26 16 29 -9 8 -48 -19 -48
-33 0 -7 -9 -17 -19 -23 -11 -5 -23 -19 -26 -30 -3 -11 -13 -20 -21 -20 -19 0
-18 6 7 46 11 19 16 34 11 34 -13 0 -46 -50 -52 -79 -3 -13 -11 -26 -19 -29
-9 -3 -11 2 -6 17 8 26 4 26 -45 1 -48 -24 -62 -43 -26 -34 39 9 31 -3 -16
-27 -44 -22 -55 -24 -50 -8 8 29 -70 -16 -121 -70 -27 -28 -54 -51 -61 -51
-16 0 -96 -82 -96 -100 0 -8 21 6 48 31 26 25 56 52 66 60 18 13 19 12 12 -14
-6 -25 -5 -27 11 -18 10 5 27 18 38 28 50 45 145 113 158 113 7 0 22 9 31 19
17 19 105 55 114 47 2 -2 -1 -13 -7 -24 -6 -12 -11 -28 -11 -37 0 -12 4 -14
19 -5 31 16 38 12 39 -21 1 -28 -2 -31 -24 -26 -16 3 -28 -1 -31 -9 -7 -19
-23 -18 -23 1 0 22 -17 18 -35 -7 -12 -19 -19 -21 -33 -12 -13 9 -24 8 -44 -2
-23 -12 -28 -12 -28 -1 0 7 19 20 43 28 32 12 43 22 45 40 2 21 1 22 -10 9 -7
-8 -35 -26 -61 -39 -36 -18 -46 -28 -42 -41 4 -13 -4 -24 -28 -39 -18 -11 -49
-37 -69 -58 -21 -21 -53 -54 -72 -73 -56 -53 -42 -68 15 -16 50 45 69 55 69
37 0 -14 -101 -102 -190 -166 -46 -33 -100 -73 -119 -90 -36 -30 -36 -30 -17
-49 19 -19 19 -19 38 5 10 13 21 27 25 31 5 3 35 31 69 62 33 31 64 56 67 56
4 0 7 -9 7 -21 0 -11 5 -17 10 -14 6 3 10 18 10 33 1 26 1 26 15 8 8 -11 15
-27 15 -36 0 -18 -40 -60 -57 -60 -6 0 -17 -10 -25 -22 -10 -15 -25 -21 -49
-21 -18 0 -40 -6 -47 -14 -8 -7 -18 -11 -23 -8 -5 4 -9 -3 -9 -14 0 -25 -26
-52 -44 -45 -19 7 -87 -56 -126 -115 -29 -47 -104 -110 -165 -141 -40 -20
-133 -114 -145 -146 -13 -33 -3 -50 18 -31 16 13 52 30 52 23 0 -25 -41 -108
-67 -134 -19 -19 -32 -40 -29 -48 3 -7 -10 -36 -29 -65 -19 -28 -35 -56 -35
-61 0 -6 -16 -26 -36 -46 -19 -19 -38 -48 -41 -64 -3 -16 -14 -33 -25 -39 -10
-6 -30 -35 -43 -65 -24 -54 -41 -67 -52 -39 -7 20 72 181 93 189 10 4 13 13 9
26 -5 16 5 35 40 75 62 73 41 71 -24 -2 -52 -58 -60 -73 -39 -73 7 0 -2 -15
-19 -32 -29 -30 -53 -76 -103 -198 -10 -25 -30 -73 -44 -108 -28 -68 -32 -98
-15 -104 12 -4 2 -58 -12 -58 -14 0 -39 56 -39 87 0 30 23 144 35 178 6 14 5
17 -3 10 -17 -15 -57 -234 -71 -390 -10 -107 -60 -284 -78 -278 -8 3 -13 -4
-13 -16 0 -12 5 -21 10 -21 17 0 11 -26 -10 -45 -31 -28 -67 -169 -51 -195 8
-12 13 -12 30 4 15 14 21 31 21 60 0 44 28 136 42 136 13 0 9 -66 -6 -107 -22
-61 -40 -224 -26 -233 8 -5 5 -14 -12 -29 -20 -20 -23 -20 -26 -5 -2 9 1 19 6
23 12 7 4 91 -8 91 -5 0 -10 -44 -12 -97 -2 -66 -7 -98 -15 -101 -16 -5 -17
-63 -2 -59 7 1 13 -13 15 -33 2 -19 8 -84 14 -145 9 -94 8 -112 -4 -121 -16
-11 -11 -54 5 -54 6 0 13 -8 16 -17 12 -32 55 -99 48 -76 -4 15 0 25 12 31 13
8 15 13 5 24 -14 18 -28 128 -16 127 5 0 23 -8 39 -18 29 -17 37 -51 14 -59
-11 -5 -12 -63 0 -81 5 -7 14 -11 19 -7 12 7 52 -71 52 -102 0 -11 7 -23 16
-26 13 -5 15 -15 11 -46 -6 -48 16 -76 38 -47 11 15 13 14 25 -11 10 -20 14
-23 17 -11 2 9 -12 45 -31 80 -19 35 -37 78 -41 96 -3 17 -13 34 -21 37 -8 3
-14 15 -14 26 0 12 5 18 10 15 13 -8 13 -4 -5 38 -8 19 -20 37 -28 40 -31 12
-47 247 -17 247 13 0 24 -45 17 -70 -3 -11 -1 -23 5 -26 5 -3 8 -15 5 -25 -5
-20 7 -26 18 -9 4 6 11 8 16 5 12 -8 12 -95 -1 -95 -6 0 -8 10 -4 24 3 13 1
27 -4 30 -21 13 -21 -13 -1 -72 19 -57 22 -61 50 -59 27 2 29 5 29 46 0 35 3
42 16 37 9 -3 24 -6 35 -6 25 0 63 -79 57 -121 -3 -16 1 -51 8 -77 12 -43 13
-44 13 -14 1 40 17 42 26 2 8 -35 13 -37 31 -13 11 16 13 16 19 -10 4 -16 5
-49 1 -73 -4 -36 -2 -51 14 -72 11 -15 22 -47 25 -72 l5 -45 -21 45 c-12 25
-28 50 -36 55 -8 6 -18 36 -22 65 -8 53 -8 54 -16 22 -9 -39 -16 -35 -25 15
l-8 38 -1 -40 c0 -22 8 -60 19 -84 11 -24 21 -66 21 -95 1 -28 4 -41 6 -28 6
32 23 27 23 -8 0 -16 6 -33 12 -37 7 -4 13 -16 13 -25 0 -10 4 -18 9 -17 15 1
26 -24 26 -59 0 -18 9 -46 21 -61 22 -29 26 -61 15 -96 -4 -12 -1 -28 8 -40
15 -19 15 -19 9 5 -3 15 -2 22 3 17 5 -5 14 -27 20 -50 7 -31 15 -42 30 -42
15 0 20 -9 25 -44 3 -24 13 -49 22 -56 10 -7 17 -22 17 -35 l0 -23 -19 24
c-10 13 -25 38 -34 54 -21 39 -22 10 -2 -39 9 -20 23 -40 33 -43 23 -9 32 -23
32 -52 0 -20 -4 -22 -25 -17 -32 8 -34 -18 -5 -49 21 -22 39 -85 24 -85 -5 0
-27 28 -48 61 -22 34 -48 66 -58 72 -18 12 -25 37 -10 37 4 0 18 -7 30 -16 33
-23 27 -5 -19 56 -23 30 -51 75 -61 100 -11 25 -29 64 -40 88 -26 54 -14 68
21 23 44 -57 91 -106 91 -95 0 6 -27 46 -60 90 -33 43 -60 82 -60 87 0 4 8 15
18 25 17 17 20 17 30 3 6 -9 11 -11 11 -4 1 6 -5 18 -13 25 -7 8 -16 24 -20
35 -4 14 -13 20 -21 16 -8 -3 -17 1 -19 8 -24 86 -38 129 -42 129 -3 0 -12 -6
-19 -14 -16 -15 -14 -111 3 -142 5 -10 10 -84 10 -164 1 -121 -1 -142 -12
-127 -17 22 -26 22 -26 -1 0 -10 11 -29 25 -42 20 -19 24 -31 21 -59 -3 -20
-5 -39 -5 -43 -1 -5 -8 -8 -17 -8 -8 0 -12 -5 -9 -10 4 -6 10 -8 15 -5 15 9
32 -36 26 -67 -6 -31 10 -157 25 -195 5 -13 14 -23 20 -23 7 0 8 7 4 17 -4 10
-9 33 -12 51 -5 28 -3 32 12 25 14 -5 17 -3 12 10 -10 26 9 20 27 -8 26 -40
37 -29 16 18 -11 23 -20 52 -20 63 0 12 -16 48 -35 80 -38 63 -41 80 -21 107
13 17 14 17 21 0 4 -10 11 -31 16 -48 4 -16 31 -97 58 -179 29 -86 49 -158 45
-169 -4 -12 3 -28 19 -45 14 -15 37 -56 52 -92 15 -36 44 -107 66 -158 21 -51
51 -114 67 -140 15 -26 34 -63 42 -82 7 -19 42 -82 76 -140 34 -58 66 -117 69
-132 4 -16 13 -28 20 -28 15 0 118 -156 120 -181 1 -10 13 -35 27 -56 14 -21
35 -55 47 -75 13 -21 28 -38 36 -38 7 0 15 -12 18 -27 4 -17 44 -67 104 -129
54 -55 124 -131 157 -168 32 -37 61 -65 64 -62 3 3 -11 22 -31 41 -60 58 -46
70 26 24 34 -22 71 -48 82 -57 11 -10 35 -24 54 -31 41 -18 140 -89 203 -147
26 -24 52 -44 58 -44 5 0 32 -16 59 -35 26 -19 53 -35 59 -35 6 0 24 -11 39
-25 42 -37 48 -41 70 -54 40 -21 48 -10 16 18 -18 15 -33 33 -33 39 0 15 30 4
50 -17 8 -10 31 -29 51 -43 20 -15 62 -50 93 -79 31 -28 59 -49 62 -47 2 3 -2
11 -11 18 -27 22 -16 32 13 11 15 -10 37 -19 47 -18 12 1 24 -7 30 -21 5 -12
15 -22 22 -22 6 0 38 -29 69 -65 32 -36 80 -79 107 -97 29 -18 46 -36 43 -44
-4 -10 2 -12 22 -8 19 4 40 -2 64 -16 34 -19 36 -24 33 -62 -2 -29 -14 -57
-39 -91 -21 -27 -35 -51 -32 -54 6 -6 46 20 46 29 0 5 11 8 25 8 14 0 25 -6
25 -14 0 -9 8 -12 25 -8 45 8 32 -36 -26 -90 l-51 -48 31 0 c31 0 42 -13 19
-24 -10 -5 -10 -7 0 -12 6 -3 12 -12 12 -19 0 -11 9 -10 43 5 38 18 43 18 54
4 10 -14 17 -14 44 -5 34 12 49 8 49 -15 0 -8 9 -14 20 -14 11 0 20 -2 20 -3
0 -14 -37 -75 -52 -85 -27 -20 -5 -44 31 -35 24 6 25 5 11 -12 -14 -17 -13
-18 35 -10 58 9 72 9 140 -2 53 -9 54 -10 41 -75 -6 -29 8 -39 18 -13 7 19 42
19 50 0 7 -18 37 -20 56 -2 8 6 7 3 -3 -9 -20 -24 -23 -41 -4 -26 10 9 17 6
29 -8 15 -17 15 -20 -3 -36 -10 -9 -19 -26 -19 -36 0 -10 -21 -39 -46 -65 -33
-33 -43 -48 -33 -54 10 -6 10 -11 0 -22 -9 -12 -9 -16 1 -19 10 -4 10 -8 -1
-22 -13 -15 -12 -16 13 -6 35 13 76 13 76 0 0 -6 -21 -25 -46 -43 -26 -17 -54
-37 -63 -44 -12 -9 -1 -10 52 -8 77 4 76 6 47 -87 -15 -49 -16 -58 -4 -43 8
11 18 32 21 48 5 25 9 27 59 27 61 0 72 -17 32 -50 -13 -10 -20 -21 -17 -25 4
-3 23 8 43 25 20 18 36 27 36 21 0 -5 -16 -23 -35 -38 -41 -33 -45 -46 -10
-37 22 5 25 3 25 -19 0 -17 5 -24 18 -23 12 1 18 -8 20 -32 2 -22 8 -32 20
-32 12 0 13 -3 5 -11 -6 -6 -9 -18 -6 -26 3 -7 -2 -22 -11 -32 -11 -12 -14
-21 -7 -25 12 -8 42 6 61 28 7 9 27 16 44 16 l31 -1 -27 -15 c-38 -20 -35 -26
10 -24 52 3 59 1 43 -9 -20 -13 -6 -61 17 -61 10 0 24 6 32 12 12 11 12 10 3
-2 -13 -18 -5 -70 11 -70 19 1 110 90 91 90 -9 0 -13 5 -9 11 3 6 17 8 30 5
15 -4 43 1 71 14 25 11 54 20 64 20 11 0 19 7 19 15 0 8 6 15 13 15 12 0 57
51 57 66 0 3 -6 4 -14 1 -8 -3 -20 1 -27 9 -10 13 -10 20 0 36 25 40 -2 32
-41 -12 l-40 -45 -80 -2 -80 -3 29 35 c20 24 35 33 51 31 28 -4 41 14 14 20
-16 5 -12 14 38 66 55 59 58 61 88 50 30 -10 32 -10 32 14 0 14 6 24 14 24 22
0 28 -16 10 -30 -8 -7 -13 -19 -10 -26 3 -7 0 -14 -6 -16 -10 -4 24 -48 36
-48 1 0 17 14 34 30 47 45 94 34 75 -17 -5 -12 -2 -15 8 -11 79 29 89 31 112
21 26 -12 77 -6 77 9 0 5 -20 17 -45 28 -25 11 -45 22 -45 26 0 10 63 94 71
94 4 0 11 -5 14 -10 10 -17 36 -11 67 15 21 18 36 23 54 19 20 -5 24 -2 24 15
0 27 26 27 40 1 18 -34 33 -12 25 36 -5 36 -2 51 15 79 40 65 100 97 100 53 0
-21 1 -21 13 -3 10 12 21 16 38 12 20 -5 29 2 59 44 19 28 48 66 63 86 15 21
35 51 43 69 16 33 80 101 69 72 -10 -27 15 -32 40 -8 13 12 36 47 51 77 24 46
32 54 51 50 19 -3 23 0 23 19 0 23 52 72 102 94 17 8 24 18 21 29 -2 9 5 25
16 35 24 22 25 19 11 -19 -9 -24 -8 -26 6 -21 14 5 16 1 10 -26 l-6 -33 21 35
c136 224 228 330 286 330 29 0 119 67 153 115 14 19 40 39 57 45 40 14 77 62
68 89 -4 15 7 28 51 60 32 23 60 41 64 41 4 0 25 17 46 37 32 31 166 140 209
171 6 4 30 24 54 45 31 28 46 36 54 28 11 -11 56 11 109 55 24 19 32 21 56 12
25 -10 34 -8 60 10 36 26 42 27 42 7 0 -21 10 -18 43 10 16 14 27 33 25 43 -4
26 21 55 86 96 69 44 194 153 201 176 10 29 65 83 89 85 30 4 59 19 77 41 12
16 12 17 -3 11 -30 -11 -20 7 25 43 72 59 157 143 151 149 -3 3 -11 -2 -18
-12 -7 -9 -21 -17 -30 -17 -19 0 -22 26 -3 33 9 4 9 7 0 14 -17 12 32 91 71
117 53 34 146 133 146 154 0 26 49 67 64 52 7 -7 1 -19 -17 -38 -15 -15 -27
-32 -27 -37 0 -4 -16 -28 -36 -52 -20 -24 -34 -46 -32 -48 9 -9 117 97 152
149 54 82 114 144 124 128 14 -21 63 5 107 58 22 27 45 49 50 49 6 1 57 51
115 113 58 61 132 139 165 173 168 172 525 618 525 654 0 10 7 24 15 31 16 13
21 50 6 50 -5 0 -22 -15 -38 -32 -16 -18 -38 -38 -49 -44 -10 -6 -34 -37 -52
-68 -20 -35 -39 -56 -47 -53 -7 3 -22 -11 -34 -34 -23 -40 -35 -47 -47 -28 -4
7 -19 -2 -41 -23 -33 -31 -32 -28 17 47 28 44 66 98 85 121 19 22 50 68 69
101 20 34 56 80 81 104 31 29 47 54 51 78 4 20 14 45 24 56 25 30 120 213 120
233 0 9 -22 -21 -48 -68 -64 -113 -95 -162 -130 -202 -16 -18 -41 -55 -55 -83
-14 -27 -56 -93 -93 -145 -38 -52 -86 -120 -107 -150 -54 -79 -104 -136 -112
-128 -7 7 26 67 50 92 34 33 153 231 222 368 14 27 33 46 33 33 0 -4 -5 -15
-10 -26 -7 -13 -7 -19 -1 -19 11 0 41 52 41 71 0 6 16 37 35 69 19 32 35 60
35 64 0 11 -28 6 -33 -6 -4 -8 -6 -7 -6 4 -2 29 11 49 36 59 20 7 24 15 20 35
-3 17 11 65 39 133 24 60 51 144 59 187 18 90 33 134 46 134 5 0 9 17 9 38 0
45 19 153 29 167 4 6 8 22 9 37 1 15 11 59 22 99 10 39 22 105 26 145 6 64 9
74 26 74 17 0 19 7 16 58 -2 31 -8 56 -13 55 -18 -3 -6 150 12 164 11 9 13 16
6 25 -7 8 -9 90 -7 228 4 212 -6 351 -27 377 -6 7 -14 42 -17 78 -4 60 -3 65
15 65 18 0 20 -7 20 -82 -1 -54 3 -83 11 -86 7 -2 12 -17 12 -33 0 -16 5 -29
10 -29 6 0 10 9 10 20 0 17 3 19 20 10 10 -6 17 -17 14 -24 -3 -8 -1 -17 4
-20 6 -3 13 1 16 10 8 22 -4 64 -18 64 -19 0 -67 55 -67 76 -1 10 2 48 6 84 4
44 2 75 -6 95 l-13 30 -3 -30 c-7 -54 -11 -59 -33 -34 l-19 24 -1 -25 c0 -19
-3 -21 -9 -10 -16 29 -21 80 -8 80 8 0 7 3 -2 9 -10 7 -16 33 -19 78 -2 37
-13 94 -23 126 -11 32 -17 62 -14 67 3 4 -2 38 -10 75 -17 70 -15 86 8 67 17
-15 27 -6 27 24 0 13 -8 24 -20 27 -12 3 -28 24 -40 52 -27 62 -25 73 5 45 14
-13 25 -29 25 -37 0 -7 8 -13 17 -13 9 0 29 -12 45 -27 32 -31 47 -26 25 9 -9
12 -21 43 -27 67 -6 23 -14 41 -17 38 -3 -4 0 -20 6 -38 6 -18 10 -34 8 -36
-2 -1 -17 9 -34 23 -20 16 -29 31 -26 43 3 11 -1 22 -8 26 -9 6 -11 2 -6 -14
9 -37 -15 -18 -34 27 -14 33 -15 40 -4 35 13 -5 -2 49 -40 140 -12 28 12 20
35 -14 12 -16 24 -28 26 -26 8 8 -17 60 -46 95 -17 20 -30 45 -30 56 0 25 -41
86 -57 86 -17 0 -16 -15 2 -30 8 -7 15 -25 15 -41 0 -15 5 -31 10 -34 21 -13
40 -64 32 -86 -8 -20 -9 -21 -23 -5 -8 10 -26 29 -41 43 -31 29 -36 46 -13 37
9 -4 15 0 15 10 0 9 -4 16 -10 16 -5 0 -18 17 -29 38 -11 22 -31 46 -45 56
-32 20 -34 40 -4 30 21 -6 22 -6 6 17 -11 16 -24 23 -40 21 -20 -2 -28 6 -46
43 -30 61 -28 66 9 25 18 -20 24 -25 15 -10 -9 14 -21 35 -26 48 -5 12 -16 22
-24 22 -14 0 -77 64 -95 99 -20 36 9 36 39 0 15 -19 32 -31 36 -26 4 4 -6 22
-23 40 -17 17 -35 41 -41 53 -6 11 -37 38 -69 60 -32 21 -64 47 -71 56 -7 10
-68 50 -135 90 -67 40 -130 81 -139 90 -22 22 -57 23 -73 2 -8 -11 -19 -14
-33 -10 -29 10 -28 36 1 36 19 0 18 3 -12 21 -20 12 -40 17 -50 13 -22 -10
-53 -5 -72 12 -8 8 -21 14 -27 14 -7 0 -20 4 -30 9 -84 41 -93 44 -103 34 -8
-8 -4 -16 13 -28 16 -13 18 -16 5 -11 -11 3 -30 9 -43 12 -30 8 -48 36 -32 52
17 17 -34 26 -79 14 -38 -9 -37 -11 13 -27 8 -3 13 -9 9 -15 -4 -6 -25 -2 -57
10 -66 25 -82 40 -43 41 l30 0 -25 11 c-14 5 -39 16 -57 24 -18 7 -35 9 -38 5
-2 -5 2 -11 10 -15 8 -3 12 -12 9 -19 -3 -10 4 -17 20 -21 14 -3 30 -15 36
-27 6 -11 23 -25 38 -31 15 -6 22 -12 15 -15 -7 -2 -35 6 -62 19 -39 18 -47
24 -33 30 14 5 14 7 1 7 -9 1 -24 -8 -34 -19 -10 -11 -29 -20 -42 -20 -12 0
-23 -5 -23 -11 0 -5 -4 -8 -9 -4 -5 3 -13 0 -16 -6 -4 -5 -13 -8 -21 -5 -7 3
-16 1 -19 -4 -3 -4 0 -10 7 -12 6 -2 8 -10 4 -17 -14 -22 -138 10 -148 38 -3
11 -268 17 -395 8 -59 -4 -98 -12 -137 -31 -50 -24 -61 -25 -129 -18 -45 5
-87 4 -108 -2 -32 -10 -29 -11 41 -16 47 -3 68 -8 57 -12 -10 -5 -29 -8 -42
-8 -12 0 -28 -7 -35 -15 -17 -20 -136 -57 -180 -56 -48 1 -90 -8 -90 -21 0 -6
10 -8 23 -4 53 15 77 18 77 8 0 -5 -21 -13 -47 -17 -53 -8 -93 -25 -112 -49
-8 -9 -21 -16 -30 -16 -12 1 -9 7 12 23 15 13 27 26 27 30 0 15 -30 6 -57 -17
-16 -13 -64 -36 -108 -51 -44 -14 -85 -31 -92 -37 -15 -12 -33 -2 -33 18 0 8
-2 14 -4 14 -12 0 -76 -31 -81 -40 -3 -5 -23 -10 -44 -10 -25 0 -44 -7 -56
-20 -10 -11 -28 -20 -41 -20 -13 0 -35 -5 -49 -12 -76 -35 9 60 92 102 23 11
44 26 46 33 4 9 7 9 18 0 10 -10 5 -16 -24 -28 -43 -18 -49 -28 -9 -16 15 5
52 14 82 20 98 21 230 74 227 90 -1 10 10 18 33 23 77 16 96 21 115 34 11 8
27 14 35 14 9 0 25 7 36 15 18 15 17 16 -16 9 -19 -3 -58 -17 -85 -30 -28 -13
-78 -26 -114 -29 -35 -3 -69 -9 -75 -13 -6 -5 -38 -15 -71 -22 -50 -11 -56
-14 -35 -20 21 -6 17 -8 -29 -19 -30 -6 -56 -9 -58 -7 -10 9 9 26 28 26 10 0
19 5 19 10 0 18 -28 10 -56 -15 -15 -14 -36 -25 -46 -25 -30 0 -184 -105 -204
-139 -10 -17 -24 -31 -31 -31 -23 0 -14 14 42 69 58 57 70 80 33 60 -46 -24
-214 -132 -249 -160 -20 -16 -45 -29 -55 -29 -12 0 -31 -18 -48 -46 -21 -33
-34 -44 -47 -41 -13 3 -19 -1 -21 -16 -2 -12 -11 -23 -20 -25 -35 -7 -18 33
37 91 30 31 55 59 55 62 0 15 -25 -2 -94 -65 -77 -71 -90 -78 -101 -60 -3 6
-17 10 -31 10 -14 0 -27 7 -31 15 -8 24 -1 25 42 10 51 -18 65 -18 65 -1 0 7
7 19 15 26 13 11 13 15 3 21 -23 15 -37 10 -40 -16 l-3 -25 -53 25 c-112 52
-134 84 -115 165 15 64 9 110 -15 110 -24 1 -52 24 -52 44 0 9 -8 16 -17 16
-19 0 -51 -17 -43 -22 3 -2 22 -12 42 -22 43 -22 56 -50 35 -74 -9 -10 -13
-33 -12 -59 l3 -42 -58 29 c-33 17 -61 25 -66 20 -12 -12 -77 3 -82 19 -3 9 2
11 14 7 16 -5 19 -1 18 24 -2 46 -2 46 -31 59 -30 14 -44 26 -120 101 -29 29
-51 56 -48 60 10 16 -28 29 -42 15 -17 -17 -17 -25 1 -25 7 0 20 -7 27 -17 13
-15 11 -16 -16 -9 -31 7 -101 73 -97 91 1 6 -20 17 -46 25 -43 14 -47 17 -44
44 2 19 -1 27 -10 23 -7 -2 -12 -12 -10 -22 3 -14 -1 -16 -15 -10 -10 4 -27
10 -38 13 -34 9 -47 24 -40 49 6 26 -19 33 -29 8 -9 -25 -56 9 -49 35 3 12 0
20 -7 20 -6 0 -14 -9 -17 -20 -7 -26 -64 -27 -89 -2 -19 18 -22 19 -129 25
-42 2 -73 0 -77 -7 -4 -7 -21 -3 -47 12 -35 20 -41 21 -54 7 -14 -13 -16 -13
-22 6 -11 33 7 42 56 29 24 -7 46 -16 49 -21 8 -12 50 1 50 16 0 7 -8 16 -17
19 -15 6 -15 8 -3 16 21 13 -22 13 -130 -2 l-88 -11 -32 26 c-17 15 -38 27
-45 27 -7 0 -20 6 -27 13 -14 13 -120 38 -141 33 -7 -1 -9 -1 -4 1 4 3 7 9 7
14 0 14 -72 10 -110 -7z m-90 -133 c0 -17 -22 -24 -72 -23 -26 0 -48 -3 -48
-9 0 -5 -10 -9 -22 -9 -17 0 -19 -3 -10 -9 11 -6 10 -10 -4 -15 -11 -4 -20 -2
-22 3 -2 6 -10 11 -18 11 -35 0 -9 20 41 31 30 7 55 16 55 21 0 4 23 8 50 8
28 0 50 -4 50 -9z m-240 -42 c0 -5 -10 -14 -22 -19 -13 -6 -37 -19 -55 -30
-27 -16 -33 -17 -44 -4 -14 18 -17 15 50 47 53 25 71 27 71 6z m580 1 c-8 -5
-22 -9 -30 -9 -10 0 -8 3 5 9 27 12 43 12 25 0z m140 -19 c0 -12 -19 -18 -85
-27 -45 -6 -49 -5 -37 9 8 9 34 18 60 20 26 2 50 4 55 5 4 1 7 -2 7 -7z m-540
-10 c0 -5 -9 -12 -19 -16 -11 -3 -22 -12 -25 -20 -3 -8 -22 -17 -43 -20 -21
-3 -48 -11 -61 -16 -20 -8 -23 -6 -20 8 3 16 34 31 123 61 40 13 45 14 45 3z
m-180 -21 c0 -5 -2 -10 -4 -10 -3 0 -8 5 -11 10 -3 6 -1 10 4 10 6 0 11 -4 11
-10z m413 3 c-7 -2 -19 -2 -25 0 -7 3 -2 5 12 5 14 0 19 -2 13 -5z m515 -15
c9 -9 8 -16 -5 -30 -20 -22 -61 -24 -69 -3 -4 8 -11 12 -18 8 -6 -4 -6 0 2 9
7 9 21 14 32 11 11 -3 20 0 20 6 0 15 23 14 38 -1z m-458 -2 c0 -3 -4 -8 -10
-11 -5 -3 -10 -1 -10 4 0 6 5 11 10 11 6 0 10 -2 10 -4z m39 -27 c-13 -26 -23
-18 -14 10 3 12 11 19 16 16 5 -4 5 -14 -2 -26z m-39 -9 c0 -5 -5 -10 -11 -10
-5 0 -7 5 -4 10 3 6 8 10 11 10 2 0 4 -4 4 -10z m230 -3 c0 -9 -11 -12 -36 -9
-25 3 -32 7 -23 13 21 13 59 11 59 -4z m-80 -17 c0 -5 -7 -10 -15 -10 -8 0
-15 5 -15 10 0 6 7 10 15 10 8 0 15 -4 15 -10z m502 -33 c14 -7 23 -17 21 -23
-2 -7 9 -15 24 -19 34 -8 53 -23 53 -41 0 -20 -12 -17 -54 11 -20 14 -45 25
-54 25 -9 0 -23 4 -30 9 -12 7 -12 12 -1 30 8 11 14 21 15 21 1 0 13 -6 26
-13z m3634 -35 c6 -4 13 -17 17 -30 6 -26 17 -25 -113 -6 -22 3 -40 10 -40 16
0 6 15 7 38 3 26 -4 43 -1 57 9 23 18 26 18 41 8z m-3884 -22 c7 -11 20 -20
30 -20 9 0 20 -5 24 -11 5 -9 -4 -10 -32 -4 -39 7 -54 19 -54 43 0 19 18 14
32 -8z m388 12 c0 -9 29 -26 75 -42 27 -10 28 -13 12 -21 -10 -6 -32 -7 -50
-3 -28 6 -30 8 -12 15 17 7 17 8 -7 8 -19 1 -26 5 -22 14 3 8 -5 18 -18 25
l-23 11 23 0 c12 1 22 -3 22 -7z m3665 -2 c3 -5 2 -10 -4 -10 -5 0 -13 5 -16
10 -3 6 -2 10 4 10 5 0 13 -4 16 -10z m-4486 -26 c11 -10 -14 -23 -35 -18 -16
4 -24 2 -24 -7 0 -12 -2 -12 -9 0 -5 7 -14 10 -20 7 -7 -5 -11 1 -11 14 0 20
4 21 48 14 26 -3 49 -8 51 -10z m-351 -8 c-10 -7 -18 -18 -18 -25 0 -6 -4 -11
-10 -11 -17 0 -11 28 8 39 25 15 40 13 20 -3z m468 -3 c21 -28 16 -41 -17 -48
-36 -8 -47 -1 -30 18 6 8 9 22 5 31 -9 22 25 21 42 -1z m4529 7 c3 -5 -1 -10
-9 -10 -9 0 -16 5 -16 10 0 6 4 10 9 10 6 0 13 -4 16 -10z m-445 -15 c11 -13
8 -15 -13 -15 -14 0 -33 3 -43 7 -16 6 -16 7 2 14 29 12 40 10 54 -6z m-4605
-29 c1 -25 -5 -31 -43 -47 -51 -22 -52 -22 -52 -9 0 5 12 16 28 24 15 8 21 15
14 16 -7 0 -22 -5 -32 -10 -13 -7 -21 -7 -25 0 -8 14 -34 -1 -73 -41 -18 -18
-32 -28 -32 -21 0 6 10 21 23 33 15 15 18 23 10 26 -23 8 -14 20 15 21 59 0
107 12 117 27 17 26 48 14 50 -19z m750 24 c4 -6 -6 -10 -22 -9 -25 0 -26 1
-8 9 11 5 21 9 22 9 1 1 5 -3 8 -9z m-115 -20 c0 -5 -7 -10 -15 -10 -8 0 -15
5 -15 10 0 6 7 10 15 10 8 0 15 -4 15 -10z m-860 -55 c-21 -25 -31 -6 -12 23
14 21 17 23 20 9 2 -10 -2 -24 -8 -32z m343 34 c-6 -6 -30 -13 -54 -15 l-44
-5 30 15 c36 18 84 21 68 5z m867 0 c11 -8 12 -12 3 -16 -18 -7 -16 -21 5 -26
11 -3 7 -5 -10 -6 -34 -1 -60 8 -52 20 3 5 -13 9 -35 9 -46 0 -56 16 -13 23
53 8 87 7 102 -4z m380 1 c0 -10 -36 -50 -45 -50 -7 0 -6 46 2 53 10 11 43 8
43 -3z m3355 0 c3 -5 1 -10 -4 -10 -6 0 -11 5 -11 10 0 6 2 10 4 10 3 0 8 -4
11 -10z m-4055 -10 c0 -5 -7 -10 -15 -10 -8 0 -15 5 -15 10 0 6 7 10 15 10 8
0 15 -4 15 -10z m640 0 c0 -5 -9 -10 -19 -10 -11 0 -23 5 -26 10 -4 6 5 10 19
10 14 0 26 -4 26 -10z m-510 -10 c0 -5 -18 -10 -41 -10 -24 0 -38 4 -34 10 3
6 22 10 41 10 19 0 34 -4 34 -10z m614 -19 c8 -13 -13 -18 -43 -13 -23 5 -24
6 -6 13 28 11 43 11 49 0z m-1544 -30 c-6 -12 -15 -21 -21 -21 -5 0 -2 11 7
25 20 30 31 26 14 -4z m-166 3 c9 -23 8 -24 -14 -24 -11 0 -20 2 -20 4 0 12
13 36 20 36 4 0 11 -7 14 -16z m-74 -14 c0 -11 -7 -20 -16 -20 -8 0 -12 5 -8
11 3 6 0 15 -7 20 -10 6 -8 9 9 9 15 0 22 -6 22 -20z m1060 5 c0 -8 -4 -15 -9
-15 -13 0 -22 16 -14 24 11 11 23 6 23 -9z m2470 5 c0 -5 -7 -10 -15 -10 -8 0
-15 5 -15 10 0 6 7 10 15 10 8 0 15 -4 15 -10z m-3102 -22 c-3 -7 -12 -14 -21
-16 -12 -2 -15 1 -11 12 7 19 38 22 32 4z m1617 -8 c10 -11 24 -20 32 -20 7 0
13 -5 13 -11 0 -5 -4 -8 -10 -4 -5 3 -3 -7 5 -22 29 -56 17 -66 -38 -30 -32
21 -62 81 -51 99 9 14 30 9 49 -12z m-2222 -23 c-3 -12 -16 -33 -28 -47 -12
-14 -28 -35 -34 -48 -10 -19 -15 -21 -27 -11 -11 9 -21 9 -44 -1 -33 -14 -46
-9 -37 14 7 17 70 37 75 24 5 -11 32 -10 32 2 0 6 -4 10 -10 10 -5 0 -10 7
-10 16 0 8 -4 12 -10 9 -5 -3 -10 -1 -10 4 0 14 23 14 37 0 8 -8 17 -2 34 24
26 38 40 40 32 4z m393 8 c12 -11 12 -19 4 -35 -14 -25 -34 -26 -27 -1 3 14 1
18 -9 14 -17 -6 -18 9 -2 25 15 15 16 15 34 -3z m1774 -30 c7 -9 10 -19 6 -22
-8 -9 -38 9 -44 25 -5 17 23 15 38 -3z m-2360 -11 c0 -12 -45 -43 -62 -44 -26
0 -22 13 10 32 27 18 52 23 52 12z m250 -24 c0 -5 -4 -10 -10 -10 -5 0 -10 -6
-10 -13 0 -8 -9 -22 -20 -32 -17 -15 -20 -16 -20 -3 0 8 9 27 21 42 21 26 39
34 39 16z m3718 -2 c-6 -17 -77 -65 -107 -73 -57 -15 -30 17 53 62 47 26 59
28 54 11z m1792 -19 c0 -4 -7 -6 -15 -3 -8 4 -15 10 -15 15 0 4 7 6 15 3 8 -4
15 -10 15 -15z m-6060 3 c0 -16 -36 -42 -68 -48 -47 -10 -41 13 11 36 47 22
57 24 57 12z m190 -11 c0 -11 -31 -24 -39 -16 -3 3 1 10 9 15 19 12 30 12 30
1z m5900 -1 c0 -5 -4 -10 -10 -10 -5 0 -10 5 -10 10 0 6 5 10 10 10 6 0 10 -4
10 -10z m-6030 -10 c0 -5 -4 -10 -10 -10 -5 0 -10 5 -10 10 0 6 5 10 10 10 6
0 10 -4 10 -10z m211 -9 c-15 -27 -41 -35 -41 -12 0 23 9 31 32 31 15 0 17 -4
9 -19z m10 -48 c-7 -28 -35 -52 -47 -41 -7 8 33 68 46 68 4 0 5 -12 1 -27z
m5960 -39 c12 -14 11 -16 -5 -13 -11 2 -21 10 -24 17 -5 17 13 15 29 -4z
m-6045 -9 c-11 -8 -28 -15 -38 -15 -10 0 -20 0 -23 0 -3 0 -6 3 -7 7 -3 7 39
20 72 21 11 1 10 -3 -4 -13z m3444 -13 c0 -14 -23 -42 -35 -42 -8 0 -25 -17
-39 -38 -26 -42 -56 -70 -56 -54 0 6 13 26 28 44 16 18 37 47 46 63 10 17 26
31 37 31 10 0 19 -2 19 -4z m2710 -88 c0 -8 -5 -12 -10 -9 -6 4 -8 11 -5 16 9
14 15 11 15 -7z m-3410 -76 c0 -6 -7 -5 -15 2 -8 7 -15 17 -15 22 0 6 7 5 15
-2 8 -7 15 -17 15 -22z m125 12 c3 -11 13 -20 21 -20 16 0 19 -16 4 -25 -7 -4
-4 -19 9 -41 l20 -34 -20 0 c-31 0 -17 -24 17 -31 25 -5 26 -7 11 -14 -26 -11
-79 16 -96 49 -14 24 -13 28 7 42 26 18 28 39 7 60 -19 19 -19 34 -1 34 8 0
18 -9 21 -20z m75 -81 c0 -20 -15 -26 -25 -9 -9 15 3 43 15 35 5 -3 10 -15 10
-26z m40 -54 c-7 -8 -16 -15 -21 -15 -5 0 -9 7 -9 15 0 9 9 15 21 15 18 0 19
-2 9 -15z m3615 -21 c30 -30 78 -104 72 -110 -10 -11 -36 10 -55 44 -12 21
-30 46 -42 57 -11 10 -20 22 -20 27 0 15 19 8 45 -18z m5 -79 c25 -27 12 -35
-14 -9 -14 14 -22 34 -13 34 2 0 14 -11 27 -25z m286 -100 c30 -33 75 -117 89
-165 7 -24 6 -24 -8 -5 -12 16 -18 17 -30 7 -12 -10 -18 -10 -31 3 -9 9 -16
20 -16 25 0 5 -9 30 -20 56 -19 44 -22 46 -34 28 -17 -23 -30 -14 -21 15 5 17
10 19 30 11 23 -9 24 -8 13 18 -7 15 -18 34 -25 43 -7 8 -13 22 -13 30 1 9 7
6 18 -9 9 -13 31 -38 48 -57z m-76 -85 c0 -13 -1 -13 -10 0 -5 8 -10 22 -10
30 0 13 1 13 10 0 5 -8 10 -22 10 -30z m50 -2 c0 -19 -16 -5 -17 14 -2 18 0
20 7 8 5 -8 10 -18 10 -22z m4 -135 c24 9 49 -29 51 -78 1 -25 7 -51 13 -57 8
-8 10 -2 5 27 -5 30 -3 36 7 30 10 -6 11 -2 6 19 -4 15 -2 26 4 26 5 0 12 -11
16 -24 3 -14 14 -32 25 -42 31 -28 25 -54 -12 -54 -33 0 -35 -7 -14 -80 7 -22
4 -21 -19 9 -14 19 -28 51 -32 70 -6 41 -34 101 -47 101 -4 0 -5 -4 -2 -10 3
-5 2 -10 -2 -10 -5 0 -15 17 -23 38 -8 20 -17 42 -19 47 -2 6 3 4 12 -4 9 -7
23 -11 31 -8z m-8054 -189 c0 -21 -63 -84 -84 -84 -30 0 -16 28 32 64 55 42
52 40 52 20z m8200 -83 c-1 -57 -15 -37 -24 34 -6 46 -5 48 9 31 8 -12 15 -39
15 -65z m30 -491 c0 -11 -4 -20 -9 -20 -5 0 -7 9 -4 20 3 11 7 20 9 20 2 0 4
-9 4 -20z m-8520 -705 c0 -8 -4 -15 -10 -15 -5 0 -7 7 -4 15 4 8 8 15 10 15 2
0 4 -7 4 -15z m-400 -9 c0 -15 -18 -31 -26 -23 -7 7 7 37 17 37 5 0 9 -6 9
-14z m191 -110 c0 5 4 0 9 -11 5 -11 6 -34 4 -51 -4 -19 0 -35 9 -42 12 -10
16 -5 22 30 l8 43 9 -43 c6 -29 6 -47 -1 -56 -7 -9 -7 -16 1 -24 8 -8 5 -20
-12 -46 -23 -38 -35 -44 -43 -23 -3 6 -3 -18 0 -55 5 -59 4 -68 -11 -68 -9 0
-16 -8 -16 -20 0 -11 4 -20 9 -20 19 0 20 -34 1 -87 -10 -30 -22 -82 -26 -114
-4 -33 -11 -62 -15 -65 -5 -3 -9 -14 -9 -25 0 -22 -15 -25 -27 -6 -16 25 -29
95 -21 117 5 13 3 49 -3 85 -10 54 -10 70 5 115 9 29 14 55 10 59 -4 3 -9 0
-11 -6 -10 -28 -22 -11 -20 28 1 26 -3 44 -10 46 -15 5 -18 -72 -4 -109 9 -26
3 -138 -9 -138 -13 0 -18 237 -5 292 9 43 13 48 18 29 9 -34 27 -16 27 29 0
24 5 40 15 44 9 3 15 19 16 43 0 21 3 32 6 26 2 -7 11 -13 19 -13 8 0 14 -7
14 -15 0 -8 4 -15 9 -15 5 0 7 19 3 43 -5 38 -4 41 11 28 10 -7 17 -10 18 -5z
m129 -216 c0 -11 -7 -20 -15 -20 -8 0 -15 9 -15 20 0 11 7 20 15 20 8 0 15 -9
15 -20z m-2 -61 c-2 -6 -8 -10 -13 -10 -5 0 -11 4 -13 10 -2 6 4 11 13 11 9 0
15 -5 13 -11z m12 -95 c0 -36 -3 -45 -15 -41 -8 4 -17 2 -21 -4 -3 -6 -12 -8
-20 -5 -7 3 -16 1 -19 -4 -4 -6 -10 -10 -16 -10 -12 0 -11 71 1 90 9 13 12 13
24 -2 18 -24 47 -23 53 2 9 32 13 23 13 -26z m-410 -74 c0 -5 -4 -10 -10 -10
-5 0 -10 5 -10 10 0 6 5 10 10 10 6 0 10 -4 10 -10z m47 -142 c-2 -13 -4 -3
-4 22 0 25 2 35 4 23 2 -13 2 -33 0 -45z m208 -38 c3 -5 1 -10 -4 -10 -6 0
-11 5 -11 10 0 6 2 10 4 10 3 0 8 -4 11 -10z m-190 -81 c-10 -15 -25 -10 -25
9 0 10 -5 23 -11 29 -6 6 -8 17 -4 23 5 8 14 1 26 -20 11 -17 17 -35 14 -41z
m349 -71 c-9 -14 -22 15 -23 47 0 16 2 15 15 -8 8 -15 12 -33 8 -39z m-177
-60 c-2 -13 -4 -5 -4 17 -1 22 1 32 4 23 2 -10 2 -28 0 -40z m154 -35 c-10
-17 -10 -16 -11 3 0 23 13 41 18 25 2 -6 -1 -18 -7 -28z m-261 -29 c0 -8 -4
-12 -10 -9 -5 3 -10 13 -10 21 0 8 5 12 10 9 6 -3 10 -13 10 -21z m390 -313
c-1 -25 -2 -24 -19 9 -11 19 -17 39 -14 44 9 14 33 -25 33 -53z m49 -127 c23
-61 26 -78 11 -69 -16 10 -38 57 -46 99 -10 55 10 39 35 -30z m69 -164 c6 -16
7 -32 2 -35 -4 -3 -13 9 -19 27 -13 38 -13 38 -2 38 5 0 14 -13 19 -30z m-159
-43 c6 -8 8 -17 4 -20 -7 -8 -33 11 -33 24 0 13 16 11 29 -4z m221 -107 c-1
-23 -40 31 -40 55 0 17 4 15 20 -10 11 -16 20 -37 20 -45z m-252 -45 c16 -34
15 -45 -2 -45 -8 0 -15 14 -18 35 -5 41 4 45 20 10z m450 -30 c16 -34 15 -40
-2 -26 -16 13 -28 51 -17 51 4 0 13 -11 19 -25z m-147 -27 c11 -21 11 -22 -4
-9 -10 7 -17 17 -17 22 0 15 9 10 21 -13z m228 -148 c12 -22 21 -48 18 -58 -3
-14 -6 -12 -14 8 -6 14 -18 32 -27 39 -17 14 -22 51 -8 51 5 0 18 -18 31 -40z
m-59 -24 c0 -6 -7 -2 -15 8 -8 11 -15 25 -15 30 0 6 7 2 15 -8 8 -11 15 -25
15 -30z m30 -37 c0 -14 -17 -10 -23 5 -4 10 -1 13 9 9 7 -3 14 -9 14 -14z
m7560 -18 c-5 -11 -14 -22 -18 -25 -5 -3 -23 -33 -40 -68 -18 -35 -48 -82 -66
-105 l-33 -42 2 40 c1 27 11 49 27 67 14 15 36 40 49 56 76 93 101 117 79 77z
m-80 -40 c-6 -12 -15 -21 -21 -21 -5 0 -2 11 7 25 20 30 31 26 14 -4z m-7401
-38 c15 -32 12 -34 -25 -24 -16 5 -23 10 -16 10 8 1 10 9 6 26 -8 34 18 24 35
-12z m-229 -16 c0 -18 -2 -19 -10 -7 -13 20 -13 43 0 35 6 -3 10 -16 10 -28z
m-22 -92 c20 -61 8 -76 -16 -22 -25 56 -27 70 -9 65 6 -3 18 -22 25 -43z
m7512 -82 c-1 -13 -51 -66 -57 -60 -3 3 5 19 18 36 23 29 39 39 39 24z m-70
-88 c0 -4 -59 -106 -65 -114 -2 -1 -8 0 -14 4 -7 4 3 26 26 60 33 47 53 66 53
50z m-7330 -111 c0 -8 -4 -14 -10 -14 -12 0 -31 35 -23 44 9 8 33 -14 33 -30z
m6160 -1064 c-10 -19 -40 -28 -40 -12 0 13 23 32 37 32 11 0 11 -5 3 -20z
m-66 -51 c-10 -12 -36 -32 -56 -45 -20 -13 -64 -51 -97 -85 -34 -34 -61 -57
-61 -52 0 18 109 130 142 146 18 9 44 27 57 41 29 31 43 26 15 -5z m117 8
c-13 -13 -26 -3 -16 12 3 6 11 8 17 5 6 -4 6 -10 -1 -17z m-115 -67 c-1 -30
-22 -54 -38 -44 -8 5 22 74 33 74 4 0 6 -14 5 -30z m-166 -136 c0 -6 -99 -104
-106 -104 -17 0 3 34 41 69 40 37 65 51 65 35z m-5030 -45 c28 -32 114 -119
175 -179 136 -132 164 -174 69 -103 -17 13 -35 23 -41 23 -6 0 -19 12 -29 26
-56 78 -95 122 -130 148 -50 38 -124 108 -124 118 0 22 49 1 80 -33z m285
-249 c10 -11 14 -20 8 -20 -5 0 -18 9 -28 20 -10 11 -14 20 -8 20 5 0 18 -9
28 -20z m66 -77 c13 -16 12 -17 -3 -4 -10 7 -18 15 -18 17 0 8 8 3 21 -13z
m3869 -228 c-7 -9 -15 -13 -19 -10 -3 3 1 10 9 15 21 14 24 12 10 -5z m-50
-40 c-7 -9 -15 -13 -17 -11 -7 7 7 26 19 26 6 0 6 -6 -2 -15z m-440 -394 c-6
-12 -16 -19 -21 -15 -6 4 -4 13 7 25 21 24 29 18 14 -10z m-330 -317 c0 -8 -5
-12 -10 -9 -6 4 -8 11 -5 16 9 14 15 11 15 -7z m-267 -228 c-10 -14 -21 -26
-25 -26 -16 0 -7 35 15 58 18 19 23 21 25 8 2 -8 -5 -27 -15 -40z m-1338 -286
c3 -6 -7 -18 -24 -28 -17 -9 -31 -23 -31 -29 0 -7 -4 -13 -10 -13 -16 0 -12
42 7 62 18 20 48 24 58 8z"/>
<path d="M3150 9529 c0 -5 5 -7 10 -4 6 3 10 8 10 11 0 2 -4 4 -10 4 -5 0 -10
-5 -10 -11z"/>
<path d="M580 6509 c0 -17 4 -28 10 -24 6 3 10 17 10 31 0 13 -4 24 -10 24 -5
0 -10 -14 -10 -31z"/>
<path d="M631 6284 c0 -11 3 -14 6 -6 3 7 2 16 -1 19 -3 4 -6 -2 -5 -13z"/>
<path d="M7743 9728 c-17 -25 -33 -86 -27 -104 18 -51 60 -67 48 -18 -8 33 3
74 21 74 18 0 19 14 5 41 -12 22 -33 25 -47 7z"/>
<path d="M7310 9630 c0 -5 7 -10 15 -10 8 0 15 5 15 10 0 6 -7 10 -15 10 -8 0
-15 -4 -15 -10z"/>
<path d="M7248 9623 c7 -3 16 -2 19 1 4 3 -2 6 -13 5 -11 0 -14 -3 -6 -6z"/>
<path d="M7155 9609 c-16 -5 -45 -7 -62 -4 -20 4 -33 2 -33 -5 0 -6 28 -10 69
-10 52 0 70 4 75 15 6 17 -5 18 -49 4z"/>
<path d="M4435 9571 c-3 -5 -1 -12 5 -16 12 -7 30 2 30 16 0 12 -27 12 -35 0z"/>
<path d="M7358 9551 c-29 -5 -36 -9 -28 -20 6 -11 12 -12 22 -4 10 8 89 10
154 4 7 -1 14 -10 17 -20 4 -17 2 -18 -23 -9 -15 5 -50 8 -76 6 l-49 -4 38
-17 c20 -9 37 -20 37 -23 0 -3 -28 -2 -62 2 -35 4 -60 3 -56 -1 4 -4 38 -11
75 -15 52 -5 72 -4 84 6 18 16 39 18 39 4 0 -5 -7 -10 -15 -10 -24 0 -17 -20
10 -30 28 -11 127 -1 119 11 -3 5 -13 9 -23 9 -9 0 -26 7 -37 16 -18 14 -16
15 31 10 28 -3 65 -8 83 -12 24 -5 32 -3 32 8 0 9 -27 19 -82 30 -54 12 -88
24 -98 36 -11 15 -32 21 -85 24 -38 2 -87 2 -107 -1z"/>
<path d="M7180 9540 c0 -5 9 -10 20 -10 11 0 20 5 20 10 0 6 -9 10 -20 10 -11
0 -20 -4 -20 -10z"/>
<path d="M8168 9521 c-7 -12 -18 -21 -25 -21 -7 0 -17 -10 -24 -22 -10 -18 -9
-20 6 -15 9 4 21 7 26 7 10 0 43 60 35 67 -2 3 -11 -4 -18 -16z"/>
<path d="M6990 9505 c0 -10 10 -15 29 -15 16 0 34 7 41 15 11 13 7 15 -29 15
-30 0 -41 -4 -41 -15z"/>
<path d="M7200 9501 c-20 -6 -14 -9 33 -15 60 -8 83 -2 57 14 -17 11 -54 11
-90 1z"/>
<path d="M6470 9480 c0 -13 20 -13 40 0 12 8 9 10 -12 10 -16 0 -28 -4 -28
-10z"/>
<path d="M2215 9467 c-16 -13 -15 -14 13 -9 18 2 32 8 32 13 0 13 -24 11 -45
-4z"/>
<path d="M2300 9470 c0 -5 7 -10 16 -10 8 0 12 5 9 10 -3 6 -10 10 -16 10 -5
0 -9 -4 -9 -10z"/>
<path d="M6895 9470 c-4 -6 8 -10 30 -10 22 0 34 4 30 10 -3 6 -17 10 -30 10
-13 0 -27 -4 -30 -10z"/>
<path d="M7035 9460 c3 -5 13 -10 21 -10 8 0 12 5 9 10 -3 6 -13 10 -21 10 -8
0 -12 -4 -9 -10z"/>
<path d="M8205 9459 c-10 -15 1 -22 24 -14 12 3 19 11 16 16 -8 12 -32 11 -40
-2z"/>
<path d="M6763 9425 c-35 -8 -73 -21 -85 -29 -12 -9 -34 -16 -48 -16 -14 -1
-36 -7 -50 -15 -43 -24 2 -18 102 15 50 17 100 30 112 30 32 0 66 11 66 21 0
12 -22 10 -97 -6z"/>
<path d="M2111 9416 c-9 -11 -9 -15 1 -18 7 -3 -5 -23 -33 -54 -50 -54 -79
-97 -79 -115 0 -7 14 8 31 32 17 24 54 67 81 96 47 48 55 73 24 73 -8 0 -19
-6 -25 -14z"/>
<path d="M4700 9423 c0 -13 52 -73 63 -73 9 0 9 2 1 8 -6 4 -19 22 -28 40 -15
28 -36 44 -36 25z"/>
<path d="M8480 9396 c0 -9 7 -16 15 -16 26 0 75 -30 75 -45 0 -8 7 -15 15 -15
29 0 15 36 -22 57 -58 32 -83 37 -83 19z"/>
<path d="M6138 9363 c7 -3 16 -2 19 1 4 3 -2 6 -13 5 -11 0 -14 -3 -6 -6z"/>
<path d="M8707 9313 c-13 -13 -7 -50 11 -66 26 -24 35 -21 28 8 -8 33 6 32 48
-5 28 -25 35 -28 40 -14 9 23 8 24 -13 24 -10 0 -35 14 -56 30 -39 31 -47 34
-58 23z"/>
<path d="M6032 9268 c-18 -11 -31 -22 -29 -25 7 -6 77 29 77 39 0 12 -11 9
-48 -14z"/>
<path d="M6356 9245 c-10 -8 -24 -16 -30 -18 -6 -2 -8 -7 -5 -11 3 -3 25 2 47
12 23 10 39 22 35 25 -10 11 -26 8 -47 -8z"/>
<path d="M2128 9223 c7 -3 16 -2 19 1 4 3 -2 6 -13 5 -11 0 -14 -3 -6 -6z"/>
<path d="M4934 9164 c1 -36 10 -44 20 -18 10 25 7 41 -7 47 -10 4 -13 -5 -13
-29z"/>
<path d="M5295 9040 c-3 -5 -1 -10 4 -10 6 0 11 5 11 10 0 6 -2 10 -4 10 -3 0
-8 -4 -11 -10z"/>
<path d="M9051 9017 c-15 -19 -2 -29 15 -12 8 7 14 16 14 19 0 11 -17 6 -29
-7z"/>
<path d="M8952 8960 c0 -14 2 -19 5 -12 2 6 2 18 0 25 -3 6 -5 1 -5 -13z"/>
<path d="M8980 8921 c0 -13 29 -35 37 -28 7 8 -15 37 -28 37 -5 0 -9 -4 -9 -9z"/>
<path d="M9111 8795 c0 -5 6 -21 14 -35 8 -14 14 -20 14 -15 0 6 -6 21 -14 35
-8 14 -14 21 -14 15z"/>
<path d="M9040 8770 c0 -5 5 -10 10 -10 6 0 10 5 10 10 0 6 -4 10 -10 10 -5 0
-10 -4 -10 -10z"/>
<path d="M9210 8742 c0 -14 58 -77 65 -70 4 4 -6 23 -22 42 -27 35 -43 45 -43
28z"/>
<path d="M9080 8700 c0 -5 5 -10 11 -10 5 0 7 5 4 10 -3 6 -8 10 -11 10 -2 0
-4 -4 -4 -10z"/>
<path d="M9290 8620 c0 -11 4 -20 9 -20 5 0 7 9 4 20 -3 11 -7 20 -9 20 -2 0
-4 -9 -4 -20z"/>
<path d="M9310 8570 c0 -8 5 -22 10 -30 9 -13 10 -13 10 0 0 8 -5 22 -10 30
-9 13 -10 13 -10 0z"/>
<path d="M1457 8552 c-20 -22 -21 -32 -6 -32 12 0 38 29 39 43 0 13 -17 7 -33
-11z"/>
<path d="M1262 8448 c-14 -14 -16 -42 -3 -34 7 5 23 46 17 46 -1 0 -7 -5 -14
-12z"/>
<path d="M9442 8065 c0 -11 4 -31 8 -45 l8 -25 0 25 c0 14 -3 34 -8 45 l-9 20
1 -20z"/>
<path d="M9404 8031 c10 -57 27 -113 32 -109 7 8 -17 122 -28 133 -7 7 -9 -1
-4 -24z"/>
<path d="M9335 8011 c-10 -17 15 -92 32 -98 24 -9 24 3 0 57 -16 36 -26 49
-32 41z"/>
<path d="M9516 7977 c3 -10 9 -15 12 -12 3 3 0 11 -7 18 -10 9 -11 8 -5 -6z"/>
<path d="M9481 7829 c-1 -31 -4 -71 -8 -89 -5 -28 -4 -32 10 -27 9 3 18 1 21
-6 8 -19 26 14 26 48 0 17 -11 53 -24 80 l-24 50 -1 -56z m36 -61 c-3 -8 -6
-5 -6 6 -1 11 2 17 5 13 3 -3 4 -12 1 -19z"/>
<path d="M9383 7795 c0 -22 2 -30 4 -17 2 12 2 30 0 40 -3 9 -5 -1 -4 -23z"/>
<path d="M9490 7589 c0 -8 7 -24 15 -35 18 -24 19 -7 0 26 -9 16 -14 19 -15 9z"/>
<path d="M9554 7529 c-3 -6 -1 -16 5 -22 8 -8 11 -5 11 11 0 24 -5 28 -16 11z"/>
<path d="M9580 7411 c0 -12 5 -21 10 -21 6 0 10 6 10 14 0 8 -4 18 -10 21 -5
3 -10 -3 -10 -14z"/>
<path d="M357 7333 c-14 -14 -6 -40 20 -64 23 -21 25 -22 18 -4 -5 11 -9 32
-9 48 -1 25 -15 35 -29 20z"/>
<path d="M9555 7125 c3 -25 12 -63 20 -83 l14 -37 0 60 c1 74 -7 105 -26 105
-12 0 -14 -9 -8 -45z"/>
<path d="M9490 7076 c0 -31 10 -57 19 -52 10 7 1 76 -10 76 -5 0 -9 -11 -9
-24z"/>
<path d="M9621 7054 c0 -11 3 -14 6 -6 3 7 2 16 -1 19 -3 4 -6 -2 -5 -13z"/>
<path d="M9550 6999 c0 -29 30 -122 37 -116 2 3 0 31 -6 63 -12 63 -31 96 -31
53z"/>
<path d="M9496 6949 c-3 -17 -6 -55 -7 -83 0 -51 -19 -152 -31 -171 -3 -5 -6
-28 -6 -50 0 -30 2 -35 8 -20 8 20 8 20 16 1 7 -19 8 -19 15 0 4 10 8 51 8 91
1 39 5 75 11 78 9 6 7 172 -3 181 -2 3 -7 -10 -11 -27z"/>
<path d="M9542 6834 c-15 -29 -27 -178 -13 -170 7 5 11 -4 11 -26 1 -28 2 -31
13 -17 7 9 17 14 22 12 12 -4 -2 197 -15 211 -5 4 -13 0 -18 -10z m10 -109 c0
-20 -3 -39 -6 -42 -3 -4 -6 15 -6 42 0 27 3 46 6 42 3 -3 6 -22 6 -42z"/>
<path d="M165 6800 c-8 -13 5 -13 25 0 13 8 13 10 -2 10 -9 0 -20 -4 -23 -10z"/>
<path d="M132 6618 c-14 -14 -16 -28 -3 -28 9 0 24 30 18 36 -2 2 -9 -2 -15
-8z"/>
<path d="M80 6610 c0 -5 5 -10 10 -10 6 0 10 5 10 10 0 6 -4 10 -10 10 -5 0
-10 -4 -10 -10z"/>
<path d="M9511 6574 c0 -11 3 -14 6 -6 3 7 2 16 -1 19 -3 4 -6 -2 -5 -13z"/>
<path d="M9530 6565 c0 -11 7 -38 15 -60 l14 -40 1 41 c0 22 -7 49 -15 60 -14
19 -14 19 -15 -1z"/>
<path d="M9621 6494 c0 -11 3 -14 6 -6 3 7 2 16 -1 19 -3 4 -6 -2 -5 -13z"/>
<path d="M9451 6107 c-5 -13 -12 -50 -16 -83 -4 -32 -12 -64 -17 -71 -5 -6
-11 -24 -14 -40 -9 -52 -16 -64 -40 -73 -19 -8 -24 -17 -24 -47 -1 -52 -32
-138 -49 -138 -8 0 -18 -13 -23 -30 -5 -16 -23 -65 -40 -108 -16 -43 -28 -81
-25 -83 10 -10 50 42 73 93 13 29 39 97 58 150 18 54 41 112 49 128 43 86 112
300 101 317 -9 15 -24 8 -33 -15z"/>
<path d="M201 6054 c0 -11 3 -14 6 -6 3 7 2 16 -1 19 -3 4 -6 -2 -5 -13z"/>
<path d="M9491 6016 c-7 -17 -10 -41 -9 -55 3 -22 6 -20 17 17 14 51 9 80 -8
38z"/>
<path d="M195 5901 c-3 -5 -1 -12 5 -16 5 -3 10 1 10 9 0 18 -6 21 -15 7z"/>
<path d="M9406 5778 c-2 -7 -11 -34 -21 -60 -27 -78 -12 -88 18 -12 15 38 27
73 27 77 0 12 -20 8 -24 -5z"/>
<path d="M540 5686 c0 -8 5 -18 10 -21 6 -3 10 3 10 14 0 12 -4 21 -10 21 -5
0 -10 -6 -10 -14z"/>
<path d="M157 5684 c-14 -14 -7 -25 13 -22 12 2 21 8 21 13 0 12 -24 18 -34 9z"/>
<path d="M273 5570 c6 -129 12 -149 50 -169 15 -8 35 -37 51 -73 29 -64 48
-76 22 -14 -8 20 -12 44 -9 53 4 10 2 14 -4 10 -6 -4 -16 7 -23 23 -13 32 -26
38 -32 18 -3 -8 -9 -5 -16 9 -15 27 -35 217 -27 244 4 12 2 19 -6 19 -9 0 -11
-29 -6 -120z"/>
<path d="M632 5655 c0 -16 2 -22 5 -12 2 9 2 23 0 30 -3 6 -5 -1 -5 -18z"/>
<path d="M330 5621 c0 -12 5 -21 10 -21 6 0 10 6 10 14 0 8 -4 18 -10 21 -5 3
-10 -3 -10 -14z"/>
<path d="M595 5578 c-8 -33 28 -91 39 -62 10 26 7 41 -13 65 l-19 24 -7 -27z"/>
<path d="M591 5504 c0 -11 3 -14 6 -6 3 7 2 16 -1 19 -3 4 -6 -2 -5 -13z"/>
<path d="M370 5443 c0 -28 3 -34 10 -23 13 20 13 60 0 60 -5 0 -10 -17 -10
-37z"/>
<path d="M573 5463 c-9 -3 -10 -18 -6 -50 6 -44 5 -45 -17 -38 -16 5 -21 4
-18 -6 3 -8 14 -15 27 -17 29 -5 58 -49 42 -65 -6 -6 -11 -20 -11 -31 -1 -17
-4 -15 -14 9 l-13 30 -8 -29 c-5 -16 -1 -81 9 -154 12 -86 14 -128 6 -136 -5
-5 -10 -41 -10 -78 0 -62 -11 -87 -23 -55 -4 8 -6 8 -6 -2 -1 -8 12 -38 29
-67 32 -57 73 -165 65 -172 -3 -3 -14 18 -26 46 -20 48 -39 68 -39 41 0 -8 -5
-8 -15 1 -19 16 -19 10 0 -26 8 -16 15 -44 15 -62 0 -19 6 -46 14 -60 7 -15
26 -58 42 -96 33 -78 73 -118 98 -97 20 17 4 51 -24 51 -11 0 -20 5 -20 11 0
5 -11 27 -25 47 -30 44 -32 66 -6 59 16 -4 18 0 13 39 -3 28 0 50 8 59 11 13
10 18 -3 28 -18 13 -47 77 -47 102 0 22 27 19 40 -5 6 -11 15 -20 20 -20 13 0
-36 102 -54 112 -9 5 -16 18 -16 28 0 10 -4 22 -10 25 -12 8 -13 55 -1 55 5 0
12 -16 15 -35 4 -19 11 -37 16 -40 6 -4 7 6 4 25 -4 16 -2 30 3 30 5 0 10 23
10 52 0 29 6 54 12 56 7 2 8 10 2 20 -9 19 -23 152 -16 152 3 0 12 -15 20 -32
8 -18 13 -24 10 -13 -3 10 -9 40 -12 65 -3 25 -13 55 -20 67 -13 19 -13 25 0
43 14 20 15 21 20 3 4 -15 5 -15 6 3 0 12 -6 25 -15 28 -12 5 -15 14 -10 37
10 52 -17 80 -61 62z"/>
<path d="M426 5425 c4 -8 8 -15 10 -15 2 0 4 7 4 15 0 8 -4 15 -10 15 -5 0 -7
-7 -4 -15z"/>
<path d="M9305 5430 c-3 -5 -1 -10 4 -10 6 0 11 5 11 10 0 6 -2 10 -4 10 -3 0
-8 -4 -11 -10z"/>
<path d="M450 5298 c0 -15 5 -30 10 -33 13 -8 13 25 0 45 -8 12 -10 9 -10 -12z"/>
<path d="M500 5243 c0 -41 2 -45 14 -33 9 10 12 27 9 48 -8 48 -23 39 -23 -15z"/>
<path d="M9200 5235 c0 -8 4 -15 9 -15 5 0 11 7 15 15 3 9 0 15 -9 15 -8 0
-15 -7 -15 -15z"/>
<path d="M322 5215 c0 -16 2 -22 5 -12 2 9 2 23 0 30 -3 6 -5 -1 -5 -18z"/>
<path d="M9223 5107 c-38 -56 -38 -74 0 -27 20 25 37 48 37 53 0 16 -16 5 -37
-26z"/>
<path d="M170 5065 c0 -14 5 -25 10 -25 6 0 10 11 10 25 0 14 -4 25 -10 25 -5
0 -10 -11 -10 -25z"/>
<path d="M805 5020 c3 -5 8 -10 11 -10 2 0 4 5 4 10 0 6 -5 10 -11 10 -5 0 -7
-4 -4 -10z"/>
<path d="M170 4945 c0 -19 5 -35 10 -35 6 0 10 16 10 35 0 19 -4 35 -10 35 -5
0 -10 -16 -10 -35z"/>
<path d="M820 4903 c0 -5 5 -15 10 -23 8 -12 10 -11 10 8 0 12 -4 22 -10 22
-5 0 -10 -3 -10 -7z"/>
<path d="M220 4766 c0 -8 5 -18 10 -21 6 -3 10 3 10 14 0 12 -4 21 -10 21 -5
0 -10 -6 -10 -14z"/>
<path d="M680 4536 c0 -8 5 -18 10 -21 6 -3 10 3 10 14 0 12 -4 21 -10 21 -5
0 -10 -6 -10 -14z"/>
<path d="M680 4436 c0 -9 5 -16 10 -16 6 0 10 4 10 9 0 6 -4 13 -10 16 -5 3
-10 -1 -10 -9z"/>
<path d="M810 4415 c7 -8 17 -15 22 -15 6 0 5 7 -2 15 -7 8 -17 15 -22 15 -6
0 -5 -7 2 -15z"/>
<path d="M716 4237 c3 -10 9 -15 12 -12 3 3 0 11 -7 18 -10 9 -11 8 -5 -6z"/>
<path d="M745 4143 c6 -47 48 -153 60 -153 8 0 -6 73 -16 85 -5 5 -9 27 -9 50
0 39 -13 65 -33 65 -5 0 -6 -20 -2 -47z"/>
<path d="M791 4180 c-1 -18 16 -46 23 -40 2 3 -2 16 -9 30 -8 15 -14 19 -14
10z"/>
<path d="M842 4058 c8 -23 8 -36 -1 -50 -14 -23 -5 -66 11 -50 6 6 17 8 25 5
9 -4 16 2 20 16 3 12 13 21 24 21 11 0 19 3 19 8 -1 19 -62 75 -84 78 -23 2
-24 1 -14 -28z"/>
<path d="M990 3965 c0 -13 33 -55 44 -55 6 0 4 4 -4 10 -8 5 -11 12 -7 16 4 4
2 13 -4 21 -11 13 -29 18 -29 8z"/>
<path d="M837 3899 c4 -12 14 -24 24 -26 20 -6 33 -45 24 -74 -5 -14 2 -28 24
-48 17 -16 31 -38 31 -49 0 -12 9 -23 20 -27 22 -7 27 -31 8 -38 -12 -5 47
-66 65 -67 28 -1 -25 116 -78 173 -17 17 -24 34 -20 46 6 18 -50 98 -66 94 -4
-2 -11 6 -14 17 -9 27 -25 26 -18 -1z"/>
<path d="M8102 3819 c-7 -12 -11 -23 -8 -26 8 -9 36 17 36 33 0 20 -13 17 -28
-7z"/>
<path d="M1036 3535 c-7 -18 47 -115 65 -115 5 0 11 11 15 25 8 31 -21 79 -42
71 -9 -4 -18 2 -23 16 -7 19 -8 20 -15 3z"/>
<path d="M6684 2566 c-32 -30 -57 -56 -54 -59 3 -4 35 21 70 53 36 33 60 60
54 60 -6 0 -37 -24 -70 -54z"/>
<path d="M6538 2352 c-22 -21 -39 -44 -37 -51 2 -6 26 10 54 39 57 58 44 68
-17 12z"/>
<path d="M6011 1987 c-13 -23 -18 -37 -10 -30 19 16 52 73 42 73 -4 0 -19 -19
-32 -43z"/>
<path d="M6022 1935 c-7 -14 -12 -29 -12 -33 1 -10 40 38 40 49 0 18 -17 8
-28 -16z"/>
<path d="M3253 1497 c-18 -6 -33 -15 -33 -20 0 -8 19 -4 68 14 24 9 30 20 10
18 -7 -1 -28 -7 -45 -12z"/>
<path d="M5406 1404 c-4 -9 -4 -19 -2 -21 8 -8 26 8 26 23 0 19 -16 18 -24 -2z"/>
<path d="M3028 1383 c7 -3 16 -2 19 1 4 3 -2 6 -13 5 -11 0 -14 -3 -6 -6z"/>
<path d="M5336 1345 c-15 -24 -47 -61 -71 -82 -44 -37 -56 -65 -33 -79 6 -4
22 6 37 25 14 17 33 31 42 31 33 0 57 42 56 98 0 28 -2 52 -3 52 -1 0 -14 -20
-28 -45z"/>
<path d="M3138 1253 c7 -3 16 -2 19 1 4 3 -2 6 -13 5 -11 0 -14 -3 -6 -6z"/>
<path d="M4655 840 c3 -5 10 -10 16 -10 5 0 9 5 9 10 0 6 -7 10 -16 10 -8 0
-12 -4 -9 -10z"/>
<path d="M4551 801 c-13 -10 -19 -21 -14 -24 6 -4 21 5 33 18 27 29 16 33 -19
6z"/>
<path d="M3870 730 c0 -5 5 -10 10 -10 6 0 10 5 10 10 0 6 -4 10 -10 10 -5 0
-10 -4 -10 -10z"/>
<path d="M4210 520 c-8 -5 -10 -10 -5 -10 6 0 17 5 25 10 8 5 11 10 5 10 -5 0
-17 -5 -25 -10z"/>
<path d="M4072 503 c-35 -7 -15 -23 29 -23 28 0 39 4 39 15 0 15 -19 17 -68 8z"/>
</g>
</svg>
