<?xml version="1.0" standalone="no"?>
<!DOCTYPE svg PUBLIC "-//W3C//DTD SVG 20010904//EN"
 "http://www.w3.org/TR/2001/REC-SVG-20010904/DTD/svg10.dtd">
<svg version="1.0" xmlns="http://www.w3.org/2000/svg"
 width="1024.000000pt" height="724.000000pt" viewBox="0 0 1024.000000 724.000000"
 preserveAspectRatio="xMidYMid meet">
<metadata>
Created by potrace 1.16, written by Peter Selinger 2001-2019
</metadata>
<g transform="translate(0.000000,724.000000) scale(0.100000,-0.100000)"
fill="#000000" stroke="none">
<path d="M4945 5759 c-13 -21 -180 -33 -227 -17 -23 8 -36 8 -49 -1 -10 -6
-27 -11 -37 -11 -23 0 -59 -26 -49 -36 4 -4 17 -2 30 4 12 6 40 13 62 17 l40
6 -37 -27 c-21 -15 -38 -32 -38 -38 0 -6 -5 -3 -11 7 -5 9 -19 17 -29 17 -23
0 -24 -4 -10 -31 11 -19 4 -24 -27 -20 -6 1 -14 -3 -18 -9 -3 -5 -11 -10 -17
-10 -7 0 -6 5 1 14 8 9 8 16 2 20 -5 4 -13 1 -16 -5 -5 -7 -12 -3 -22 10 -18
27 -33 18 -33 -19 0 -27 -4 -30 -40 -36 -44 -7 -58 -20 -42 -36 8 -8 18 -6 34
4 27 18 108 34 108 21 0 -4 -10 -13 -22 -18 -12 -6 -23 -19 -24 -31 l-3 -21
92 24 c50 13 102 23 114 23 16 0 21 4 17 15 -4 9 0 15 10 15 9 0 16 -7 16 -16
0 -11 5 -14 18 -9 34 13 85 18 79 8 -4 -6 4 -14 18 -17 14 -4 25 -13 25 -21 0
-8 5 -15 11 -15 6 0 9 -7 5 -15 -6 -17 21 -48 38 -42 6 2 12 14 14 26 7 45
112 82 126 45 4 -11 10 -13 19 -7 20 16 58 23 50 10 -9 -16 -46 -42 -55 -39
-5 1 -8 -2 -8 -7 0 -17 32 -22 44 -7 6 8 40 26 76 39 36 13 82 32 103 41 22
10 37 12 37 6 0 -6 -15 -18 -32 -26 l-33 -14 55 2 c49 3 55 1 55 -17 0 -14 -6
-19 -19 -18 -10 1 -24 -3 -30 -8 -6 -5 -23 -18 -38 -30 -15 -11 -36 -32 -47
-47 l-19 -28 61 9 c131 20 319 55 325 62 4 3 0 10 -8 15 -8 5 -11 12 -7 16 3
4 13 1 22 -6 11 -9 12 -17 4 -32 -6 -11 -8 -22 -5 -26 3 -3 6 -1 6 5 0 17 38
23 44 7 3 -9 -6 -17 -27 -23 -25 -8 -16 -9 38 -4 39 3 79 12 90 19 18 13 14
19 -9 15 -4 -1 -15 4 -23 11 -13 10 -13 14 3 25 16 12 16 13 -7 15 -13 0 -31
1 -40 0 -9 -1 -19 7 -22 18 -4 14 -14 20 -35 20 -38 0 -105 24 -142 50 -15 11
-43 20 -62 20 -22 0 -38 7 -48 19 -7 11 -18 17 -23 14 -6 -3 -7 -1 -3 5 4 7
-3 14 -18 18 -32 8 -57 35 -38 42 24 8 -6 29 -36 24 -24 -3 -29 -9 -29 -32 0
-21 4 -26 18 -23 19 5 69 -23 69 -39 0 -20 -112 3 -172 35 -50 26 -63 29 -79
19 -10 -7 -26 -12 -34 -12 -26 0 -63 43 -67 75 -2 25 -5 27 -13 14z m45 -102
c0 -4 12 -19 28 -33 l27 -26 -50 7 c-59 9 -84 27 -66 48 12 15 61 18 61 4z
m360 -47 c0 -5 -5 -10 -11 -10 -5 0 -7 5 -4 10 3 6 8 10 11 10 2 0 4 -4 4 -10z
m-440 -29 c0 -16 -24 -18 -50 -4 -25 13 -25 13 13 13 20 0 37 -4 37 -9z m575
-71 c3 -5 -3 -10 -14 -10 -11 0 -23 5 -26 10 -3 6 3 10 14 10 11 0 23 -4 26
-10z m-177 -69 c3 -8 -1 -12 -9 -9 -7 2 -15 10 -17 17 -3 8 1 12 9 9 7 -2 15
-10 17 -17z"/>
<path d="M5123 5729 c-40 -12 -41 -20 -6 -36 32 -16 63 -17 63 -3 0 6 6 10 14
10 15 0 28 24 19 34 -9 8 -52 6 -90 -5z"/>
<path d="M4535 5710 c4 -6 11 -8 16 -5 14 9 11 15 -7 15 -8 0 -12 -5 -9 -10z"/>
<path d="M5327 5704 c-9 -10 23 -54 40 -54 8 0 12 -4 8 -9 -9 -16 11 -21 30
-7 16 11 14 15 -23 44 -43 34 -45 35 -55 26z"/>
<path d="M4495 5690 c4 -6 11 -8 16 -5 14 9 11 15 -7 15 -8 0 -12 -5 -9 -10z"/>
<path d="M4730 5538 c-12 -13 -28 -23 -35 -23 -8 0 -21 -9 -29 -20 -15 -20
-15 -20 -16 2 0 40 -16 32 -34 -18 -11 -29 -24 -49 -33 -49 -8 0 -13 -6 -10
-13 2 -6 -2 -18 -10 -26 -13 -12 -14 -11 -8 8 4 12 2 21 -4 21 -6 0 -11 -7
-11 -16 0 -9 -8 -23 -17 -30 -17 -13 -17 -13 0 -14 25 0 21 -29 -5 -40 -13 -5
-17 -9 -10 -9 14 -1 17 -31 2 -31 -5 0 -10 -11 -10 -25 0 -14 -4 -25 -10 -25
-6 0 -9 3 -9 8 1 4 1 14 0 22 -2 26 -39 -32 -46 -72 -4 -21 -9 -38 -12 -38
-10 0 -63 34 -63 41 0 3 9 14 20 24 11 10 17 22 14 26 -3 5 2 6 10 3 25 -9 19
12 -6 25 -13 6 -15 9 -5 7 24 -7 22 19 -4 37 -17 12 -19 21 -14 51 6 32 5 35
-11 29 -12 -4 -15 -3 -10 5 11 18 -3 35 -19 22 -7 -6 -20 -7 -30 -4 -13 5 -14
9 -4 15 18 11 4 23 -16 15 -11 -4 -14 -12 -10 -27 6 -19 5 -20 -15 -9 -12 7
-31 10 -41 7 -10 -3 -22 -1 -25 4 -8 14 -34 11 -34 -4 0 -21 -47 -60 -64 -54
-22 9 -19 28 9 59 16 19 30 26 42 22 16 -5 16 -4 -1 10 -11 9 -30 16 -42 16
-12 0 -24 4 -26 9 -5 12 -48 24 -48 13 0 -6 -16 -19 -35 -31 -30 -18 -37 -18
-41 -6 -7 16 -44 21 -44 6 0 -5 -3 -16 -6 -24 -4 -12 3 -16 28 -19 20 -2 32
-8 30 -15 -1 -7 2 -13 7 -13 5 0 22 -11 38 -24 15 -13 37 -26 48 -29 11 -2
-15 -5 -58 -6 -61 -1 -87 4 -120 20 -76 38 -103 79 -53 79 26 0 47 19 24 21
-30 2 -74 -4 -90 -12 -19 -10 -25 -39 -8 -39 5 0 7 -7 4 -15 -4 -8 -1 -22 6
-30 10 -12 9 -15 -7 -15 -16 0 -18 -6 -15 -37 4 -32 3 -35 -14 -28 -11 4 -42
9 -71 11 -43 3 -53 0 -58 -15 -8 -26 3 -48 28 -55 16 -4 19 -8 11 -16 -9 -9
-17 -8 -31 1 -13 7 -28 9 -39 4 -17 -7 -17 -9 -2 -12 18 -4 33 -33 18 -33 -6
0 -10 -18 -10 -40 0 -29 4 -40 15 -40 9 0 20 -11 25 -25 9 -24 30 -35 30 -15
0 5 18 13 41 16 30 5 39 11 34 21 -3 10 -1 13 9 10 7 -3 18 -1 23 4 6 6 22 4
44 -5 l34 -14 -28 -11 c-16 -6 -30 -11 -31 -11 -2 0 -20 -7 -39 -15 -26 -11
-35 -19 -30 -31 4 -11 13 -14 32 -9 43 11 46 11 46 -4 0 -8 -9 -16 -20 -18
-47 -10 -132 -25 -152 -26 -12 -1 -25 -5 -29 -9 -4 -5 -14 -8 -23 -8 -12 0
-12 3 -3 12 13 13 16 48 5 48 -5 0 -17 -13 -28 -30 -26 -38 -33 -41 -137 -47
-82 -5 -88 -4 -88 14 0 21 -18 43 -36 43 -6 0 -14 -14 -18 -31 l-6 -31 -100 4
c-89 2 -101 1 -115 -17 -16 -20 -16 -20 -10 3 5 18 2 22 -19 22 -31 0 -56 -9
-56 -21 0 -5 6 -9 14 -9 20 0 31 -19 18 -32 -6 -6 -17 -2 -31 13 -11 13 -21
18 -21 12 0 -5 -18 -16 -40 -23 -38 -13 -39 -14 -24 -32 10 -10 24 -18 33 -18
14 0 111 -83 111 -95 0 -9 -94 -5 -109 4 -10 6 -12 20 -8 45 3 19 3 35 -1 34
-19 -5 -73 16 -82 30 -8 15 -9 14 -10 -5 0 -16 6 -23 19 -23 30 0 51 -11 51
-26 0 -10 -17 -13 -69 -12 -44 1 -75 -3 -85 -11 -9 -8 -27 -11 -41 -9 -37 7
-31 -6 13 -27 20 -10 31 -20 24 -22 -7 -3 -18 0 -26 6 -9 7 -16 7 -23 0 -8 -8
-13 -8 -17 0 -10 15 -69 14 -84 -1 -10 -10 -17 -10 -32 0 -26 16 -40 15 -40
-3 0 -10 6 -12 18 -8 15 6 15 5 -1 -12 -18 -18 -18 -19 5 -36 l23 -19 -22 0
c-25 0 -31 -18 -9 -26 23 -9 76 -91 76 -118 0 -14 -2 -26 -4 -26 -3 0 -20 14
-38 30 -18 17 -38 30 -45 30 -17 0 -35 -36 -31 -63 4 -30 44 -36 53 -8 8 25
18 26 35 6 10 -12 7 -15 -13 -20 -14 -4 -34 -18 -46 -31 l-22 -25 -32 23 c-56
40 -145 20 -172 -40 -5 -11 -18 -23 -28 -26 -14 -3 -18 -11 -14 -25 3 -15 -2
-22 -24 -31 -37 -16 -87 -73 -94 -108 -3 -15 -12 -40 -20 -55 -8 -16 -15 -39
-15 -53 0 -18 -9 -27 -36 -39 -29 -12 -34 -18 -29 -35 8 -24 71 -90 85 -90 6
0 10 -9 10 -19 0 -11 11 -28 25 -39 16 -12 21 -22 13 -24 -8 -3 -4 -12 10 -26
12 -12 18 -22 12 -22 -12 0 -50 -32 -50 -41 0 -10 39 -18 45 -9 3 5 -1 10 -7
13 -7 3 1 5 19 4 22 0 30 -4 26 -13 -3 -8 0 -14 6 -14 6 0 11 5 11 10 0 6 5
10 10 10 23 0 7 -29 -35 -68 l-46 -41 19 -38 c11 -21 22 -51 26 -67 7 -29 7
-29 22 -7 8 11 22 21 30 21 24 0 16 -30 -11 -40 -32 -12 -32 -21 5 -48 31 -23
41 -49 15 -38 -46 18 -48 16 -16 -17 19 -20 31 -40 27 -44 -12 -12 -98 38 -92
54 8 19 -5 16 -30 -8 -12 -12 -20 -27 -17 -35 3 -9 -1 -14 -12 -14 -14 0 -16
-6 -10 -37 3 -21 14 -44 23 -51 21 -17 74 -9 111 15 14 9 36 16 48 14 18 -2
22 1 16 15 -5 14 -2 16 14 12 13 -3 24 1 32 13 6 11 18 19 27 19 13 0 15 7 11
28 -8 37 7 62 21 36 11 -22 2 -52 -25 -76 -10 -10 -27 -27 -38 -38 l-20 -22
28 -20 c39 -28 34 -37 -15 -27 -30 7 -43 7 -49 -2 -4 -6 -11 -9 -17 -5 -17 11
-25 -53 -12 -100 9 -30 28 -59 61 -91 27 -26 49 -53 49 -60 0 -19 17 -24 43
-12 40 18 101 -4 121 -44 8 -17 24 -45 36 -62 24 -36 26 -85 5 -125 -12 -24
-13 -34 -3 -57 7 -15 15 -30 18 -33 10 -10 48 -96 54 -123 6 -25 8 -26 22 -12
22 22 27 19 20 -12 l-6 -28 24 29 c26 31 53 28 36 -4 -13 -24 -13 -30 1 -30 6
0 18 -8 27 -17 16 -16 18 -15 26 10 6 15 16 27 23 27 18 0 28 -27 15 -43 -7
-8 -6 -18 3 -31 10 -14 11 -23 3 -36 -9 -14 -7 -23 10 -45 17 -21 19 -31 11
-46 -5 -11 -7 -24 -4 -29 3 -6 -3 -10 -14 -10 -11 0 -23 5 -27 12 -4 7 -3 8 4
4 17 -10 15 9 -2 23 -11 9 -19 9 -35 -1 -24 -15 -27 -28 -7 -28 16 0 41 -28
33 -37 -4 -3 -18 2 -33 12 -16 10 -29 13 -33 7 -3 -5 -16 -12 -28 -16 -14 -4
-20 -12 -16 -22 3 -7 0 -14 -7 -14 -7 0 -10 -7 -6 -17 4 -9 2 -20 -5 -23 -6
-5 7 -22 36 -45 37 -31 48 -36 55 -25 7 11 13 9 30 -13 12 -15 28 -27 36 -27
13 0 12 3 -2 17 -17 17 -17 18 0 21 23 5 68 -38 61 -56 -6 -15 21 -52 37 -52
12 0 10 24 -4 38 -6 6 -12 28 -12 49 -1 33 -4 38 -26 38 -20 0 -25 5 -25 24 0
30 24 40 31 14 3 -11 21 -27 40 -38 19 -10 34 -21 34 -24 0 -4 9 -7 21 -8 38
-3 84 -42 86 -74 3 -35 21 -56 63 -71 22 -7 33 -18 37 -39 3 -18 12 -29 22
-29 9 0 22 -5 28 -11 8 -8 13 -5 18 10 7 24 43 28 51 6 5 -12 15 -14 43 -9 44
8 50 12 31 25 -11 7 -7 8 14 5 16 -3 41 -16 55 -29 58 -52 55 -52 105 -1 39
38 49 44 61 34 17 -14 3 -41 -18 -36 -7 1 -9 1 -4 -1 4 -3 7 -13 7 -24 0 -10
5 -19 11 -19 6 0 9 6 6 14 -7 18 16 38 35 31 10 -4 44 22 97 74 44 44 81 83
81 88 0 4 16 16 34 25 33 16 34 16 28 -5 -5 -20 -4 -20 11 -8 15 12 17 11 17
-4 0 -9 -9 -19 -21 -22 -12 -4 -32 -29 -50 -66 -27 -53 -29 -63 -18 -86 10
-21 13 -23 16 -8 5 19 29 23 35 5 3 -8 15 -2 34 15 16 15 32 27 36 27 13 0 9
18 -4 23 -7 2 -5 3 4 2 9 -2 19 2 22 9 3 7 5 7 5 -2 1 -7 -14 -28 -31 -47 -18
-19 -46 -53 -63 -75 -16 -23 -45 -53 -63 -66 -24 -19 -31 -31 -27 -45 5 -14 2
-17 -8 -13 -10 3 -16 -5 -21 -27 -9 -47 -8 -49 22 -33 15 7 35 14 45 14 16 0
56 -18 67 -31 3 -3 14 -11 25 -17 19 -11 19 -11 -3 -12 -18 0 -22 -5 -20 -22
2 -13 7 -29 12 -36 4 -7 2 -19 -5 -28 -10 -12 -7 -20 16 -44 41 -42 64 -47 86
-19 24 31 24 38 0 32 -25 -6 -35 11 -21 37 14 26 28 26 32 0 3 -20 4 -19 31 5
24 23 27 24 27 7 0 -23 35 -56 50 -47 6 4 17 2 24 -4 10 -9 21 -3 45 26 37 43
37 46 8 62 -19 10 -22 18 -19 56 3 27 0 45 -6 45 -6 0 -27 -27 -47 -60 -38
-62 -51 -76 -35 -37 30 75 78 147 99 147 14 0 14 -2 1 -10 -8 -5 -11 -12 -7
-16 3 -4 14 -1 23 7 15 12 16 11 9 -11 -4 -14 -11 -29 -16 -35 -5 -5 -9 -22
-9 -37 0 -32 33 -52 62 -37 22 12 32 -5 13 -21 -9 -7 -14 -22 -13 -34 2 -16
-3 -22 -24 -24 -26 -3 -91 -72 -68 -72 6 0 13 7 16 15 7 18 41 29 77 26 16 -1
51 3 79 9 45 11 52 11 60 -4 5 -9 20 -16 33 -16 13 0 27 -5 30 -10 3 -5 15
-10 26 -10 11 0 18 -4 14 -9 -9 -16 86 -53 122 -47 27 4 37 0 59 -27 15 -18
33 -31 39 -29 7 1 19 -5 26 -15 9 -11 10 -14 2 -9 -7 4 -13 3 -13 -3 0 -6 -7
-8 -15 -5 -9 4 -15 0 -15 -10 0 -19 4 -20 29 -5 29 19 67 3 85 -36 l17 -35 76
0 c66 0 74 2 63 15 -10 12 -9 16 5 21 23 9 45 -14 25 -26 -11 -7 -8 -10 15
-10 42 1 109 17 113 28 2 6 11 8 22 5 14 -4 37 13 83 61 36 36 67 72 70 81 4
8 10 14 14 13 4 -1 30 2 58 6 47 8 101 36 118 62 21 34 239 20 265 -17 7 -11
18 -19 24 -19 6 0 22 -14 37 -31 18 -21 32 -28 44 -23 25 9 21 23 -5 17 -20
-3 -19 -2 5 12 15 9 25 20 22 25 -4 6 36 10 102 11 175 2 264 7 328 19 33 6
67 12 75 13 9 2 20 6 25 9 6 3 63 11 128 18 71 8 122 18 128 27 9 10 3 13 -32
13 -34 0 -41 -3 -29 -11 11 -8 5 -9 -24 -4 -27 4 -41 2 -47 -6 -6 -11 -13 -10
-33 1 -33 17 -35 44 -3 36 12 -3 16 -3 10 0 -19 8 -16 54 3 54 8 0 12 -4 9
-10 -3 -5 6 -15 20 -22 22 -10 28 -9 36 3 6 10 9 10 9 2 0 -7 7 -13 15 -13 8
0 15 9 15 20 0 11 -5 20 -11 20 -7 0 -18 8 -26 18 -8 9 -12 11 -8 5 4 -9 -1
-13 -14 -13 -31 0 -26 11 24 50 24 19 44 41 45 48 0 16 -6 15 -29 -6 -51 -45
-64 -52 -55 -27 4 10 0 15 -14 15 -11 0 -22 -8 -25 -20 -3 -12 -14 -20 -27
-20 -18 0 -21 4 -16 23 3 12 6 24 6 27 0 3 23 6 50 7 27 0 47 -3 44 -8 -3 -5
-1 -9 4 -9 11 0 26 49 17 58 -3 3 -5 -2 -5 -11 0 -22 -33 -22 -66 -1 -19 13
-28 14 -37 5 -15 -15 -32 -14 -19 2 6 7 10 26 9 42 -3 32 25 68 61 79 12 4 22
12 22 18 0 6 10 8 24 4 32 -8 40 6 15 27 -21 19 -24 34 -9 57 7 10 13 11 18 4
7 -10 15 -12 82 -17 33 -2 35 0 38 31 3 30 16 43 24 24 2 -5 20 -7 40 -4 26 3
35 8 31 18 -3 8 0 14 6 14 6 0 11 -4 11 -10 0 -5 6 -10 14 -10 8 0 30 -8 48
-19 18 -10 48 -19 67 -19 19 -1 37 -5 40 -10 3 -5 16 -12 28 -16 18 -6 22 -2
28 32 9 58 39 99 94 129 54 30 69 61 42 87 -14 15 -14 16 2 16 28 0 65 29 71
56 6 24 39 34 50 15 9 -14 87 -23 102 -10 7 6 17 9 21 6 14 -9 123 -17 123
-10 0 5 -7 17 -15 27 -19 26 -19 51 1 70 14 15 13 18 -14 33 -33 19 -50 72
-27 85 13 8 9 55 -6 64 -12 7 -11 24 1 24 6 0 23 -11 37 -24 21 -20 29 -22 44
-13 22 14 26 57 5 57 -8 0 -18 5 -22 11 -5 8 1 10 18 6 18 -5 28 -2 32 8 3 8
9 15 13 14 40 -7 60 18 23 28 -11 3 -20 10 -19 17 1 19 14 48 22 47 26 -3 29
1 14 17 -10 10 -17 30 -17 44 0 20 6 27 30 32 17 3 42 1 57 -5 14 -5 32 -8 39
-5 8 3 20 -2 28 -10 18 -18 9 -47 -12 -39 -8 3 -23 -2 -33 -11 -17 -16 -17
-18 13 -55 17 -21 35 -36 39 -33 5 3 6 23 4 45 -5 36 -3 40 13 35 26 -9 49 19
33 38 -16 19 7 36 47 33 23 -1 32 -7 32 -19 0 -10 7 -18 16 -18 11 0 14 6 10
23 -3 12 -3 16 0 10 9 -20 36 -16 32 4 -4 24 -59 34 -75 13 -11 -13 -12 -11
-13 13 0 15 -4 27 -10 27 -5 0 -14 9 -20 20 -7 14 -7 20 0 20 5 0 10 -6 10
-14 0 -16 22 -27 37 -18 6 4 13 16 16 27 4 15 5 14 6 -7 1 -32 21 -39 21 -8 0
26 12 25 29 -1 10 -18 15 -19 22 -8 8 12 12 11 23 -3 12 -17 14 -17 31 2 17
19 16 20 -41 47 -55 26 -59 31 -56 58 4 27 15 42 26 33 3 -2 68 80 102 130 7
11 44 -12 44 -26 -1 -16 -1 -16 -13 0 -16 20 -44 8 -32 -13 5 -8 5 -11 0 -7
-4 4 -14 3 -22 -3 -20 -17 2 -38 49 -45 21 -4 41 -11 44 -15 10 -17 32 -9 38
14 4 15 0 27 -14 39 -74 61 -47 149 36 118 l27 -11 -7 41 c-6 38 4 54 20 29 8
-14 24 8 24 36 0 11 4 26 9 34 8 12 12 12 25 2 13 -11 16 -11 16 2 0 9 11 36
25 61 34 61 33 103 -1 59 -12 -16 -13 -16 -14 -1 0 9 6 18 12 20 10 4 9 11 -2
34 -8 16 -18 38 -22 49 -6 16 -7 14 -4 -7 4 -32 -18 -58 -28 -33 -3 8 -17 15
-31 15 -25 0 -25 0 -5 -20 21 -21 26 -55 10 -65 -5 -3 -10 -15 -10 -25 0 -10
-6 -21 -12 -23 -8 -4 -7 -6 3 -6 9 -1 20 -8 23 -17 8 -21 -13 -49 -27 -35 -5
5 -16 7 -23 4 -11 -4 -12 -8 -3 -19 9 -11 9 -21 0 -41 -15 -33 -34 -18 -34 27
0 16 -4 30 -9 30 -4 0 -8 -13 -8 -30 0 -22 -4 -28 -15 -24 -16 7 -22 84 -7 84
5 0 15 19 22 43 14 48 26 79 47 123 8 17 15 46 16 66 1 20 6 34 11 31 5 -3 6
0 4 8 -3 8 2 19 10 25 14 10 13 13 -6 23 -12 6 -22 16 -22 22 0 6 5 7 10 4 13
-8 13 31 -1 57 -6 11 -7 18 -1 15 5 -4 18 0 28 8 18 14 18 14 1 15 -13 0 -17
5 -13 18 10 29 -8 107 -25 110 -11 2 -14 -6 -11 -35 2 -21 -3 -56 -12 -78
l-14 -40 -8 34 -7 35 -13 -42 c-6 -24 -10 -52 -6 -64 4 -16 2 -19 -9 -12 -37
22 -69 59 -69 79 0 11 -5 26 -11 32 -15 15 -2 34 18 26 13 -5 12 0 -6 25 -12
18 -29 33 -37 34 -8 0 -19 1 -26 2 -7 1 -13 -14 -13 -36 -1 -28 3 -39 16 -43
20 -7 35 -43 22 -55 -4 -4 -17 -10 -28 -13 -18 -4 -18 -5 3 -6 15 -1 22 -7 22
-20 0 -14 -5 -18 -19 -14 -10 3 -22 0 -26 -7 -5 -8 -10 -8 -21 1 -17 14 -18
35 -1 43 10 5 10 7 0 12 -7 3 -13 19 -13 35 0 39 -20 119 -30 119 -14 0 -21
33 -26 110 -5 71 -27 271 -40 353 -6 36 -34 55 -34 22 0 -8 -7 -15 -15 -15
-24 0 -18 -19 10 -32 28 -13 32 -26 11 -34 -12 -5 -13 -11 -3 -32 6 -15 15
-29 18 -32 4 -3 10 -32 14 -64 6 -46 5 -57 -5 -51 -9 5 -10 2 -5 -14 4 -13 1
-31 -9 -45 -10 -16 -12 -26 -4 -34 12 -12 2 -62 -12 -62 -6 0 -10 14 -10 32 0
17 -7 39 -15 48 -10 11 -18 58 -25 145 -17 203 -24 237 -49 254 -13 9 -65 39
-116 66 -105 57 -138 80 -211 147 -28 27 -53 45 -57 42 -3 -3 -15 -3 -27 1
-17 5 -19 9 -9 21 35 42 -90 66 -161 30 -31 -15 -31 -15 -41 14 -6 15 -17 31
-25 34 -17 7 -17 4 0 -39 8 -18 12 -36 8 -39 -14 -15 -31 -3 -45 32 l-16 37 0
-40 c-1 -23 -6 -46 -12 -52 -15 -15 -44 -5 -58 20 -7 12 -30 35 -51 50 -23 16
-37 33 -34 41 3 7 -2 16 -10 19 -20 8 -22 -23 -3 -42 10 -11 10 -14 0 -18 -7
-3 -13 -11 -13 -19 0 -20 -8 -18 -34 11 -13 14 -28 25 -35 25 -6 0 -20 9 -31
20 -27 27 -48 26 -24 -1 l19 -21 -75 7 c-75 6 -126 16 -187 37 -25 9 -35 9
-48 -2 -15 -12 -18 -12 -26 3 -6 9 -17 17 -24 17 -8 0 -15 4 -15 9 0 4 -17 20
-37 34 -21 14 -53 39 -71 56 -18 17 -35 31 -38 31 -3 0 -15 12 -28 27 -24 27
-29 28 -170 40 -62 4 -80 9 -83 23 -4 15 -19 17 -121 16 -107 -1 -119 -3 -139
-23 -30 -30 -79 -31 -88 -3 -4 11 -28 42 -53 69 -39 41 -56 51 -103 60 -51 11
-56 14 -53 37 2 20 -1 24 -17 19 -12 -4 -27 2 -45 20 -15 15 -33 24 -41 21
-11 -5 -13 -1 -8 17 l7 22 -20 -22 c-12 -11 -45 -26 -74 -32 -29 -7 -62 -21
-75 -32 -35 -34 -47 -18 -18 25 34 50 44 96 21 96 -9 0 -16 -4 -16 -9 0 -16
-73 -66 -78 -53 -2 7 -13 12 -24 12 -12 0 -22 8 -25 21 -4 14 -8 17 -13 9 -11
-18 -70 9 -70 32 0 28 -20 31 -45 8 -18 -16 -31 -21 -49 -16 -15 4 -26 2 -26
-4 0 -5 -6 -10 -12 -10 -7 0 -1 12 14 26 39 40 120 48 201 22 26 -9 47 -12 47
-7 0 5 -9 9 -20 9 -11 0 -20 3 -20 8 0 14 -81 33 -115 26 -30 -5 -33 -4 -28
15 5 19 3 20 -27 9 -25 -8 -38 -8 -51 1 -29 18 -39 13 -55 -24 -8 -19 -19 -35
-24 -35 -12 0 -13 5 -1 28 5 9 14 29 20 44 7 19 15 26 26 22 10 -4 18 3 25 22
6 16 17 32 23 36 8 5 6 8 -5 8 -10 0 -27 -10 -38 -22z m30 -107 c0 -5 -9 -11
-21 -14 -16 -4 -18 -3 -8 9 8 10 8 14 0 14 -6 0 -11 5 -11 10 0 7 6 7 20 0 11
-6 20 -15 20 -19z m-5 -40 c-11 -4 -26 -21 -35 -36 -18 -32 -47 -49 -37 -21 9
22 -5 20 -36 -4 -47 -37 -65 -15 -27 33 20 25 46 33 120 35 26 0 30 -1 15 -7z
m-525 -32 c6 -10 9 -19 6 -19 -9 0 -36 31 -36 41 0 14 18 1 30 -22z m-395 -19
c3 -5 -3 -10 -14 -10 -12 0 -21 5 -21 10 0 6 6 10 14 10 8 0 18 -4 21 -10z
m493 -3 c7 -8 7 -18 2 -27 -7 -10 -10 -11 -10 -2 0 6 -7 12 -15 12 -8 0 -15 7
-15 15 0 18 24 20 38 2z m-198 -17 c0 -13 -11 -13 -30 0 -12 8 -11 10 8 10 12
0 22 -4 22 -10z m105 -1 c11 -17 2 -18 -19 -3 -17 12 -17 14 -4 14 9 0 20 -5
23 -11z m-396 -13 c15 -8 20 -16 13 -20 -13 -8 -52 10 -52 24 0 13 10 12 39
-4z m178 -12 c-9 -9 -28 6 -21 18 4 6 10 6 17 -1 6 -6 8 -13 4 -17z m353 6 c0
-5 -7 -10 -15 -10 -8 0 -15 5 -15 10 0 6 7 10 15 10 8 0 15 -4 15 -10z m-160
-30 c0 -5 -7 -10 -15 -10 -8 0 -15 5 -15 10 0 6 7 10 15 10 8 0 15 -4 15 -10z
m-410 -16 l25 -14 -29 2 c-16 2 -31 9 -34 16 -5 16 7 15 38 -4z m-133 -24 c2
-11 -2 -20 -7 -20 -6 0 -10 7 -10 15 0 8 -6 15 -12 15 -9 0 -8 3 2 10 17 11
23 6 27 -20z m228 10 c18 -20 17 -20 -11 -20 -29 0 -54 15 -54 32 0 16 47 7
65 -12z m965 6 c0 -7 -6 -19 -14 -25 -11 -10 -19 -8 -35 5 -25 22 -18 34 20
34 18 0 29 -5 29 -14z m-693 -2 c-3 -3 -12 -4 -19 -1 -8 3 -5 6 6 6 11 1 17
-2 13 -5z m-27 -17 c19 -7 41 -16 49 -21 10 -6 16 -5 19 2 5 16 69 15 79 -1 4
-7 19 -18 33 -24 23 -10 22 -11 -11 -6 -22 3 -39 1 -43 -6 -8 -12 3 -18 52
-25 19 -2 36 -7 40 -10 12 -12 -5 -15 -43 -6 -22 5 -67 10 -100 10 -42 0 -76
7 -112 24 -49 23 -80 56 -66 70 10 10 65 7 103 -7z m849 -18 c-7 -13 -23 -32
-36 -42 -12 -10 -23 -24 -23 -31 0 -18 -37 -49 -49 -41 -6 3 -11 2 -11 -4 0
-5 5 -11 12 -13 7 -3 9 -14 4 -31 -6 -24 -9 -26 -26 -17 -11 6 -20 17 -20 25
0 8 -7 15 -16 15 -10 0 -12 4 -7 13 4 6 6 35 5 63 l-4 51 78 12 c43 6 83 16
88 21 16 16 19 3 5 -21z m61 -5 c0 -13 -4 -24 -10 -24 -5 0 -7 7 -4 15 5 11 2
13 -10 9 -9 -3 -13 -10 -10 -15 3 -5 0 -9 -5 -9 -15 0 -14 12 5 38 18 27 34
20 34 -14z m160 16 c0 -5 -7 -10 -15 -10 -8 0 -15 5 -15 10 0 6 7 10 15 10 8
0 15 -4 15 -10z m4 -36 c31 -30 10 -34 -25 -4 -19 15 -21 19 -7 20 9 0 24 -7
32 -16z m-759 -24 c3 -5 1 -10 -4 -10 -6 0 -11 5 -11 10 0 6 2 10 4 10 3 0 8
-4 11 -10z m-708 -6 c-3 -3 -12 -4 -19 -1 -8 3 -5 6 6 6 11 1 17 -2 13 -5z
m343 -44 c49 -25 64 -46 25 -36 -33 8 -75 35 -75 47 0 13 6 11 50 -11z m-223
-32 c-16 -10 -21 -2 -13 19 6 15 9 15 16 3 6 -9 5 -17 -3 -22z m740 -4 c-9 -9
-28 6 -21 18 4 6 10 6 17 -1 6 -6 8 -13 4 -17z m183 -4 c11 -7 9 -11 -13 -19
-50 -19 -73 -11 -45 17 14 14 37 15 58 2z m-940 -40 c0 -5 -7 -10 -16 -10 -8
0 -12 5 -9 10 3 6 10 10 16 10 5 0 9 -4 9 -10z m697 -36 c-3 -3 -12 -4 -19 -1
-8 3 -5 6 6 6 11 1 17 -2 13 -5z m958 -14 c3 -5 -1 -10 -9 -10 -8 0 -18 5 -21
10 -3 6 1 10 9 10 8 0 18 -4 21 -10z m-305 -30 c0 -5 -4 -10 -10 -10 -5 0 -10
5 -10 10 0 6 5 10 10 10 6 0 10 -4 10 -10z m-849 -50 c27 -22 22 -25 -15 -10
-14 5 -26 14 -26 20 0 16 15 12 41 -10z m-545 -87 c-7 -7 -26 7 -26 19 0 6 6
6 15 -2 9 -7 13 -15 11 -17z m-836 -18 c0 -8 -2 -15 -4 -15 -2 0 -6 7 -10 15
-3 8 -1 15 4 15 6 0 10 -7 10 -15z m840 -10 c20 -24 5 -28 -21 -6 -19 16 -20
20 -8 21 9 0 22 -7 29 -15z m-734 -10 c18 -14 17 -15 -15 -13 -19 2 -36 9 -39
16 -5 17 30 15 54 -3z m788 -4 c3 -5 0 -11 -8 -14 -8 -3 -17 1 -20 9 -6 15 19
20 28 5z m-709 -21 c3 -5 2 -10 -4 -10 -5 0 -13 5 -16 10 -3 6 -2 10 4 10 5 0
13 -4 16 -10z m3542 -32 c-3 -8 -6 -5 -6 6 -1 11 2 17 5 13 3 -3 4 -12 1 -19z
m-3877 -28 c0 -5 -4 -10 -10 -10 -5 0 -10 5 -10 10 0 6 5 10 10 10 6 0 10 -4
10 -10z m377 -12 c-3 -8 -6 -5 -6 6 -1 11 2 17 5 13 3 -3 4 -12 1 -19z m-380
-18 c21 -24 33 -26 33 -5 0 23 42 17 74 -11 33 -29 30 -39 -8 -24 -14 5 -45 7
-69 4 -33 -5 -47 -2 -64 14 -13 11 -23 24 -23 31 0 18 39 12 57 -9z m1279 -87
c-7 -7 -26 7 -26 19 0 6 6 6 15 -2 9 -7 13 -15 11 -17z m-1479 -37 c15 -13 24
-28 20 -32 -11 -11 -61 21 -65 40 -5 23 13 20 45 -8z m4193 -62 c0 -13 -4 -24
-9 -24 -11 0 -22 40 -15 52 9 15 24 -2 24 -28z m919 -195 c13 -56 14 -91 1
-124 l-10 -27 -40 39 c-52 50 -59 90 -30 156 l21 48 24 -24 c13 -13 29 -43 34
-68z m-5479 -129 c-19 -12 -30 -12 -30 -1 0 10 31 20 40 14 2 -2 -2 -8 -10
-13z m280 -50 c0 -5 -4 -10 -10 -10 -5 0 -10 5 -10 10 0 6 5 10 10 10 6 0 10
-4 10 -10z m5000 -95 c0 -8 -4 -15 -10 -15 -5 0 -10 7 -10 15 0 8 5 15 10 15
6 0 10 -7 10 -15z m8 -132 c-4 -22 -22 -20 -26 1 -2 10 3 16 13 16 10 0 15 -7
13 -17z m-5408 -13 c0 -5 -4 -10 -10 -10 -5 0 -10 5 -10 10 0 6 5 10 10 10 6
0 10 -4 10 -10z m82 -32 l28 -32 0 32 c0 18 4 32 10 32 15 0 31 -37 23 -55 -3
-10 -6 -29 -7 -44 -1 -19 -7 -27 -25 -29 -21 -3 -23 -1 -17 22 5 19 3 26 -9
26 -8 0 -15 -7 -15 -15 0 -8 -6 -15 -14 -15 -13 0 -13 4 -1 27 14 27 3 59 -16
47 -5 -3 -9 4 -9 15 0 30 19 26 52 -11z m5566 -25 c-5 -26 -38 -29 -38 -4 0
15 6 21 21 21 14 0 19 -5 17 -17z m-5393 -28 c-3 -16 -7 -40 -8 -52 -1 -13 -7
-23 -14 -23 -6 0 -13 -4 -15 -9 -1 -4 -19 7 -38 27 -20 19 -27 32 -17 29 11
-4 17 -1 17 8 0 8 -4 15 -9 15 -6 0 -9 9 -8 20 1 16 8 19 50 17 48 -2 49 -2
42 -32z m5335 -80 c0 -8 -4 -15 -10 -15 -5 0 -10 7 -10 15 0 8 5 15 10 15 6 0
10 -7 10 -15z m270 -47 c0 -16 -3 -19 -11 -11 -6 6 -8 16 -5 22 11 17 16 13
16 -11z m-293 -42 c-8 -20 -37 -10 -37 13 0 10 3 21 7 25 11 11 36 -21 30 -38z
m133 8 c0 -15 -6 -24 -15 -24 -18 0 -30 24 -21 45 8 22 36 6 36 -21z m377 4
c-3 -7 -5 -2 -5 12 0 14 2 19 5 13 2 -7 2 -19 0 -25z m-1187 7 c0 -8 -4 -15
-10 -15 -5 0 -10 7 -10 15 0 8 5 15 10 15 6 0 10 -7 10 -15z m-4810 -10 c7 -9
10 -18 7 -21 -9 -9 -48 16 -42 27 9 13 21 11 35 -6z m5560 -48 c0 -10 -4 -15
-10 -12 -5 3 -10 18 -10 33 0 21 2 24 10 12 5 -8 10 -23 10 -33z m-5502 4 c3
-8 -1 -12 -9 -9 -7 2 -15 10 -17 17 -3 8 1 12 9 9 7 -2 15 -10 17 -17z m5685
-36 c-7 -21 -13 -19 -13 6 0 11 4 18 10 14 5 -3 7 -12 3 -20z m-5637 -49 c8
-3 12 -2 9 3 -3 5 -1 12 5 16 6 4 8 -10 4 -39 -4 -29 -2 -51 5 -60 19 -23 -8
-25 -51 -4 -37 18 -57 42 -45 54 3 3 19 -2 37 -11 18 -9 34 -15 36 -13 2 3 -5
21 -15 41 -10 20 -16 39 -12 43 3 3 7 -1 9 -9 2 -9 10 -18 18 -21z m5260 -4
c-9 -8 -26 10 -26 26 1 15 2 15 15 -2 8 -11 13 -21 11 -24z m-546 8 c0 -21
-15 -27 -25 -10 -7 12 2 30 16 30 5 0 9 -9 9 -20z m831 -39 c17 -49 17 -49 -5
-55 -37 -10 -63 48 -32 74 8 6 12 19 9 28 -3 9 -2 14 2 10 5 -5 16 -30 26 -57z
m79 50 c0 -5 -7 -12 -16 -15 -14 -5 -15 -4 -4 9 14 17 20 19 20 6z m-5523 -66
c-6 -25 -12 -43 -14 -41 -6 6 9 86 17 86 4 0 3 -20 -3 -45z m4850 -11 c8 -21
-13 -42 -28 -27 -13 13 -5 43 11 43 6 0 13 -7 17 -16z m-132 -14 c3 -5 1 -10
-4 -10 -6 0 -11 5 -11 10 0 6 2 10 4 10 3 0 8 -4 11 -10z m-4850 -30 c-3 -5
-10 -10 -16 -10 -5 0 -9 5 -9 10 0 6 7 10 16 10 8 0 12 -4 9 -10z m5800 -45
c0 -39 -31 -48 -41 -11 -7 30 2 48 24 44 11 -2 17 -13 17 -33z m205 25 c0 -5
-5 -10 -11 -10 -5 0 -7 5 -4 10 3 6 8 10 11 10 2 0 4 -4 4 -10z m-6120 -15 c8
-9 8 -15 2 -15 -18 0 -42 12 -42 21 0 14 26 10 40 -6z m5538 -23 c2 -7 -3 -12
-12 -12 -9 0 -16 7 -16 16 0 17 22 14 28 -4z m218 -17 c10 -8 14 -15 7 -15
-19 0 -43 11 -43 21 0 13 14 11 36 -6z m-5726 -25 c0 -5 -7 -7 -15 -4 -8 4
-12 10 -9 15 6 11 24 2 24 -11z m5304 -16 c9 -3 16 -13 16 -21 0 -20 -34 -12
-38 10 -4 19 -1 20 22 11z m303 -33 c-4 -33 -2 -40 15 -44 24 -7 21 -40 -5
-45 -12 -3 -20 4 -24 17 -3 12 -12 21 -20 21 -7 0 -25 11 -39 25 -21 21 -23
28 -12 39 17 17 37 24 67 25 22 1 23 -2 18 -38z m-623 13 c9 -25 7 -34 -8 -34
-19 0 -29 17 -22 35 7 20 22 19 30 -1z m134 -12 c3 -17 -2 -22 -17 -22 -14 0
-21 6 -21 18 0 38 33 41 38 4z m622 17 c0 -5 16 -17 35 -25 35 -14 44 -31 44
-89 0 -16 1 -38 3 -48 2 -11 -7 -25 -18 -33 -20 -14 -25 -11 -74 35 -44 42
-51 53 -44 73 4 12 7 35 5 50 -1 17 4 30 16 37 23 13 33 14 33 0z m-226 -55
c9 -22 8 -24 -9 -24 -8 0 -15 9 -15 20 0 24 15 27 24 4z m443 -16 c-3 -8 -6
-5 -6 6 -1 11 2 17 5 13 3 -3 4 -12 1 -19z m56 -4 c-4 -12 -8 -13 -14 -3 -9
15 -2 32 11 24 5 -3 6 -13 3 -21z m-5933 -18 c0 -11 -19 -15 -25 -6 -3 5 1 10
9 10 9 0 16 -2 16 -4z m5847 -2 c-3 -3 -12 -4 -19 -1 -8 3 -5 6 6 6 11 1 17
-2 13 -5z m-5847 -55 c0 -6 -4 -7 -10 -4 -5 3 -10 11 -10 16 0 6 5 7 10 4 6
-3 10 -11 10 -16z m5080 -45 c27 -31 -19 -61 -48 -32 -14 14 -16 58 -3 58 5 0
13 10 17 23 7 21 7 21 15 -6 4 -16 13 -35 19 -43z m-5045 36 c3 -5 2 -10 -4
-10 -5 0 -13 5 -16 10 -3 6 -2 10 4 10 5 0 13 -4 16 -10z m123 -40 c32 -20 42
-40 20 -40 -19 0 -78 38 -78 50 0 16 22 12 58 -10z m5668 -26 c-4 -9 -9 -15
-11 -12 -3 3 -3 13 1 22 4 9 9 15 11 12 3 -3 3 -13 -1 -22z m-142 1 c3 -9 -1
-18 -10 -22 -19 -7 -28 2 -21 22 8 19 23 19 31 0z m-1334 -5 c0 -5 -2 -10 -4
-10 -3 0 -8 5 -11 10 -3 6 -1 10 4 10 6 0 11 -4 11 -10z m1515 -10 c-3 -5 -12
-10 -18 -10 -7 0 -6 4 3 10 19 12 23 12 15 0z m-430 -10 c3 -5 1 -10 -4 -10
-6 0 -11 5 -11 10 0 6 2 10 4 10 3 0 8 -4 11 -10z m-137 -47 c-3 -30 -25 -42
-34 -19 -9 22 2 46 21 46 12 0 15 -8 13 -27z m296 -9 c8 -21 -1 -34 -25 -34
-12 0 -19 7 -19 18 0 34 33 45 44 16z m66 -20 c0 -8 -7 -14 -15 -14 -15 0 -21
21 -9 33 10 9 24 -2 24 -19z m-140 -34 c0 -5 -5 -10 -11 -10 -5 0 -7 5 -4 10
3 6 8 10 11 10 2 0 4 -4 4 -10z m-511 -9 c10 -6 12 -19 8 -41 -6 -27 -4 -33
14 -37 14 -4 19 -12 17 -27 -4 -28 -30 -27 -43 2 -5 12 -16 22 -24 22 -18 0
-61 39 -61 55 0 6 12 16 28 22 35 14 44 15 61 4z m-279 -21 c0 -11 -7 -20 -15
-20 -8 0 -15 2 -15 4 0 2 -3 11 -6 20 -4 12 0 16 15 16 14 0 21 -6 21 -20z
m417 -1 c5 -5 25 -18 44 -27 30 -15 34 -22 37 -62 3 -43 22 -84 22 -47 0 18
15 23 25 8 3 -5 -5 -17 -17 -25 -12 -9 -19 -16 -15 -16 4 0 -2 -9 -14 -21 -11
-11 -18 -27 -15 -35 3 -9 -1 -14 -12 -14 -29 0 -38 13 -39 52 -1 47 -8 58 -39
58 -28 0 -42 24 -25 44 6 7 10 30 7 49 -2 19 -2 38 2 41 9 9 27 7 39 -5z m393
-79 c0 -5 -4 -10 -10 -10 -5 0 -10 5 -10 10 0 6 5 10 10 10 6 0 10 -4 10 -10z
m-4450 -24 c0 -3 -4 -8 -10 -11 -5 -3 -10 -1 -10 4 0 6 5 11 10 11 6 0 10 -2
10 -4z m3870 -36 c0 -21 -15 -27 -25 -10 -7 12 2 30 16 30 5 0 9 -9 9 -20z
m-4579 -63 c-7 -7 -12 -5 -17 7 -4 11 -1 21 7 27 17 11 26 -18 10 -34z m4199
-3 c0 -17 -22 -14 -28 4 -2 7 3 12 12 12 9 0 16 -7 16 -16z m-3446 -10 c9 -23
7 -46 -3 -40 -11 7 -21 56 -11 56 4 0 11 -7 14 -16z m86 1 c0 -8 -4 -15 -10
-15 -5 0 -10 7 -10 15 0 8 5 15 10 15 6 0 10 -7 10 -15z m3710 -35 c0 -5 -4
-10 -10 -10 -5 0 -10 5 -10 10 0 6 5 10 10 10 6 0 10 -4 10 -10z m-4410 -41
c0 -18 -2 -19 -15 -9 -15 12 -12 30 6 30 5 0 9 -10 9 -21z m96 -11 c-18 -26
-22 -17 -5 14 6 11 13 17 16 15 3 -3 -2 -16 -11 -29z m69 -35 c5 -28 4 -32 -9
-27 -9 3 -13 10 -10 15 3 5 -1 9 -8 9 -10 0 -11 2 0 8 7 5 10 16 6 28 -5 13
-4 16 3 9 6 -5 14 -25 18 -42z m255 21 c0 -8 -4 -12 -10 -9 -5 3 -10 13 -10
21 0 8 5 12 10 9 6 -3 10 -13 10 -21z m-540 -4 c0 -11 -7 -20 -15 -20 -8 0
-15 9 -15 20 0 11 7 20 15 20 8 0 15 -9 15 -20z m740 10 c0 -5 -7 -10 -15 -10
-8 0 -15 5 -15 10 0 6 7 10 15 10 8 0 15 -4 15 -10z m134 -42 c-9 -14 -24 2
-24 25 1 21 1 21 15 3 8 -10 12 -23 9 -28z m-634 -36 c0 -24 -8 -32 -26 -25
-22 8 -17 43 6 43 13 0 20 -7 20 -18z m4478 -10 c3 -19 -1 -23 -15 -20 -10 2
-19 14 -21 26 -3 19 1 23 15 20 10 -2 19 -14 21 -26z m-4548 8 c0 -5 -4 -10
-10 -10 -5 0 -10 5 -10 10 0 6 5 10 10 10 6 0 10 -4 10 -10z m508 -36 c-10
-10 -28 6 -28 24 0 15 1 15 17 -1 9 -9 14 -19 11 -23z m3952 21 c0 -9 -6 -12
-15 -9 -8 4 -15 10 -15 15 0 5 7 9 15 9 8 0 15 -7 15 -15z m-3843 -42 c-11
-10 -27 8 -27 30 l0 21 16 -22 c9 -13 14 -26 11 -29z m874 24 c-10 -9 -11 -8
-5 6 3 10 9 15 12 12 3 -3 0 -11 -7 -18z m3096 -17 c1 -11 -2 -20 -8 -20 -5 0
-9 9 -9 20 0 11 4 20 8 20 4 0 8 -9 9 -20z m-4475 -7 c10 -9 18 -24 18 -35 0
-14 -8 -18 -32 -18 -25 0 -29 3 -18 10 12 8 13 13 3 29 -19 31 -1 41 29 14z
m1632 11 c9 -3 16 -11 16 -16 0 -6 -7 -5 -16 3 -9 7 -18 9 -22 3 -4 -5 -23
-10 -42 -10 l-35 -2 30 14 c34 15 47 16 69 8z m-1546 -47 c14 -17 -2 -42 -22
-34 -20 8 -21 47 -2 47 7 0 18 -6 24 -13z m220 -25 c6 -18 -15 -14 -22 4 -4
10 -1 14 6 12 6 -2 14 -10 16 -16z m1212 -9 c0 -22 -55 -60 -98 -69 -18 -4
-35 -10 -38 -15 -3 -5 9 -6 26 -3 18 4 30 2 30 -4 0 -12 -16 -18 -75 -28 -22
-4 -46 -11 -52 -17 -9 -6 -13 -6 -13 2 0 7 13 17 29 22 21 8 32 19 36 40 5 20
16 34 33 42 15 6 34 16 42 23 14 11 41 20 68 23 6 0 12 -7 12 -16z m2768 0
c-2 -10 -10 -18 -18 -18 -8 0 -16 8 -18 18 -2 12 3 17 18 17 15 0 20 -5 18
-17z m-2505 -24 c20 -5 37 -14 37 -19 0 -6 9 -10 21 -10 11 0 17 -5 14 -10 -4
-6 -10 -8 -14 -5 -5 2 -6 -7 -3 -21 2 -14 -2 -32 -11 -42 -9 -9 -17 -21 -19
-27 -2 -5 -11 -9 -22 -7 -10 1 -25 -3 -32 -9 -7 -6 -35 -13 -61 -15 -26 -3
-90 -12 -141 -20 -52 -9 -96 -13 -99 -10 -4 3 -1 6 5 6 6 0 22 10 36 23 78 70
145 95 204 75 20 -6 41 -16 47 -20 18 -15 47 -9 43 10 -2 9 -10 16 -16 15 -7
-2 -12 2 -12 7 0 20 -81 49 -107 39 -13 -5 -34 -9 -46 -8 -21 0 -21 1 3 10 13
6 31 16 40 24 14 12 41 20 80 24 8 0 32 -4 53 -10z m-1778 -35 c0 -22 -5 -30
-22 -32 -25 -4 -28 4 -13 43 13 34 35 27 35 -11z m835 -9 c0 -8 -4 -15 -10
-15 -5 0 -10 7 -10 15 0 8 5 15 10 15 6 0 10 -7 10 -15z m707 -11 c-3 -3 -12
-4 -19 -1 -8 3 -5 6 6 6 11 1 17 -2 13 -5z m2333 -14 c0 -5 -2 -10 -4 -10 -3
0 -8 5 -11 10 -3 6 -1 10 4 10 6 0 11 -4 11 -10z m-3740 -64 c0 -28 -8 -36
-26 -29 -17 6 -18 35 -2 51 15 15 28 6 28 -22z m-121 -2 c12 -15 21 -33 21
-40 0 -17 21 -56 35 -66 12 -9 6 -15 -27 -23 -19 -5 -32 -1 -47 14 -12 12 -19
26 -16 31 4 6 3 16 -1 22 -5 7 -10 30 -11 50 -5 46 15 51 46 12z m871 -48 c0
-28 -16 -8 -24 29 -6 28 -5 29 9 11 8 -11 15 -29 15 -40z m400 34 c0 -5 -5
-10 -11 -10 -5 0 -7 5 -4 10 3 6 8 10 11 10 2 0 4 -4 4 -10z m600 -20 c0 -5
-4 -10 -9 -10 -6 0 -13 5 -16 10 -3 6 1 10 9 10 9 0 16 -4 16 -10z m-2140 -10
c0 -5 -7 -10 -15 -10 -8 0 -15 5 -15 10 0 6 7 10 15 10 8 0 15 -4 15 -10z
m1021 -27 c-14 -24 -64 -82 -55 -63 10 21 54 80 60 80 3 0 0 -8 -5 -17z m-995
-28 c10 -8 14 -15 8 -15 -5 0 -19 7 -30 15 -10 8 -14 15 -8 15 5 0 19 -7 30
-15z m1020 -10 c-3 -9 -10 -13 -16 -10 -6 4 -5 11 3 20 15 16 22 11 13 -10z
m-649 3 c16 -22 43 -100 37 -109 -6 -10 -35 -12 -58 -3 -9 3 -16 17 -16 30 0
16 -4 22 -14 18 -10 -4 -14 1 -13 15 1 24 2 24 27 11 18 -10 19 -8 14 20 -7
31 6 40 23 18z m543 -3 c0 -8 -4 -15 -10 -15 -5 0 -10 7 -10 15 0 8 5 15 10
15 6 0 10 -7 10 -15z m975 5 c-11 -5 -27 -9 -35 -9 -9 0 -8 4 5 9 11 5 27 9
35 9 9 0 8 -4 -5 -9z m2175 0 c8 -5 11 -12 8 -16 -10 -9 -38 3 -38 16 0 12 10
13 30 0z m-2243 -16 c-3 -3 -12 -4 -19 -1 -8 3 -5 6 6 6 11 1 17 -2 13 -5z
m-1327 -59 c0 -32 -20 -42 -36 -20 -9 12 -10 23 -3 36 13 24 39 13 39 -16z
m120 -15 c0 -13 -7 -20 -20 -20 -13 0 -20 7 -20 20 0 13 7 20 20 20 13 0 20
-7 20 -20z m290 -22 c-23 -35 -23 -31 -1 15 8 15 16 25 19 22 2 -2 -5 -19 -18
-37z m145 4 c-6 -7 -45 9 -45 18 0 4 11 3 24 -3 14 -7 23 -13 21 -15z m995 -2
c0 -5 -4 -10 -10 -10 -5 0 -10 5 -10 10 0 6 5 10 10 10 6 0 10 -4 10 -10z
m-64 -15 c-11 -8 -25 -15 -30 -15 -6 1 0 7 14 15 32 19 40 18 16 0z m-1266
-15 c0 -5 -4 -10 -10 -10 -5 0 -10 5 -10 10 0 6 5 10 10 10 6 0 10 -4 10 -10z
m1563 3 c-7 -2 -19 -2 -25 0 -7 3 -2 5 12 5 14 0 19 -2 13 -5z m-1419 -35
c-10 -20 -19 -28 -22 -20 -2 7 4 22 14 33 25 27 27 24 8 -13z m136 24 c0 -13
-12 -22 -22 -16 -10 6 -1 24 13 24 5 0 9 -4 9 -8z m1220 -2 c0 -5 -8 -10 -17
-10 -15 0 -16 2 -3 10 19 12 20 12 20 0z m1740 0 c0 -5 -4 -10 -10 -10 -5 0
-10 5 -10 10 0 6 5 10 10 10 6 0 10 -4 10 -10z m-3327 -12 c7 -19 -11 -60 -25
-56 -23 8 -33 35 -19 52 16 19 37 21 44 4z m-125 -29 c14 -22 10 -35 -6 -25
-12 7 -23 46 -13 46 3 0 12 -9 19 -21z m1402 1 c0 -5 -5 -10 -11 -10 -5 0 -7
5 -4 10 3 6 8 10 11 10 2 0 4 -4 4 -10z m-1162 -22 c-6 -18 -28 -21 -28 -4 0
9 7 16 16 16 9 0 14 -5 12 -12z m1302 -58 c0 -5 -4 -10 -10 -10 -5 0 -10 5
-10 10 0 6 5 10 10 10 6 0 10 -4 10 -10z m247 -6 c-3 -3 -12 -4 -19 -1 -8 3
-5 6 6 6 11 1 17 -2 13 -5z m-127 -24 c-14 -4 -38 -8 -55 -8 l-30 0 30 8 c17
4 41 8 55 8 l25 0 -25 -8z m-113 -16 c-3 -3 -12 -4 -19 -1 -8 3 -5 6 6 6 11 1
17 -2 13 -5z m-507 -44 c0 -5 -4 -10 -10 -10 -5 0 -10 5 -10 10 0 6 5 10 10
10 6 0 10 -4 10 -10z m-300 -20 c0 -5 -4 -10 -10 -10 -5 0 -10 5 -10 10 0 6 5
10 10 10 6 0 10 -4 10 -10z m2420 -19 c-6 -12 -17 -21 -25 -21 -23 0 -17 30 8
39 28 11 31 8 17 -18z m-2482 -13 c-2 -13 -7 -23 -13 -23 -5 0 -11 10 -13 23
-2 15 2 22 13 22 11 0 15 -7 13 -22z m-28 -59 c0 -5 -4 -9 -10 -9 -5 0 -10 7
-10 16 0 8 5 12 10 9 6 -3 10 -10 10 -16z m520 6 c0 -8 -4 -15 -10 -15 -5 0
-10 7 -10 15 0 8 5 15 10 15 6 0 10 -7 10 -15z m31 -68 c-8 -8 -11 -7 -11 4 0
20 13 34 18 19 3 -7 -1 -17 -7 -23z m-25 14 c-7 -10 -66 -33 -66 -25 0 4 57
32 68 34 2 0 1 -4 -2 -9z m356 -39 c40 -18 51 -34 18 -25 -16 4 -20 0 -20 -19
0 -59 -63 -90 -210 -102 l-65 -5 50 13 c28 8 63 19 78 25 16 6 44 11 62 11 36
0 35 -2 50 73 2 12 -1 17 -10 13 -7 -2 -19 2 -26 11 -14 17 -82 11 -106 -9 -8
-6 -16 -8 -20 -5 -5 6 13 15 77 40 21 9 79 -2 122 -21z m1658 18 c0 -5 -8 -10
-17 -10 -15 0 -16 2 -3 10 19 12 20 12 20 0z m-2098 -18 c-7 -2 -12 -12 -12
-22 0 -10 -6 -20 -13 -23 -10 -4 -13 2 -9 21 5 30 21 44 36 35 6 -4 5 -8 -2
-11z m63 -2 c-3 -5 -12 -10 -18 -10 -7 0 -6 4 3 10 19 12 23 12 15 0z m325
-40 c0 -5 -5 -10 -11 -10 -5 0 -7 5 -4 10 3 6 8 10 11 10 2 0 4 -4 4 -10z
m500 -20 c0 -5 -4 -10 -9 -10 -6 0 -13 5 -16 10 -3 6 1 10 9 10 9 0 16 -4 16
-10z m1030 -16 c0 -8 -7 -14 -15 -14 -15 0 -21 21 -9 33 10 9 24 -2 24 -19z
m-2320 -14 c0 -5 -4 -10 -10 -10 -5 0 -10 5 -10 10 0 6 5 10 10 10 6 0 10 -4
10 -10z m1420 -70 c0 -5 -7 -10 -16 -10 -8 0 -12 5 -9 10 3 6 10 10 16 10 5 0
9 -4 9 -10z m-550 -49 c0 -12 -20 -25 -27 -18 -7 7 6 27 18 27 5 0 9 -4 9 -9z
m134 -106 c-3 -7 -12 -16 -20 -19 -8 -3 -13 -2 -11 2 2 4 7 15 10 25 4 10 11
16 16 12 6 -3 8 -12 5 -20z"/>
<path d="M4880 5120 c-13 -8 -13 -10 2 -10 9 0 20 5 23 10 8 13 -5 13 -25 0z"/>
<path d="M2317 3794 c-9 -15 12 -86 24 -79 5 4 6 11 3 17 -4 6 -10 25 -13 42
-4 17 -10 26 -14 20z"/>
<path d="M4365 2290 c-3 -5 -1 -10 4 -10 6 0 11 5 11 10 0 6 -2 10 -4 10 -3 0
-8 -4 -11 -10z"/>
<path d="M4710 2300 c0 -5 5 -10 11 -10 5 0 7 5 4 10 -3 6 -8 10 -11 10 -2 0
-4 -4 -4 -10z"/>
<path d="M4710 2270 c19 -13 30 -13 30 0 0 6 -10 10 -22 10 -19 0 -20 -2 -8
-10z"/>
<path d="M5885 5460 c-4 -6 3 -10 14 -10 25 0 27 6 6 13 -8 4 -17 2 -20 -3z"/>
<path d="M4425 5399 c-9 -26 10 -48 26 -32 12 12 3 53 -11 53 -5 0 -12 -9 -15
-21z"/>
<path d="M5127 5402 c-9 -11 -4 -12 29 -7 52 10 62 20 18 20 -20 0 -41 -6 -47
-13z"/>
<path d="M4475 5400 c-3 -5 -1 -10 4 -10 6 0 11 5 11 10 0 6 -2 10 -4 10 -3 0
-8 -4 -11 -10z"/>
<path d="M3616 5391 c-3 -5 -15 -7 -26 -4 -11 3 -20 0 -20 -6 0 -17 47 -13 54
4 6 16 1 20 -8 6z"/>
<path d="M3710 5390 c0 -5 5 -10 10 -10 6 0 10 5 10 10 0 6 -4 10 -10 10 -5 0
-10 -4 -10 -10z"/>
<path d="M3640 5369 c0 -5 5 -7 10 -4 6 3 10 8 10 11 0 2 -4 4 -10 4 -5 0 -10
-5 -10 -11z"/>
<path d="M5754 5356 c-23 -25 -25 -36 -7 -36 10 0 24 4 32 9 12 8 12 11 0 24
-11 10 -17 11 -25 3z"/>
<path d="M3667 5340 c-4 -15 10 -30 27 -30 8 0 1 28 -10 37 -9 9 -13 7 -17 -7z"/>
<path d="M3450 5336 c0 -8 -4 -18 -10 -21 -6 -3 -7 1 -4 9 8 20 -3 20 -22 1
-14 -13 -14 -15 0 -15 9 0 16 -8 16 -17 0 -15 2 -16 10 -3 8 13 10 13 10 -2 0
-10 9 -22 21 -28 16 -9 18 -14 8 -26 -8 -10 -9 -18 -2 -25 7 -7 13 1 17 26 6
29 4 40 -11 50 -17 12 -17 14 -1 20 15 6 15 8 -3 26 -23 23 -29 24 -29 5z"/>
<path d="M3542 5310 c17 -17 33 -29 35 -26 3 3 -2 12 -11 21 -9 9 -16 21 -16
26 0 5 -9 9 -19 9 -17 0 -15 -4 11 -30z"/>
<path d="M5035 5330 c-3 -5 -1 -10 4 -10 6 0 11 5 11 10 0 6 -2 10 -4 10 -3 0
-8 -4 -11 -10z"/>
<path d="M4462 5304 c-7 -8 -8 -14 -3 -14 10 0 25 19 20 25 -2 1 -10 -3 -17
-11z"/>
<path d="M5410 5284 c-13 -13 -20 -24 -15 -24 12 1 55 35 55 44 0 12 -16 4
-40 -20z"/>
<path d="M3405 5240 c3 -5 -1 -10 -9 -10 -19 0 -21 -16 -5 -26 7 -4 16 1 21
10 5 9 13 14 18 11 5 -3 12 0 16 6 4 7 3 9 -4 5 -6 -3 -13 -2 -17 4 -3 5 -11
10 -16 10 -6 0 -7 -4 -4 -10z"/>
<path d="M3250 5210 c0 -5 7 -10 15 -10 8 0 15 5 15 10 0 6 -7 10 -15 10 -8 0
-15 -4 -15 -10z"/>
<path d="M3210 5144 c0 -8 5 -12 10 -9 6 4 8 11 5 16 -9 14 -15 11 -15 -7z"/>
<path d="M3260 5130 c0 -5 5 -10 10 -10 6 0 10 5 10 10 0 6 -4 10 -10 10 -5 0
-10 -4 -10 -10z"/>
<path d="M5660 5100 c0 -5 5 -10 10 -10 6 0 10 5 10 10 0 6 -4 10 -10 10 -5 0
-10 -4 -10 -10z"/>
<path d="M3252 5078 c0 -7 -4 -24 -8 -37 -5 -18 -4 -23 7 -19 15 5 26 68 11
68 -5 0 -9 -6 -10 -12z"/>
<path d="M3523 5066 c4 -10 7 -22 7 -27 0 -5 7 -9 15 -9 8 0 15 7 15 15 0 13
4 14 20 5 16 -9 20 -8 20 5 0 8 -8 15 -17 15 -10 0 -29 3 -42 7 -20 5 -23 3
-18 -11z"/>
<path d="M3323 4985 c-8 -22 6 -33 17 -15 13 20 12 30 0 30 -6 0 -13 -7 -17
-15z"/>
<path d="M3190 4978 c1 -13 24 -48 32 -48 3 0 5 14 5 30 0 22 -5 30 -19 30
-10 0 -18 -6 -18 -12z"/>
<path d="M3450 4969 c0 -5 5 -7 10 -4 6 3 10 8 10 11 0 2 -4 4 -10 4 -5 0 -10
-5 -10 -11z"/>
<path d="M2800 4940 c0 -6 7 -10 15 -10 8 0 15 2 15 4 0 2 -7 6 -15 10 -8 3
-15 1 -15 -4z"/>
<path d="M2771 4911 c-11 -7 -9 -11 7 -20 19 -10 21 -9 15 5 -4 12 -3 15 5 10
7 -4 12 -14 12 -22 0 -8 5 -14 10 -14 18 0 11 29 -9 40 -23 12 -22 12 -40 1z"/>
<path d="M6660 4850 c19 -12 60 -13 60 -2 0 5 -17 9 -37 10 -28 1 -34 -1 -23
-8z"/>
<path d="M2750 4830 c0 -5 5 -10 10 -10 6 0 10 5 10 10 0 6 -4 10 -10 10 -5 0
-10 -4 -10 -10z"/>
<path d="M2545 4760 c4 -6 11 -8 16 -5 14 9 11 15 -7 15 -8 0 -12 -5 -9 -10z"/>
<path d="M2372 4453 c4 -21 33 -25 33 -3 0 8 -8 16 -18 18 -14 3 -18 -1 -15
-15z"/>
<path d="M2206 4452 c-3 -6 -1 -14 5 -17 15 -10 25 3 12 16 -7 7 -13 7 -17 1z"/>
<path d="M2156 4416 c3 -7 -2 -20 -10 -29 -14 -13 -13 -18 9 -41 36 -39 60
-31 71 22 5 26 3 33 -12 38 -11 3 -27 10 -36 15 -24 12 -28 11 -22 -5z"/>
<path d="M1900 4396 c0 -18 17 -29 30 -21 8 5 7 11 -1 21 -15 18 -29 18 -29 0z"/>
<path d="M2070 4285 c0 -8 9 -15 20 -15 11 0 20 7 20 15 0 8 -9 15 -20 15 -11
0 -20 -7 -20 -15z"/>
<path d="M8390 4050 c0 -11 4 -20 9 -20 5 0 7 9 4 20 -3 11 -7 20 -9 20 -2 0
-4 -9 -4 -20z"/>
<path d="M8383 3982 c1 -40 15 -53 25 -22 3 7 0 10 -6 6 -7 -4 -12 6 -15 26
-3 26 -4 23 -4 -10z"/>
<path d="M8173 3943 c-7 -3 -13 -12 -13 -21 0 -15 2 -15 17 1 18 18 16 27 -4
20z"/>
<path d="M8280 3930 c0 -5 7 -10 16 -10 8 0 12 5 9 10 -3 6 -10 10 -16 10 -5
0 -9 -4 -9 -10z"/>
<path d="M8368 3923 c7 -3 16 -2 19 1 4 3 -2 6 -13 5 -11 0 -14 -3 -6 -6z"/>
<path d="M8096 3873 c-12 -12 -5 -23 14 -23 11 0 20 4 20 9 0 11 -26 22 -34
14z"/>
<path d="M8152 3790 c0 -14 2 -19 5 -12 2 6 2 18 0 25 -3 6 -5 1 -5 -13z"/>
<path d="M8276 3797 c3 -10 9 -15 12 -12 3 3 0 11 -7 18 -10 9 -11 8 -5 -6z"/>
<path d="M8402 3720 c0 -14 2 -19 5 -12 2 6 2 18 0 25 -3 6 -5 1 -5 -13z"/>
<path d="M8327 3676 c-19 -19 -22 -36 -7 -36 5 0 7 -6 4 -14 -3 -8 -1 -17 5
-21 16 -9 34 45 24 68 -8 18 -10 19 -26 3z"/>
<path d="M8474 3673 c-6 -10 -8 -27 -4 -38 7 -18 8 -18 15 7 9 35 3 53 -11 31z"/>
<path d="M8490 3580 c0 -5 5 -10 11 -10 5 0 7 5 4 10 -3 6 -8 10 -11 10 -2 0
-4 -4 -4 -10z"/>
<path d="M8406 3571 c-3 -5 1 -11 9 -15 22 -8 18 -49 -10 -89 -13 -20 -20 -39
-15 -42 6 -4 10 -1 10 5 0 6 12 22 26 35 20 19 25 32 23 62 -4 45 -28 69 -43
44z"/>
<path d="M8320 3546 c0 -9 5 -16 10 -16 6 0 10 4 10 9 0 6 -4 13 -10 16 -5 3
-10 -1 -10 -9z"/>
<path d="M8440 3313 c0 -5 4 -14 9 -22 8 -12 12 -12 25 -2 23 19 20 31 -9 31
-14 0 -25 -3 -25 -7z"/>
<path d="M8330 3100 c0 -5 7 -10 15 -10 8 0 15 5 15 10 0 6 -7 10 -15 10 -8 0
-15 -4 -15 -10z"/>
<path d="M2065 3090 c-10 -16 4 -30 29 -30 22 0 46 17 46 32 0 12 -68 10 -75
-2z"/>
<path d="M8236 3074 c-4 -10 -13 -13 -26 -9 -35 11 -22 -4 18 -20 39 -17 122
-29 122 -19 0 13 -44 44 -61 44 -10 0 -21 5 -24 10 -9 15 -22 12 -29 -6z"/>
<path d="M8440 2990 c0 -5 5 -10 10 -10 6 0 10 5 10 10 0 6 -4 10 -10 10 -5 0
-10 -4 -10 -10z"/>
<path d="M8020 2946 c-14 -38 -13 -43 10 -49 26 -7 34 7 14 23 -12 11 -12 15
-2 21 10 6 10 11 1 20 -10 10 -15 6 -23 -15z"/>
<path d="M8670 2958 c0 -7 16 -23 35 -35 33 -22 35 -22 64 -5 17 9 31 20 31
24 0 11 -47 21 -59 13 -6 -3 -11 -1 -11 4 0 6 -13 11 -30 11 -17 0 -30 -5 -30
-12z"/>
<path d="M8160 2851 c0 -10 25 -21 48 -21 12 1 10 5 -8 15 -29 17 -40 18 -40
6z"/>
<path d="M8057 2798 c-17 -21 -23 -36 -17 -42 20 -20 11 -46 -14 -46 -14 0
-28 5 -31 10 -13 20 -33 -10 -32 -46 1 -21 -5 -39 -13 -45 -10 -5 -11 -9 -3
-9 7 0 16 6 20 13 4 8 22 13 38 13 24 -1 30 3 30 19 0 14 7 20 21 20 12 1 29
9 39 19 18 17 18 19 2 31 -18 13 -23 40 -8 49 4 3 22 1 39 -3 22 -7 36 -5 49
5 17 12 17 13 1 14 -10 0 -18 4 -18 9 0 5 -10 9 -22 8 -13 0 -30 3 -39 7 -12
5 -24 -2 -42 -26z"/>
<path d="M8120 2749 c0 -5 5 -7 10 -4 6 3 10 8 10 11 0 2 -4 4 -10 4 -5 0 -10
-5 -10 -11z"/>
<path d="M7602 2458 c6 -18 28 -21 28 -4 0 9 -7 16 -16 16 -9 0 -14 -5 -12
-12z"/>
<path d="M7530 2446 c-16 -16 -12 -26 10 -26 11 0 20 -4 20 -10 0 -5 4 -10 9
-10 14 0 42 30 36 40 -8 13 -64 17 -75 6z"/>
<path d="M2755 2380 c3 -5 8 -10 11 -10 2 0 4 5 4 10 0 6 -5 10 -11 10 -5 0
-7 -4 -4 -10z"/>
<path d="M2636 2348 c-3 -10 -8 -25 -11 -33 -2 -8 -11 -12 -20 -9 -25 10 -8
-19 25 -41 17 -11 30 -24 30 -28 0 -21 35 29 38 55 3 23 -1 28 -18 28 -12 0
-24 9 -29 23 -8 19 -10 20 -15 5z"/>
<path d="M2552 2282 c-10 -7 -9 -14 7 -33 22 -27 27 -25 33 11 3 26 -16 37
-40 22z"/>
<path d="M2612 2191 c-11 -6 -9 -9 6 -13 15 -4 19 -2 15 8 -6 16 -4 16 -21 5z"/>
<path d="M7375 1960 c3 -5 13 -10 21 -10 8 0 12 5 9 10 -3 6 -13 10 -21 10 -8
0 -12 -4 -9 -10z"/>
<path d="M6780 1932 c0 -10 56 -52 70 -52 21 0 9 21 -22 40 -36 22 -48 25 -48
12z"/>
<path d="M2952 1890 c1 -18 8 -35 15 -37 7 -3 13 -11 13 -19 0 -17 14 -18 41
-4 22 13 25 30 5 30 -8 0 -21 8 -28 18 -7 9 -21 23 -31 31 -16 13 -17 11 -15
-19z"/>
<path d="M3745 1881 c-3 -5 -1 -12 5 -16 5 -3 10 1 10 9 0 18 -6 21 -15 7z"/>
<path d="M6720 1875 c35 -20 62 -19 36 0 -11 8 -29 15 -40 15 -19 -1 -19 -2 4
-15z"/>
<path d="M6791 1880 c-8 -4 -11 -12 -7 -18 3 -6 0 -12 -6 -15 -7 -2 8 -4 35
-4 26 -1 47 3 47 8 0 15 -55 38 -69 29z"/>
<path d="M6578 1863 c7 -3 16 -2 19 1 4 3 -2 6 -13 5 -11 0 -14 -3 -6 -6z"/>
<path d="M7003 1863 c-20 -7 -15 -30 9 -47 33 -23 37 -20 25 19 -11 36 -13 37
-34 28z"/>
<path d="M3708 1852 c-10 -2 -18 -8 -18 -13 0 -6 -20 -30 -45 -56 -26 -26 -45
-54 -44 -67 0 -21 0 -21 16 2 9 12 32 40 52 62 71 78 72 80 39 72z"/>
<path d="M3383 1743 c-20 -30 -20 -31 -2 -36 22 -6 69 5 69 15 0 4 -11 18 -23
30 l-23 23 -21 -32z"/>
<path d="M6560 1762 c0 -15 24 -32 45 -32 12 0 26 -5 33 -12 13 -13 16 0 4 18
-16 25 -82 46 -82 26z"/>
<path d="M6750 1750 c0 -5 7 -10 15 -10 8 0 15 5 15 10 0 6 -7 10 -15 10 -8 0
-15 -4 -15 -10z"/>
<path d="M6990 1741 c0 -12 39 -25 48 -16 7 7 -17 25 -35 25 -7 0 -13 -4 -13
-9z"/>
<path d="M3295 1719 c-4 -6 -5 -12 -2 -15 2 -3 7 2 10 11 7 17 1 20 -8 4z"/>
<path d="M3130 1711 c0 -6 5 -13 10 -16 6 -3 10 1 10 9 0 9 -4 16 -10 16 -5 0
-10 -4 -10 -9z"/>
<path d="M6760 1701 c0 -5 7 -12 16 -15 24 -9 28 -7 14 9 -14 17 -30 20 -30 6z"/>
<path d="M6495 1690 c3 -5 16 -10 28 -10 18 0 19 2 7 10 -20 13 -43 13 -35 0z"/>
<path d="M3595 1679 c-4 -6 -5 -12 -2 -15 2 -3 7 2 10 11 7 17 1 20 -8 4z"/>
<path d="M3197 1664 c3 -7 9 -14 14 -14 14 0 10 17 -5 23 -10 4 -13 1 -9 -9z"/>
<path d="M3207 1634 c-12 -12 -8 -41 7 -53 11 -10 16 -8 21 10 7 22 -15 56
-28 43z"/>
<path d="M7340 1622 c0 -5 7 -13 16 -16 10 -4 14 -1 12 6 -5 15 -28 23 -28 10z"/>
<path d="M3296 1597 c3 -10 9 -15 12 -12 3 3 0 11 -7 18 -10 9 -11 8 -5 -6z"/>
<path d="M3302 1543 c2 -10 12 -19 23 -21 18 -3 19 -2 2 8 -9 6 -15 15 -12 21
4 5 1 9 -5 9 -6 0 -10 -8 -8 -17z"/>
<path d="M6622 1549 c2 -6 8 -10 13 -10 5 0 11 4 13 10 2 6 -4 11 -13 11 -9 0
-15 -5 -13 -11z"/>
<path d="M7370 1544 c0 -8 5 -12 10 -9 6 4 8 11 5 16 -9 14 -15 11 -15 -7z"/>
<path d="M3787 1539 c7 -7 15 -10 18 -7 3 3 -2 9 -12 12 -14 6 -15 5 -6 -5z"/>
<path d="M7162 1523 c0 -29 13 -43 38 -43 11 1 10 5 -5 16 -14 12 -16 18 -7
21 10 4 10 8 1 19 -18 21 -26 17 -27 -13z"/>
<path d="M7274 1525 c11 -8 27 -15 35 -15 13 1 12 4 -3 15 -11 8 -27 15 -35
15 -13 -1 -12 -4 3 -15z"/>
<path d="M3837 1504 c-7 -7 2 -34 12 -34 4 0 7 9 8 20 2 19 -8 26 -20 14z"/>
<path d="M6610 1496 c0 -9 5 -16 10 -16 6 0 10 4 10 9 0 6 -4 13 -10 16 -5 3
-10 -1 -10 -9z"/>
<path d="M6740 1450 c0 -5 5 -10 11 -10 5 0 7 5 4 10 -3 6 -8 10 -11 10 -2 0
-4 -4 -4 -10z"/>
<path d="M6730 1420 c0 -5 10 -15 23 -21 22 -12 22 -12 3 10 -21 23 -26 26
-26 11z"/>
<path d="M6560 1400 c0 -5 7 -10 15 -10 8 0 15 5 15 10 0 6 -7 10 -15 10 -8 0
-15 -4 -15 -10z"/>
<path d="M6135 1310 c3 -5 10 -10 16 -10 5 0 9 5 9 10 0 6 -7 10 -16 10 -8 0
-12 -4 -9 -10z"/>
<path d="M7150 1266 c0 -2 7 -6 15 -10 8 -3 15 -1 15 4 0 6 -7 10 -15 10 -8 0
-15 -2 -15 -4z"/>
<path d="M7030 1211 c0 -5 5 -13 10 -16 6 -3 10 -2 10 4 0 5 -4 13 -10 16 -5
3 -10 2 -10 -4z"/>
</g>
</svg>
