<?xml version="1.0" standalone="no"?>
<!DOCTYPE svg PUBLIC "-//W3C//DTD SVG 20010904//EN"
 "http://www.w3.org/TR/2001/REC-SVG-20010904/DTD/svg10.dtd">
<svg version="1.0" xmlns="http://www.w3.org/2000/svg"
 width="1024.000000pt" height="683.000000pt" viewBox="0 0 1024.000000 683.000000"
 preserveAspectRatio="xMidYMid meet">
<metadata>
Created by potrace 1.16, written by Peter Selinger 2001-2019
</metadata>
<g transform="translate(0.000000,683.000000) scale(0.100000,-0.100000)"
fill="#000000" stroke="none">
<path d="M5880 6310 c0 -5 4 -10 9 -10 6 0 13 5 16 10 3 6 -1 10 -9 10 -9 0
-16 -4 -16 -10z"/>
<path d="M5840 6300 c0 -5 -12 -11 -27 -11 -20 -1 -14 -4 19 -11 43 -9 46 -11
32 -26 -11 -11 -33 -15 -73 -14 -31 1 -49 -1 -41 -5 8 -3 19 -12 23 -19 11
-18 83 -18 90 0 3 7 19 16 36 19 l31 6 -35 36 c-36 35 -55 44 -55 25z"/>
<path d="M6120 6300 c0 -5 5 -10 10 -10 6 0 10 5 10 10 0 6 -4 10 -10 10 -5 0
-10 -4 -10 -10z"/>
<path d="M6478 6263 c7 -3 16 -2 19 1 4 3 -2 6 -13 5 -11 0 -14 -3 -6 -6z"/>
<path d="M6562 6258 c5 -15 28 -23 28 -10 0 5 -7 13 -16 16 -10 4 -14 1 -12
-6z"/>
<path d="M5500 6250 c0 -11 31 -11 75 0 26 7 22 8 -22 9 -30 0 -53 -3 -53 -9z"/>
<path d="M5960 6256 c0 -2 11 -6 25 -8 13 -3 22 -1 19 3 -5 9 -44 13 -44 5z"/>
<path d="M5690 6240 c14 -4 21 -9 15 -9 -5 -1 -3 -5 5 -11 29 -18 -1 -23 -70
-11 -38 6 -136 14 -217 17 -122 5 -156 3 -193 -10 -25 -9 -63 -16 -85 -17 -35
-1 -37 -2 -15 -9 18 -5 6 -8 -40 -7 -75 0 -261 -18 -335 -32 -68 -13 -225 -14
-205 -1 13 8 12 10 -2 10 -24 0 -33 -4 -31 -12 2 -5 -26 -8 -61 -8 -35 0 -78
-3 -96 -7 -24 -4 -31 -3 -26 5 5 8 -2 12 -21 11 -25 0 -26 -1 -8 -9 16 -7 14
-9 -15 -9 -73 0 -521 -99 -492 -109 7 -2 27 1 44 7 17 6 47 11 67 10 29 0 22
-4 -39 -20 -41 -11 -113 -34 -160 -50 -47 -17 -101 -35 -120 -40 -48 -14 -122
-50 -116 -56 3 -3 36 7 73 22 37 15 97 38 133 51 72 26 311 86 318 80 2 -2
-29 -14 -70 -26 -40 -12 -88 -29 -106 -36 -19 -8 -75 -30 -125 -50 -51 -19
-118 -46 -150 -59 -32 -14 -65 -25 -73 -25 -8 0 -20 -12 -26 -27 -8 -22 -35
-40 -127 -86 -131 -65 -217 -125 -215 -150 1 -9 -2 -15 -6 -12 -8 5 -182 -70
-310 -135 -115 -58 -301 -186 -393 -271 -96 -88 -189 -204 -246 -306 -39 -69
-148 -240 -161 -253 -16 -15 -115 -178 -160 -262 -30 -57 -59 -100 -71 -103
-20 -7 -27 -25 -8 -25 5 0 7 -5 4 -11 -4 -5 -12 -8 -18 -6 -7 2 -22 -7 -34
-20 -28 -30 -30 -43 -3 -18 25 23 25 9 -1 -30 -10 -16 -29 -51 -40 -77 -12
-27 -25 -48 -29 -48 -11 0 -20 54 -13 80 4 16 3 21 -5 16 -7 -4 -12 -18 -12
-31 0 -27 -16 -42 -23 -23 -3 7 -6 3 -6 -9 -1 -13 -5 -23 -10 -23 -5 0 -12 10
-14 23 -2 12 -4 7 -3 -10 1 -22 -1 -30 -8 -23 -6 6 -14 10 -18 10 -9 0 12 -41
26 -51 5 -4 6 -19 2 -34 -4 -15 -2 -33 4 -40 8 -9 6 -18 -7 -31 -17 -17 -18
-16 -24 12 -3 16 -5 -3 -5 -42 1 -53 -3 -75 -15 -87 -16 -15 -17 -15 -23 8 -4
14 -11 25 -16 25 -14 0 -12 -13 5 -46 8 -16 15 -36 14 -44 0 -9 -2 -11 -5 -3
-3 7 -12 9 -20 6 -9 -3 -14 2 -14 15 0 11 -7 22 -15 26 -18 6 -20 -15 -3 -32
8 -8 8 -15 -2 -27 -10 -12 -9 -19 4 -40 20 -30 14 -57 -19 -88 -18 -16 -22
-29 -18 -49 3 -16 9 -28 14 -28 5 0 9 -10 9 -21 0 -38 -48 44 -55 96 -8 51
-13 56 -43 48 -17 -4 -22 -13 -22 -36 0 -42 -10 -28 -24 35 -10 47 -14 53 -36
53 -22 0 -25 -4 -25 -37 0 -20 -3 -40 -7 -44 -5 -4 -8 -15 -8 -24 0 -9 -8 -25
-19 -36 -23 -25 -39 -94 -50 -209 l-8 -90 36 -32 c19 -18 39 -33 43 -33 4 0 8
-8 9 -17 0 -11 3 -13 6 -5 8 20 21 14 37 -18 12 -26 12 -30 0 -30 -8 0 -14 -5
-14 -11 0 -5 -4 -8 -9 -5 -5 3 -12 -4 -16 -17 -4 -13 -8 -17 -12 -9 -6 15 -33
16 -33 0 0 -6 10 -22 22 -35 19 -21 20 -26 8 -34 -13 -8 -10 -13 13 -32 15
-13 27 -28 27 -34 0 -26 23 -61 36 -56 8 3 14 -1 14 -9 0 -9 9 -14 22 -13 23
2 27 17 17 55 -3 10 4 14 24 14 23 -1 27 2 21 19 -4 12 -13 28 -21 35 -9 9
-12 24 -9 38 3 12 2 26 -4 29 -5 3 -10 1 -10 -4 0 -20 -16 -11 -33 19 -14 22
-15 34 -7 49 7 13 7 22 0 26 -5 3 -10 15 -10 27 0 12 -8 22 -21 25 -15 4 -19
11 -15 27 3 11 6 30 6 41 0 11 5 27 10 35 9 13 13 12 26 -5 15 -19 15 -19 12
-1 -2 12 3 20 15 21 25 5 23 -2 -21 -50 -8 -8 -10 -20 -5 -27 4 -7 8 -20 8
-28 0 -8 8 -14 17 -14 11 1 18 -5 18 -15 0 -10 7 -26 16 -37 15 -18 15 -18 10
6 -5 24 -4 24 9 6 18 -24 19 -48 3 -65 -11 -10 -9 -15 6 -26 10 -8 22 -12 26
-10 12 8 21 -26 11 -39 -21 -26 -16 -65 13 -95 17 -17 36 -31 43 -31 9 0 11
-9 6 -32 -3 -18 -9 -35 -12 -38 -6 -5 -7 -18 -2 -37 1 -5 6 2 11 15 18 45 44
15 33 -38 -3 -17 -12 -30 -20 -30 -14 0 -13 -10 5 -60 5 -12 3 -13 -10 -3 -15
13 -28 8 -28 -9 0 -5 4 -7 9 -4 13 8 58 -36 66 -64 l6 -25 -21 25 c-21 25 -22
25 -17 3 3 -15 0 -23 -8 -23 -25 0 -27 -37 -4 -64 22 -25 47 -37 34 -16 -3 5
13 1 37 -10 23 -10 46 -16 50 -14 4 3 8 -1 8 -9 0 -15 31 -47 46 -47 5 0 4 4
-2 8 -15 10 -44 67 -44 88 0 13 3 14 14 4 8 -6 13 -17 10 -24 -3 -8 2 -21 11
-29 9 -9 20 -42 25 -74 5 -31 14 -61 19 -66 10 -10 4 -37 -9 -37 -5 0 -11 18
-15 40 -7 40 -35 68 -55 55 -12 -7 -13 -35 -2 -35 5 0 7 -15 6 -33 -2 -17 -1
-24 2 -14 7 24 19 21 38 -8 18 -28 21 -39 6 -30 -5 3 -10 2 -10 -3 0 -5 9 -12
19 -15 13 -3 21 1 24 15 7 27 21 20 49 -22 13 -19 30 -35 38 -35 21 0 41 -30
33 -51 -4 -11 -3 -15 4 -11 7 4 21 -9 34 -30 12 -21 35 -55 51 -75 17 -22 24
-39 18 -43 -5 -3 -10 1 -10 9 0 9 -4 16 -10 16 -5 0 -10 -3 -10 -6 0 -10 35
-69 43 -72 4 -2 7 -11 7 -20 0 -9 12 -22 26 -29 21 -10 26 -9 31 4 5 12 11 9
29 -14 19 -22 23 -24 24 -10 0 10 -7 20 -15 23 -15 6 -22 34 -7 33 4 0 18 -13
30 -30 25 -31 23 -59 -4 -59 -13 0 -14 -3 -4 -15 6 -8 9 -23 5 -35 -4 -14 -2
-20 9 -20 9 0 13 -6 10 -15 -5 -12 -9 -12 -31 2 -21 14 -26 14 -34 2 -6 -10
-2 -15 14 -19 13 -4 22 -14 23 -25 4 -71 5 -72 23 -34 9 20 23 44 30 53 9 10
10 16 2 16 -6 0 -11 5 -11 10 0 6 6 10 14 10 8 0 19 14 25 30 12 35 32 40 28
7 -1 -13 3 -21 10 -20 8 2 11 -8 8 -29 -2 -18 0 -35 5 -38 5 -3 7 -16 3 -28
-3 -12 -10 -19 -15 -16 -5 3 -15 -2 -23 -12 -7 -11 -17 -16 -21 -12 -4 5 0 16
8 25 24 29 29 53 12 60 -23 9 -45 -27 -40 -65 3 -19 0 -32 -6 -32 -6 0 -8 -3
-4 -7 3 -4 27 -7 52 -8 36 0 51 -6 65 -24 23 -28 25 -64 4 -81 -8 -7 -15 -17
-15 -23 0 -5 9 -2 20 8 12 11 28 15 41 12 15 -4 27 0 35 11 16 22 27 10 27
-28 0 -18 6 -30 14 -30 16 0 17 -12 1 -28 -9 -9 -8 -12 4 -12 9 0 19 -6 22
-12 5 -10 7 -10 12 0 3 6 10 12 15 12 14 0 11 -38 -3 -43 -10 -3 -10 -9 0 -26
7 -12 11 -30 8 -39 -6 -20 9 -50 20 -39 4 4 14 1 21 -5 12 -10 14 -8 11 7 -1
10 3 20 10 22 7 3 12 -4 12 -16 0 -12 4 -21 8 -21 17 0 21 13 11 31 -8 16 -6
19 10 19 21 0 35 -24 32 -58 -1 -12 4 -25 13 -28 10 -4 14 -14 11 -28 -2 -11
2 -34 10 -51 l15 -30 -6 32 c-5 27 -3 32 10 27 20 -8 20 -2 2 41 -13 30 -13
34 2 38 13 4 13 5 2 6 -8 1 -20 13 -27 27 -10 21 -10 24 2 14 8 -6 23 -9 34
-5 17 5 21 0 26 -39 4 -26 11 -43 17 -40 5 4 8 17 5 30 l-4 23 28 -20 c16 -11
29 -25 29 -30 0 -5 5 -9 10 -9 6 0 3 11 -6 25 -15 24 -15 25 2 27 86 7 106 1
165 -50 19 -17 60 -53 93 -81 32 -28 67 -53 77 -56 11 -4 19 -14 19 -24 0 -20
42 -47 58 -37 5 3 15 -1 22 -9 7 -8 18 -15 25 -15 7 0 24 -9 38 -20 26 -20 47
-26 47 -12 0 4 -20 20 -45 35 -41 26 -57 47 -37 47 4 0 38 -18 76 -40 37 -22
72 -37 77 -34 15 9 81 -37 75 -52 -3 -7 0 -16 6 -20 7 -4 8 -3 4 4 -14 22 24
12 104 -28 44 -22 85 -40 91 -40 13 0 142 -54 191 -80 20 -11 45 -20 56 -20
10 0 45 -9 77 -20 72 -25 80 -25 35 1 -19 11 -27 18 -17 15 10 -3 25 -6 32 -6
8 0 22 -8 32 -18 14 -13 29 -16 68 -12 41 4 46 7 27 13 -34 13 -19 23 32 21
61 -2 118 -13 134 -26 7 -6 38 -12 70 -13 31 -2 120 -12 197 -23 112 -17 164
-19 260 -14 l120 7 -150 8 c-82 4 -166 11 -185 16 -26 7 -9 8 60 5 68 -3 89
-1 75 6 -15 7 -8 9 30 5 113 -12 532 -9 623 4 97 15 132 38 40 27 -103 -13
-358 -18 -358 -8 0 6 33 9 78 9 42 -1 129 4 192 11 63 6 119 12 123 12 5 0 6
3 3 8 -2 4 13 6 35 4 22 -2 46 1 53 7 8 7 59 16 113 22 54 5 107 13 118 18 11
5 54 12 95 15 41 3 89 10 105 16 27 9 25 9 -15 5 -222 -22 -350 -38 -376 -46
-17 -5 -62 -8 -100 -8 l-69 2 52 6 c28 4 55 10 60 15 4 5 -11 6 -34 2 -27 -4
-43 -2 -43 4 0 6 25 10 57 10 36 0 62 5 73 15 11 10 55 18 136 25 65 5 175 16
244 26 69 9 140 16 158 16 21 0 32 4 32 14 0 8 -8 14 -17 14 -12 0 -14 3 -7
10 13 13 106 32 154 32 26 0 30 2 15 7 -17 7 -15 9 15 19 44 14 130 26 130 18
0 -3 -21 -12 -47 -21 l-48 -15 81 4 c54 4 85 1 92 -6 9 -9 12 -8 12 5 0 21 2
21 47 2 42 -18 46 -18 38 -5 -3 6 -2 10 4 10 5 0 13 -4 16 -10 11 -18 35 -10
35 11 0 18 5 20 28 17 15 -3 36 -9 46 -13 15 -7 18 -5 13 8 -3 8 1 21 10 28
13 11 18 10 33 -9 12 -15 21 -19 25 -11 4 6 2 16 -4 22 -6 6 -11 15 -11 20 0
6 11 -2 25 -15 18 -18 32 -24 50 -20 25 4 25 5 9 23 -24 27 -11 34 27 15 39
-19 39 -19 39 -2 0 24 24 24 54 -1 26 -22 29 -22 41 -7 8 12 14 14 19 6 4 -7
16 -12 27 -12 11 0 17 4 14 10 -9 14 18 12 35 -2 8 -7 6 -3 -4 10 -18 20 -18
22 -2 22 9 0 36 -11 59 -23 60 -34 94 -41 105 -22 7 14 11 13 27 -5 20 -22 41
-28 28 -7 -4 6 -8 17 -9 23 -1 6 -5 21 -9 33 -8 25 7 28 26 5 10 -12 25 -15
57 -11 51 6 59 11 42 32 -10 12 -10 15 3 15 8 0 20 -7 27 -15 18 -22 32 -18
25 6 -6 18 -4 20 14 14 18 -5 21 -2 21 19 0 33 16 41 45 22 21 -14 24 -14 19
-1 -4 10 0 15 11 15 13 0 15 3 6 13 -15 19 -2 28 22 16 14 -8 18 -8 13 0 -4 6
-9 20 -11 32 -4 19 -1 21 24 16 25 -5 28 -4 23 15 -4 18 -3 19 17 8 38 -20 34
-5 -14 46 -24 27 -45 56 -45 64 0 9 -5 21 -12 28 -15 15 -3 16 23 2 10 -6 19
-19 19 -28 0 -11 8 -18 19 -18 17 0 16 4 -10 33 -29 34 -37 49 -19 38 6 -3 10
-1 10 4 0 6 7 11 15 11 8 0 15 5 15 11 0 14 18 30 60 53 48 26 67 44 73 67 4
16 2 19 -10 15 -17 -7 -43 10 -43 29 0 6 11 17 24 23 19 9 27 8 37 -4 6 -8 14
-12 17 -9 3 2 -1 11 -8 19 -10 13 -7 20 17 40 15 14 31 26 35 26 3 0 4 8 1 18
-3 12 7 29 29 48 18 16 40 38 48 49 13 17 13 18 0 10 -8 -5 -36 -26 -61 -47
-25 -21 -51 -38 -57 -38 -17 0 -15 20 3 26 8 4 15 12 15 19 0 7 7 19 17 26 9
8 24 26 33 42 9 15 38 49 63 76 26 27 47 52 47 55 0 12 48 75 54 71 3 -3 4 -2
2 1 -3 3 8 30 25 58 16 29 29 58 29 64 0 7 8 31 19 55 10 23 24 56 31 72 7 17
21 50 31 75 38 101 45 116 63 142 12 19 16 36 12 53 -5 20 0 32 26 57 24 22
27 29 13 24 -26 -9 81 101 117 120 33 17 91 101 84 121 -7 18 17 66 46 93 33
30 15 35 -21 5 -39 -34 -40 -19 -1 30 17 21 30 42 30 46 0 5 15 26 33 46 31
37 57 77 57 89 0 3 -18 -9 -40 -26 -52 -42 -51 -27 2 22 23 21 38 41 35 45 -4
3 -14 -2 -22 -13 -11 -15 -16 -16 -23 -6 -7 10 -16 5 -39 -21 -16 -18 -37 -34
-46 -34 -15 0 -14 4 5 24 17 19 18 23 5 17 -9 -3 -17 -3 -17 0 0 9 31 59 44
71 16 15 50 84 44 90 -2 3 -11 -6 -18 -20 -14 -25 -34 -33 -45 -16 -3 5 0 13
6 17 8 4 7 9 -2 16 -11 6 -9 8 6 6 11 -2 19 2 18 8 -1 6 16 28 38 49 21 22 39
33 39 26 0 -29 29 12 46 65 9 30 22 54 29 54 7 0 16 7 19 16 11 29 -2 27 -29
-2 -18 -20 -28 -25 -32 -16 -2 6 -9 10 -14 6 -13 -8 -11 10 3 24 6 6 9 15 5
19 -4 3 -14 -2 -21 -13 -14 -18 -15 -18 -21 -2 -4 10 0 24 9 33 17 18 22 50 6
40 -5 -3 -10 -13 -10 -21 0 -8 -4 -14 -9 -14 -5 0 -12 -24 -16 -52 -5 -41 -9
-48 -15 -33 -7 19 -9 18 -19 -8 -6 -16 -11 -33 -11 -38 0 -5 -5 -9 -11 -9 -5
0 -9 8 -8 18 1 9 -1 25 -5 34 -10 22 0 38 24 38 21 0 30 19 30 63 0 38 13 62
28 53 6 -3 13 2 17 13 3 10 15 21 25 24 14 4 20 14 20 35 0 17 6 33 13 35 8 4
9 8 1 14 -6 4 -13 15 -16 23 -3 9 -10 -2 -18 -27 -14 -45 -39 -78 -102 -132
l-38 -33 6 49 c4 26 9 50 11 53 7 8 22 -24 16 -34 -3 -5 -1 -6 5 -2 6 3 24 29
41 56 23 37 27 50 16 50 -20 0 -20 58 0 87 18 25 47 111 43 124 -2 6 -15 -8
-28 -30 -37 -58 -44 -21 -9 54 15 33 30 77 34 99 l6 39 -25 -28 c-14 -15 -27
-32 -29 -38 -11 -30 -14 3 -5 44 12 52 3 132 -13 108 -5 -8 -6 -22 -3 -31 8
-28 -6 -42 -22 -21 -8 11 -13 13 -14 6 0 -22 -20 -14 -20 7 0 13 10 24 26 30
22 9 25 14 19 39 -3 17 1 52 10 82 27 89 34 102 51 95 11 -4 15 -2 11 8 -3 8
2 17 11 21 16 6 16 7 0 16 -10 6 -18 22 -18 37 0 15 -5 34 -10 42 -7 11 -8 2
-4 -27 7 -47 -10 -103 -32 -103 -7 0 -17 -15 -22 -32 -8 -26 -10 -14 -11 58
-1 122 -34 340 -54 360 -10 10 -9 -10 8 -101 18 -99 20 -179 4 -169 -6 3 -15
0 -20 -7 -6 -9 -9 7 -9 44 0 34 -4 56 -10 52 -5 -3 -14 14 -21 37 -6 24 -17
63 -25 88 -7 25 -18 71 -24 103 -14 71 -24 75 -15 5 5 -41 4 -50 -5 -41 -7 6
-13 36 -14 67 -1 30 -7 61 -14 68 -11 11 -12 3 -7 -42 5 -40 4 -51 -4 -40 -6
8 -11 23 -11 33 0 9 -4 17 -10 17 -15 0 -54 68 -85 150 -29 75 -45 84 -26 14
13 -46 5 -57 -18 -25 -28 40 -93 107 -82 84 19 -37 12 -38 -19 -3 -16 18 -30
37 -30 42 0 4 -6 8 -14 8 -8 0 -47 34 -87 75 -40 41 -76 75 -80 75 -13 0 2
-33 27 -60 18 -20 20 -27 9 -37 -10 -9 -17 -7 -34 8 -30 28 -26 35 7 13 25
-16 25 -15 -7 22 -49 56 -82 86 -89 79 -3 -3 8 -19 24 -36 46 -49 -3 -20 -77
46 -33 30 -69 57 -80 60 -10 4 -19 11 -19 16 0 5 -7 9 -15 9 -8 0 -29 28 -47
63 -22 42 -33 56 -36 44 -2 -10 2 -24 8 -32 8 -10 9 -15 2 -15 -6 0 -14 5 -17
11 -7 10 -47 29 -72 35 -7 1 0 -14 17 -34 16 -20 28 -38 26 -40 -7 -7 -65 41
-82 67 -15 22 -15 24 0 18 14 -6 15 -3 6 13 -6 11 -18 20 -28 20 -9 0 -36 18
-60 40 -24 22 -47 40 -52 40 -6 0 -10 5 -10 11 0 5 -5 7 -11 4 -6 -4 -22 4
-36 16 l-26 24 12 -23 c9 -17 -8 -9 -70 33 -69 47 -84 53 -91 41 -13 -23 -23
-20 -88 19 -32 19 -68 35 -82 35 -13 0 -66 23 -118 50 -94 50 -298 133 -355
145 -43 8 -13 -10 50 -31 72 -24 219 -93 212 -100 -3 -3 -14 -1 -25 5 -12 6
-30 11 -40 11 -11 0 -53 13 -93 30 -39 16 -86 32 -103 35 l-31 6 30 -20 c44
-30 7 -27 -55 4 -27 14 -73 30 -102 36 -69 13 -148 32 -281 64 -60 15 -118 24
-130 21 -12 -3 -35 -1 -52 4 -16 5 -50 13 -74 17 -32 6 -45 13 -47 26 -5 37
-14 47 -41 46 l-28 -1 25 -8z m-437 -57 c-13 -2 -33 -2 -45 0 -13 2 -3 4 22 4
25 0 35 -2 23 -4z m-190 -20 c-7 -2 -21 -2 -30 0 -10 3 -4 5 12 5 17 0 24 -2
18 -5z m-80 -10 c-7 -2 -21 -2 -30 0 -10 3 -4 5 12 5 17 0 24 -2 18 -5z m-763
-61 c0 -9 -151 -32 -159 -26 -10 9 13 19 57 25 71 10 102 10 102 1z m-205 -32
c-3 -5 -13 -10 -21 -10 -8 0 -12 5 -9 10 3 6 13 10 21 10 8 0 12 -4 9 -10z
m-805 -434 c0 -2 -12 -11 -27 -20 l-28 -17 24 20 c23 21 31 25 31 17z m4525
-187 c11 -17 -1 -21 -15 -4 -8 9 -8 15 -2 15 6 0 14 -5 17 -11z m301 -177
c-12 -11 -36 9 -36 30 l1 23 20 -24 c11 -13 17 -26 15 -29z m531 -754 c-3 -7
-5 -2 -5 12 0 14 2 19 5 13 2 -7 2 -19 0 -25z m54 -333 c6 13 8 -1 6 -43 -2
-39 -9 -68 -19 -78 -14 -14 -16 -12 -21 16 -5 21 -1 39 9 56 10 15 12 24 5 24
-6 0 -11 -5 -11 -12 0 -6 -2 -9 -5 -6 -3 2 1 16 8 31 9 21 13 23 16 9 3 -15 5
-15 12 3z m-6911 -95 c-16 -40 -23 -33 -9 9 6 18 14 30 17 27 2 -3 -1 -19 -8
-36z m6952 -162 c-7 -7 -12 -8 -12 -2 0 14 12 26 19 19 2 -3 -1 -11 -7 -17z
m-22 -28 c0 -5 -4 -10 -10 -10 -5 0 -10 5 -10 10 0 6 5 10 10 10 6 0 10 -4 10
-10z m-19 -38 c-5 -10 -18 -25 -27 -33 -16 -12 -17 -12 -9 1 10 18 37 50 42
50 2 0 -1 -8 -6 -18z m-7164 -264 c-3 -7 -5 -2 -5 12 0 14 2 19 5 13 2 -7 2
-19 0 -25z m13 -56 c0 -7 -4 -10 -10 -7 -5 3 -10 16 -10 28 0 18 2 19 10 7 5
-8 10 -21 10 -28z m7240 -17 c0 -8 -2 -15 -4 -15 -2 0 -6 7 -10 15 -3 8 -1 15
4 15 6 0 10 -7 10 -15z m-150 -7 c0 -17 -18 -44 -24 -37 -8 7 5 49 15 49 5 0
9 -6 9 -12z m-7113 -20 c-3 -8 -6 -5 -6 6 -1 11 2 17 5 13 3 -3 4 -12 1 -19z
m7204 -5 c-12 -20 -14 -14 -5 12 4 9 9 14 11 11 3 -2 0 -13 -6 -23z m-41 -53
c0 -5 -4 -10 -10 -10 -5 0 -10 5 -10 10 0 6 5 10 10 10 6 0 10 -4 10 -10z
m-141 -86 c-11 -14 -14 -13 -21 7 -6 16 -3 27 9 42 18 19 18 19 21 -7 2 -15
-2 -34 -9 -42z m75 -73 c-5 -3 -15 -18 -23 -33 -17 -34 -31 -37 -24 -5 8 29
33 58 45 51 6 -4 6 -9 2 -13z m-7134 3 c0 -3 -5 -14 -11 -25 -9 -17 -13 -18
-27 -7 -13 11 -15 11 -9 -4 3 -10 2 -20 -4 -23 -5 -4 -13 4 -18 17 -7 19 -4
25 18 35 29 13 51 16 51 7z m-54 -116 c3 -11 3 -22 0 -25 -8 -8 -36 17 -36 32
0 19 29 13 36 -7z m57 -56 c-7 -27 -36 -26 -41 1 -3 12 1 15 13 10 14 -5 16
-2 10 18 -6 22 -6 23 9 9 10 -10 13 -24 9 -38z m7070 13 c-3 -9 -8 -14 -10
-11 -3 3 -2 9 2 15 9 16 15 13 8 -4z m80 -1 c-5 -15 -3 -15 20 1 15 9 27 14
27 10 0 -9 -50 -79 -94 -131 -30 -36 -46 -40 -27 -7 23 39 39 102 27 106 -8 3
35 34 51 37 1 0 0 -7 -4 -16z m-7063 -105 c0 -6 -4 -7 -10 -4 -5 3 -10 11 -10
16 0 6 5 7 10 4 6 -3 10 -11 10 -16z m6980 -68 c0 -12 -20 -25 -27 -18 -7 7 6
27 18 27 5 0 9 -4 9 -9z m13 -105 c-21 -34 -92 -106 -97 -97 -4 6 16 33 44 61
52 50 68 62 53 36z m-6993 -366 c0 -5 -2 -10 -4 -10 -3 0 -8 5 -11 10 -3 6 -1
10 4 10 6 0 11 -4 11 -10z m240 -264 c0 -8 7 -19 15 -26 16 -13 20 -30 8 -30
-5 0 -14 12 -21 28 -24 49 -26 56 -14 48 7 -4 12 -13 12 -20z m181 -223 c23
-46 22 -49 -5 -18 -26 31 -32 45 -18 45 5 0 15 -12 23 -27z m29 -88 c0 -25
-14 -34 -24 -16 -8 12 3 41 15 41 5 0 9 -11 9 -25z m60 -29 c0 -3 -4 -8 -10
-11 -5 -3 -10 -1 -10 4 0 6 5 11 10 11 6 0 10 -2 10 -4z m-38 -38 c-9 -9 -12
-7 -12 12 0 19 3 21 12 12 9 -9 9 -15 0 -24z m104 -90 c-18 -26 -22 -17 -5 14
6 11 13 17 16 15 3 -3 -2 -16 -11 -29z m145 -157 c-6 -10 -7 -21 -4 -25 3 -3
1 -6 -5 -6 -6 0 -14 5 -17 10 -10 16 2 40 20 40 12 0 13 -4 6 -19z m5551 -28
c-6 -2 -10 -9 -6 -14 3 -5 -2 -9 -10 -9 -9 0 -16 4 -16 9 0 10 18 19 35 19 6
0 4 -2 -3 -5z m-5530 -33 c-6 -16 -11 -20 -16 -11 -4 6 -2 19 5 27 16 20 21
12 11 -16z m48 -30 c0 -16 -26 -40 -44 -40 -11 0 -6 36 6 48 18 18 38 14 38
-8z m250 -140 c0 -5 -7 -10 -15 -10 -8 0 -15 5 -15 10 0 6 7 10 15 10 8 0 15
-4 15 -10z m115 -42 c7 -7 3 -8 -12 -4 -12 4 -24 2 -28 -4 -11 -17 -25 -11
-25 11 0 18 4 20 28 14 15 -3 32 -11 37 -17z m-75 -19 c6 -10 17 -16 25 -13 8
4 17 -1 21 -9 3 -9 12 -13 20 -10 8 3 23 -2 34 -12 16 -15 17 -19 5 -31 -20
-20 -25 -17 -25 11 0 20 -3 24 -15 18 -23 -13 -87 -3 -81 12 2 7 -2 16 -10 19
-8 3 -14 14 -14 25 0 25 25 18 40 -10z m-130 11 c0 -5 -4 -10 -10 -10 -5 0
-10 5 -10 10 0 6 5 10 10 10 6 0 10 -4 10 -10z m36 -17 c-7 -7 -26 7 -26 19 0
6 6 6 15 -2 9 -7 13 -15 11 -17z m-21 -22 c3 -5 1 -12 -4 -15 -5 -3 -11 1 -15
9 -6 16 9 21 19 6z m1422 -557 c-3 -3 -12 -4 -19 -1 -8 3 -5 6 6 6 11 1 17 -2
13 -5z m1320 -21 c-20 -2 -52 -2 -70 0 -17 2 0 4 38 4 39 0 53 -2 32 -4z
m-1220 -9 c-3 -3 -12 -4 -19 -1 -8 3 -5 6 6 6 11 1 17 -2 13 -5z"/>
<path d="M8596 4095 c-3 -8 -1 -15 4 -15 6 0 10 7 10 15 0 8 -2 15 -4 15 -2 0
-6 -7 -10 -15z"/>
<path d="M6130 6240 c0 -9 31 -30 44 -30 3 0 -2 9 -11 20 -19 21 -33 26 -33
10z"/>
<path d="M6465 6190 c55 -26 92 -26 45 0 -19 11 -46 19 -60 19 -21 0 -19 -3
15 -19z"/>
<path d="M4500 6190 c0 -13 80 -13 100 0 11 7 -2 10 -42 10 -32 0 -58 -4 -58
-10z"/>
<path d="M4808 6183 c6 -2 18 -2 25 0 6 3 1 5 -13 5 -14 0 -19 -2 -12 -5z"/>
<path d="M6800 6171 c0 -5 7 -14 15 -21 12 -10 15 -10 15 3 0 8 -7 17 -15 21
-8 3 -15 2 -15 -3z"/>
<path d="M6905 6130 c3 -5 8 -10 11 -10 2 0 4 5 4 10 0 6 -5 10 -11 10 -5 0
-7 -4 -4 -10z"/>
<path d="M6418 6103 c7 -3 16 -2 19 1 4 3 -2 6 -13 5 -11 0 -14 -3 -6 -6z"/>
<path d="M6940 6019 c0 -12 37 -49 50 -49 16 0 12 26 -6 41 -19 16 -44 21 -44
8z"/>
<path d="M7070 5920 c8 -5 24 -10 35 -10 17 0 17 2 5 10 -8 5 -24 10 -35 10
-17 0 -17 -2 -5 -10z"/>
<path d="M7238 5855 c13 -25 62 -72 62 -59 0 6 -16 26 -36 45 -22 20 -32 26
-26 14z"/>
<path d="M3339 5815 c-65 -42 -55 -45 20 -6 30 15 50 31 44 34 -5 4 -34 -9
-64 -28z"/>
<path d="M3171 5719 c-91 -59 -191 -141 -221 -181 -29 -40 -8 -27 57 35 29 27
62 56 75 65 13 8 28 20 33 26 6 6 27 20 48 31 20 11 37 23 37 27 0 5 6 8 13 8
17 1 50 27 40 33 -4 2 -41 -17 -82 -44z"/>
<path d="M3240 5710 c-13 -8 -12 -10 3 -10 9 0 17 5 17 10 0 12 -1 12 -20 0z"/>
<path d="M7519 5695 c5 -11 22 -33 36 -50 14 -16 22 -21 16 -10 -5 11 -22 34
-36 50 -14 17 -22 21 -16 10z"/>
<path d="M7904 5476 c21 -20 37 -39 34 -41 -3 -3 -21 2 -41 10 -59 24 -43 10
36 -34 40 -22 104 -63 141 -91 37 -27 70 -50 73 -50 13 0 -35 44 -90 83 -41
28 -54 43 -45 49 10 6 10 8 -1 8 -8 0 -35 17 -60 38 -69 56 -91 69 -47 28z"/>
<path d="M7827 5469 c7 -7 15 -10 18 -7 3 3 -2 9 -12 12 -14 6 -15 5 -6 -5z"/>
<path d="M8601 4964 c0 -11 3 -14 6 -6 3 7 2 16 -1 19 -3 4 -6 -2 -5 -13z"/>
<path d="M8621 4634 c0 -11 3 -14 6 -6 3 7 2 16 -1 19 -3 4 -6 -2 -5 -13z"/>
<path d="M8826 4623 c-6 -14 -5 -15 5 -6 7 7 10 15 7 18 -3 3 -9 -2 -12 -12z"/>
<path d="M8737 4603 c-6 -33 3 -93 14 -93 14 0 21 40 14 80 -8 46 -20 52 -28
13z"/>
<path d="M8710 4445 c0 -14 2 -25 4 -25 2 0 6 11 8 25 3 14 1 25 -3 25 -5 0
-9 -11 -9 -25z"/>
<path d="M8812 4385 c0 -16 2 -22 5 -12 2 9 2 23 0 30 -3 6 -5 -1 -5 -18z"/>
<path d="M8680 4360 c0 -19 -3 -53 -7 -75 -3 -22 -3 -38 0 -35 12 11 25 125
16 135 -5 5 -9 -5 -9 -25z"/>
<path d="M8753 4343 c-3 -10 -12 -33 -20 -52 -7 -19 -11 -36 -9 -39 8 -8 46
62 46 86 0 26 -8 29 -17 5z"/>
<path d="M1771 4302 c-7 -13 -11 -28 -8 -35 2 -7 9 -2 16 11 7 13 11 28 8 35
-2 7 -9 2 -16 -11z"/>
<path d="M8740 4207 c0 -1 -4 -17 -9 -35 -7 -24 -7 -32 4 -32 7 0 15 15 17 35
2 19 0 35 -4 35 -4 0 -8 -1 -8 -3z"/>
<path d="M1621 4144 c0 -11 3 -14 6 -6 3 7 2 16 -1 19 -3 4 -6 -2 -5 -13z"/>
<path d="M8723 4099 c-18 -51 -17 -68 3 -48 9 10 14 29 12 49 l-3 34 -12 -35z"/>
<path d="M1500 3935 c0 -8 9 -15 20 -15 24 0 27 15 4 24 -22 9 -24 8 -24 -9z"/>
<path d="M1390 3660 c0 -19 3 -21 12 -12 9 9 9 15 0 24 -9 9 -12 7 -12 -12z"/>
<path d="M8753 3640 c-6 -17 -7 -30 -2 -30 9 0 24 48 17 55 -2 2 -9 -9 -15
-25z"/>
<path d="M1400 3590 c0 -5 5 -10 11 -10 5 0 7 5 4 10 -3 6 -8 10 -11 10 -2 0
-4 -4 -4 -10z"/>
<path d="M8796 3566 c-4 -18 -15 -41 -26 -51 -11 -10 -20 -29 -20 -41 0 -13
-9 -29 -20 -36 -11 -7 -20 -17 -20 -22 0 -6 -11 -21 -23 -35 -20 -22 -22 -30
-13 -47 10 -18 15 -20 27 -10 25 17 44 59 30 64 -17 6 -13 20 9 27 11 3 20 13
20 20 0 8 8 19 19 24 10 6 21 20 24 31 5 18 3 19 -10 9 -13 -11 -13 -7 1 26
10 22 21 41 26 43 10 4 2 32 -10 32 -4 0 -11 -15 -14 -34z"/>
<path d="M9004 3405 c-15 -13 -26 -27 -23 -29 3 -3 18 8 34 24 35 36 29 39
-11 5z"/>
<path d="M8668 3289 c-10 -5 -18 -17 -18 -25 0 -19 16 -10 30 17 12 22 11 22
-12 8z"/>
<path d="M8606 3221 c-4 -7 -5 -15 -2 -18 9 -9 19 4 14 18 -4 11 -6 11 -12 0z"/>
<path d="M1147 3083 c-4 -6 0 -16 8 -23 21 -17 28 -8 11 15 -8 11 -15 14 -19
8z"/>
<path d="M8587 2913 c-4 -3 -7 -11 -7 -17 0 -6 5 -5 12 2 6 6 9 14 7 17 -3 3
-9 2 -12 -2z"/>
<path d="M1176 2875 c-15 -12 -17 -21 -10 -57 5 -24 8 -50 7 -59 -2 -10 7 -19
18 -22 17 -5 18 -3 8 9 -11 13 -8 14 17 8 32 -8 44 -20 44 -46 0 -20 -22 -36
-28 -20 -5 17 -22 15 -22 -2 0 -8 7 -17 16 -20 10 -4 14 -12 10 -22 -10 -26
13 -44 56 -44 35 0 39 2 28 15 -17 20 -9 27 35 28 25 1 34 5 31 14 -4 10 1 12
19 7 30 -7 33 8 7 34 -41 38 -62 51 -67 42 -3 -6 -17 2 -30 18 -19 20 -24 23
-25 10 0 -9 5 -19 10 -21 6 -3 5 -4 -2 -3 -7 1 -17 12 -23 24 -5 12 -17 22
-26 22 -11 0 -21 15 -29 45 -15 54 -19 58 -44 40z"/>
<path d="M8412 2671 c-17 -17 -32 -33 -32 -37 0 -5 16 7 35 26 32 31 39 40 32
40 -1 0 -17 -13 -35 -29z"/>
<path d="M1380 2610 c0 -5 5 -10 10 -10 6 0 10 5 10 10 0 6 -4 10 -10 10 -5 0
-10 -4 -10 -10z"/>
<path d="M1280 2561 c0 -8 7 -23 17 -33 12 -13 13 -18 3 -18 -9 0 -8 -6 5 -20
10 -11 23 -20 28 -20 6 0 2 10 -9 21 -19 21 -19 22 1 16 29 -9 45 5 38 31 -6
26 -30 24 -25 -2 4 -25 -14 -19 -37 12 -12 15 -21 21 -21 13z"/>
<path d="M1558 2333 c5 -21 7 -23 10 -9 2 10 0 22 -6 28 -6 6 -7 0 -4 -19z"/>
<path d="M1746 2097 c-4 -9 -8 -24 -11 -33 -3 -9 2 -22 11 -29 21 -15 10 -37
-14 -28 -16 6 -16 5 1 -14 9 -11 17 -25 17 -31 0 -7 4 -12 9 -12 5 0 13 -10
17 -22 9 -28 24 -43 50 -50 33 -8 23 34 -25 101 -22 32 -43 71 -46 87 -5 22
-4 25 4 14 13 -18 14 -1 1 20 -8 12 -10 12 -14 -3z m47 -130 l19 -32 -26 24
c-26 24 -33 41 -18 41 4 0 15 -15 25 -33z m41 -52 c3 -8 1 -15 -4 -15 -6 0
-10 7 -10 15 0 8 2 15 4 15 2 0 6 -7 10 -15z"/>
<path d="M1806 2025 c-9 -26 -7 -32 5 -12 6 10 9 21 6 23 -2 3 -7 -2 -11 -11z"/>
<path d="M1675 2020 c3 -5 8 -10 11 -10 2 0 4 5 4 10 0 6 -5 10 -11 10 -5 0
-7 -4 -4 -10z"/>
<path d="M8085 1940 c-10 -11 -14 -20 -9 -20 5 0 15 9 22 20 7 11 11 20 9 20
-2 0 -12 -9 -22 -20z"/>
<path d="M1830 1814 c0 -8 5 -12 10 -9 6 4 8 11 5 16 -9 14 -15 11 -15 -7z"/>
<path d="M1940 1780 c0 -5 5 -10 11 -10 7 0 9 -9 5 -23 -6 -27 29 -56 47 -38
12 12 1 45 -13 36 -5 -3 -10 -1 -10 5 0 12 -24 40 -34 40 -3 0 -6 -4 -6 -10z"/>
<path d="M1910 1659 c0 -5 9 -9 21 -9 11 0 17 -4 14 -10 -3 -5 -1 -10 4 -10
22 0 10 28 -14 32 -14 3 -25 1 -25 -3z"/>
<path d="M1905 1580 c-3 -5 -1 -10 4 -10 6 0 11 5 11 10 0 6 -2 10 -4 10 -3 0
-8 -4 -11 -10z"/>
<path d="M1950 1510 c0 -11 7 -20 15 -20 8 0 15 -4 15 -10 0 -5 5 -10 10 -10
6 0 10 7 10 15 0 8 -4 15 -10 15 -5 0 -10 7 -10 15 0 8 -7 15 -15 15 -8 0 -15
-9 -15 -20z"/>
<path d="M2155 1490 c-3 -5 -1 -10 4 -10 6 0 11 5 11 10 0 6 -2 10 -4 10 -3 0
-8 -4 -11 -10z"/>
<path d="M2187 1468 c-10 -11 -16 -22 -13 -26 6 -6 35 27 36 41 0 10 -2 8 -23
-15z"/>
<path d="M2130 1420 c0 -5 5 -10 10 -10 6 0 10 5 10 10 0 6 -4 10 -10 10 -5 0
-10 -4 -10 -10z"/>
<path d="M2160 1374 c0 -8 5 -12 10 -9 6 3 10 10 10 16 0 5 -4 9 -10 9 -5 0
-10 -7 -10 -16z"/>
<path d="M7690 1365 c7 -8 17 -15 22 -15 5 0 3 7 -6 15 -8 8 -18 15 -22 15 -3
0 -1 -7 6 -15z"/>
<path d="M2115 1269 c-4 -6 -5 -13 -2 -16 7 -7 27 6 27 18 0 12 -17 12 -25 -2z"/>
<path d="M2761 1176 c-1 -15 -4 -16 -15 -6 -12 9 -15 7 -13 -12 2 -30 26 -56
36 -39 5 8 13 6 26 -9 32 -36 50 -23 19 13 -16 19 -34 42 -41 53 -11 18 -12
18 -12 0z"/>
<path d="M2460 1140 c0 -5 7 -10 16 -10 8 0 12 5 9 10 -3 6 -10 10 -16 10 -5
0 -9 -4 -9 -10z"/>
<path d="M2602 1125 c6 -14 15 -25 19 -25 5 0 3 11 -3 25 -6 14 -15 25 -19 25
-5 0 -3 -11 3 -25z"/>
<path d="M2655 1139 c-9 -14 -2 -20 14 -10 8 6 9 11 3 15 -6 3 -14 1 -17 -5z"/>
<path d="M2570 1035 c0 -5 5 -17 10 -25 5 -8 10 -10 10 -5 0 6 -5 17 -10 25
-5 8 -10 11 -10 5z"/>
<path d="M7314 941 c16 -17 32 -29 34 -26 7 7 -18 34 -42 47 -16 8 -14 3 8
-21z"/>
<path d="M7035 910 c3 -5 11 -10 16 -10 6 0 7 5 4 10 -3 6 -11 10 -16 10 -6 0
-7 -4 -4 -10z"/>
<path d="M6310 900 c-8 -5 -12 -12 -8 -15 9 -9 78 5 78 16 0 12 -51 11 -70 -1z"/>
<path d="M3254 873 c4 -4 19 -9 34 -10 21 -3 24 -1 12 7 -17 11 -57 14 -46 3z"/>
<path d="M6213 873 c9 -2 23 -2 30 0 6 3 -1 5 -18 5 -16 0 -22 -2 -12 -5z"/>
<path d="M3330 865 c0 -2 10 -10 23 -16 20 -11 21 -11 8 4 -13 16 -31 23 -31
12z"/>
<path d="M6035 800 c-13 -5 -14 -9 -5 -9 8 0 24 4 35 9 13 5 14 9 5 9 -8 0
-24 -4 -35 -9z"/>
<path d="M3500 710 c0 -5 7 -10 16 -10 8 0 12 5 9 10 -3 6 -10 10 -16 10 -5 0
-9 -4 -9 -10z"/>
<path d="M3718 663 c6 -2 18 -2 25 0 6 3 1 5 -13 5 -14 0 -19 -2 -12 -5z"/>
<path d="M3938 593 c7 -3 16 -2 19 1 4 3 -2 6 -13 5 -11 0 -14 -3 -6 -6z"/>
<path d="M4115 580 c3 -5 11 -10 16 -10 6 0 7 5 4 10 -3 6 -11 10 -16 10 -6 0
-7 -4 -4 -10z"/>
<path d="M4313 563 c9 -2 25 -2 35 0 9 3 1 5 -18 5 -19 0 -27 -2 -17 -5z"/>
<path d="M3783 547 c4 -14 20 -22 82 -42 57 -18 98 -29 75 -19 -8 4 -18 11
-21 16 -9 15 -141 58 -136 45z"/>
<path d="M4070 540 c0 -5 5 -10 11 -10 5 0 7 5 4 10 -3 6 -8 10 -11 10 -2 0
-4 -4 -4 -10z"/>
<path d="M3715 530 c3 -5 12 -10 19 -10 7 0 26 -6 42 -14 16 -7 43 -17 59 -20
28 -7 29 -6 10 7 -20 14 -110 47 -127 47 -5 0 -6 -4 -3 -10z"/>
<path d="M3978 453 c7 -3 16 -2 19 1 4 3 -2 6 -13 5 -11 0 -14 -3 -6 -6z"/>
</g>
</svg>
