<?xml version="1.0" standalone="no"?>
<!DOCTYPE svg PUBLIC "-//W3C//DTD SVG 20010904//EN"
 "http://www.w3.org/TR/2001/REC-SVG-20010904/DTD/svg10.dtd">
<svg version="1.0" xmlns="http://www.w3.org/2000/svg"
 width="1024.000000pt" height="724.000000pt" viewBox="0 0 1024.000000 724.000000"
 preserveAspectRatio="xMidYMid meet">
<metadata>
Created by potrace 1.16, written by Peter Selinger 2001-2019
</metadata>
<g transform="translate(0.000000,724.000000) scale(0.100000,-0.100000)"
fill="#000000" stroke="none">
<path d="M5295 5920 c3 -5 8 -10 11 -10 2 0 4 5 4 10 0 6 -5 10 -11 10 -5 0
-7 -4 -4 -10z"/>
<path d="M5810 5920 c0 -5 5 -10 11 -10 5 0 7 5 4 10 -3 6 -8 10 -11 10 -2 0
-4 -4 -4 -10z"/>
<path d="M5437 5911 c7 -9 8 -23 3 -42 -5 -16 -9 -32 -9 -35 1 -3 -2 -8 -5
-11 -3 -4 -6 11 -6 33 0 26 -3 35 -9 25 -5 -8 -16 -11 -26 -8 -9 4 -13 11 -10
17 9 15 -8 12 -31 -5 -10 -8 -27 -15 -36 -15 -9 0 -20 -5 -23 -10 -4 -7 6 -9
29 -7 37 4 41 -1 26 -38 -8 -19 -8 -19 -18 5 -6 14 -11 19 -11 12 -1 -8 -10
-12 -24 -10 -13 1 -37 -6 -53 -17 -16 -11 -33 -18 -37 -17 -5 1 -6 -2 -3 -6 7
-12 56 -3 53 10 -1 6 4 13 12 16 14 5 13 -9 -5 -52 -4 -11 -4 -17 2 -14 18 12
40 -16 33 -42 -5 -21 -7 -23 -14 -7 -4 9 -11 17 -17 17 -5 0 -7 -4 -4 -8 2 -4
-4 -13 -15 -20 -15 -10 -19 -10 -20 0 0 7 -5 0 -9 -15 -5 -15 -7 -46 -5 -68 3
-22 0 -39 -6 -39 -6 0 -8 3 -6 8 3 4 -1 12 -8 19 -10 10 -14 10 -18 0 -2 -6
-6 -1 -9 11 -4 12 -2 20 2 17 5 -3 11 -1 15 5 3 6 -1 13 -9 16 -9 3 -16 11
-16 16 0 6 -11 19 -25 30 -14 11 -24 27 -23 35 2 9 -5 17 -14 18 -15 3 -16 0
-8 -16 9 -16 7 -19 -10 -19 -11 0 -20 -3 -21 -7 0 -5 -2 -20 -4 -35 -5 -36 9
-43 25 -14 12 24 50 42 50 25 0 -5 -4 -9 -10 -9 -5 0 -10 -7 -10 -15 0 -9 -6
-12 -15 -9 -9 4 -15 0 -15 -10 0 -9 -4 -16 -8 -16 -4 0 -8 -12 -7 -27 0 -21
-5 -29 -21 -31 -17 -2 -21 3 -22 30 -1 46 -7 76 -15 84 -4 4 -7 -4 -7 -17 0
-13 -4 -30 -9 -38 -14 -22 -2 -44 15 -30 10 8 14 8 14 0 0 -10 -13 -15 -32
-12 -4 0 -19 -4 -32 -9 -16 -6 -27 -6 -31 1 -4 5 -11 7 -16 4 -5 -3 -6 1 -3 9
3 9 10 16 15 16 5 0 3 11 -3 25 -8 18 -15 22 -22 15 -8 -8 -7 -14 4 -20 9 -6
10 -10 3 -10 -7 0 -16 7 -21 16 -8 15 -12 14 -31 -5 -26 -26 -23 -33 14 -33
14 0 25 -4 25 -9 0 -5 -15 -8 -34 -6 -26 1 -33 6 -33 22 0 26 -13 55 -24 55
-6 0 -6 -7 -1 -17 10 -22 10 -63 0 -63 -33 0 -36 1 -31 20 3 11 9 20 14 20 5
0 9 5 9 11 0 8 -4 8 -15 -1 -8 -6 -19 -9 -25 -5 -6 4 -9 -3 -7 -17 1 -18 -3
-23 -21 -22 -12 1 -21 -1 -18 -3 3 -3 -2 -12 -10 -21 -13 -13 -17 -13 -24 -2
-5 8 -6 18 -4 22 3 4 -3 5 -12 1 -13 -5 -15 -3 -10 8 4 8 1 6 -7 -4 -14 -16
-16 -17 -31 -2 -9 9 -14 21 -11 26 4 5 -4 9 -15 9 -13 0 -24 -8 -27 -20 -3
-11 -10 -20 -15 -20 -5 0 -6 10 -3 23 5 17 4 19 -4 7 -6 -8 -11 -10 -11 -5 0
14 37 45 53 45 6 0 4 5 -6 11 -14 8 -22 6 -37 -11 -13 -15 -20 -17 -24 -8 -5
11 1 -34 7 -52 3 -7 -8 -10 -34 -10 -11 0 -18 4 -14 9 3 6 -5 8 -18 5 -32 -5
-55 14 -63 54 -6 27 -4 32 14 32 12 0 22 -8 25 -21 4 -15 2 -19 -9 -15 -17 7
-18 -4 0 -26 18 -24 26 -22 23 5 -2 18 2 22 26 20 15 -1 27 2 27 7 0 6 -5 10
-11 10 -6 0 -9 6 -6 13 2 6 10 11 17 9 6 -1 10 2 8 8 -6 20 -23 16 -33 -7 -11
-26 -28 -32 -18 -6 4 11 3 14 -5 9 -7 -4 -12 -1 -12 7 0 8 -8 14 -17 13 -32
-2 -48 -27 -46 -73 1 -23 -3 -45 -8 -48 -5 -4 -9 4 -9 17 0 18 -2 20 -9 8 -6
-8 -7 -18 -5 -22 3 -4 1 -8 -5 -8 -6 0 -8 -7 -5 -15 4 -8 2 -15 -4 -15 -5 0
-13 7 -16 16 -3 8 -11 12 -17 8 -7 -4 -9 -3 -6 3 4 6 1 16 -7 22 -11 9 -15 7
-20 -11 l-6 -23 -19 24 -19 25 5 -27 c3 -16 1 -27 -6 -27 -6 0 -11 5 -11 10 0
14 -27 12 -34 -2 -5 -10 -7 -10 -12 0 -8 18 -24 15 -25 -5 0 -15 -2 -15 -7 -3
-8 17 -20 19 -39 7 -19 -12 -16 -30 3 -23 10 4 14 1 12 -6 -6 -17 -61 -34 -66
-19 -5 14 -39 14 -48 -1 -5 -7 -3 -8 6 -3 10 6 11 4 4 -6 -16 -25 -12 -36 10
-32 16 3 23 0 23 -12 0 -13 -7 -16 -30 -11 -16 3 -40 6 -53 6 -15 0 -24 6 -24
15 0 8 -5 15 -11 15 -5 0 -7 4 -4 10 6 10 33 9 52 -3 8 -5 11 -1 8 13 -4 20 1
26 40 55 11 9 16 14 10 14 -16 -3 -65 12 -65 20 0 4 -7 8 -15 8 -18 0 -20 -17
-2 -17 6 -1 1 -7 -13 -15 -32 -18 -40 -18 -40 -1 0 19 -50 8 -73 -15 -9 -10
-24 -16 -32 -13 -9 4 -15 0 -15 -10 0 -9 -5 -16 -10 -16 -6 0 -8 11 -4 25 5
21 3 25 -17 26 -20 1 -19 3 9 11 17 6 32 17 32 24 0 18 -8 18 -27 -2 -9 -8
-22 -13 -29 -10 -8 3 -14 0 -14 -7 0 -8 -4 -7 -9 3 -6 8 -8 17 -5 21 2 4 0 10
-6 14 -5 3 -10 0 -10 -7 0 -9 -3 -9 -10 2 -9 13 -11 13 -20 0 -8 -13 -10 -12
-11 5 -1 13 -4 10 -8 -9 -3 -16 -12 -31 -20 -34 -8 -3 -11 -1 -8 4 3 5 -6 9
-19 9 -13 0 -24 -3 -24 -7 0 -5 -54 -28 -66 -28 -1 0 -1 11 1 25 1 14 -2 25
-6 25 -5 0 -9 -9 -9 -20 0 -11 -4 -20 -10 -20 -5 0 -10 5 -10 10 0 6 -12 9
-26 8 -21 -2 -27 2 -31 21 -6 39 -13 38 -13 -3 0 -22 -4 -35 -10 -31 -5 3 -10
15 -10 25 0 13 -5 17 -15 14 -9 -4 -15 0 -15 10 0 9 6 13 13 10 10 -4 12 3 9
25 -4 32 -22 33 -22 3 -1 -17 -33 -62 -45 -62 -6 0 -1 21 12 55 2 6 -6 11 -17
12 -17 1 -19 -3 -14 -23 4 -14 2 -24 -5 -24 -6 0 -11 -9 -11 -20 0 -23 -10
-25 -29 -7 -11 10 -13 9 -8 -5 3 -10 2 -20 -3 -23 -6 -4 -10 -1 -10 5 0 8 -9
10 -26 6 -18 -5 -24 -3 -19 5 4 6 1 15 -6 20 -22 14 -49 11 -49 -5 0 -20 -40
-16 -40 4 -1 12 -4 11 -15 -4 -14 -19 -15 -19 -15 6 0 15 -4 30 -10 33 -5 3
-7 0 -5 -7 3 -8 -1 -22 -10 -33 -12 -16 -16 -17 -23 -7 -7 11 -10 10 -16 -3
-9 -23 -8 -25 9 -25 8 0 15 -4 15 -9 0 -11 -70 -20 -76 -9 -3 5 -9 6 -13 4 -4
-3 -5 8 -3 25 3 24 1 28 -12 23 -13 -5 -15 1 -12 35 2 22 -1 38 -5 35 -5 -3
-9 -15 -9 -27 0 -27 -19 -62 -20 -37 -1 12 -3 12 -14 -2 -7 -10 -17 -14 -21
-10 -5 4 -5 1 0 -6 4 -8 16 -12 26 -9 11 3 19 1 19 -4 0 -5 -11 -9 -24 -9 -13
0 -27 -6 -29 -12 -3 -8 -6 -6 -6 5 -1 9 -5 18 -11 18 -19 3 -25 4 -35 10 -17
11 -75 -2 -75 -17 0 -8 5 -14 10 -14 14 0 12 -13 -4 -35 -14 -19 -15 -19 -27
8 -9 21 -17 26 -32 21 -13 -4 -17 -2 -13 5 4 6 2 11 -3 11 -6 0 -11 -7 -11
-15 0 -18 -1 -18 -36 -5 -25 10 -26 12 -10 29 22 25 20 31 -11 31 -22 0 -25 2
-13 10 8 5 10 10 4 10 -5 0 -15 -5 -22 -12 -9 -9 -12 -9 -12 0 0 10 -3 10 -14
0 -12 -11 -12 -17 -1 -38 7 -14 18 -43 25 -65 11 -40 13 -40 52 -37 47 5 48
-9 5 -42 -26 -19 -29 -19 -60 -4 -17 9 -42 19 -54 23 -13 3 -23 10 -23 15 0
11 -36 19 -50 10 -6 -4 -10 -11 -8 -15 1 -4 -18 -8 -45 -9 -26 0 -47 2 -47 7
0 4 6 7 13 8 6 1 21 2 32 3 11 0 20 6 20 13 0 7 9 19 20 27 20 15 20 15 -2 16
-12 0 -24 -6 -26 -12 -3 -7 -6 -4 -6 6 -1 20 -1 20 -17 0 -15 -18 -15 -17 -10
18 6 45 -15 80 -36 60 -11 -11 -10 -12 4 -7 10 4 18 3 18 -3 0 -11 -18 -11
-38 1 -8 5 -12 2 -12 -9 0 -14 -3 -14 -15 -4 -13 11 -15 10 -9 -6 5 -15 4 -16
-5 -4 -6 9 -7 18 -1 24 15 15 12 29 -5 22 -8 -3 -15 0 -15 7 0 7 -3 8 -8 2 -4
-5 -17 -11 -29 -12 -19 -2 -23 2 -23 27 0 17 -4 30 -8 30 -5 0 -6 -14 -4 -31
4 -29 3 -30 -16 -20 -21 11 -38 63 -27 81 11 19 -10 10 -25 -9 -7 -11 -17 -18
-22 -15 -4 3 -8 -5 -9 -18 l0 -23 -9 23 c-13 31 -24 27 -17 -6 4 -19 2 -29 -6
-29 -7 0 -12 16 -12 41 1 32 5 41 18 40 9 -1 17 5 17 13 0 8 5 11 10 8 17 -11
11 1 -15 29 l-25 27 0 -35 c0 -20 -5 -36 -11 -36 -6 0 -9 9 -6 20 3 11 0 20
-5 20 -7 0 -8 -14 -5 -35 3 -19 1 -37 -4 -40 -5 -4 -10 -1 -10 4 -1 6 -3 16
-4 21 -1 6 -3 16 -4 23 0 7 -8 22 -16 33 -14 18 -14 18 -8 -3 4 -19 1 -23 -16
-23 -23 0 -29 -25 -8 -33 9 -4 9 -6 0 -6 -7 -1 -13 -9 -14 -18 0 -15 -2 -15
-9 2 -6 13 -9 15 -9 5 0 -8 3 -22 9 -30 10 -16 -4 -30 -30 -30 -13 0 -13 1 0
10 13 8 13 10 -2 10 -23 0 -50 -29 -44 -47 3 -8 6 -19 6 -25 0 -7 22 -9 62 -5
l62 5 -33 -15 c-20 -10 -28 -19 -21 -23 8 -5 6 -20 -10 -50 -18 -35 -19 -44
-8 -51 9 -6 4 -9 -15 -9 -16 0 -37 -5 -48 -10 -15 -8 -21 -7 -25 4 -3 9 -16
13 -32 11 -23 -2 -27 -7 -24 -29 2 -21 -1 -26 -19 -26 -12 0 -20 -3 -16 -6 3
-3 -1 -20 -8 -37 -9 -22 -10 -38 -4 -52 9 -18 9 -18 -4 -3 -8 10 -18 14 -23 9
-15 -14 -84 -23 -84 -11 0 5 -6 9 -12 7 -8 -1 -12 8 -10 26 2 15 -1 27 -7 27
-6 0 -11 -7 -11 -15 0 -8 -4 -15 -10 -15 -5 0 -10 7 -10 15 0 19 -7 19 -27 -1
-10 -10 -19 -12 -26 -5 -6 6 -14 5 -24 -4 -17 -18 -44 -9 -36 12 4 11 2 14 -8
11 -8 -3 -13 -13 -11 -22 2 -11 -5 -20 -17 -23 -12 -3 -18 -9 -15 -14 3 -5 10
-7 15 -4 5 4 9 -1 9 -9 0 -9 -4 -16 -10 -16 -5 0 -10 -8 -10 -17 0 -15 2 -16
10 -3 7 11 10 0 10 -38 0 -44 -3 -54 -21 -60 -24 -9 -26 -21 -7 -33 10 -7 10
-9 0 -9 -17 0 -10 -82 7 -88 8 -3 6 -9 -6 -18 -17 -13 -17 -14 0 -25 9 -5 15
-15 12 -20 -4 -5 -11 -7 -16 -4 -15 10 -10 -5 11 -32 15 -19 17 -30 9 -44 -5
-10 -14 -19 -19 -19 -6 0 -10 -4 -10 -10 0 -5 7 -7 15 -4 11 5 15 -2 16 -27 1
-19 3 -49 5 -67 1 -17 -1 -44 -6 -60 l-8 -27 -10 25 c-8 20 -11 3 -13 -83 -3
-76 -1 -107 7 -107 21 0 24 -28 3 -33 -23 -6 -25 -30 -3 -51 8 -9 11 -16 5
-16 -6 0 -11 -10 -11 -21 0 -17 3 -19 14 -10 9 8 16 9 21 2 3 -6 -6 -13 -20
-17 -20 -5 -25 -12 -25 -36 0 -17 4 -27 10 -23 6 3 10 13 10 21 0 8 4 14 10
14 5 0 7 -17 4 -37 -2 -21 -5 -49 -5 -63 0 -14 -3 -19 -6 -12 -8 19 -22 4 -16
-18 3 -11 12 -20 19 -20 21 0 17 -18 -6 -25 -20 -6 -20 -7 2 -35 13 -17 31
-29 43 -28 36 3 95 -22 95 -41 0 -9 5 -22 12 -29 8 -8 8 -12 1 -12 -7 0 -10
-16 -7 -42 2 -24 1 -35 -2 -26 -3 10 -11 15 -20 11 -7 -3 -11 -10 -8 -15 4 -6
0 -14 -7 -19 -11 -6 -9 -13 11 -31 13 -13 27 -22 30 -20 2 2 6 -2 8 -8 3 -8
-3 -10 -16 -6 -17 6 -21 3 -19 -16 1 -13 7 -28 15 -34 8 -5 15 -27 16 -47 1
-29 -2 -37 -16 -37 -10 0 -18 -4 -18 -10 0 -5 6 -10 14 -10 19 0 28 -29 22
-71 -3 -19 -3 -28 0 -21 3 6 11 9 17 5 6 -4 8 0 4 10 -3 9 1 29 9 44 13 23 15
24 11 6 -3 -13 -2 -23 2 -23 10 0 35 44 33 58 -2 6 2 12 8 12 5 0 9 -3 9 -7
-1 -5 0 -17 1 -28 1 -15 5 -11 15 15 9 25 14 29 14 14 1 -11 7 -26 13 -33 10
-11 10 -14 1 -18 -19 -7 -16 -33 7 -70 l20 -33 -26 0 c-23 0 -25 -3 -20 -26 5
-18 3 -24 -5 -18 -8 5 -9 3 -4 -6 6 -10 11 -9 22 5 12 18 13 18 13 -2 0 -12 2
-28 5 -36 4 -8 0 -14 -9 -14 -8 0 -13 4 -10 9 3 4 -2 8 -11 8 -10 0 -13 -5 -9
-12 5 -7 3 -8 -5 -4 -7 5 -11 23 -9 44 1 20 -2 37 -9 39 -15 5 -26 -14 -13
-22 12 -7 14 -55 2 -55 -5 0 -9 -6 -9 -14 0 -9 13 -16 33 -18 18 -2 30 0 28 4
-3 4 0 8 5 8 6 0 12 -9 12 -20 1 -11 2 -26 3 -32 1 -7 -2 -21 -6 -30 -5 -11
-5 -18 2 -18 5 0 10 -9 10 -20 0 -11 -5 -20 -11 -20 -9 0 -8 -4 0 -14 6 -7 9
-28 5 -47 -10 -59 -12 -61 -34 -49 -23 12 -27 48 -6 56 8 3 11 15 8 29 -3 20
-8 23 -22 15 -9 -5 -20 -6 -24 -2 -4 3 -4 -1 -1 -10 5 -13 2 -15 -14 -11 -17
4 -21 1 -21 -21 0 -14 5 -26 11 -26 6 0 8 9 4 21 -6 18 -5 20 14 10 12 -7 21
-21 21 -31 0 -17 -7 -20 -39 -20 l-40 0 10 32 c9 34 7 44 -10 33 -6 -3 -11
-26 -11 -51 0 -39 -3 -46 -28 -55 -26 -10 -26 -11 -8 -25 11 -8 15 -14 8 -14
-20 0 -2 -63 26 -89 24 -22 26 -22 32 -5 6 15 8 14 14 -9 4 -16 11 -25 17 -21
8 4 7 9 -2 14 -10 7 -10 11 0 24 18 22 30 20 24 -3 -3 -10 0 -22 6 -25 7 -4
11 1 11 14 0 12 5 18 10 15 6 -4 7 -12 3 -18 -3 -7 3 -3 15 7 25 22 30 12 6
-12 -15 -15 -15 -17 10 -25 27 -9 33 -21 16 -32 -5 -3 -10 1 -10 9 0 9 -5 16
-11 16 -5 0 -7 -5 -4 -10 12 -20 -6 -32 -25 -15 -16 15 -17 13 -16 -25 1 -40
5 -44 39 -41 9 1 17 -4 17 -13 0 -12 -10 -15 -43 -13 -46 2 -57 9 -73 47 l-11
25 -21 -42 c-21 -40 -16 -63 8 -48 6 3 10 1 10 -5 0 -11 37 -10 57 3 8 5 9 0
6 -15 l-6 -23 19 20 c26 28 68 31 61 5 -3 -11 0 -21 6 -23 7 -2 7 -9 2 -18 -5
-8 -8 -21 -7 -31 4 -22 -19 -35 -29 -16 -12 22 -57 11 -65 -16 -4 -11 -12 -24
-18 -28 -8 -6 -7 -10 1 -16 10 -6 10 -12 -2 -28 -8 -10 -14 -23 -15 -29 0 -5
5 -3 10 5 9 13 12 13 21 -2 5 -10 18 -18 27 -18 13 0 14 -2 4 -9 -11 -7 -11
-11 2 -24 22 -21 20 -37 -4 -37 -11 0 -20 -4 -20 -10 0 -5 4 -10 9 -10 5 0 7
-9 4 -20 -3 -11 -9 -17 -14 -14 -5 3 -9 -17 -9 -44 0 -35 4 -52 15 -56 8 -3
15 -11 15 -18 0 -10 -2 -10 -9 0 -7 12 -56 10 -69 -3 -5 -5 1 -7 40 -9 13 0
23 -8 23 -16 0 -8 6 -26 13 -40 11 -21 11 -22 0 -9 -7 8 -20 18 -29 21 -13 5
-16 2 -12 -13 3 -10 9 -16 14 -13 5 3 9 -1 9 -10 0 -8 -6 -16 -12 -19 -10 -3
-10 -7 1 -20 7 -9 18 -14 24 -10 6 4 8 0 4 -10 -3 -10 -2 -17 3 -17 5 0 10 8
12 17 4 18 17 -28 37 -126 8 -37 8 -58 1 -65 -12 -12 -13 -53 -1 -60 4 -3 11
-19 14 -35 5 -25 12 -30 47 -36 25 -4 53 -18 71 -36 31 -30 67 -37 87 -17 9 9
12 7 12 -10 0 -13 6 -22 15 -22 8 0 15 -4 15 -10 0 -5 7 -10 16 -10 26 0 9
-25 -19 -28 -15 -2 -27 -8 -27 -13 0 -5 -3 -8 -7 -8 -20 3 -26 -2 -13 -11 13
-9 13 -12 -2 -24 -10 -7 -14 -17 -10 -21 4 -5 2 -5 -4 -2 -17 9 -57 -32 -45
-46 10 -13 3 -64 -10 -73 -5 -3 -4 -15 2 -26 11 -20 13 -20 24 -5 11 16 13 14
17 -13 3 -17 1 -33 -4 -36 -17 -11 -7 -24 19 -24 14 0 24 -3 20 -6 -3 -4 1
-13 9 -21 9 -10 34 -14 72 -14 31 0 67 1 80 1 12 0 22 6 22 14 0 9 8 12 24 9
18 -4 26 0 31 17 l7 21 18 -21 c11 -13 20 -16 22 -9 3 9 9 9 27 -1 19 -10 22
-10 16 2 -3 7 0 5 9 -6 8 -10 19 -15 24 -12 6 3 12 2 14 -3 1 -5 9 -3 16 5 7
8 9 14 3 14 -5 0 -7 10 -4 23 4 18 3 19 -7 7 -10 -12 -11 -11 -7 8 3 14 0 22
-9 22 -8 0 -11 -6 -7 -16 5 -14 3 -15 -15 -5 -28 15 -32 14 -32 -6 0 -14 -2
-15 -9 -4 -7 11 -9 11 -14 0 -4 -10 -6 -10 -6 -1 -1 6 -10 12 -21 12 -21 0
-29 33 -11 45 6 3 8 -4 6 -15 -2 -13 1 -20 11 -20 8 0 12 5 9 10 -3 5 -3 15 1
21 5 8 9 8 14 -1 4 -7 13 -9 19 -6 8 5 7 12 -4 22 -8 9 -19 12 -25 9 -5 -3
-10 0 -10 7 0 9 -3 9 -10 -2 -7 -10 -13 -11 -18 -5 -8 12 -21 13 -37 4 -5 -3
-21 -3 -35 2 -16 4 -19 7 -7 8 9 1 17 6 17 12 0 5 8 9 18 7 11 -2 26 3 35 11
12 9 17 10 17 2 0 -7 9 -6 25 5 14 9 25 12 25 6 0 -9 58 -11 85 -3 6 2 18 3
29 2 14 -1 17 -6 13 -23 -4 -13 2 -32 14 -49 25 -35 24 -47 -1 -24 -19 17 -20
17 -20 0 0 -10 -5 -15 -14 -12 -11 5 -12 -1 -3 -29 6 -19 15 -34 20 -34 5 0 7
7 3 15 -3 8 -1 15 4 15 6 0 10 -12 10 -27 0 -19 3 -24 9 -15 4 8 11 13 15 13
19 -3 26 0 26 10 0 5 -3 8 -7 6 -5 -3 -17 5 -28 16 -17 17 -17 19 -2 14 12 -4
17 -1 18 11 0 12 4 9 11 -8 10 -24 10 -24 18 -5 13 31 11 49 -6 71 -15 19 -15
19 -6 -1 9 -17 6 -20 -14 -21 -15 -1 -24 4 -24 13 0 8 5 11 12 7 8 -5 9 2 5
24 -6 27 -4 32 13 32 22 0 29 -10 36 -47 8 -42 14 -40 14 4 l0 40 46 1 c25 1
54 7 64 12 28 15 40 12 33 -7 -5 -15 -3 -16 8 -6 18 18 58 16 65 -2 4 -8 10
-15 16 -15 5 0 6 5 2 12 -5 7 -2 9 8 6 8 -4 21 -2 29 3 11 7 11 9 -3 9 -11 0
-18 8 -18 20 0 12 7 20 18 20 14 0 15 -2 2 -10 -13 -8 -13 -10 1 -10 9 0 19
-10 22 -21 4 -15 11 -20 21 -16 9 4 16 2 16 -3 0 -6 5 -10 12 -10 6 0 8 3 5 7
-4 3 -2 12 4 20 9 10 7 13 -7 13 -13 0 -15 3 -7 11 9 9 18 6 35 -14 l22 -25
28 20 c25 17 27 17 21 2 -4 -12 -3 -15 5 -10 12 7 16 -2 14 -42 -1 -12 3 -20
8 -17 10 6 14 -8 11 -34 -2 -7 2 -10 9 -6 7 4 10 16 7 26 -3 10 -1 22 5 25 5
3 7 12 4 19 -3 9 2 12 18 9 20 -3 61 23 42 27 -3 1 -10 3 -16 4 -5 1 -18 3
-27 4 -14 1 -15 3 -4 10 11 7 11 9 0 14 -8 3 -5 6 8 6 12 1 25 -4 29 -10 3 -6
17 -8 29 -5 16 4 28 0 37 -11 9 -13 28 -18 66 -19 29 -1 58 -6 65 -11 6 -5 24
-9 40 -8 16 1 27 -4 27 -12 0 -7 -8 -13 -17 -14 -11 0 -13 -3 -5 -6 6 -2 12
-13 12 -24 0 -10 4 -19 10 -19 5 0 6 7 3 17 -4 11 -3 14 5 9 8 -5 12 3 12 27
0 31 3 34 30 35 18 0 34 -6 40 -16 8 -15 9 -15 10 3 0 17 2 17 10 5 5 -8 10
-10 10 -4 0 6 10 9 24 7 13 -3 36 3 50 12 25 17 26 17 26 -5 0 -19 2 -20 15
-10 8 7 15 19 15 26 0 8 4 14 10 14 5 0 6 -7 3 -17 -4 -11 -3 -14 6 -9 6 4 18
2 26 -4 8 -7 23 -9 32 -5 30 12 102 9 119 -6 14 -11 19 -10 35 11 10 14 19 19
19 13 0 -7 8 -13 18 -13 13 0 14 2 4 9 -11 6 -9 9 6 13 15 4 18 1 15 -12 -4
-14 1 -17 24 -16 15 2 29 6 31 9 6 18 0 26 -15 21 -16 -5 -15 -3 1 10 22 18
26 16 30 -11 2 -10 10 -17 19 -17 10 1 24 2 32 3 8 0 15 7 15 15 0 8 4 17 8
20 5 3 8 -7 7 -22 -2 -15 0 -19 2 -9 2 9 9 15 14 11 5 -3 6 -10 3 -16 -4 -6
-1 -9 7 -6 8 3 15 10 15 16 1 7 2 17 3 22 0 6 10 10 20 10 11 0 23 5 27 11 4
8 9 7 15 -2 6 -11 11 -11 21 -1 16 16 31 16 26 0 -3 -7 -11 -13 -18 -13 -16 0
-37 -32 -27 -42 5 -4 12 -1 17 7 8 12 10 12 10 1 0 -7 6 -11 15 -7 8 3 15 0
15 -5 0 -7 10 -4 25 5 14 9 25 12 25 7 0 -16 34 -18 58 -2 18 11 25 12 31 2 4
-6 15 -9 24 -5 10 4 17 1 17 -6 0 -9 4 -9 17 1 10 8 14 9 10 2 -12 -19 7 -23
49 -8 33 11 39 18 42 44 3 24 8 31 25 31 16 0 18 3 8 9 -11 7 -11 9 0 13 8 3
25 -2 38 -11 l24 -16 -17 27 c-17 26 -17 27 3 25 19 -1 25 -9 22 -29 0 -5 4
-8 9 -8 6 0 19 -19 29 -42 l18 -42 6 32 c4 22 11 31 18 26 9 -5 10 1 5 19 -6
25 5 43 18 30 9 -10 51 -12 65 -4 7 5 13 28 13 52 1 59 16 22 17 -42 1 -25 8
-54 16 -65 8 -10 15 -15 15 -10 0 6 7 1 15 -10 8 -10 14 -14 14 -9 0 15 -25
46 -32 39 -3 -3 -6 12 -5 35 0 22 4 38 9 35 5 -3 9 -16 9 -30 0 -21 4 -24 20
-19 12 4 20 2 20 -5 0 -7 6 -10 14 -7 10 4 17 -3 21 -23 8 -36 22 -47 38 -30
9 9 9 14 1 17 -8 3 -9 15 -2 43 10 38 28 46 28 14 0 -8 -4 -12 -10 -9 -5 3
-10 -3 -10 -14 0 -12 5 -20 12 -18 6 1 14 -7 17 -18 6 -22 55 -33 66 -15 3 5
2 26 -4 45 -8 29 -7 35 5 35 10 0 13 -6 10 -17 -3 -10 -1 -25 5 -33 9 -12 10
-11 6 7 -3 15 0 23 9 23 17 0 34 32 34 65 0 15 4 24 10 20 6 -3 10 -1 10 4 0
6 -7 11 -15 11 -8 0 -15 5 -15 11 0 5 4 8 9 4 5 -3 13 5 16 16 7 21 8 21 18 3
10 -17 12 -16 23 11 10 25 9 35 -3 59 -14 27 -14 31 0 41 11 8 14 20 10 36 -5
19 -3 22 7 12 7 -7 15 -35 16 -63 2 -27 8 -58 13 -69 6 -10 7 -21 4 -25 -3 -3
-1 -6 5 -6 7 0 21 -15 32 -32 l20 -33 -6 50 -7 50 21 -19 c12 -10 19 -23 16
-27 -3 -5 0 -9 6 -9 8 0 9 7 5 18 -16 38 -18 55 -7 48 7 -4 12 -2 12 5 0 6 -8
9 -20 6 -13 -3 -21 1 -25 14 -4 11 -10 17 -15 14 -13 -8 -22 12 -26 63 -9 95
-13 112 -32 105 -15 -6 -15 -5 -3 10 16 21 25 16 41 -23 7 -16 15 -28 19 -26
3 2 7 -16 8 -42 1 -25 7 -50 13 -56 5 -5 10 -18 10 -27 0 -10 9 -19 21 -21 17
-2 23 -11 26 -42 2 -21 8 -47 13 -57 15 -27 12 -35 -5 -13 -14 18 -14 18 -16
-11 -1 -17 -3 -23 -6 -12 -6 22 -23 12 -23 -13 0 -27 18 -35 39 -16 15 14 18
13 35 -19 10 -19 23 -33 29 -32 6 1 12 -7 14 -18 l3 -20 -9 20 c-5 11 -10 16
-10 11 -1 -5 -9 -2 -18 5 -15 12 -16 12 -10 -4 4 -10 7 -21 7 -23 0 -3 4 -3 8
0 5 3 15 -6 22 -19 17 -31 23 -31 39 -1 10 18 10 29 2 45 -7 12 -9 26 -6 31 4
6 3 10 -2 9 -23 -4 -35 2 -30 16 4 8 2 17 -3 20 -6 4 -10 12 -10 18 0 7 9 1
20 -13 11 -14 20 -19 20 -12 0 6 5 12 10 12 6 0 10 -18 10 -40 0 -37 23 -100
36 -100 3 0 12 7 21 15 11 12 13 22 5 44 -8 21 -7 28 4 28 7 0 11 -4 8 -9 -3
-4 5 -8 18 -8 18 0 20 2 8 10 -10 6 -11 10 -3 10 9 0 10 7 2 26 -11 32 -5 42
14 22 9 -8 12 -26 9 -46 -3 -27 -9 -32 -31 -32 -14 0 -21 -4 -15 -8 6 -4 10
-22 9 -40 -2 -26 1 -32 14 -30 9 2 15 11 13 22 -2 11 1 15 7 11 6 -3 11 -1 11
5 0 8 6 8 20 0 16 -9 18 -8 14 5 -4 8 -12 15 -18 15 -7 0 -13 6 -13 14 0 13 3
13 20 1 24 -17 49 -65 43 -82 -3 -7 -1 -15 4 -18 6 -4 11 2 12 12 0 10 2 23 2
30 2 17 16 29 16 12 0 -8 10 0 21 16 18 25 20 27 16 8 -4 -17 -1 -23 13 -23
10 0 26 -7 34 -16 15 -14 16 -14 16 5 0 14 5 19 15 15 8 -4 15 -12 15 -20 0
-8 4 -14 9 -14 4 0 7 14 5 31 -2 18 0 28 6 24 6 -3 10 -17 10 -31 0 -13 5 -24
11 -24 5 0 8 -4 5 -8 -2 -4 -1 -14 5 -22 7 -12 9 -11 10 5 1 11 1 25 0 30 -2
17 62 12 77 -5 8 -8 11 -9 7 -2 -4 7 0 12 9 12 10 0 16 9 16 22 0 22 10 20 14
-4 1 -7 8 -23 15 -36 9 -17 9 -27 2 -36 -8 -9 -7 -13 3 -13 15 0 30 65 20 91
-3 8 -1 23 5 33 9 15 10 12 11 -17 0 -20 5 -41 12 -48 8 -8 8 -15 -2 -27 -11
-13 -10 -18 6 -31 10 -9 13 -13 7 -9 -18 9 -16 -20 2 -35 12 -10 15 -9 16 6 1
11 1 26 0 34 -2 9 4 7 13 -7 17 -23 51 -27 75 -9 10 8 15 8 19 -2 3 -10 7 -10
18 -1 10 8 14 8 14 0 0 -6 3 -10 8 -9 4 0 16 -3 26 -7 13 -6 21 -4 24 3 2 7 8
9 13 6 6 -3 16 -1 24 6 9 8 15 8 20 0 3 -6 10 -8 15 -5 5 3 19 1 30 -5 16 -9
22 -8 26 5 5 12 9 13 21 4 9 -8 17 -9 24 -2 15 15 -19 47 -36 33 -9 -8 -11 -4
-7 16 3 19 1 25 -7 20 -7 -5 -21 0 -32 10 -21 19 -26 39 -6 28 6 -4 4 2 -6 12
-14 15 -19 16 -26 6 -6 -10 -10 -8 -14 9 -8 29 -4 33 21 20 18 -9 19 -8 14 11
-3 14 -1 19 6 14 7 -4 12 -18 12 -32 0 -15 4 -23 10 -19 6 4 10 3 9 -2 -3 -19
2 -33 12 -33 6 0 9 7 5 15 -7 19 3 47 15 39 5 -3 16 2 25 11 14 13 14 18 2 32
-12 15 -11 15 10 4 12 -6 22 -17 22 -24 0 -8 4 -7 10 3 9 13 13 12 30 -9 26
-30 25 -45 0 -38 -23 6 -26 -3 -7 -22 10 -11 10 -14 0 -18 -18 -6 -16 -33 1
-33 8 0 17 -7 20 -16 5 -14 4 -15 -7 -5 -11 9 -20 7 -38 -10 -18 -15 -19 -19
-6 -15 11 3 20 0 23 -9 8 -20 34 -19 34 0 0 13 4 12 22 -4 20 -19 22 -20 37
-3 17 19 48 21 95 8 20 -6 31 -5 37 5 8 12 12 11 23 -3 17 -23 29 -23 16 -1
-5 10 -15 31 -21 48 -6 19 -13 25 -18 17 -5 -8 -12 -6 -24 8 -23 27 -22 37 1
17 14 -13 21 -14 30 -5 8 8 13 4 18 -17 4 -17 9 -22 14 -15 5 8 9 7 13 -5 4
-9 3 -13 -3 -10 -16 10 -12 -5 9 -30 13 -18 21 -21 30 -12 8 8 11 8 11 0 0 -6
11 -10 25 -9 29 1 31 8 11 29 -19 19 -10 61 9 44 7 -7 9 -16 5 -22 -18 -22 8
-36 77 -41 70 -5 71 -5 77 22 7 25 8 26 21 8 14 -18 14 -18 15 4 0 21 3 23 33
17 17 -3 28 -3 22 2 -14 11 -18 43 -5 43 10 0 15 -26 12 -62 -1 -10 1 -18 4
-18 8 0 47 49 54 68 4 10 9 7 17 -11 10 -21 9 -28 -8 -43 -11 -10 -19 -12 -19
-6 0 7 -4 12 -10 12 -5 0 -10 -9 -10 -20 0 -13 7 -20 20 -20 11 0 20 4 20 8 0
4 16 6 36 4 28 -3 35 -1 31 9 -2 8 -9 13 -15 12 -6 -2 -9 4 -5 13 4 11 8 12
13 4 6 -9 9 -9 12 1 3 8 -2 19 -10 25 -10 7 -12 20 -7 43 l7 32 24 -32 c19
-27 24 -29 24 -13 0 16 2 16 10 4 8 -13 11 -13 26 1 14 15 14 19 0 47 -20 38
-20 48 -2 33 19 -16 28 9 9 27 -7 7 -13 20 -13 28 0 17 20 19 21 2 1 -7 5 -2
9 12 8 24 8 24 9 3 1 -13 5 -23 11 -23 5 0 16 -12 24 -27 8 -16 15 -23 16 -16
0 6 -10 29 -22 49 -12 21 -17 34 -10 30 7 -4 12 -2 12 4 0 6 10 10 23 8 12 -2
22 -10 22 -18 0 -8 6 -19 13 -25 8 -7 13 -46 15 -123 2 -109 2 -112 24 -112
27 0 29 8 7 25 -9 6 -15 20 -13 30 4 18 5 18 22 1 17 -18 18 -17 13 23 -6 48
1 74 17 64 6 -3 7 -1 3 6 -7 10 15 41 30 42 16 1 21 -25 7 -39 -8 -8 -13 -26
-10 -39 3 -19 2 -21 -10 -12 -11 10 -12 8 -7 -6 5 -13 4 -16 -4 -11 -7 4 -12
5 -12 2 0 -11 24 -56 29 -56 16 1 43 31 38 43 -3 8 1 14 9 14 8 0 14 -4 14 -9
0 -5 5 -6 10 -3 6 3 10 1 10 -4 0 -6 5 -11 10 -11 6 0 10 6 10 14 0 10 11 12
43 9 23 -3 45 -10 48 -15 4 -6 9 -5 12 3 5 11 9 10 18 -5 17 -28 30 -1 24 54
-4 42 -4 43 5 13 6 -18 13 -33 16 -33 3 0 2 9 -1 20 -8 24 -2 25 19 4 9 -8 16
-27 16 -41 0 -15 8 -35 18 -46 9 -11 11 -17 5 -13 -9 5 -11 2 -7 -9 5 -11 10
-13 17 -6 7 7 15 5 24 -7 10 -11 16 -13 19 -5 5 10 128 9 161 -2 6 -2 13 1 15
7 2 6 11 3 22 -7 15 -15 19 -16 27 -4 7 12 9 12 9 -1 0 -13 2 -13 9 -1 6 9 6
22 0 34 -6 10 -8 23 -5 30 2 7 5 6 5 -4 2 -38 75 -73 94 -45 4 7 10 8 15 1 4
-5 41 -10 82 -9 104 1 104 1 86 20 -9 8 -13 20 -10 26 4 7 11 4 17 -7 7 -13
11 -14 17 -5 5 9 9 9 14 1 4 -6 2 -11 -3 -11 -6 0 -11 -7 -11 -15 0 -18 17
-20 23 -2 3 9 9 9 27 -1 12 -7 24 -11 27 -8 3 3 18 -1 34 -9 39 -20 49 -19 49
8 0 22 0 22 20 -3 15 -19 20 -21 20 -8 0 13 5 15 28 9 15 -4 41 -6 57 -4 68 8
131 9 148 0 11 -5 23 -4 31 2 9 7 16 7 23 0 8 -8 17 -7 33 1 12 7 33 10 46 7
13 -2 24 0 24 4 0 5 8 9 18 9 27 0 32 9 21 38 -8 21 -7 23 4 14 21 -18 29 -1
10 20 -21 23 -33 23 -33 -1 0 -11 -4 -23 -10 -26 -18 -11 -11 37 8 51 10 8 12
13 5 14 -7 0 -13 7 -13 16 0 14 2 14 15 0 9 -8 15 -18 15 -21 -1 -12 31 -37
38 -30 4 4 1 10 -5 12 -7 3 -13 9 -13 15 0 5 -7 16 -15 25 -24 24 -6 37 20 13
20 -19 23 -19 29 -5 3 9 6 27 6 40 0 13 6 26 13 28 7 3 5 6 -5 6 -24 1 -23 23
2 44 21 18 26 37 10 37 -5 0 -10 5 -10 11 0 5 4 8 9 5 4 -3 8 15 8 39 0 24 -4
42 -8 39 -5 -3 -9 0 -9 5 0 18 28 12 33 -7 3 -12 5 -10 7 8 1 14 2 29 1 34 -1
4 4 14 10 22 15 18 2 18 -16 0 -8 -7 -11 -16 -8 -20 4 -3 -1 -6 -9 -6 -18 0
-28 20 -28 56 0 13 -4 24 -10 24 -5 0 -10 7 -10 15 0 18 16 20 23 3 3 -7 6 -3
6 10 1 16 -5 22 -19 22 -24 0 -25 6 -5 26 13 14 15 14 15 0 0 -13 3 -14 19 -4
19 11 19 13 2 27 -10 9 -21 25 -26 36 -7 18 -9 17 -15 -10 -8 -30 -8 -30 -9 8
0 20 4 37 9 37 11 0 12 46 2 71 -5 11 -18 16 -39 15 -18 -1 -35 4 -37 11 -3 7
1 10 10 6 7 -3 14 0 14 6 0 6 -7 11 -15 11 -8 0 -15 7 -15 15 0 21 -18 19 -23
-3 -3 -12 -5 -11 -6 6 0 13 -5 20 -11 17 -5 -3 -10 -1 -10 5 0 6 -5 8 -10 5
-6 -3 -10 -1 -10 5 0 16 43 29 58 18 9 -8 12 -6 12 6 0 9 7 16 16 16 11 0 13
6 9 19 -3 11 -1 22 5 26 5 3 10 -3 10 -14 0 -28 19 -36 36 -15 13 18 14 18 8
-1 -5 -18 -4 -18 6 -2 6 9 17 17 25 17 8 0 19 -8 25 -17 8 -14 10 -14 9 -3 -4
47 2 61 32 72 19 7 28 15 25 24 -7 17 10 19 18 2 3 -7 4 8 4 34 -1 27 -5 49
-10 49 -4 1 -12 3 -18 4 -5 1 -14 3 -20 4 -5 0 -10 7 -10 15 0 8 -7 22 -16 31
-10 10 -15 27 -12 45 6 38 -2 38 -24 0 -9 -17 -13 -30 -8 -30 4 0 6 -19 3 -41
-6 -40 -5 -41 17 -29 12 7 20 7 16 2 -3 -6 -2 -13 4 -17 5 -3 10 -1 10 6 0 7
2 10 5 7 3 -3 2 -13 -1 -23 -7 -17 -8 -17 -21 1 -12 16 -15 17 -23 4 -7 -11
-10 -11 -10 -2 0 7 -4 10 -10 7 -12 -7 -7 -48 9 -89 9 -23 9 -31 -1 -38 -18
-11 -28 -10 -28 2 0 6 5 10 10 10 6 0 5 8 -2 20 -9 14 -14 16 -20 7 -5 -8 -8
-6 -8 6 0 11 -5 17 -12 14 -7 -2 -12 -10 -11 -16 4 -13 -7 -14 -27 -1 -13 8
-13 10 2 10 23 0 34 20 17 32 -11 7 -11 11 -2 15 21 8 -4 43 -27 38 -12 -2
-21 3 -25 15 -3 10 -14 20 -23 22 -14 3 -13 7 7 27 22 22 23 25 7 36 -15 12
-15 13 1 20 17 6 17 7 1 19 -10 7 -16 16 -13 20 3 3 -1 2 -7 -4 -17 -14 -35
-13 -20 2 7 7 12 23 13 37 0 26 0 26 9 3 11 -25 42 -42 48 -24 2 6 11 8 20 5
13 -5 11 0 -6 19 -15 17 -20 28 -13 33 6 3 11 1 11 -4 0 -6 5 -11 11 -11 6 0
8 7 5 15 -3 10 1 18 11 22 9 4 19 1 21 -5 2 -7 12 -12 22 -12 10 0 20 -7 24
-15 3 -8 1 -15 -4 -15 -13 0 -13 -41 0 -60 8 -12 10 -9 10 13 0 24 2 26 19 15
15 -9 22 -8 36 6 10 9 14 20 11 24 -4 3 -11 0 -17 -8 -8 -13 -12 -12 -25 5
-14 18 -13 20 1 23 15 3 15 5 -1 17 -17 12 -17 14 -1 48 9 19 17 38 17 41 0
12 -24 6 -43 -12 -11 -9 -17 -11 -13 -4 4 6 3 12 -2 12 -14 0 -23 43 -12 54 7
7 10 0 10 -20 0 -16 4 -24 8 -18 4 7 18 14 32 17 24 4 24 5 4 12 -24 7 -69 80
-59 94 3 6 -3 15 -14 21 -19 10 -19 9 -5 -17 7 -16 14 -37 13 -48 0 -11 -3
-14 -6 -7 -4 10 -8 10 -21 0 -13 -11 -14 -10 -9 14 6 23 4 25 -13 21 -11 -3
-26 0 -34 6 -11 9 -16 6 -24 -19 -6 -16 -14 -30 -17 -30 -4 0 -3 10 1 23 4 12
7 32 6 44 -2 20 1 21 22 13 24 -9 36 -5 36 12 0 5 -5 6 -10 3 -7 -4 -9 2 -4
19 8 35 -5 54 -23 31 -12 -18 -13 -18 -13 3 0 20 14 28 43 23 4 0 7 4 7 9 0 6
4 10 10 10 6 0 6 -9 0 -26 -14 -36 -12 -43 5 -14 l14 25 1 -23 c0 -16 4 -21
13 -16 8 5 8 2 -2 -9 -12 -15 -11 -17 2 -17 24 0 29 16 11 34 -9 9 -13 24 -10
33 4 10 -2 24 -16 37 -20 18 -20 21 -5 24 9 2 17 10 17 18 0 8 10 14 23 15 12
0 16 3 9 6 -19 7 -63 -18 -73 -42 -6 -17 -8 -14 -8 13 -1 17 -5 32 -11 32 -5
0 -10 5 -10 10 0 6 7 10 15 10 8 0 15 7 15 16 0 8 5 12 10 9 6 -3 10 1 10 10
0 9 5 13 10 10 6 -3 10 -2 10 2 0 5 14 14 30 20 17 6 30 18 30 27 0 9 8 16 20
16 11 0 20 5 20 10 0 16 -37 12 -44 -5 -3 -8 -11 -15 -18 -15 -10 0 -10 2 -1
8 8 5 6 13 -7 30 -17 20 -19 20 -23 5 -4 -17 -4 -17 -11 -1 -5 11 -2 23 7 33
17 16 32 73 23 82 -3 4 -6 -1 -6 -10 0 -10 -4 -17 -10 -17 -5 0 -10 -6 -10
-14 0 -7 -7 -19 -15 -26 -11 -9 -15 -9 -15 -1 0 7 -4 9 -10 6 -5 -3 -10 4 -10
15 0 15 5 20 15 17 14 -6 28 7 31 31 2 10 -1 10 -11 2 -8 -7 -23 -9 -34 -5
-14 4 -21 0 -26 -15 -6 -20 -25 -28 -25 -10 0 6 6 10 13 10 9 0 9 2 0 8 -6 4
-11 22 -11 40 1 28 4 33 20 29 12 -3 26 2 36 14 9 10 22 19 28 19 15 0 25 60
13 80 -7 12 -9 11 -9 -5 -1 -11 -4 -14 -7 -8 -2 7 9 27 26 44 35 34 38 47 16
55 -8 4 -15 10 -15 16 0 5 5 6 10 3 6 -3 10 1 10 9 0 8 -5 18 -10 21 -12 8 -9
37 5 48 6 5 4 7 -5 6 -32 -3 -40 2 -40 26 0 14 7 28 16 32 9 3 14 13 11 24 -3
11 2 19 14 22 12 3 19 14 19 29 1 22 1 22 15 4 20 -26 24 -18 13 22 -5 19 -15
32 -24 32 -10 0 -14 6 -10 15 3 8 1 15 -4 15 -14 0 -5 43 10 48 8 3 10 0 5 -8
-5 -9 -4 -11 3 -6 9 5 8 12 -1 27 -10 17 -9 22 7 35 17 12 18 14 3 14 -9 0
-17 7 -17 15 0 8 5 15 10 15 6 0 10 5 10 11 0 5 -4 7 -10 4 -6 -4 -10 6 -10
22 0 22 2 25 10 13 8 -12 10 -12 10 5 l1 20 16 -20 16 -20 -8 20 c-4 11 -10
30 -12 43 -5 18 -8 20 -20 10 -12 -10 -14 -7 -11 17 3 30 28 48 28 21 0 -9 5
-16 10 -16 13 0 13 13 -1 27 -13 13 -18 82 -7 89 5 3 8 -2 8 -10 0 -9 4 -16
10 -16 6 0 6 9 1 23 -6 14 -16 21 -30 20 -12 -2 -21 2 -21 7 0 6 10 10 23 10
l22 1 -24 19 c-13 11 -31 20 -40 21 -11 0 -10 3 6 9 16 7 20 14 16 31 -6 22
-7 22 -14 3 -13 -34 -10 8 4 48 9 27 16 35 24 27 7 -7 9 -3 6 15 -3 15 -12 26
-22 26 -14 1 -14 2 2 14 21 16 22 26 2 26 -9 0 -15 9 -15 25 0 14 -5 25 -11
25 -5 0 -7 -4 -4 -10 9 -15 -11 -12 -24 4 -9 10 -8 15 4 20 8 3 15 10 15 16 0
6 -4 8 -10 5 -5 -3 -10 -1 -10 4 0 17 18 13 28 -5 7 -12 11 -13 16 -5 4 7 3
18 -3 25 -6 7 -7 17 -3 21 4 5 2 5 -5 1 -6 -3 -14 -2 -18 4 -3 6 1 13 9 16 9
3 16 10 16 16 0 5 -3 7 -8 4 -4 -2 -14 1 -23 7 -13 10 -17 39 -22 148 -5 127
-15 179 -36 179 -5 0 -23 -16 -40 -35 -17 -19 -37 -35 -46 -35 -8 0 -15 -4
-15 -10 0 -5 -9 -2 -19 6 -16 14 -17 22 -8 47 8 25 7 32 -7 43 -10 7 -25 10
-33 7 -11 -4 -14 -2 -11 8 3 8 17 13 32 13 32 -2 30 19 -2 24 -12 2 -22 8 -22
13 0 6 9 8 19 4 27 -8 35 24 16 61 -15 28 -14 30 12 51 16 13 30 18 32 12 1
-6 -5 -16 -14 -23 -14 -10 -15 -15 -5 -21 9 -5 11 -4 6 3 -4 7 -2 12 5 12 17
0 38 31 39 59 0 16 4 21 15 17 8 -3 15 -2 15 3 0 5 -14 11 -31 15 -45 9 -49 8
-49 -11 -1 -14 -4 -12 -15 7 -8 14 -14 19 -15 11 0 -10 -3 -11 -14 -2 -8 7
-29 12 -47 12 -19 0 -50 1 -69 4 -19 2 -39 4 -44 4 -5 1 -2 8 5 17 12 15 11
16 -9 10 -17 -6 -21 -4 -16 8 3 9 10 16 15 16 5 0 9 7 9 15 0 18 -16 20 -23 3
-3 -8 -6 -5 -6 6 -1 29 -31 0 -31 -30 0 -13 -4 -24 -9 -24 -5 0 -7 10 -4 23 3
12 1 18 -4 12 -4 -5 -18 -16 -30 -23 -20 -11 -23 -10 -23 7 0 24 19 38 30 21
5 -8 9 -7 14 5 3 9 6 17 6 18 0 1 -20 1 -44 -1 -33 -3 -43 -7 -39 -18 3 -8 0
-14 -6 -14 -6 0 -11 -11 -11 -25 0 -16 6 -25 15 -25 8 0 15 -4 15 -9 0 -5 -9
-7 -20 -4 -18 5 -24 20 -23 59 0 8 -7 8 -28 0 -29 -10 -38 -29 -19 -41 21 -13
9 -25 -12 -14 -13 7 -24 12 -25 11 -14 -10 -13 2 0 12 10 8 19 20 21 28 1 7 5
18 9 24 12 20 -23 25 -51 7 -40 -25 -63 -51 -52 -58 20 -13 9 -25 -22 -24 -31
1 -32 1 -8 9 23 7 23 8 3 9 -28 1 -37 16 -20 33 8 7 12 19 9 26 -5 16 15 16
21 0 4 -10 6 -10 6 -1 2 34 -54 21 -92 -22 -18 -19 -77 -30 -77 -13 0 4 5 8
11 8 5 0 8 4 5 9 -4 5 -1 11 5 13 5 2 7 11 4 20 -6 15 -9 16 -22 3 -9 -9 -24
-13 -38 -9 -16 4 -26 0 -33 -13 -6 -10 -14 -15 -18 -11 -4 4 -1 15 7 25 9 11
10 14 2 9 -8 -4 -13 -2 -13 7 0 7 -7 14 -15 14 -11 0 -12 -4 -5 -11 14 -14 13
-23 -5 -30 -8 -3 -14 0 -12 7 1 7 -10 12 -28 11 -24 0 -29 -4 -27 -20 3 -17 1
-16 -17 5 -20 22 -21 23 -21 4 0 -11 -11 -25 -25 -31 -28 -13 -35 1 -7 17 9 6
12 11 5 11 -7 0 -10 7 -7 15 7 18 -12 20 -20 3 -3 -9 -9 -7 -20 6 -13 16 -16
17 -16 4 0 -10 -11 -17 -30 -20 -20 -3 -30 0 -30 9 0 17 -20 17 -20 1 -1 -7
-7 -2 -14 10 -12 22 -14 23 -29 8 -8 -9 -21 -16 -27 -16 -6 0 -8 -5 -4 -11 4
-7 -1 -9 -15 -5 -11 3 -31 9 -43 12 -20 6 -21 5 -9 -10 9 -10 10 -16 2 -16
-11 0 -15 13 -12 38 2 17 -18 15 -25 -2 -6 -15 -44 -10 -44 6 0 6 -7 5 -15 -2
-12 -10 -15 -10 -15 1 0 12 -2 12 -9 0 -5 -7 -14 -10 -20 -7 -6 4 -16 -4 -23
-18 -12 -28 -38 -35 -38 -11 0 8 8 15 17 15 9 0 13 3 9 7 -4 4 -15 8 -24 8
-10 0 -16 6 -14 15 3 10 -2 9 -18 -5 -13 -12 -24 -15 -28 -9 -11 15 -32 11
-48 -10 -14 -20 -14 -20 -28 -1 -8 11 -12 24 -9 29 4 5 1 6 -5 2 -7 -4 -12
-14 -12 -23 0 -12 -3 -13 -14 -3 -8 6 -12 18 -9 26 3 8 0 14 -6 14 -6 0 -11
-9 -11 -20 0 -15 -7 -20 -30 -21 -77 -3 -75 -3 -73 -34 2 -26 1 -27 -9 -11
-12 22 -45 56 -54 56 -3 0 -3 -7 0 -16 4 -10 2 -13 -6 -8 -8 5 -9 -1 -4 -20 4
-17 3 -25 -3 -22 -5 4 -11 -2 -14 -11 -2 -10 -4 -2 -4 19 -2 64 -40 98 -70 60
-8 -11 -12 -12 -13 -4 0 6 -5 12 -11 12 -5 0 -8 -4 -4 -9 12 -20 -14 -20 -28
0 -8 11 -18 16 -21 11 -3 -6 0 -13 6 -16 7 -3 0 -5 -17 -3 -19 1 -29 -3 -28
-11 3 -14 -14 -16 -19 -2 -4 13 -48 22 -48 9 0 -18 -18 -9 -23 12 -5 20 -7 20
-22 6 -8 -9 -15 -20 -14 -24 3 -18 -14 -53 -26 -53 -7 0 -16 -6 -18 -12 -4
-10 -6 -10 -6 0 -1 7 -5 10 -11 7 -17 -11 -31 5 -17 19 9 10 14 11 20 2 5 -7
14 -4 27 13 11 13 20 27 20 31 0 12 -45 21 -48 9 -3 -6 -9 -6 -18 2 -11 9 -14
8 -14 -7 0 -17 -1 -17 -14 1 -10 13 -26 19 -56 20 -35 0 -44 4 -46 19 -1 10
-7 22 -12 25 -5 3 -12 13 -16 21 -3 8 -4 3 -2 -12 2 -19 -1 -28 -11 -28 -8 0
-21 -6 -29 -14 -9 -10 -32 -13 -71 -12 -32 2 -61 -1 -64 -7 -4 -6 -12 -6 -20
-1 -18 11 -29 12 -56 2 -15 -5 -23 -4 -23 3 0 7 -10 9 -26 5 -14 -4 -23 -3
-21 1 3 4 -5 9 -16 10 -61 7 -77 11 -91 22 -13 11 -16 11 -16 -3 0 -9 -7 -16
-15 -16 -8 0 -15 -4 -15 -10 0 -22 -15 -8 -16 15 -1 16 2 22 10 18 6 -4 4 1
-4 11 -13 17 -14 17 -21 -1 -4 -10 -8 -13 -9 -8 -1 6 -4 3 -8 -6 -5 -12 -13
-14 -27 -8 -18 7 -18 8 -1 8 12 1 16 6 12 17 -3 9 -6 18 -6 20 0 3 -4 2 -10
-1 -5 -3 -10 1 -10 10 0 8 -6 18 -14 21 -8 3 -12 13 -9 24 3 10 0 27 -6 39
-15 28 -44 16 -38 -15 2 -14 -2 -25 -10 -28 -26 -10 -41 -6 -39 10 0 11 -7 18
-22 19 -15 1 -21 -3 -18 -12 3 -7 1 -13 -5 -13 -5 0 -12 7 -15 15 -4 8 -10 13
-15 10 -10 -7 -31 30 -22 39 3 3 18 6 31 6 14 0 22 -3 19 -7 -8 -7 11 -33 24
-33 5 0 9 11 9 25 0 17 6 25 18 25 13 1 11 4 -8 15 -14 7 -26 10 -28 5 -2 -4
-20 -4 -40 1 -20 4 -39 8 -42 8 -3 0 -8 10 -12 23 -3 13 -6 18 -7 11 -1 -7 -8
-10 -17 -6 -10 4 -17 -1 -21 -16 -3 -11 -9 -21 -14 -21 -5 0 -6 7 -3 15 9 22
-5 37 -20 22 -8 -6 -12 -15 -9 -19 2 -5 -1 -8 -6 -8 -20 0 -26 5 -22 20 1 8 0
12 -5 8 -4 -4 -14 -2 -23 4 -13 10 -14 10 -4 -1z m135 -58 c-4 -35 -5 -36 -14
-14 -5 15 -4 28 3 37 16 19 16 19 11 -23z m-52 -8 c-7 -9 -8 -15 0 -20 5 -3
10 -1 10 6 0 7 3 9 6 6 4 -4 2 -13 -4 -20 -7 -8 -9 -17 -5 -21 4 -4 0 -4 -9
-1 -13 5 -16 2 -12 -17 5 -23 5 -23 -10 2 -13 21 -13 25 0 28 17 4 17 8 5 31
-8 13 -5 17 11 18 15 2 17 -1 8 -12z m137 9 c-3 -3 -12 -4 -19 -1 -8 3 -5 6 6
6 11 1 17 -2 13 -5z m-253 -35 c-3 -5 1 -9 8 -9 7 0 21 -12 31 -25 16 -22 16
-25 2 -25 -9 0 -13 5 -10 10 3 6 0 10 -8 10 -8 0 -22 11 -31 25 -20 30 -20 36
-1 29 8 -4 12 -10 9 -15z m176 -19 c0 -5 -5 -10 -11 -10 -5 0 -7 5 -4 10 3 6
8 10 11 10 2 0 4 -4 4 -10z m220 -12 c0 -4 -4 -8 -9 -8 -6 0 -12 4 -15 8 -3 5
1 9 9 9 8 0 15 -4 15 -9z m-500 -18 c0 -11 -2 -20 -4 -20 -2 0 -6 9 -9 20 -3
11 -1 20 4 20 5 0 9 -9 9 -20z m470 -25 c0 -8 -4 -15 -10 -15 -5 0 -7 7 -4 15
4 8 8 15 10 15 2 0 4 -7 4 -15z m-690 -64 c0 -6 -4 -13 -10 -16 -5 -3 -10 1
-10 9 0 9 5 16 10 16 6 0 10 -4 10 -9z m-3025 -99 c-11 -11 -25 15 -19 33 7
17 8 16 16 -5 5 -13 6 -25 3 -28z m4465 35 c0 -8 -6 -14 -14 -14 -8 0 -12 6
-9 14 3 7 9 13 14 13 5 0 9 -6 9 -13z m-1516 -6 c3 -5 -1 -11 -9 -14 -9 -4
-12 -1 -8 9 6 16 10 17 17 5z m2771 -10 c3 -5 1 -12 -5 -16 -5 -3 -10 1 -10 9
0 18 6 21 15 7z m-2640 -20 c-3 -6 -11 -8 -17 -5 -6 4 -5 9 3 15 16 10 23 4
14 -10z m1934 -45 c-9 -8 -11 -7 -6 6 3 10 2 20 -3 23 -6 4 -10 14 -10 23 1
11 6 7 16 -12 13 -22 13 -31 3 -40z m91 39 c14 -19 14 -19 -2 -6 -10 7 -18 18
-18 24 0 6 1 8 3 6 1 -2 9 -13 17 -24z m-1890 0 c0 -9 -9 -15 -22 -15 -21 0
-21 0 -2 15 24 18 24 18 24 0z m1480 11 c0 -11 -19 -15 -25 -6 -3 5 1 10 9 10
9 0 16 -2 16 -4z m-53 -26 c-2 -23 -19 -26 -37 -5 -10 12 -8 14 9 10 12 -2 21
0 21 6 0 5 2 9 4 9 3 0 4 -9 3 -20z m80 -2 c-3 -8 -6 -5 -6 6 -1 11 2 17 5 13
3 -3 4 -12 1 -19z m37 -15 c-25 -18 -33 -16 -27 7 3 11 9 18 13 15 5 -3 12 0
16 7 6 9 9 9 12 -2 3 -7 -3 -19 -14 -27z m60 30 c-5 -5 -12 -12 -15 -16 -3 -5
-9 -2 -12 7 -5 12 0 16 15 16 12 0 17 -3 12 -7z m-4712 -22 c-3 -8 -7 -10 -9
-4 -2 6 -14 9 -26 7 -20 -4 -20 -4 -2 4 29 13 44 10 37 -7z m3008 9 c0 -5 -2
-10 -4 -10 -3 0 -8 5 -11 10 -3 6 -1 10 4 10 6 0 11 -4 11 -10z m1587 -12 c-3
-8 -6 -5 -6 6 -1 11 2 17 5 13 3 -3 4 -12 1 -19z m1263 0 c0 -12 -3 -19 -6
-15 -4 3 -13 0 -21 -8 -13 -13 -16 -13 -30 1 -14 13 -14 17 -2 25 8 5 20 7 27
4 7 -3 10 0 7 5 -3 6 1 10 9 10 10 0 16 -9 16 -22z m-1145 -14 c-10 -8 -20
-12 -23 -10 -7 8 23 34 32 28 5 -3 1 -11 -9 -18z m270 6 c3 -5 1 -10 -4 -10
-6 0 -11 5 -11 10 0 6 2 10 4 10 3 0 8 -4 11 -10z m740 0 c3 -5 -1 -10 -10
-10 -9 0 -13 5 -10 10 3 6 8 10 10 10 2 0 7 -4 10 -10z m515 -10 c0 -11 -2
-20 -4 -20 -2 0 -6 9 -9 20 -3 11 -1 20 4 20 5 0 9 -9 9 -20z m-6216 -6 c17
-1 36 2 43 8 9 7 18 5 30 -7 15 -16 15 -19 1 -29 -8 -6 -14 -18 -12 -28 1 -11
-7 -17 -28 -20 -25 -4 -29 -2 -25 14 4 13 0 18 -13 18 -11 0 -26 10 -34 22
-19 26 -21 42 -4 32 6 -4 25 -8 42 -10z m531 7 c3 -5 1 -12 -5 -16 -5 -3 -10
1 -10 9 0 18 6 21 15 7z m795 -1 c0 -5 -4 -10 -10 -10 -5 0 -10 5 -10 10 0 6
5 10 10 10 6 0 10 -4 10 -10z m86 -15 c-14 -14 -16 -14 -16 -2 0 9 6 17 13 20
19 7 21 -1 3 -18z m-469 -27 c-3 -7 -5 -2 -5 12 0 14 2 19 5 13 2 -7 2 -19 0
-25z m718 22 c-3 -5 -14 -10 -23 -10 -15 0 -15 2 -2 10 20 13 33 13 25 0z
m353 5 c-10 -10 -49 -14 -43 -4 4 5 16 9 27 9 12 0 19 -2 16 -5z m-503 -15 c3
-5 1 -10 -4 -10 -6 0 -11 5 -11 10 0 6 2 10 4 10 3 0 8 -4 11 -10z m-1120 -10
c3 -5 -1 -10 -9 -10 -9 0 -16 5 -16 10 0 6 4 10 9 10 6 0 13 -4 16 -10z m261
-6 c-3 -9 -6 -20 -6 -25 0 -5 -7 -9 -16 -9 -13 0 -13 2 2 17 16 17 16 18 -7
24 -23 7 -23 7 5 8 22 1 27 -3 22 -15z m1369 6 c-3 -5 -2 -10 4 -10 5 0 12 6
15 13 5 9 7 9 12 -2 4 -9 9 -10 13 -3 9 15 51 3 51 -14 0 -8 -6 -11 -15 -8
-26 11 -65 -5 -65 -26 0 -14 -6 -18 -27 -17 -16 1 -34 7 -40 14 -15 13 -18 37
-4 29 4 -3 17 3 27 14 20 20 39 27 29 10z m-1427 -33 c10 -3 5 -5 -10 -6 -31
-1 -31 -1 -21 26 7 16 8 16 11 1 2 -9 11 -19 20 -21z m1060 -1 c-2 -12 -7 -13
-18 -5 -11 8 -12 12 -2 16 6 2 9 10 6 16 -5 9 -4 9 5 1 7 -7 11 -19 9 -28z
m4989 12 c-3 -8 -6 -5 -6 6 -1 11 2 17 5 13 3 -3 4 -12 1 -19z m-5217 -23 c0
-5 -5 -3 -10 5 -5 8 -10 20 -10 25 0 6 5 3 10 -5 5 -8 10 -19 10 -25z m5184 3
c7 -5 4 -8 -6 -8 -12 0 -18 7 -17 23 0 15 2 17 6 7 3 -8 11 -18 17 -22z
m-6479 12 c3 -5 1 -10 -4 -10 -6 0 -11 5 -11 10 0 6 2 10 4 10 3 0 8 -4 11
-10z m413 -2 c-3 -7 -21 -13 -41 -13 -59 0 -43 23 16 24 19 1 27 -3 25 -11z
m1329 6 c-3 -3 -12 -4 -19 -1 -8 3 -5 6 6 6 11 1 17 -2 13 -5z m4683 -8 c0 -3
-4 -8 -10 -11 -5 -3 -10 -1 -10 4 0 6 5 11 10 11 6 0 10 -2 10 -4z m-4695 -16
c3 -5 1 -10 -4 -10 -6 0 -11 5 -11 10 0 6 2 10 4 10 3 0 8 -4 11 -10z m-1795
-10 c0 -5 -2 -10 -4 -10 -3 0 -8 5 -11 10 -3 6 -1 10 4 10 6 0 11 -4 11 -10z
m-24 -40 c8 0 14 -4 14 -10 0 -11 -11 -13 -34 -4 -9 3 -12 12 -9 22 4 10 8 12
11 4 2 -7 10 -12 18 -12z m-509 -22 c-3 -8 -6 -5 -6 6 -1 11 2 17 5 13 3 -3 4
-12 1 -19z m7058 -8 c9 -15 -4 -32 -18 -23 -7 4 -16 8 -21 8 -5 0 -11 6 -13
13 -6 15 43 17 52 2z m-45 -34 c0 -2 -7 -6 -15 -10 -8 -3 -15 -1 -15 4 0 6 7
10 15 10 8 0 15 -2 15 -4z m-20 -124 c0 -15 -2 -15 -10 -2 -13 20 -13 33 0 25
6 -3 10 -14 10 -23z m-7167 -38 c-4 -11 -7 -11 -19 1 -19 19 -18 24 5 18 12
-3 17 -11 14 -19z m7309 -86 c-9 -9 -15 -9 -24 0 -9 9 -7 12 12 12 19 0 21 -3
12 -12z m13 -26 c6 -4 10 -13 9 -19 -1 -7 -2 -17 -3 -23 -2 -16 -38 -12 -45 6
-3 8 0 21 7 29 14 16 18 17 32 7z m-7555 -27 c0 -8 -4 -15 -10 -15 -5 0 -10 7
-10 15 0 8 5 15 10 15 6 0 10 -7 10 -15z m520 -11 c0 -8 -5 -12 -10 -9 -6 4
-8 11 -5 16 9 14 15 11 15 -7z m-230 -28 c-7 -7 -13 -7 -20 0 -6 6 -3 10 10
10 13 0 16 -4 10 -10z m7379 -297 c-19 -12 -24 -2 -8 17 9 11 14 13 17 4 3 -7
-2 -16 -9 -21z m-7673 -115 c-4 -9 -9 -15 -11 -12 -3 3 -3 13 1 22 4 9 9 15
11 12 3 -3 3 -13 -1 -22z m4 -114 c0 -5 -4 -10 -10 -10 -5 0 -10 5 -10 10 0 6
5 10 10 10 6 0 10 -4 10 -10z m160 -372 c0 -19 -2 -20 -10 -8 -13 19 -13 30 0
30 6 0 10 -10 10 -22z m95 -68 c3 -5 1 -10 -4 -10 -6 0 -11 5 -11 10 0 6 2 10
4 10 3 0 8 -4 11 -10z m-107 -25 c-3 -3 -9 2 -12 12 -6 14 -5 15 5 6 7 -7 10
-15 7 -18z m71 -7 c0 -31 -1 -31 -10 -10 -5 13 -7 28 -3 33 10 16 14 9 13 -23z
m-35 -23 c3 -8 1 -15 -4 -15 -6 0 -10 7 -10 15 0 8 2 15 4 15 2 0 6 -7 10 -15z
m60 -21 c3 -8 2 -12 -4 -9 -6 3 -10 10 -10 16 0 14 7 11 14 -7z m13 -95 c2
-39 -1 -58 -7 -54 -6 4 -8 11 -5 16 4 5 -3 21 -14 35 -12 15 -21 24 -21 21 0
-3 -3 -13 -7 -23 -4 -12 -3 -15 5 -10 8 5 12 0 12 -12 0 -16 -6 -20 -30 -18
-16 1 -33 6 -37 10 -4 5 4 6 20 2 16 -4 27 -2 27 4 0 6 -12 23 -27 37 -26 24
-26 25 -5 19 15 -5 24 -3 28 8 3 9 10 16 16 16 5 0 6 -4 3 -10 -3 -5 -1 -10 5
-10 7 0 14 9 17 20 9 33 16 14 20 -51z m-27 -69 c0 -5 -2 -10 -4 -10 -3 0 -8
5 -11 10 -3 6 -1 10 4 10 6 0 11 -4 11 -10z m-40 -10 c0 -5 -4 -10 -10 -10 -5
0 -10 5 -10 10 0 6 5 10 10 10 6 0 10 -4 10 -10z m57 -12 c-3 -8 -6 -5 -6 6
-1 11 2 17 5 13 3 -3 4 -12 1 -19z m-40 -10 c-3 -8 -6 -5 -6 6 -1 11 2 17 5
13 3 -3 4 -12 1 -19z m-37 -8 c0 -5 -4 -10 -10 -10 -5 0 -10 5 -10 10 0 6 5
10 10 10 6 0 10 -4 10 -10z m-3 -42 c-3 -8 -6 -5 -6 6 -1 11 2 17 5 13 3 -3 4
-12 1 -19z m106 -3 c-21 -15 -34 -10 -27 9 3 8 14 12 25 9 18 -5 18 -6 2 -18z
m-56 -7 c-3 -8 -6 -5 -6 6 -1 11 2 17 5 13 3 -3 4 -12 1 -19z m7423 -68 c0 -5
-4 -10 -10 -10 -5 0 -10 5 -10 10 0 6 5 10 10 10 6 0 10 -4 10 -10z m-36 -219
c4 -5 -3 -7 -14 -4 -23 6 -26 13 -6 13 8 0 17 -4 20 -9z m-7480 -376 c3 -8 1
-15 -4 -15 -6 0 -10 7 -10 15 0 8 2 15 4 15 2 0 6 -7 10 -15z m136 -23 c0 -15
-2 -15 -10 -2 -13 20 -13 33 0 25 6 -3 10 -14 10 -23z m7363 -73 c-4 -13 -9
-17 -15 -11 -11 11 -3 32 12 32 4 0 6 -9 3 -21z m-23 -37 c0 -4 -9 -8 -19 -8
-11 0 -17 4 -15 8 3 4 12 8 20 8 8 0 14 -4 14 -8z m-60 -42 c0 -5 -2 -10 -4
-10 -3 0 -8 5 -11 10 -3 6 -1 10 4 10 6 0 11 -4 11 -10z m-7390 -15 c0 -8 -4
-15 -10 -15 -5 0 -7 7 -4 15 4 8 8 15 10 15 2 0 4 -7 4 -15z m7444 -21 c3 -8
2 -12 -4 -9 -6 3 -10 10 -10 16 0 14 7 11 14 -7z m-7287 -36 c-3 -8 -6 -5 -6
6 -1 11 2 17 5 13 3 -3 4 -12 1 -19z m7413 13 c0 -5 -7 -12 -16 -15 -14 -5
-15 -4 -4 9 14 17 20 19 20 6z m-120 -81 c0 -5 -5 -10 -11 -10 -5 0 -7 5 -4
10 3 6 8 10 11 10 2 0 4 -4 4 -10z m-60 -50 c11 -7 12 -10 2 -10 -7 0 -20 -7
-28 -15 -21 -21 -34 -19 -34 6 0 11 5 17 10 14 6 -3 10 -1 10 4 0 14 20 14 40
1z m-7328 -45 c3 -13 1 -22 -3 -19 -9 5 -13 44 -5 44 2 0 6 -11 8 -25z m78 -9
c0 -11 -19 -15 -25 -6 -3 5 1 10 9 10 9 0 16 -2 16 -4z m7470 -36 c0 -5 -2
-10 -4 -10 -3 0 -8 5 -11 10 -3 6 -1 10 4 10 6 0 11 -4 11 -10z m-134 -77
c-10 -10 -19 5 -10 18 6 11 8 11 12 0 2 -7 1 -15 -2 -18z m178 -8 c-10 -8 -32
-18 -48 -22 -27 -6 -27 -7 -8 -17 19 -10 19 -13 5 -31 l-15 -20 4 20 c2 11 -3
25 -11 31 -19 15 -5 34 25 34 14 0 32 7 41 15 8 9 18 13 21 10 3 -3 -3 -12
-14 -20z m-3474 -271 c0 -8 -4 -12 -10 -9 -5 3 -10 13 -10 21 0 8 5 12 10 9 6
-3 10 -13 10 -21z m831 -6 c11 -21 11 -22 -4 -9 -10 7 -17 17 -17 22 0 15 9
10 21 -13z m59 -2 c0 -11 -19 -15 -25 -6 -3 5 1 10 9 10 9 0 16 -2 16 -4z
m-4741 -92 c12 -28 1 -54 -24 -54 -18 0 -28 49 -14 66 16 20 24 18 38 -12z
m3337 -61 c3 -44 3 -46 -11 -29 -17 22 -20 9 -6 -27 5 -13 6 -29 2 -36 -5 -8
-10 5 -14 31 -3 24 -2 47 4 53 5 5 9 22 9 39 0 46 12 22 16 -31z m29 17 c3 -5
1 -10 -4 -10 -6 0 -11 5 -11 10 0 6 2 10 4 10 3 0 8 -4 11 -10z m-285 -20 c0
-5 -2 -10 -4 -10 -3 0 -8 5 -11 10 -3 6 -1 10 4 10 6 0 11 -4 11 -10z m294
-26 c3 -8 2 -12 -4 -9 -6 3 -10 10 -10 16 0 14 7 11 14 -7z m-16 -59 c-3 -3
-9 2 -12 12 -6 14 -5 15 5 6 7 -7 10 -15 7 -18z m112 4 c0 -5 -4 -9 -10 -9 -5
0 -10 7 -10 16 0 8 5 12 10 9 6 -3 10 -10 10 -16z m-266 -5 c3 -8 2 -12 -4 -9
-6 3 -10 10 -10 16 0 14 7 11 14 -7z m204 -10 c0 -17 -4 -22 -11 -15 -5 5 -7
17 -4 25 9 23 15 19 15 -10z m-88 -55 c0 -30 -17 -22 -22 11 -4 24 -2 27 9 19
7 -7 13 -20 13 -30z m50 0 c0 -11 -30 -64 -31 -54 -4 43 -7 63 -14 79 -8 19
-8 19 18 0 14 -10 27 -22 27 -25z m57 -21 c-3 -8 -6 -5 -6 6 -1 11 2 17 5 13
3 -3 4 -12 1 -19z m3798 -7 c-6 -5 -25 10 -25 20 0 5 6 4 14 -3 8 -7 12 -15
11 -17z m-3407 -2 c3 -11 2 -11 -7 1 -9 12 -11 9 -11 -15 0 -21 -3 -26 -9 -16
-11 17 -2 53 12 48 6 -2 12 -10 15 -18z m-328 -14 c0 -9 -6 -12 -15 -9 -8 4
-12 10 -9 15 8 14 24 10 24 -6z m-101 -52 c1 -13 -3 -23 -9 -23 -5 0 -10 19
-9 43 0 32 2 37 9 22 5 -11 9 -30 9 -42z m31 42 c0 -8 -4 -15 -10 -15 -5 0 -7
7 -4 15 4 8 8 15 10 15 2 0 4 -7 4 -15z m3782 -37 c-8 -8 -9 -4 -5 13 4 13 8
18 11 10 2 -7 -1 -18 -6 -23z m38 6 c0 -8 -4 -12 -10 -9 -5 3 -10 10 -10 16 0
5 5 9 10 9 6 0 10 -7 10 -16z m-4083 -16 c-3 -8 -6 -5 -6 6 -1 11 2 17 5 13 3
-3 4 -12 1 -19z m-1521 0 c4 -7 4 -10 -1 -6 -4 4 -15 2 -24 -5 -14 -11 -14
-10 -2 6 16 20 18 21 27 5z m308 0 c-5 -8 -2 -9 9 -5 13 5 17 1 16 -16 0 -12
-3 -16 -6 -9 -2 6 -14 12 -25 12 -17 0 -18 3 -8 15 15 18 24 20 14 3z m1556
-8 c6 -12 10 -33 8 -48 -4 -28 -5 -26 -26 36 -11 35 1 44 18 12z m67 -20 c12
0 13 -3 5 -13 -12 -14 -18 -62 -11 -86 2 -7 -1 -15 -6 -17 -6 -2 -11 4 -11 13
-1 10 -5 27 -9 37 -5 12 -5 17 2 13 6 -4 9 12 7 46 -1 29 0 42 2 30 3 -13 12
-23 21 -23z m-2013 21 c3 -5 -1 -11 -9 -14 -9 -4 -12 -1 -8 9 6 16 10 17 17 5z
m246 -1 c0 -5 -2 -10 -4 -10 -3 0 -8 5 -11 10 -3 6 -1 10 4 10 6 0 11 -4 11
-10z m3440 -54 c0 -12 -5 -7 -19 24 -11 24 -11 24 3 6 9 -11 16 -24 16 -30z
m-1501 -26 c5 -14 10 -19 10 -12 1 7 -4 23 -10 34 -8 15 -8 23 1 32 6 6 11 7
10 1 -6 -28 0 -38 15 -25 11 9 15 9 15 1 0 -7 5 -9 10 -6 6 3 10 1 10 -5 0 -6
5 -8 10 -5 13 8 40 -12 40 -29 0 -7 -4 -6 -9 2 -13 22 -23 -15 -10 -41 9 -19
7 -18 -10 3 -11 14 -23 21 -28 17 -4 -5 -1 -12 7 -17 13 -8 13 -10 1 -10 -8 0
-23 7 -33 17 -17 15 -18 15 -18 -9 0 -27 21 -43 37 -27 5 5 9 1 10 -10 1 -11
-4 -25 -12 -31 -10 -8 -18 -3 -33 22 -11 18 -20 40 -19 48 1 8 -2 15 -6 15 -9
0 -47 71 -47 87 0 17 49 -27 59 -52z m-1831 11 c1 -22 -2 -42 -7 -45 -7 -4 -7
8 -2 77 1 4 3 7 4 7 2 0 4 -18 5 -39z m52 19 c0 -5 -4 -10 -9 -10 -5 0 -7 -10
-5 -22 4 -21 4 -22 -5 -3 -14 30 -13 45 4 45 8 0 15 -4 15 -10z m605 -38 c3
-22 0 -30 -9 -26 -6 2 -13 21 -13 40 -1 43 16 32 22 -14z m1096 36 c1 -7 1
-16 0 -20 0 -4 4 -19 9 -33 7 -20 6 -25 -5 -25 -9 0 -15 10 -16 23 0 12 -2 32
-5 45 -2 12 1 22 6 22 6 0 11 -6 11 -12z m1448 -52 c6 -4 11 -2 11 4 0 6 5 8
12 4 8 -5 9 -1 5 12 -7 18 -7 18 8 0 15 -19 15 -19 15 3 0 31 17 17 22 -18 2
-17 1 -28 -4 -25 -11 7 -10 -2 7 -43 18 -43 18 -43 2 -43 -6 0 -23 20 -36 45
-23 44 -41 58 -41 32 0 -7 5 -18 12 -25 7 -7 8 -12 4 -12 -5 0 -15 8 -22 18
-11 15 -12 13 -11 -18 1 -24 -2 -34 -11 -32 -9 2 -9 -6 3 -30 12 -24 12 -28 2
-15 -19 23 -25 22 -30 -5 -2 -13 -4 11 -3 54 1 44 7 82 14 91 8 9 10 27 7 44
-6 28 -6 28 9 -3 7 -18 19 -35 25 -38z m190 24 c0 -10 -3 -8 -9 5 -12 27 -12
43 0 25 5 -8 9 -22 9 -30z m-4289 9 c0 -5 -4 -9 -8 -9 -5 0 -9 7 -9 15 0 8 4
12 9 9 4 -3 8 -9 8 -15z m1580 0 c0 -6 -4 -7 -10 -4 -5 3 -10 11 -10 16 0 6 5
7 10 4 6 -3 10 -11 10 -16z m1030 -19 c0 -13 -1 -13 -10 0 -5 8 -10 22 -10 30
0 13 1 13 10 0 5 -8 10 -22 10 -30z m554 25 c3 -9 0 -15 -9 -15 -8 0 -15 7
-15 15 0 8 4 15 9 15 5 0 11 -7 15 -15z m1169 -2 c-4 -11 -3 -14 5 -9 7 4 12
4 12 -1 0 -4 3 -19 5 -33 5 -22 4 -22 -4 -5 -8 17 -10 18 -10 3 -1 -10 -5 -18
-11 -18 -11 0 -13 12 -11 45 2 17 0 17 -8 5 -9 -13 -11 -13 -11 2 0 15 12 25
32 27 4 1 4 -6 1 -16z m51 1 c3 -8 2 -12 -4 -9 -6 3 -10 10 -10 16 0 14 7 11
14 -7z m-3515 -7 c11 -14 6 -27 -10 -27 -5 0 -13 9 -19 20 -8 16 -8 20 3 20 8
0 20 -6 26 -13z m2275 -52 c5 -19 4 -26 -2 -20 -5 6 -12 26 -16 45 -7 41 8 21
18 -25z m-1236 14 c-3 -8 -7 -3 -11 10 -4 17 -3 21 5 13 5 -5 8 -16 6 -23z
m1042 20 c0 -5 -4 -7 -10 -4 -5 3 -10 1 -10 -5 0 -6 -4 -8 -10 -5 -17 10 -11
25 10 25 11 0 20 -5 20 -11z m25 -28 c-9 -16 -25 -3 -18 15 4 10 9 12 15 6 6
-6 7 -15 3 -21z m1004 -36 c-1 -15 -4 -13 -14 10 -19 40 -18 67 0 35 8 -14 14
-34 14 -45z m-2929 39 c0 -2 -7 -4 -15 -4 -8 0 -15 4 -15 10 0 5 7 7 15 4 8
-4 15 -8 15 -10z m1050 5 c0 -5 4 -7 10 -4 6 3 7 -1 4 -9 -8 -21 -11 -20 -24
4 -7 14 -7 20 0 20 5 0 10 -5 10 -11z m840 -50 c0 -13 -16 -11 -28 4 -5 6 -13
23 -17 36 -7 24 -7 24 19 -4 14 -15 26 -32 26 -36z m460 30 c0 -28 -15 -23
-18 7 -1 14 2 23 8 19 6 -3 10 -15 10 -26z m634 -28 c-2 -65 -11 -92 -24 -71
-4 7 -5 31 -2 53 4 29 2 38 -6 33 -8 -5 -12 0 -12 13 0 14 5 19 15 15 8 -4 15
-1 15 5 0 6 4 11 8 11 4 0 7 -27 6 -59z m272 42 c15 -21 18 -49 5 -57 -5 -3
-8 2 -7 12 0 9 -3 16 -9 15 -5 -1 -11 10 -11 23 -2 28 4 30 22 7z m340 -20 c2
-21 1 -24 -6 -13 -11 17 -14 57 -3 47 3 -4 8 -19 9 -34z m-2976 -29 c-11 -18
-11 -17 -7 3 3 15 1 20 -9 16 -10 -3 -14 2 -14 18 l0 23 21 -21 c18 -17 19
-24 9 -39z m1197 34 c-3 -8 -6 -5 -6 6 -1 11 2 17 5 13 3 -3 4 -12 1 -19z
m-2026 -11 c-10 -9 -11 -8 -5 6 3 10 9 15 12 12 3 -3 0 -11 -7 -18z m2815 -22
c-6 -17 -26 -12 -26 6 0 6 5 7 12 3 8 -5 9 -1 4 12 -6 15 -4 16 5 7 6 -6 9
-19 5 -28z m2554 10 c0 -8 -4 -17 -10 -20 -6 -4 -10 5 -10 20 0 15 4 24 10 20
6 -3 10 -12 10 -20z m-6264 -13 c-2 -8 -10 -16 -19 -18 -20 -3 -23 12 -4 20 6
3 3 5 -8 5 -30 -2 -37 0 -31 9 9 16 64 1 62 -16z m841 6 c-3 -8 -6 -5 -6 6 -1
11 2 17 5 13 3 -3 4 -12 1 -19z m565 4 c-7 -2 -10 -8 -6 -13 3 -5 -2 -9 -10
-9 -9 0 -16 5 -16 10 0 6 5 10 11 10 5 0 7 4 4 10 -4 6 1 7 11 3 11 -4 13 -8
6 -11z m2417 -22 c-16 -10 -30 6 -22 26 4 11 8 10 21 -2 13 -13 13 -17 1 -24z
m-4439 26 c0 -3 -4 -8 -10 -11 -5 -3 -10 -1 -10 4 0 6 5 11 10 11 6 0 10 -2
10 -4z m1800 0 c0 -3 -4 -8 -10 -11 -5 -3 -10 -1 -10 4 0 6 5 11 10 11 6 0 10
-2 10 -4z m96 -11 c-4 -24 -16 -30 -16 -7 0 12 4 22 9 22 5 0 8 -7 7 -15z m51
-7 c-3 -8 -6 -5 -6 6 -1 11 2 17 5 13 3 -3 4 -12 1 -19z m1953 2 c0 -22 15
-27 23 -7 3 6 6 -2 6 -20 1 -33 -14 -53 -22 -31 -2 7 -8 10 -12 6 -4 -4 -2
-21 5 -37 6 -17 10 -36 7 -43 -4 -8 -6 -7 -6 5 -1 9 -5 17 -11 17 -5 0 -7 -7
-4 -15 4 -8 2 -15 -4 -15 -5 0 -12 9 -15 20 -3 11 -1 18 4 14 5 -3 9 18 9 45
0 41 -3 51 -17 52 -17 1 -17 2 0 6 9 2 17 9 17 14 0 5 5 9 10 9 6 0 10 -9 10
-20z m378 -5 c-3 -3 -9 2 -12 12 -6 14 -5 15 5 6 7 -7 10 -15 7 -18z m300 0
c-3 -3 -9 2 -12 12 -6 14 -5 15 5 6 7 -7 10 -15 7 -18z m309 3 c-3 -8 -6 -5
-6 6 -1 11 2 17 5 13 3 -3 4 -12 1 -19z m124 -5 c-12 -20 -14 -14 -5 12 4 9 9
14 11 11 3 -2 0 -13 -6 -23z m-4331 2 c0 -9 -9 -15 -22 -15 -21 0 -21 0 -2 15
24 18 24 18 24 0z m2647 -7 c-3 -8 -6 -5 -6 6 -1 11 2 17 5 13 3 -3 4 -12 1
-19z m1221 -32 c-12 -21 -12 -21 -18 4 -10 37 0 58 16 35 10 -14 11 -23 2 -39z
m82 33 c0 -5 -4 -9 -10 -9 -5 0 -10 7 -10 16 0 8 5 12 10 9 6 -3 10 -10 10
-16z m-661 -39 c0 -9 -4 -8 -9 5 -5 11 -9 27 -9 35 0 9 4 8 9 -5 5 -11 9 -27
9 -35z m948 28 c-3 -8 -6 -5 -6 6 -1 11 2 17 5 13 3 -3 4 -12 1 -19z m576 7
c-3 -9 -8 -14 -10 -11 -3 3 -2 9 2 15 9 16 15 13 8 -4z m-4243 -5 c0 -5 -5
-10 -11 -10 -5 0 -7 5 -4 10 3 6 8 10 11 10 2 0 4 -4 4 -10z m2354 -5 c3 -8 1
-15 -4 -15 -6 0 -10 7 -10 15 0 8 2 15 4 15 2 0 6 -7 10 -15z m242 -6 c3 -5 1
-9 -5 -9 -5 0 -11 -7 -13 -16 -2 -10 -7 -6 -14 14 -10 27 -9 29 8 25 10 -3 21
-9 24 -14z m944 11 c0 -5 -4 -10 -10 -10 -5 0 -10 5 -10 10 0 6 5 10 10 10 6
0 10 -4 10 -10z m583 -20 c3 -11 1 -18 -3 -15 -5 3 -11 -1 -13 -7 -3 -7 -6 2
-6 20 -1 35 13 36 22 2z m-1354 -34 c13 -48 9 -53 -27 -40 -29 10 -32 23 -13
68 14 34 25 27 40 -28z m2388 22 c-3 -8 -6 -5 -6 6 -1 11 2 17 5 13 3 -3 4
-12 1 -19z m-2087 -3 c7 -9 8 -15 2 -15 -5 0 -12 7 -16 15 -3 8 -4 15 -2 15 2
0 9 -7 16 -15z m-4459 -17 c-45 -12 -65 -3 -21 9 19 6 39 8 45 5 5 -3 -6 -10
-24 -14z m4985 11 c4 -8 9 -7 15 2 6 11 9 10 14 -3 8 -21 3 -52 -9 -51 -13 2
-50 63 -38 63 6 0 14 -5 18 -11z m628 -4 c-4 -8 -10 -15 -15 -15 -5 0 -9 7 -9
15 0 8 7 15 15 15 9 0 12 -6 9 -15z m-5843 -28 c-10 -9 -11 -8 -5 6 3 10 9 15
12 12 3 -3 0 -11 -7 -18z m4159 -12 c-7 -14 -20 -25 -29 -24 -11 0 -12 2 -3 6
6 2 12 13 12 23 0 10 6 20 13 23 19 7 21 -1 7 -28z m610 -20 c0 -5 -5 -3 -10
5 -8 12 -10 12 -11 -5 -1 -17 -2 -16 -9 5 -14 45 -11 56 10 30 11 -14 20 -29
20 -35z m-4590 25 c0 -5 -7 -7 -15 -4 -8 4 -12 10 -9 15 6 11 24 2 24 -11z
m4006 -22 c-19 -26 -20 -20 -5 19 6 15 13 22 16 16 2 -7 -3 -23 -11 -35z m114
26 c0 -8 -5 -12 -10 -9 -6 4 -8 11 -5 16 9 14 15 11 15 -7z m325 6 c3 -5 1
-10 -4 -10 -6 0 -11 5 -11 10 0 6 2 10 4 10 3 0 8 -4 11 -10z m1688 -14 c8 2
13 -7 14 -27 l2 -32 -24 33 c-14 19 -25 39 -25 44 0 6 5 3 11 -6 5 -9 15 -15
22 -12z m577 -8 c0 -5 -4 -8 -10 -8 -5 0 -10 10 -10 23 0 18 2 19 10 7 5 -8
10 -18 10 -22z m-6855 2 c-3 -5 -12 -10 -18 -10 -7 0 -6 4 3 10 19 12 23 12
15 0z m5039 -6 c9 -22 8 -24 -9 -18 -8 4 -15 12 -15 20 0 19 16 18 24 -2z
m-411 -14 c3 -11 0 -23 -5 -27 -7 -3 -8 -1 -4 5 4 7 2 12 -3 12 -6 0 -11 7
-11 15 0 22 17 18 23 -5z m2047 5 c0 -8 -2 -15 -4 -15 -2 0 -6 7 -10 15 -3 8
-1 15 4 15 6 0 10 -7 10 -15z m224 -13 c3 -5 -1 -9 -9 -9 -8 0 -12 4 -9 9 3 4
7 8 9 8 2 0 6 -4 9 -8z m-6664 -12 c0 -5 -5 -10 -11 -10 -5 0 -7 5 -4 10 3 6
8 10 11 10 2 0 4 -4 4 -10z m-221 -41 c1 -3 -6 -6 -14 -6 -17 0 -18 7 -8 33 6
16 7 16 14 -2 4 -10 8 -22 8 -25z"/>
<path d="M5640 5890 c0 -5 5 -10 10 -10 6 0 10 5 10 10 0 6 -4 10 -10 10 -5 0
-10 -4 -10 -10z"/>
<path d="M5750 5860 c0 -11 4 -20 8 -20 4 0 8 9 9 20 1 11 -2 20 -8 20 -5 0
-9 -9 -9 -20z"/>
<path d="M5840 5841 c0 -5 -8 -11 -17 -13 -15 -3 -15 -4 1 -20 20 -21 41 -24
29 -5 -4 6 -6 20 -5 30 2 9 1 17 -2 17 -3 0 -6 -4 -6 -9z"/>
<path d="M5725 5821 c3 -5 0 -11 -7 -13 -8 -3 -6 -7 4 -11 9 -3 19 0 22 8 2 7
-2 16 -10 19 -8 3 -13 2 -9 -3z"/>
<path d="M5936 5805 c4 -8 10 -15 15 -15 4 0 6 7 3 15 -4 8 -10 15 -15 15 -4
0 -6 -7 -3 -15z"/>
<path d="M5820 5780 c0 -6 10 -25 22 -43 13 -18 24 -34 25 -36 1 -2 9 2 17 8
8 7 19 10 24 7 5 -3 8 7 7 22 -3 39 -4 42 -16 42 -6 0 -9 -6 -6 -14 4 -9 -3
-13 -22 -12 -17 1 -28 6 -27 15 1 8 -5 16 -11 18 -7 3 -13 0 -13 -7z"/>
<path d="M1802 5710 c0 -14 2 -19 5 -12 2 6 2 18 0 25 -3 6 -5 1 -5 -13z"/>
<path d="M1845 5720 c3 -5 8 -10 11 -10 2 0 4 5 4 10 0 6 -5 10 -11 10 -5 0
-7 -4 -4 -10z"/>
<path d="M4457 5710 c-19 -22 -21 -30 -9 -30 5 0 14 11 20 25 14 30 12 31 -11
5z"/>
<path d="M1818 5696 c-3 -14 -2 -26 2 -26 13 0 21 33 12 42 -6 6 -11 -1 -14
-16z"/>
<path d="M2390 5698 c0 -19 2 -20 10 -8 13 19 13 30 0 30 -5 0 -10 -10 -10
-22z"/>
<path d="M5151 5696 c-8 -10 -7 -17 4 -26 10 -9 15 -9 15 -1 0 6 4 11 10 11 5
0 7 -8 3 -17 -5 -15 -3 -16 7 -6 12 11 10 16 -7 33 -17 16 -23 17 -32 6z"/>
<path d="M1741 5693 c0 -5 4 -17 9 -28 8 -18 9 -17 9 8 1 15 -3 27 -9 27 -5 0
-10 -3 -9 -7z"/>
<path d="M2441 5674 c0 -11 3 -14 6 -6 3 7 2 16 -1 19 -3 4 -6 -2 -5 -13z"/>
<path d="M2811 5674 c0 -11 3 -14 6 -6 3 7 2 16 -1 19 -3 4 -6 -2 -5 -13z"/>
<path d="M4210 5678 c0 -4 6 -8 14 -8 8 0 17 4 20 8 2 4 -4 8 -15 8 -10 0 -19
-4 -19 -8z"/>
<path d="M4600 5680 c0 -5 5 -10 11 -10 5 0 7 5 4 10 -3 6 -8 10 -11 10 -2 0
-4 -4 -4 -10z"/>
<path d="M4716 5673 c-6 -14 -5 -15 5 -6 7 7 10 15 7 18 -3 3 -9 -2 -12 -12z"/>
<path d="M4935 5677 c-10 -8 -15 -19 -11 -25 3 -5 0 -13 -6 -15 -9 -4 -8 -6 2
-6 21 -1 54 39 43 50 -5 5 -17 3 -28 -4z"/>
<path d="M6025 5680 c3 -5 8 -10 11 -10 2 0 4 5 4 10 0 6 -5 10 -11 10 -5 0
-7 -4 -4 -10z"/>
<path d="M4740 5665 c0 -8 5 -15 10 -15 6 0 10 7 10 15 0 8 -4 15 -10 15 -5 0
-10 -7 -10 -15z"/>
<path d="M4801 5673 c-2 -23 11 -42 25 -36 18 7 18 23 0 23 -8 0 -17 6 -19 13
-4 8 -6 8 -6 0z"/>
<path d="M4180 5663 c0 -14 27 -43 41 -43 5 0 9 5 9 10 0 6 -5 10 -11 10 -7 0
-18 8 -25 18 -7 9 -14 12 -14 5z"/>
<path d="M1800 5650 c0 -5 5 -10 11 -10 5 0 7 5 4 10 -3 6 -8 10 -11 10 -2 0
-4 -4 -4 -10z"/>
<path d="M2887 5643 c-12 -11 -8 -33 6 -33 7 0 13 9 13 20 0 20 -7 25 -19 13z"/>
<path d="M3590 5640 c0 -5 5 -10 11 -10 5 0 7 5 4 10 -3 6 -8 10 -11 10 -2 0
-4 -4 -4 -10z"/>
<path d="M2525 5630 c-3 -5 -1 -10 4 -10 6 0 11 5 11 10 0 6 -2 10 -4 10 -3 0
-8 -4 -11 -10z"/>
<path d="M4281 5614 c0 -11 3 -14 6 -6 3 7 2 16 -1 19 -3 4 -6 -2 -5 -13z"/>
<path d="M2405 5600 c-5 -8 10 -50 18 -50 2 0 4 14 5 30 2 29 -10 40 -23 20z"/>
<path d="M4930 5603 c0 -4 5 -15 10 -23 8 -13 10 -13 10 2 0 9 -4 20 -10 23
-5 3 -10 3 -10 -2z"/>
<path d="M8610 5604 c0 -9 41 -44 51 -44 5 0 6 7 3 15 -4 8 -12 15 -20 15 -8
0 -14 5 -14 10 0 6 -4 10 -10 10 -5 0 -10 -3 -10 -6z"/>
<path d="M4470 5585 c0 -8 4 -15 10 -15 5 0 7 7 4 15 -4 8 -8 15 -10 15 -2 0
-4 -7 -4 -15z"/>
<path d="M4655 5590 c3 -5 8 -10 11 -10 2 0 4 5 4 10 0 6 -5 10 -11 10 -5 0
-7 -4 -4 -10z"/>
<path d="M2630 5580 c0 -5 5 -10 11 -10 5 0 7 5 4 10 -3 6 -8 10 -11 10 -2 0
-4 -4 -4 -10z"/>
<path d="M2570 5559 c0 -5 10 -9 22 -9 12 0 18 3 14 7 -10 11 -36 12 -36 2z"/>
<path d="M3770 5550 c0 -5 5 -10 11 -10 5 0 7 5 4 10 -3 6 -8 10 -11 10 -2 0
-4 -4 -4 -10z"/>
<path d="M4047 5553 c-4 -3 -7 -11 -7 -17 0 -6 5 -5 12 2 6 6 9 14 7 17 -3 3
-9 2 -12 -2z"/>
<path d="M2420 5508 c0 -5 5 -6 12 -2 7 5 9 1 6 -13 -4 -16 -1 -19 19 -15 16
3 21 7 13 12 -7 4 -10 12 -6 18 3 5 -5 10 -19 10 -14 0 -25 -5 -25 -10z"/>
<path d="M8890 5484 c0 -10 -6 -14 -15 -10 -10 3 -15 -1 -15 -13 0 -14 5 -18
20 -14 18 5 21 10 19 30 0 4 8 10 18 14 16 7 15 8 -4 8 -15 1 -23 -5 -23 -15z"/>
<path d="M8800 5369 c0 -5 5 -7 10 -4 6 3 10 8 10 11 0 2 -4 4 -10 4 -5 0 -10
-5 -10 -11z"/>
<path d="M8804 5195 c-10 -8 -14 -15 -8 -15 5 0 19 7 30 15 10 8 14 15 8 15
-5 0 -19 -7 -30 -15z"/>
<path d="M1280 4830 c0 -5 5 -10 11 -10 5 0 7 5 4 10 -3 6 -8 10 -11 10 -2 0
-4 -4 -4 -10z"/>
<path d="M9072 4580 c0 -14 2 -19 5 -12 2 6 2 18 0 25 -3 6 -5 1 -5 -13z"/>
<path d="M9046 4112 c-2 -4 -1 -14 3 -21 6 -9 10 -7 14 8 5 20 -7 29 -17 13z"/>
<path d="M1310 3970 c0 -11 2 -20 4 -20 2 0 6 9 9 20 3 11 1 20 -4 20 -5 0 -9
-9 -9 -20z"/>
<path d="M9133 3963 c-22 -8 -14 -33 10 -33 16 0 18 3 8 9 -7 5 -10 14 -7 20
8 12 7 12 -11 4z"/>
<path d="M9015 3801 c-3 -5 -1 -12 5 -16 5 -3 10 1 10 9 0 18 -6 21 -15 7z"/>
<path d="M9100 3765 c0 -8 7 -11 20 -8 11 3 20 8 20 12 0 4 -9 7 -20 8 -11 1
-20 -4 -20 -12z"/>
<path d="M9042 3732 c-11 -25 -11 -25 4 -10 9 9 15 21 13 27 -2 6 -10 -2 -17
-17z"/>
<path d="M1405 3720 c3 -5 8 -10 11 -10 2 0 4 5 4 10 0 6 -5 10 -11 10 -5 0
-7 -4 -4 -10z"/>
<path d="M9028 3663 c7 -3 16 -2 19 1 4 3 -2 6 -13 5 -11 0 -14 -3 -6 -6z"/>
<path d="M9055 3640 c3 -5 8 -10 11 -10 2 0 4 5 4 10 0 6 -5 10 -11 10 -5 0
-7 -4 -4 -10z"/>
<path d="M9124 3636 c-3 -9 -4 -22 -1 -30 3 -7 0 -19 -6 -25 -8 -8 -7 -11 6
-11 9 0 17 -4 17 -10 0 -5 4 -10 8 -10 5 0 8 16 8 35 -1 19 -5 35 -9 35 -5 0
-6 4 -2 9 3 5 1 12 -5 16 -6 3 -13 -1 -16 -9z"/>
<path d="M9080 3631 c0 -6 5 -13 10 -16 6 -3 10 1 10 9 0 9 -4 16 -10 16 -5 0
-10 -4 -10 -9z"/>
<path d="M1515 3600 c-3 -5 -1 -10 4 -10 6 0 11 5 11 10 0 6 -2 10 -4 10 -3 0
-8 -4 -11 -10z"/>
<path d="M9030 3603 c0 -3 7 -11 15 -19 13 -14 15 -13 15 4 0 10 -7 19 -15 19
-8 0 -15 -2 -15 -4z"/>
<path d="M1527 3559 c3 -10 9 -16 14 -13 13 8 11 21 -5 27 -10 4 -12 0 -9 -14z"/>
<path d="M9467 3555 c3 -8 9 -12 14 -9 12 7 11 11 -5 17 -10 4 -13 1 -9 -8z"/>
<path d="M8958 3553 c-10 -2 -18 -8 -18 -13 0 -5 8 -14 18 -19 14 -7 17 -5 17
15 0 13 0 23 0 23 0 -1 -8 -3 -17 -6z"/>
<path d="M9090 3530 c0 -5 4 -10 9 -10 6 0 13 5 16 10 3 6 -1 10 -9 10 -9 0
-16 -4 -16 -10z"/>
<path d="M9500 3515 c8 -11 15 -21 16 -23 1 -2 5 5 8 15 4 9 4 14 0 10 -4 -4
-14 -1 -23 6 -14 11 -15 10 -1 -8z"/>
<path d="M9397 3493 c-4 -3 -7 -11 -7 -17 0 -6 5 -5 12 2 6 6 9 14 7 17 -3 3
-9 2 -12 -2z"/>
<path d="M9426 3474 c-7 -19 -8 -59 -1 -53 2 3 6 14 8 25 1 10 6 25 10 32 5 6
4 12 -1 12 -6 0 -13 -7 -16 -16z"/>
<path d="M9122 3441 c0 -24 3 -28 19 -24 23 6 24 16 3 37 -20 21 -21 21 -22
-13z"/>
<path d="M9452 3440 c0 -14 2 -19 5 -12 2 6 2 18 0 25 -3 6 -5 1 -5 -13z"/>
<path d="M9495 3445 c4 -11 8 -26 8 -34 0 -10 4 -8 14 5 16 22 17 38 2 28 -6
-3 -16 0 -21 7 -7 10 -8 9 -3 -6z"/>
<path d="M9100 3439 c0 -5 5 -7 10 -4 6 3 10 8 10 11 0 2 -4 4 -10 4 -5 0 -10
-5 -10 -11z"/>
<path d="M9395 3440 c-3 -5 -1 -10 4 -10 6 0 11 5 11 10 0 6 -2 10 -4 10 -3 0
-8 -4 -11 -10z"/>
<path d="M9017 3407 c-3 -7 -2 -19 3 -26 5 -10 8 -9 13 2 3 7 2 19 -3 26 -5
10 -8 9 -13 -2z"/>
<path d="M9395 3319 c-9 -28 -2 -33 13 -9 6 11 8 21 3 25 -5 3 -13 -4 -16 -16z"/>
<path d="M1487 3285 c-4 -8 -2 -17 3 -20 6 -4 10 3 10 14 0 25 -6 27 -13 6z"/>
<path d="M1548 3293 c-19 -5 -24 -18 -10 -27 4 -2 13 4 20 15 7 10 11 18 10
18 -2 -1 -11 -3 -20 -6z"/>
<path d="M1442 3277 c-6 -7 -7 -19 -3 -26 6 -9 10 -6 14 10 8 28 3 34 -11 16z"/>
<path d="M9118 3283 c7 -3 16 -2 19 1 4 3 -2 6 -13 5 -11 0 -14 -3 -6 -6z"/>
<path d="M9010 3270 c0 -5 5 -10 10 -10 6 0 10 5 10 10 0 6 -4 10 -10 10 -5 0
-10 -4 -10 -10z"/>
<path d="M9100 3255 c0 -8 7 -11 20 -8 11 3 20 8 20 12 0 4 -9 7 -20 8 -11 1
-20 -4 -20 -12z"/>
<path d="M1465 3240 c3 -5 8 -10 11 -10 2 0 4 5 4 10 0 6 -5 10 -11 10 -5 0
-7 -4 -4 -10z"/>
<path d="M9040 3236 c0 -9 -5 -16 -11 -16 -5 0 -8 -4 -4 -10 8 -13 35 -1 35
15 0 8 -4 17 -10 20 -5 3 -10 -1 -10 -9z"/>
<path d="M9300 3220 c0 -5 5 -10 10 -10 6 0 10 5 10 10 0 6 -4 10 -10 10 -5 0
-10 -4 -10 -10z"/>
<path d="M9330 3221 c0 -5 7 -11 15 -15 8 -3 15 -10 15 -16 0 -6 -4 -8 -10 -5
-5 3 -10 2 -10 -4 0 -30 34 -18 42 15 4 17 2 20 -13 17 -11 -3 -19 0 -19 6 0
6 -4 11 -10 11 -5 0 -10 -4 -10 -9z"/>
<path d="M9456 3207 c3 -10 9 -15 12 -12 3 3 0 11 -7 18 -10 9 -11 8 -5 -6z"/>
<path d="M1565 3180 c3 -5 8 -10 11 -10 2 0 4 5 4 10 0 6 -5 10 -11 10 -5 0
-7 -4 -4 -10z"/>
<path d="M9516 3164 c-4 -9 -4 -19 -1 -22 3 -3 5 0 5 7 0 7 5 9 10 6 6 -3 10
1 10 9 0 21 -16 20 -24 0z"/>
<path d="M9046 3161 c-4 -7 -5 -15 -2 -18 9 -9 19 4 14 18 -4 11 -6 11 -12 0z"/>
<path d="M9100 3160 c8 -5 20 -10 25 -10 6 0 3 5 -5 10 -8 5 -19 10 -25 10 -5
0 -3 -5 5 -10z"/>
<path d="M9466 3145 c-3 -8 -1 -15 4 -15 6 0 10 7 10 15 0 8 -2 15 -4 15 -2 0
-6 -7 -10 -15z"/>
<path d="M1410 3130 c0 -5 5 -10 10 -10 6 0 10 5 10 10 0 6 -4 10 -10 10 -5 0
-10 -4 -10 -10z"/>
<path d="M8991 3114 c0 -11 3 -14 6 -6 3 7 2 16 -1 19 -3 4 -6 -2 -5 -13z"/>
<path d="M9030 3114 c0 -8 5 -12 10 -9 6 3 10 2 10 -4 0 -5 -5 -13 -11 -17 -8
-4 -7 -9 2 -15 11 -7 12 -12 2 -28 -11 -17 -10 -19 2 -15 24 9 18 104 -6 104
-5 0 -9 -7 -9 -16z"/>
<path d="M9120 3100 c0 -13 11 -13 30 0 12 8 11 10 -7 10 -13 0 -23 -4 -23
-10z"/>
<path d="M9115 3070 c-3 -5 1 -10 10 -10 9 0 13 -4 10 -10 -3 -5 1 -10 10 -10
12 0 15 5 11 16 -3 9 -6 18 -6 20 0 8 -29 4 -35 -6z"/>
<path d="M9090 3020 c0 -13 11 -13 30 0 12 8 11 10 -7 10 -13 0 -23 -4 -23
-10z"/>
<path d="M9033 2999 c-26 -10 -26 -9 -13 -43 11 -31 30 -34 30 -5 0 12 -4 18
-11 13 -7 -4 -10 -1 -7 7 2 7 15 16 29 19 17 4 20 8 9 12 -8 3 -25 2 -37 -3z"/>
<path d="M1400 2979 c0 -5 5 -7 10 -4 6 3 10 8 10 11 0 2 -4 4 -10 4 -5 0 -10
-5 -10 -11z"/>
<path d="M9067 2973 c-12 -11 -8 -23 8 -23 8 0 15 4 15 10 0 5 7 6 17 3 11 -4
14 -3 9 5 -8 13 -39 16 -49 5z"/>
<path d="M9420 2950 c0 -5 5 -10 11 -10 5 0 7 5 4 10 -3 6 -8 10 -11 10 -2 0
-4 -4 -4 -10z"/>
<path d="M1467 2929 c12 -12 25 -20 28 -17 3 3 -7 13 -22 23 l-28 17 22 -23z"/>
<path d="M9100 2942 c0 -4 12 -8 28 -9 23 -1 24 -1 7 7 -26 11 -35 12 -35 2z"/>
<path d="M9498 2918 c9 -9 15 -9 24 0 9 9 7 12 -12 12 -19 0 -21 -3 -12 -12z"/>
<path d="M1487 2888 c6 -7 13 -26 17 -41 4 -15 11 -25 17 -22 6 5 7 11 0 18
-5 7 -9 14 -10 17 0 16 -15 40 -23 40 -7 0 -7 -4 -1 -12z"/>
<path d="M9502 2820 c0 -14 2 -19 5 -12 2 6 2 18 0 25 -3 6 -5 1 -5 -13z"/>
<path d="M9397 2823 c-4 -3 -7 -11 -7 -17 0 -6 5 -5 12 2 6 6 9 14 7 17 -3 3
-9 2 -12 -2z"/>
<path d="M9265 2811 c-3 -5 -2 -12 3 -15 5 -3 9 1 9 9 0 17 -3 19 -12 6z"/>
<path d="M1435 2750 c3 -5 8 -10 11 -10 2 0 4 5 4 10 0 6 -5 10 -11 10 -5 0
-7 -4 -4 -10z"/>
<path d="M9120 2746 c-6 -9 -10 -21 -7 -28 4 -9 6 -7 6 4 1 9 7 18 14 21 6 2
9 7 6 11 -3 4 -12 0 -19 -8z"/>
<path d="M8984 2718 c-7 -22 -7 -22 -15 -3 -6 16 -8 14 -8 -13 -1 -18 3 -31 8
-28 5 3 12 -1 15 -10 6 -16 26 -11 26 7 0 6 -4 8 -9 5 -5 -4 -6 9 -1 29 9 38
-4 49 -16 13z"/>
<path d="M9340 2713 c0 -6 4 -14 9 -17 5 -3 7 -16 4 -29 -4 -21 -4 -21 11 -3
8 10 13 23 10 27 -3 5 0 9 5 9 6 0 11 5 11 11 0 8 -5 7 -16 -2 -13 -10 -17
-10 -25 2 -5 9 -9 10 -9 2z"/>
<path d="M9117 2656 c-4 -10 -1 -13 8 -9 8 3 12 9 9 14 -7 12 -11 11 -17 -5z"/>
<path d="M9158 2650 c-7 -24 -3 -38 8 -28 3 4 4 17 2 30 l-3 23 -7 -25z"/>
<path d="M9187 2644 c-7 -8 17 -34 31 -34 6 0 8 9 5 20 -5 19 -23 26 -36 14z"/>
<path d="M8954 2633 c10 -11 36 -12 36 -2 0 5 -10 9 -22 9 -12 0 -18 -3 -14
-7z"/>
<path d="M9241 2619 c9 -17 13 -19 20 -8 14 22 11 29 -11 29 -18 0 -19 -3 -9
-21z"/>
<path d="M9090 2620 c0 -5 7 -10 16 -10 8 0 12 5 9 10 -3 6 -10 10 -16 10 -5
0 -9 -4 -9 -10z"/>
<path d="M8956 2571 c1 -20 5 -45 9 -56 4 -11 9 -26 11 -32 2 -7 8 -13 14 -13
12 0 9 42 -5 52 -6 5 -5 8 3 8 17 0 15 15 -4 35 -9 8 -14 21 -11 29 3 7 0 13
-6 13 -7 0 -11 -15 -11 -36z"/>
<path d="M8923 2586 c18 -14 18 -15 0 -24 -10 -6 -15 -13 -12 -16 3 -3 13 0
23 7 20 15 12 47 -13 47 -14 -1 -14 -2 2 -14z"/>
<path d="M9151 2584 c0 -11 3 -14 6 -6 3 7 2 16 -1 19 -3 4 -6 -2 -5 -13z"/>
<path d="M1497 2530 c7 -25 23 -37 23 -17 0 8 -6 20 -14 26 -12 10 -13 8 -9
-9z"/>
<path d="M9197 2454 c-9 -10 4 -34 19 -34 8 0 14 3 14 6 0 10 -27 33 -33 28z"/>
<path d="M9166 2443 c-11 -11 -6 -23 9 -23 8 0 15 4 15 9 0 13 -16 22 -24 14z"/>
<path d="M9097 2393 c-2 -5 -1 -18 2 -30 6 -20 7 -20 26 -6 18 14 18 15 1 9
-13 -5 -17 -2 -13 9 6 15 -8 31 -16 18z"/>
<path d="M9219 2392 c12 -8 12 -14 3 -25 -11 -13 -7 -27 9 -27 14 0 4 53 -11
57 -13 4 -13 3 -1 -5z"/>
<path d="M9005 2319 c-24 -5 -25 -7 -7 -8 13 -1 22 -7 22 -17 0 -10 -6 -14
-15 -11 -8 4 -17 2 -20 -3 -4 -6 4 -10 17 -10 13 0 30 -6 37 -12 11 -11 12 -9
3 8 -8 15 -8 24 0 32 18 18 -3 30 -37 21z"/>
<path d="M9040 2200 c0 -13 18 -22 24 -11 3 5 -1 11 -9 15 -8 3 -15 1 -15 -4z"/>
<path d="M1482 2170 c14 -22 24 -19 15 5 -4 8 -11 15 -17 15 -6 0 -6 -7 2 -20z"/>
<path d="M9070 2030 c0 -11 2 -20 4 -20 2 0 6 9 9 20 3 11 1 20 -4 20 -5 0 -9
-9 -9 -20z"/>
<path d="M9090 2009 c0 -16 5 -20 20 -16 13 3 20 0 20 -10 0 -8 -4 -11 -10 -8
-5 3 -10 -2 -10 -12 0 -16 1 -16 16 -2 11 11 13 24 8 45 -6 25 -8 26 -15 9 -7
-17 -8 -18 -8 -2 -1 25 -21 21 -21 -4z"/>
<path d="M9175 2000 c3 -5 8 -10 11 -10 2 0 4 5 4 10 0 6 -5 10 -11 10 -5 0
-7 -4 -4 -10z"/>
<path d="M9030 1915 c0 -8 2 -15 4 -15 2 0 6 7 10 15 3 8 1 15 -4 15 -6 0 -10
-7 -10 -15z"/>
<path d="M7255 1709 c-11 -16 -1 -19 13 -3 7 8 8 14 3 14 -5 0 -13 -5 -16 -11z"/>
<path d="M7250 1605 c0 -15 18 -40 24 -34 3 3 -1 14 -9 25 -8 10 -14 15 -15 9z"/>
<path d="M3897 1575 c-4 -8 -2 -17 3 -20 6 -4 10 -4 10 -1 0 2 3 11 6 20 3 9
2 16 -4 16 -5 0 -12 -7 -15 -15z"/>
<path d="M3931 1574 c0 -11 3 -14 6 -6 3 7 2 16 -1 19 -3 4 -6 -2 -5 -13z"/>
<path d="M4685 1560 c-3 -5 -2 -10 4 -10 5 0 13 5 16 10 3 6 2 10 -4 10 -5 0
-13 -4 -16 -10z"/>
<path d="M6254 1542 c0 -10 8 -26 18 -35 9 -9 18 -22 21 -29 3 -10 8 -10 16
-2 9 8 8 20 -6 47 -19 38 -51 50 -49 19z"/>
<path d="M7092 1540 c0 -14 2 -19 5 -12 2 6 2 18 0 25 -3 6 -5 1 -5 -13z"/>
<path d="M2525 1520 c-3 -5 -1 -10 4 -10 6 0 11 5 11 10 0 6 -2 10 -4 10 -3 0
-8 -4 -11 -10z"/>
<path d="M5735 1509 c-4 -6 -5 -12 -2 -15 2 -3 7 2 10 11 7 17 1 20 -8 4z"/>
<path d="M7144 1498 c3 -28 -8 -38 -17 -15 -4 8 -6 7 -6 -4 -1 -24 26 -56 37
-44 12 11 15 29 13 65 -1 18 -4 21 -10 11 -7 -11 -10 -11 -15 0 -3 8 -4 2 -2
-13z"/>
<path d="M7200 1515 c0 -9 30 -65 35 -65 7 0 -16 60 -26 66 -5 3 -9 2 -9 -1z"/>
<path d="M3235 1493 c3 -8 5 -24 5 -35 0 -32 13 -13 14 20 1 17 -4 29 -12 29
-7 0 -10 -7 -7 -14z"/>
<path d="M3280 1496 c0 -9 0 -19 -1 -23 0 -4 4 -9 10 -11 14 -5 14 35 1 43 -5
3 -10 -1 -10 -9z"/>
<path d="M5220 1499 c0 -5 5 -7 10 -4 6 3 10 8 10 11 0 2 -4 4 -10 4 -5 0 -10
-5 -10 -11z"/>
<path d="M2145 1491 c-3 -5 -1 -12 5 -16 5 -3 10 1 10 9 0 18 -6 21 -15 7z"/>
<path d="M2180 1490 c0 -5 4 -10 9 -10 6 0 13 5 16 10 3 6 -1 10 -9 10 -9 0
-16 -4 -16 -10z"/>
<path d="M2339 1488 c-6 -49 -7 -79 -2 -74 7 7 14 86 8 86 -3 0 -6 -6 -6 -12z"/>
<path d="M2620 1473 c0 -21 3 -24 9 -14 5 8 7 20 4 28 -8 21 -13 15 -13 -14z"/>
<path d="M5432 1480 c0 -14 2 -19 5 -12 2 6 2 18 0 25 -3 6 -5 1 -5 -13z"/>
<path d="M5646 1485 c-3 -9 -6 -22 -5 -28 0 -7 5 -1 10 12 5 13 8 26 5 28 -2
2 -6 -3 -10 -12z"/>
<path d="M5782 1475 c0 -16 2 -22 5 -12 2 9 2 23 0 30 -3 6 -5 -1 -5 -18z"/>
<path d="M3320 1465 c0 -14 4 -25 9 -25 5 0 11 11 13 25 4 17 1 25 -8 25 -8 0
-14 -11 -14 -25z"/>
<path d="M7600 1477 c0 -18 36 -42 44 -29 2 4 1 14 -5 22 -7 13 -9 13 -9 0 -1
-11 -4 -10 -15 4 -13 17 -15 17 -15 3z"/>
<path d="M2427 1465 c-4 -8 -2 -17 3 -20 6 -4 10 3 10 14 0 25 -6 27 -13 6z"/>
<path d="M2486 1462 c-4 -12 -11 -20 -16 -17 -5 3 -12 0 -16 -7 -4 -7 -4 -10
1 -6 4 4 14 3 22 -4 11 -8 18 -6 34 10 15 17 16 22 5 22 -8 0 -16 6 -19 13 -2
7 -7 2 -11 -11z"/>
<path d="M2871 1464 c0 -11 3 -14 6 -6 3 7 2 16 -1 19 -3 4 -6 -2 -5 -13z"/>
<path d="M5320 1470 c0 -5 5 -10 11 -10 5 0 7 5 4 10 -3 6 -8 10 -11 10 -2 0
-4 -4 -4 -10z"/>
<path d="M2774 1450 c3 -14 6 -28 6 -32 0 -5 5 -8 11 -8 12 0 2 39 -13 55 -7
7 -9 2 -4 -15z"/>
<path d="M5450 1458 c0 -11 8 -18 20 -18 12 0 20 7 20 18 0 14 -2 15 -10 2 -9
-13 -11 -13 -20 0 -8 13 -10 12 -10 -2z"/>
<path d="M2401 1444 c0 -11 3 -14 6 -6 3 7 2 16 -1 19 -3 4 -6 -2 -5 -13z"/>
<path d="M2591 1444 c0 -11 3 -14 6 -6 3 7 2 16 -1 19 -3 4 -6 -2 -5 -13z"/>
<path d="M5290 1449 c0 -5 5 -7 10 -4 6 3 10 8 10 11 0 2 -4 4 -10 4 -5 0 -10
-5 -10 -11z"/>
<path d="M6920 1445 c0 -8 2 -15 4 -15 2 0 6 7 10 15 3 8 1 15 -4 15 -6 0 -10
-7 -10 -15z"/>
<path d="M2958 1443 c7 -3 16 -2 19 1 4 3 -2 6 -13 5 -11 0 -14 -3 -6 -6z"/>
<path d="M4145 1440 c3 -5 8 -10 11 -10 2 0 4 5 4 10 0 6 -5 10 -11 10 -5 0
-7 -4 -4 -10z"/>
<path d="M5860 1430 c0 -5 5 -10 10 -10 6 0 10 5 10 10 0 6 -4 10 -10 10 -5 0
-10 -4 -10 -10z"/>
<path d="M2820 1420 c0 -5 5 -10 11 -10 5 0 7 5 4 10 -3 6 -8 10 -11 10 -2 0
-4 -4 -4 -10z"/>
<path d="M3080 1419 c0 -5 5 -7 10 -4 6 3 10 8 10 11 0 2 -4 4 -10 4 -5 0 -10
-5 -10 -11z"/>
<path d="M3375 1420 c3 -5 8 -10 11 -10 2 0 4 5 4 10 0 6 -5 10 -11 10 -5 0
-7 -4 -4 -10z"/>
<path d="M2500 1405 c-7 -9 -10 -18 -6 -22 3 -3 6 -1 6 6 0 7 3 10 8 8 4 -3
13 1 20 9 10 11 10 14 -1 14 -8 0 -20 -7 -27 -15z"/>
<path d="M8760 1399 c0 -11 4 -18 10 -14 5 3 7 12 3 20 -7 21 -13 19 -13 -6z"/>
<path d="M2755 1400 c-3 -5 -1 -10 4 -10 6 0 11 5 11 10 0 6 -2 10 -4 10 -3 0
-8 -4 -11 -10z"/>
<path d="M3276 1402 c-3 -5 1 -9 9 -9 8 0 12 4 9 9 -3 4 -7 8 -9 8 -2 0 -6 -4
-9 -8z"/>
<path d="M4227 1383 c-4 -3 -7 -11 -7 -17 0 -6 5 -5 12 2 6 6 9 14 7 17 -3 3
-9 2 -12 -2z"/>
<path d="M5135 1350 c-3 -5 -1 -10 4 -10 6 0 11 5 11 10 0 6 -2 10 -4 10 -3 0
-8 -4 -11 -10z"/>
<path d="M4250 1331 c0 -6 5 -13 10 -16 6 -3 10 1 10 9 0 9 -4 16 -10 16 -5 0
-10 -4 -10 -9z"/>
<path d="M5300 1325 c5 -24 -1 -37 -15 -31 -8 3 -15 1 -15 -3 0 -5 7 -11 15
-15 20 -7 41 32 25 48 -6 6 -11 7 -10 1z"/>
<path d="M8515 1250 c3 -5 8 -10 11 -10 2 0 4 5 4 10 0 6 -5 10 -11 10 -5 0
-7 -4 -4 -10z"/>
<path d="M8591 1234 c0 -11 3 -14 6 -6 3 7 2 16 -1 19 -3 4 -6 -2 -5 -13z"/>
<path d="M8660 1228 c0 -9 5 -20 10 -23 13 -8 13 5 0 25 -8 13 -10 13 -10 -2z"/>
<path d="M8691 1214 c0 -11 3 -14 6 -6 3 7 2 16 -1 19 -3 4 -6 -2 -5 -13z"/>
<path d="M8486 1095 c4 -8 8 -15 10 -15 2 0 4 7 4 15 0 8 -4 15 -10 15 -5 0
-7 -7 -4 -15z"/>
</g>
</svg>
