<?xml version="1.0" standalone="no"?>
<!DOCTYPE svg PUBLIC "-//W3C//DTD SVG 20010904//EN"
 "http://www.w3.org/TR/2001/REC-SVG-20010904/DTD/svg10.dtd">
<svg version="1.0" xmlns="http://www.w3.org/2000/svg"
 width="1024.000000pt" height="724.000000pt" viewBox="0 0 1024.000000 724.000000"
 preserveAspectRatio="xMidYMid meet">
<metadata>
Created by potrace 1.16, written by Peter Selinger 2001-2019
</metadata>
<g transform="translate(0.000000,724.000000) scale(0.100000,-0.100000)"
fill="#000000" stroke="none">
<path d="M6584 6123 c3 -6 2 -14 -4 -18 -5 -3 -10 -11 -10 -16 0 -6 5 -7 10
-4 6 3 10 1 10 -4 0 -6 -9 -11 -21 -11 -11 0 -18 -4 -14 -9 3 -5 1 -12 -4 -15
-5 -4 -8 -22 -5 -41 3 -29 1 -35 -14 -35 -10 0 -22 4 -28 10 -14 14 -54 0 -54
-19 -1 -14 -2 -14 -11 2 -10 17 -25 25 -76 41 -19 6 -22 4 -17 -11 4 -11 2
-14 -3 -7 -14 19 -46 26 -55 12 -4 -7 -8 -30 -8 -50 0 -21 -5 -38 -10 -38 -6
0 -8 12 -5 28 l5 27 -14 -30 c-9 -16 -15 -36 -16 -42 0 -14 0 -14 -87 -16 -61
-2 -62 -2 -56 22 4 17 2 22 -6 17 -6 -4 -20 -9 -32 -11 -12 -2 -27 -12 -35
-22 -8 -10 -14 -13 -14 -6 0 7 -6 10 -14 7 -8 -3 -17 -1 -21 5 -3 6 0 11 7 11
10 0 10 2 1 8 -7 4 -13 23 -15 41 -3 47 -16 48 -14 1 1 -21 -2 -36 -6 -34 -4
3 -8 11 -8 19 0 7 -7 15 -15 19 -12 4 -13 2 -3 -14 8 -13 9 -25 1 -42 -10 -22
-15 -23 -119 -25 -135 -2 -124 0 -124 -20 -1 -17 -1 -17 -10 -1 -6 9 -18 15
-28 14 -9 -2 -20 2 -24 8 -4 6 -11 1 -16 -14 -6 -15 -6 -27 0 -31 5 -3 4 -17
-3 -33 -10 -20 -10 -29 -1 -38 17 -17 15 -24 -8 -24 -15 0 -19 6 -15 26 5 30
7 78 6 104 -1 16 -4 17 -13 8 -7 -7 -19 -12 -28 -12 -8 0 -21 -14 -29 -31 -11
-26 -11 -32 3 -48 18 -19 21 -47 7 -55 -5 -4 -11 0 -14 6 -3 8 -9 3 -16 -12
-10 -23 -11 -23 -7 -2 5 25 -3 28 -23 10 -11 -10 -14 -10 -18 0 -3 6 -9 12
-14 12 -4 0 -6 -7 -3 -15 9 -23 -33 -19 -46 5 -12 22 -1 27 17 9 9 -9 11 -7 8
7 -2 11 -4 26 -4 34 -1 13 -2 13 -11 0 -5 -8 -10 -10 -10 -4 0 6 3 14 8 18 4
4 12 22 19 39 9 27 12 28 12 10 1 -13 6 -23 12 -23 5 0 7 -5 3 -11 -4 -8 -9
-7 -15 2 -5 8 -9 9 -9 4 0 -6 7 -20 15 -31 8 -12 11 -25 7 -29 -4 -4 3 -2 16
4 17 9 21 18 17 34 -5 17 -4 19 4 7 9 -13 10 -13 15 0 12 39 13 70 1 70 -8 0
-11 -10 -9 -27 l4 -28 -11 29 c-9 21 -14 25 -20 15 -6 -10 -9 -11 -9 -1 0 17
-36 15 -54 -4 -15 -14 -16 -14 -16 0 0 11 -10 16 -32 16 -38 0 -53 -9 -54 -32
-1 -10 4 -14 12 -11 9 3 14 -2 14 -16 0 -22 14 -28 25 -11 3 6 1 10 -4 10 -6
0 -11 4 -11 10 0 5 7 7 15 4 11 -5 14 -1 9 12 -3 12 0 10 9 -5 11 -18 16 -20
20 -10 4 11 6 10 6 -2 1 -20 -34 -53 -47 -45 -13 8 -43 -4 -37 -14 3 -5 -4
-11 -15 -15 -24 -8 -27 -27 -4 -23 10 2 19 -2 21 -8 5 -14 -59 -13 -69 1 -4 6
-8 2 -8 -8 0 -10 -4 -15 -10 -12 -5 3 -10 1 -10 -5 0 -6 -4 -9 -9 -5 -5 3 -12
1 -16 -5 -3 -5 -17 -10 -31 -10 -14 0 -24 -6 -24 -14 0 -17 -25 -27 -47 -19
-10 4 -14 2 -10 -4 8 -12 -12 -22 -30 -16 -7 3 -13 9 -13 15 0 6 6 6 15 -2 12
-10 15 -10 15 4 0 9 5 16 10 16 6 0 10 4 10 8 0 5 -26 10 -57 11 -44 1 -55 -1
-46 -10 13 -13 7 -39 -9 -39 -6 0 -8 6 -5 13 3 8 1 20 -4 28 -6 10 -9 10 -9 2
0 -7 -7 -13 -15 -13 -8 0 -15 5 -15 12 0 6 -3 8 -6 5 -12 -11 -43 13 -38 28
12 30 -7 14 -21 -17 -10 -24 -14 -28 -15 -13 0 16 -2 17 -10 5 -6 -9 -5 -17 2
-21 7 -4 8 -14 3 -25 -5 -11 -7 -23 -6 -29 1 -5 -6 -1 -14 9 -8 11 -16 15 -16
8 -1 -7 -3 -16 -4 -22 -1 -5 -3 -16 -4 -22 -1 -8 -7 -6 -16 6 -11 15 -17 16
-28 8 -18 -15 -30 -3 -16 15 7 8 8 13 1 13 -17 0 -20 -24 -6 -55 11 -25 19
-27 16 -3 -1 3 5 9 13 11 10 5 13 -5 11 -44 -3 -56 -18 -69 -27 -24 -5 24 -12
15 -8 -11 1 -8 -22 -24 -33 -24 -14 0 -8 38 6 43 8 3 14 15 13 26 -2 27 -5 26
-17 -4 -5 -14 -16 -25 -25 -25 -8 0 -15 -5 -15 -11 0 -5 -4 -7 -10 -4 -5 3
-10 -1 -10 -9 0 -9 -5 -16 -11 -16 -6 0 -9 6 -6 14 4 10 0 14 -13 13 -10 -1
-17 -4 -14 -8 8 -14 -17 -21 -31 -9 -11 9 -15 9 -15 1 0 -8 -6 -8 -20 1 -11 7
-20 16 -20 21 0 4 4 5 10 2 6 -4 7 1 3 11 -5 14 -7 15 -15 1 -5 -10 -15 -14
-24 -10 -15 5 -15 7 0 15 14 8 15 13 5 24 -10 13 -8 14 14 10 33 -6 36 9 5 18
-14 3 -27 0 -33 -8 -5 -7 -17 -11 -25 -8 -13 5 -13 3 0 -13 14 -17 13 -18 -2
-12 -13 4 -20 -2 -28 -29 -6 -18 -18 -34 -25 -34 -9 0 -12 6 -9 15 4 8 10 15
15 15 5 0 9 5 9 11 0 6 -6 9 -14 6 -14 -5 -42 40 -31 51 3 3 5 0 5 -6 0 -6 8
-16 18 -21 14 -7 17 -5 19 17 1 18 -1 21 -8 11 -6 -10 -9 -10 -9 -1 0 6 -7 12
-15 12 -20 0 -24 -12 -34 -101 -1 -3 -26 -5 -56 -4 -41 1 -59 6 -69 20 -10 14
-15 15 -21 5 -4 -7 -2 -16 6 -21 10 -6 8 -9 -8 -9 -15 0 -23 6 -23 17 0 14 -3
13 -20 -5 l-21 -22 -22 21 c-12 11 -30 18 -39 15 -10 -2 -18 0 -18 5 0 18 -18
9 -23 -12 -8 -30 -39 -10 -56 36 -10 30 -11 39 -1 45 7 4 9 13 5 19 -9 16 -37
-6 -29 -23 3 -6 -2 -2 -11 9 -15 19 -16 19 -14 -15 4 -51 -8 -66 -31 -38 l-18
23 5 -29 c4 -18 1 -31 -8 -36 -13 -9 -49 5 -61 24 -5 7 -8 4 -8 -6 0 -10 -7
-18 -15 -18 -8 0 -15 8 -16 18 -1 11 -4 9 -9 -8 -4 -14 -8 -19 -9 -11 -1 9 -9
11 -26 7 -15 -4 -25 -2 -25 4 0 6 5 8 10 5 6 -3 10 0 10 8 0 8 -7 17 -15 21
-10 4 -15 -1 -16 -17 -1 -14 -4 -10 -9 13 -7 31 -7 32 -9 8 -1 -26 -21 -42
-21 -17 0 6 -6 9 -14 6 -10 -4 -18 4 -25 21 l-10 27 0 -25 c2 -49 0 -57 -11
-40 -8 13 -10 13 -10 -1 0 -22 -37 -32 -44 -12 -3 8 -1 11 4 8 6 -3 10 -1 10
4 0 6 -6 11 -14 11 -8 0 -17 6 -20 13 -4 6 -4 2 -2 -11 2 -12 0 -20 -4 -17 -5
3 -11 -1 -13 -7 -4 -8 -6 -7 -6 3 -1 9 -8 20 -17 23 -11 4 -15 2 -11 -8 4 -10
1 -13 -8 -10 -8 3 -20 2 -27 -2 -18 -11 -48 -12 -48 -2 0 5 -5 6 -10 3 -5 -3
-10 1 -10 10 0 8 -7 18 -15 21 -16 7 -21 34 -6 34 5 0 9 16 8 35 -1 19 -5 35
-9 35 -4 0 -8 10 -9 23 0 21 -1 21 -9 2 -6 -13 -9 -15 -9 -5 -1 13 -2 13 -11
0 -13 -20 -13 -33 0 -25 6 3 10 1 10 -4 0 -17 -18 -13 -30 7 -10 15 -11 15 -7
-4 2 -12 -7 -38 -20 -60 -17 -26 -23 -31 -20 -16 3 12 1 22 -4 22 -5 0 -9 4
-9 10 0 5 8 6 17 3 12 -5 15 -2 11 9 -4 9 -1 21 5 28 10 10 8 12 -6 6 -10 -3
-21 -6 -24 -6 -3 0 0 -7 7 -15 11 -13 10 -14 -2 -10 -9 4 -18 -1 -21 -9 -6
-16 -28 -23 -26 -8 3 20 -2 32 -16 32 -8 0 -15 9 -15 20 0 11 5 20 11 20 5 0
8 -4 5 -9 -3 -5 1 -12 10 -15 24 -9 27 -8 20 10 -5 13 -1 15 20 11 27 -5 84
18 84 34 0 5 -4 9 -8 9 -5 0 -7 15 -5 33 3 24 2 29 -6 17 -6 -8 -11 -24 -11
-35 0 -13 -3 -16 -8 -8 -5 8 -12 8 -25 -2 -10 -7 -18 -17 -17 -21 3 -18 -16
-13 -28 6 -9 15 -10 26 -2 40 9 18 8 20 -12 16 -13 -2 -22 -9 -21 -15 2 -6 -2
-11 -8 -11 -6 0 -8 9 -4 20 4 12 2 20 -5 20 -6 0 -8 -4 -5 -10 3 -5 -1 -10
-11 -10 -14 0 -14 -2 -3 -16 10 -13 10 -17 -2 -25 -8 -5 -10 -9 -5 -9 5 0 2
-8 -5 -17 -10 -11 -10 -14 -1 -9 7 4 12 2 12 -6 0 -9 3 -9 10 2 15 23 12 -5
-4 -45 -8 -18 -11 -37 -8 -41 4 -4 2 -4 -5 -1 -6 4 -13 4 -16 0 -2 -5 -2 -1 1
7 12 45 12 60 -3 60 -8 0 -15 -4 -15 -10 0 -5 -10 0 -21 11 -17 17 -19 23 -8
30 8 5 18 9 22 9 4 0 3 9 -3 20 -9 17 -8 20 12 20 16 0 19 3 11 11 -8 8 -17 8
-31 0 -17 -9 -20 -7 -24 14 -3 14 0 26 8 29 8 3 14 -1 14 -9 0 -8 4 -15 9 -15
10 0 3 40 -8 41 -42 5 -65 19 -43 26 6 3 12 17 12 31 0 21 2 24 10 12 9 -13
11 -13 20 0 6 9 6 18 0 24 -17 17 -11 27 9 16 13 -7 22 -7 26 0 3 5 -1 10 -9
10 -9 0 -16 5 -16 11 0 6 -12 9 -27 7 -21 -2 -29 -9 -31 -28 -6 -40 -18 -43
-17 -4 2 44 -11 52 -38 25 l-21 -21 22 5 c16 3 22 -1 22 -14 0 -13 -8 -18 -30
-18 -25 0 -30 4 -30 23 0 33 -17 38 -25 7 -4 -17 -2 -29 7 -34 11 -7 11 -9 0
-9 -8 0 -11 -7 -8 -17 3 -10 1 -25 -4 -33 -10 -16 -11 -15 -13 45 -2 32 -6 39
-19 37 -12 -2 -16 2 -12 12 7 18 -21 16 -39 -4 -8 -8 -8 -11 0 -6 17 10 29
-54 12 -65 -12 -8 -12 -10 0 -18 9 -6 5 -8 -13 -8 -24 0 -26 3 -22 28 2 16 1
27 -4 24 -15 -9 -17 -70 -5 -113 12 -39 12 -43 -3 -41 -9 1 -29 -1 -44 -5 -18
-5 -38 -3 -58 8 -17 8 -37 13 -44 10 -7 -3 -13 2 -13 12 0 9 8 19 18 21 25 7
19 41 -8 48 -13 3 -21 10 -18 15 11 18 -17 11 -31 -7 -12 -16 -12 -16 -7 5 4
19 2 21 -13 15 -18 -6 -18 -6 -1 14 10 12 15 28 11 39 -5 18 -5 18 6 1 6 -9 9
-21 5 -26 -3 -5 -1 -12 4 -16 6 -3 14 9 19 27 6 18 13 41 17 52 7 16 5 17 -13
7 -15 -8 -21 -8 -24 1 -6 16 -117 15 -127 -1 -6 -10 -9 -9 -14 2 -7 19 -138
18 -145 -1 -2 -7 7 -12 22 -12 25 0 31 -10 27 -50 -2 -13 -1 -13 8 -1 8 13 13
11 29 -9 26 -33 8 -53 -36 -40 -25 7 -32 5 -35 -8 -4 -15 -5 -15 -6 1 -1 20
-17 23 -24 5 -4 -10 -6 -10 -6 0 -1 6 -8 12 -16 12 -18 0 -21 50 -4 67 7 7 3
9 -15 6 -20 -4 -26 -1 -27 13 0 18 -1 18 -9 -1 -9 -22 -10 -21 -14 12 -4 32
-11 36 -36 23 -19 -10 -21 -10 -11 8 12 22 4 62 -13 62 -6 0 -4 5 4 10 12 7
10 9 -7 7 -12 0 -19 -5 -17 -9 3 -4 1 -8 -5 -8 -5 0 -11 10 -13 22 -5 34 -50
35 -65 1 -7 -16 -10 -38 -7 -49 4 -16 0 -23 -16 -27 -13 -3 -23 0 -27 9 -3 8
-9 11 -15 8 -5 -3 -7 -13 -4 -21 3 -8 2 -12 -3 -9 -5 3 -14 -1 -20 -8 -10 -12
-8 -13 9 -9 16 4 19 2 14 -11 -4 -11 -13 -14 -32 -9 -19 4 -23 3 -17 -7 5 -7
-4 -5 -18 6 -24 17 -39 43 -18 30 5 -3 11 5 13 18 5 23 4 24 -18 10 -16 -11
-23 -12 -26 -3 -3 8 -9 6 -21 -5 -12 -12 -24 -15 -39 -10 -13 5 -27 7 -32 6
-5 -2 -6 4 -3 13 4 8 3 15 -2 15 -11 0 -21 -36 -21 -74 0 -24 2 -27 15 -16 8
7 15 22 16 34 1 19 2 18 9 -4 4 -14 9 -20 9 -15 1 6 5 3 10 -4 6 -9 6 -22 1
-32 -5 -9 -6 -20 -2 -24 4 -4 -8 -4 -27 0 -31 7 -33 6 -28 -14 3 -15 -2 -28
-16 -41 -17 -16 -18 -20 -5 -20 13 0 16 -12 17 -66 0 -60 -1 -65 -19 -59 -12
4 -20 2 -20 -4 0 -17 -28 -13 -39 7 -10 16 -10 16 -11 -1 0 -10 -5 -15 -11
-12 -5 4 -34 8 -64 8 -29 1 -56 4 -58 7 -12 12 -11 43 1 47 7 3 12 -4 12 -18
0 -37 14 -11 16 29 3 59 4 63 12 58 4 -2 14 -1 22 5 12 7 12 9 -4 9 -14 0 -17
6 -14 25 3 14 1 25 -4 25 -6 0 -7 7 -4 16 4 11 -1 18 -14 21 -12 3 -20 14 -20
27 0 16 -6 21 -30 22 -25 1 -30 -3 -30 -22 0 -12 -6 -25 -12 -28 -11 -5 -11
-7 0 -12 6 -3 12 -12 12 -19 0 -15 -48 -27 -56 -14 -12 20 -24 7 -19 -20 3
-17 1 -33 -5 -36 -13 -8 -13 -45 -1 -45 5 0 12 5 14 10 3 6 4 5 3 -2 -2 -7
-11 -13 -22 -13 -14 0 -19 7 -19 26 1 24 -1 25 -20 13 -19 -12 -20 -11 -22 21
-1 24 2 32 12 29 7 -3 16 -1 20 5 3 6 -1 11 -9 11 -9 0 -16 5 -16 11 0 8 -5 7
-15 -1 -12 -10 -19 -10 -27 -2 -9 9 -8 12 5 12 17 0 19 32 2 47 -4 5 -5 -2 -2
-15 4 -19 2 -22 -13 -17 -10 3 -22 0 -26 -6 -4 -8 -3 -9 4 -5 16 10 15 -5 -2
-26 -7 -10 -21 -18 -30 -18 -18 0 -20 -13 -6 -40 7 -13 7 -21 0 -25 -6 -4 -8
-10 -5 -15 9 -15 -14 -21 -35 -10 -18 9 -20 8 -22 -17 -1 -15 -1 -43 1 -62 3
-43 -17 -91 -37 -91 -12 0 -13 3 -4 12 15 15 16 32 2 23 -5 -3 -10 -1 -10 6 0
8 -4 8 -15 -1 -11 -9 -15 -9 -15 -1 0 7 -4 10 -9 7 -5 -3 -11 7 -13 24 -2 16
-1 27 4 24 4 -3 8 2 8 11 0 24 -28 30 -50 10 -10 -9 -24 -14 -29 -10 -6 3 -11
-2 -11 -13 0 -11 8 -23 17 -26 12 -5 14 -9 5 -18 -7 -7 -12 -20 -12 -30 0 -14
-6 -16 -29 -12 -28 6 -28 5 -28 -43 0 -26 4 -51 10 -55 7 -4 7 -12 -2 -22 -11
-13 -10 -17 5 -23 11 -4 25 -13 33 -21 13 -13 12 -16 -5 -29 -18 -14 -17 -15
11 -9 24 5 22 2 -14 -16 -41 -20 -43 -22 -23 -31 20 -9 27 -26 23 -51 -1 -5 5
-4 13 4 18 14 22 25 6 15 -16 -10 -12 11 5 25 13 11 14 10 9 -4 -3 -9 -1 -16
5 -16 8 0 9 -6 2 -19 -6 -10 -7 -21 -4 -25 3 -3 1 -6 -6 -6 -9 0 -9 -5 -1 -21
9 -15 8 -24 -1 -35 -6 -8 -7 -14 -1 -14 5 0 12 -11 14 -25 3 -14 1 -25 -3 -25
-5 0 -9 5 -9 12 0 7 -7 5 -17 -5 -15 -13 -20 -13 -31 -1 -7 7 -12 17 -11 21 1
4 0 17 -2 28 -1 11 -5 -9 -8 -45 -7 -71 -4 -93 10 -84 5 3 9 -2 9 -10 0 -10
-6 -13 -17 -10 -17 5 -17 5 0 -9 21 -17 22 -27 2 -27 -20 0 -19 -24 1 -44 12
-13 13 -16 1 -16 -7 0 -14 -7 -14 -15 0 -8 4 -15 9 -15 5 0 -4 -12 -19 -27
-17 -16 -21 -24 -10 -20 18 7 25 -17 7 -28 -5 -3 -10 -1 -10 4 0 16 -14 13
-39 -8 -13 -11 -28 -22 -34 -25 -9 -3 -9 -7 -1 -13 15 -11 24 -53 12 -53 -6 0
-8 -7 -4 -15 4 -13 2 -14 -14 -5 -24 13 -36 7 -43 -21 -4 -15 -2 -19 9 -15 19
7 18 -3 -4 -27 -9 -11 -11 -17 -4 -13 15 9 17 -25 1 -41 -7 -7 0 -16 25 -31
35 -21 47 -42 24 -42 -6 0 -8 -3 -5 -7 4 -3 -2 -12 -13 -20 -22 -16 -27 -38
-7 -30 10 3 12 -3 9 -23 -3 -18 1 -29 12 -33 14 -5 15 -3 6 13 -11 20 -1 33
17 22 12 -8 11 -41 -1 -61 -5 -8 -4 -16 2 -20 7 -4 7 -12 3 -20 -5 -8 -5 -26
-1 -42 7 -22 5 -28 -8 -28 -76 -4 -72 -1 -72 -58 0 -29 4 -53 9 -53 5 0 11 -7
14 -14 4 -10 1 -13 -9 -9 -10 4 -14 -2 -14 -21 0 -26 13 -35 25 -16 8 12 25
13 25 1 0 -5 -11 -12 -24 -15 -20 -5 -25 -14 -31 -58 -3 -29 -9 -61 -12 -72
-3 -10 -1 -16 3 -13 13 7 10 -68 -2 -84 -6 -8 -14 -22 -17 -31 -4 -13 -2 -15
10 -11 13 5 15 1 9 -23 -5 -16 -9 -40 -11 -53 -3 -26 22 -61 42 -61 19 0 16
-17 -4 -24 -15 -6 -15 -8 -3 -16 13 -8 13 -10 -1 -10 -9 0 -24 -10 -35 -21
-19 -22 -19 -22 4 -10 13 7 26 10 30 7 3 -3 1 -6 -5 -6 -6 0 -8 -11 -5 -25 4
-25 16 -32 26 -16 4 5 1 11 -5 13 -7 2 -5 9 5 18 10 7 16 9 15 4 -1 -5 0 -11
1 -14 5 -14 5 -60 -1 -60 -8 0 -5 -52 4 -66 8 -13 3 -41 -8 -51 -4 -4 -5 -2
-1 5 8 14 -10 17 -19 2 -3 -6 -17 -7 -31 -4 -23 6 -24 5 -23 -52 1 -33 3 -51
6 -41 7 27 18 20 18 -13 0 -17 -5 -30 -12 -30 -9 0 -13 -16 -13 -46 0 -40 2
-45 15 -34 8 6 20 10 27 7 8 -3 3 -9 -14 -17 -14 -7 -28 -23 -31 -36 -5 -30 9
-32 17 -1 l6 22 16 -25 15 -25 -6 28 c-4 19 -2 26 5 22 6 -4 17 -1 25 5 11 9
15 9 15 1 0 -6 -4 -11 -10 -11 -5 0 -7 -7 -3 -16 3 -8 11 -13 17 -11 7 3 12
-5 12 -18 0 -13 -4 -21 -8 -19 -22 14 -67 12 -80 -3 -11 -15 -11 -16 5 -10 9
3 17 2 17 -2 0 -5 -6 -11 -12 -14 -8 -3 -3 -9 12 -15 20 -8 28 -7 38 6 6 9 12
12 12 6 0 -5 5 -2 10 6 8 12 10 9 10 -12 0 -16 -4 -28 -10 -28 -5 0 -10 -7
-10 -16 0 -35 25 -5 31 37 7 50 11 38 13 -38 0 -28 4 -55 9 -59 4 -4 7 -14 7
-23 0 -12 -3 -11 -13 3 -12 16 -13 14 -9 -18 2 -20 8 -34 12 -31 4 3 11 -2 14
-11 3 -8 2 -12 -4 -9 -6 3 -10 -5 -10 -19 0 -18 4 -24 15 -20 13 5 19 23 17
45 -1 4 10 17 24 30 18 17 23 19 18 6 -3 -9 -10 -17 -16 -17 -5 0 -6 -10 -3
-21 5 -16 4 -19 -5 -14 -8 5 -11 4 -7 -3 9 -14 -3 -43 -14 -36 -5 3 -9 -2 -9
-11 0 -26 -33 -13 -41 15 -7 24 -7 24 -8 3 -1 -13 -7 -23 -13 -23 -8 -1 -6 -6
4 -14 10 -7 14 -17 10 -21 -4 -5 0 -6 9 -2 9 3 22 0 28 -6 9 -9 14 -8 22 3 9
13 10 13 6 0 -3 -10 -14 -14 -33 -12 -24 2 -30 -1 -31 -17 -1 -12 6 -23 18
-26 16 -6 19 -12 14 -36 -4 -18 -3 -29 4 -29 6 0 11 -5 11 -10 0 -6 -11 -8
-25 -4 -20 5 -25 2 -25 -12 0 -15 2 -16 9 -5 6 9 11 10 15 3 4 -6 13 -9 21 -5
8 3 15 1 15 -4 0 -5 7 -10 15 -10 14 0 19 10 16 30 -3 20 17 3 21 -18 3 -14 1
-25 -4 -25 -15 0 -4 -43 12 -47 13 -4 13 -3 0 6 -13 10 -13 13 1 24 9 6 14 18
12 25 -3 8 1 10 11 6 14 -5 14 -9 4 -22 -11 -12 -11 -16 0 -20 10 -3 9 -9 -5
-24 -11 -13 -13 -18 -4 -16 7 2 16 -3 18 -9 3 -7 -3 -13 -13 -13 -16 0 -16 -1
0 -19 19 -21 18 -62 0 -68 -7 -2 -10 5 -7 20 3 13 -2 30 -9 38 -8 8 -20 23
-26 34 -11 19 -12 19 -9 -3 2 -13 11 -32 20 -43 21 -24 21 -29 2 -29 -8 0 -15
-6 -15 -14 0 -7 7 -19 15 -26 10 -9 15 -9 15 -1 0 17 17 13 24 -5 4 -9 -1 -28
-10 -42 -15 -23 -15 -26 0 -34 18 -10 22 -48 6 -48 -6 0 -15 11 -20 25 -5 14
-12 25 -14 25 -3 0 -3 -7 1 -16 3 -10 0 -22 -8 -28 -8 -6 -21 -20 -29 -30 -13
-17 -13 -19 0 -11 24 15 49 13 55 -4 5 -13 7 -14 15 -1 7 11 10 8 10 -12 0
-30 9 -35 28 -16 9 9 12 7 12 -9 0 -12 6 -24 13 -26 9 -4 9 -6 -1 -6 -7 -1
-22 4 -33 10 -19 10 -20 7 -18 -43 1 -29 -1 -63 -5 -75 -6 -18 -3 -23 9 -23 9
0 14 4 10 9 -3 5 -1 12 5 16 16 10 12 -31 -5 -45 -8 -7 -12 -17 -9 -22 4 -6 1
-14 -5 -18 -9 -5 -8 -12 5 -24 14 -15 15 -19 3 -27 -11 -7 -10 -9 6 -9 19 -1
19 -1 2 -14 -12 -9 -14 -16 -7 -21 5 -3 7 -12 3 -18 -9 -14 -12 -49 -6 -60 3
-5 11 0 19 10 12 17 13 16 14 -9 0 -19 -4 -26 -14 -22 -8 3 -17 0 -22 -7 -4
-7 -3 -10 3 -6 6 4 19 0 29 -8 15 -11 17 -16 7 -26 -11 -11 -13 -10 -13 5 0 9
-5 14 -10 11 -6 -4 -8 -16 -5 -28 2 -12 2 -16 -1 -9 -3 6 -10 12 -15 12 -6 0
-7 -4 -4 -10 10 -15 -5 -12 -22 5 -22 23 -30 9 -8 -15 10 -11 26 -20 36 -20
27 0 32 -18 8 -25 -12 -4 -18 -13 -15 -20 3 -8 0 -16 -7 -19 -9 -3 -9 -5 1 -5
17 -1 15 -38 -2 -38 -7 0 -11 7 -9 16 2 9 -3 25 -11 36 -14 19 -15 17 -9 -20
3 -22 10 -41 15 -43 17 -7 7 -44 -17 -66 -22 -20 -23 -25 -9 -30 9 -3 20 -4
25 0 5 3 9 1 9 -5 0 -5 -4 -13 -10 -16 -5 -3 -10 -11 -10 -17 0 -7 6 -6 15 2
18 15 21 -1 5 -30 -14 -27 8 -40 64 -38 l47 2 -7 41 c-3 22 -11 48 -16 59 -7
13 -6 21 3 27 10 6 11 9 2 9 -7 0 -13 10 -13 22 0 21 1 21 14 3 13 -18 13 -18
24 1 8 15 7 23 -6 38 -16 18 -16 19 0 13 9 -3 22 1 29 9 10 12 10 15 -2 12 -8
-2 -13 4 -13 14 1 14 -2 15 -17 5 -10 -6 -22 -8 -26 -4 -4 5 -1 12 6 16 7 5
14 20 14 34 0 15 4 25 9 24 6 -1 12 3 15 10 3 7 -3 10 -16 6 -11 -3 -22 -12
-24 -22 -4 -14 -5 -14 -6 1 0 9 3 20 9 23 5 3 10 20 10 37 0 22 6 31 21 35 14
4 18 10 13 22 -4 9 -7 33 -6 53 1 29 -2 36 -13 32 -12 -5 -15 3 -15 39 0 25
-3 53 -7 63 -4 12 -3 15 5 10 7 -4 12 -1 12 9 0 9 4 14 9 11 5 -3 11 4 15 17
8 32 7 39 -4 32 -6 -4 -8 -11 -5 -16 4 -5 -1 -9 -10 -9 -14 0 -14 3 1 25 13
20 15 33 7 58 -5 18 -14 31 -19 30 -6 -1 -8 13 -6 31 3 29 7 32 38 31 27 -1
34 2 34 17 0 18 1 18 22 -2 25 -23 38 -26 38 -8 0 6 3 8 7 4 5 -4 -1 -14 -11
-22 -15 -11 -17 -16 -7 -28 9 -11 9 -15 -1 -19 -10 -4 -10 -6 0 -6 6 -1 12 -8
12 -16 0 -8 5 -15 10 -15 17 0 -1 -84 -21 -99 -11 -7 -19 -23 -19 -34 0 -20 1
-20 14 -2 13 18 13 18 25 -1 9 -13 14 -15 17 -6 3 6 11 9 17 5 7 -5 21 -8 31
-8 11 0 21 -6 23 -13 3 -6 -1 -12 -7 -12 -6 0 -18 -7 -26 -15 -14 -13 -13 -15
8 -15 17 0 19 -3 9 -9 -9 -6 -4 -10 18 -13 17 -2 31 -1 31 3 0 5 14 6 31 2 29
-6 30 -5 18 15 -10 16 -16 18 -27 10 -10 -9 -16 -9 -22 1 -6 11 -10 10 -17 -3
-9 -16 -11 -16 -22 -2 -11 13 -11 16 3 16 9 0 19 6 22 14 3 8 18 18 34 21 16
3 34 13 40 21 7 7 17 11 22 8 6 -4 5 -10 -3 -16 -10 -7 -8 -7 8 -3 25 7 37
-10 47 -65 3 -19 3 -30 0 -23 -8 18 -34 4 -34 -18 0 -10 -5 -19 -11 -19 -6 0
-9 8 -6 19 3 14 0 17 -15 13 -14 -3 -16 -8 -9 -15 6 -6 11 -19 11 -29 0 -10 7
-18 16 -18 14 0 15 -2 3 -17 -10 -11 -10 -14 -1 -9 9 5 12 -2 12 -26 l-1 -33
-20 38 c-20 38 -39 50 -35 21 1 -8 9 -20 17 -25 11 -7 11 -9 -4 -9 -15 0 -16
-4 -7 -20 6 -11 8 -30 4 -43 -4 -17 -1 -26 10 -30 23 -9 20 -24 -10 -54 -19
-19 -21 -24 -7 -19 14 6 16 5 6 -5 -18 -18 -16 -30 2 -23 11 5 13 2 9 -10 -4
-10 -13 -15 -21 -11 -10 3 -13 1 -10 -9 3 -7 -1 -23 -9 -35 -8 -11 -12 -21 -8
-21 3 0 2 -6 -4 -13 -13 -15 -5 -87 9 -87 5 0 9 -9 9 -20 0 -11 5 -20 10 -20
6 0 10 -4 10 -9 0 -5 -9 -7 -20 -4 -14 4 -20 0 -20 -11 0 -16 7 -19 44 -19 15
1 18 -5 13 -37 -3 -26 -1 -37 8 -37 8 0 11 7 7 15 -3 10 -1 13 6 8 8 -5 10 -2
6 8 -3 9 -2 16 2 16 5 0 10 11 10 25 1 14 -2 22 -7 19 -5 -3 -9 0 -9 6 0 6 -4
8 -10 5 -6 -3 -7 1 -4 9 3 9 11 16 17 16 7 0 7 4 -1 12 -7 7 -12 19 -12 27 0
8 3 11 7 8 3 -4 13 -1 21 6 13 10 15 9 9 -5 -3 -10 -2 -20 4 -23 5 -4 8 -1 7
6 -2 7 2 13 7 14 6 0 16 4 22 8 8 5 13 3 13 -6 0 -8 -7 -17 -15 -21 -13 -5
-12 -9 5 -26 23 -23 41 -26 38 -8 -4 18 24 16 30 -1 3 -9 0 -11 -8 -6 -10 6
-12 2 -8 -13 4 -12 2 -22 -3 -22 -5 0 -9 4 -9 8 0 15 -39 10 -42 -5 -3 -15 -4
-15 -20 0 -11 12 -17 13 -21 4 -6 -18 3 -37 18 -37 7 0 15 -11 17 -25 3 -13 1
-22 -3 -19 -5 3 -9 0 -9 -6 0 -6 -4 -9 -10 -5 -5 3 -7 12 -4 19 3 8 1 17 -5
21 -7 3 -8 0 -5 -9 3 -9 1 -16 -6 -16 -7 0 -6 -6 4 -16 10 -9 14 -24 10 -38
-4 -19 -1 -22 22 -21 16 1 30 8 32 15 3 7 0 10 -7 6 -8 -5 -8 0 -2 17 6 14 7
28 4 31 -4 3 -2 6 4 6 13 0 25 -28 17 -41 -3 -5 7 -14 21 -21 22 -10 28 -9 36
3 7 11 9 11 9 -3 0 -14 9 -18 43 -19 23 0 53 -2 66 -3 14 -2 36 3 50 10 16 9
27 10 29 4 5 -15 22 -12 22 3 0 7 9 13 20 13 13 0 20 -7 20 -18 0 -11 7 -18
20 -18 12 0 20 7 20 18 0 14 2 15 10 2 9 -13 10 -13 11 0 1 8 1 18 0 22 0 5 3
8 9 8 5 0 10 -5 10 -11 0 -8 4 -8 13 -1 9 8 16 6 25 -8 9 -14 8 -20 -1 -23 -7
-3 6 -6 28 -8 24 -1 31 -3 18 -6 -28 -5 -28 -8 -2 -36 15 -15 20 -17 16 -6 -4
12 -1 15 12 12 13 -3 17 -13 15 -30 -2 -22 0 -24 11 -12 7 8 16 24 20 36 5 18
3 22 -9 17 -11 -4 -13 0 -9 16 4 14 9 18 16 11 14 -14 37 -2 30 17 -4 10 2 7
16 -7 13 -13 29 -20 38 -16 9 3 20 0 25 -7 6 -10 8 -10 8 0 0 6 7 12 15 12 8
0 15 -5 15 -10 0 -6 -6 -9 -12 -8 -7 2 -12 -5 -10 -14 1 -9 -2 -19 -7 -23 -6
-3 -7 -13 -4 -22 5 -12 2 -15 -10 -10 -9 3 -17 2 -17 -3 0 -6 6 -10 13 -10 9
0 9 -2 0 -8 -7 -5 -9 -13 -4 -21 7 -10 11 -8 16 10 4 13 12 27 18 30 5 4 9 19
9 34 0 18 3 23 9 14 4 -7 5 -17 2 -22 -3 -5 5 -3 18 4 20 11 21 14 7 17 -10 2
-18 8 -18 13 0 6 4 8 9 4 6 -3 14 3 20 12 9 16 10 16 11 -4 0 -13 3 -23 8 -23
11 0 9 -64 -2 -72 -6 -4 -3 -14 7 -26 9 -10 17 -24 17 -31 0 -7 5 -9 10 -6 5
3 10 3 10 -2 0 -4 11 -9 25 -9 16 -1 26 5 31 18 5 16 8 18 15 7 6 -10 9 -10 9
-2 0 19 30 3 30 -16 1 -9 7 -3 15 14 7 17 14 24 14 18 1 -7 7 -13 15 -13 8 0
18 -5 22 -12 4 -7 3 -8 -4 -4 -7 4 -12 1 -12 -6 0 -8 9 -14 20 -14 13 0 20 7
20 21 0 15 3 16 9 7 7 -11 9 -11 14 2 4 9 3 16 -1 16 -10 0 -9 46 1 54 4 3 5
3 3 0 -2 -3 0 -19 6 -34 6 -19 15 -27 24 -23 8 3 14 0 14 -6 0 -6 5 -11 10
-11 6 0 10 12 10 26 0 23 1 24 16 10 8 -9 20 -16 25 -16 5 0 9 -7 9 -15 0 -8
6 -15 14 -15 8 0 17 -6 20 -12 4 -7 4 -2 2 12 -5 23 -4 23 8 8 7 -10 18 -18
25 -18 6 0 11 8 12 18 0 10 3 12 6 5 6 -17 31 -17 30 0 -2 60 4 97 17 97 8 0
17 4 20 9 4 5 -3 7 -14 4 -24 -6 -27 12 -5 34 8 8 12 20 8 26 -4 7 -9 4 -14
-9 -6 -16 -8 -15 -8 9 -1 15 4 27 12 27 8 0 9 2 1 8 -7 4 -12 51 -13 124 l-1
118 26 -10 c33 -13 31 -14 38 14 3 13 -1 36 -9 52 -14 28 -11 50 4 25 6 -10
12 -9 26 5 10 10 32 19 50 20 26 0 31 -3 28 -17 -3 -10 -10 -17 -16 -16 -5 1
-11 -10 -12 -25 -1 -15 2 -25 7 -22 4 3 8 0 8 -6 0 -7 6 -10 14 -7 7 3 19 0
26 -6 10 -9 11 -9 6 1 -4 6 -2 12 5 12 7 0 9 -8 6 -21 -3 -12 -3 -18 0 -15 11
10 33 -23 26 -40 -5 -14 -2 -16 20 -12 15 3 24 1 21 -3 -7 -12 7 -11 26 1 16
10 15 11 -29 14 -8 1 -16 6 -18 13 -3 7 3 9 15 6 15 -4 20 0 19 14 -1 10 4 17
11 16 25 -6 11 24 -28 56 -41 34 -56 70 -22 56 20 -9 52 -9 60 0 4 3 1 14 -5
23 -7 13 -7 21 3 30 7 7 11 18 8 25 -3 10 4 14 26 14 18 0 30 -5 30 -14 0 -7
6 -13 13 -13 8 0 7 -4 -3 -10 -13 -8 -12 -10 3 -10 10 0 17 -8 17 -19 0 -11 5
-21 12 -23 14 -5 -7 -66 -29 -84 -14 -12 -7 -48 8 -38 5 3 9 0 9 -6 0 -6 -6
-10 -12 -9 -31 4 -39 -1 -30 -18 5 -10 8 -30 6 -45 -1 -16 2 -28 7 -28 5 0 9
11 9 25 0 14 5 25 10 25 14 0 12 -9 -10 -55 -20 -41 -27 -71 -10 -45 8 12 10
12 16 -4 4 -10 2 -21 -3 -25 -6 -3 -13 -17 -17 -31 -5 -17 -4 -21 2 -11 8 11
10 11 15 0 4 -10 6 -10 6 2 1 21 19 28 51 18 14 -4 19 -7 12 -8 -7 -1 -11 -5
-7 -10 3 -6 -1 -13 -8 -18 -17 -10 -28 -75 -17 -94 7 -10 12 -11 20 -3 9 9 9
14 1 18 -19 12 -13 56 7 56 23 0 25 -27 3 -35 -13 -5 -13 -7 -1 -15 11 -7 12
-16 3 -44 -6 -20 -7 -36 -2 -36 5 0 9 -9 9 -20 0 -31 17 -24 29 12 9 24 8 33
-1 39 -9 6 -7 10 7 15 11 4 24 9 29 12 5 3 6 -3 3 -12 -5 -14 -3 -17 8 -12 10
4 15 -1 15 -14 0 -11 -4 -20 -10 -20 -5 0 -10 5 -10 11 0 5 -4 8 -9 4 -5 -3
-9 -19 -9 -36 1 -24 3 -27 10 -15 10 18 38 22 38 5 0 -5 -5 -7 -12 -3 -7 4 -8
3 -4 -4 8 -14 36 -16 36 -3 0 5 10 11 21 14 14 4 20 11 16 21 -4 9 1 16 10 18
15 3 15 4 0 20 -9 9 -13 18 -7 20 5 2 12 19 15 38 3 19 11 37 17 41 6 4 7 12
4 18 -4 6 -11 9 -16 6 -5 -3 -12 0 -16 6 -5 9 1 10 20 5 22 -5 26 -3 26 14 0
12 -4 19 -9 16 -5 -4 -4 5 2 19 7 14 18 25 25 25 18 0 15 -17 -5 -24 -13 -5
-14 -9 -4 -19 9 -9 14 -9 20 2 6 10 10 10 16 1 4 -6 13 -9 21 -6 8 3 14 1 14
-4 0 -5 -8 -11 -17 -13 -11 -3 -8 -5 9 -6 19 -1 26 -5 22 -15 -3 -8 0 -24 6
-36 9 -17 15 -19 23 -10 9 8 8 14 -5 21 -22 12 -23 29 -3 29 8 0 14 3 13 8 -1
4 5 20 12 35 9 19 16 24 21 15 5 -7 3 -16 -4 -20 -9 -6 -9 -8 1 -8 9 0 11 -12
7 -41 -4 -29 -2 -40 7 -37 7 3 13 20 14 39 1 19 6 47 10 63 5 20 4 27 -4 22
-8 -5 -11 5 -10 29 1 19 5 35 10 35 5 0 8 -8 6 -17 -1 -10 5 -33 15 -52 21
-41 21 -45 3 -38 -17 7 -28 -16 -19 -39 4 -10 16 -14 37 -12 17 2 36 -3 41 -9
7 -9 15 -10 25 -3 9 6 11 13 5 18 -5 4 -11 16 -12 27 -1 16 4 21 23 23 23 2
24 0 10 -14 -18 -17 -22 -39 -6 -29 6 4 10 3 9 -2 -6 -35 5 -38 12 -4 5 25 14
48 20 51 7 5 5 9 -6 14 -9 3 -21 4 -26 0 -5 -3 -9 1 -9 9 0 8 -8 21 -17 28
-15 12 -16 12 -10 -3 3 -10 2 -18 -3 -18 -6 0 -10 7 -10 16 0 8 -7 22 -15 30
-8 9 -15 21 -15 27 0 6 7 1 16 -11 8 -12 20 -20 25 -17 14 9 11 33 -6 37 -11
2 -12 7 -4 18 8 11 12 12 16 3 6 -17 23 -17 23 0 0 7 9 13 20 13 14 0 19 -5
15 -16 -3 -9 1 -8 10 4 19 25 19 37 0 30 -11 -4 -15 0 -15 16 0 16 4 20 15 16
8 -3 15 -1 15 4 0 6 -8 11 -17 11 -10 1 -27 3 -38 4 -25 3 -45 -16 -45 -41 0
-4 -7 -1 -15 6 -8 7 -15 18 -15 24 0 6 5 4 10 -4 5 -8 10 -10 10 -5 0 18 -18
38 -28 31 -6 -3 -13 0 -15 6 -3 7 -6 0 -7 -17 -2 -18 -4 -23 -7 -13 -2 10 -9
18 -14 18 -6 0 -8 4 -5 9 3 5 -1 11 -9 15 -8 3 -16 1 -16 -4 -1 -6 -2 -15 -3
-22 0 -6 -11 -13 -24 -15 -20 -3 -23 0 -18 19 3 13 3 17 0 10 -8 -16 -25 -5
-18 12 4 10 -2 12 -19 9 -17 -3 -24 0 -24 11 0 18 13 21 22 6 4 -7 12 -7 25 0
29 16 80 13 80 -5 0 -12 5 -10 20 5 12 12 26 17 32 13 7 -4 27 -6 46 -5 33 3
34 2 27 -30 -7 -29 -6 -31 9 -19 9 7 16 20 16 27 0 8 8 14 18 14 10 0 22 3 25
7 10 9 57 10 57 1 0 -4 9 -5 20 -3 15 3 21 -3 26 -23 10 -45 14 -49 11 -11
l-3 36 44 0 c24 1 46 3 49 7 3 3 12 1 20 -5 7 -6 13 -7 13 -3 0 7 413 9 520 3
8 0 56 0 105 0 254 2 255 2 255 -16 0 -15 2 -15 9 -4 12 18 41 23 58 9 12 -10
17 -4 14 15 -2 11 13 8 37 -9 14 -9 22 -11 22 -4 0 14 72 10 83 -5 5 -7 9 -6
15 2 10 16 60 4 65 -16 4 -14 5 -14 6 2 0 9 9 17 19 16 10 0 12 -3 4 -6 -6 -2
-10 -9 -6 -14 3 -5 -9 -16 -27 -23 -23 -10 -37 -24 -44 -47 -11 -30 -12 -31
-17 -11 -4 12 -2 20 3 16 5 -3 9 5 9 17 0 12 -3 19 -7 15 -4 -3 -13 4 -21 16
-13 23 -13 23 -9 -4 2 -16 0 -28 -6 -28 -5 0 -7 -9 -4 -20 3 -13 0 -20 -9 -20
-8 0 -14 7 -14 15 0 8 -4 15 -10 15 -5 0 -10 -11 -10 -25 0 -20 -5 -25 -25
-25 -16 0 -25 6 -25 15 0 8 -9 15 -20 15 -11 0 -19 -3 -17 -8 1 -4 -9 -19 -22
-32 l-23 -25 16 32 c20 40 20 47 0 39 -9 -4 -23 -1 -31 5 -7 7 -16 9 -20 6 -3
-4 5 -15 18 -26 14 -12 18 -20 11 -21 -9 0 -11 -7 -6 -22 6 -19 5 -21 -8 -11
-18 15 -29 7 -21 -14 4 -9 -2 -22 -13 -30 -13 -9 -15 -16 -7 -21 13 -9 19 -51
9 -74 -4 -9 -4 -22 0 -29 4 -7 3 -9 -4 -5 -6 3 -10 25 -10 49 0 23 -8 56 -16
72 -9 17 -16 24 -16 18 0 -7 -7 -13 -15 -13 -8 0 -15 -9 -15 -20 0 -11 -4 -20
-10 -20 -5 0 -10 -5 -10 -11 0 -5 4 -7 10 -4 6 3 10 1 10 -4 0 -6 5 -11 10
-11 6 0 10 7 10 15 0 9 6 12 15 9 17 -7 21 -44 4 -44 -6 0 -5 -6 3 -15 29 -32
36 -43 41 -61 4 -17 5 -17 6 -1 0 10 12 29 25 42 21 21 29 23 48 15 l23 -11
-22 5 c-17 3 -23 -1 -23 -14 0 -10 8 -21 18 -23 9 -3 3 -5 -15 -6 -25 -1 -30
-4 -26 -20 4 -16 17 -26 66 -49 4 -2 7 0 6 5 -1 4 0 24 1 43 l2 35 8 -33 c4
-19 13 -39 19 -45 15 -15 14 -27 -2 -21 -8 3 -13 -3 -13 -14 0 -19 1 -19 30
-1 35 21 46 17 46 -18 0 -20 3 -23 13 -14 8 6 18 7 22 3 5 -4 5 -2 2 4 -4 7
-1 17 7 23 20 17 27 -8 9 -35 -12 -19 -11 -22 12 -32 15 -7 25 -8 25 -2 0 6 9
6 25 0 23 -9 25 -7 27 18 0 15 2 32 3 37 2 6 3 20 4 33 1 27 21 30 21 3 0 -11
5 -23 10 -26 7 -4 9 3 5 22 l-5 28 11 -28 c10 -26 12 -27 25 -10 13 17 13 17
14 -2 1 -17 3 -17 12 5 6 15 12 20 15 12 3 -6 9 -9 14 -6 6 3 16 0 24 -6 8 -7
15 -9 15 -4 0 4 9 -2 21 -15 19 -20 23 -21 38 -7 9 8 29 13 44 12 25 -3 38 8
17 16 -5 1 -7 13 -4 25 4 13 10 20 15 17 5 -3 9 12 8 33 0 30 -2 34 -9 18 -8
-19 -9 -19 -9 3 -1 13 5 22 14 22 8 0 15 -5 15 -11 0 -5 5 -7 11 -3 8 5 8 9
-1 14 -9 6 -9 13 1 31 12 23 12 23 20 4 4 -11 8 -33 8 -50 1 -22 4 -26 10 -16
5 8 6 24 1 36 -5 12 -7 33 -5 46 18 112 17 110 33 97 12 -10 14 -10 8 -1 -5 9
-2 11 8 7 9 -3 16 -10 16 -15 0 -4 7 -6 15 -3 13 5 13 8 0 21 -13 12 -13 17 0
36 19 29 5 57 -19 38 -9 -8 -16 -20 -16 -28 0 -25 -25 -8 -27 18 l-2 24 8 -25
7 -25 8 24 c6 18 4 28 -7 36 -14 10 -13 13 5 24 11 7 17 15 14 18 -3 3 2 12
11 18 15 11 15 14 2 27 -8 8 -22 17 -33 21 -13 5 -15 11 -8 20 7 8 7 18 2 27
-12 19 -13 33 -1 26 11 -7 23 22 15 35 -3 5 -10 7 -15 4 -14 -9 -11 21 4 34
10 8 17 7 26 -2 9 -9 13 -7 18 11 3 12 17 29 32 37 25 14 25 14 3 12 -16 -1
-30 6 -40 22 -16 23 -15 23 5 17 12 -4 24 -2 28 4 3 6 11 8 16 5 5 -4 9 -2 9
3 0 6 11 9 25 8 14 0 25 -2 25 -4 0 -8 -28 -31 -32 -26 -3 3 -3 -6 -1 -20 5
-25 27 -41 44 -30 5 3 9 -3 9 -13 0 -15 2 -16 10 -3 8 13 10 13 10 -2 0 -9 -6
-19 -12 -21 -8 -3 -6 -6 5 -6 9 -1 17 4 17 11 0 8 6 6 17 -4 13 -13 14 -20 4
-31 -9 -12 -7 -16 9 -20 12 -3 20 0 20 7 0 24 25 66 38 61 19 -7 14 7 -14 38
-18 22 -28 26 -38 18 -10 -8 -12 -6 -10 12 1 12 3 29 4 37 1 10 3 11 7 3 6
-16 49 -17 58 -3 4 6 1 18 -7 27 -10 13 -10 17 0 20 6 3 12 13 12 24 0 27 50
27 57 -1 3 -11 9 -18 13 -15 10 6 22 -24 14 -36 -3 -5 1 -12 9 -15 15 -5 12
-54 -4 -54 -5 0 -9 -9 -9 -21 0 -11 -4 -18 -9 -15 -11 7 -22 -61 -15 -98 3
-17 1 -25 -6 -21 -5 3 -10 1 -10 -5 0 -6 7 -13 15 -17 14 -5 14 -8 0 -29 -19
-30 -19 -40 0 -24 18 15 18 10 5 -24 -7 -18 -6 -26 1 -26 7 0 9 -9 6 -21 -3
-12 0 -22 8 -25 8 -3 12 -15 9 -29 -2 -12 3 -28 11 -35 8 -7 12 -16 9 -21 -3
-5 5 -9 16 -9 17 0 21 4 15 18 -4 12 -3 14 5 6 7 -7 7 -18 1 -35 -5 -13 -10
-18 -10 -11 -1 6 -10 12 -21 12 -11 0 -20 7 -20 15 0 8 -4 15 -10 15 -15 0
-12 -16 6 -34 15 -15 11 -21 -11 -16 -5 1 -7 -2 -2 -6 4 -4 1 -15 -7 -23 -10
-11 -12 -21 -6 -31 8 -12 10 -11 10 7 0 27 16 38 24 17 3 -8 2 -12 -4 -9 -6 3
-10 1 -10 -4 0 -6 5 -11 10 -11 6 0 10 -9 10 -20 0 -11 4 -20 10 -20 5 0 7 7
4 15 -4 9 0 15 9 15 20 0 31 -31 15 -42 -10 -6 -9 -8 3 -8 9 0 19 6 22 14 6
15 47 29 47 16 0 -5 -5 -10 -10 -12 -7 -2 -5 -11 5 -23 11 -15 14 -16 9 -3 -4
13 -1 15 15 11 12 -3 17 -11 14 -19 -3 -10 2 -14 18 -14 19 0 21 2 9 10 -11 7
-12 10 -2 10 19 0 45 27 30 32 -14 5 -3 51 17 72 11 11 13 21 5 40 -8 23 -7
26 10 26 25 0 25 5 0 32 -20 22 -26 39 -12 37 22 -4 34 3 29 15 -3 8 6 26 20
40 24 24 28 25 43 11 9 -8 25 -15 36 -15 11 0 26 -6 33 -13 11 -10 13 -9 8 5
-8 22 18 45 27 23 9 -24 22 -18 40 18 17 35 22 23 6 -17 -15 -40 -3 -58 32
-51 17 4 35 2 43 -5 8 -6 19 -9 25 -5 15 9 1 28 -16 21 -9 -4 -14 2 -14 18 0
30 -10 38 -29 23 -14 -11 -14 -10 -2 6 19 24 28 21 39 -10 9 -25 10 -26 11 -6
1 13 6 22 13 20 18 -3 22 33 4 51 -18 21 -16 39 6 71 14 20 20 22 32 12 22
-19 29 4 10 34 -16 24 -11 31 19 26 4 0 6 14 6 32 -1 21 -3 25 -6 10 -5 -27
-24 -35 -41 -17 -11 12 -9 14 10 15 13 0 17 3 11 6 -7 2 -13 12 -13 20 0 9 3
14 6 10 3 -3 17 -2 30 3 23 9 23 8 21 -50 -2 -63 -5 -68 -26 -48 -11 11 -12 9
-3 -8 11 -22 58 -38 67 -24 3 4 -2 13 -10 20 -19 16 -19 31 0 24 10 -4 15 0
15 11 0 9 -5 13 -11 9 -8 -4 -9 0 -4 15 4 12 2 21 -4 21 -12 0 -11 22 2 31 5
3 19 4 32 1 23 -4 35 -27 35 -69 0 -13 4 -23 10 -23 5 0 7 7 4 15 -4 9 0 15 7
15 12 0 12 2 1 9 -8 4 -12 19 -10 32 3 24 5 24 113 26 61 1 110 2 110 2 0 2
278 2 478 -1 108 -1 197 -6 197 -11 0 -4 5 -5 11 -1 7 4 29 8 50 9 36 2 39 0
40 -24 l1 -26 7 25 c7 26 39 34 54 15 4 -6 11 -4 17 5 8 12 13 13 29 3 12 -8
22 -9 26 -3 6 9 85 10 85 0 0 -3 27 -5 60 -5 55 1 61 -1 58 -19 -2 -12 -16
-24 -37 -31 -19 -6 -37 -19 -41 -29 -3 -10 -10 -17 -15 -16 -5 1 -10 -3 -11
-10 -2 -7 -1 -7 3 0 3 8 9 7 19 -1 11 -9 14 -8 14 4 0 11 19 27 33 27 1 0 2
-11 2 -25 0 -14 -3 -25 -7 -25 -5 0 -8 5 -8 11 0 5 -5 7 -10 4 -6 -4 -7 -12
-3 -18 5 -9 3 -9 -8 -1 -23 18 -47 12 -54 -13 -5 -22 -25 -24 -25 -2 0 6 5 7
10 4 6 -3 10 0 10 7 0 7 3 23 6 35 4 14 2 23 -5 23 -7 0 -9 -5 -6 -10 11 -17
-14 -38 -38 -33 -18 4 -19 3 -7 -6 12 -9 10 -11 -11 -11 -21 0 -28 -6 -33 -26
-4 -15 -5 -29 -1 -32 3 -3 5 2 5 11 0 29 20 19 21 -10 1 -23 3 -24 6 -6 5 25
33 40 33 18 0 -8 -4 -15 -10 -15 -5 0 -10 -7 -10 -15 0 -9 8 -14 23 -12 14 1
21 -3 19 -12 -3 -12 0 -12 13 -1 19 15 34 5 17 -12 -7 -7 -12 -17 -12 -23 0
-5 5 -2 11 8 6 9 14 15 20 12 5 -4 9 0 9 7 0 15 -20 48 -20 33 0 -5 -5 -3 -10
5 -7 11 -10 12 -10 2 0 -10 -3 -10 -15 2 -21 20 -19 29 5 23 11 -3 17 -1 14 4
-4 8 18 39 28 39 2 0 4 -17 4 -38 1 -21 8 -52 15 -68 18 -37 46 -44 51 -12 2
13 9 22 17 20 9 -2 12 4 8 18 -7 26 1 25 30 -2 20 -19 26 -20 48 -8 13 7 22
17 19 22 -3 4 2 8 10 8 9 0 16 4 16 9 0 5 -9 7 -20 4 -15 -4 -19 -2 -14 10 3
9 12 13 20 10 10 -3 12 0 8 10 -3 8 -1 18 5 22 6 3 11 1 11 -5 0 -6 4 -9 9 -6
17 11 61 -13 60 -31 0 -15 -2 -15 -7 -3 -8 18 -32 25 -32 10 0 -6 9 -20 20
-32 l19 -21 9 24 c5 13 7 30 4 38 -4 9 -1 12 7 7 7 -5 10 -14 7 -22 -3 -8 0
-11 10 -7 7 3 14 0 14 -6 0 -6 -7 -11 -16 -11 -8 0 -13 -4 -9 -9 10 -17 -27
-30 -43 -15 -15 16 -46 19 -37 5 3 -6 -3 -14 -12 -20 -15 -8 -15 -10 -2 -11 8
0 20 5 26 11 7 7 15 0 26 -23 12 -24 17 -27 17 -14 0 19 0 19 13 1 14 -18 43
-13 31 6 -9 15 19 6 34 -11 12 -13 13 -13 8 3 -3 10 -6 25 -6 33 0 9 -4 13 -9
10 -5 -3 -15 2 -22 11 -10 12 -10 14 -1 9 7 -4 12 -1 12 9 0 9 5 13 10 10 6
-4 8 -11 5 -16 -3 -5 1 -6 9 -3 23 9 20 19 -10 33 -15 6 -24 14 -21 17 7 8 67
-34 67 -47 0 -5 -6 -9 -12 -9 -10 0 -9 -3 1 -9 11 -7 10 -11 -5 -20 -11 -6
-14 -10 -9 -10 20 0 50 24 53 43 2 10 -1 15 -7 12 -5 -4 -15 3 -21 14 -9 16
-8 22 4 26 11 4 13 14 9 35 -6 33 12 41 22 9 4 -11 11 -18 16 -15 5 4 13 -4
18 -17 10 -23 10 -23 10 4 1 14 -5 28 -11 31 -10 3 -10 8 1 21 12 14 12 18 -4
30 -13 9 -16 20 -10 44 4 20 11 30 18 25 6 -3 3 4 -6 18 -19 26 -23 54 -7 44
6 -3 10 1 10 11 0 14 7 15 39 10 37 -6 39 -5 34 17 -4 21 -4 21 10 4 10 -12
17 -14 22 -8 3 6 1 11 -5 11 -6 0 -8 5 -4 11 3 6 15 9 25 6 10 -3 20 0 23 7 3
8 7 7 14 -2 5 -7 16 -10 27 -6 11 5 16 3 12 -2 -3 -6 -2 -16 4 -24 7 -13 9
-12 9 3 0 9 5 17 10 17 6 0 10 -9 10 -19 0 -35 25 -31 27 5 1 19 -3 34 -8 34
-6 0 -7 5 -4 10 3 6 -1 10 -9 10 -9 0 -16 5 -16 11 0 5 -5 7 -12 3 -7 -4 -8
-3 -4 5 6 8 12 9 20 2 9 -7 17 -7 26 2 9 8 11 9 6 0 -3 -6 -2 -14 4 -18 5 -3
10 -15 10 -25 0 -13 5 -17 15 -14 8 4 15 1 15 -5 0 -6 8 -11 18 -11 16 1 16 1
0 11 -22 12 -23 26 -3 45 8 9 15 24 15 35 0 10 4 19 10 19 5 0 9 -6 7 -12 -3
-18 25 -16 31 1 3 8 0 11 -6 7 -6 -4 -6 3 1 18 7 14 15 20 18 14 4 -6 12 -7
18 -4 19 12 -23 48 -45 39 -18 -6 -18 -6 -2 10 9 9 24 17 32 17 9 0 16 5 16
11 0 6 -7 9 -15 6 -8 -4 -17 -2 -20 3 -4 6 4 10 16 10 12 0 19 3 15 7 -8 8
-13 9 -41 12 -24 2 -17 14 19 38 25 16 36 19 45 10 8 -8 11 -8 11 2 0 7 -9 15
-20 18 -11 3 -20 9 -20 14 0 5 -7 6 -15 3 -13 -5 -14 -2 -5 20 7 18 6 26 -1
26 -8 0 -7 5 1 15 11 13 10 14 -4 9 -9 -3 -16 -12 -16 -19 0 -7 -7 -19 -16
-26 -15 -12 -16 -11 -9 11 4 14 14 28 21 33 7 4 10 15 7 24 -5 12 -2 15 10 10
12 -4 14 -2 10 10 -4 11 -2 14 8 11 8 -3 13 -12 11 -21 -2 -11 3 -14 18 -10
21 6 28 23 9 23 -6 0 -9 7 -5 15 3 8 1 15 -4 15 -6 0 -9 5 -7 11 1 6 -4 14
-10 16 -7 3 -13 -3 -13 -12 0 -9 -4 -14 -9 -11 -12 8 -3 42 15 57 11 9 14 8
14 -6 0 -14 3 -15 15 -5 13 10 15 9 15 -9 0 -11 5 -21 11 -21 6 0 9 7 5 15 -3
8 -1 15 5 15 5 0 9 6 8 12 -3 15 18 68 26 68 4 0 4 -4 1 -9 -3 -5 0 -11 8 -14
11 -4 13 3 9 32 -6 44 17 72 42 51 9 -7 15 -8 15 -2 0 10 -25 24 -45 26 -5 1
-11 9 -13 18 -2 13 2 15 19 11 13 -4 26 0 33 9 6 8 20 18 31 22 15 5 17 4 8
-5 -14 -14 6 -39 32 -39 14 0 14 3 1 22 -15 24 -16 74 -2 96 4 7 5 16 2 19 -3
4 -6 1 -6 -6 0 -7 -4 -10 -9 -7 -5 3 -7 15 -4 26 3 11 9 18 13 15 4 -2 6 20 5
49 -1 39 2 53 10 49 20 -7 27 28 9 42 -12 8 -15 19 -10 39 4 15 11 24 16 21 6
-3 7 1 4 10 -8 20 -15 13 -32 -28 -7 -18 -10 -22 -8 -9 2 12 -1 22 -7 22 -8 0
-8 3 -2 8 6 4 10 16 11 28 0 16 -5 20 -23 18 -13 -1 -25 2 -29 7 -3 5 -10 9
-17 9 -8 0 -8 -3 1 -12 18 -18 14 -34 -12 -46 -19 -9 -25 -8 -30 4 -4 10 2 14
21 14 22 0 24 2 13 15 -9 11 -16 12 -26 4 -15 -12 -38 -3 -28 12 3 5 10 6 16
3 7 -4 8 -2 4 5 -4 6 -11 9 -16 6 -5 -3 -12 -1 -15 5 -4 6 -3 9 2 8 14 -4 53
13 53 23 0 5 5 9 10 9 6 0 10 -8 10 -17 0 -15 2 -16 10 -3 8 13 10 13 10 -2 0
-26 30 -11 31 16 1 16 2 17 6 4 4 -14 10 -11 34 16 21 24 37 33 54 31 21 -2
25 2 25 25 0 28 -11 33 -37 17 -9 -6 -13 -1 -13 13 0 17 3 19 19 10 25 -13 29
-5 25 50 -1 25 1 59 6 77 7 27 6 31 -10 28 -27 -5 -60 6 -60 20 0 15 31 15 43
0 11 -16 27 17 23 47 -3 17 0 27 7 25 6 -1 13 9 14 23 1 14 0 19 -3 12 -7 -15
-44 38 -44 62 0 21 -26 67 -33 59 -4 -3 -7 -1 -7 6 0 7 -4 9 -10 6 -6 -3 -10
5 -10 19 0 15 7 27 19 31 27 8 32 28 16 59 -8 15 -10 28 -4 31 15 10 10 20
-13 30 -14 6 -22 18 -21 30 1 11 0 14 -3 8 -9 -21 -26 -15 -19 7 4 13 2 20 -6
20 -7 0 -4 6 7 14 24 18 10 35 -34 41 -27 3 -32 0 -32 -17 0 -19 -1 -19 -19 3
-11 13 -17 26 -15 29 3 2 9 -2 13 -9 6 -9 11 -10 15 -2 4 6 12 9 17 6 5 -4 9
2 10 12 0 10 3 13 6 6 7 -18 23 -16 39 5 13 16 14 16 7 -3 -6 -18 -5 -19 12
-5 10 8 16 11 13 5 -3 -5 0 -16 8 -23 10 -9 14 -9 14 -1 0 6 6 9 14 6 10 -4
12 0 8 15 -4 17 -1 19 17 13 15 -5 21 -2 21 9 0 9 4 16 8 16 9 0 10 14 11 80
0 25 0 58 0 73 0 15 -4 25 -9 22 -6 -4 -10 -1 -10 5 0 7 9 14 19 17 23 6 36
43 15 43 -8 0 -14 4 -14 9 0 5 -9 7 -20 4 -11 -3 -20 -10 -20 -16 0 -6 -2 -8
-5 -5 -9 8 6 38 16 32 5 -3 9 0 9 6 0 6 4 9 8 6 4 -3 13 8 19 23 9 25 8 28 -8
24 -10 -3 -16 -9 -13 -14 3 -5 0 -9 -5 -9 -16 0 -13 29 4 47 8 8 12 19 9 25
-4 6 -10 5 -15 -3 -7 -12 -9 -11 -9 0 0 11 -4 10 -13 -4 -11 -14 -16 -15 -22
-5 -5 9 -4 15 3 18 7 2 10 8 6 13 -3 5 0 8 7 7 6 -2 13 2 16 9 2 7 -4 11 -14
11 -10 -1 -31 2 -46 6 -22 5 -28 4 -25 -6 3 -7 12 -13 21 -13 8 0 19 -4 23 -8
4 -4 0 -7 -9 -7 -21 0 -21 -7 -2 -26 17 -17 20 -44 5 -44 -5 0 -7 7 -4 15 4 9
-3 16 -19 20 -18 5 -23 12 -20 26 3 10 1 19 -5 19 -5 0 -12 13 -14 29 -2 17
-1 28 4 25 4 -3 8 6 8 20 0 14 -5 28 -11 31 -5 4 -8 21 -5 38 3 18 3 27 1 22
-3 -6 -21 -9 -40 -7 -20 2 -32 8 -29 14 4 6 -3 5 -15 -1 -29 -16 -27 -29 4
-23 16 3 25 0 25 -8 0 -7 7 -10 15 -6 9 3 19 -3 25 -14 6 -11 7 -20 3 -20 -4
0 -1 -4 7 -10 8 -5 12 -12 8 -15 -3 -4 -16 3 -27 14 -26 26 -28 26 -35 -4 -6
-22 -9 -23 -26 -13 -11 7 -20 17 -20 22 0 6 5 5 12 -2 15 -15 28 -15 28 -1 0
5 -4 8 -9 4 -5 -3 -12 -1 -16 5 -11 17 -23 11 -33 -17 -9 -23 -11 -24 -12 -8
l-1 20 -9 -20 c-5 -11 -9 -14 -9 -6 -1 10 -4 11 -15 2 -10 -8 -16 -9 -21 -1
-3 5 1 13 9 16 9 3 14 10 11 14 -3 5 -1 11 4 14 11 7 2 46 -11 46 -5 0 -7 4
-3 9 3 6 -3 15 -12 21 -14 9 -15 10 -2 7 25 -8 42 14 23 28 -14 10 -14 13 2
26 16 13 17 12 10 -6 -6 -16 -5 -17 5 -8 16 16 -5 68 -23 57 -8 -5 -9 1 -4 20
4 16 2 26 -4 26 -6 0 -9 4 -6 9 3 5 -1 11 -9 15 -8 3 -15 2 -15 -3 0 -5 -11
-8 -25 -8 -14 0 -25 4 -25 9 0 5 -4 7 -9 4 -16 -11 -34 23 -27 54 4 20 2 30
-7 30 -8 0 -7 4 3 10 13 8 12 10 -2 10 -12 0 -18 8 -18 23 1 21 2 21 14 4 12
-16 14 -16 20 -2 4 11 2 14 -6 9 -7 -4 -8 -3 -4 4 5 8 14 8 32 0 25 -12 25
-13 6 -21 -11 -5 -20 -18 -19 -28 1 -12 5 -15 13 -9 6 6 14 7 17 3 4 -3 7 2 7
11 0 12 5 16 15 12 18 -7 20 5 3 23 -10 11 -10 14 0 18 28 10 9 22 -30 19 -48
-3 -68 1 -68 16 0 5 5 6 12 2 8 -5 9 -2 5 10 -4 10 -7 25 -7 33 0 13 -2 13
-17 2 -15 -12 -16 -12 -10 4 4 10 7 21 7 23 0 3 5 2 10 -1 12 -7 12 2 0 30 -5
11 -9 15 -9 9 -1 -7 -8 -15 -17 -18 -8 -3 -13 -2 -9 3 3 5 2 11 -2 14 -5 2 -3
3 3 1 6 -1 24 9 39 22 15 13 25 24 20 24 -4 0 -2 6 4 14 7 9 8 17 3 20 -6 3
-13 -1 -16 -10 -3 -8 -10 -12 -16 -9 -5 3 -10 1 -10 -5 0 -6 -5 -8 -10 -5 -6
4 -4 12 5 21 8 9 13 20 9 25 -6 10 30 61 38 53 3 -3 8 2 11 11 4 8 2 16 -3 16
-6 1 -14 3 -20 4 -5 1 -13 3 -17 4 -5 1 -1 6 7 11 13 8 12 10 -2 10 -10 0 -18
-6 -18 -14 0 -9 -8 -12 -25 -8 -14 2 -25 11 -25 21 0 13 -2 13 -9 3 -6 -10
-10 -7 -15 13 -4 14 -4 30 -1 35 4 6 0 10 -7 10 -10 0 -10 2 -1 8 7 5 9 13 3
21 -4 8 -7 19 -6 25 2 6 1 8 -1 3 -7 -12 -23 3 -23 21 0 18 -34 23 -58 8 -8
-4 -12 -1 -12 10 0 11 6 15 20 11 13 -3 20 0 20 10 0 8 4 11 10 8 5 -3 2 11
-6 31 -8 19 -10 33 -5 29 7 -4 11 4 11 19 0 27 16 44 22 24 3 -9 6 -9 12 0 4
7 0 15 -11 19 -10 4 -21 11 -25 17 -5 8 -14 7 -29 -2 -11 -7 -24 -11 -27 -8
-3 3 0 6 6 6 16 0 15 32 -1 55 -11 14 -16 15 -22 5 -5 -9 -4 -11 3 -6 7 4 12
3 12 -2 0 -19 -14 -21 -26 -4 -13 16 -13 16 -14 -3 0 -16 -2 -17 -12 -6 -11
11 -10 14 0 18 22 8 43 35 38 49 -3 8 0 14 7 14 7 0 13 14 13 33 3 73 17 156
26 151 4 -3 6 -9 4 -13 -3 -4 2 -8 10 -8 10 0 14 7 11 19 -3 10 -1 21 4 24 5
3 9 -2 9 -10 0 -25 17 -18 24 9 5 21 22 34 62 50 1 0 5 10 8 23 5 13 3 22 -3
22 -6 0 -11 -7 -11 -15 0 -8 -4 -15 -10 -15 -5 0 -7 7 -4 15 4 10 0 15 -15 15
-12 0 -21 5 -21 11 0 5 4 8 9 5 5 -3 12 1 15 10 4 12 2 15 -9 10 -8 -3 -14 0
-12 6 3 14 -57 31 -61 17 -3 -6 -9 -6 -18 2 -11 9 -14 8 -14 -2 0 -9 -3 -10
-8 -3 -13 20 -51 23 -62 6 -5 -10 -10 -12 -10 -6 0 7 -9 14 -20 17 -13 3 -21
-1 -26 -16 -6 -18 -7 -18 -16 -4 -11 20 -39 22 -56 5 -9 -9 -12 -9 -12 3 0 12
-9 14 -42 11 -24 -2 -56 -4 -73 -3 -16 0 -75 1 -130 0 -118 0 -111 0 -197 5
-38 3 -72 7 -77 11 -5 3 -12 2 -14 -2 -3 -5 -26 -7 -52 -5 -31 3 -43 7 -34 13
7 4 10 12 5 16 -4 4 -13 0 -20 -10 -19 -25 -36 -21 -36 8 0 14 -5 25 -11 25
-5 0 -7 -4 -4 -10 3 -5 2 -10 -3 -10 -15 0 -22 54 -9 62 12 8 8 9 -33 12 -22
2 -35 -15 -37 -47 -1 -27 0 -28 18 -11 10 9 19 25 19 36 0 10 4 18 9 18 6 0 6
-12 1 -29 -4 -16 -6 -32 -2 -35 3 -3 -3 -6 -14 -7 -10 0 -13 -3 -6 -6 6 -2 12
-10 12 -16 0 -11 -75 -14 -155 -7 l-20 1 20 9 c15 7 16 9 4 9 -9 1 -22 -6 -30
-15 -9 -11 -22 -14 -44 -10 -26 5 -34 2 -44 -16 -6 -13 -10 -16 -7 -6 4 12 -3
16 -29 16 -18 0 -42 3 -54 7 -12 3 -21 2 -21 -3 0 -5 -10 -9 -22 -8 -14 1 -23
-5 -23 -14 0 -14 -13 -30 -26 -30 -3 0 -4 12 -1 28 l4 27 -101 0 c-56 0 -101
-3 -101 -6 0 -3 -7 -6 -15 -6 -8 0 -15 3 -15 6 0 3 -39 5 -87 5 -105 -2 -103
-2 -103 -13 0 -6 8 -8 18 -6 10 1 26 -3 37 -11 17 -13 18 -16 5 -24 -15 -9
-45 -14 -85 -13 -11 0 -23 -5 -27 -11 -5 -7 -8 -5 -8 5 0 19 -26 33 -35 19 -4
-6 -11 -10 -17 -10 -7 0 -6 5 2 15 8 10 10 28 5 52 -4 24 -9 32 -15 23 -5 -9
-10 -3 -15 19 -4 17 -11 28 -17 25 -6 -4 -8 1 -3 15 5 16 3 20 -9 15 -11 -4
-16 -1 -16 10 0 9 -5 15 -11 14 -6 -2 -13 8 -15 22 -3 13 -10 29 -16 35 -8 7
-9 6 -4 -2z m2472 -1842 c37 4 74 -1 74 -9 0 -12 -32 -11 -50 1 -12 9 -13 9
-3 -3 10 -10 9 -16 -3 -24 -15 -12 -10 -46 7 -46 5 0 9 -4 9 -10 0 -5 -7 -10
-15 -10 -14 0 -19 12 -16 33 2 14 -17 7 -23 -9 -4 -9 -2 -13 5 -8 7 4 10 1 7
-7 -3 -8 2 -20 11 -27 14 -12 13 -13 -7 -9 -12 3 -20 1 -16 -4 3 -5 -1 -9 -8
-9 -10 0 -9 -3 2 -9 8 -6 18 -7 22 -5 4 3 5 -2 2 -10 -7 -18 -20 -21 -26 -7
-1 5 -14 11 -27 13 -17 2 -26 -3 -32 -20 -7 -17 -6 -21 4 -15 18 11 91 11 99
-1 4 -6 2 -16 -4 -23 -8 -10 -5 -13 11 -13 11 0 21 -4 21 -10 0 -5 -5 -10 -11
-10 -6 0 -7 -5 -2 -12 16 -27 12 -40 -7 -23 -14 13 -19 13 -22 3 -4 -11 -8
-10 -21 1 -9 7 -14 17 -11 22 9 15 -6 10 -23 -6 -8 -9 -18 -13 -22 -9 -3 4 0
9 7 11 6 3 12 10 12 15 0 6 -3 8 -7 5 -3 -4 -12 1 -20 11 -8 9 -12 11 -8 5 3
-7 2 -13 -4 -13 -19 0 -22 39 -6 64 9 14 14 34 11 46 -3 11 -9 29 -12 40 -3
12 -1 20 6 20 6 0 8 -4 5 -10 -3 -5 3 -10 14 -10 13 0 21 -7 21 -17 0 -15 2
-16 10 -3 14 21 12 30 -4 30 -7 0 -16 9 -19 21 -4 16 -3 18 8 9 15 -13 41 -4
49 17 4 10 2 13 -7 10 -8 -3 -14 5 -15 22 -1 16 1 21 6 13 5 -7 17 -12 28 -11z"/>
<path d="M6800 1472 c0 -10 -10 -27 -22 -38 -19 -17 -21 -17 -15 -1 4 9 2 17
-3 17 -6 0 -10 -7 -10 -15 0 -8 -3 -14 -7 -14 -5 1 -19 1 -32 0 -23 -1 -23 -1
-6 -28 16 -24 16 -26 0 -20 -12 5 -18 1 -22 -13 -3 -11 -9 -17 -14 -14 -5 3
-9 -4 -9 -15 0 -12 3 -21 6 -21 10 0 34 29 34 42 1 8 6 6 15 -6 8 -10 11 -24
8 -30 -4 -6 0 -5 9 2 11 9 18 10 23 2 9 -15 25 -12 25 4 0 7 7 19 16 27 13 11
15 11 14 -2 -1 -7 -2 -25 -1 -39 1 -19 3 -22 10 -10 6 8 7 18 5 22 -3 4 4 8
16 8 20 0 19 2 -7 25 -22 19 -24 24 -10 25 9 0 17 7 17 16 0 9 7 22 17 29 11
8 14 18 9 31 -7 18 -8 17 -21 -6 -8 -14 -14 -21 -15 -16 0 6 -6 2 -13 -9 -8
-11 -19 -15 -26 -10 -9 5 -7 12 8 26 23 22 26 35 11 44 -5 3 -10 -2 -10 -13z"/>
</g>
</svg>
