<?xml version="1.0" standalone="no"?>
<!DOCTYPE svg PUBLIC "-//W3C//DTD SVG 20010904//EN"
 "http://www.w3.org/TR/2001/REC-SVG-20010904/DTD/svg10.dtd">
<svg version="1.0" xmlns="http://www.w3.org/2000/svg"
 width="1024.000000pt" height="724.000000pt" viewBox="0 0 1024.000000 724.000000"
 preserveAspectRatio="xMidYMid meet">
<metadata>
Created by potrace 1.16, written by Peter Selinger 2001-2019
</metadata>
<g transform="translate(0.000000,724.000000) scale(0.100000,-0.100000)"
fill="#000000" stroke="none">
<path d="M3185 5499 c-26 -4 -9 -6 50 -6 88 -1 96 3 25 9 -19 2 -53 0 -75 -3z"/>
<path d="M3660 5480 l-25 -6 25 -6 c14 -3 32 -9 41 -12 10 -5 19 -2 22 7 7 18
-26 26 -63 17z"/>
<path d="M7733 5483 c9 -2 25 -2 35 0 9 3 1 5 -18 5 -19 0 -27 -2 -17 -5z"/>
<path d="M3495 5470 c-3 -5 -1 -10 4 -10 6 0 11 5 11 10 0 6 -2 10 -4 10 -3 0
-8 -4 -11 -10z"/>
<path d="M3528 5473 c7 -3 16 -2 19 1 4 3 -2 6 -13 5 -11 0 -14 -3 -6 -6z"/>
<path d="M3748 5473 c6 -2 18 -2 25 0 6 3 1 5 -13 5 -14 0 -19 -2 -12 -5z"/>
<path d="M5650 5470 c8 -5 26 -10 39 -10 32 0 24 6 -19 14 -25 4 -31 3 -20 -4z"/>
<path d="M3110 5460 c0 -5 5 -10 11 -10 5 0 7 5 4 10 -3 6 -8 10 -11 10 -2 0
-4 -4 -4 -10z"/>
<path d="M3215 5459 c-26 -4 -4 -7 63 -8 59 0 102 3 102 9 0 10 -97 9 -165 -1z"/>
<path d="M6638 5463 c17 -2 47 -2 65 0 17 2 3 4 -33 4 -36 0 -50 -2 -32 -4z"/>
<path d="M6818 5463 c12 -2 32 -2 45 0 12 2 2 4 -23 4 -25 0 -35 -2 -22 -4z"/>
<path d="M6898 5463 c7 -3 16 -2 19 1 4 3 -2 6 -13 5 -11 0 -14 -3 -6 -6z"/>
<path d="M4770 5450 c30 -4 81 -5 113 -2 34 3 57 1 57 -5 0 -16 -104 -22 -350
-23 -349 -1 -352 -1 -344 11 5 9 -3 10 -29 5 -21 -4 -38 -2 -42 4 -3 5 -16 10
-28 10 -18 -1 -15 -4 12 -15 18 -8 43 -15 55 -16 13 -1 8 -4 -14 -9 -20 -5
-42 -4 -52 1 -10 6 -44 7 -76 4 -39 -4 -86 0 -146 13 -64 13 -103 16 -140 11
-28 -4 -132 -11 -231 -14 -179 -6 -353 -20 -305 -24 14 -1 36 -8 50 -16 l25
-14 -25 -2 -25 -1 25 -8 c24 -8 24 -8 -5 -9 -16 0 -37 4 -45 9 -8 5 -10 10 -5
10 6 0 3 5 -5 10 -9 6 -106 9 -230 9 -129 -1 -195 -4 -165 -9 28 -4 100 -5
160 -3 61 2 133 0 160 -4 l50 -6 -35 -8 c-19 -4 -156 -8 -305 -8 -325 0 -417
-2 -387 -8 41 -8 12 -23 -46 -24 -41 0 -51 -3 -37 -9 11 -5 35 -9 53 -9 19 -1
31 -5 27 -11 -3 -6 -52 -10 -111 -10 -72 0 -103 -3 -99 -11 4 -6 13 -8 21 -5
8 3 22 2 32 -2 11 -5 1 -9 -33 -13 -27 -4 27 -6 121 -5 133 1 170 4 167 14 -3
6 2 12 10 12 8 0 17 -7 21 -15 3 -10 19 -15 46 -15 36 0 40 -2 36 -22 -3 -23
-4 -23 -229 -28 -129 -4 -231 -10 -237 -16 -6 -6 1 -11 21 -12 16 -1 44 -8 60
-15 27 -11 21 -12 -63 -12 -106 -1 -246 -29 -265 -54 -8 -9 -11 -29 -8 -45 4
-23 2 -27 -11 -22 -9 3 -34 7 -57 7 -34 2 -36 3 -12 6 36 5 56 22 29 23 -10 0
-55 4 -99 8 -79 7 -79 7 -35 15 68 12 130 38 130 55 0 12 -10 14 -51 9 -58 -7
-118 -26 -137 -44 -11 -11 -11 -13 0 -14 7 0 4 -4 -7 -9 -14 -6 -16 -9 -5 -11
8 -1 -3 -5 -25 -9 l-40 -6 40 -8 c66 -13 72 -15 55 -26 -17 -11 15 -15 82 -11
20 2 45 -3 55 -9 15 -9 10 -10 -25 -7 -24 3 -40 1 -36 -4 3 -5 14 -9 25 -9 10
0 19 -5 19 -10 0 -6 -17 -8 -41 -5 -50 6 -62 0 -49 -26 6 -11 22 -19 38 -20
15 0 21 -3 14 -6 -6 -2 -10 -9 -6 -14 3 -5 -12 -10 -33 -10 -21 -1 -30 -3 -21
-6 9 -2 34 -13 55 -23 l38 -19 -40 -2 c-22 0 -51 -5 -65 -9 -20 -6 -14 -8 28
-9 51 -1 77 -21 27 -21 -29 0 -34 -16 -7 -23 9 -3 -2 -5 -25 -6 -24 0 -43 -6
-43 -12 0 -5 3 -8 8 -6 4 3 21 -1 37 -8 l30 -13 -45 -2 -45 -2 45 -11 c31 -8
38 -12 24 -14 -12 -2 -30 -13 -40 -24 -9 -10 -30 -19 -46 -19 -15 0 -28 -4
-28 -10 0 -5 6 -10 13 -10 23 0 -17 -20 -43 -20 -22 -1 -21 -3 10 -15 19 -8
62 -19 95 -26 49 -10 55 -13 35 -19 -14 -3 -41 -3 -60 1 -19 4 -51 10 -70 13
-34 6 -34 5 5 -8 27 -9 35 -15 25 -19 -9 -4 -6 -6 7 -3 13 2 24 -2 27 -11 5
-12 1 -14 -21 -9 -21 5 -24 4 -13 -4 8 -5 22 -10 31 -10 9 0 20 -7 23 -15 4
-11 -3 -17 -25 -22 -19 -4 -26 -9 -19 -13 7 -4 9 -13 6 -19 -4 -6 -12 -9 -17
-6 -5 4 -9 3 -10 -2 -6 -59 -5 -63 16 -58 18 5 18 5 2 -5 -16 -10 -15 -13 14
-33 37 -25 48 -47 24 -47 -9 0 -13 -4 -10 -10 3 -5 -1 -10 -9 -10 -21 0 -20
-16 1 -25 16 -6 15 -8 -5 -16 -13 -5 -34 -6 -46 -3 -16 4 -23 1 -23 -9 0 -8 5
-14 11 -14 6 0 20 -1 31 -2 17 -1 18 -3 5 -11 -13 -9 -13 -11 0 -20 13 -9 13
-11 0 -20 -13 -8 -12 -11 4 -23 11 -8 16 -19 12 -26 -5 -7 0 -18 10 -26 18
-13 18 -14 2 -15 -52 -1 24 -66 87 -75 28 -4 57 -12 65 -16 9 -6 -3 -7 -32 -3
-57 8 -64 -8 -10 -23 l37 -10 -45 -3 c-38 -2 -41 -3 -20 -10 l25 -8 -25 -2
c-24 -2 -24 -2 -3 -8 21 -7 21 -8 4 -28 -13 -16 -25 -20 -44 -17 -16 3 -27 1
-27 -6 0 -6 6 -11 13 -11 24 0 -18 -20 -43 -20 -41 -1 -5 -16 82 -36 62 -14
75 -20 58 -26 -13 -5 -48 -2 -87 7 -36 9 -68 13 -70 11 -3 -3 12 -8 32 -12 27
-5 33 -9 23 -16 -9 -7 -7 -8 10 -5 12 3 20 1 16 -4 -3 -5 1 -9 8 -10 7 -1 2
-5 -12 -9 -21 -7 -22 -8 -4 -9 20 -1 44 -19 44 -33 0 -4 -15 -8 -32 -8 -28 -1
-30 -2 -15 -11 21 -12 13 -31 -10 -22 -13 5 -15 2 -10 -11 4 -9 3 -15 -2 -12
-5 3 -8 -5 -7 -19 1 -20 5 -24 21 -19 l20 6 -20 -16 c-18 -14 -18 -15 -2 -16
9 0 17 -4 17 -10 0 -5 5 -10 11 -10 11 0 39 -24 39 -34 0 -3 -7 -6 -15 -6 -8
0 -15 -4 -15 -9 0 -5 -8 -11 -17 -14 -15 -3 -14 -6 7 -14 l24 -10 -23 -13
c-13 -6 -36 -9 -52 -6 -22 4 -27 2 -22 -9 3 -8 17 -15 32 -15 21 0 23 -2 11
-10 -13 -9 -12 -12 4 -21 14 -9 16 -13 5 -20 -11 -6 -9 -16 8 -48 17 -33 19
-41 7 -41 -7 0 -14 -3 -14 -6 0 -15 61 -64 86 -69 16 -4 37 -9 48 -12 12 -3
16 -1 12 6 -8 12 7 14 42 4 17 -4 22 -11 19 -25 -3 -11 1 -22 9 -25 9 -3 12
-13 9 -24 -4 -12 -1 -21 9 -25 9 -3 16 -10 16 -15 0 -4 -7 -6 -15 -3 -24 10
-17 -8 17 -45 30 -32 33 -33 87 -28 31 4 74 2 96 -2 31 -7 34 -9 15 -11 -20
-2 -21 -3 -6 -7 11 -3 25 -11 32 -17 9 -10 -9 -12 -82 -10 -66 2 -93 0 -88 -7
4 -6 1 -15 -6 -19 -9 -6 -7 -10 9 -15 30 -9 27 -17 -19 -45 -45 -28 -48 -35
-20 -50 11 -6 20 -8 20 -5 0 3 9 1 20 -5 12 -6 20 -21 20 -36 0 -14 -4 -22
-10 -19 -5 3 -10 2 -10 -3 0 -15 -57 -25 -165 -28 -128 -3 -159 -9 -151 -29 4
-12 -4 -15 -37 -16 -23 0 -51 -5 -62 -10 -18 -8 -17 -9 4 -5 14 3 47 -2 73
-11 28 -9 63 -13 83 -10 48 8 44 -7 -5 -23 -46 -15 -47 -32 -4 -41 23 -5 24
-7 7 -8 -29 -1 -29 -8 -1 -31 19 -15 20 -20 10 -33 -11 -13 -10 -19 5 -34 11
-11 17 -25 15 -31 -2 -7 2 -13 10 -14 7 0 -7 -4 -31 -7 l-45 -6 43 -28 c32
-21 52 -28 77 -25 42 5 40 -13 -3 -27 -16 -6 -38 -16 -47 -24 -16 -13 -16 -15
-1 -23 9 -5 29 -6 46 -3 24 5 36 2 54 -15 16 -15 30 -20 44 -15 28 9 61 -11
61 -37 0 -28 22 -88 32 -88 19 0 5 -19 -22 -30 -47 -19 -37 -33 19 -26 26 3
59 2 72 -3 19 -8 7 -10 -56 -12 -44 -2 -96 -2 -115 -1 -34 1 -34 0 15 -18 28
-11 66 -20 85 -20 61 0 68 -17 11 -25 -53 -7 -66 -27 -22 -33 15 -2 21 0 17 7
-5 7 9 10 41 9 37 -1 40 -2 15 -5 -70 -9 -15 -23 96 -24 64 -1 107 -4 95 -6
-13 -2 -23 -9 -23 -14 0 -5 -7 -9 -15 -9 -8 0 -15 3 -15 8 0 6 -60 8 -85 3 -5
-2 -34 -2 -64 -1 -50 1 -54 0 -41 -15 10 -11 23 -15 42 -11 15 3 28 1 28 -4 0
-6 -9 -10 -19 -10 -30 0 -51 -11 -51 -26 0 -8 9 -14 20 -14 13 0 18 -5 14 -15
-5 -11 2 -15 27 -16 25 -1 18 -4 -27 -13 -51 -9 -59 -13 -48 -23 7 -7 30 -13
50 -13 20 0 55 -6 78 -13 l41 -12 -50 -6 -50 -6 60 -2 c78 -2 110 -20 40 -22
-37 -2 -42 -3 -17 -6 18 -2 30 -9 26 -14 -3 -6 -30 -7 -65 -3 -41 5 -59 3 -59
-5 0 -6 -7 -11 -16 -11 -9 0 -12 -5 -8 -12 6 -10 4 -10 -7 -1 -16 15 -75 17
-84 3 -3 -6 2 -10 13 -10 10 0 22 -3 26 -7 4 -4 117 -7 252 -6 172 2 243 -1
238 -8 -4 -6 -19 -8 -36 -5 -18 3 -27 2 -23 -4 3 -6 35 -10 70 -10 35 0 66 -3
68 -7 3 -5 -33 -8 -79 -8 -46 0 -84 -3 -84 -7 0 -5 -12 -8 -27 -8 -46 0 -12
-19 42 -23 28 -2 -6 -5 -75 -7 -69 -1 -136 -3 -150 -4 -14 -1 -49 -3 -77 -4
-29 -1 -53 -7 -53 -12 0 -6 12 -8 28 -4 21 4 24 3 12 -5 -11 -8 2 -11 55 -12
l70 -2 -70 -7 c-65 -7 -71 -6 -92 16 -16 18 -33 24 -63 24 -44 0 -50 -9 -20
-28 12 -7 18 -17 15 -22 -4 -6 91 -11 257 -12 145 -1 228 -4 185 -5 -46 -2
-75 -8 -72 -13 4 -6 21 -10 38 -10 18 0 39 -5 47 -10 10 -7 -9 -10 -65 -11
-65 -1 -74 -2 -50 -10 28 -9 561 -2 577 7 9 6 537 5 573 -1 73 -12 160 -15
140 -6 -19 10 32 8 218 -4 34 -2 49 1 56 12 5 9 13 13 21 8 9 -6 9 -9 -1 -16
-8 -5 52 -9 146 -10 139 -1 280 -11 265 -19 -3 -1 -63 -6 -135 -10 -134 -8
476 -4 921 6 167 4 234 3 239 -6 4 -7 11 -8 19 -1 7 6 36 6 81 0 55 -8 183
-18 248 -19 5 0 5 -4 2 -10 -15 -24 36 -7 57 19 22 28 28 30 98 31 41 0 111
-1 155 -4 45 -2 67 -1 50 3 l-30 8 37 7 c34 8 136 4 296 -10 52 -5 72 -4 72 5
0 8 16 11 45 10 25 -2 45 -7 45 -11 0 -5 15 -6 33 -4 17 3 48 2 67 -3 30 -8
22 -9 -50 -11 l-85 -3 99 -8 c70 -7 103 -6 112 2 8 6 11 15 8 20 -3 5 6 9 20
9 14 0 26 -4 26 -10 0 -5 18 -10 41 -10 24 0 38 4 34 10 -8 13 38 13 52 -1 6
-6 54 -12 108 -14 54 -2 101 -8 104 -13 3 -6 17 -10 31 -9 14 0 31 -2 39 -4 7
-2 15 1 18 8 3 7 -4 10 -19 6 -19 -5 -21 -3 -10 8 16 17 152 13 229 -7 30 -8
64 -14 76 -15 22 0 22 0 -1 -10 -13 -5 -28 -6 -33 -3 -6 3 -22 3 -37 -2 -24
-6 -20 -8 33 -20 33 -7 81 -10 108 -7 32 4 47 2 47 -6 0 -6 11 -11 24 -11 19
0 31 11 50 43 14 23 21 43 16 45 -17 6 -11 22 8 22 10 0 42 -6 72 -14 30 -7
81 -17 113 -21 31 -3 55 -11 52 -16 -4 -5 1 -9 9 -9 9 0 16 5 16 10 0 6 20 10
44 10 24 0 51 3 60 6 17 7 22 34 6 34 -5 0 -10 -4 -10 -9 0 -13 -100 -24 -113
-12 -7 5 -23 11 -37 14 -14 2 -8 3 13 2 37 -3 122 19 132 34 2 4 -19 2 -48 -6
-58 -16 -282 -9 -293 9 -12 18 9 23 109 25 56 0 131 5 167 11 l65 9 -60 2
c-33 2 -80 5 -103 7 -30 4 -42 2 -37 -5 3 -6 1 -11 -4 -11 -6 0 -11 5 -11 10
0 6 -17 10 -37 11 l-38 1 34 8 c19 5 49 6 68 3 21 -4 33 -2 33 6 0 6 16 11 36
11 25 0 33 -3 28 -12 -5 -9 -2 -8 9 1 13 10 37 12 95 8 46 -3 67 -2 52 3 -17
5 -19 8 -7 9 9 1 17 6 17 11 0 7 -53 10 -160 8 -114 -2 -161 0 -164 9 -7 17 4
23 43 23 20 0 43 5 51 10 10 7 -9 10 -62 10 -45 0 -78 4 -78 10 0 6 43 10 108
11 148 0 255 9 267 20 6 6 -26 8 -90 4 -60 -4 -95 -3 -87 2 8 6 -11 10 -54 11
-36 1 -75 7 -86 13 -12 6 -38 9 -59 6 -22 -3 -42 -1 -45 4 -3 5 13 9 35 9 23
0 41 4 41 10 0 5 13 7 29 4 16 -4 32 -1 35 5 5 7 -6 11 -33 11 -23 0 -41 -4
-41 -10 0 -6 -10 -5 -25 2 -27 12 -32 24 -12 31 6 3 -13 6 -42 6 -97 2 -41 18
104 30 77 6 170 14 207 17 52 5 65 9 61 20 -6 15 -43 20 -43 5 0 -5 -9 -7 -20
-4 -19 5 -19 6 3 23 22 18 20 18 -61 14 -46 -2 -88 -6 -92 -9 -5 -3 -11 -1
-14 4 -6 9 49 21 101 21 24 0 31 4 27 14 -6 15 33 42 44 31 3 -3 -3 -8 -15
-11 -33 -9 -16 -34 23 -34 20 0 37 6 42 17 8 12 28 17 88 20 44 2 81 8 82 13
2 6 18 11 35 11 l32 1 -30 8 c-28 7 -27 8 15 10 25 1 59 6 75 10 l30 7 -25 11
c-14 6 -19 11 -11 11 7 1 11 7 8 15 -3 8 -1 16 5 18 22 8 -4 28 -35 28 -25 0
-29 3 -17 10 10 7 -16 10 -87 8 -55 -2 -99 0 -97 3 2 3 -19 4 -46 1 -27 -2
-80 1 -117 9 -60 11 -65 13 -38 20 17 3 114 12 216 19 145 10 190 10 208 1 13
-7 25 -10 29 -7 3 3 -1 6 -9 6 -11 0 -11 2 1 10 12 7 8 10 -15 10 -27 1 -28 2
-13 14 15 11 -1 13 -99 15 -145 3 -164 11 -25 11 93 0 129 10 85 24 -10 3 3 3
28 0 25 -2 56 0 70 5 l24 10 -25 2 c-14 1 -29 1 -33 0 -18 -3 -87 20 -87 29 0
6 -21 10 -46 10 -27 0 -43 4 -39 10 3 6 15 10 25 10 10 0 21 4 24 8 2 4 -35 8
-82 8 -104 1 -292 24 -292 36 0 8 31 10 145 8 50 -1 73 -5 82 -16 9 -12 16
-13 32 -5 11 6 31 11 45 11 14 0 28 5 31 10 3 6 16 10 28 10 16 0 18 3 8 9 -9
6 -10 10 -2 16 8 4 9 11 2 18 -5 7 -11 17 -13 22 -1 6 -9 9 -15 9 -7 -1 -11 2
-8 6 3 5 -7 13 -22 19 -26 9 -25 10 9 5 21 -4 50 -3 65 1 l28 7 -25 13 c-19
11 -21 14 -7 15 9 0 17 5 17 10 0 6 7 10 15 10 24 0 17 20 -7 21 -16 0 -18 2
-8 7 9 3 -2 10 -30 18 -27 7 -36 12 -22 13 19 1 21 4 12 20 -12 23 -5 47 18
56 15 6 15 8 -3 15 -18 8 -17 9 6 9 14 1 28 4 32 7 10 10 -5 34 -22 34 -9 0
-23 5 -31 10 -11 8 -7 9 15 5 17 -3 24 -2 17 1 -6 3 -9 11 -5 16 4 7 -2 9 -15
6 -12 -4 -20 -2 -17 2 3 5 -3 11 -12 13 -10 3 1 4 24 3 24 0 43 -4 43 -8 0 -5
19 -8 43 -7 48 1 41 4 -78 35 -38 10 -61 20 -50 22 44 7 48 11 34 28 -11 14
-8 15 27 10 21 -3 30 -3 19 0 -33 10 -43 26 -15 24 44 -4 57 1 32 11 -29 11
-20 29 16 30 l27 1 -27 11 c-36 14 -36 27 -1 27 25 0 26 1 8 14 -18 13 -18 14
7 9 14 -3 29 0 32 6 5 7 -4 11 -23 11 -16 0 -33 5 -36 10 -4 6 10 10 34 10 23
0 41 5 41 10 0 6 -9 10 -21 10 -11 0 -17 5 -14 10 3 6 -4 10 -17 10 -17 0 -20
2 -9 9 8 5 20 7 27 4 7 -2 21 1 31 7 16 10 16 11 1 6 -10 -3 -18 -1 -18 4 0 6
-12 10 -26 10 -14 0 -23 4 -19 10 3 6 -2 10 -11 10 -34 0 -4 12 48 20 l53 8
-55 2 c-41 1 -49 4 -30 9 l25 7 -30 11 c-16 6 -23 12 -15 13 8 1 -10 8 -40 15
-53 12 -53 13 -17 14 21 0 36 5 32 10 -3 6 10 8 32 6 24 -3 18 0 -14 7 -29 6
-53 14 -53 18 0 4 19 11 43 16 l42 8 -38 4 c-51 4 -43 27 9 27 43 0 82 23 61
37 -8 5 -7 8 5 8 19 0 14 28 -6 42 -7 5 -4 8 7 8 9 0 17 7 17 15 0 11 -13 15
-47 16 -45 2 -46 2 -13 8 19 3 36 12 37 19 3 11 -9 16 -29 13 -5 0 -8 4 -8 9
0 6 -17 11 -37 11 -23 1 -30 3 -18 6 11 3 30 17 43 30 21 23 22 27 8 42 -12
13 -13 20 -4 29 9 9 9 12 -1 12 -8 0 -11 6 -7 16 7 19 -10 37 -49 52 -28 11
-27 11 15 6 37 -4 42 -3 26 7 -15 9 -16 13 -5 20 11 7 9 9 -6 10 -11 1 -24 1
-28 0 -5 -1 -6 3 -3 8 4 5 0 12 -6 15 -7 4 2 4 20 1 17 -2 32 0 32 5 0 4 8 11
18 13 13 4 12 5 -5 6 -16 1 -21 6 -17 16 4 9 0 15 -9 15 -24 0 -79 62 -64 72
7 5 0 8 -18 9 -24 1 -25 3 -7 6 24 5 31 38 10 46 -10 4 -10 8 1 15 10 7 10 11
1 17 -6 4 -9 13 -6 20 3 8 -4 17 -17 21 -19 6 -15 9 23 19 44 12 44 12 19 23
-37 15 -34 39 5 35 25 -3 20 1 -22 18 -29 12 -50 24 -48 27 3 2 19 -1 36 -8
17 -7 33 -10 37 -6 3 3 -1 6 -10 6 -9 0 -17 5 -17 10 0 6 -6 10 -12 10 -7 0
-14 14 -15 31 -2 25 1 30 15 24 9 -3 13 -3 9 1 -4 4 1 13 11 20 11 9 13 13 4
14 -21 0 -3 20 18 20 13 0 17 5 14 15 -4 8 -14 15 -24 15 -11 0 -22 5 -26 11
-4 8 1 9 16 4 15 -5 20 -4 16 4 -4 6 -16 11 -27 11 -11 0 -18 4 -14 9 3 5 -3
12 -12 14 -10 2 14 3 52 1 49 -3 63 -1 45 5 -14 5 -44 9 -68 10 -24 1 -41 5
-37 10 3 5 -3 12 -12 14 -12 3 -9 5 8 6 33 1 42 11 28 28 -9 10 -5 13 22 14
32 1 32 2 9 9 l-25 8 28 1 c16 1 35 7 43 15 12 13 10 15 -13 19 -26 4 -25 4 5
6 35 1 36 21 1 21 -10 0 -19 5 -19 10 0 6 12 10 26 10 14 0 23 4 19 10 -3 6
-1 10 5 10 17 0 -13 27 -36 33 -10 2 5 5 34 6 28 0 52 6 52 11 0 6 -8 10 -19
10 -10 0 -24 7 -31 15 -10 12 -10 15 4 15 9 0 16 5 16 11 0 7 -11 8 -30 4 -39
-9 -87 2 -94 21 -10 26 19 44 70 44 40 0 45 2 34 15 -7 8 -22 15 -34 16 -20 0
-20 1 -1 8 15 6 7 10 -35 16 -46 7 -51 10 -30 16 14 4 51 7 83 8 34 1 57 5 57
12 0 7 -17 9 -52 4 -45 -7 -50 -5 -45 10 4 9 7 19 7 21 0 2 9 4 19 4 10 0 29
9 42 21 l24 20 -60 -5 c-43 -4 -53 -2 -35 4 25 9 -107 7 -230 -4 -30 -3 -47
-3 -37 0 11 4 16 12 13 21 -3 8 -6 16 -6 18 0 1 -16 -1 -35 -5 -25 -6 -37 -4
-43 5 -4 7 -23 15 -42 18 -19 2 3 5 50 6 59 1 80 4 70 11 -10 7 6 10 54 10 55
0 67 3 63 14 -4 10 2 16 16 19 12 2 -9 5 -47 6 -61 1 -67 -1 -61 -16 4 -13 1
-12 -15 5 -11 12 -31 22 -43 23 l-22 0 23 9 c29 12 28 18 -3 12 -14 -2 -25 -9
-25 -15 0 -6 -3 -7 -6 -4 -15 15 20 37 60 37 38 -1 40 -2 22 -15 -19 -14 -18
-15 11 -15 18 0 35 4 38 10 3 5 25 7 48 4 23 -3 56 -1 72 5 l30 9 -40 3 c-22
2 -60 4 -85 5 -81 5 -188 21 -147 23 20 0 37 5 37 10 0 6 21 12 48 14 45 3 44
3 -13 5 -101 4 -121 16 -35 23 66 4 71 6 41 14 l-33 8 23 13 c23 12 21 13 -24
14 -30 0 -46 4 -42 10 4 6 -5 10 -19 10 -14 0 -26 -4 -26 -10 0 -5 -7 -10 -15
-10 -23 0 -18 17 8 24 12 3 43 6 69 6 26 0 50 5 54 12 5 8 -6 9 -41 5 -30 -5
-53 -3 -61 4 -8 6 -32 9 -54 7 -26 -2 -41 1 -44 9 -3 7 -22 13 -43 14 -92 1
46 25 207 35 217 14 250 18 250 29 0 7 -7 16 -16 19 -22 8 -26 8 -19 -4 3 -5
-3 -10 -14 -10 -24 0 -24 21 -1 32 8 4 -22 7 -67 7 -48 1 -83 -3 -83 -9 0 -17
-29 1 -36 22 -5 17 -13 19 -50 16 -48 -3 -61 8 -16 15 15 2 5 4 -23 5 -27 1
-68 -5 -90 -13 -53 -19 -311 -21 -318 -2 -4 9 -8 9 -15 -2 -8 -10 -24 -13 -66
-8 -31 3 -54 2 -51 -2 7 -13 -84 -20 -119 -10 -17 5 -44 6 -60 3 -19 -4 -26
-3 -22 5 4 6 0 11 -8 11 -9 0 -16 -4 -16 -10 0 -5 -15 -10 -32 -9 -27 0 -29 2
-13 8 13 5 -6 8 -50 8 -163 -1 -425 7 -425 12 0 3 -29 4 -65 3 -42 -3 -65 0
-65 7 0 6 -5 11 -11 11 -5 0 -8 -3 -6 -7 6 -9 -174 -8 -321 2 -76 5 -101 10
-93 18 15 15 14 27 -4 27 -8 0 -15 -9 -15 -19 0 -22 -16 -22 -348 -6 -274 14
-1010 26 -932 15z m335 -8 l40 -7 -55 -5 c-70 -6 -142 -1 -134 11 6 11 93 12
149 1z m122 -18 c-3 -3 -12 -4 -19 -1 -8 3 -5 6 6 6 11 1 17 -2 13 -5z m-790
-20 c-3 -3 -12 -4 -19 -1 -8 3 -5 6 6 6 11 1 17 -2 13 -5z m2570 -40 c-3 -3
-12 -4 -19 -1 -8 3 -5 6 6 6 11 1 17 -2 13 -5z m861 -11 c-10 -2 -26 -2 -35 0
-10 3 -2 5 17 5 19 0 27 -2 18 -5z m209 -9 c-3 -3 -12 -4 -19 -1 -8 3 -5 6 6
6 11 1 17 -2 13 -5z m48 -4 c3 -5 1 -10 -4 -10 -6 0 -11 5 -11 10 0 6 2 10 4
10 3 0 8 -4 11 -10z m-118 -16 c-3 -3 -12 -4 -19 -1 -8 3 -5 6 6 6 11 1 17 -2
13 -5z m-390 -20 c-3 -3 -12 -4 -19 -1 -8 3 -5 6 6 6 11 1 17 -2 13 -5z m-40
-10 c-3 -3 -12 -4 -19 -1 -8 3 -5 6 6 6 11 1 17 -2 13 -5z m-4959 -11 c-10 -2
-28 -2 -40 0 -13 2 -5 4 17 4 22 1 32 -1 23 -4z m-153 -23 c-3 -5 -29 -10 -56
-10 -31 0 -48 4 -44 10 3 6 29 10 56 10 31 0 48 -4 44 -10z m368 3 c-13 -2
-33 -2 -45 0 -13 2 -3 4 22 4 25 0 35 -2 23 -4z m4445 -10 c-10 -2 -26 -2 -35
0 -10 3 -2 5 17 5 19 0 27 -2 18 -5z m-578 -7 c0 -9 -30 -14 -35 -6 -4 6 3 10
14 10 12 0 21 -2 21 -4z m113 -3 c-7 -2 -19 -2 -25 0 -7 3 -2 5 12 5 14 0 19
-2 13 -5z m887 -3 c12 -8 11 -10 -7 -10 -13 0 -23 5 -23 10 0 13 11 13 30 0z
m-4814 -13 c4 -4 -27 -7 -69 -7 -73 0 -103 -13 -54 -23 12 -3 6 -4 -13 -4 -28
2 -36 6 -38 24 -3 21 -1 22 82 20 47 -1 88 -6 92 -10z m522 6 c-10 -2 -28 -2
-40 0 -13 2 -5 4 17 4 22 1 32 -1 23 -4z m4245 0 c-7 -2 -19 -2 -25 0 -7 3 -2
5 12 5 14 0 19 -2 13 -5z m144 1 c-3 -3 -12 -4 -19 -1 -8 3 -5 6 6 6 11 1 17
-2 13 -5z m-24 -21 c-7 -2 -19 -2 -25 0 -7 3 -2 5 12 5 14 0 19 -2 13 -5z m47
-87 c0 -3 -4 -8 -10 -11 -5 -3 -10 -1 -10 4 0 6 5 11 10 11 6 0 10 -2 10 -4z
m-5642 -13 c-10 -2 -28 -2 -40 0 -13 2 -5 4 17 4 22 1 32 -1 23 -4z m5747 -23
c-3 -5 -23 -9 -43 -9 l-37 2 40 7 c22 4 41 8 43 9 2 0 0 -3 -3 -9z m-86 -4
c-7 -7 -88 -11 -94 -5 -3 3 18 7 47 8 28 1 50 -1 47 -3z m26 -26 c-3 -5 2 -11
12 -12 10 0 23 -2 30 -2 6 -1 15 -5 19 -9 5 -4 -25 -7 -66 -5 -98 4 -97 20 3
37 5 0 5 -3 2 -9z m-120 -10 c4 -6 -6 -10 -22 -10 -22 0 -25 2 -13 10 19 12
27 12 35 0z m-308 -46 c-3 -3 -12 -4 -19 -1 -8 3 -5 6 6 6 11 1 17 -2 13 -5z
m341 -101 c-16 -2 -40 -2 -55 0 -16 2 -3 4 27 4 30 0 43 -2 28 -4z m127 -13
c-28 -12 -37 -12 -30 0 3 6 16 10 28 9 21 0 21 -1 2 -9z m-100 -9 c-3 -5 5
-12 17 -14 14 -3 9 -5 -15 -6 -32 -1 -36 1 -25 14 14 16 33 20 23 6z m-60 -10
c-11 -5 -45 -9 -75 -9 -38 1 -49 3 -35 9 11 4 45 8 75 8 38 0 49 -3 35 -8z
m201 -4 c4 -4 -5 -7 -19 -7 -15 0 -27 4 -27 10 0 11 35 8 46 -3z m-393 -24
c-13 -2 -35 -2 -50 0 -16 2 -5 4 22 4 28 0 40 -2 28 -4z m315 -110 c-27 -2
-69 -2 -95 0 -27 2 -5 3 47 3 52 0 74 -1 48 -3z m147 -3 c-3 -5 -10 -10 -16
-10 -5 0 -9 5 -9 10 0 6 7 10 16 10 8 0 12 -4 9 -10z m-157 -77 c-2 -9 -14
-20 -28 -24 -19 -5 -20 -7 -6 -8 11 -1 17 -3 14 -6 -3 -3 -23 -1 -44 4 -25 6
-31 9 -16 10 13 1 20 6 17 11 -4 6 5 10 19 10 14 0 26 5 26 10 0 6 5 10 11 10
6 0 9 -8 7 -17z m187 -3 c-11 -4 -36 -6 -56 -3 -22 3 -39 1 -43 -6 -5 -7 2
-11 16 -12 19 -1 18 -3 -7 -9 -33 -8 -99 -11 -75 -3 8 2 22 7 30 10 11 3 9 8
-10 18 -23 13 -16 14 70 14 61 0 88 -3 75 -9z m-298 -26 c-3 -3 -12 -4 -19 -1
-8 3 -5 6 6 6 11 1 17 -2 13 -5z m280 0 c-3 -3 -12 -4 -19 -1 -8 3 -5 6 6 6
11 1 17 -2 13 -5z m101 -1 c-10 -2 -26 -2 -35 0 -10 3 -2 5 17 5 19 0 27 -2
18 -5z m-6398 -13 c-8 -5 -19 -10 -25 -10 -5 0 -3 5 5 10 8 5 20 10 25 10 6 0
3 -5 -5 -10z m6437 -76 c-3 -3 -12 -4 -19 -1 -8 3 -5 6 6 6 11 1 17 -2 13 -5z
m70 -30 c-3 -3 -12 -4 -19 -1 -8 3 -5 6 6 6 11 1 17 -2 13 -5z m-77 -124 c13
-9 13 -10 0 -10 -8 0 -22 5 -30 10 -13 9 -13 10 0 10 8 0 22 -5 30 -10z m30
-40 c0 -5 -2 -10 -4 -10 -3 0 -8 5 -11 10 -3 6 -1 10 4 10 6 0 11 -4 11 -10z
m-6333 -306 c-3 -3 -12 -4 -19 -1 -8 3 -5 6 6 6 11 1 17 -2 13 -5z m6360 0
c-3 -3 -12 -4 -19 -1 -8 3 -5 6 6 6 11 1 17 -2 13 -5z m-37 -14 c13 -8 13 -10
-2 -10 -9 0 -20 5 -23 10 -8 13 5 13 25 0z m30 -70 c8 -5 12 -11 9 -14 -3 -3
-14 1 -25 9 -21 16 -8 20 16 5z m-6420 -140 c-8 -5 -24 -9 -35 -9 l-20 0 20 9
c11 5 27 9 35 9 13 1 13 0 0 -9z m120 -500 c12 -8 11 -10 -7 -10 -13 0 -23 5
-23 10 0 13 11 13 30 0z m6393 -147 c-7 -2 -19 -2 -25 0 -7 3 -2 5 12 5 14 0
19 -2 13 -5z m-6163 -49 c0 -2 -12 -4 -27 -4 -21 0 -24 3 -14 9 13 8 41 5 41
-5z m50 -86 c67 -11 76 -18 23 -18 -39 0 -113 24 -113 36 0 3 8 3 18 -1 9 -4
42 -12 72 -17z m6060 -198 c0 -5 -4 -10 -9 -10 -6 0 -13 5 -16 10 -3 6 1 10 9
10 9 0 16 -4 16 -10z m-6170 -10 c0 -5 -4 -10 -10 -10 -5 0 -10 5 -10 10 0 6
5 10 10 10 6 0 10 -4 10 -10z m6097 -6 c-3 -3 -12 -4 -19 -1 -8 3 -5 6 6 6 11
1 17 -2 13 -5z m-6302 -154 c-3 -5 -10 -10 -16 -10 -5 0 -9 5 -9 10 0 6 7 10
16 10 8 0 12 -4 9 -10z m-7 -87 c-10 -2 -28 -2 -40 0 -13 2 -5 4 17 4 22 1 32
-1 23 -4z m6329 1 c-3 -3 -12 -4 -19 -1 -8 3 -5 6 6 6 11 1 17 -2 13 -5z m58
-204 c3 -5 1 -10 -4 -10 -6 0 -11 5 -11 10 0 6 2 10 4 10 3 0 8 -4 11 -10z
m-213 -106 c21 -4 36 -10 33 -14 -3 -4 16 -6 40 -4 25 1 47 -2 51 -7 6 -10
-264 -4 -274 6 -3 3 7 5 21 5 15 0 27 5 27 10 0 11 46 13 102 4z m-83 -70 c10
-9 -76 -3 -89 7 -11 7 -1 8 35 3 28 -4 52 -8 54 -10z m-372 -20 c-3 -3 -12 -4
-19 -1 -8 3 -5 6 6 6 11 1 17 -2 13 -5z m150 0 c-3 -3 -12 -4 -19 -1 -8 3 -5
6 6 6 11 1 17 -2 13 -5z m110 0 c-3 -3 -12 -4 -19 -1 -8 3 -5 6 6 6 11 1 17
-2 13 -5z m188 -4 c13 -6 -11 -7 -65 -4 -46 3 -86 7 -89 9 -8 9 134 4 154 -5z
m78 3 c-7 -2 -19 -2 -25 0 -7 3 -2 5 12 5 14 0 19 -2 13 -5z m-43 -33 c0 -5
-4 -10 -9 -10 -6 0 -13 5 -16 10 -3 6 1 10 9 10 9 0 16 -4 16 -10z m37 -6 c-3
-3 -12 -4 -19 -1 -8 3 -5 6 6 6 11 1 17 -2 13 -5z m207 -99 c8 -9 13 -22 9
-31 -4 -12 0 -14 23 -8 16 4 26 4 22 0 -3 -4 -60 -10 -125 -13 -94 -4 -126 -1
-154 11 -33 15 -32 15 63 13 66 -1 101 2 110 11 9 9 -12 12 -107 14 -118 2
-119 2 -40 8 149 12 183 11 199 -5z m-6231 -22 c-7 -2 -21 -2 -30 0 -10 3 -4
5 12 5 17 0 24 -2 18 -5z m5955 -20 c-10 -2 -28 -2 -40 0 -13 2 -5 4 17 4 22
1 32 -1 23 -4z m-281 -9 c-3 -3 -12 -4 -19 -1 -8 3 -5 6 6 6 11 1 17 -2 13 -5z
m-5560 -105 c-14 -8 -22 -8 -30 0 -8 8 -3 11 19 11 25 -1 27 -2 11 -11z m120
5 c-3 -3 -12 -4 -19 -1 -8 3 -5 6 6 6 11 1 17 -2 13 -5z m5441 -41 c-15 -2
-42 -2 -60 0 -18 2 -6 4 27 4 33 0 48 -2 33 -4z m229 -19 c-3 -3 -12 -4 -19
-1 -8 3 -5 6 6 6 11 1 17 -2 13 -5z m-490 -30 c-3 -3 -12 -4 -19 -1 -8 3 -5 6
6 6 11 1 17 -2 13 -5z m-57 -14 c-34 -11 -60 -11 -35 0 11 5 29 8 40 8 16 0
15 -2 -5 -8z m227 -36 c-3 -3 -12 -4 -19 -1 -8 3 -5 6 6 6 11 1 17 -2 13 -5z
m-34 -51 c-7 -2 -19 -2 -25 0 -7 3 -2 5 12 5 14 0 19 -2 13 -5z m-5190 -10
c-7 -2 -21 -2 -30 0 -10 3 -4 5 12 5 17 0 24 -2 18 -5z m5253 -115 c4 -7 4
-10 -1 -6 -4 4 -14 3 -21 -3 -7 -6 -19 -7 -26 -3 -9 6 -5 10 12 15 14 4 26 7
27 8 1 1 5 -5 9 -11z m74 8 c0 -2 -7 -6 -15 -10 -8 -3 -15 -1 -15 4 0 6 7 10
15 10 8 0 15 -2 15 -4z m9 -52 c2 -2 -34 -3 -80 -3 -58 1 -75 4 -54 9 28 6
125 2 134 -6z m89 -11 c-10 -2 -26 -2 -35 0 -10 3 -2 5 17 5 19 0 27 -2 18 -5z
m-155 -30 c-7 -2 -19 -2 -25 0 -7 3 -2 5 12 5 14 0 19 -2 13 -5z m50 0 c-7 -2
-19 -2 -25 0 -7 3 -2 5 12 5 14 0 19 -2 13 -5z m-5670 -10 c-7 -2 -19 -2 -25
0 -7 3 -2 5 12 5 14 0 19 -2 13 -5z m1020 -30 c-7 -2 -19 -2 -25 0 -7 3 -2 5
12 5 14 0 19 -2 13 -5z m4582 -12 c47 -11 3 -18 -75 -12 -57 4 -61 5 -30 12
44 8 68 8 105 0z m-780 -16 c-21 -17 -37 -15 -43 3 -2 8 8 12 30 12 31 -1 32
-1 13 -15z m283 8 c-16 -2 -40 -2 -55 0 -16 2 -3 4 27 4 30 0 43 -2 28 -4z
m149 0 c-20 -2 -52 -2 -70 0 -17 2 0 4 38 4 39 0 53 -2 32 -4z m-747 -11 c0
-4 -44 -6 -97 -4 -140 4 -146 9 -15 11 61 0 112 -3 112 -7z m-2347 -9 c-45 -2
-122 -2 -170 0 -48 1 -11 3 82 3 94 0 133 -2 88 -3z m3060 0 c-7 -2 -21 -2
-30 0 -10 3 -4 5 12 5 17 0 24 -2 18 -5z m280 -20 c-13 -2 -33 -2 -45 0 -13 2
-3 4 22 4 25 0 35 -2 23 -4z m104 -11 c7 -4 9 -13 4 -20 -5 -9 -25 -11 -67 -8
-32 3 -61 6 -64 6 -7 2 82 27 100 29 8 0 20 -3 27 -7z"/>
<path d="M5898 5453 c7 -3 16 -2 19 1 4 3 -2 6 -13 5 -11 0 -14 -3 -6 -6z"/>
<path d="M5968 5453 c12 -2 32 -2 45 0 12 2 2 4 -23 4 -25 0 -35 -2 -22 -4z"/>
<path d="M6128 5439 c15 -6 30 -5 40 1 13 7 8 9 -23 9 -35 0 -37 -1 -17 -10z"/>
<path d="M7070 5440 c0 -5 6 -10 14 -10 8 0 18 5 21 10 3 6 -3 10 -14 10 -12
0 -21 -4 -21 -10z"/>
<path d="M7138 5443 c12 -2 32 -2 45 0 12 2 2 4 -23 4 -25 0 -35 -2 -22 -4z"/>
<path d="M7268 5443 c7 -3 16 -2 19 1 4 3 -2 6 -13 5 -11 0 -14 -3 -6 -6z"/>
<path d="M7328 5443 c18 -2 45 -2 60 0 15 2 0 4 -33 4 -33 0 -45 -2 -27 -4z"/>
<path d="M7773 5443 c9 -2 25 -2 35 0 9 3 1 5 -18 5 -19 0 -27 -2 -17 -5z"/>
<path d="M4508 5433 c6 -2 18 -2 25 0 6 3 1 5 -13 5 -14 0 -19 -2 -12 -5z"/>
<path d="M6358 5433 c6 -2 18 -2 25 0 6 3 1 5 -13 5 -14 0 -19 -2 -12 -5z"/>
<path d="M6433 5433 c9 -2 25 -2 35 0 9 3 1 5 -18 5 -19 0 -27 -2 -17 -5z"/>
<path d="M6520 5420 c0 -5 10 -10 23 -10 18 0 19 2 7 10 -19 13 -30 13 -30 0z"/>
<path d="M6688 5423 c18 -2 45 -2 60 0 15 2 0 4 -33 4 -33 0 -45 -2 -27 -4z"/>
<path d="M6848 5423 c7 -3 16 -2 19 1 4 3 -2 6 -13 5 -11 0 -14 -3 -6 -6z"/>
<path d="M6888 5423 c6 -2 18 -2 25 0 6 3 1 5 -13 5 -14 0 -19 -2 -12 -5z"/>
<path d="M2260 5360 c-21 -7 -19 -8 18 -9 23 -1 42 4 42 9 0 12 -24 12 -60 0z"/>
<path d="M2315 5320 c3 -5 11 -10 16 -10 6 0 7 5 4 10 -3 6 -11 10 -16 10 -6
0 -7 -4 -4 -10z"/>
<path d="M8385 5320 c3 -5 16 -10 28 -10 18 0 19 2 7 10 -20 13 -43 13 -35 0z"/>
<path d="M2055 5300 c4 -6 11 -8 16 -5 14 9 11 15 -7 15 -8 0 -12 -5 -9 -10z"/>
<path d="M2153 5303 c9 -2 23 -2 30 0 6 3 -1 5 -18 5 -16 0 -22 -2 -12 -5z"/>
<path d="M2198 5243 c7 -3 16 -2 19 1 4 3 -2 6 -13 5 -11 0 -14 -3 -6 -6z"/>
<path d="M7858 5243 c12 -2 30 -2 40 0 9 3 -1 5 -23 4 -22 0 -30 -2 -17 -4z"/>
<path d="M7928 5243 c6 -2 18 -2 25 0 6 3 1 5 -13 5 -14 0 -19 -2 -12 -5z"/>
<path d="M2203 5223 c9 -2 23 -2 30 0 6 3 -1 5 -18 5 -16 0 -22 -2 -12 -5z"/>
<path d="M2463 5213 c9 -2 25 -2 35 0 9 3 1 5 -18 5 -19 0 -27 -2 -17 -5z"/>
<path d="M2630 5210 c0 -5 5 -10 10 -10 6 0 10 5 10 10 0 6 -4 10 -10 10 -5 0
-10 -4 -10 -10z"/>
<path d="M2298 5203 c7 -3 16 -2 19 1 4 3 -2 6 -13 5 -11 0 -14 -3 -6 -6z"/>
<path d="M1918 5083 c6 -2 18 -2 25 0 6 3 1 5 -13 5 -14 0 -19 -2 -12 -5z"/>
<path d="M8379 5019 c-10 -6 -7 -9 14 -9 29 0 35 5 14 13 -8 3 -20 1 -28 -4z"/>
<path d="M8248 5003 c6 -2 18 -2 25 0 6 3 1 5 -13 5 -14 0 -19 -2 -12 -5z"/>
<path d="M8298 5003 c7 -3 16 -2 19 1 4 3 -2 6 -13 5 -11 0 -14 -3 -6 -6z"/>
<path d="M8030 4930 c0 -5 7 -10 15 -10 8 0 15 5 15 10 0 6 -7 10 -15 10 -8 0
-15 -4 -15 -10z"/>
<path d="M7953 4913 c9 -2 23 -2 30 0 6 3 -1 5 -18 5 -16 0 -22 -2 -12 -5z"/>
<path d="M1538 4883 c12 -2 30 -2 40 0 9 3 -1 5 -23 4 -22 0 -30 -2 -17 -4z"/>
<path d="M8063 4883 c9 -2 23 -2 30 0 6 3 -1 5 -18 5 -16 0 -22 -2 -12 -5z"/>
<path d="M1700 4670 c0 -13 11 -13 30 0 12 8 11 10 -7 10 -13 0 -23 -4 -23
-10z"/>
<path d="M1578 4653 c6 -2 18 -2 25 0 6 3 1 5 -13 5 -14 0 -19 -2 -12 -5z"/>
<path d="M1575 4620 c28 -12 37 -12 30 0 -3 6 -16 10 -28 9 -21 0 -21 -1 -2
-9z"/>
<path d="M1578 4523 c7 -3 16 -2 19 1 4 3 -2 6 -13 5 -11 0 -14 -3 -6 -6z"/>
<path d="M1648 4453 c6 -2 18 -2 25 0 6 3 1 5 -13 5 -14 0 -19 -2 -12 -5z"/>
<path d="M1588 4363 c7 -3 16 -2 19 1 4 3 -2 6 -13 5 -11 0 -14 -3 -6 -6z"/>
<path d="M1608 4223 c7 -3 16 -2 19 1 4 3 -2 6 -13 5 -11 0 -14 -3 -6 -6z"/>
<path d="M1650 4140 c0 -5 5 -10 11 -10 5 0 7 5 4 10 -3 6 -8 10 -11 10 -2 0
-4 -4 -4 -10z"/>
<path d="M1588 4083 c12 -2 30 -2 40 0 9 3 -1 5 -23 4 -22 0 -30 -2 -17 -4z"/>
<path d="M1648 3983 c7 -3 16 -2 19 1 4 3 -2 6 -13 5 -11 0 -14 -3 -6 -6z"/>
<path d="M1750 3870 c0 -5 5 -10 10 -10 6 0 10 5 10 10 0 6 -4 10 -10 10 -5 0
-10 -4 -10 -10z"/>
<path d="M1678 3843 c7 -3 16 -2 19 1 4 3 -2 6 -13 5 -11 0 -14 -3 -6 -6z"/>
<path d="M1620 3820 c34 -11 60 -11 35 0 -11 5 -29 8 -40 8 -16 0 -15 -2 5 -8z"/>
<path d="M1698 3653 c6 -2 18 -2 25 0 6 3 1 5 -13 5 -14 0 -19 -2 -12 -5z"/>
<path d="M1628 3563 c6 -2 18 -2 25 0 6 3 1 5 -13 5 -14 0 -19 -2 -12 -5z"/>
<path d="M1658 3423 c7 -3 16 -2 19 1 4 3 -2 6 -13 5 -11 0 -14 -3 -6 -6z"/>
<path d="M1910 3150 c0 -5 7 -10 16 -10 8 0 12 5 9 10 -3 6 -10 10 -16 10 -5
0 -9 -4 -9 -10z"/>
<path d="M8418 3143 c6 -2 18 -2 25 0 6 3 1 5 -13 5 -14 0 -19 -2 -12 -5z"/>
<path d="M8328 2883 c6 -2 18 -2 25 0 6 3 1 5 -13 5 -14 0 -19 -2 -12 -5z"/>
<path d="M8290 2800 c-8 -5 -10 -10 -5 -10 6 0 17 5 25 10 8 5 11 10 5 10 -5
0 -17 -5 -25 -10z"/>
<path d="M1718 2603 c6 -2 18 -2 25 0 6 3 1 5 -13 5 -14 0 -19 -2 -12 -5z"/>
<path d="M8068 2303 c12 -2 30 -2 40 0 9 3 -1 5 -23 4 -22 0 -30 -2 -17 -4z"/>
<path d="M8253 2303 c9 -2 23 -2 30 0 6 3 -1 5 -18 5 -16 0 -22 -2 -12 -5z"/>
<path d="M1735 2260 c3 -5 22 -10 41 -10 19 0 34 5 34 10 0 6 -18 10 -41 10
-24 0 -38 -4 -34 -10z"/>
<path d="M8250 1800 c19 -13 30 -13 30 0 0 6 -10 10 -22 10 -19 0 -20 -2 -8
-10z"/>
<path d="M2360 1602 c0 -4 23 -8 50 -8 28 0 50 4 50 8 0 4 -22 8 -50 8 -27 0
-50 -4 -50 -8z"/>
<path d="M2063 1563 c15 -2 39 -2 55 0 15 2 2 4 -28 4 -30 0 -43 -2 -27 -4z"/>
<path d="M7958 1493 c7 -3 16 -2 19 1 4 3 -2 6 -13 5 -11 0 -14 -3 -6 -6z"/>
<path d="M2198 1443 c12 -2 30 -2 40 0 9 3 -1 5 -23 4 -22 0 -30 -2 -17 -4z"/>
<path d="M2338 1443 c12 -2 32 -2 45 0 12 2 2 4 -23 4 -25 0 -35 -2 -22 -4z"/>
<path d="M7988 1423 c7 -3 16 -2 19 1 4 3 -2 6 -13 5 -11 0 -14 -3 -6 -6z"/>
<path d="M2885 1380 c-3 -5 1 -10 10 -10 9 0 13 5 10 10 -3 6 -8 10 -10 10 -2
0 -7 -4 -10 -10z"/>
<path d="M2933 1383 c9 -2 25 -2 35 0 9 3 1 5 -18 5 -19 0 -27 -2 -17 -5z"/>
<path d="M3205 1380 c46 -12 103 -12 85 0 -8 5 -37 9 -65 9 -44 -1 -46 -2 -20
-9z"/>
<path d="M6528 1383 c7 -3 16 -2 19 1 4 3 -2 6 -13 5 -11 0 -14 -3 -6 -6z"/>
<path d="M2733 1373 c9 -2 25 -2 35 0 9 3 1 5 -18 5 -19 0 -27 -2 -17 -5z"/>
<path d="M3625 1373 c55 -3 75 -7 65 -13 -12 -8 -10 -10 8 -10 13 0 22 6 22
15 0 12 -15 15 -87 13 l-88 -2 80 -3z"/>
<path d="M6163 1373 c9 -2 23 -2 30 0 6 3 -1 5 -18 5 -16 0 -22 -2 -12 -5z"/>
<path d="M3735 1360 c3 -5 8 -10 11 -10 2 0 4 5 4 10 0 6 -5 10 -11 10 -5 0
-7 -4 -4 -10z"/>
<path d="M6468 1363 c7 -3 16 -2 19 1 4 3 -2 6 -13 5 -11 0 -14 -3 -6 -6z"/>
<path d="M3128 1353 c7 -3 16 -2 19 1 4 3 -2 6 -13 5 -11 0 -14 -3 -6 -6z"/>
<path d="M3208 1353 c23 -2 61 -2 85 0 23 2 4 4 -43 4 -47 0 -66 -2 -42 -4z"/>
<path d="M3418 1353 c7 -3 16 -2 19 1 4 3 -2 6 -13 5 -11 0 -14 -3 -6 -6z"/>
<path d="M3498 1353 c18 -2 45 -2 60 0 15 2 0 4 -33 4 -33 0 -45 -2 -27 -4z"/>
<path d="M3638 1353 c6 -2 18 -2 25 0 6 3 1 5 -13 5 -14 0 -19 -2 -12 -5z"/>
<path d="M5858 1353 c12 -2 32 -2 45 0 12 2 2 4 -23 4 -25 0 -35 -2 -22 -4z"/>
<path d="M4978 1343 c12 -2 32 -2 45 0 12 2 2 4 -23 4 -25 0 -35 -2 -22 -4z"/>
<path d="M5133 1343 c9 -2 23 -2 30 0 6 3 -1 5 -18 5 -16 0 -22 -2 -12 -5z"/>
<path d="M6255 1340 c55 -4 107 -3 115 1 8 5 -37 8 -100 7 l-115 -1 100 -7z"/>
<path d="M3798 1333 c6 -2 18 -2 25 0 6 3 1 5 -13 5 -14 0 -19 -2 -12 -5z"/>
<path d="M4845 1331 c-3 -5 -1 -12 4 -15 5 -3 11 1 15 9 6 16 -9 21 -19 6z"/>
<path d="M5330 1329 c0 -5 5 -7 10 -4 6 3 10 8 10 11 0 2 -4 4 -10 4 -5 0 -10
-5 -10 -11z"/>
<path d="M5825 1330 c-3 -5 -1 -10 4 -10 6 0 11 5 11 10 0 6 -2 10 -4 10 -3 0
-8 -4 -11 -10z"/>
<path d="M7882 1328 c3 -7 20 -14 39 -14 26 -1 28 -1 7 3 -16 2 -28 9 -28 14
0 5 -5 9 -11 9 -6 0 -9 -6 -7 -12z"/>
<path d="M4598 1323 c12 -2 32 -2 45 0 12 2 2 4 -23 4 -25 0 -35 -2 -22 -4z"/>
<path d="M4758 1323 c6 -2 18 -2 25 0 6 3 1 5 -13 5 -14 0 -19 -2 -12 -5z"/>
<path d="M5398 1323 c7 -3 16 -2 19 1 4 3 -2 6 -13 5 -11 0 -14 -3 -6 -6z"/>
<path d="M3408 1313 c6 -2 18 -2 25 0 6 3 1 5 -13 5 -14 0 -19 -2 -12 -5z"/>
<path d="M3678 1313 c12 -2 30 -2 40 0 9 3 -1 5 -23 4 -22 0 -30 -2 -17 -4z"/>
<path d="M8028 1303 c7 -3 16 -2 19 1 4 3 -2 6 -13 5 -11 0 -14 -3 -6 -6z"/>
<path d="M7700 1279 c0 -5 5 -7 10 -4 6 3 10 8 10 11 0 2 -4 4 -10 4 -5 0 -10
-5 -10 -11z"/>
</g>
</svg>
