<?xml version="1.0" standalone="no"?>
<!DOCTYPE svg PUBLIC "-//W3C//DTD SVG 20010904//EN"
 "http://www.w3.org/TR/2001/REC-SVG-20010904/DTD/svg10.dtd">
<svg version="1.0" xmlns="http://www.w3.org/2000/svg"
 width="1024.000000pt" height="1024.000000pt" viewBox="0 0 1024.000000 1024.000000"
 preserveAspectRatio="xMidYMid meet">
<metadata>
Created by potrace 1.16, written by Peter Selinger 2001-2019
</metadata>
<g transform="translate(0.000000,1024.000000) scale(0.100000,-0.100000)"
fill="#000000" stroke="none">
<path d="M4305 9461 c-3 -5 -1 -12 5 -16 5 -3 10 1 10 9 0 18 -6 21 -15 7z"/>
<path d="M4080 9454 c-8 -3 -22 -8 -30 -11 -21 -8 -40 -8 -74 2 -22 6 -32 4
-42 -9 -10 -14 -29 -18 -96 -18 -53 -1 -91 -6 -105 -15 -18 -12 -25 -12 -42
-1 -17 10 -25 10 -41 1 -15 -10 -22 -10 -34 2 -19 19 -30 19 -22 0 3 -8 1 -15
-4 -15 -6 0 -10 5 -10 10 0 6 -7 10 -15 10 -8 0 -15 -4 -15 -10 0 -5 -9 -14
-21 -20 -17 -9 -26 -7 -54 14 -41 32 -90 36 -82 7 4 -16 -2 -18 -52 -18 -31 0
-46 2 -33 5 26 4 24 25 -3 31 -10 2 -26 -6 -35 -19 -13 -17 -29 -22 -74 -25
-31 -1 -60 -5 -63 -9 -4 -3 -15 2 -25 11 -17 15 -26 16 -75 5 -47 -10 -62 -9
-86 3 -38 19 -77 21 -59 3 19 -19 14 -26 -23 -30 -29 -3 -35 -1 -35 14 0 22
-28 24 -37 2 -3 -9 -1 -25 5 -35 16 -24 15 -36 0 -21 -7 7 -20 12 -31 12 -14
0 -17 5 -12 19 3 11 1 22 -6 26 -15 10 -48 -23 -33 -33 6 -4 13 -15 17 -24 4
-11 12 -15 22 -12 9 4 15 1 15 -9 0 -8 -7 -17 -15 -21 -8 -3 -15 -2 -15 2 0 4
-14 25 -31 46 -22 26 -34 34 -39 25 -6 -9 -12 -8 -25 5 -10 9 -24 16 -33 14
-20 -4 -28 -28 -9 -28 9 0 19 -9 22 -21 5 -16 13 -20 32 -16 18 3 23 1 19 -10
-3 -8 -6 -21 -6 -29 0 -20 -18 -17 -22 4 -3 9 -6 0 -9 -20 -3 -26 -1 -38 7
-38 7 0 21 -13 30 -30 12 -20 20 -26 25 -18 10 15 16 9 21 -17 2 -15 -2 -19
-17 -17 -11 1 -33 4 -50 5 -20 2 -33 10 -40 25 -11 25 -25 29 -25 7 0 -8 5
-15 11 -15 8 0 7 -5 -1 -15 -7 -9 -19 -14 -27 -11 -7 3 -13 0 -13 -7 0 -13
-59 -57 -77 -57 -6 0 -14 -7 -17 -16 -5 -13 -15 -15 -41 -11 -34 6 -55 -5 -35
-18 18 -11 11 -27 -10 -20 -11 4 -20 2 -20 -4 0 -6 16 -11 36 -11 20 0 33 -4
29 -10 -3 -5 -39 -9 -80 -7 -55 1 -75 -1 -75 -10 0 -7 7 -13 14 -13 19 0 66
-43 66 -60 0 -8 9 -11 25 -8 17 4 25 1 25 -8 0 -8 -5 -14 -10 -14 -6 0 -4 -10
5 -23 18 -28 10 -40 -17 -26 -10 5 -22 7 -27 4 -5 -3 -21 0 -36 7 -19 8 -28 9
-33 1 -10 -15 -260 -11 -289 5 -28 16 -30 42 -3 42 11 0 20 5 20 11 0 6 -8 8
-19 4 -16 -5 -18 -2 -14 15 3 11 9 23 14 26 5 2 6 18 2 34 -4 22 -1 31 11 36
23 9 20 34 -4 34 -27 0 -25 27 2 36 27 8 53 33 44 41 -3 4 -21 2 -39 -4 -18
-5 -41 -7 -52 -3 -21 8 -55 -4 -55 -19 0 -4 10 -19 23 -33 12 -14 31 -35 42
-48 l20 -23 -22 7 c-15 5 -23 3 -23 -5 0 -9 -4 -8 -15 1 -15 13 -15 13 -29
-34 -3 -7 0 -18 6 -24 5 -5 7 -23 4 -39 -7 -28 -7 -28 -84 -28 -42 0 -82 3
-88 7 -25 17 -194 -50 -194 -77 0 -8 -4 -15 -9 -15 -17 0 -23 -40 -9 -57 17
-21 23 -930 6 -950 -6 -7 -27 -13 -47 -13 -20 0 -43 -6 -52 -13 -23 -18 -30
-45 -15 -54 8 -5 17 -27 21 -50 6 -36 4 -43 -9 -43 -26 0 -18 -17 19 -40 38
-23 44 -40 20 -60 -8 -7 -15 -21 -15 -31 0 -10 -5 -21 -10 -24 -6 -4 -8 -10
-5 -15 3 -5 1 -11 -5 -15 -18 -11 -12 -38 8 -31 13 5 12 2 -4 -12 -21 -18 -21
-19 -3 -30 20 -13 26 -52 8 -52 -6 0 -8 -8 -4 -19 3 -11 1 -22 -5 -26 -5 -3
-10 -39 -10 -80 0 -60 -3 -76 -17 -84 -17 -10 -17 -12 -1 -25 21 -16 21 -16 7
-53 -6 -15 -13 -82 -16 -148 -6 -151 -7 -128 5 -340 7 -128 15 -191 26 -219
10 -21 16 -49 14 -61 -4 -29 35 -83 69 -96 14 -5 27 -19 30 -30 4 -14 8 -17
13 -9 5 9 13 9 26 2 16 -9 16 -10 -3 -22 -12 -8 -18 -20 -16 -31 3 -11 -3 -22
-16 -28 -24 -14 -28 -31 -6 -31 25 0 19 -49 -7 -60 -22 -8 -22 -9 5 -9 16 -1
26 -5 22 -11 -3 -5 -2 -10 4 -10 5 0 9 -20 9 -45 0 -32 -4 -45 -14 -45 -18 0
-18 -14 1 -30 10 -8 12 -17 6 -24 -5 -6 -12 -29 -16 -51 -4 -22 -12 -46 -18
-53 -5 -7 -7 -30 -4 -52 3 -22 2 -40 -3 -40 -4 0 -8 -10 -8 -22 2 -79 -12
-269 -20 -284 -5 -11 -8 -30 -7 -44 3 -36 -12 -52 -35 -38 -14 9 -21 8 -35 -5
-9 -9 -23 -17 -31 -17 -39 0 -64 -16 -64 -42 0 -17 -3 -19 -12 -10 -10 10 -10
17 1 34 11 17 10 23 -2 35 -12 12 -17 11 -37 -10 -22 -23 -70 -27 -70 -7 0 5
-15 12 -33 15 -17 4 -37 12 -44 17 -7 5 -22 6 -35 2 -13 -4 -38 -6 -56 -5 -28
2 -32 0 -32 -22 0 -14 7 -27 15 -31 23 -8 18 -26 -7 -26 -21 -1 -21 -2 -5 -11
21 -13 22 -29 1 -29 -9 0 -14 -6 -12 -12 3 -7 15 -13 28 -13 13 0 25 -6 27
-13 3 -7 -1 -10 -10 -6 -10 3 -17 -3 -21 -20 -3 -14 -11 -26 -16 -26 -23 0 -8
-19 18 -23 26 -4 26 -4 5 -12 -33 -11 -28 -23 9 -27 36 -3 50 -31 22 -42 -13
-5 -15 -2 -11 14 6 22 0 25 -22 11 -12 -8 -13 -15 -4 -34 10 -21 9 -26 -3 -31
-22 -9 -24 -8 -18 9 7 17 -21 21 -31 5 -3 -5 -1 -10 4 -10 6 0 11 -7 11 -15 0
-8 8 -15 18 -15 32 0 33 -12 3 -40 -21 -21 -26 -32 -19 -44 7 -12 4 -25 -7
-43 -17 -26 -17 -26 9 -19 25 6 36 -7 16 -19 -18 -11 -11 -25 13 -26 16 -1 18
-2 5 -6 -10 -2 -18 -11 -18 -19 0 -8 -4 -14 -10 -14 -19 0 -10 -25 12 -35 33
-15 36 -37 4 -29 -21 5 -26 3 -26 -13 0 -11 3 -23 7 -27 15 -14 13 -46 -3 -46
-11 0 -14 -5 -10 -16 3 -9 6 -19 6 -24 0 -5 8 -11 18 -13 10 -3 6 -5 -11 -6
-25 -1 -27 -4 -20 -29 3 -15 7 -49 8 -77 3 -79 4 -83 25 -90 27 -9 25 -22 -5
-29 -17 -4 -23 -11 -18 -23 4 -9 2 -14 -3 -11 -5 3 -10 -14 -10 -38 -1 -24 2
-44 6 -44 5 0 6 -9 3 -20 -3 -11 -9 -20 -15 -20 -5 0 0 -10 12 -22 11 -12 20
-28 20 -35 0 -7 5 -22 12 -33 10 -15 9 -22 -6 -39 -15 -17 -16 -23 -6 -36 10
-12 10 -18 1 -29 -9 -11 -9 -16 2 -23 7 -4 13 -17 13 -29 0 -12 16 -35 36 -53
33 -29 42 -32 80 -26 24 3 74 2 111 -4 52 -7 75 -7 100 4 35 14 94 9 117 -10
22 -18 50 -26 50 -14 0 6 8 9 17 8 10 -1 26 1 36 6 9 4 23 5 31 2 8 -3 17 -1
19 6 3 9 8 9 20 -1 13 -11 23 -12 54 -1 27 9 38 9 41 0 6 -17 30 -13 40 6 12
21 79 26 86 6 3 -7 12 -13 21 -13 8 0 15 -7 15 -15 0 -9 6 -12 15 -9 8 4 13 9
11 13 -2 3 13 7 35 7 40 1 47 -4 28 -23 -7 -7 -3 -10 15 -8 15 2 24 -1 20 -6
-3 -5 9 -9 25 -9 44 0 89 -48 61 -65 -9 -5 -11 0 -9 21 0 4 -11 12 -26 20 -30
15 -59 8 -51 -13 5 -12 -1 -13 -27 -9 -30 6 -30 5 -7 -5 25 -11 25 -11 4 -19
-24 -10 -38 -36 -23 -46 6 -3 3 -11 -8 -20 -17 -12 -17 -13 0 -14 34 0 17 -25
-19 -27 -40 -2 -74 -23 -38 -23 11 0 25 5 32 12 7 7 13 8 13 3 1 -6 2 -17 3
-25 0 -9 13 -16 34 -18 36 -4 43 -25 12 -42 -14 -7 -20 -7 -20 0 0 5 5 10 10
10 6 0 10 5 10 10 0 6 -16 8 -40 4 -35 -6 -39 -4 -34 10 6 14 3 15 -27 2 -23
-10 -34 -21 -33 -35 0 -16 -3 -18 -17 -10 -10 5 -25 9 -35 9 -13 0 -10 -7 13
-29 17 -16 39 -32 49 -35 11 -3 0 -3 -22 -1 -50 6 -106 -4 -98 -17 3 -5 14 -6
25 -3 10 4 19 2 19 -4 0 -5 15 -12 32 -14 18 -2 3 -2 -34 0 -55 3 -68 1 -68
-11 0 -8 -8 -16 -17 -18 -12 -2 -1 -12 32 -28 42 -20 46 -25 27 -28 -13 -2
-34 4 -48 13 -14 9 -33 13 -45 10 -11 -4 -27 -1 -35 6 -11 9 -18 9 -26 1 -9
-9 -8 -12 5 -12 9 0 17 -6 17 -14 0 -10 7 -12 21 -9 15 4 27 0 35 -12 17 -22
18 -35 4 -35 -5 0 -10 6 -10 14 0 23 -17 28 -41 14 -17 -10 -23 -10 -26 0 -3
6 -14 12 -26 11 -12 0 -16 -3 -9 -6 25 -10 9 -38 -35 -61 -30 -16 -37 -15 -19
4 21 21 20 31 -3 37 -13 3 -19 13 -18 26 1 17 6 21 22 17 11 -3 27 -1 35 4 8
5 11 10 5 11 -5 1 -14 2 -20 4 -5 1 -16 3 -24 3 -7 1 -11 8 -7 17 3 9 0 15 -8
15 -15 0 -30 -45 -21 -60 3 -4 -7 -18 -22 -30 l-27 -21 -8 21 c-10 26 -3 40
20 40 24 0 2 18 -27 22 -14 1 -26 8 -28 15 -3 7 4 9 19 6 l23 -6 -20 22 c-19
22 -19 24 -2 36 20 15 23 37 3 29 -7 -3 -16 2 -19 10 -7 17 -43 22 -49 7 -5
-13 -48 -24 -48 -12 0 6 9 11 19 11 18 0 38 17 30 24 -30 26 -103 -10 -83 -41
7 -12 3 -23 -19 -45 -31 -30 -32 -43 -3 -32 9 4 15 13 12 20 -4 10 3 14 20 14
14 0 23 4 20 9 -5 8 26 21 49 21 16 -1 -36 -40 -52 -40 -32 0 -4 -25 33 -30
25 -3 34 -8 26 -13 -7 -5 -21 -5 -32 -2 -11 4 -20 2 -20 -4 0 -6 -7 -7 -17 -4
-12 5 -14 3 -8 -7 5 -8 1 -18 -10 -26 -14 -11 -15 -16 -6 -28 9 -11 8 -17 -4
-30 -15 -15 -12 -20 8 -17 11 2 8 -24 -5 -37 -8 -8 -8 -15 0 -25 14 -16 6 -27
-20 -27 -16 0 -23 -17 -19 -42 0 -5 -8 -8 -19 -8 -11 0 -20 -5 -20 -11 0 -6 7
-9 15 -5 8 3 15 1 15 -4 0 -6 -4 -10 -10 -10 -5 0 -7 -13 -3 -32 5 -23 2 -34
-12 -44 -16 -12 -17 -17 -6 -40 10 -23 9 -29 -9 -44 -22 -19 -18 -46 8 -65 11
-9 10 -14 -7 -29 -11 -10 -18 -23 -14 -29 4 -6 -2 -8 -14 -5 -15 4 -25 -1 -34
-18 -7 -13 -18 -24 -26 -24 -19 0 -16 17 4 29 16 9 16 12 3 21 -24 15 -40 12
-40 -9 0 -11 -9 -23 -20 -26 -11 -3 -20 -10 -20 -15 0 -4 -12 -11 -26 -14 -17
-5 -24 -12 -20 -21 3 -8 1 -17 -5 -20 -5 -4 -7 -10 -4 -15 3 -5 1 -11 -5 -15
-5 -3 -10 -14 -10 -24 0 -10 -10 -23 -23 -29 -22 -11 -22 -11 -1 -11 12 -1 25
-9 29 -18 9 -24 7 -28 -12 -28 -9 0 -18 -6 -20 -12 -3 -7 0 -13 6 -13 6 0 11
-7 11 -15 0 -8 -9 -15 -19 -15 -31 0 -34 -18 -4 -22 29 -3 37 -16 24 -37 -8
-13 -12 -13 -26 -1 -15 13 -17 12 -14 -5 3 -13 15 -22 34 -25 25 -5 27 -7 10
-11 -12 -4 -21 -15 -22 -28 -2 -18 2 -21 20 -16 17 5 18 4 7 -4 -8 -5 -27 -7
-42 -4 -38 7 -35 -4 4 -21 30 -13 31 -14 9 -15 -21 -1 -22 -3 -10 -18 12 -14
12 -16 -1 -11 -11 4 -15 -3 -17 -28 -1 -31 0 -33 18 -24 15 9 19 7 19 -6 0 -9
-9 -18 -20 -21 -23 -6 -27 -23 -5 -23 17 0 19 -12 5 -26 -7 -7 3 -16 32 -29
42 -18 43 -18 14 -22 -17 -3 -30 -12 -33 -24 -3 -10 -12 -19 -19 -19 -8 0 -14
-4 -14 -10 0 -5 8 -7 18 -3 14 5 13 3 -3 -10 -16 -13 -18 -18 -8 -28 17 -17
17 -51 1 -67 -10 -10 -10 -15 0 -21 10 -6 9 -10 -7 -14 -12 -3 -21 -10 -21
-16 0 -6 8 -8 17 -5 10 3 8 0 -5 -8 -18 -11 -20 -16 -10 -26 10 -10 10 -15 -2
-23 -13 -8 -12 -11 4 -24 15 -12 17 -18 8 -27 -9 -9 -7 -14 6 -24 10 -8 12
-13 5 -14 -7 0 -13 -7 -13 -15 0 -8 6 -15 13 -15 9 0 8 -3 -2 -9 -8 -5 -11
-16 -6 -30 4 -14 1 -23 -9 -27 -25 -9 -19 -24 9 -24 32 0 32 -16 0 -24 -31 -8
-33 -28 -3 -24 13 2 23 -1 23 -7 0 -5 -5 -9 -11 -7 -8 1 -12 -11 -12 -34 0
-20 -5 -40 -11 -44 -7 -3 -9 -14 -6 -22 4 -11 0 -18 -12 -20 -13 -3 -11 -5 10
-10 22 -4 27 -2 27 13 0 25 27 24 35 0 3 -11 14 -22 23 -24 9 -2 5 -4 -10 -2
-16 1 -30 -5 -33 -13 -8 -22 -6 -24 19 -18 20 5 23 3 19 -14 -3 -11 -9 -23
-14 -26 -5 -3 -9 -14 -9 -25 0 -10 -5 -19 -12 -19 -7 0 -8 -3 -3 -9 13 -12
102 -20 112 -11 15 15 60 15 87 0 27 -14 41 -12 128 17 12 4 20 -2 26 -17 8
-21 9 -21 15 -5 6 14 10 15 21 5 11 -8 25 -9 51 -1 21 5 50 7 66 4 19 -3 33 0
44 11 16 15 42 15 85 -1 11 -4 8 -8 -10 -13 l-25 -7 28 -8 c28 -7 62 9 51 26
-6 11 57 0 71 -12 15 -14 35 -10 35 7 0 13 5 12 30 -6 26 -18 31 -19 36 -6 3
8 3 20 -1 27 -5 8 1 9 24 4 21 -4 43 -2 64 8 24 12 44 13 82 7 104 -17 145
-20 145 -9 0 6 6 9 14 6 7 -3 20 3 29 14 9 10 22 20 29 20 7 1 24 3 38 5 45 6
111 -6 103 -19 -4 -7 0 -6 10 2 14 11 23 11 46 2 16 -7 28 -19 27 -26 -2 -27
19 -16 27 14 8 34 18 38 39 18 7 -7 22 -16 33 -19 11 -3 28 -9 37 -13 11 -4
18 -3 18 3 0 6 -9 14 -20 17 -11 3 -20 13 -20 22 0 13 9 15 44 11 32 -4 49 -1
60 10 12 12 19 13 27 5 7 -7 21 -8 42 -2 17 5 33 5 36 0 4 -5 30 -14 60 -20
46 -10 56 -9 72 5 9 8 30 14 46 13 15 -2 37 2 49 9 22 12 64 6 75 -11 4 -6 19
-4 38 6 33 16 41 16 83 -1 15 -6 35 -9 43 -6 8 4 17 -1 21 -10 8 -20 24 -21
24 -1 0 8 -4 15 -10 15 -5 0 -10 4 -10 10 0 5 16 2 35 -7 21 -10 34 -22 31
-30 -8 -20 13 -26 30 -8 12 12 19 13 30 4 21 -17 17 -29 -11 -29 -26 0 -33
-18 -14 -37 6 -6 12 -42 13 -80 2 -37 6 -77 11 -87 5 -11 4 -31 -3 -49 -13
-35 -8 -47 19 -47 10 0 19 -7 19 -15 0 -21 18 -19 23 3 4 15 5 15 6 -2 1 -16
7 -18 45 -14 25 3 49 1 55 -5 15 -15 144 -16 159 0 11 11 18 10 41 -2 16 -8
31 -12 34 -9 6 6 157 14 255 13 34 0 62 4 62 10 0 5 37 10 88 10 48 0 96 2
107 3 11 1 33 -1 48 -5 19 -5 26 -4 22 2 -4 7 5 9 25 5 18 -4 30 -2 30 4 0 5
17 12 38 14 20 3 46 9 56 13 16 7 18 5 13 -8 -4 -11 -1 -17 8 -17 8 0 15 7 15
15 0 18 12 19 28 3 8 -8 15 -8 27 2 14 11 17 10 22 -8 3 -12 10 -22 15 -22 5
0 6 10 3 21 -6 19 -4 21 13 17 12 -3 23 -1 26 6 3 8 7 8 13 -1 10 -14 75 -13
85 2 4 5 23 1 48 -13 l41 -21 11 24 c9 19 16 23 38 18 15 -3 37 0 48 6 15 8
21 8 25 -2 3 -9 7 -9 18 -1 8 6 28 14 44 18 24 6 28 5 18 -5 -20 -21 -15 -29
17 -29 21 0 30 5 30 16 0 12 7 14 33 9 17 -4 40 -14 50 -23 16 -15 18 -14 24
6 5 22 13 26 46 23 9 -1 20 5 23 13 8 20 30 21 38 1 3 -8 14 -15 25 -15 15 0
19 5 14 16 -5 13 -3 15 13 6 21 -11 72 -5 92 11 10 8 16 7 22 -4 12 -18 47
-20 54 -3 7 19 26 18 26 -1 0 -8 5 -15 10 -15 6 0 10 5 10 10 0 6 5 10 11 10
5 0 8 -4 5 -8 -3 -4 11 -9 30 -9 19 -1 34 3 34 8 0 5 6 9 14 9 8 0 16 5 18 11
6 18 36 -2 43 -29 4 -15 10 -21 12 -14 3 6 15 12 28 12 13 0 27 5 31 11 3 6
19 9 34 6 15 -3 31 -2 36 3 17 15 49 16 60 1 9 -11 15 -12 25 -5 8 6 29 14 47
17 30 6 33 5 27 -13 -5 -16 -2 -20 19 -20 16 0 26 6 26 15 0 8 4 15 9 15 10 0
41 56 41 75 0 6 7 20 15 31 15 18 15 18 9 -7 -3 -15 -1 -30 6 -34 6 -4 8 -15
5 -25 -3 -10 -1 -21 5 -25 5 -3 10 -15 10 -26 0 -10 5 -19 11 -19 7 0 9 10 6
25 -3 17 0 24 7 22 6 -2 10 -11 8 -21 -2 -9 4 -16 13 -16 8 0 15 7 15 16 0 8
5 12 10 9 6 -4 7 -11 4 -17 -6 -10 12 -28 30 -28 5 0 6 16 3 35 -3 19 -2 35 4
35 5 0 9 -9 9 -21 0 -16 4 -19 20 -14 11 4 20 2 20 -4 0 -6 9 -15 20 -21 16
-9 18 -8 14 5 -9 22 15 47 37 40 12 -4 21 -1 25 10 4 10 13 13 25 10 30 -10
23 20 -8 33 l-28 12 28 -5 c19 -4 27 -1 27 9 0 8 7 16 15 20 22 8 18 37 -5 43
-14 4 -20 14 -20 32 0 15 -5 32 -10 37 -12 12 -40 115 -40 146 0 17 2 18 15 8
21 -17 29 -6 15 20 -6 11 -8 30 -4 42 8 26 54 67 74 68 9 0 21 5 27 11 8 8 13
8 17 0 9 -14 36 -14 36 -1 0 6 -6 10 -14 10 -29 0 -23 15 7 17 17 1 35 7 41
13 19 19 130 6 124 -15 -5 -17 51 -18 58 -1 3 9 14 16 24 16 11 0 22 5 25 11
5 7 12 6 23 -4 10 -8 37 -17 61 -21 38 -6 43 -4 37 10 -5 14 -1 16 24 11 16
-4 41 -2 55 3 19 7 25 6 25 -4 0 -19 53 -28 63 -10 5 9 15 11 30 6 27 -9 80
-8 96 2 6 4 11 1 11 -7 0 -18 31 -32 40 -17 3 5 27 13 52 16 40 6 46 4 51 -15
5 -21 -7 -29 -18 -11 -13 20 -25 9 -19 -17 6 -22 4 -25 -10 -20 -18 7 -46 -13
-46 -32 0 -14 16 -14 40 1 15 10 24 9 44 -2 14 -7 29 -10 32 -7 4 4 -6 11 -22
17 l-29 12 34 14 c42 18 51 18 51 -1 0 -8 -4 -15 -8 -15 -4 0 -9 -16 -10 -35
-2 -29 1 -35 18 -35 15 0 20 7 20 25 0 25 24 44 38 30 4 -4 1 -10 -5 -12 -7
-3 -13 -13 -13 -24 0 -11 -7 -22 -15 -25 -11 -4 -13 -13 -9 -27 6 -21 6 -21
-20 -4 -14 10 -26 13 -26 7 0 -5 -4 -10 -10 -10 -5 0 -7 7 -4 15 8 19 -5 19
-45 -1 -26 -13 -30 -19 -20 -30 6 -8 20 -14 31 -14 11 0 28 -5 39 -10 15 -9
17 -15 9 -30 -11 -21 3 -29 15 -10 8 13 35 13 35 -1 0 -6 7 -17 15 -25 13 -14
15 -11 13 26 -1 33 -4 40 -17 35 -27 -11 -33 -10 -38 2 -2 6 9 14 26 18 25 5
31 12 31 32 0 15 5 23 13 20 6 -2 12 -14 11 -26 0 -13 5 -21 15 -21 9 0 22 -9
29 -20 7 -11 16 -20 20 -20 10 0 12 32 3 40 -14 11 -30 50 -22 50 5 0 13 -9
16 -20 4 -11 15 -20 26 -20 18 0 20 -4 14 -30 -6 -28 -5 -30 22 -30 24 1 25 2
11 11 -14 8 -15 13 -6 23 7 8 19 11 25 9 7 -3 13 0 13 6 0 6 -8 11 -17 11 -17
1 -17 1 0 14 9 7 17 17 17 21 0 4 -8 14 -17 22 -13 10 -15 16 -5 19 19 8 15
61 -5 69 -14 6 -10 9 17 16 19 4 35 7 36 6 1 -1 5 -12 8 -24 6 -17 3 -23 -8
-23 -22 0 -20 -19 2 -26 29 -9 45 -19 44 -29 0 -6 4 -16 10 -22 8 -10 5 -13
-10 -13 -12 0 -23 9 -27 20 -3 11 -13 20 -22 20 -10 0 -13 -6 -9 -16 3 -9 6
-17 6 -20 0 -6 88 -44 104 -44 8 0 16 -9 18 -20 4 -29 22 -26 26 5 2 14 -2 25
-8 25 -7 0 -20 10 -31 23 -20 24 -25 42 -9 32 6 -3 13 1 16 9 6 17 47 13 72
-7 6 -5 12 -6 12 -1 -1 17 -67 52 -81 43 -8 -5 -25 -9 -38 -9 l-24 0 27 27
c23 22 29 25 36 13 8 -12 13 -13 30 -3 27 18 32 16 25 -6 -8 -27 22 -35 42
-11 10 11 30 20 44 20 15 0 29 5 31 11 5 15 43 -3 43 -21 0 -10 12 -16 38 -18
21 -2 37 1 37 7 0 6 13 11 29 11 17 0 32 4 36 10 3 5 12 7 20 4 8 -4 28 -1 45
5 31 10 60 6 60 -10 0 -5 -7 -9 -15 -9 -8 0 -15 -4 -15 -10 0 -15 29 -12 46 5
17 17 74 21 74 5 0 -5 5 -10 11 -10 6 0 8 9 4 21 -5 15 -4 19 4 15 24 -15 50
5 57 42 4 20 18 52 32 69 14 19 22 40 18 48 -3 9 0 33 6 54 11 36 15 38 72 51
34 7 80 12 104 11 35 -2 47 2 73 28 20 20 29 37 25 48 -8 19 14 83 29 84 5 0
0 4 -13 10 -15 6 -21 13 -16 21 12 18 12 48 1 48 -5 0 -2 11 7 25 20 31 21 55
0 55 -15 0 -14 10 3 57 3 7 1 13 -5 13 -5 0 -9 24 -9 54 0 30 -5 62 -12 70 -7
8 -10 24 -6 36 4 12 2 20 -6 20 -9 0 -8 4 1 15 10 12 9 15 -5 15 -12 0 -15 5
-11 16 4 9 0 24 -8 33 -11 12 -13 26 -7 54 7 29 6 37 -6 37 -12 0 -12 3 0 21
11 16 13 29 5 55 -5 19 -6 39 -3 45 4 5 2 16 -4 23 -7 8 -11 18 -10 22 1 5 -1
17 -6 28 -5 11 -3 26 4 38 10 15 9 23 -1 35 -10 13 -9 18 7 29 18 14 18 14 -1
33 -15 13 -19 28 -17 52 2 19 5 50 6 69 1 19 6 38 12 42 6 4 2 13 -10 22 -16
11 -17 17 -7 29 9 11 10 17 2 22 -6 4 -9 13 -6 20 2 7 -2 16 -10 19 -10 4 -13
13 -8 31 5 21 3 25 -15 25 -14 0 -21 6 -21 20 0 11 5 20 10 20 6 0 10 14 10
31 l0 31 53 -5 c28 -3 64 -8 80 -12 23 -6 26 -5 21 9 -4 12 0 16 15 16 11 0
39 7 61 16 29 12 39 21 36 33 -3 9 -8 30 -12 46 -4 17 -12 33 -18 37 -8 5 -5
18 7 40 12 21 15 34 8 36 -15 5 -14 29 1 34 6 2 11 20 11 39 -1 19 6 49 14 67
11 26 12 36 2 48 -7 8 -9 30 -6 54 3 24 1 40 -5 40 -6 0 -8 6 -5 13 3 8 0 67
-5 133 -6 65 -12 137 -13 159 -2 22 -4 108 -5 192 0 93 -4 155 -11 158 -7 5
-6 12 2 22 10 11 10 16 0 23 -8 4 -11 16 -7 28 4 11 2 23 -4 27 -6 4 -8 28 -5
60 3 39 1 56 -11 65 -12 11 -12 15 -1 29 23 27 19 68 -8 95 -14 14 -25 32 -25
40 0 9 -11 16 -27 18 -23 2 -28 8 -26 28 1 14 -1 32 -4 40 -3 8 -7 40 -8 70
-5 114 -17 296 -22 330 -3 19 -6 76 -6 125 -1 50 -6 96 -10 103 -5 6 -5 18 0
25 10 16 10 97 1 97 -5 0 -8 7 -8 15 0 8 5 14 11 12 6 -1 14 4 16 11 3 6 0 12
-6 12 -17 0 -13 28 6 39 15 8 15 11 3 26 -13 16 -10 21 24 50 37 31 43 33 101
29 36 -3 91 2 131 11 150 35 167 37 174 25 5 -9 27 -3 74 20 55 27 66 36 61
51 -4 11 -2 19 4 19 6 0 11 9 11 19 0 11 5 23 11 27 6 3 9 14 6 24 -2 9 -1 42
4 71 5 30 11 74 13 99 3 25 12 68 22 95 12 36 14 63 9 100 -4 27 -9 64 -10 80
-4 61 -17 151 -26 182 -6 18 -12 59 -14 90 -3 32 -10 100 -17 151 -10 80 -10
95 3 103 8 5 9 9 2 9 -6 0 -21 21 -34 46 -17 35 -19 48 -9 54 10 6 10 8 0 12
-17 5 0 59 21 68 44 21 53 29 73 65 11 22 25 43 30 46 5 4 6 11 2 17 -3 5 5
25 17 44 18 26 24 49 25 102 1 38 8 76 15 84 18 22 23 255 6 312 -7 25 -12 51
-10 58 1 6 -3 12 -9 12 -5 0 -10 11 -10 24 0 13 -7 43 -15 66 -8 23 -15 52
-15 64 0 11 -7 35 -16 51 -9 17 -17 46 -18 67 -1 20 -8 43 -15 52 -7 9 -10 23
-7 32 4 9 1 23 -5 30 -9 11 -8 18 1 29 10 12 9 15 -8 15 -25 0 -38 31 -17 42
20 12 19 28 -2 28 -15 0 -15 1 0 18 18 20 23 47 7 37 -6 -3 -22 3 -36 14 -20
15 -22 21 -10 21 9 0 16 4 16 9 0 6 -9 8 -21 6 -15 -3 -19 0 -15 11 3 9 1 24
-5 36 -8 15 -7 24 5 37 9 10 16 23 16 29 0 20 -27 13 -33 -8 -5 -21 -29 -19
-54 6 -18 18 -16 24 7 24 15 0 20 7 20 25 0 14 5 25 11 25 15 0 1 38 -22 61
-24 24 -25 24 -57 -6 -15 -14 -37 -25 -50 -25 -20 0 -23 4 -20 28 2 22 -1 28
-20 30 -46 7 -163 -53 -155 -79 1 -4 -11 -9 -27 -11 -24 -4 -30 -1 -30 14 0
10 -5 18 -11 18 -5 0 -7 5 -4 10 8 13 42 13 47 0 2 -5 9 -6 16 -1 19 11 3 41
-22 41 -11 0 -34 -7 -50 -15 -15 -8 -51 -15 -78 -15 -44 0 -49 2 -38 15 16 19
5 34 -12 17 -7 -7 -32 -12 -57 -12 -28 0 -51 -6 -63 -17 -19 -17 -92 -27 -82
-11 3 4 -4 8 -14 8 -24 0 -38 -30 -20 -42 9 -5 6 -8 -10 -8 -12 0 -25 7 -28
15 -4 8 -9 13 -14 10 -4 -2 -5 7 -2 22 3 17 1 24 -6 19 -15 -9 -42 4 -42 21 0
32 -25 4 -26 -29 0 -19 -4 -40 -8 -46 -11 -19 -36 -14 -36 6 0 27 -9 32 -36
22 -36 -14 -54 -2 -54 34 0 17 -4 38 -10 46 -5 9 -5 19 1 26 7 9 5 15 -7 22
-15 8 -17 24 -16 96 2 67 -1 86 -12 86 -9 0 -13 10 -11 33 2 24 8 33 24 35 23
4 28 18 9 25 -10 3 -10 7 -2 18 15 19 28 93 15 85 -14 -9 -19 15 -9 43 12 34
5 35 -27 6 -35 -34 -45 -24 -16 16 19 25 21 33 10 40 -8 5 -21 6 -29 4 -8 -2
-21 -1 -29 4 -11 7 -9 11 8 20 12 7 32 11 44 9 32 -4 33 26 2 40 -39 18 -63
15 -71 -10 -7 -22 -7 -22 -15 -3 -4 11 -8 14 -8 6 -1 -11 -4 -11 -15 -2 -10 9
-20 9 -34 2 -10 -5 -35 -8 -55 -5 -20 2 -39 0 -42 -6 -3 -5 -11 -10 -16 -10
-6 0 -7 5 -3 11 5 9 -7 10 -45 5 -29 -4 -50 -3 -48 1 11 17 -37 12 -49 -5 -11
-16 -14 -15 -33 2 -20 18 -21 18 -48 1 -18 -12 -28 -14 -31 -7 -5 17 -23 15
-38 -5 -11 -16 -13 -16 -19 -2 -5 13 -14 15 -48 8 -23 -4 -44 -4 -47 1 -9 13
-64 9 -82 -8 -11 -9 -18 -11 -18 -4 0 7 -9 12 -20 12 -22 0 -27 -15 -7 -24 6
-3 0 -3 -15 0 -29 6 -37 6 -127 1 -51 -2 -55 -5 -65 -33 -6 -17 -16 -29 -23
-27 -6 2 -14 -1 -18 -6 -3 -6 -13 -11 -22 -11 -15 0 -15 2 -1 18 9 9 19 28 23
42 7 20 5 23 -6 14 -9 -8 -37 -9 -84 -4 -38 4 -75 6 -82 3 -7 -3 -13 2 -13 11
0 13 -5 14 -26 6 -33 -13 -84 -13 -84 0 0 6 -10 4 -22 -4 -16 -10 -41 -13 -78
-11 -38 3 -62 -1 -79 -11 -18 -13 -25 -13 -31 -4 -5 7 -16 10 -25 6 -10 -3
-24 -1 -31 5 -7 6 -18 8 -24 4 -5 -3 -10 -1 -10 4 0 13 -36 15 -44 3 -3 -5
-19 -7 -36 -4 -16 2 -30 0 -30 -5 0 -14 -63 -3 -75 12 -14 17 -65 8 -65 -11 0
-8 -4 -14 -10 -14 -5 0 -10 6 -10 13 0 8 -15 11 -50 9 -27 -2 -50 -8 -50 -13
0 -5 -13 -6 -30 -2 -23 4 -30 2 -30 -11 0 -9 -4 -16 -10 -16 -5 0 -10 6 -10
13 0 24 -42 38 -78 28 -35 -11 -82 0 -82 19 0 5 -7 10 -15 10 -18 0 -19 -12
-3 -28 9 -9 8 -12 -4 -12 -9 0 -19 8 -22 17 -5 12 -9 14 -18 5 -15 -15 -28
-15 -28 -2 0 6 11 15 25 20 14 5 25 15 24 22 0 10 -2 10 -6 1 -2 -7 -18 -13
-33 -13 -16 0 -31 -4 -34 -9 -3 -4 -16 -6 -29 -4 -14 3 -29 -2 -36 -11 -9 -11
-10 -16 -2 -16 6 0 11 -7 11 -15 0 -18 -5 -18 -31 -4 -11 5 -17 14 -14 20 4 5
-1 9 -10 9 -9 0 -14 -4 -10 -9 9 -15 -10 -21 -43 -15 -19 4 -29 11 -26 19 3 7
0 16 -7 21 -7 4 -15 2 -17 -4 -2 -7 -13 -10 -28 -6 -20 5 -24 2 -24 -15 0 -12
-5 -19 -12 -17 -52 16 -68 15 -87 -5 -23 -25 -98 -34 -103 -12 -2 9 -12 7 -35
-8 -36 -23 -41 -40 -18 -63 8 -8 15 -17 15 -20 0 -3 -7 -6 -15 -6 -15 0 -20
-26 -9 -54 3 -9 12 -16 20 -16 8 0 14 -7 14 -16 0 -13 9 -15 45 -12 25 2 45 0
45 -4 0 -5 -4 -8 -9 -8 -4 0 -22 -13 -39 -29 -21 -20 -37 -28 -51 -24 -12 3
-21 1 -21 -4 0 -7 -16 -7 -42 -3 -34 7 -45 5 -51 -6 -8 -13 -12 -13 -32 0 -17
11 -25 12 -27 4 -5 -13 -109 -12 -118 2 -6 9 -110 8 -110 -1 0 -3 -29 -6 -64
-7 -52 0 -66 3 -71 16 -6 16 -7 16 -16 0 -14 -25 -32 -23 -24 2 4 12 2 20 -6
20 -7 0 -9 10 -6 30 4 16 2 32 -3 35 -7 4 -6 13 0 25 7 13 7 38 -1 77 -21 113
-22 135 -8 144 23 14 -3 44 -37 44 -21 0 -29 -5 -28 -17 2 -22 -6 -23 -32 -3
-27 20 -52 18 -66 -5 -16 -25 -28 -26 -28 -2 0 11 -11 24 -25 30 -33 15 -35
15 -35 -3 0 -19 -4 -19 -39 0 -33 16 -100 10 -108 -11 -8 -20 -18 -17 -33 10
-11 21 -18 24 -42 19 -17 -3 -33 -1 -37 4 -8 13 -61 23 -81 17z m-620 -73 c0
-12 -39 -21 -45 -11 -3 5 1 11 7 13 21 9 38 8 38 -2z m-540 -41 c0 -5 -4 -10
-9 -10 -6 0 -13 5 -16 10 -3 6 1 10 9 10 9 0 16 -4 16 -10z m230 -20 c0 -5 -2
-10 -4 -10 -3 0 -8 5 -11 10 -3 6 -1 10 4 10 6 0 11 -4 11 -10z m2618 -18 c2
-7 -2 -10 -12 -6 -9 3 -16 11 -16 16 0 13 23 5 28 -10z m-2918 -18 c0 -2 -7
-4 -15 -4 -8 0 -15 4 -15 10 0 5 7 7 15 4 8 -4 15 -8 15 -10z m2460 -29 c0 -8
-6 -15 -14 -15 -17 0 -28 14 -19 24 12 12 33 6 33 -9z m115 5 c3 -5 1 -10 -4
-10 -6 0 -11 5 -11 10 0 6 2 10 4 10 3 0 8 -4 11 -10z m-2709 -14 c9 -9 10
-17 4 -21 -5 -3 -10 -1 -10 4 0 6 -7 11 -16 11 -8 0 -12 5 -9 10 8 13 14 13
31 -4z m74 4 c-19 -13 -30 -13 -30 0 0 6 10 10 23 10 18 0 19 -2 7 -10z m166
-25 c10 -8 38 -15 62 -15 23 0 42 -4 42 -9 0 -5 -16 -9 -35 -8 -41 1 -52 -7
-35 -28 10 -12 10 -15 -5 -15 -9 0 -19 9 -22 20 -3 11 -10 20 -17 20 -14 0
-37 35 -29 44 9 9 17 7 39 -9z m-78 -12 c-4 -10 -78 -11 -78 -1 0 6 69 16 78
11 2 -1 2 -5 0 -10z m4222 -3 c0 -4 -11 -5 -25 -2 -14 2 -25 8 -25 12 0 4 11
5 25 2 14 -2 25 -8 25 -12z m-4318 -34 c10 -15 0 -26 -20 -19 -21 8 -52 33
-52 44 0 10 63 -11 72 -25z m345 4 c1 -11 -2 -20 -8 -20 -5 0 -9 9 -9 20 0 11
4 20 8 20 4 0 8 -9 9 -20z m2193 -8 c0 -4 -5 -13 -12 -20 -18 -18 -28 -15 -28
8 0 13 7 20 20 20 11 0 20 -4 20 -8z m-2390 -18 c0 -8 -45 -22 -53 -17 -15 9
14 31 33 26 11 -3 20 -7 20 -9z m2495 -23 c-3 -6 -14 -11 -23 -11 -13 0 -13 2
4 14 21 15 30 14 19 -3z m-2811 -68 c4 -9 2 -19 -3 -23 -19 -11 -64 -5 -69 9
-3 9 1 11 16 7 13 -4 22 -1 26 9 7 20 22 19 30 -2z m129 0 c-7 -2 -19 -2 -25
0 -7 3 -2 5 12 5 14 0 19 -2 13 -5z m-283 -218 c0 -8 7 -15 15 -15 8 0 15 -4
15 -10 0 -17 -46 -11 -64 9 -13 15 -14 20 -4 24 24 10 38 7 38 -8z m6180 -175
c0 -11 -79 -34 -88 -26 -9 10 3 16 37 20 17 2 35 6 38 10 9 9 13 8 13 -4z
m-134 -25 c-10 -8 -23 -12 -28 -9 -14 9 2 24 25 24 21 -1 21 -1 3 -15z m-256
-5 c0 -5 -8 -10 -17 -10 -15 0 -16 2 -3 10 19 12 20 12 20 0z m431 -53 c-1
-12 -15 -9 -19 4 -3 6 1 10 8 8 6 -3 11 -8 11 -12z m-2619 -32 c3 -13 1 -22
-3 -19 -9 5 -13 44 -5 44 2 0 6 -11 8 -25z m268 -49 c0 -3 -4 -8 -10 -11 -5
-3 -10 -1 -10 4 0 6 5 11 10 11 6 0 10 -2 10 -4z m-1847 -351 c4 -8 2 -17 -3
-20 -6 -4 -10 3 -10 14 0 25 6 27 13 6z m-2266 -555 c11 -16 10 -18 -1 -14
-15 6 -30 34 -18 34 4 0 13 -9 19 -20z m4773 -20 c0 -5 -4 -10 -10 -10 -5 0
-10 5 -10 10 0 6 5 10 10 10 6 0 10 -4 10 -10z m-5187 -1467 c-7 -2 -19 -2
-25 0 -7 3 -2 5 12 5 14 0 19 -2 13 -5z m85 -44 c-2 -15 -11 -25 -23 -26 -11
-2 -14 0 -7 3 6 3 12 20 12 37 0 22 3 28 11 20 6 -6 9 -21 7 -34z m-68 -4 c0
-8 -7 -15 -15 -15 -9 0 -12 6 -9 15 4 8 10 15 15 15 5 0 9 -7 9 -15z m-147
-19 c8 -20 1 -23 -33 -18 -35 5 -39 19 -7 25 12 2 25 5 28 6 4 0 9 -5 12 -13z
m97 0 c0 -2 -7 -6 -15 -10 -8 -3 -15 -1 -15 4 0 6 7 10 15 10 8 0 15 -2 15 -4z
m-70 -36 c0 -5 -4 -10 -10 -10 -5 0 -10 5 -10 10 0 6 5 10 10 10 6 0 10 -4 10
-10z m1315 -199 c-6 -5 -26 -12 -45 -15 l-35 -6 30 15 c34 16 64 20 50 6z
m-102 -28 c-7 -2 -19 -2 -25 0 -7 3 -2 5 12 5 14 0 19 -2 13 -5z m-123 -33
c-8 -5 -24 -9 -35 -9 l-20 0 20 9 c11 5 27 9 35 9 13 1 13 0 0 -9z m4110 -20
c0 -5 -2 -10 -4 -10 -3 0 -8 5 -11 10 -3 6 -1 10 4 10 6 0 11 -4 11 -10z
m-4223 -6 c-3 -3 -12 -4 -19 -1 -8 3 -5 6 6 6 11 1 17 -2 13 -5z m-74 -15 c7
0 3 -4 -8 -9 -29 -13 -35 -12 -35 6 0 11 5 14 16 10 9 -3 21 -6 27 -7z m-1463
-589 c0 -5 -4 -10 -10 -10 -5 0 -10 5 -10 10 0 6 5 10 10 10 6 0 10 -4 10 -10z
m265 -73 c-6 -14 -55 -31 -55 -18 0 6 53 39 58 36 1 -1 0 -9 -3 -18z m-86 -3
c2 -2 -4 -4 -13 -4 -10 0 -26 -10 -35 -21 -10 -12 -23 -20 -31 -17 -10 3 -9 8
4 20 9 9 16 21 16 27 0 10 47 5 59 -5z m-225 -10 c9 -24 8 -25 -13 -12 -11 7
-17 16 -15 20 8 13 21 9 28 -8z m360 -7 c-6 -17 -41 -33 -51 -24 -9 10 8 27
28 27 10 0 19 5 19 12 0 6 2 9 5 6 3 -3 3 -12 -1 -21z m-254 9 c0 -2 -7 -6
-15 -10 -8 -3 -15 -1 -15 4 0 6 7 10 15 10 8 0 15 -2 15 -4z m-33 -32 c-3 -3
-12 -4 -19 -1 -8 3 -5 6 6 6 11 1 17 -2 13 -5z m113 -34 c-32 -29 -50 -37 -50
-24 0 9 46 51 62 57 25 9 21 -4 -12 -33z m87 32 c10 8 18 6 33 -7 28 -25 25
-35 -10 -35 -16 0 -30 -4 -30 -8 0 -5 -14 -9 -31 -10 -31 -1 -32 -1 -9 15 14
10 20 22 16 36 -3 15 -2 17 6 9 9 -9 15 -9 25 0z m-157 -18 c0 -9 -5 -14 -12
-12 -18 6 -21 28 -4 28 9 0 16 -7 16 -16z m300 -22 c0 -9 -6 -12 -15 -8 -12 4
-15 -3 -16 -32 l-1 -37 -11 28 c-6 15 -14 27 -19 27 -4 0 -8 5 -8 10 0 6 9 10
19 10 11 0 23 5 26 10 3 6 1 10 -4 10 -6 0 -11 5 -11 10 0 6 8 5 20 -2 11 -7
20 -19 20 -26z m-95 -32 c3 -5 -1 -10 -9 -10 -9 0 -16 5 -16 10 0 6 4 10 9 10
6 0 13 -4 16 -10z m-66 -21 c-16 -10 -23 -4 -14 10 3 6 11 8 17 5 6 -4 5 -9
-3 -15z m101 -35 c0 -8 8 -14 18 -15 14 0 13 -2 -4 -9 -11 -4 -36 -5 -55 -1
l-34 8 28 8 c15 4 27 14 27 22 0 8 5 11 10 8 6 -3 10 -13 10 -21z m-230 1
c-12 -15 -30 -12 -30 6 0 5 10 9 21 9 18 0 19 -2 9 -15z m78 -2 c-24 -49 -32
-63 -39 -63 -5 0 -1 16 8 35 9 19 21 35 26 35 5 0 7 -3 5 -7z m117 -63 c-3 -5
-11 -10 -16 -10 -6 0 -7 5 -4 10 3 6 11 10 16 10 6 0 7 -4 4 -10z m-399 -117
c-10 -10 -19 5 -10 18 6 11 8 11 12 0 2 -7 1 -15 -2 -18z m7644 -1033 c13 -9
13 -11 0 -20 -15 -10 -40 -14 -40 -6 0 2 -3 11 -6 20 -7 18 22 22 46 6z
m-6505 -44 c7 3 15 -3 19 -12 8 -20 -2 -34 -12 -18 -4 6 -17 14 -30 18 -12 4
-19 12 -16 18 4 6 10 6 16 0 6 -6 16 -8 23 -6z m215 0 c0 -3 -4 -8 -10 -11 -5
-3 -10 -1 -10 4 0 6 5 11 10 11 6 0 10 -2 10 -4z m-232 -56 c-7 -11 -16 -20
-20 -20 -13 0 -9 28 5 33 23 10 27 7 15 -13z m96 4 c9 -8 16 -20 16 -25 0 -6
-7 -3 -16 5 -8 9 -20 16 -25 16 -6 0 -7 5 -4 10 8 13 11 13 29 -6z m1 -54 c3
-5 1 -10 -4 -10 -6 0 -11 5 -11 10 0 6 2 10 4 10 3 0 8 -4 11 -10z m-227 -24
c-12 -12 -38 -18 -38 -8 0 3 8 11 17 18 22 15 37 8 21 -10z m132 -10 c0 -3 -4
-8 -10 -11 -5 -3 -10 -1 -10 4 0 6 5 11 10 11 6 0 10 -2 10 -4z m-63 -21 c9
-26 -4 -29 -33 -6 l-27 21 27 0 c15 0 29 -7 33 -15z m-58 -53 c-5 -13 -7 -27
-5 -31 3 -4 -8 -5 -25 -3 -16 2 -29 9 -29 14 0 6 9 8 20 5 15 -4 20 0 20 15 0
10 -4 17 -9 13 -5 -3 -12 -1 -16 5 -3 6 4 14 17 19 29 11 40 -4 27 -37z m61
-16 c0 -3 -4 -8 -10 -11 -5 -3 -10 -1 -10 4 0 6 5 11 10 11 6 0 10 -2 10 -4z
m-158 -109 c-15 -7 -26 -7 -33 0 -6 6 1 10 23 10 30 0 30 -1 10 -10z m83 -12
c-32 -26 -45 -31 -45 -16 0 5 9 13 20 16 11 3 20 11 20 16 0 5 8 9 18 9 13 0
10 -6 -13 -25z m-85 -125 c0 -5 -4 -10 -10 -10 -5 0 -10 5 -10 10 0 6 5 10 10
10 6 0 10 -4 10 -10z m-468 -102 c-7 -7 -12 -8 -12 -2 0 14 12 26 19 19 2 -3
-1 -11 -7 -17z m-382 -652 c0 -11 -19 -15 -25 -6 -3 5 1 10 9 10 9 0 16 -2 16
-4z m55 -36 c-3 -5 -13 -10 -21 -10 -8 0 -12 5 -9 10 3 6 13 10 21 10 8 0 12
-4 9 -10z m25 -60 c0 -5 -9 -14 -20 -20 -19 -10 -20 -10 -8 9 13 22 28 28 28
11z m6140 -81 c0 -6 -4 -7 -10 -4 -5 3 -10 11 -10 16 0 6 5 7 10 4 6 -3 10
-11 10 -16z m-6143 -6 c-4 -3 -2 -12 4 -20 9 -10 8 -13 -4 -13 -8 0 -17 6 -20
14 -4 9 -14 13 -29 9 -18 -4 -20 -3 -8 6 16 11 68 15 57 4z m192 -37 c-2 -2
-18 -7 -34 -10 l-30 -6 30 14 c26 12 46 14 34 2z m-172 -42 c-3 -3 -12 -4 -19
-1 -8 3 -5 6 6 6 11 1 17 -2 13 -5z m-142 -234 c3 -5 -3 -10 -15 -10 -12 0
-18 5 -15 10 3 6 10 10 15 10 5 0 12 -4 15 -10z m-135 -270 c0 -5 -4 -10 -10
-10 -5 0 -10 5 -10 10 0 6 5 10 10 10 6 0 10 -4 10 -10z m6577 -206 c-3 -3
-12 -4 -19 -1 -8 3 -5 6 6 6 11 1 17 -2 13 -5z m287 -9 c6 -16 -3 -19 -28 -9
-9 3 -13 10 -10 15 8 14 31 11 38 -6z m-155 -27 c6 -17 6 -30 0 -33 -5 -4 -9
3 -9 14 0 18 -35 39 -46 28 -9 -8 8 -37 22 -37 12 0 12 -4 2 -20 -7 -11 -16
-20 -19 -20 -6 0 -29 77 -29 94 0 3 16 5 35 3 28 -2 37 -7 44 -29z m-114 12
c3 -5 1 -10 -4 -10 -6 0 -11 5 -11 10 0 6 2 10 4 10 3 0 8 -4 11 -10z m555 0
c0 -5 -5 -10 -11 -10 -5 0 -7 5 -4 10 3 6 8 10 11 10 2 0 4 -4 4 -10z m-2000
-40 c0 -5 -4 -10 -10 -10 -5 0 -10 5 -10 10 0 6 5 10 10 10 6 0 10 -4 10 -10z
m-4010 -54 c0 -3 -4 -8 -10 -11 -5 -3 -10 -1 -10 4 0 6 5 11 10 11 6 0 10 -2
10 -4z m1217 -102 c-3 -3 -12 -4 -19 -1 -8 3 -5 6 6 6 11 1 17 -2 13 -5z
m-410 -10 c-3 -3 -12 -4 -19 -1 -8 3 -5 6 6 6 11 1 17 -2 13 -5z m-72 -14 c3
-5 1 -10 -4 -10 -6 0 -11 5 -11 10 0 6 2 10 4 10 3 0 8 -4 11 -10z m-792 -35
c-6 -17 -25 -15 -31 3 -2 7 5 12 17 12 14 0 19 -5 14 -15z m4068 -42 c-11 -5
-11 -7 0 -14 11 -7 11 -12 2 -26 -6 -10 -17 -17 -24 -15 -7 2 -25 4 -41 5 -33
2 -32 19 3 27 16 4 20 8 11 14 -20 12 -14 24 16 28 30 4 56 -11 33 -19z m-111
-3 c0 -5 -4 -10 -10 -10 -5 0 -10 5 -10 10 0 6 5 10 10 10 6 0 10 -4 10 -10z
m200 -20 c0 -5 -4 -10 -10 -10 -5 0 -10 5 -10 10 0 6 5 10 10 10 6 0 10 -4 10
-10z m37 -122 c-3 -8 -6 -5 -6 6 -1 11 2 17 5 13 3 -3 4 -12 1 -19z m-247 -20
c0 -13 -23 -5 -28 10 -2 7 2 10 12 6 9 -3 16 -11 16 -16z m-225 -18 c-3 -5
-13 -10 -21 -10 -8 0 -12 5 -9 10 3 6 13 10 21 10 8 0 12 -4 9 -10z m-1165
-50 c0 -5 -4 -10 -10 -10 -5 0 -10 5 -10 10 0 6 5 10 10 10 6 0 10 -4 10 -10z"/>
<path d="M3710 9419 c0 -5 5 -7 10 -4 6 3 10 8 10 11 0 2 -4 4 -10 4 -5 0 -10
-5 -10 -11z"/>
<path d="M3125 9412 c-13 -13 -2 -22 25 -20 17 1 30 5 30 9 0 8 -48 18 -55 11z"/>
<path d="M2840 9404 c0 -17 17 -36 24 -26 3 5 -1 15 -9 22 -8 7 -15 9 -15 4z"/>
<path d="M2980 9400 c0 -5 12 -10 26 -10 14 0 23 4 19 10 -3 6 -15 10 -26 10
-10 0 -19 -4 -19 -10z"/>
<path d="M3210 9399 c0 -5 5 -7 10 -4 6 3 10 8 10 11 0 2 -4 4 -10 4 -5 0 -10
-5 -10 -11z"/>
<path d="M7653 9393 c-7 -2 -13 -9 -13 -14 0 -14 26 -10 40 6 10 12 10 15 -1
14 -8 0 -20 -3 -26 -6z"/>
<path d="M2540 9363 c0 -22 2 -25 10 -13 13 20 13 40 0 40 -5 0 -10 -12 -10
-27z"/>
<path d="M5755 9380 c3 -5 8 -10 11 -10 2 0 4 5 4 10 0 6 -5 10 -11 10 -5 0
-7 -4 -4 -10z"/>
<path d="M5607 9363 c-12 -12 -7 -33 8 -33 17 0 19 9 7 28 -5 7 -11 9 -15 5z"/>
<path d="M5475 9351 c-3 -5 -1 -12 5 -16 5 -3 10 1 10 9 0 18 -6 21 -15 7z"/>
<path d="M5336 9337 c-16 -12 -16 -14 -2 -26 10 -9 25 -11 43 -6 19 5 23 9 13
13 -8 3 -20 11 -25 19 -9 11 -13 12 -29 0z"/>
<path d="M2586 9281 c-4 -5 3 -15 15 -21 27 -15 31 -10 9 13 -11 11 -20 14
-24 8z"/>
<path d="M2590 9200 c0 -5 5 -10 10 -10 6 0 10 5 10 10 0 6 -4 10 -10 10 -5 0
-10 -4 -10 -10z"/>
<path d="M2630 9180 c0 -5 4 -10 9 -10 6 0 13 5 16 10 3 6 -1 10 -9 10 -9 0
-16 -4 -16 -10z"/>
<path d="M2346 9091 c-3 -4 3 -16 13 -25 21 -19 37 -7 27 19 -6 16 -32 20 -40
6z"/>
<path d="M2400 9091 c0 -6 5 -13 10 -16 6 -3 10 1 10 9 0 9 -4 16 -10 16 -5 0
-10 -4 -10 -9z"/>
<path d="M5285 9070 c-3 -5 1 -10 9 -10 9 0 16 5 16 10 0 6 -4 10 -9 10 -6 0
-13 -4 -16 -10z"/>
<path d="M1850 9035 c0 -14 5 -25 10 -25 6 0 10 4 10 9 0 5 3 16 6 25 4 11 1
16 -10 16 -10 0 -16 -9 -16 -25z"/>
<path d="M2206 9032 c-3 -6 1 -13 10 -16 23 -9 28 -2 10 13 -8 7 -17 8 -20 3z"/>
<path d="M2060 9010 c0 -5 5 -10 10 -10 6 0 10 5 10 10 0 6 -4 10 -10 10 -5 0
-10 -4 -10 -10z"/>
<path d="M2305 8999 c-10 -15 3 -25 16 -12 7 7 7 13 1 17 -6 3 -14 1 -17 -5z"/>
<path d="M2105 8969 c-4 -6 -5 -13 -2 -16 7 -7 27 6 27 18 0 12 -17 12 -25 -2z"/>
<path d="M2033 8953 c-15 -5 -18 -43 -4 -43 5 0 14 7 21 15 14 17 3 35 -17 28z"/>
<path d="M2230 8942 c0 -13 39 -46 46 -40 8 9 -19 48 -33 48 -7 0 -13 -4 -13
-8z"/>
<path d="M2305 8890 c3 -5 11 -10 16 -10 6 0 7 5 4 10 -3 6 -11 10 -16 10 -6
0 -7 -4 -4 -10z"/>
<path d="M2170 8845 c0 -8 4 -15 9 -15 5 0 11 7 15 15 3 9 0 15 -9 15 -8 0
-15 -7 -15 -15z"/>
<path d="M8225 8710 c-3 -5 1 -10 10 -10 9 0 13 5 10 10 -3 6 -8 10 -10 10 -2
0 -7 -4 -10 -10z"/>
<path d="M9275 8500 c-3 -5 -1 -10 4 -10 6 0 11 5 11 10 0 6 -2 10 -4 10 -3 0
-8 -4 -11 -10z"/>
<path d="M1410 7510 c0 -14 26 -23 41 -15 8 6 7 10 -2 16 -19 12 -39 11 -39
-1z"/>
<path d="M1415 7450 c3 -5 11 -10 16 -10 6 0 7 5 4 10 -3 6 -11 10 -16 10 -6
0 -7 -4 -4 -10z"/>
<path d="M1520 5810 c0 -18 3 -19 20 -10 22 12 18 30 -6 30 -8 0 -14 -9 -14
-20z"/>
<path d="M1330 5155 c12 -15 30 -12 30 6 0 5 -10 9 -21 9 -18 0 -19 -2 -9 -15z"/>
<path d="M955 4750 c-3 -5 1 -10 9 -10 8 0 18 5 21 10 3 6 -1 10 -9 10 -8 0
-18 -4 -21 -10z"/>
<path d="M930 4440 c0 -5 5 -10 10 -10 6 0 10 5 10 10 0 6 -4 10 -10 10 -5 0
-10 -4 -10 -10z"/>
<path d="M948 3883 c7 -3 16 -2 19 1 4 3 -2 6 -13 5 -11 0 -14 -3 -6 -6z"/>
<path d="M1800 3630 c0 -5 4 -10 9 -10 6 0 13 5 16 10 3 6 -1 10 -9 10 -9 0
-16 -4 -16 -10z"/>
<path d="M1771 3596 c12 -10 59 -15 59 -6 0 5 -14 10 -32 10 -17 0 -29 -2 -27
-4z"/>
<path d="M1895 3559 c-4 -6 -5 -13 -2 -16 7 -7 27 6 27 18 0 12 -17 12 -25 -2z"/>
<path d="M1840 3535 c-16 -19 0 -19 26 0 16 12 16 14 3 15 -9 0 -22 -7 -29
-15z"/>
<path d="M1280 3530 c0 -5 10 -10 23 -10 18 0 19 2 7 10 -19 13 -30 13 -30 0z"/>
<path d="M1340 3510 c0 -5 5 -10 11 -10 5 0 7 5 4 10 -3 6 -8 10 -11 10 -2 0
-4 -4 -4 -10z"/>
<path d="M1849 3456 c10 -11 8 -17 -6 -25 -17 -10 -17 -10 2 -10 11 0 28 4 39
8 17 7 16 8 -7 24 -32 21 -44 22 -28 3z"/>
<path d="M1280 3425 c-9 -10 -9 -15 -1 -15 6 0 11 4 11 9 0 5 8 12 18 14 14 4
14 5 1 6 -9 0 -22 -6 -29 -14z"/>
<path d="M1340 3408 c-24 -10 -24 -10 -5 -18 31 -13 38 -11 31 6 -5 13 -1 15
19 10 14 -4 25 -2 25 4 0 13 -37 12 -70 -2z"/>
<path d="M1720 3400 c-13 -8 -13 -10 2 -10 9 0 20 5 23 10 8 13 -5 13 -25 0z"/>
<path d="M1465 3390 c-3 -5 -1 -10 4 -10 6 0 11 5 11 10 0 6 -2 10 -4 10 -3 0
-8 -4 -11 -10z"/>
<path d="M1385 3360 c-4 -6 5 -10 20 -10 15 0 24 4 20 10 -3 6 -12 10 -20 10
-8 0 -17 -4 -20 -10z"/>
<path d="M1813 3356 c-13 -6 -23 -14 -23 -18 0 -14 21 -8 42 12 24 22 16 24
-19 6z"/>
<path d="M8905 3350 c-3 -5 1 -10 9 -10 9 0 16 5 16 10 0 6 -4 10 -9 10 -6 0
-13 -4 -16 -10z"/>
<path d="M1303 3342 c-8 -5 -3 -11 14 -19 20 -10 24 -9 19 2 -2 7 0 16 7 19 7
2 3 5 -8 5 -11 0 -25 -3 -32 -7z"/>
<path d="M1358 3313 c6 -2 18 -2 25 0 6 3 1 5 -13 5 -14 0 -19 -2 -12 -5z"/>
<path d="M1490 3290 c0 -5 4 -10 9 -10 6 0 13 5 16 10 3 6 -1 10 -9 10 -9 0
-16 -4 -16 -10z"/>
<path d="M1502 3273 c-6 -3 -10 -9 -6 -14 3 -5 -2 -9 -10 -9 -29 0 -16 -18 17
-23 43 -6 57 1 57 27 0 22 -28 31 -58 19z"/>
<path d="M1606 3265 c-3 -8 -1 -15 3 -15 5 0 11 7 15 15 3 8 1 15 -3 15 -5 0
-11 -7 -15 -15z"/>
<path d="M1770 3270 c0 -5 5 -10 10 -10 6 0 10 5 10 10 0 6 -4 10 -10 10 -5 0
-10 -4 -10 -10z"/>
<path d="M1680 3246 c0 -10 -7 -12 -22 -8 -21 5 -22 4 -9 -11 7 -9 9 -17 4
-17 -5 0 -18 -7 -29 -15 -18 -14 -18 -14 9 -15 20 0 30 6 37 24 5 13 19 31 32
40 l22 16 -22 0 c-12 0 -22 -6 -22 -14z"/>
<path d="M1580 3220 c0 -5 4 -10 9 -10 6 0 13 5 16 10 3 6 -1 10 -9 10 -9 0
-16 -4 -16 -10z"/>
<path d="M1500 3200 c-8 -5 -10 -10 -5 -10 6 0 17 5 25 10 8 5 11 10 5 10 -5
0 -17 -5 -25 -10z"/>
<path d="M1520 3170 c0 -5 5 -10 10 -10 6 0 10 5 10 10 0 6 -4 10 -10 10 -5 0
-10 -4 -10 -10z"/>
<path d="M1560 3170 c0 -5 5 -10 11 -10 5 0 7 5 4 10 -3 6 -8 10 -11 10 -2 0
-4 -4 -4 -10z"/>
<path d="M1510 3100 c0 -5 9 -10 20 -10 11 0 20 5 20 10 0 6 -9 10 -20 10 -11
0 -20 -4 -20 -10z"/>
<path d="M1210 3010 c0 -5 4 -10 9 -10 6 0 13 5 16 10 3 6 -1 10 -9 10 -9 0
-16 -4 -16 -10z"/>
<path d="M958 2583 c-10 -2 -18 -10 -18 -16 0 -7 -14 -20 -31 -30 -39 -22 -33
-33 7 -12 16 8 36 15 44 15 22 1 47 23 43 38 -5 12 -14 13 -45 5z"/>
<path d="M885 2460 c3 -5 10 -10 16 -10 5 0 9 5 9 10 0 6 -7 10 -16 10 -8 0
-12 -4 -9 -10z"/>
<path d="M888 2373 c-28 -7 -21 -21 7 -15 14 2 25 8 25 13 0 9 -4 10 -32 2z"/>
<path d="M880 1905 c-8 -9 -8 -15 -2 -15 12 0 26 19 19 26 -2 2 -10 -2 -17
-11z"/>
<path d="M6590 1446 c0 -15 21 -26 51 -26 27 0 23 13 -8 28 -35 16 -43 15 -43
-2z"/>
<path d="M6790 1449 c0 -6 -6 -9 -14 -6 -8 3 -17 -1 -20 -9 -9 -23 -8 -24 24
-8 29 15 40 34 20 34 -5 0 -10 -5 -10 -11z"/>
<path d="M6953 1436 c-46 -16 -40 -31 10 -27 45 3 57 7 57 20 0 15 -34 18 -67
7z"/>
<path d="M7177 1433 c-10 -9 -9 -23 2 -23 5 0 11 7 15 15 5 15 -5 20 -17 8z"/>
<path d="M6858 1408 c23 -23 39 -20 29 7 -4 8 -17 15 -29 15 l-22 0 22 -22z"/>
<path d="M7080 1420 c0 -5 4 -10 9 -10 6 0 13 5 16 10 3 6 -1 10 -9 10 -9 0
-16 -4 -16 -10z"/>
<path d="M7030 1409 c0 -5 5 -7 10 -4 6 3 10 8 10 11 0 2 -4 4 -10 4 -5 0 -10
-5 -10 -11z"/>
<path d="M6630 1400 c-13 -8 -12 -10 3 -10 9 0 17 5 17 10 0 12 -1 12 -20 0z"/>
<path d="M6670 1400 c0 -5 4 -10 9 -10 6 0 13 5 16 10 3 6 -1 10 -9 10 -9 0
-16 -4 -16 -10z"/>
<path d="M6770 1400 c0 -13 20 -13 40 0 12 8 9 10 -12 10 -16 0 -28 -4 -28
-10z"/>
<path d="M6555 1389 c-10 -15 3 -25 16 -12 7 7 7 13 1 17 -6 3 -14 1 -17 -5z"/>
<path d="M6967 1387 c-2 -6 2 -18 9 -25 11 -10 15 -8 24 7 5 11 10 22 10 25 0
12 -38 6 -43 -7z"/>
<path d="M7045 1390 c-3 -5 1 -10 10 -10 9 0 13 5 10 10 -3 6 -8 10 -10 10 -2
0 -7 -4 -10 -10z"/>
<path d="M7130 1391 c0 -4 11 -6 25 -3 14 2 25 6 25 8 0 2 -11 4 -25 4 -14 0
-25 -4 -25 -9z"/>
<path d="M6441 1381 c-7 -5 -9 -11 -4 -14 4 -3 17 1 28 9 21 16 0 20 -24 5z"/>
<path d="M6895 1380 c-3 -5 1 -10 10 -10 9 0 13 5 10 10 -3 6 -8 10 -10 10 -2
0 -7 -4 -10 -10z"/>
<path d="M6506 1372 c-3 -6 -1 -14 5 -17 14 -9 20 -2 10 14 -6 8 -11 9 -15 3z"/>
<path d="M6816 1357 c-18 -13 -18 -14 -1 -21 22 -8 28 -3 23 19 -3 14 -5 14
-22 2z"/>
<path d="M7080 1360 c19 -13 30 -13 30 0 0 6 -10 10 -22 10 -19 0 -20 -2 -8
-10z"/>
<path d="M7923 1363 c-13 -2 -23 -9 -23 -14 0 -13 19 -11 55 6 31 14 17 17
-32 8z"/>
<path d="M8155 1360 c3 -5 11 -10 17 -10 6 0 17 -8 24 -17 7 -10 16 -15 20
-11 11 11 -26 48 -48 48 -11 0 -16 -4 -13 -10z"/>
<path d="M6710 1351 c0 -5 5 -13 10 -16 6 -3 10 -2 10 4 0 5 -4 13 -10 16 -5
3 -10 2 -10 -4z"/>
<path d="M8335 1350 c3 -5 11 -10 16 -10 6 0 7 5 4 10 -3 6 -11 10 -16 10 -6
0 -7 -4 -4 -10z"/>
<path d="M6960 1328 c11 -12 23 -19 26 -15 9 9 -15 37 -33 37 -10 0 -8 -6 7
-22z"/>
<path d="M7035 1327 c-8 -28 -3 -42 12 -36 5 2 6 18 2 34 l-6 30 -8 -28z"/>
<path d="M7976 1342 c6 -4 13 -15 17 -24 9 -24 27 -23 27 1 0 18 -18 31 -43
31 -8 0 -9 -3 -1 -8z"/>
<path d="M8085 1340 c3 -5 8 -10 11 -10 2 0 4 5 4 10 0 6 -5 10 -11 10 -5 0
-7 -4 -4 -10z"/>
<path d="M7241 1323 c7 -10 14 -19 15 -21 1 -2 29 2 63 9 33 6 58 15 55 20 -8
13 -68 11 -82 -3 -10 -10 -17 -10 -32 0 -28 17 -35 15 -19 -5z"/>
<path d="M8142 1328 c3 -7 13 -15 22 -16 12 -3 17 1 14 10 -3 7 -13 15 -22 16
-12 3 -17 -1 -14 -10z"/>
<path d="M8270 1325 c0 -8 5 -15 10 -15 6 0 10 7 10 15 0 8 -4 15 -10 15 -5 0
-10 -7 -10 -15z"/>
<path d="M6398 1323 c6 -2 18 -2 25 0 6 3 1 5 -13 5 -14 0 -19 -2 -12 -5z"/>
<path d="M6853 1323 c-20 -7 -15 -23 7 -23 11 0 20 4 20 9 0 13 -12 19 -27 14z"/>
<path d="M7955 1320 c3 -5 11 -10 16 -10 6 0 7 5 4 10 -3 6 -11 10 -16 10 -6
0 -7 -4 -4 -10z"/>
<path d="M6677 1299 c5 -20 18 -25 27 -11 2 4 -4 13 -14 19 -15 10 -17 9 -13
-8z"/>
<path d="M7080 1310 c0 -5 5 -10 10 -10 6 0 10 5 10 10 0 6 -4 10 -10 10 -5 0
-10 -4 -10 -10z"/>
<path d="M7800 1309 c-13 -8 -13 -10 0 -19 8 -5 26 -10 39 -10 13 0 22 1 20 3
-2 1 -13 10 -24 19 -14 12 -25 14 -35 7z"/>
<path d="M8328 1313 c7 -3 16 -2 19 1 4 3 -2 6 -13 5 -11 0 -14 -3 -6 -6z"/>
<path d="M6443 1294 c-7 -18 11 -39 25 -30 12 7 4 46 -9 46 -6 0 -12 -7 -16
-16z"/>
<path d="M6500 1299 c0 -5 5 -7 10 -4 6 3 10 8 10 11 0 2 -4 4 -10 4 -5 0 -10
-5 -10 -11z"/>
<path d="M6800 1297 c0 -9 4 -17 9 -17 5 0 17 -7 25 -16 12 -11 20 -13 33 -5
16 9 16 10 -4 11 -12 0 -31 10 -43 22 -17 18 -20 19 -20 5z"/>
<path d="M7120 1300 c0 -5 5 -10 10 -10 6 0 10 5 10 10 0 6 -4 10 -10 10 -5 0
-10 -4 -10 -10z"/>
<path d="M7910 1302 c0 -25 96 -80 112 -64 4 4 -8 14 -26 20 -19 7 -38 22 -41
32 -6 19 -45 29 -45 12z"/>
<path d="M8245 1300 c3 -5 8 -10 11 -10 2 0 4 5 4 10 0 6 -5 10 -11 10 -5 0
-7 -4 -4 -10z"/>
<path d="M6595 1290 c3 -5 8 -10 11 -10 2 0 4 5 4 10 0 6 -5 10 -11 10 -5 0
-7 -4 -4 -10z"/>
<path d="M6730 1291 c0 -17 18 -21 24 -6 3 9 0 15 -9 15 -8 0 -15 -4 -15 -9z"/>
<path d="M6905 1280 c3 -5 11 -10 16 -10 6 0 7 5 4 10 -3 6 -11 10 -16 10 -6
0 -7 -4 -4 -10z"/>
<path d="M6995 1270 c3 -5 8 -10 11 -10 2 0 4 5 4 10 0 6 -5 10 -11 10 -5 0
-7 -4 -4 -10z"/>
<path d="M7220 1270 c0 -5 7 -10 15 -10 8 0 15 5 15 10 0 6 -7 10 -15 10 -8 0
-15 -4 -15 -10z"/>
<path d="M8228 1273 c6 -2 18 -2 25 0 6 3 1 5 -13 5 -14 0 -19 -2 -12 -5z"/>
<path d="M7172 1259 c2 -7 10 -15 17 -17 8 -3 12 1 9 9 -2 7 -10 15 -17 17 -8
3 -12 -1 -9 -9z"/>
<path d="M7856 1262 c-2 -4 0 -14 5 -22 8 -12 12 -12 16 -2 2 6 12 12 21 12
15 0 15 2 2 10 -18 12 -37 13 -44 2z"/>
<path d="M6370 1251 c0 -5 5 -13 10 -16 6 -3 10 -2 10 4 0 5 -4 13 -10 16 -5
3 -10 2 -10 -4z"/>
<path d="M8285 1249 c-10 -15 3 -25 16 -12 7 7 7 13 1 17 -6 3 -14 1 -17 -5z"/>
<path d="M6890 1240 c0 -5 5 -10 10 -10 6 0 10 5 10 10 0 6 -4 10 -10 10 -5 0
-10 -4 -10 -10z"/>
<path d="M7230 1240 c0 -5 5 -10 11 -10 5 0 7 5 4 10 -3 6 -8 10 -11 10 -2 0
-4 -4 -4 -10z"/>
<path d="M6800 1231 c0 -6 5 -13 10 -16 6 -3 10 1 10 9 0 9 -4 16 -10 16 -5 0
-10 -4 -10 -9z"/>
<path d="M6960 1230 c8 -5 20 -10 25 -10 6 0 3 5 -5 10 -8 5 -19 10 -25 10 -5
0 -3 -5 5 -10z"/>
<path d="M7027 1220 c-3 -12 0 -20 8 -20 8 0 11 8 8 20 -3 11 -7 20 -8 20 -1
0 -5 -9 -8 -20z"/>
<path d="M7136 1224 c-4 -10 -1 -14 6 -12 15 5 23 28 10 28 -5 0 -13 -7 -16
-16z"/>
<path d="M7480 1228 c0 -18 18 -34 28 -24 3 4 -2 14 -11 23 -16 16 -17 16 -17
1z"/>
<path d="M7910 1229 c0 -5 5 -7 10 -4 6 3 10 8 10 11 0 2 -4 4 -10 4 -5 0 -10
-5 -10 -11z"/>
<path d="M6540 1210 c0 -5 7 -10 15 -10 8 0 15 5 15 10 0 6 -7 10 -15 10 -8 0
-15 -4 -15 -10z"/>
<path d="M7210 1209 c0 -5 5 -7 10 -4 6 3 10 8 10 11 0 2 -4 4 -10 4 -5 0 -10
-5 -10 -11z"/>
<path d="M7298 1213 c7 -3 16 -2 19 1 4 3 -2 6 -13 5 -11 0 -14 -3 -6 -6z"/>
<path d="M6690 1194 c0 -8 5 -12 10 -9 6 3 10 10 10 16 0 5 -4 9 -10 9 -5 0
-10 -7 -10 -16z"/>
<path d="M6938 1203 c7 -3 16 -2 19 1 4 3 -2 6 -13 5 -11 0 -14 -3 -6 -6z"/>
<path d="M8175 1200 c-3 -5 -1 -10 4 -10 6 0 11 5 11 10 0 6 -2 10 -4 10 -3 0
-8 -4 -11 -10z"/>
<path d="M6420 1191 c0 -9 33 -21 58 -21 6 0 12 5 12 11 0 5 -4 7 -10 4 -5 -3
-10 -1 -10 4 0 6 -11 11 -25 11 -14 0 -25 -4 -25 -9z"/>
<path d="M6650 1174 c0 -8 5 -12 10 -9 6 4 8 11 5 16 -9 14 -15 11 -15 -7z"/>
<path d="M8075 1180 c-3 -5 1 -10 9 -10 9 0 16 5 16 10 0 6 -4 10 -9 10 -6 0
-13 -4 -16 -10z"/>
<path d="M7485 1160 c-3 -5 -1 -10 4 -10 6 0 11 5 11 10 0 6 -2 10 -4 10 -3 0
-8 -4 -11 -10z"/>
<path d="M7535 1160 c-3 -5 1 -10 10 -10 9 0 13 5 10 10 -3 6 -8 10 -10 10 -2
0 -7 -4 -10 -10z"/>
<path d="M7385 1150 c3 -5 10 -10 16 -10 5 0 9 5 9 10 0 6 -7 10 -16 10 -8 0
-12 -4 -9 -10z"/>
<path d="M2520 1130 c0 -5 5 -10 10 -10 6 0 10 5 10 10 0 6 -4 10 -10 10 -5 0
-10 -4 -10 -10z"/>
<path d="M2805 1130 c3 -5 11 -10 16 -10 6 0 7 5 4 10 -3 6 -11 10 -16 10 -6
0 -7 -4 -4 -10z"/>
<path d="M3110 1130 c0 -5 9 -10 20 -10 11 0 20 5 20 10 0 6 -9 10 -20 10 -11
0 -20 -4 -20 -10z"/>
<path d="M2125 1120 c-3 -5 3 -10 15 -10 12 0 18 5 15 10 -3 6 -10 10 -15 10
-5 0 -12 -4 -15 -10z"/>
<path d="M2211 1121 c-9 -6 -7 -10 8 -14 12 -3 21 -1 21 3 0 14 -15 19 -29 11z"/>
<path d="M7310 1090 c0 -19 3 -21 12 -12 9 9 9 15 0 24 -9 9 -12 7 -12 -12z"/>
<path d="M2400 1080 c0 -5 14 -10 30 -10 17 0 30 5 30 10 0 6 -13 10 -30 10
-16 0 -30 -4 -30 -10z"/>
<path d="M1878 1073 c6 -2 18 -2 25 0 6 3 1 5 -13 5 -14 0 -19 -2 -12 -5z"/>
<path d="M1980 1072 c0 -12 19 -26 26 -19 2 2 -2 10 -11 17 -9 8 -15 8 -15 2z"/>
<path d="M1450 1060 c0 -12 40 -34 48 -26 3 3 0 6 -6 6 -7 0 -12 7 -12 15 0 8
-7 15 -15 15 -8 0 -15 -4 -15 -10z"/>
<path d="M2685 1060 c3 -5 8 -10 11 -10 2 0 4 5 4 10 0 6 -5 10 -11 10 -5 0
-7 -4 -4 -10z"/>
<path d="M2915 1060 c3 -5 8 -10 11 -10 2 0 4 5 4 10 0 6 -5 10 -11 10 -5 0
-7 -4 -4 -10z"/>
<path d="M7306 1021 c-4 -5 -2 -12 3 -15 5 -4 12 -2 15 3 4 5 2 12 -3 15 -5 4
-12 2 -15 -3z"/>
<path d="M6858 1002 c9 -11 21 -17 26 -14 5 3 1 11 -9 19 -27 19 -38 16 -17
-5z"/>
<path d="M6925 970 c3 -5 8 -10 11 -10 2 0 4 5 4 10 0 6 -5 10 -11 10 -5 0 -7
-4 -4 -10z"/>
<path d="M7120 970 c0 -5 7 -10 16 -10 8 0 12 5 9 10 -3 6 -10 10 -16 10 -5 0
-9 -4 -9 -10z"/>
<path d="M6505 949 c-4 -6 -5 -12 -2 -15 7 -7 37 7 37 17 0 13 -27 11 -35 -2z"/>
<path d="M6610 950 c0 -5 5 -10 10 -10 6 0 10 5 10 10 0 6 -4 10 -10 10 -5 0
-10 -4 -10 -10z"/>
<path d="M6682 948 c6 -18 28 -21 28 -4 0 9 -7 16 -16 16 -9 0 -14 -5 -12 -12z"/>
<path d="M7030 944 c0 -16 17 -37 27 -33 6 2 2 13 -8 23 -11 11 -19 15 -19 10z"/>
<path d="M7125 940 c3 -5 8 -10 11 -10 2 0 4 5 4 10 0 6 -5 10 -11 10 -5 0 -7
-4 -4 -10z"/>
<path d="M7300 940 c0 -5 5 -10 11 -10 5 0 7 5 4 10 -3 6 -8 10 -11 10 -2 0
-4 -4 -4 -10z"/>
<path d="M6430 920 c0 -5 5 -10 10 -10 6 0 10 5 10 10 0 6 -4 10 -10 10 -5 0
-10 -4 -10 -10z"/>
<path d="M7415 920 c-3 -5 1 -10 9 -10 9 0 16 5 16 10 0 6 -4 10 -9 10 -6 0
-13 -4 -16 -10z"/>
<path d="M6770 910 c0 -5 5 -10 10 -10 6 0 10 5 10 10 0 6 -4 10 -10 10 -5 0
-10 -4 -10 -10z"/>
<path d="M6985 910 c3 -5 8 -10 11 -10 2 0 4 5 4 10 0 6 -5 10 -11 10 -5 0 -7
-4 -4 -10z"/>
<path d="M6357 904 c-11 -12 3 -24 28 -24 18 0 23 4 19 15 -6 15 -35 20 -47 9z"/>
<path d="M5825 880 c3 -5 11 -10 16 -10 6 0 7 5 4 10 -3 6 -11 10 -16 10 -6 0
-7 -4 -4 -10z"/>
<path d="M7668 883 c7 -3 16 -2 19 1 4 3 -2 6 -13 5 -11 0 -14 -3 -6 -6z"/>
<path d="M8270 880 c0 -5 5 -10 11 -10 5 0 7 5 4 10 -3 6 -8 10 -11 10 -2 0
-4 -4 -4 -10z"/>
<path d="M5870 860 c0 -5 5 -10 11 -10 5 0 7 5 4 10 -3 6 -8 10 -11 10 -2 0
-4 -4 -4 -10z"/>
<path d="M7960 861 c0 -5 9 -7 20 -4 11 3 20 7 20 9 0 2 -9 4 -20 4 -11 0 -20
-4 -20 -9z"/>
<path d="M4925 840 c3 -5 8 -10 11 -10 2 0 4 5 4 10 0 6 -5 10 -11 10 -5 0 -7
-4 -4 -10z"/>
</g>
</svg>
