<?xml version="1.0" standalone="no"?>
<!DOCTYPE svg PUBLIC "-//W3C//DTD SVG 20010904//EN"
 "http://www.w3.org/TR/2001/REC-SVG-20010904/DTD/svg10.dtd">
<svg version="1.0" xmlns="http://www.w3.org/2000/svg"
 width="1024.000000pt" height="724.000000pt" viewBox="0 0 1024.000000 724.000000"
 preserveAspectRatio="xMidYMid meet">
<metadata>
Created by potrace 1.16, written by Peter Selinger 2001-2019
</metadata>
<g transform="translate(0.000000,724.000000) scale(0.100000,-0.100000)"
fill="#000000" stroke="none">
<path d="M7168 5964 c-5 -4 -8 -16 -8 -28 0 -14 3 -17 11 -9 6 6 9 19 7 28 -1
9 -6 13 -10 9z"/>
<path d="M7123 5925 c-8 -14 -7 -22 4 -33 13 -13 16 -13 23 -1 5 7 5 16 1 19
-4 3 -10 12 -13 20 -4 12 -7 11 -15 -5z"/>
<path d="M7350 5930 c0 -6 7 -10 15 -10 8 0 15 2 15 4 0 2 -7 6 -15 10 -8 3
-15 1 -15 -4z"/>
<path d="M7210 5879 c0 -5 5 -7 10 -4 6 3 10 8 10 11 0 2 -4 4 -10 4 -5 0 -10
-5 -10 -11z"/>
<path d="M7047 5819 c-26 -27 -52 -47 -57 -44 -6 4 -10 -3 -10 -14 0 -11 -6
-24 -14 -28 -22 -12 -32 -63 -13 -63 8 0 20 7 27 15 9 11 15 12 20 5 7 -11 91
75 99 101 10 33 12 79 5 79 -5 0 -31 -23 -57 -51z"/>
<path d="M7493 5772 c-17 -11 1 -35 23 -30 25 4 32 38 7 38 -10 0 -23 -4 -30
-8z"/>
<path d="M7950 5770 c0 -5 11 -10 25 -10 14 0 25 5 25 10 0 6 -11 10 -25 10
-14 0 -25 -4 -25 -10z"/>
<path d="M6768 5733 c7 -3 16 -2 19 1 4 3 -2 6 -13 5 -11 0 -14 -3 -6 -6z"/>
<path d="M6397 5724 c-8 -8 1 -24 14 -24 5 0 9 7 9 15 0 15 -12 20 -23 9z"/>
<path d="M6760 5710 c0 -5 7 -10 16 -10 8 0 12 5 9 10 -3 6 -10 10 -16 10 -5
0 -9 -4 -9 -10z"/>
<path d="M5602 5679 c-10 -15 -11 -24 -3 -32 15 -15 44 14 35 36 -8 22 -16 21
-32 -4z"/>
<path d="M5914 5658 c-10 -12 -13 -18 -6 -14 7 4 15 1 18 -8 5 -13 9 -12 25 8
24 30 24 36 1 36 -11 0 -27 -10 -38 -22z"/>
<path d="M6666 5671 c-3 -4 -1 -13 4 -20 6 -10 15 -11 36 -4 l28 9 -32 12
c-17 6 -34 7 -36 3z"/>
<path d="M5735 5650 c3 -5 10 -10 16 -10 5 0 9 5 9 10 0 6 -7 10 -16 10 -8 0
-12 -4 -9 -10z"/>
<path d="M6580 5637 c0 -14 -7 -27 -15 -31 -8 -3 -15 -17 -15 -32 0 -20 4 -25
16 -20 8 3 24 1 34 -4 15 -8 21 -5 34 21 11 22 12 36 5 52 l-10 22 5 -22 c2
-14 -1 -23 -8 -23 -8 0 -11 12 -9 33 2 17 0 26 -3 19 -5 -10 -9 -10 -20 -1
-11 9 -14 7 -14 -14z"/>
<path d="M6770 5649 c0 -5 5 -7 10 -4 6 3 10 8 10 11 0 2 -4 4 -10 4 -5 0 -10
-5 -10 -11z"/>
<path d="M7060 5650 c0 -5 4 -10 9 -10 6 0 13 5 16 10 3 6 -1 10 -9 10 -9 0
-16 -4 -16 -10z"/>
<path d="M7431 5646 c-8 -9 -11 -19 -7 -23 9 -9 29 13 24 27 -2 8 -8 7 -17 -4z"/>
<path d="M6488 5636 c-10 -7 -21 -24 -26 -37 -8 -21 -16 -24 -70 -26 -38 -1
-76 -10 -101 -23 -40 -20 -41 -20 -41 -1 0 15 -6 19 -27 17 -22 -2 -29 -9 -31
-29 -2 -17 -11 -27 -28 -31 -32 -8 -46 1 -39 25 4 11 2 19 -4 19 -6 0 -11 -7
-11 -16 0 -11 -5 -14 -16 -10 -21 8 -44 -17 -44 -48 0 -14 -5 -26 -11 -26 -8
0 -9 -4 0 -13 6 -8 8 -17 4 -20 -12 -13 -23 -7 -23 12 0 23 -16 36 -25 21 -3
-5 0 -10 7 -10 8 0 5 -5 -5 -11 -13 -8 -22 -8 -30 0 -14 14 9 41 35 41 10 0
16 4 13 10 -3 6 1 7 9 4 11 -4 16 0 16 11 0 11 -5 15 -15 11 -8 -3 -15 -1 -15
4 0 5 10 11 23 13 19 4 18 4 -5 6 -16 0 -28 -3 -28 -9 0 -5 -7 -10 -15 -10 -8
0 -15 -9 -15 -21 0 -11 -5 -17 -10 -14 -11 7 -3 53 13 72 5 7 13 10 18 7 5 -3
9 0 9 5 0 6 -7 11 -15 11 -8 0 -15 -3 -15 -8 0 -4 -18 -18 -40 -32 -24 -15
-38 -30 -35 -38 3 -8 5 -20 5 -28 0 -8 5 -14 10 -14 6 0 9 3 9 8 -4 21 3 31
17 25 22 -8 15 -58 -8 -57 -10 1 -15 -2 -12 -7 3 -5 -7 -14 -21 -19 -36 -14
-52 -13 -52 3 0 9 12 12 34 10 30 -2 32 0 23 16 -12 23 -40 35 -53 22 -5 -5
-16 -2 -28 10 -12 12 -25 17 -32 12 -8 -5 -7 -9 6 -11 9 -2 17 -7 17 -12 0
-13 -29 -20 -36 -9 -3 5 -14 7 -25 4 -11 -4 -19 -2 -19 4 0 6 -4 11 -9 11 -4
0 -6 -11 -3 -25 4 -26 27 -34 34 -13 3 9 6 9 12 0 4 -7 2 -12 -3 -12 -6 0 -11
-8 -12 -17 0 -11 -3 -13 -6 -5 -2 6 -9 10 -14 6 -5 -3 -9 0 -9 5 0 6 -8 11
-18 11 -10 0 -23 5 -30 12 -9 9 -12 8 -12 -4 0 -10 -7 -15 -17 -13 -10 2 -24
4 -31 4 -9 1 -10 6 -2 20 12 24 13 41 1 41 -5 0 -11 -9 -14 -21 -3 -12 -10
-18 -16 -15 -5 3 -16 -1 -25 -9 -27 -27 -55 -10 -56 35 0 18 -3 21 -9 11 -7
-11 -9 -11 -14 0 -9 24 -8 -24 2 -57 8 -29 7 -32 -13 -31 -11 0 -38 -7 -58
-17 -44 -19 -48 -10 -13 28 25 27 32 46 17 46 -11 0 -100 -59 -108 -71 -3 -6
0 -16 6 -24 10 -12 9 -15 -3 -15 -22 0 -43 -40 -27 -50 8 -5 5 -9 -9 -13 -18
-4 -20 -2 -15 19 7 28 7 28 -35 13 -26 -9 -30 -14 -20 -26 11 -12 8 -13 -14
-8 -23 6 -26 4 -32 -29 -4 -20 -11 -36 -16 -36 -12 0 -11 7 1 30 7 14 5 19
-10 23 -21 5 -27 31 -10 42 17 10 11 25 -9 25 -11 0 -22 4 -26 10 -3 5 -12 7
-19 4 -9 -3 -16 5 -21 23 -4 16 -2 29 4 31 12 4 3 32 -11 32 -5 0 -7 -4 -3 -9
3 -5 1 -12 -5 -16 -14 -9 -13 -55 2 -55 18 0 0 -13 -36 -25 -28 -10 -35 -9
-44 4 -8 13 -13 14 -31 4 -24 -15 -45 -17 -36 -4 10 17 -14 23 -35 8 -22 -16
-17 -27 14 -27 20 -1 20 -1 3 -11 -10 -6 -26 -9 -36 -6 -12 3 -17 -2 -17 -17
1 -11 -3 -21 -9 -21 -5 0 -20 -6 -32 -13 -13 -7 -23 -10 -23 -6 0 3 -20 -6
-44 -20 -52 -30 -73 -33 -79 -8 -4 14 -5 13 -6 -4 -1 -21 -35 -45 -68 -49 -10
-1 -26 -5 -35 -9 -9 -4 -22 -9 -30 -10 -7 -1 -23 -8 -35 -14 -34 -19 -27 0 10
26 l32 24 -35 -7 c-19 -4 -44 -14 -55 -21 -25 -18 -36 -18 -29 1 4 8 2 15 -4
15 -5 0 -12 -9 -15 -19 -3 -13 -20 -22 -58 -30 -29 -6 -57 -15 -63 -20 -6 -5
-27 -11 -46 -13 -44 -6 -163 -49 -172 -63 -4 -6 -13 -2 -22 10 -9 11 -16 17
-17 13 -1 -5 -3 -12 -4 -18 -1 -5 -3 -14 -4 -20 0 -5 -12 -10 -26 -10 -14 0
-25 -4 -25 -10 0 -5 -4 -10 -9 -10 -5 0 -7 9 -4 20 4 14 0 20 -10 20 -10 0
-13 -6 -10 -19 6 -22 -26 -38 -39 -19 -5 9 -10 10 -15 2 -9 -12 -74 -36 -81
-30 -7 8 9 46 20 46 5 0 21 9 35 20 14 11 37 20 52 21 14 0 20 3 13 6 -8 3 -5
11 10 24 l23 19 -30 -15 c-16 -8 -36 -15 -43 -15 -7 0 -11 -4 -8 -9 4 -5 -2
-7 -12 -4 -11 2 -26 -3 -35 -11 -10 -10 -18 -12 -22 -6 -3 5 -1 10 5 10 6 0 9
4 6 8 -2 4 4 8 14 9 26 2 71 43 47 43 -9 0 -21 -8 -26 -17 -6 -10 -11 -13 -11
-7 0 19 28 36 49 29 10 -3 22 -1 25 4 4 6 13 8 21 4 10 -3 15 1 15 12 0 9 4
14 9 11 5 -3 15 2 22 12 13 15 12 16 -3 3 -12 -9 -18 -10 -18 -2 0 6 10 16 23
21 15 6 17 9 6 9 -9 1 -28 -8 -41 -19 -14 -10 -28 -16 -32 -13 -3 3 -6 2 -6
-3 0 -5 -18 -10 -40 -12 -22 -1 -40 2 -40 8 0 13 -35 -22 -43 -43 -5 -14 -2
-16 20 -11 19 5 24 4 18 -5 -4 -7 -9 -10 -12 -7 -3 3 -14 1 -25 -5 -20 -11
-88 7 -88 23 0 5 -9 4 -21 -2 -27 -15 -34 -7 -35 39 0 33 2 36 25 36 14 0 29
-4 33 -10 5 -6 8 -5 8 3 0 6 5 12 11 12 6 0 8 -7 5 -15 -3 -9 1 -18 10 -22 23
-9 27 3 10 29 -9 14 -13 28 -9 31 3 4 1 7 -6 7 -7 0 -10 4 -7 9 3 4 -6 13 -19
19 -16 7 -25 8 -26 2 -1 -6 -2 -16 -3 -22 0 -7 -11 -13 -22 -14 -12 -1 -28 -5
-35 -9 -11 -6 -12 -5 -1 6 15 16 16 39 1 39 -5 0 -7 -4 -4 -10 3 -5 2 -10 -3
-10 -6 0 -12 6 -15 14 -6 15 -31 16 -44 1 -4 -4 -3 -5 3 -2 7 4 14 -1 17 -12
3 -15 0 -17 -17 -14 -17 4 -18 3 -6 -6 8 -6 23 -11 33 -11 15 0 22 -17 18 -42
0 -5 6 -8 14 -8 14 0 20 -24 16 -58 -1 -7 5 -12 13 -10 8 2 14 -1 13 -7 -1 -5
-6 -9 -10 -7 -5 1 -6 -2 -3 -7 8 -12 -20 -22 -39 -15 -8 4 -15 2 -15 -4 0 -5
-11 -13 -25 -16 -14 -4 -25 -11 -25 -17 0 -6 -9 -8 -20 -4 -12 4 -20 2 -20 -5
0 -15 -25 -40 -40 -40 -6 0 -15 -11 -20 -25 -10 -26 -24 -32 -35 -16 -3 5 3
11 12 13 10 2 14 6 8 10 -5 3 -21 1 -35 -4 -25 -10 -25 -10 -4 -18 30 -12 43
-34 15 -25 -22 7 -27 -12 -6 -27 6 -4 -1 -8 -14 -8 -17 0 -22 4 -17 16 4 12 2
15 -9 10 -11 -4 -15 1 -15 16 0 21 -1 21 -17 6 -13 -14 -14 -20 -3 -32 8 -10
8 -16 2 -16 -6 0 -14 5 -17 10 -4 6 -11 8 -16 5 -5 -4 -9 1 -9 9 0 20 -37 31
-55 16 -8 -7 -14 -15 -13 -18 0 -4 -1 -10 -2 -14 -1 -5 -3 -13 -4 -20 -2 -16
-26 -23 -26 -7 0 8 -7 3 -16 -9 -12 -17 -19 -20 -29 -12 -9 7 -16 6 -26 -6
-12 -15 -11 -16 8 -10 12 4 24 3 27 -2 8 -14 -28 -52 -50 -53 -18 0 -18 -1 0
-8 19 -7 19 -8 1 -15 -11 -4 -22 -2 -27 6 -5 9 -8 3 -8 -15 0 -18 -4 -26 -11
-21 -6 3 -15 0 -20 -7 -14 -22 -10 -32 9 -24 9 4 28 8 42 10 14 2 32 5 40 7
18 4 42 48 36 65 -6 15 3 17 24 3 10 -6 11 -10 3 -10 -7 0 -13 -4 -13 -10 0
-5 9 -10 20 -10 11 0 20 5 20 10 0 6 5 10 11 10 5 0 8 -4 4 -9 -3 -5 -1 -12 5
-16 5 -3 10 -1 10 4 0 6 7 11 15 11 18 0 18 -5 5 -30 -7 -13 -6 -19 6 -24 8
-3 12 -2 9 4 -3 6 1 10 10 10 9 0 13 -4 10 -10 -3 -5 -1 -10 5 -10 6 0 9 -4 6
-9 -4 -5 0 -12 6 -15 7 -3 0 -4 -15 -1 -21 4 -28 2 -25 -7 3 -8 -18 -21 -58
-34 -34 -12 -84 -35 -111 -51 -26 -15 -50 -27 -53 -26 -3 1 -4 -5 -2 -13 4
-17 -14 -19 -21 -1 -4 9 -6 9 -6 0 -1 -7 -8 -10 -18 -6 -13 5 -15 3 -9 -12 4
-11 4 -17 1 -13 -11 10 -66 -13 -58 -25 3 -5 1 -7 -5 -3 -6 3 -17 0 -25 -8 -8
-8 -17 -12 -21 -9 -3 3 -14 -1 -24 -10 -12 -11 -26 -14 -42 -10 -22 6 -24 5
-11 -10 7 -9 17 -14 22 -11 5 3 9 -2 9 -11 0 -8 8 -19 18 -22 9 -4 23 -12 29
-19 10 -10 6 -14 -17 -23 -29 -9 -42 -31 -19 -31 5 0 7 5 4 10 -3 6 1 10 10
10 9 0 14 -4 11 -9 -3 -5 0 -14 8 -20 11 -9 15 -7 19 9 3 11 11 20 17 20 10 0
10 -3 0 -15 -7 -8 -9 -15 -6 -15 4 0 1 -6 -6 -14 -8 -9 -17 -11 -23 -5 -13 13
-28 11 -19 -2 5 -9 -1 -10 -22 -5 -34 9 -44 17 -26 23 25 9 11 19 -20 15 -39
-6 -80 -31 -72 -44 3 -5 12 -4 20 3 13 11 18 6 15 -14 -1 -5 9 -6 21 -3 20 5
20 5 -2 -6 -82 -38 -117 -48 -136 -36 -6 4 -21 -2 -33 -13 -12 -11 -34 -23
-49 -25 -15 -3 -33 -7 -39 -9 -7 -2 -13 0 -13 5 0 6 -4 10 -10 10 -5 0 -10 -9
-10 -20 0 -11 -7 -21 -15 -21 -37 -3 -75 -19 -75 -31 0 -5 -7 -8 -15 -4 -10 4
-15 -1 -15 -14 0 -11 -4 -20 -10 -20 -5 0 -10 5 -10 10 0 6 -11 10 -25 10 -16
0 -25 -6 -25 -16 0 -10 -6 -14 -15 -10 -9 3 -15 0 -15 -9 0 -20 -40 -31 -51
-14 -6 10 -9 10 -9 2 0 -6 5 -15 10 -18 6 -4 7 -11 4 -17 -5 -8 -1 -9 12 -3
55 23 127 44 136 39 14 -9 60 5 53 16 -4 6 0 12 7 14 7 2 22 7 33 12 31 11 75
13 75 2 0 -6 -14 -8 -30 -6 -23 3 -30 1 -26 -9 3 -7 -1 -13 -10 -13 -8 0 -13
-4 -10 -9 3 -5 -2 -12 -11 -15 -12 -5 -13 -10 -5 -18 8 -8 15 -8 25 0 18 15
27 6 27 -27 0 -18 3 -22 9 -13 6 10 10 8 14 -8 7 -29 27 -16 27 17 l0 27 20
-22 c12 -12 26 -22 33 -22 8 0 7 -3 -2 -9 -8 -5 -20 -7 -27 -4 -6 2 -15 0 -19
-6 -10 -17 -46 -13 -67 6 -19 17 -19 16 -13 -10 6 -21 4 -27 -10 -27 -12 0
-15 5 -10 20 4 11 2 20 -4 20 -6 0 -11 -6 -11 -14 0 -8 -8 -13 -17 -11 -10 1
-23 -7 -30 -19 -7 -11 -12 -15 -13 -8 0 6 -9 12 -19 12 -25 0 -32 -40 -11 -57
13 -10 12 -12 -7 -10 -12 1 -20 3 -18 5 8 8 -15 42 -28 42 -7 0 -22 -7 -33
-16 -12 -10 -14 -14 -4 -11 8 2 21 -1 27 -9 26 -27 -29 -28 -67 -1 -14 9 -34
17 -45 17 -19 -1 -19 -2 -3 -14 10 -7 15 -16 11 -19 -3 -4 -1 -7 5 -7 7 0 12
4 12 10 0 5 8 6 17 3 11 -4 12 -8 5 -11 -18 -6 -14 -30 5 -35 13 -3 9 -6 -13
-13 -26 -7 -30 -12 -23 -29 7 -18 8 -18 8 -2 1 14 7 17 31 13 17 -2 30 0 30 6
0 6 7 7 16 4 9 -3 12 -2 8 5 -4 7 8 8 40 4 30 -5 46 -4 46 3 0 6 10 14 23 17
12 4 30 9 40 11 11 4 17 0 18 -13 0 -14 2 -13 10 5 12 31 31 23 35 -15 3 -29
3 -30 -36 -28 -33 2 -38 0 -29 -11 6 -8 16 -11 23 -7 8 4 8 3 0 -6 -9 -10 -17
-10 -33 -1 -18 9 -22 8 -28 -7 -6 -15 -8 -14 -13 7 l-6 25 -19 -23 c-11 -12
-20 -28 -21 -35 0 -6 -2 -25 -2 -40 -1 -16 -6 -26 -11 -23 -5 3 -11 -1 -15 -9
-3 -8 -11 -12 -19 -9 -7 2 -26 0 -41 -6 -20 -7 -32 -7 -42 0 -16 14 -37 -20
-28 -44 9 -23 26 -19 19 4 -5 16 -2 20 17 19 22 0 22 -1 3 -9 -11 -5 -15 -9
-9 -9 14 -1 26 -40 13 -42 -5 -1 -15 -2 -21 -3 -7 0 -13 -9 -13 -18 0 -10 -6
-23 -13 -30 -6 -6 -12 -26 -12 -44 0 -23 -5 -33 -20 -37 -11 -3 -20 -11 -20
-17 0 -10 3 -10 15 0 8 6 19 9 25 5 15 -9 79 41 90 71 5 13 17 24 27 24 17 -1
17 -1 0 -11 -17 -10 -17 -12 7 -24 22 -12 35 -12 78 0 40 10 55 10 60 2 4 -7
3 -13 -2 -15 -6 -2 -10 -12 -10 -22 0 -10 -6 -21 -12 -23 -8 -3 -7 -6 4 -6 9
-1 20 4 23 9 8 12 25 13 25 1 0 -5 -9 -19 -21 -32 -15 -17 -19 -19 -15 -6 3 9
1 17 -4 17 -6 0 -10 -5 -10 -11 0 -5 -4 -8 -9 -4 -11 6 -61 -14 -61 -25 0 -4
18 -13 39 -20 33 -11 44 -10 71 4 37 18 64 21 55 6 -3 -5 -15 -10 -26 -10 -11
0 -22 -6 -25 -14 -3 -9 -12 -12 -21 -9 -11 4 -14 2 -9 -6 6 -8 1 -10 -17 -6
-23 6 -24 4 -21 -26 5 -37 12 -48 22 -32 5 8 13 9 22 3 13 -9 13 -10 0 -10 -8
0 -21 -9 -28 -20 -14 -23 -34 -27 -26 -5 4 8 1 15 -5 15 -6 0 -11 -5 -11 -12
0 -22 -13 2 -15 27 0 16 5 25 14 25 11 0 12 3 3 12 -8 8 -22 7 -54 -5 -24 -10
-51 -17 -61 -17 -15 0 -21 -11 -19 -32 2 -14 -27 -16 -38 -2 -17 20 -32 18
-26 -4 5 -15 -2 -21 -34 -32 -43 -14 -62 -30 -36 -30 8 0 18 5 21 10 8 13 35
13 35 -1 0 -5 -4 -8 -9 -5 -5 3 -12 -1 -15 -10 -3 -9 -13 -14 -21 -11 -9 4
-12 1 -8 -9 3 -7 11 -14 19 -14 17 0 18 -12 2 -28 -9 -9 -9 -12 -1 -12 7 0 15
9 18 20 3 11 10 20 14 20 17 0 20 -14 7 -39 -15 -30 -11 -52 8 -45 8 3 16 -4
19 -18 4 -14 19 -28 37 -35 34 -13 44 -49 10 -40 -13 3 -20 0 -20 -10 0 -8 -5
-11 -12 -7 -8 5 -5 13 10 24 19 16 20 30 2 30 -12 0 -32 -58 -25 -70 4 -7 16
-9 29 -5 41 12 66 13 67 2 1 -7 2 -21 3 -32 1 -16 7 -19 30 -17 24 3 28 1 22
-13 -5 -15 1 -16 49 -13 57 3 62 0 45 -33 -14 -25 -30 -24 -30 2 0 18 -3 19
-15 9 -8 -6 -13 -17 -12 -23 1 -6 -9 -16 -23 -23 -21 -11 -22 -14 -7 -20 9 -3
23 -4 30 -1 7 3 24 -1 38 -9 13 -7 18 -13 12 -14 -7 0 -13 -12 -13 -26 0 -23
1 -24 16 -10 11 11 21 13 32 7 10 -5 22 -5 33 2 20 13 53 2 43 -15 -5 -8 0 -9
14 -6 12 4 22 3 22 0 0 -4 4 -13 9 -21 8 -12 12 -13 25 -1 9 7 19 10 22 8 3
-3 -15 -23 -40 -43 -26 -21 -46 -42 -46 -49 0 -6 5 -4 10 4 7 11 12 12 21 3
16 -16 4 -30 -32 -38 -24 -5 -29 -11 -24 -26 4 -11 2 -19 -4 -19 -6 0 -11 9
-11 20 0 11 -4 20 -10 20 -5 0 -10 -9 -10 -19 0 -11 -3 -28 -6 -38 -4 -12 -3
-14 3 -6 13 18 52 12 45 -7 -5 -13 -3 -13 11 -2 8 8 13 20 11 27 -4 10 1 12
18 8 17 -3 19 -2 9 5 -15 11 -6 36 10 27 13 -9 11 -45 -2 -45 -6 0 -9 -6 -6
-14 3 -8 -2 -16 -14 -19 -10 -3 -19 -10 -19 -15 0 -7 12 -7 36 0 20 5 38 7 42
4 3 -3 0 -6 -6 -6 -7 0 -12 -4 -12 -10 0 -5 14 -7 33 -3 29 6 31 5 19 -10 -8
-9 -22 -19 -33 -22 -17 -6 -18 -8 -4 -22 12 -12 13 -18 4 -29 -12 -15 0 -18
49 -14 12 1 23 -2 23 -7 10 -72 10 -71 -27 -75 -32 -4 -35 -2 -31 18 3 16 0
21 -11 17 -8 -3 -18 0 -23 8 -7 11 -9 11 -9 -3 0 -10 -4 -18 -8 -18 -5 0 -16
-16 -25 -35 -14 -29 -14 -35 -3 -35 26 0 46 12 47 29 0 9 3 11 5 4 3 -7 11
-10 18 -7 8 3 16 -4 19 -16 3 -12 10 -19 16 -15 7 4 11 -5 11 -24 0 -21 5 -31
16 -31 8 0 12 4 9 10 -3 5 -1 10 5 10 7 0 0 14 -14 31 -14 17 -26 36 -26 42 0
9 3 8 8 0 6 -10 12 -10 28 2 26 20 44 19 44 -2 0 -15 2 -16 10 -3 8 12 10 12
16 -3 3 -9 10 -14 15 -11 20 12 7 -24 -16 -46 -14 -13 -25 -18 -25 -12 0 6 -7
9 -15 6 -32 -13 -15 -39 22 -35 6 1 13 -11 15 -26 2 -19 8 -27 19 -25 9 1 29
-2 44 -8 21 -8 26 -15 22 -31 -4 -16 -2 -19 14 -14 16 5 18 2 15 -17 -3 -13
-5 -27 -5 -33 -1 -5 -5 -3 -11 5 -6 9 -5 20 3 29 9 11 5 10 -13 -2 -23 -16
-66 -25 -45 -9 15 11 14 39 -2 39 -8 0 -12 -6 -9 -13 3 -8 0 -16 -7 -20 -7 -4
-9 -4 -5 1 4 4 0 14 -10 21 -9 7 -18 17 -18 23 -1 6 -2 15 -3 21 0 5 -12 9
-26 8 -14 -1 -24 -7 -24 -13 3 -26 -2 -46 -10 -40 -5 3 -12 1 -16 -5 -3 -5 3
-10 14 -10 10 0 22 -6 25 -12 3 -7 3 -3 1 9 -3 12 -1 24 4 28 7 4 8 -1 4 -12
-6 -16 -5 -16 10 -5 24 20 36 6 30 -35 -5 -32 -4 -35 11 -30 10 4 20 7 23 7 3
0 0 6 -6 14 -9 11 -6 12 14 8 14 -2 25 -9 25 -14 0 -5 -5 -6 -12 -2 -8 5 -9 2
-5 -10 4 -10 7 -19 7 -22 0 -2 7 -1 15 2 10 4 15 0 15 -11 0 -11 -5 -15 -16
-11 -8 3 -12 2 -9 -4 3 -6 18 -10 33 -9 15 0 21 3 15 6 -14 5 -18 33 -5 33 4
0 19 11 34 24 l26 25 -2 -42 c0 -23 -5 -45 -9 -48 -5 -3 -2 -9 6 -12 12 -5 15
1 12 29 -2 23 2 37 12 43 12 6 13 12 4 30 -7 12 -8 21 -2 21 5 0 13 -9 16 -20
3 -11 10 -20 15 -20 5 0 7 -7 4 -15 -4 -8 -10 -13 -14 -10 -10 6 -20 -19 -20
-50 0 -33 44 -40 60 -9 12 21 60 40 60 23 0 -5 23 -9 51 -9 46 0 50 -2 44 -20
-5 -15 -2 -20 13 -20 20 0 62 39 62 58 0 15 17 16 22 1 2 -5 18 -11 36 -11 24
-1 29 -4 18 -12 -19 -15 -27 -44 -15 -52 6 -3 3 -12 -8 -21 -10 -8 -13 -12 -6
-9 14 8 24 -21 19 -51 -3 -13 -1 -25 5 -28 5 -4 9 -17 9 -31 0 -13 4 -24 10
-24 5 0 9 10 7 23 -1 13 3 21 11 20 6 -2 17 -4 24 -5 6 -2 14 6 16 16 3 14 0
17 -12 13 -16 -6 -17 -4 -20 43 -1 18 3 24 14 21 49 -13 55 -12 65 11 12 28
34 30 56 6 10 -11 24 -15 37 -11 15 4 22 1 22 -10 0 -8 -9 -17 -20 -20 -23 -6
-27 -27 -5 -27 17 0 20 -16 5 -25 -5 -3 -10 -18 -10 -33 0 -15 -4 -33 -9 -41
-10 -15 -4 -41 9 -41 7 0 24 57 21 72 0 4 5 5 12 2 14 -5 67 48 67 67 0 8 12
9 38 4 47 -9 49 -11 33 -36 -7 -12 -9 -24 -6 -27 4 -4 11 1 16 11 6 9 15 17
21 17 7 0 6 -6 -2 -15 -7 -9 -10 -18 -6 -22 3 -3 6 -1 6 5 0 16 27 15 33 0 3
-11 9 -11 26 0 11 6 29 12 38 13 12 1 10 4 -7 9 -24 8 -24 8 -3 9 13 1 27 -8
33 -20 11 -20 12 -20 25 -2 15 20 19 18 29 -14 5 -16 2 -23 -11 -26 -12 -3 -9
-5 9 -6 31 -1 57 -36 40 -53 -6 -6 -8 -17 -5 -24 7 -19 -4 -17 -26 5 -11 11
-15 24 -11 32 6 10 1 14 -17 16 -16 0 -21 -2 -13 -7 9 -5 9 -9 1 -14 -6 -4 -9
-12 -5 -18 3 -5 -6 -22 -21 -38 -15 -16 -24 -33 -20 -40 8 -13 -12 -39 -40
-50 -17 -7 -15 -9 12 -9 17 -1 35 4 38 9 3 5 1 10 -6 10 -7 0 -9 3 -6 6 4 4
17 0 30 -9 19 -12 26 -13 41 -2 10 8 24 11 31 9 7 -3 16 4 20 15 3 12 10 19
13 17 4 -2 16 2 27 10 10 8 15 14 9 14 -9 0 28 21 57 32 12 5 16 2 12 -11 -3
-11 4 -21 21 -29 28 -13 37 1 13 22 -7 6 -11 10 -8 9 2 -1 10 5 18 13 14 13
17 13 33 -3 10 -10 16 -21 13 -25 -2 -4 6 -17 17 -28 21 -21 22 -21 27 -1 5
19 6 19 41 3 21 -9 39 -18 41 -19 3 -2 -4 -10 -15 -17 -10 -8 -16 -18 -12 -22
4 -4 14 -1 23 6 10 8 15 9 15 2 0 -6 7 -9 15 -6 8 4 15 12 15 20 0 8 4 14 10
14 5 0 8 6 6 13 -1 6 -1 9 1 5 9 -16 41 -7 46 12 7 25 32 26 49 1 20 -28 118
-24 118 5 0 8 -4 13 -9 9 -5 -3 -12 -1 -15 4 -4 5 -1 13 5 17 6 4 16 0 20 -9
5 -9 17 -13 29 -10 11 3 18 9 15 13 -3 5 -1 11 5 15 5 3 10 15 10 26 0 10 5
19 11 19 5 0 7 5 4 10 -3 5 -2 10 4 10 6 0 7 -14 4 -34 -3 -19 -1 -36 6 -40 6
-4 11 0 11 11 1 19 39 95 40 78 0 -5 5 -3 10 5 8 12 10 10 8 -9 -3 -22 1 -24
50 -26 31 -1 59 3 70 11 23 18 35 17 28 -2 -4 -9 -1 -14 6 -12 6 2 12 12 14
22 3 20 25 49 32 41 3 -2 0 -11 -7 -18 -8 -11 -6 -18 10 -33 17 -15 23 -16 41
-5 17 11 23 10 35 -2 21 -20 83 -2 83 25 0 10 6 18 13 19 46 2 72 10 80 25 5
9 12 12 16 7 3 -6 16 -14 29 -18 19 -6 25 -2 35 24 l11 31 13 -28 c7 -15 11
-19 8 -9 -6 22 -3 21 25 -3 23 -20 23 -20 2 -20 -28 0 -36 -16 -15 -30 14 -9
6 -10 -37 -6 l-55 6 40 -18 c22 -10 41 -15 43 -11 2 4 10 5 17 3 10 -4 13 1 9
21 -4 23 -2 26 17 20 16 -5 19 -4 14 6 -6 9 -4 11 8 6 10 -4 18 0 21 11 3 9 4
5 2 -10 -2 -16 1 -28 5 -28 5 0 9 5 9 10 0 6 5 10 11 10 5 0 7 -5 4 -10 -3 -5
1 -10 11 -10 11 0 15 6 11 20 -3 11 1 26 8 34 8 7 12 16 10 20 -3 3 -2 4 2 1
4 -3 13 5 20 17 l12 23 1 -25 c1 -14 4 -20 6 -13 3 7 12 9 20 6 19 -7 18 2 -2
22 -14 14 -15 20 -4 40 11 20 16 22 31 12 23 -14 24 -26 4 -63 -16 -32 -1 -49
19 -22 6 8 17 13 24 10 10 -3 10 -7 1 -18 -10 -12 -7 -14 12 -10 14 2 22 9 20
17 -2 8 -6 22 -8 32 -4 14 1 17 31 17 20 0 36 -4 36 -10 0 -5 5 -10 11 -10 5
0 7 4 4 10 -3 6 1 7 9 4 9 -3 23 1 31 10 19 19 49 22 40 4 -4 -7 3 -1 15 14
18 23 24 25 51 18 24 -7 30 -6 26 4 -4 9 9 18 36 26 23 6 50 16 59 21 10 5 23
9 29 9 15 0 39 26 32 34 -4 3 7 3 24 0 22 -4 32 -2 36 10 4 9 13 16 22 16 8 0
15 8 16 18 0 9 3 12 5 6 6 -15 46 -5 57 13 5 9 19 13 35 10 15 -2 21 -2 15 0
-15 5 -18 33 -4 33 5 0 11 -5 13 -11 3 -9 9 -9 23 -1 35 19 125 44 140 39 14
-6 39 16 29 25 -2 3 2 8 11 11 9 4 15 1 15 -8 0 -8 7 -15 15 -15 20 0 97 31
91 37 -2 3 -14 0 -25 -7 -16 -8 -21 -8 -21 1 0 6 -7 9 -15 5 -8 -3 -15 -1 -15
3 0 5 -20 8 -45 6 -42 -3 -58 6 -35 20 18 11 11 33 -13 39 -13 3 -38 1 -55 -4
-18 -5 -32 -5 -32 -1 0 11 46 31 70 31 11 0 29 9 40 20 12 12 22 15 26 9 4 -7
22 -9 47 -5 l40 7 -23 -19 c-13 -11 -19 -22 -13 -25 15 -9 53 21 47 38 -3 7 3
18 15 24 31 17 36 13 10 -9 -13 -10 -22 -20 -19 -20 31 -7 41 -5 56 11 20 23
34 24 34 5 0 -8 4 -17 8 -20 4 -2 7 8 6 22 -2 43 6 53 41 50 25 -1 39 4 52 21
20 25 75 37 66 15 -6 -15 13 -19 21 -5 8 13 52 19 69 9 9 -5 18 -4 22 2 6 9
-7 14 -27 11 -16 -2 -7 25 15 51 13 14 32 26 42 25 26 -3 46 50 25 64 -13 8
-13 11 3 23 9 7 17 23 17 35 0 11 5 21 11 21 11 0 3 -38 -12 -55 -15 -15 -10
-25 13 -25 20 0 20 -1 5 -18 -18 -20 -22 -42 -8 -42 5 0 11 7 15 15 3 8 12 15
21 15 8 0 15 6 15 14 0 22 59 76 83 76 18 0 20 -2 7 -11 -11 -8 0 -9 40 -4 30
4 77 8 104 10 28 1 52 7 54 13 2 7 14 12 27 12 13 0 27 5 31 12 4 7 3 8 -4 4
-7 -4 -12 -2 -12 4 0 7 7 9 16 6 17 -6 26 -4 142 34 34 12 72 20 85 18 23 -3
71 24 61 35 -3 3 4 11 16 17 15 8 19 15 12 22 -6 6 -8 17 -5 24 3 8 0 14 -6
14 -9 0 -15 -20 -13 -42 2 -15 -29 -16 -43 -2 -14 15 -13 18 9 39 14 13 22 26
19 29 -4 3 -1 6 5 6 7 0 12 -4 12 -10 0 -5 7 -10 15 -10 7 0 19 -8 24 -17 10
-16 11 -16 17 6 l7 23 14 -23 13 -24 -6 27 c-5 23 -2 28 19 33 28 7 39 34 25
59 -5 9 -5 16 0 16 14 0 33 -48 22 -55 -6 -4 -10 -17 -10 -31 0 -21 3 -23 19
-15 10 6 21 20 24 31 5 18 3 19 -11 8 -11 -9 -14 -9 -8 -1 4 7 2 22 -4 33 -7
13 -7 20 0 21 5 1 15 2 21 3 6 0 16 9 23 18 7 10 16 15 20 11 4 -4 4 1 0 11
-5 14 -4 17 4 12 8 -5 12 2 12 19 0 21 -3 24 -16 17 -18 -10 -74 6 -74 21 0 4
9 3 20 -3 18 -10 20 -8 16 14 -3 18 1 25 15 29 10 3 22 1 25 -4 3 -5 0 -9 -5
-9 -6 0 -11 -9 -11 -19 0 -17 5 -19 35 -14 24 4 35 2 35 -6 0 -7 -4 -10 -9 -6
-5 3 -13 0 -17 -6 -3 -6 -1 -15 6 -19 6 -4 12 -11 13 -16 1 -5 5 -8 10 -6 4 1
12 -10 18 -25 10 -26 5 -35 -26 -46 -5 -3 -7 -8 -3 -12 4 -4 17 2 29 14 13 12
28 21 35 21 16 0 24 36 10 50 -8 8 -6 9 7 4 10 -3 16 -13 13 -20 -7 -17 6 -18
23 -1 11 10 12 9 6 -2 -7 -11 -2 -13 25 -8 18 4 37 7 42 7 6 0 8 6 5 13 -3 8
10 13 46 14 63 2 81 17 48 42 -19 15 -23 24 -17 47 4 16 13 32 19 36 23 14 -7
28 -38 19 -17 -5 -24 -10 -17 -10 20 -2 14 -28 -9 -34 -30 -8 -49 2 -42 21 4
15 3 15 -6 2 -6 -8 -11 -23 -11 -32 0 -24 -15 -23 -32 3 -11 18 -20 20 -46 14
-18 -3 -32 -11 -32 -16 0 -5 -4 -9 -10 -9 -5 0 -10 7 -10 16 0 22 -23 12 -35
-14 -5 -12 -14 -22 -19 -22 -5 0 -7 3 -3 6 3 4 -1 13 -9 21 -19 20 -13 37 14
41 15 2 22 10 22 26 0 14 12 32 31 47 27 21 29 24 12 30 -11 5 -13 8 -4 8 8 1
22 8 32 17 11 10 19 12 24 5 3 -6 -1 -11 -9 -11 -9 0 -16 -4 -16 -10 0 -13 13
-13 43 1 19 9 23 17 20 46 -1 20 -4 37 -5 38 -5 5 -123 -18 -128 -25 -7 -8
-142 -50 -163 -50 -13 0 -16 -5 -12 -23 4 -15 1 -28 -9 -36 -13 -11 -13 -16
-1 -34 13 -21 12 -22 -11 -22 -20 0 -25 4 -21 21 3 17 -1 20 -20 16 -17 -3
-23 0 -23 13 0 12 -5 15 -17 10 -27 -11 -99 -18 -87 -8 6 4 14 20 17 34 4 15
14 30 23 33 21 8 33 -2 15 -13 -9 -6 -7 -10 9 -14 17 -4 21 -2 17 11 -9 31 -9
37 -8 60 1 14 5 21 12 16 16 -9 90 -7 101 4 12 12 -1 42 -19 42 -13 0 -13 3
-3 15 7 9 19 14 27 11 7 -3 13 1 13 10 0 24 35 12 38 -14 2 -12 8 -22 14 -22
5 0 7 7 4 16 -7 19 20 74 37 75 6 0 19 2 27 4 8 1 44 8 80 15 36 7 75 16 88
21 13 5 36 9 52 9 16 0 35 6 42 13 14 16 48 11 48 -7 0 -6 5 -3 11 7 7 11 22
17 49 17 27 0 42 6 49 17 8 14 12 15 19 5 7 -10 20 -11 58 -4 27 6 40 10 28
11 -11 0 -24 4 -28 9 -4 4 -28 14 -54 22 -42 14 -47 18 -44 43 3 26 -11 37
-23 17 -3 -5 -22 -7 -43 -4 -73 10 -159 6 -168 -7 -2 -4 -30 -10 -62 -14 -99
-10 -121 -15 -137 -31 -12 -13 -15 -13 -15 -1 0 10 -9 12 -32 9 l-33 -4 23 17
c13 10 35 17 47 17 13 0 32 8 42 17 19 17 69 21 90 8 8 -5 15 1 19 17 6 24 55
44 62 25 7 -17 23 -9 18 9 -7 23 41 47 61 31 10 -9 13 -8 13 2 0 12 102 70
123 69 5 0 15 7 23 15 9 8 24 15 34 15 11 0 20 10 24 25 5 21 11 24 31 19 21
-5 24 -3 19 10 -3 9 -1 23 6 31 18 21 3 19 -38 -7 -20 -12 -32 -16 -28 -10 5
8 0 12 -13 12 -15 0 -19 -4 -14 -17 4 -11 3 -14 -5 -9 -21 12 -13 34 14 40 31
8 63 36 42 36 -7 0 -4 6 7 12 29 16 29 16 18 30 -16 20 -23 72 -12 88 8 11 9
9 4 -7 -5 -18 -2 -23 13 -23 24 0 37 -28 21 -46 -7 -9 -8 -14 -1 -14 22 0 42
13 42 26 0 8 5 14 12 14 6 0 28 18 49 40 20 21 39 37 42 34 13 -13 91 51 82
66 -3 6 1 13 9 16 11 4 14 14 10 30 -4 16 -2 24 7 24 7 0 10 -3 6 -6 -3 -4 1
-13 9 -21 8 -9 13 -22 10 -29 -3 -8 -2 -14 2 -14 11 1 42 26 42 35 0 15 35 34
64 35 17 0 40 10 52 21 20 19 21 23 9 36 -8 8 -23 12 -33 9 -10 -4 -27 1 -38
10 -10 8 -14 13 -8 10 21 -10 75 15 71 33 -2 9 -8 15 -15 14 -6 -2 -9 4 -6 12
6 14 18 19 37 16 4 0 7 6 7 14 0 8 -6 12 -12 10 -7 -2 -24 -7 -38 -9 -14 -3
-34 -7 -45 -9 -70 -16 -106 -17 -125 -7 -16 9 -19 15 -10 25 8 10 7 14 -2 19
-7 3 -1 3 13 0 29 -6 45 9 47 44 1 22 -1 23 -54 16 -37 -4 -54 -3 -54 5 0 6
-4 11 -10 11 -5 0 -10 -6 -10 -13 0 -20 -86 -22 -106 -3 -14 14 -12 15 14 10
16 -3 32 -1 36 4 3 6 15 8 26 5 11 -3 20 0 20 6 0 6 10 11 21 11 17 0 19 3 10
14 -9 11 -5 15 19 19 52 11 33 23 -28 19 -47 -3 -61 -1 -72 14 -9 10 -10 15
-3 10 9 -5 11 -2 7 7 -3 8 2 21 10 30 9 9 16 19 16 23 0 4 8 16 18 27 16 20
16 20 -1 14 -10 -4 -23 -7 -29 -7 -6 0 -8 -7 -5 -15 4 -8 2 -17 -3 -20 -6 -4
-10 1 -10 9 0 9 -5 16 -11 16 -5 0 -7 -4 -4 -10 11 -18 14 -50 4 -50 -5 0 -9
-7 -9 -15 0 -8 -4 -15 -9 -15 -5 0 -7 9 -4 20 3 11 1 20 -5 20 -5 0 -13 7 -16
16 -3 8 -2 13 3 10 5 -3 11 1 14 9 4 9 1 12 -9 8 -22 -8 -103 17 -114 36 -6
10 -10 11 -10 4 0 -7 -9 -13 -19 -13 -11 0 -23 -4 -26 -10 -4 -6 6 -10 24 -10
16 0 32 -6 34 -12 4 -10 7 -10 15 0 6 9 9 4 10 -17 0 -21 -4 -31 -14 -31 -8 0
-14 5 -14 10 0 6 -9 10 -19 10 -11 0 -21 5 -23 11 -4 12 -38 1 -38 -12 0 -4 6
-6 14 -3 8 3 17 1 21 -5 4 -7 -3 -11 -18 -11 -25 0 -48 31 -28 38 18 6 12 33
-6 30 -10 -2 -19 4 -21 15 -2 12 3 17 18 17 12 0 18 -4 15 -10 -3 -5 -2 -10 4
-10 5 0 13 5 16 11 7 11 52 32 70 33 6 1 22 13 37 29 15 15 34 27 43 27 9 0
18 6 21 14 3 8 15 11 30 8 13 -2 24 0 24 6 0 6 -10 12 -22 14 -20 3 -19 6 15
22 20 10 46 16 57 13 11 -3 20 -2 20 2 0 4 18 14 40 21 22 7 48 21 59 32 11
10 25 18 31 18 5 0 10 4 10 8 0 10 60 32 87 32 12 0 24 7 27 16 4 12 2 15 -9
10 -13 -4 -14 -2 -5 14 6 11 7 20 2 20 -5 0 -15 11 -22 25 l-13 24 -30 -21
c-17 -12 -46 -22 -66 -22 -20 -1 -39 -5 -43 -10 -3 -6 -32 -11 -64 -12 -48 -2
-68 3 -103 23 -2 2 3 11 12 21 9 10 20 33 23 50 l6 32 -31 -16 c-19 -9 -46
-14 -64 -11 -18 2 -52 -2 -77 -9 -25 -8 -62 -14 -82 -14 -30 0 -36 3 -31 16 5
13 2 15 -18 8 -13 -4 -34 -8 -46 -9 -13 0 -23 -3 -23 -7 0 -4 -9 -10 -20 -13
-11 -3 -20 -13 -20 -21 0 -10 -7 -13 -22 -9 -41 9 -81 -8 -89 -39 -5 -16 -17
-35 -28 -43 -20 -13 -20 -16 -6 -44 9 -16 13 -34 10 -38 -6 -11 -31 -8 -42 4
-4 4 -3 5 4 1 19 -11 22 7 7 49 -8 22 -11 51 -8 65 3 14 8 33 10 44 4 22 14
34 14 18 0 -7 7 -12 15 -12 8 0 15 7 15 16 0 8 4 13 8 10 13 -8 90 31 101 52
6 11 22 23 36 26 16 4 25 13 25 26 0 11 5 20 10 20 6 0 10 -10 10 -21 0 -18 2
-19 15 -9 8 7 15 10 15 6 0 -4 11 1 25 10 14 9 25 23 25 31 0 8 4 12 9 9 8 -6
106 25 118 37 8 9 -45 0 -117 -20 -30 -8 -83 -22 -117 -32 -71 -19 -89 -31
-47 -32 29 0 29 0 5 -10 -17 -7 -28 -6 -40 5 -10 9 -23 11 -36 6 -35 -15 -49
-12 -35 5 7 8 19 15 27 15 8 0 12 4 8 9 -3 6 11 9 35 8 26 -2 40 2 40 10 0 7
17 15 38 19 52 9 75 24 37 23 -16 0 -39 -4 -50 -8 -11 -5 -28 -4 -39 1 -13 7
-16 7 -12 -1 4 -6 2 -11 -3 -11 -6 0 -11 10 -11 21 0 17 -3 19 -13 10 -8 -6
-17 -8 -20 -4 -4 3 -7 1 -7 -5 0 -7 -4 -12 -9 -12 -5 0 -7 10 -3 22 4 16 2 19
-8 13 -9 -6 -11 -4 -6 4 5 7 14 10 21 7 8 -3 19 2 27 11 11 14 10 15 -12 8
-14 -4 -39 -16 -56 -26 -35 -21 -48 -24 -39 -9 3 5 0 7 -8 4 -8 -3 -18 -1 -22
5 -3 6 0 11 7 11 8 0 21 9 31 20 18 22 33 25 41 11 9 -15 46 0 46 18 0 13 -2
13 -9 2 -5 -8 -10 -9 -12 -3 -3 7 -22 6 -59 -3 -30 -7 -47 -14 -37 -14 21 -1
23 -21 2 -21 -8 0 -18 0 -22 0 -5 0 -9 5 -9 10 -1 6 -3 13 -4 18 -1 4 -2 10
-1 15 0 4 -4 7 -10 7 -8 0 -7 5 2 16 7 8 21 13 31 11 10 -3 18 -1 18 4 0 5 4
9 10 9 5 0 7 -6 4 -14 -6 -15 33 -29 42 -15 3 5 -4 9 -15 9 -15 0 -19 4 -14
17 4 11 8 12 11 5 5 -17 32 -15 32 3 0 18 -18 19 -56 5 -21 -8 -29 -8 -36 2
-6 11 -8 10 -8 0 0 -9 -7 -11 -22 -7 -34 11 -48 28 -17 20 26 -7 49 9 34 23
-4 4 -10 1 -12 -5 -6 -15 -23 -17 -23 -3 0 18 49 35 62 22 9 -9 9 -12 0 -12
-7 0 -12 -4 -12 -9 0 -5 9 -7 20 -4 10 3 18 10 17 17 -1 6 4 10 12 8 17 -4 74
19 66 26 -3 3 2 14 12 24 22 24 8 23 -71 -7 -79 -30 -83 -30 -90 -7 -3 10 -4
8 -3 -7 2 -21 -6 -26 -53 -42 -73 -25 -101 -40 -93 -52 3 -5 -3 -6 -15 -3 -20
7 -165 -52 -157 -63 2 -3 -11 -7 -28 -7 -18 -1 -57 -10 -87 -22 -32 -11 -59
-16 -65 -11 -13 13 -27 11 -22 -3 2 -7 -10 -19 -26 -25 -38 -17 -47 -16 -47 3
0 8 -4 12 -10 9 -14 -9 -13 8 2 23 9 9 8 12 -5 12 -9 0 -17 -5 -17 -11 0 -5
-5 -7 -12 -3 -6 4 -17 -1 -24 -11 -8 -10 -16 -16 -20 -13 -3 4 -21 0 -39 -8
-44 -18 -64 -18 -40 0 11 8 23 12 27 10 4 -3 10 7 14 21 4 16 13 25 25 25 10
0 19 4 19 9 0 5 14 8 30 7 19 -1 30 3 30 11 0 7 6 10 14 7 8 -3 17 -1 21 5 9
15 21 14 39 -5 9 -8 16 -11 16 -5 0 5 -5 13 -10 16 -6 4 -8 11 -4 16 4 7 -11
8 -42 4 -59 -8 -104 -24 -104 -37 0 -5 -4 -7 -9 -3 -5 3 -12 1 -16 -4 -3 -6
-12 -8 -20 -5 -7 3 -24 0 -36 -7 -17 -9 -24 -9 -27 0 -5 16 -22 14 -22 -4 0
-10 -10 -15 -27 -15 -16 0 -23 3 -16 8 23 15 17 32 -18 50 -24 12 -43 16 -58
11 -17 -7 -21 -5 -21 11 0 10 -9 22 -20 25 -11 4 -18 11 -15 16 4 5 2 9 -3 9
-6 0 -13 -16 -17 -36 -5 -28 -2 -39 12 -49 17 -13 17 -14 -2 -29 -11 -8 -25
-16 -31 -16 -5 0 -20 -13 -32 -30 -12 -16 -37 -37 -55 -46 -17 -9 -39 -24 -47
-34 -8 -11 -27 -22 -42 -25 -22 -6 -28 -4 -28 10 0 9 -4 14 -9 10 -5 -3 -16 2
-25 11 -9 8 -20 13 -24 10 -5 -3 -18 1 -28 9 -17 13 -18 14 -1 15 21 0 23 26
2 34 -9 3 -15 0 -15 -9 0 -7 -12 -23 -26 -34 -19 -15 -31 -18 -49 -11 -22 9
-35 5 -35 -11 0 -5 7 -6 15 -3 24 9 17 -14 -7 -27 -13 -7 -36 -25 -51 -41 -16
-15 -34 -28 -40 -28 -7 0 -6 4 3 10 12 8 13 11 1 19 -10 7 -11 9 -1 13 18 6
21 38 4 38 -8 0 -14 -3 -14 -7 0 -9 -62 -53 -73 -53 -4 0 -7 7 -7 15 0 13 -4
14 -22 4 -18 -10 -24 -8 -35 7 -15 21 -17 38 -4 29 6 -3 14 2 19 11 10 18 32
11 32 -11 0 -14 37 -31 47 -21 4 3 -1 6 -10 6 -14 0 -15 4 -5 25 10 22 12 23
23 9 9 -13 16 -14 33 -5 17 9 20 16 13 35 -7 17 -6 23 4 23 8 0 12 -4 10 -8
-3 -4 2 -9 10 -13 8 -3 17 -1 20 5 4 5 11 7 16 4 5 -4 9 -1 9 4 0 6 7 11 16
11 8 0 12 5 9 10 -4 6 -11 8 -16 5 -5 -4 -12 1 -15 9 -3 9 -15 16 -26 16 -15
0 -19 5 -15 20 6 24 -8 26 -29 5 -10 -9 -25 -12 -44 -9 -24 5 -31 2 -44 -22
-8 -16 -15 -25 -16 -21 0 5 -7 1 -16 -7 -8 -9 -19 -14 -24 -11 -4 3 -26 6 -48
7 -35 1 -39 4 -38 28 1 19 6 26 21 26 15 -1 19 5 18 21 -2 16 2 21 12 17 8 -4
15 -10 15 -15 0 -5 7 -9 15 -9 7 0 19 -8 24 -17 8 -15 11 -15 12 -3 1 8 2 20
4 25 1 6 3 21 4 35 1 18 4 21 10 11 5 -7 14 -10 21 -6 7 4 10 1 8 -11 -2 -11
4 -20 14 -22 13 -2 16 4 16 28 -1 17 4 36 10 42 7 7 12 8 12 4 0 -5 7 -3 15 4
8 7 15 9 16 4 1 -5 5 2 9 16 7 22 8 21 9 -12 1 -21 5 -38 9 -38 14 0 32 23 32
42 0 21 -16 24 -23 6 -4 -10 -6 -10 -6 0 -1 6 8 21 20 33 19 19 20 19 17 2 -2
-10 6 -26 17 -35 11 -10 15 -17 8 -18 -7 0 -13 -5 -13 -11 0 -8 4 -8 15 1 8 6
23 9 33 6 14 -5 21 -1 25 14 4 14 0 20 -12 20 -9 0 -21 8 -28 19 -10 16 -9 19
13 19 32 0 43 10 24 22 -13 8 -12 10 3 10 9 0 17 5 17 10 0 18 22 10 27 -10 6
-24 23 -17 23 10 0 10 5 20 11 22 7 2 0 12 -15 21 -14 10 -26 13 -26 7 0 -15
-40 -12 -41 3 0 6 -5 1 -10 -12 -9 -23 -10 -23 -29 -6 -18 16 -20 16 -20 2 0
-11 -8 -17 -24 -17 -14 0 -28 -4 -31 -10 -3 -5 -13 -10 -21 -10 -8 0 -14 5
-14 10 0 6 10 10 22 10 16 0 19 3 11 11 -17 17 -5 43 13 28 11 -9 18 -8 29 1
8 7 15 10 15 6 0 -4 13 0 29 9 23 11 31 12 34 2 3 -6 6 0 6 16 1 15 -3 27 -9
27 -5 0 0 10 12 22 20 20 21 23 5 26 -9 2 -17 11 -16 20 0 11 2 13 6 4 3 -9
10 -7 24 9 10 12 19 24 19 26 0 8 -26 1 -42 -11z m-34 -91 c-4 -8 -16 -15 -27
-15 -20 0 -20 0 -1 15 25 19 35 19 28 0z m-124 -2 c-8 -3 -18 -11 -22 -17 -5
-7 -8 -4 -8 7 0 11 7 17 23 16 15 0 17 -2 7 -6z m-33 -65 c-3 -8 -6 -5 -6 6
-1 11 2 17 5 13 3 -3 4 -12 1 -19z m13 -28 c10 -2 -35 -24 -55 -27 -15 -2 -16
-1 -6 6 7 5 11 13 7 19 -5 9 16 10 54 2z m-435 -10 c3 -5 1 -10 -4 -10 -6 0
-11 5 -11 10 0 6 2 10 4 10 3 0 8 -4 11 -10z m246 -23 c-8 -8 -11 -7 -11 4 0
9 3 19 7 23 4 4 9 2 11 -4 3 -7 -1 -17 -7 -23z m-291 2 c0 -5 -7 -9 -16 -9 -9
0 -23 -8 -30 -17 -8 -11 -13 -13 -14 -6 0 16 41 54 52 47 4 -3 8 -9 8 -15z
m350 -5 c0 -8 -5 -12 -10 -9 -6 4 -8 11 -5 16 9 14 15 11 15 -7z m-640 -28 c0
-7 7 -13 15 -13 8 0 15 6 15 14 0 7 4 13 10 13 5 0 7 -7 4 -14 -5 -13 -1 -13
24 -4 16 6 36 8 46 5 17 -7 23 -57 7 -57 -5 0 -16 -2 -24 -5 -9 -4 -13 1 -13
17 1 16 -5 23 -18 23 -11 0 -21 -6 -24 -13 -2 -7 2 -11 8 -10 7 2 15 -3 17
-10 3 -8 -1 -10 -11 -6 -9 3 -16 1 -16 -5 0 -6 -5 -11 -11 -11 -5 0 -8 4 -4 9
3 5 -4 12 -15 16 -11 4 -18 11 -15 16 4 5 1 9 -4 9 -6 0 -11 -4 -11 -9 0 -5
-9 -7 -20 -4 -11 3 -27 0 -35 -7 -12 -10 -15 -10 -15 1 0 8 -6 6 -16 -7 -15
-18 -15 -17 -1 6 8 14 25 26 38 28 13 1 29 3 36 4 7 1 14 7 17 14 3 9 -1 11
-12 8 -14 -5 -14 -4 -2 4 16 12 30 7 30 -12z m701 1 c-10 -9 -11 -8 -5 6 3 10
9 15 12 12 3 -3 0 -11 -7 -18z m-281 -7 c0 -5 -4 -10 -10 -10 -5 0 -10 5 -10
10 0 6 5 10 10 10 6 0 10 -4 10 -10z m128 -17 c-2 -14 -8 -28 -14 -30 -7 -2
-9 8 -6 27 5 37 25 40 20 3z m96 12 c3 -8 1 -15 -4 -15 -6 0 -10 7 -10 15 0 8
2 15 4 15 2 0 6 -7 10 -15z m-826 -35 c-1 -45 -10 -51 -25 -17 -12 25 -12 43
0 40 4 -2 7 2 7 7 0 6 4 10 10 10 5 0 9 -18 8 -40z m352 10 c-24 -15 -37 -11
-16 5 11 8 22 12 25 9 3 -3 -1 -9 -9 -14z m550 10 c0 -5 -5 -10 -11 -10 -5 0
-7 5 -4 10 3 6 8 10 11 10 2 0 4 -4 4 -10z m-853 -40 c1 -11 -2 -20 -8 -20 -5
0 -9 9 -9 20 0 11 4 20 8 20 4 0 8 -9 9 -20z m430 -2 c-3 -8 -6 -5 -6 6 -1 11
2 17 5 13 3 -3 4 -12 1 -19z m40 -10 c-3 -8 -6 -5 -6 6 -1 11 2 17 5 13 3 -3
4 -12 1 -19z m171 0 c-2 -12 -9 -23 -17 -26 -8 -3 -11 0 -7 7 4 6 2 11 -4 11
-7 0 -6 5 2 15 19 21 30 18 26 -7z m-946 -19 c-20 -23 -26 -24 -18 -4 7 19 1
19 -30 -1 -18 -13 -28 -14 -36 -6 -8 8 -5 14 13 20 45 17 54 19 71 14 15 -4
15 -5 0 -23z m2668 21 c0 -5 -2 -10 -4 -10 -3 0 -8 5 -11 10 -3 6 -1 10 4 10
6 0 11 -4 11 -10z m-1854 -11 c3 -6 17 -8 31 -4 18 4 24 2 20 -7 -2 -7 -12
-12 -21 -12 -9 1 -16 -2 -16 -6 0 -5 -9 -6 -20 -3 -11 3 -20 14 -20 24 0 21
15 25 26 8z m339 -8 c-3 -6 -11 -11 -17 -11 -6 0 -6 6 2 15 14 17 26 13 15 -4z
m-820 -29 c-5 -13 -8 -14 -15 -3 -5 8 -3 19 3 26 14 15 22 1 12 -23z m2308 18
c3 -11 1 -20 -4 -20 -5 0 -9 9 -9 20 0 11 2 20 4 20 2 0 6 -9 9 -20z m97 6 c0
-3 -4 -8 -10 -11 -5 -3 -10 -1 -10 4 0 6 5 11 10 11 6 0 10 -2 10 -4z m-45
-16 c3 -6 -1 -7 -9 -4 -18 7 -21 14 -7 14 6 0 13 -4 16 -10z m-2849 -25 c-19
-15 -36 -12 -36 6 0 6 4 8 8 5 4 -2 14 -1 22 4 22 14 27 0 6 -15z m1104 11 c0
-8 -4 -18 -10 -21 -5 -3 -10 3 -10 14 0 12 5 21 10 21 6 0 10 -6 10 -14z
m-802 -14 c2 -7 -3 -12 -12 -12 -9 0 -16 7 -16 16 0 17 22 14 28 -4z m91 -11
c-3 -8 -11 -7 -24 4 -19 14 -19 15 -1 8 15 -5 17 -3 11 8 -6 11 -5 11 5 2 7
-6 11 -16 9 -22z m831 14 c0 -8 -2 -15 -4 -15 -2 0 -6 7 -10 15 -3 8 -1 15 4
15 6 0 10 -7 10 -15z m1470 5 c0 -5 -2 -10 -4 -10 -3 0 -8 5 -11 10 -3 6 -1
10 4 10 6 0 11 -4 11 -10z m137 -24 c-7 -17 -47 -22 -47 -7 0 5 7 17 16 26 19
19 40 6 31 -19z m-2767 13 c0 -5 5 -7 10 -4 6 3 10 -1 10 -10 0 -22 -32 -15
-36 8 -1 9 2 17 7 17 5 0 9 -5 9 -11z m840 1 c0 -5 -4 -10 -9 -10 -5 0 -18 -3
-28 -6 -16 -6 -16 -5 2 9 23 19 35 21 35 7z m-880 -40 c-20 -13 -57 -13 -44
-1 10 10 46 19 54 14 2 -2 -2 -8 -10 -13z m240 -10 c-7 -4 -9 -14 -5 -21 6
-11 5 -11 -4 -3 -10 9 -10 16 1 33 7 12 15 16 17 10 2 -6 -2 -15 -9 -19z m516
12 c6 -4 14 -15 17 -26 6 -14 4 -17 -9 -12 -8 3 -20 6 -25 6 -5 0 -9 9 -9 20
0 21 8 25 26 12z m60 -27 c-3 -8 -10 -15 -16 -15 -14 0 -12 37 3 43 15 5 21
-8 13 -28z m1759 25 c-3 -5 -12 -10 -18 -10 -7 0 -6 4 3 10 19 12 23 12 15 0z
m301 -2 c5 -7 3 -8 -5 -3 -10 5 -12 -2 -8 -29 5 -38 -3 -46 -22 -22 -8 10 -9
16 -1 21 5 3 10 15 10 26 0 21 15 25 26 7z m-4186 -2 c0 -3 -4 -8 -10 -11 -5
-3 -10 -1 -10 4 0 6 5 11 10 11 6 0 10 -2 10 -4z m1820 -6 c0 -5 -4 -10 -10
-10 -5 0 -10 5 -10 10 0 6 5 10 10 10 6 0 10 -4 10 -10z m-350 -9 c0 -5 -8
-15 -17 -22 -17 -13 -17 -13 -3 5 14 18 13 19 -8 14 -12 -4 -20 -2 -16 3 7 12
44 12 44 0z m896 -6 c-3 -8 -1 -15 4 -15 6 0 10 4 10 10 0 5 7 7 16 3 20 -8 2
-26 -21 -21 -19 3 -30 38 -13 38 6 0 8 -7 4 -15z m1194 -25 c0 -12 -10 -24
-24 -30 -26 -10 -44 -30 -26 -30 6 0 8 -5 5 -10 -4 -6 -11 -8 -16 -5 -18 12
-8 43 23 69 38 31 38 31 38 6z m-920 -15 c0 -8 -4 -17 -10 -20 -6 -4 -10 5
-10 20 0 15 4 24 10 20 6 -3 10 -12 10 -20z m1316 6 c0 -11 -5 -17 -13 -14
-10 4 -11 9 -2 19 15 18 15 18 15 -5z m299 -10 c-6 -5 -25 10 -25 20 0 5 6 4
14 -3 8 -7 12 -15 11 -17z m-2828 13 c-3 -3 -12 -4 -19 -1 -8 3 -5 6 6 6 11 1
17 -2 13 -5z m857 -9 c-4 -8 -8 -15 -10 -15 -2 0 -4 7 -4 15 0 8 4 15 10 15 5
0 7 -7 4 -15z m1421 5 c3 -5 1 -10 -4 -10 -6 0 -11 5 -11 10 0 6 2 10 4 10 3
0 8 -4 11 -10z m311 -10 c8 0 14 -4 14 -10 0 -5 -8 -10 -18 -10 -11 0 -18 8
-19 23 0 12 1 16 4 10 3 -7 11 -13 19 -13z m-2126 -16 c0 -19 -4 -25 -14 -21
-8 3 -17 1 -19 -6 -2 -7 -8 -9 -12 -4 -11 10 15 57 32 57 7 0 13 -11 13 -26z
m490 21 c0 -3 -7 -13 -16 -24 -14 -16 -21 -17 -40 -9 -33 15 -30 25 6 20 18
-3 30 0 30 7 0 6 5 11 10 11 6 0 10 -2 10 -5z m80 -10 c-10 -12 -16 -13 -26
-4 -20 16 -18 19 12 19 22 0 25 -2 14 -15z m90 5 c0 -5 -8 -10 -17 -10 -15 0
-16 2 -3 10 19 12 20 12 20 0z m1430 -15 c0 -8 -4 -15 -10 -15 -5 0 -7 7 -4
15 4 8 8 15 10 15 2 0 4 -7 4 -15z m195 -2 c24 2 33 -31 10 -39 -19 -8 -30 2
-40 36 -3 14 -3 20 2 13 5 -6 17 -11 28 -10z m42 -5 c-3 -8 -6 -5 -6 6 -1 11
2 17 5 13 3 -3 4 -12 1 -19z m-117 -3 c0 -8 -7 -15 -15 -15 -8 0 -15 7 -15 15
0 8 7 15 15 15 8 0 15 -7 15 -15z m-1795 -15 c3 -6 -1 -7 -9 -4 -9 3 -16 2
-16 -4 0 -6 -9 -8 -20 -5 -14 4 -20 0 -20 -11 0 -10 -5 -14 -11 -11 -16 10 20
45 47 45 13 0 26 -4 29 -10z m-145 -10 c0 -5 -7 -10 -16 -10 -8 0 -12 5 -9 10
3 6 10 10 16 10 5 0 9 -4 9 -10z m1815 0 c-3 -5 -12 -10 -18 -10 -7 0 -6 4 3
10 19 12 23 12 15 0z m55 -11 c0 -6 -4 -7 -10 -4 -5 3 -10 11 -10 16 0 6 5 7
10 4 6 -3 10 -11 10 -16z m-169 -16 c-12 -8 -31 -12 -44 -10 -18 4 -18 4 6 6
15 0 30 8 33 16 4 8 10 12 16 9 5 -3 0 -13 -11 -21z m269 15 c0 -4 -4 -8 -9
-8 -6 0 -12 4 -15 8 -3 5 1 9 9 9 8 0 15 -4 15 -9z m-1975 -28 c-3 -5 -13 -10
-21 -10 -8 0 -12 5 -9 10 3 6 13 10 21 10 8 0 12 -4 9 -10z m-2128 -32 c-3 -7
-5 -2 -5 12 0 14 2 19 5 13 2 -7 2 -19 0 -25z m2173 22 c0 -5 -4 -10 -10 -10
-5 0 -10 5 -10 10 0 6 5 10 10 10 6 0 10 -4 10 -10z m-850 -15 c0 -8 -4 -15
-10 -15 -5 0 -10 7 -10 15 0 8 5 15 10 15 6 0 10 -7 10 -15z m1127 9 c-3 -3
-12 -4 -19 -1 -8 3 -5 6 6 6 11 1 17 -2 13 -5z m1693 -25 c-12 -40 -19 -47
-29 -30 -12 19 -2 49 18 54 9 3 17 5 18 6 1 0 -2 -13 -7 -30z m-4160 11 c0 -5
-5 -10 -11 -10 -5 0 -7 5 -4 10 3 6 8 10 11 10 2 0 4 -4 4 -10z m4345 0 c3 -5
1 -10 -4 -10 -6 0 -11 5 -11 10 0 6 2 10 4 10 3 0 8 -4 11 -10z m-4395 -10 c0
-5 5 -9 11 -7 6 1 13 -4 15 -11 1 -7 0 -8 -2 -3 -3 6 -12 7 -20 4 -7 -3 -11
-10 -7 -17 3 -6 -3 -2 -16 8 -16 15 -18 21 -9 28 18 11 28 10 28 -2z m1348
-11 c-7 -5 -22 -9 -33 -9 -19 1 -19 1 -2 15 11 7 26 11 34 8 12 -5 12 -7 1
-14z m702 1 c0 -5 -4 -10 -10 -10 -5 0 -10 5 -10 10 0 6 5 10 10 10 6 0 10 -4
10 -10z m2094 -26 c4 -10 1 -14 -6 -12 -15 5 -23 28 -10 28 5 0 13 -7 16 -16z
m711 6 c-3 -5 -12 -10 -18 -10 -7 0 -6 4 3 10 19 12 23 12 15 0z m-2515 -15
c0 -8 -2 -15 -4 -15 -2 0 -6 7 -10 15 -3 8 -1 15 4 15 6 0 10 -7 10 -15z
m-2385 -5 c4 -7 -3 -8 -22 -4 -38 9 -42 14 -10 14 14 0 29 -5 32 -10z m160
-28 c-6 -5 -27 -19 -47 -31 -30 -18 -38 -19 -38 -8 0 26 68 70 85 55 5 -5 5
-11 0 -16z m4486 -12 c11 -35 10 -43 -4 -57 -14 -14 -15 -12 -10 24 4 29 1 44
-12 56 -14 15 -14 17 -1 17 9 0 20 -16 27 -40z m-326 20 c4 -6 -6 -10 -22 -9
-25 0 -26 1 -8 9 11 5 21 9 22 9 1 1 5 -3 8 -9z m240 -10 c3 -5 1 -10 -4 -10
-6 0 -11 5 -11 10 0 6 2 10 4 10 3 0 8 -4 11 -10z m305 0 c0 -5 -4 -10 -9 -10
-6 0 -13 5 -16 10 -3 6 1 10 9 10 9 0 16 -4 16 -10z m325 -19 c-3 -6 -11 -11
-16 -11 -5 0 -4 6 3 14 14 16 24 13 13 -3z m-3165 5 c0 -2 3 -11 6 -20 4 -11
1 -16 -10 -16 -9 0 -16 2 -16 4 0 2 -3 11 -6 20 -4 11 -1 16 10 16 9 0 16 -2
16 -4z m2187 -2 c-3 -3 -12 -4 -19 -1 -8 3 -5 6 6 6 11 1 17 -2 13 -5z m219
-42 c-4 -3 -11 -1 -18 6 -8 8 -8 15 3 28 13 16 14 16 17 -5 2 -13 1 -25 -2
-29z m-276 13 c0 -8 -4 -15 -10 -15 -5 0 -10 7 -10 15 0 8 5 15 10 15 6 0 10
-7 10 -15z m387 -21 c2 -16 -4 -38 -12 -49 -14 -18 -16 -18 -32 -2 -16 16 -16
19 1 52 23 41 40 41 43 -1z m324 12 c6 3 9 0 8 -7 -1 -8 3 -32 9 -53 17 -58 9
-54 -18 9 -13 30 -28 55 -34 55 -6 0 -4 5 4 10 11 7 16 5 18 -5 2 -9 8 -12 13
-9z m-4847 -1 c4 -10 -8 -23 -34 -40 -22 -14 -44 -25 -49 -25 -4 0 -49 -18
-99 -40 -106 -47 -122 -49 -122 -15 0 14 -4 25 -10 25 -5 0 -10 4 -10 8 0 10
89 36 97 28 4 -3 -3 -6 -13 -6 -11 0 -29 -7 -40 -16 -18 -15 -18 -15 6 -9 14
3 30 7 35 8 6 2 15 5 20 8 6 4 20 5 33 4 12 -1 22 2 22 7 0 4 9 8 19 8 11 0
23 5 26 10 3 6 17 10 30 10 12 0 25 7 29 15 3 8 15 15 26 15 12 0 18 5 15 10
-3 6 -2 10 3 10 6 0 12 -7 16 -15z m4433 -7 c-3 -8 -6 -5 -6 6 -1 11 2 17 5
13 3 -3 4 -12 1 -19z m29 -3 c1 -8 -2 -13 -7 -9 -5 3 -9 12 -9 21 0 19 13 9
16 -12z m-2556 -15 c0 -5 -5 -10 -11 -10 -5 0 -7 5 -4 10 3 6 8 10 11 10 2 0
4 -4 4 -10z m2680 -24 c-14 -14 -22 -2 -14 18 5 14 9 15 15 4 4 -7 4 -17 -1
-22z m401 -40 c-2 -5 -8 1 -13 13 -4 12 -12 19 -18 16 -5 -3 -10 -1 -10 5 0 7
7 10 15 6 10 -4 15 1 16 17 1 14 4 9 8 -13 4 -19 5 -39 2 -44z m76 68 c-3 -3
-12 -4 -19 -1 -8 3 -5 6 6 6 11 1 17 -2 13 -5z m-867 -14 c0 -5 -4 -10 -10
-10 -5 0 -10 5 -10 10 0 6 5 10 10 10 6 0 10 -4 10 -10z m170 -15 c7 -9 8 -15
2 -15 -5 0 -12 7 -16 15 -3 8 -4 15 -2 15 2 0 9 -7 16 -15z m83 -4 c3 -14 1
-18 -9 -14 -8 3 -14 11 -14 19 0 21 17 17 23 -5z m627 9 c0 -5 -5 -10 -11 -10
-5 0 -7 5 -4 10 3 6 8 10 11 10 2 0 4 -4 4 -10z m-3155 -20 c3 -5 1 -10 -4
-10 -6 0 -11 5 -11 10 0 6 2 10 4 10 3 0 8 -4 11 -10z m2175 -28 c0 -13 -3
-12 -15 4 -19 25 -19 40 0 24 8 -7 15 -20 15 -28z m832 6 c-8 -8 -9 -4 -5 13
4 13 8 18 11 10 2 -7 -1 -18 -6 -23z m-172 12 c0 -5 -7 -7 -15 -4 -8 4 -15 8
-15 10 0 2 7 4 15 4 8 0 15 -4 15 -10z m-5130 -41 c0 -5 -9 -13 -20 -19 -16
-9 -20 -8 -20 5 0 8 7 15 16 15 14 0 15 2 3 18 -13 15 -12 16 4 3 9 -7 17 -17
17 -22z m2280 21 c0 -5 -4 -10 -10 -10 -5 0 -10 5 -10 10 0 6 5 10 10 10 6 0
10 -4 10 -10z m-2320 -4 c0 -3 -4 -8 -10 -11 -5 -3 -10 -1 -10 4 0 6 5 11 10
11 6 0 10 -2 10 -4z m4823 -37 c-9 -9 -12 -7 -10 9 1 14 5 18 11 12 7 -7 6
-14 -1 -21z m-458 1 c9 -14 -13 -50 -30 -50 -18 0 -18 1 -5 34 10 27 24 33 35
16z m578 -5 c-3 -9 -8 -14 -10 -11 -3 3 -2 9 2 15 9 16 15 13 8 -4z m285 -16
c4 -11 2 -11 -8 -2 -11 10 -16 9 -26 -5 -10 -14 -15 -15 -26 -4 -11 11 -10 12
3 7 10 -4 19 0 23 10 7 19 28 16 34 -6z m-714 -8 c9 -14 -15 -71 -30 -71 -17
0 -18 33 -2 60 14 22 24 25 32 11z m388 -33 c-7 -7 -12 -8 -12 -2 0 14 12 26
19 19 2 -3 -1 -11 -7 -17z m-5022 8 c0 -3 -4 -8 -10 -11 -5 -3 -10 -1 -10 4 0
6 5 11 10 11 6 0 10 -2 10 -4z m5176 -41 c2 -22 0 -23 -14 -9 -13 14 -13 17
-1 25 8 5 14 9 14 9 0 0 1 -11 1 -25z m-170 -34 c10 8 12 3 9 -22 -5 -33 -15
-53 -15 -28 0 12 -2 11 -10 -1 -8 -11 -9 -8 -4 13 5 22 3 26 -10 21 -12 -5
-15 -2 -10 11 5 11 10 13 17 6 7 -7 14 -7 23 0z m61 -8 c0 -9 -4 -10 -14 -2
-7 6 -13 12 -13 14 0 1 6 2 13 2 8 0 14 -6 14 -14z m133 -11 c0 -8 -9 -10 -27
-6 -43 10 -47 21 -8 20 21 -1 35 -6 35 -14z m-279 -64 c-8 -10 -21 -18 -29
-18 -7 0 -10 -5 -6 -11 3 -6 0 -15 -7 -20 -10 -6 -8 -9 9 -9 13 0 20 4 17 10
-3 6 1 10 9 10 9 0 16 -3 16 -7 0 -18 57 -7 78 15 12 12 22 19 22 13 0 -5 -5
-13 -11 -16 -6 -5 -4 -12 8 -22 13 -10 15 -16 6 -19 -7 -3 -13 -12 -13 -20 0
-8 -8 -14 -17 -14 -15 0 -16 2 -3 10 8 5 11 10 6 10 -6 0 -1 6 10 14 17 13 15
14 -24 13 -23 -1 -40 -6 -38 -12 2 -5 -6 -11 -18 -12 -11 -1 -33 -4 -48 -6
-16 -3 -30 -1 -33 3 -3 5 4 7 15 5 11 -2 18 0 15 4 -7 12 -45 21 -45 11 0 -4
-11 -3 -25 3 -14 7 -25 18 -25 26 0 11 3 11 16 0 14 -11 20 -9 43 19 14 18 31
32 36 32 6 0 3 -5 -5 -10 -13 -8 -12 -10 3 -10 10 0 20 7 22 15 16 51 17 51
24 31 5 -13 2 -27 -8 -38z m129 7 c0 -8 -2 -15 -4 -15 -2 0 -6 7 -10 15 -3 8
-1 15 4 15 6 0 10 -7 10 -15z m-75 -35 c-3 -5 -10 -10 -16 -10 -5 0 -9 5 -9
10 0 6 7 10 16 10 8 0 12 -4 9 -10z m-195 -30 c0 -5 -5 -10 -11 -10 -5 0 -7 5
-4 10 3 6 8 10 11 10 2 0 4 -4 4 -10z m-36 -8 c2 -4 -4 -9 -15 -9 -11 -1 -17
2 -14 8 7 11 22 12 29 1z m484 -27 c-3 -3 -9 2 -12 12 -6 14 -5 15 5 6 7 -7
10 -15 7 -18z m-540 -10 c-2 -1 -13 -8 -25 -14 -19 -10 -22 -9 -17 4 3 8 10
12 15 9 5 -3 9 0 9 6 0 6 5 8 11 5 6 -4 9 -8 7 -10z m63 -15 c5 0 9 4 9 8 0 4
9 8 20 9 11 1 20 -2 20 -7 0 -5 8 -11 18 -13 13 -4 11 -5 -5 -6 -13 0 -23 5
-24 12 0 6 -4 3 -9 -8 -5 -11 -9 -14 -9 -7 -1 7 -6 10 -11 7 -19 -12 -40 3
-33 22 7 17 8 17 11 1 2 -10 8 -18 13 -18z m449 -14 c0 -13 -6 -26 -14 -29
-11 -5 -12 0 -3 24 14 35 17 36 17 5z m187 -10 c-4 -9 -12 -16 -19 -16 -9 0
-8 3 2 10 12 8 10 10 -10 10 -24 1 -24 1 -6 15 23 17 42 5 33 -19z m-350 18
c-3 -3 -12 -4 -19 -1 -8 3 -5 6 6 6 11 1 17 -2 13 -5z m110 -9 c0 -8 -4 -12
-9 -9 -4 3 -8 9 -8 15 0 5 4 9 8 9 5 0 9 -7 9 -15z m147 7 c-6 -4 -13 -15 -17
-24 -3 -10 -15 -18 -26 -18 -15 0 -19 5 -14 16 5 13 7 13 14 2 7 -10 9 -9 9 4
0 16 13 26 35 27 6 0 6 -2 -1 -7z m-5370 -22 c-10 -4 -21 -6 -24 -3 -8 7 24
22 34 16 5 -4 1 -10 -10 -13z m5031 10 c3 -5 1 -10 -4 -10 -6 0 -11 5 -11 10
0 6 2 10 4 10 3 0 8 -4 11 -10z m-255 -18 c0 -10 -5 -23 -12 -30 -9 -9 -7 -12
11 -12 12 0 20 -4 17 -8 -8 -14 -66 -1 -66 14 0 8 6 14 14 14 21 0 31 21 15
31 -11 7 -10 9 4 9 10 0 17 -7 17 -18z m144 -19 c-3 -25 -1 -33 5 -24 7 10 13
11 27 1 16 -10 16 -11 2 -6 -10 3 -18 1 -18 -4 0 -5 -8 -14 -17 -19 -16 -8
-18 -4 -17 32 2 56 3 57 13 57 5 0 8 -17 5 -37z m-4970 15 c-3 -4 -12 -8 -20
-8 -8 0 -14 4 -14 8 0 4 9 8 19 8 11 0 17 -4 15 -8z m5031 -19 c-10 -15 -25
-10 -19 6 4 8 10 12 15 9 5 -3 7 -10 4 -15z m47 4 c-6 -3 -10 -9 -6 -14 3 -5
-2 -9 -10 -9 -9 0 -16 -6 -17 -12 0 -10 -2 -10 -6 0 -5 14 37 56 46 46 3 -4 0
-9 -7 -11z m208 7 c0 -5 -8 -10 -17 -10 -15 0 -16 2 -3 10 19 12 20 12 20 0z
m54 -3 c-2 -7 -22 -20 -44 -30 -46 -20 -50 -20 -50 -8 0 5 17 15 38 21 20 7
41 16 47 21 13 12 15 11 9 -4z m-477 -3 c-3 -3 -12 -4 -19 -1 -8 3 -5 6 6 6
11 1 17 -2 13 -5z m263 -10 c0 -2 -7 -4 -15 -4 -8 0 -15 4 -15 10 0 5 7 7 15
4 8 -4 15 -8 15 -10z m-233 -16 c15 -6 31 -11 36 -10 4 1 7 -8 7 -20 0 -21 0
-21 -17 -2 -10 11 -29 25 -43 31 -33 15 -19 16 17 1z m-4854 -39 c21 0 21 -1
-1 -10 -29 -11 -43 -4 -35 18 4 11 8 13 11 5 2 -7 13 -12 25 -13z m4847 -12
c0 -3 -7 -7 -14 -10 -10 -4 -13 -1 -9 9 7 20 -14 18 -26 -3 -7 -13 -10 -14
-11 -4 0 8 8 19 17 26 13 10 19 10 30 -1 7 -7 13 -15 13 -17z m121 16 c-11 -5
-11 -7 0 -14 11 -7 10 -9 -3 -9 -10 0 -18 7 -18 15 0 8 8 15 18 14 12 0 13 -2
3 -6z m-4856 -33 c-3 -5 -12 -10 -18 -10 -7 0 -6 4 3 10 19 12 23 12 15 0z
m-119 -11 c3 -6 1 -15 -6 -19 -8 -5 -9 -10 -1 -14 6 -4 13 4 17 19 7 29 16 31
38 10 28 -28 30 -57 6 -77 -12 -10 -30 -18 -40 -18 -22 0 -45 54 -41 98 1 15
17 16 27 1z m4876 -6 c27 -32 28 -41 8 -46 -13 -3 -20 0 -20 10 0 9 5 11 13 7
13 -9 -11 26 -28 38 -6 5 -6 8 1 8 6 0 18 -8 26 -17z m888 -23 c0 -5 -5 -10
-11 -10 -5 0 -7 5 -4 10 3 6 8 10 11 10 2 0 4 -4 4 -10z m-787 -35 c-3 -9 -8
-14 -10 -11 -3 3 -2 9 2 15 9 16 15 13 8 -4z m32 -5 c3 -5 1 -10 -4 -10 -6 0
-11 5 -11 10 0 6 2 10 4 10 3 0 8 -4 11 -10z m101 -17 c-10 -10 -19 5 -10 18
6 11 8 11 12 0 2 -7 1 -15 -2 -18z m-56 -7 c0 -8 -4 -18 -10 -21 -5 -3 -10 3
-10 14 0 12 5 21 10 21 6 0 10 -6 10 -14z m663 7 c-7 -2 -19 -2 -25 0 -7 3 -2
5 12 5 14 0 19 -2 13 -5z m-5933 -24 c0 -5 -4 -9 -10 -9 -5 0 -10 7 -10 16 0
8 5 12 10 9 6 -3 10 -10 10 -16z m5985 11 c3 -5 2 -10 -4 -10 -5 0 -13 5 -16
10 -3 6 -2 10 4 10 5 0 13 -4 16 -10z m30 -20 c3 -5 1 -10 -4 -10 -6 0 -11 5
-11 10 0 6 2 10 4 10 3 0 8 -4 11 -10z m-5878 -16 c-3 -3 -12 -4 -19 -1 -8 3
-5 6 6 6 11 1 17 -2 13 -5z m5713 -4 c0 -5 -5 -10 -11 -10 -5 0 -7 5 -4 10 3
6 8 10 11 10 2 0 4 -4 4 -10z m-5765 -10 c-3 -5 -12 -10 -18 -10 -7 0 -6 4 3
10 19 12 23 12 15 0z m-258 -52 c-25 -16 -36 -9 -24 16 10 21 13 22 23 7 9
-12 9 -18 1 -23z m163 23 c0 -5 -7 -11 -15 -15 -15 -5 -20 5 -8 17 9 10 23 9
23 -2z m5973 2 c-7 -2 -19 -2 -25 0 -7 3 -2 5 12 5 14 0 19 -2 13 -5z m-453
-13 c0 -5 -4 -10 -10 -10 -5 0 -10 5 -10 10 0 6 5 10 10 10 6 0 10 -4 10 -10z
m145 -20 c0 -20 -5 -30 -15 -31 -10 0 -8 -3 5 -9 16 -7 17 -9 3 -9 -20 -1 -32
15 -18 24 6 4 8 10 5 15 -6 10 4 40 14 40 3 0 6 -13 6 -30z m-5778 4 c8 -20
-13 -42 -27 -28 -12 12 -3 44 11 44 5 0 12 -7 16 -16z m5873 -11 c0 -15 -2
-15 -24 -7 -22 9 -20 20 4 20 11 0 20 -6 20 -13z m25 7 c3 -5 1 -10 -4 -10 -6
0 -11 5 -11 10 0 6 2 10 4 10 3 0 8 -4 11 -10z m-6245 -40 c-8 -5 -17 -7 -19
-4 -3 3 1 9 9 14 8 5 17 7 19 4 3 -3 -1 -9 -9 -14z m5910 10 c0 -5 -2 -10 -4
-10 -3 0 -8 5 -11 10 -3 6 -1 10 4 10 6 0 11 -4 11 -10z m280 -23 c0 -8 -7
-14 -15 -14 -25 0 -17 17 13 26 1 1 2 -5 2 -12z m64 -13 c3 -8 2 -12 -4 -9 -6
3 -10 10 -10 16 0 14 7 11 14 -7z m-5964 -4 c0 -5 -2 -10 -4 -10 -3 0 -8 5
-11 10 -3 6 -1 10 4 10 6 0 11 -4 11 -10z m5763 -25 c-3 -13 -9 -23 -13 -20
-4 2 -5 16 -3 30 3 13 9 23 13 20 4 -2 5 -16 3 -30z m87 31 c0 -3 -4 -8 -10
-11 -5 -3 -10 -1 -10 4 0 6 5 11 10 11 6 0 10 -2 10 -4z m-45 -46 c16 -17 16
-20 3 -15 -9 4 -19 13 -22 21 -7 19 -2 18 19 -6z m52 -6 c2 -7 -1 -21 -7 -31
-11 -17 -11 -17 -6 0 4 12 -2 25 -16 37 l-23 19 23 -6 c13 -3 26 -12 29 -19z
m-112 -24 c3 -6 -1 -7 -9 -4 -18 7 -21 14 -7 14 6 0 13 -4 16 -10z m-5954 -53
c-10 -9 -11 -8 -5 6 3 10 9 15 12 12 3 -3 0 -11 -7 -18z m5599 -7 c0 -5 -7
-10 -16 -10 -8 0 -12 5 -9 10 3 6 10 10 16 10 5 0 9 -4 9 -10z m-5610 -22 c0
-13 -23 -5 -28 10 -2 7 2 10 12 6 9 -3 16 -11 16 -16z m5840 1 c0 -6 -4 -7
-10 -4 -5 3 -10 11 -10 16 0 6 5 7 10 4 6 -3 10 -11 10 -16z m-185 -28 c-3 -6
-11 -11 -16 -11 -5 0 -4 6 3 14 14 16 24 13 13 -3z m-5471 -41 c-5 -5 -25 -12
-44 -15 l-35 -6 25 15 c28 17 70 22 54 6z m5621 -99 c-3 -6 -11 -8 -17 -5 -6
4 -5 9 3 15 16 10 23 4 14 -10z m-5781 -66 c3 -9 -1 -18 -9 -21 -24 -9 -17
-24 10 -24 14 0 25 -5 25 -11 0 -23 -22 -49 -40 -49 -11 0 -20 -7 -20 -15 0
-8 -6 -15 -14 -15 -9 0 -17 15 -21 40 -4 25 -12 40 -21 40 -16 0 -16 2 -8 24
5 13 10 11 32 -9 31 -29 47 -32 38 -9 -3 9 -6 18 -6 20 0 2 -9 4 -21 4 -21 0
-21 0 2 20 29 24 45 25 53 5z m96 -11 c0 -12 -4 -12 -20 -4 -11 6 -20 12 -20
13 0 2 9 3 20 4 12 1 20 -4 20 -13z m35 6 c-3 -5 -11 -10 -16 -10 -6 0 -7 5
-4 10 3 6 11 10 16 10 6 0 7 -4 4 -10z m5345 -55 c0 -8 -4 -15 -10 -15 -5 0
-10 7 -10 15 0 8 5 15 10 15 6 0 10 -7 10 -15z m-5306 -11 c10 -27 7 -43 -16
-64 -32 -29 -38 -25 -37 23 0 23 3 36 6 30 8 -21 25 -14 18 7 -8 24 20 28 29
4z m-334 -45 c0 -14 -16 -11 -29 5 -10 12 -8 13 8 9 12 -3 21 -9 21 -14z m90
-23 c0 -8 -4 -18 -10 -21 -5 -3 -10 3 -10 14 0 12 5 21 10 21 6 0 10 -6 10
-14z m5673 -50 c6 -16 -2 -28 -14 -20 -12 7 -11 34 0 34 5 0 11 -6 14 -14z
m-5521 -28 c-7 -7 -12 -22 -12 -35 0 -31 -16 -29 -22 1 -5 27 7 46 31 46 12 0
12 -3 3 -12z m5203 -68 c3 -5 1 -10 -4 -10 -6 0 -11 5 -11 10 0 6 2 10 4 10 3
0 8 -4 11 -10z m-5448 -117 c-4 -3 -2 -12 4 -20 9 -9 8 -13 0 -13 -6 0 -11 2
-11 4 0 2 -3 11 -6 20 -4 10 -1 16 7 16 7 0 9 -3 6 -7z m70 -9 c-3 -3 -12 -4
-19 -1 -8 3 -5 6 6 6 11 1 17 -2 13 -5z m5373 -4 c0 -4 -6 -13 -14 -19 -15
-12 -49 -4 -41 10 3 4 13 5 22 2 10 -4 14 -2 10 4 -3 5 0 10 8 10 8 0 15 -4
15 -7z m-5370 -20 c0 -5 -2 -10 -4 -10 -3 0 -8 5 -11 10 -3 6 -1 10 4 10 6 0
11 -4 11 -10z m-70 -10 c25 -1 25 -1 2 -10 -12 -5 -30 -6 -39 -3 -12 5 -14 3
-8 -7 5 -9 4 -11 -3 -6 -19 11 -14 35 6 31 9 -2 28 -4 42 -5z m54 -34 c-9 -7
-16 -25 -16 -39 0 -15 -4 -24 -9 -21 -5 3 -9 12 -9 21 0 8 -6 13 -13 10 -18
-7 -41 20 -25 29 7 4 14 2 16 -5 3 -8 8 -6 18 6 12 16 13 16 8 -7 -5 -25 -5
-24 11 3 9 15 21 25 26 21 6 -3 3 -11 -7 -18z m34 -11 c-1 -20 -5 -38 -10 -41
-4 -3 -4 -13 1 -22 4 -9 6 -23 3 -31 -3 -9 -9 -1 -17 20 -6 19 -8 39 -3 46 5
7 4 13 -4 16 -8 4 -7 6 5 6 10 1 17 9 17 21 0 11 2 20 5 20 2 0 4 -16 3 -35z
m5275 18 c-10 -27 -51 -66 -61 -59 -6 3 -13 -5 -16 -19 -8 -30 -44 -65 -67
-65 -22 0 -19 31 5 49 15 12 19 12 27 0 7 -11 9 -11 9 3 0 9 6 19 13 21 9 4 8
8 -3 16 -8 6 -10 11 -5 12 6 1 15 3 20 4 6 2 16 3 23 4 7 0 18 12 24 26 13 28
41 35 31 8z m-5196 -31 c-8 -7 -21 -10 -30 -6 -24 9 -11 24 18 22 21 -2 23 -5
12 -16z m-223 -31 c4 -5 -3 -7 -14 -4 -23 6 -26 13 -6 13 8 0 17 -4 20 -9z
m5743 -16 c0 -16 -1 -16 -33 -20 -12 -1 -26 -5 -33 -9 -6 -4 -11 -2 -11 3 0 6
7 11 15 11 8 0 15 7 15 15 0 9 9 15 23 15 14 0 24 -6 24 -15z m-5667 -4 c0 -6
-4 -12 -8 -15 -5 -3 -9 1 -9 9 0 8 4 15 9 15 4 0 8 -4 8 -9z m5578 -28 c12
-22 5 -43 -14 -43 -9 0 -14 11 -14 30 0 33 14 40 28 13z m-5658 -3 c0 -5 -4
-10 -10 -10 -5 0 -10 5 -10 10 0 6 5 10 10 10 6 0 10 -4 10 -10z m250 0 c0 -5
-4 -10 -10 -10 -5 0 -10 5 -10 10 0 6 5 10 10 10 6 0 10 -4 10 -10z m4990 -10
c-10 -7 -11 -10 -2 -10 6 0 12 -4 12 -10 0 -5 -5 -10 -12 -10 -6 0 -19 -7 -28
-15 -16 -14 -18 -14 -23 -1 -6 16 51 72 61 61 4 -3 0 -10 -8 -15z m-5167 -7
c-7 -2 -19 -2 -25 0 -7 3 -2 5 12 5 14 0 19 -2 13 -5z m42 -3 c3 -6 -1 -7 -9
-4 -18 7 -21 14 -7 14 6 0 13 -4 16 -10z m-100 -28 c-6 -7 -34 11 -29 19 3 5
11 3 19 -4 7 -6 12 -13 10 -15z m145 18 c0 -5 -5 -10 -11 -10 -5 0 -7 5 -4 10
3 6 8 10 11 10 2 0 4 -4 4 -10z m5560 0 c0 -5 -5 -10 -11 -10 -5 0 -7 5 -4 10
3 6 8 10 11 10 2 0 4 -4 4 -10z m-5229 -38 c-6 -2 -9 -8 -5 -13 3 -5 0 -9 -5
-9 -14 0 -14 6 1 33 8 17 13 18 16 7 3 -7 0 -16 -7 -18z m5079 -7 c0 -9 -6
-12 -16 -8 -13 5 -13 7 -2 14 17 11 18 11 18 -6z m64 -10 c-4 -8 -10 -13 -15
-10 -4 3 -6 12 -3 20 4 8 10 13 15 10 4 -3 6 -12 3 -20z m-5540 0 c-4 -8 -13
-15 -21 -15 -8 0 -11 -4 -8 -10 3 -5 1 -10 -4 -10 -20 0 -11 25 12 36 12 7 23
12 24 13 1 0 0 -6 -3 -14z m5442 -18 c4 -4 -2 -7 -14 -7 -12 0 -22 4 -22 9 0
10 26 9 36 -2z m399 -7 c-4 -6 -1 -18 7 -27 11 -14 11 -16 -1 -8 -11 6 -13 4
-8 -8 7 -18 -13 -19 -25 -2 -5 6 -8 4 -8 -4 0 -11 -4 -9 -14 4 -8 11 -12 24
-9 30 2 5 -4 -1 -15 -15 -12 -14 -23 -22 -26 -19 -12 12 33 47 54 42 11 -3 20
0 20 6 0 6 7 11 16 11 8 0 12 -5 9 -10z m-5295 -4 c0 -3 -4 -8 -10 -11 -5 -3
-10 -1 -10 4 0 6 5 11 10 11 6 0 10 -2 10 -4z m4600 -26 c0 -5 -7 -10 -16 -10
-8 0 -12 5 -9 10 3 6 10 10 16 10 5 0 9 -4 9 -10z m577 -27 c-3 -3 -10 -2 -16
2 -7 4 -7 10 2 20 10 11 13 11 15 -2 2 -8 1 -17 -1 -20z m-319 -4 c-5 -3 -10
-16 -11 -27 -2 -31 -25 -27 -33 5 -9 32 20 60 41 40 7 -7 9 -14 3 -18z m88 17
c3 -8 13 -12 23 -9 14 4 18 -2 19 -26 1 -26 -3 -31 -23 -31 -18 0 -22 4 -18
21 4 15 0 22 -16 26 -11 3 -21 12 -21 19 0 18 29 18 36 0z m-5056 -6 c0 -5 -4
-10 -10 -10 -5 0 -10 5 -10 10 0 6 5 10 10 10 6 0 10 -4 10 -10z m4848 -8 c2
-7 -3 -12 -12 -12 -9 0 -16 7 -16 16 0 17 22 14 28 -4z m632 8 c0 -5 -4 -10
-10 -10 -5 0 -10 5 -10 10 0 6 5 10 10 10 6 0 10 -4 10 -10z m-330 -11 c0 -7
-28 -39 -35 -39 -1 0 -2 11 -1 24 1 17 7 24 19 23 9 -1 17 -4 17 -8z m200 2
c0 -12 -29 -23 -42 -15 -6 4 -5 10 3 15 18 11 39 11 39 0z m-376 -70 c-17 -30
-38 -34 -28 -6 4 8 10 13 14 10 4 -3 10 5 13 17 4 12 9 19 13 16 3 -4 -2 -20
-12 -37z m286 35 c0 -3 -4 -8 -10 -11 -5 -3 -10 -1 -10 4 0 6 5 11 10 11 6 0
10 -2 10 -4z m-342 -33 c-4 -20 -39 -25 -45 -6 -3 7 4 10 19 6 18 -4 20 -3 8
6 -13 9 -12 11 3 11 12 0 17 -6 15 -17z m-318 -73 c0 -5 -8 -10 -17 -10 -15 0
-16 2 -3 10 19 12 20 12 20 0z m281 -14 c5 3 9 0 9 -5 0 -6 -7 -11 -15 -11 -8
0 -15 8 -14 18 0 10 3 12 6 4 2 -6 9 -10 14 -6z m-4879 -78 c-6 -6 -19 -7 -29
-3 -16 6 -16 8 5 16 12 4 23 14 23 21 1 7 3 5 6 -6 3 -10 0 -23 -5 -28z m4278
32 c0 -5 -2 -10 -4 -10 -3 0 -8 5 -11 10 -3 6 -1 10 4 10 6 0 11 -4 11 -10z
m225 0 c-3 -5 -14 -10 -23 -10 -15 0 -15 2 -2 10 20 13 33 13 25 0z m-305 -14
c0 -3 -4 -8 -10 -11 -5 -3 -10 -1 -10 4 0 6 5 11 10 11 6 0 10 -2 10 -4z m550
-6 c0 -5 -4 -10 -10 -10 -5 0 -10 5 -10 10 0 6 5 10 10 10 6 0 10 -4 10 -10z
m-580 -20 c0 -5 -4 -10 -10 -10 -5 0 -10 5 -10 10 0 6 5 10 10 10 6 0 10 -4
10 -10z m253 -10 c-3 -11 -10 -23 -16 -27 -7 -4 -8 0 -4 11 4 10 7 22 7 27 0
5 4 9 9 9 5 0 7 -9 4 -20z m-231 -12 c-7 -7 -12 -8 -12 -2 0 14 12 26 19 19 2
-3 -1 -11 -7 -17z m128 12 c0 -5 -5 -10 -11 -10 -5 0 -7 5 -4 10 3 6 8 10 11
10 2 0 4 -4 4 -10z m420 -24 c0 -27 -15 -42 -25 -26 -8 13 3 50 16 50 5 0 9
-11 9 -24z m160 14 c0 -5 -4 -10 -10 -10 -5 0 -10 5 -10 10 0 6 5 10 10 10 6
0 10 -4 10 -10z m-297 -15 c-3 -9 -8 -14 -10 -11 -3 3 -2 9 2 15 9 16 15 13 8
-4z m-433 -5 c0 -5 -5 -10 -11 -10 -5 0 -7 5 -4 10 3 6 8 10 11 10 2 0 4 -4 4
-10z m165 -19 c3 -5 1 -12 -5 -16 -5 -3 -10 1 -10 9 0 18 6 21 15 7z m-229
-28 c-10 -10 -19 5 -10 18 6 11 8 11 12 0 2 -7 1 -15 -2 -18z m424 1 c0 -8 -7
-14 -15 -14 -15 0 -21 21 -9 33 10 9 24 -2 24 -19z m150 16 c0 -5 -4 -10 -10
-10 -5 0 -10 5 -10 10 0 6 5 10 10 10 6 0 10 -4 10 -10z m-530 -52 c0 -16 -3
-19 -11 -11 -6 6 -8 16 -5 22 11 17 16 13 16 -11z m-90 2 c0 -5 -4 -10 -10
-10 -5 0 -10 5 -10 10 0 6 5 10 10 10 6 0 10 -4 10 -10z m-4087 -115 c-3 -9
-8 -14 -10 -11 -3 3 -2 9 2 15 9 16 15 13 8 -4z m58 -31 c6 -7 -1 -11 -20 -11
-29 0 -29 1 -13 25 11 17 17 21 20 11 3 -8 9 -19 13 -25z m-91 -4 c0 -5 -5
-10 -11 -10 -5 0 -7 5 -4 10 3 6 8 10 11 10 2 0 4 -4 4 -10z m4130 1 c0 -6 -4
-13 -10 -16 -5 -3 -10 1 -10 9 0 9 5 16 10 16 6 0 10 -4 10 -9z m-4055 -41
c-3 -5 -11 -10 -16 -10 -6 0 -7 5 -4 10 3 6 11 10 16 10 6 0 7 -4 4 -10z
m3605 -20 c0 -5 -5 -10 -11 -10 -5 0 -7 5 -4 10 3 6 8 10 11 10 2 0 4 -4 4
-10z m270 4 c0 -3 -7 -12 -15 -20 -16 -17 -18 -14 -9 10 6 15 24 23 24 10z
m-320 -54 c0 -8 -7 -24 -15 -34 -12 -16 -19 -18 -40 -8 -14 6 -25 18 -25 27 0
8 -4 15 -10 15 -5 0 -10 10 -10 23 0 13 3 17 8 10 5 -8 13 -8 31 1 20 11 27
11 42 -3 11 -8 19 -22 19 -31z m-3485 10 c3 -6 -1 -7 -9 -4 -18 7 -21 14 -7
14 6 0 13 -4 16 -10z m3325 0 c0 -5 -5 -10 -11 -10 -5 0 -7 5 -4 10 3 6 8 10
11 10 2 0 4 -4 4 -10z m437 -12 c-3 -8 -6 -5 -6 6 -1 11 2 17 5 13 3 -3 4 -12
1 -19z m-3682 3 c3 -5 1 -12 -5 -16 -5 -3 -10 1 -10 9 0 18 6 21 15 7z m3572
-23 c-3 -8 -6 -5 -6 6 -1 11 2 17 5 13 3 -3 4 -12 1 -19z m48 2 c3 -5 1 -10
-4 -10 -6 0 -11 5 -11 10 0 6 2 10 4 10 3 0 8 -4 11 -10z m-3918 -6 c-3 -3
-12 -4 -19 -1 -8 3 -5 6 6 6 11 1 17 -2 13 -5z m3596 -11 c-7 -3 -13 -11 -13
-19 0 -8 -5 -14 -11 -14 -5 0 -7 5 -4 10 3 6 -3 10 -15 10 -12 0 -19 4 -16 8
3 5 20 9 38 9 18 1 27 -1 21 -4z m-3373 -54 c0 -5 -4 -9 -10 -9 -5 0 -10 7
-10 16 0 8 5 12 10 9 6 -3 10 -10 10 -16z m3143 -16 c-5 -12 -7 -12 -14 -1
-13 20 -11 28 5 22 8 -3 12 -12 9 -21z m-3043 7 c0 -5 -5 -10 -11 -10 -5 0 -7
5 -4 10 3 6 8 10 11 10 2 0 4 -4 4 -10z m3246 -29 c-6 -9 -46 -22 -46 -15 0 3
10 9 23 14 29 11 29 11 23 1z m31 -13 c-3 -8 -6 -5 -6 6 -1 11 2 17 5 13 3 -3
4 -12 1 -19z m129 -3 c-33 -18 -36 -18 -36 -6 0 9 21 18 50 20 8 0 2 -6 -14
-14z m-3542 -17 c-3 -4 -9 -8 -15 -8 -5 0 -9 4 -9 8 0 5 7 9 15 9 8 0 12 -4 9
-9z m1896 -8 c0 -5 -2 -10 -4 -10 -3 0 -8 5 -11 10 -3 6 -1 10 4 10 6 0 11 -4
11 -10z m-1780 -4 c0 -3 -4 -8 -10 -11 -5 -3 -10 -1 -10 4 0 6 5 11 10 11 6 0
10 -2 10 -4z m-43 -28 c-3 -8 -6 -5 -6 6 -1 11 2 17 5 13 3 -3 4 -12 1 -19z
m74 5 c8 -9 9 -14 2 -10 -6 4 -14 1 -16 -5 -3 -7 -6 -3 -6 10 -1 26 2 27 20 5z
m2849 -3 c0 -5 -4 -10 -10 -10 -5 0 -10 5 -10 10 0 6 5 10 10 10 6 0 10 -4 10
-10z m88 -23 c21 -22 21 -23 2 -35 -31 -19 -60 3 -46 34 14 29 17 30 44 1z
m-2828 -31 c0 -11 -19 -15 -25 -6 -3 5 1 10 9 10 9 0 16 -2 16 -4z m-125 -16
c3 -5 -3 -10 -14 -10 -12 0 -21 5 -21 10 0 6 6 10 14 10 8 0 18 -4 21 -10z
m83 1 c11 -7 10 -10 -3 -15 -19 -7 -35 0 -35 15 0 11 20 12 38 0z m2775 -13
c13 -20 2 -48 -18 -48 -11 0 -15 10 -15 36 0 37 14 42 33 12z m-2427 -15 c-10
-10 -19 5 -10 18 6 11 8 11 12 0 2 -7 1 -15 -2 -18z m2211 1 c21 -21 23 -28
12 -36 -11 -8 -10 -9 3 -4 21 6 30 -6 22 -28 -10 -27 -33 -18 -43 17 -5 17
-10 26 -10 20 -1 -18 -18 -16 -25 3 -6 17 1 54 10 54 3 0 17 -12 31 -26z
m-2470 -46 c-3 -8 -6 -5 -6 6 -1 11 2 17 5 13 3 -3 4 -12 1 -19z m2592 -1 c11
-20 10 -30 -6 -62 -10 -21 -23 -40 -30 -42 -20 -7 -25 35 -9 69 9 17 16 37 16
45 0 21 15 15 29 -10z m-2554 -7 c3 -5 1 -10 -4 -10 -6 0 -11 5 -11 10 0 6 2
10 4 10 3 0 8 -4 11 -10z m-160 -9 c3 -5 1 -12 -5 -16 -5 -3 -10 1 -10 9 0 18
6 21 15 7z m255 -11 c0 -5 -2 -10 -4 -10 -3 0 -8 5 -11 10 -3 6 -1 10 4 10 6
0 11 -4 11 -10z m144 -55 c3 -8 15 -15 28 -15 15 0 19 -3 12 -10 -13 -13 -64
9 -64 28 0 17 17 15 24 -3z m1368 -17 c-7 -7 -12 -8 -12 -2 0 14 12 26 19 19
2 -3 -1 -11 -7 -17z m258 -7 c0 -5 -8 -8 -17 -7 -13 1 -18 -7 -18 -28 0 -22
-5 -30 -22 -32 -13 -2 -23 1 -23 6 0 6 5 10 10 10 6 0 10 8 10 18 0 10 5 23
12 30 14 14 48 16 48 3z m-1124 -29 c15 2 19 -3 17 -26 -1 -16 -8 -36 -16 -43
-11 -11 -18 -10 -42 11 -25 22 -27 26 -12 32 9 3 17 16 17 28 0 15 3 17 9 8 4
-8 17 -12 27 -10z m123 2 c12 -10 -15 -23 -37 -18 -34 8 -36 10 -27 23 5 9 51
6 64 -5z m137 -29 c-5 -20 -12 -26 -28 -23 -12 2 -23 9 -26 16 -3 11 0 12 16
3 17 -9 21 -7 26 15 4 15 10 24 13 21 3 -3 2 -18 -1 -32z m635 2 c-8 -8 -11
-7 -11 4 0 20 13 34 18 19 3 -7 -1 -17 -7 -23z m519 23 c0 -5 -4 -10 -10 -10
-5 0 -10 5 -10 10 0 6 5 10 10 10 6 0 10 -4 10 -10z m-50 -20 c-11 -20 -30
-28 -30 -12 0 11 22 32 32 32 5 0 4 -9 -2 -20z m-1270 -16 c0 -8 -4 -12 -10
-9 -5 3 -10 10 -10 16 0 5 5 9 10 9 6 0 10 -7 10 -16z m538 2 c-7 -8 -15 -12
-17 -11 -5 6 10 25 20 25 5 0 4 -6 -3 -14z m-570 -8 c-2 -6 -10 -14 -16 -16
-7 -2 -10 2 -6 12 7 18 28 22 22 4z m1262 2 c0 -5 -5 -10 -11 -10 -5 0 -7 5
-4 10 3 6 8 10 11 10 2 0 4 -4 4 -10z m92 1 c5 -13 48 -24 48 -12 0 6 7 8 15
5 8 -4 15 -11 15 -16 0 -6 -7 -8 -15 -5 -8 4 -17 2 -20 -3 -10 -16 -45 -11
-45 5 0 8 -4 15 -10 15 -5 0 -10 5 -10 10 0 12 17 13 22 1z m-1488 -10 c3 -4
-8 -8 -24 -7 -17 1 -30 4 -30 9 0 10 48 9 54 -2z m196 -1 c0 -5 -2 -10 -4 -10
-3 0 -8 5 -11 10 -3 6 -1 10 4 10 6 0 11 -4 11 -10z m485 -10 c3 -5 1 -10 -4
-10 -6 0 -11 5 -11 10 0 6 2 10 4 10 3 0 8 -4 11 -10z m-425 -10 c0 -5 -5 -10
-11 -10 -5 0 -7 5 -4 10 3 6 8 10 11 10 2 0 4 -4 4 -10z m1136 -17 c-10 -10
-19 5 -10 18 6 11 8 11 12 0 2 -7 1 -15 -2 -18z m-1186 8 c0 -15 -16 -22 -35
-15 -13 5 -14 8 -3 15 18 12 38 11 38 0z m-63 -32 c-4 -15 0 -23 14 -26 18 -5
28 -23 12 -23 -21 1 -53 37 -47 53 9 24 27 21 21 -4z m590 15 c-3 -3 -12 -4
-19 -1 -8 3 -5 6 6 6 11 1 17 -2 13 -5z m-417 -8 c0 -3 -4 -8 -10 -11 -5 -3
-10 -1 -10 4 0 6 5 11 10 11 6 0 10 -2 10 -4z m530 -20 c0 -3 -4 -8 -10 -11
-5 -3 -10 -1 -10 4 0 6 5 11 10 11 6 0 10 -2 10 -4z m110 -10 c0 -3 -4 -8 -10
-11 -5 -3 -10 -1 -10 4 0 6 5 11 10 11 6 0 10 -2 10 -4z m255 -16 c-10 -11
-22 -20 -27 -20 -10 0 24 38 36 39 5 1 1 -8 -9 -19z m-624 -13 c-10 -9 -11 -8
-5 6 3 10 9 15 12 12 3 -3 0 -11 -7 -18z m-278 -32 c-5 -13 -23 -22 -23 -11 0
15 14 35 21 31 4 -3 6 -12 2 -20z m-136 -10 c0 -8 -4 -12 -9 -9 -5 3 -6 10 -3
15 9 13 12 11 12 -6z m523 -56 c0 -5 -4 -9 -10 -9 -5 0 -10 7 -10 16 0 8 5 12
10 9 6 -3 10 -10 10 -16z m-220 -5 c0 -2 -7 -4 -15 -4 -8 0 -15 4 -15 10 0 5
7 7 15 4 8 -4 15 -8 15 -10z m-390 -29 c-7 -9 -15 -13 -17 -11 -7 7 7 26 19
26 6 0 6 -6 -2 -15z"/>
<path d="M7860 3020 c0 -5 5 -10 10 -10 6 0 10 5 10 10 0 6 -4 10 -10 10 -5 0
-10 -4 -10 -10z"/>
<path d="M6018 5633 c7 -3 16 -2 19 1 4 3 -2 6 -13 5 -11 0 -14 -3 -6 -6z"/>
<path d="M5958 5623 c7 -3 16 -2 19 1 4 3 -2 6 -13 5 -11 0 -14 -3 -6 -6z"/>
<path d="M6198 5623 c7 -3 16 -2 19 1 4 3 -2 6 -13 5 -11 0 -14 -3 -6 -6z"/>
<path d="M6325 5620 c-8 -13 5 -13 25 0 13 8 13 10 -2 10 -9 0 -20 -4 -23 -10z"/>
<path d="M6683 5623 c9 -2 23 -2 30 0 6 3 -1 5 -18 5 -16 0 -22 -2 -12 -5z"/>
<path d="M7457 5623 c-12 -11 -8 -23 8 -23 8 0 15 7 15 15 0 16 -12 20 -23 8z"/>
<path d="M7090 5609 c0 -5 5 -7 10 -4 6 3 10 8 10 11 0 2 -4 4 -10 4 -5 0 -10
-5 -10 -11z"/>
<path d="M6265 5600 c-3 -5 -1 -10 4 -10 6 0 11 5 11 10 0 6 -2 10 -4 10 -3 0
-8 -4 -11 -10z"/>
<path d="M5900 5590 c0 -5 7 -10 15 -10 8 0 15 5 15 10 0 6 -7 10 -15 10 -8 0
-15 -4 -15 -10z"/>
<path d="M7110 5580 c0 -5 5 -10 10 -10 6 0 10 5 10 10 0 6 -4 10 -10 10 -5 0
-10 -4 -10 -10z"/>
<path d="M6050 5571 c0 -12 28 -22 35 -12 3 5 -2 12 -11 15 -21 8 -24 8 -24
-3z"/>
<path d="M6760 5560 c0 -5 5 -10 10 -10 6 0 10 5 10 10 0 6 -4 10 -10 10 -5 0
-10 -4 -10 -10z"/>
<path d="M7325 5559 c-4 -5 3 -9 14 -9 10 0 21 -6 24 -12 2 -8 8 -9 13 -4 5 5
4 11 -4 13 -6 3 -10 8 -8 12 3 4 -4 7 -14 8 -11 1 -22 -2 -25 -8z"/>
<path d="M4445 5550 c-3 -5 -2 -10 4 -10 5 0 13 5 16 10 3 6 2 10 -4 10 -5 0
-13 -4 -16 -10z"/>
<path d="M5640 5547 c-32 -16 -35 -61 -5 -65 28 -4 80 41 72 62 -8 19 -33 20
-67 3z"/>
<path d="M5726 5552 c-2 -4 -1 -14 3 -21 4 -7 6 -23 3 -37 -4 -20 0 -24 20
-24 46 0 69 55 26 62 -13 2 -22 9 -20 16 2 13 -24 17 -32 4z"/>
<path d="M5850 5550 c0 -5 5 -10 10 -10 6 0 10 5 10 10 0 6 -4 10 -10 10 -5 0
-10 -4 -10 -10z"/>
<path d="M5880 5551 c0 -5 5 -13 10 -16 6 -3 10 -2 10 4 0 5 -4 13 -10 16 -5
3 -10 2 -10 -4z"/>
<path d="M6910 5550 c-8 -5 -12 -11 -9 -14 2 -3 11 -1 19 4 8 5 12 11 9 14 -2
3 -11 1 -19 -4z"/>
<path d="M7495 5550 c-9 -15 4 -30 26 -30 23 0 26 25 3 34 -21 8 -22 8 -29 -4z"/>
<path d="M4926 5534 c-4 -11 0 -15 16 -12 12 2 23 9 26 16 6 18 -35 15 -42 -4z"/>
<path d="M6706 5535 c-3 -8 -16 -15 -30 -15 -42 0 -56 -10 -56 -41 0 -16 -5
-29 -11 -29 -6 0 -8 7 -5 16 3 8 2 12 -4 9 -25 -15 -8 -32 31 -32 35 0 43 4
53 27 6 16 17 25 25 22 9 -3 11 0 6 7 -4 7 1 21 11 32 15 16 15 19 2 19 -9 0
-18 -7 -22 -15z"/>
<path d="M7854 5535 c-16 -12 -17 -14 -3 -15 9 0 19 7 23 15 7 19 5 19 -20 0z"/>
<path d="M7690 5530 c0 -5 5 -10 10 -10 6 0 10 5 10 10 0 6 -4 10 -10 10 -5 0
-10 -4 -10 -10z"/>
<path d="M5517 5480 c6 -23 16 -25 32 -6 9 11 8 15 -5 20 -26 10 -32 7 -27
-14z"/>
<path d="M5860 5485 c7 -9 15 -13 17 -11 7 7 -7 26 -19 26 -6 0 -6 -6 2 -15z"/>
<path d="M7065 5479 c-9 -26 5 -49 30 -49 27 0 45 19 43 45 -2 16 -9 20 -35
20 -22 0 -35 -6 -38 -16z"/>
<path d="M7450 5490 c0 -5 5 -10 10 -10 6 0 10 5 10 10 0 6 -4 10 -10 10 -5 0
-10 -4 -10 -10z"/>
<path d="M5416 5475 c4 -8 8 -15 10 -15 2 0 4 7 4 15 0 8 -4 15 -10 15 -5 0
-7 -7 -4 -15z"/>
<path d="M4195 5470 c-3 -5 -1 -10 4 -10 6 0 11 5 11 10 0 6 -2 10 -4 10 -3 0
-8 -4 -11 -10z"/>
<path d="M7400 5465 c0 -8 9 -15 20 -15 24 0 27 15 4 24 -22 9 -24 8 -24 -9z"/>
<path d="M4250 5459 c0 -5 5 -7 10 -4 6 3 10 8 10 11 0 2 -4 4 -10 4 -5 0 -10
-5 -10 -11z"/>
<path d="M5660 5460 c0 -5 5 -10 10 -10 6 0 10 5 10 10 0 6 -4 10 -10 10 -5 0
-10 -4 -10 -10z"/>
<path d="M8145 5450 c3 -5 10 -10 16 -10 5 0 9 5 9 10 0 6 -7 10 -16 10 -8 0
-12 -4 -9 -10z"/>
<path d="M6925 5428 c4 -13 12 -27 18 -33 7 -7 8 -4 3 9 -5 15 -2 17 19 12 19
-5 23 -3 19 9 -3 8 -10 12 -15 9 -5 -3 -9 0 -9 5 0 6 -9 11 -21 11 -16 0 -19
-4 -14 -22z"/>
<path d="M8053 5438 c-25 -12 -38 -48 -17 -48 8 0 11 6 7 16 -5 14 -3 14 15 3
17 -11 25 -11 47 1 14 7 24 18 22 24 -5 15 -47 17 -74 4z"/>
<path d="M4128 5433 c-14 -3 -15 -7 -5 -18 14 -15 52 -1 42 16 -6 9 -9 10 -37
2z"/>
<path d="M6743 5433 c-23 -5 -38 -29 -22 -38 17 -11 49 6 49 26 0 10 -1 18 -2
18 -2 -1 -13 -4 -25 -6z"/>
<path d="M7040 5431 c0 -6 4 -13 10 -16 6 -3 7 1 4 9 -7 18 -14 21 -14 7z"/>
<path d="M4986 5411 c-10 -11 -16 -26 -13 -33 4 -9 6 -7 6 4 1 11 6 15 16 12
10 -4 15 0 15 15 0 26 -2 26 -24 2z"/>
<path d="M6564 5406 c4 -15 1 -26 -7 -29 -6 -3 -3 -6 9 -6 17 -1 20 4 16 29
-2 17 -9 30 -14 30 -6 0 -7 -11 -4 -24z"/>
<path d="M6875 5411 c-3 -5 2 -11 10 -15 8 -3 17 -1 20 3 3 5 -2 11 -10 15 -8
3 -17 1 -20 -3z"/>
<path d="M3980 5390 c-14 -26 11 -28 31 -2 13 16 13 16 -5 2 -18 -14 -19 -13
-13 3 9 23 0 22 -13 -3z"/>
<path d="M4033 5395 c-3 -9 -3 -18 -1 -21 9 -9 35 7 35 21 0 20 -26 19 -34 0z"/>
<path d="M4933 5380 c1 -11 7 -20 14 -20 7 0 13 -7 13 -15 0 -8 7 -15 15 -15
20 0 19 5 -9 33 -14 14 -22 28 -19 31 4 3 1 6 -5 6 -6 0 -10 -9 -9 -20z"/>
<path d="M6760 5385 c-11 -13 -11 -55 0 -46 3 2 15 -1 27 -7 17 -10 25 -9 36
3 18 18 11 56 -9 48 -8 -3 -14 0 -14 6 0 16 -25 14 -40 -4z"/>
<path d="M7686 5391 c-4 -7 -5 -15 -2 -18 9 -9 19 4 14 18 -4 11 -6 11 -12 0z"/>
<path d="M4215 5380 c-3 -5 -1 -10 4 -10 6 0 11 5 11 10 0 6 -2 10 -4 10 -3 0
-8 -4 -11 -10z"/>
<path d="M4250 5380 c19 -13 30 -13 30 0 0 6 -10 10 -22 10 -19 0 -20 -2 -8
-10z"/>
<path d="M3906 5371 c-4 -6 -13 -8 -21 -4 -8 3 -15 0 -15 -6 0 -6 5 -11 10
-11 16 0 12 -30 -5 -36 -22 -9 -18 -24 5 -24 11 0 20 6 20 14 0 10 7 13 20 11
11 -2 18 0 15 6 -4 5 1 9 10 9 11 0 15 -5 12 -14 -3 -8 1 -17 9 -20 17 -7 17
-7 -2 39 -8 20 -18 34 -21 31 -3 -3 -12 -1 -19 5 -8 6 -14 7 -18 0z"/>
<path d="M4173 5360 c-11 -16 -10 -18 2 -14 8 4 15 12 15 20 0 19 -3 18 -17
-6z"/>
<path d="M6965 5360 c-3 -5 -1 -10 4 -10 6 0 11 5 11 10 0 6 -2 10 -4 10 -3 0
-8 -4 -11 -10z"/>
<path d="M3970 5350 c0 -5 5 -10 10 -10 6 0 10 5 10 10 0 6 -4 10 -10 10 -5 0
-10 -4 -10 -10z"/>
<path d="M4030 5350 c0 -5 5 -10 11 -10 5 0 7 5 4 10 -3 6 -8 10 -11 10 -2 0
-4 -4 -4 -10z"/>
<path d="M7026 5345 c24 -18 34 -19 34 -2 0 7 -12 14 -27 15 -26 2 -26 1 -7
-13z"/>
<path d="M3792 5343 c4 -13 -24 -73 -34 -73 -6 0 -7 -11 -4 -24 4 -15 1 -26
-7 -29 -9 -4 -9 -7 1 -18 10 -11 12 -10 13 7 0 18 1 17 16 -3 8 -13 21 -23 28
-23 18 0 24 32 10 50 -15 19 -27 78 -17 84 9 5 32 -20 25 -28 -4 -3 -1 -6 5
-6 14 0 23 15 26 44 2 19 -2 22 -31 24 -18 2 -32 -1 -31 -5z m-6 -120 c-10
-10 -19 5 -10 18 6 11 8 11 12 0 2 -7 1 -15 -2 -18z"/>
<path d="M4107 5333 c-4 -3 -7 -11 -7 -17 0 -6 5 -5 12 2 6 6 9 14 7 17 -3 3
-9 2 -12 -2z"/>
<path d="M8100 5330 c0 -5 5 -10 10 -10 6 0 10 5 10 10 0 6 -4 10 -10 10 -5 0
-10 -4 -10 -10z"/>
<path d="M7010 5316 c0 -8 7 -16 15 -20 9 -3 15 0 15 8 0 8 -7 16 -15 20 -9 3
-15 0 -15 -8z"/>
<path d="M8055 5320 c-3 -5 -1 -10 4 -10 6 0 11 5 11 10 0 6 -2 10 -4 10 -3 0
-8 -4 -11 -10z"/>
<path d="M4040 5305 c-10 -12 -10 -15 4 -15 9 0 16 7 16 15 0 8 -2 15 -4 15
-2 0 -9 -7 -16 -15z"/>
<path d="M8220 5310 c0 -5 5 -10 11 -10 5 0 7 5 4 10 -3 6 -8 10 -11 10 -2 0
-4 -4 -4 -10z"/>
<path d="M3655 5299 c-10 -15 3 -25 16 -12 7 7 7 13 1 17 -6 3 -14 1 -17 -5z"/>
<path d="M4150 5295 c0 -9 6 -12 15 -9 8 4 12 10 9 15 -8 14 -24 10 -24 -6z"/>
<path d="M7346 5301 c-4 -7 -5 -15 -2 -18 9 -9 19 4 14 18 -4 11 -6 11 -12 0z"/>
<path d="M8000 5299 c0 -5 -4 -7 -10 -4 -5 3 -10 -1 -10 -9 0 -9 6 -13 14 -10
17 7 30 34 16 34 -6 0 -10 -5 -10 -11z"/>
<path d="M6541 5283 c-1 -21 -6 -25 -27 -22 -9 1 -24 -24 -19 -31 2 -4 18 -5
35 -2 31 4 36 19 20 57 -8 19 -9 19 -9 -2z"/>
<path d="M7062 5278 c2 -15 11 -24 26 -26 27 -4 28 9 4 31 -25 23 -34 21 -30
-5z"/>
<path d="M3940 5284 c0 -15 27 -50 34 -43 4 3 -2 17 -13 30 -11 13 -20 19 -21
13z"/>
<path d="M4580 5276 c0 -9 7 -16 16 -16 17 0 14 22 -4 28 -7 2 -12 -3 -12 -12z"/>
<path d="M4752 5271 c-11 -7 -10 -10 3 -15 23 -9 25 -8 25 9 0 17 -9 19 -28 6z"/>
<path d="M8115 5270 c-3 -5 -1 -10 4 -10 6 0 11 5 11 10 0 6 -2 10 -4 10 -3 0
-8 -4 -11 -10z"/>
<path d="M3616 5255 c-3 -9 0 -15 9 -15 16 0 20 16 6 24 -5 3 -11 -1 -15 -9z"/>
<path d="M3822 5257 c-8 -10 -6 -16 9 -25 11 -7 19 -8 19 -2 0 5 -5 10 -11 10
-6 0 -9 7 -5 15 7 18 2 19 -12 2z"/>
<path d="M4680 5255 c0 -8 7 -15 16 -15 14 0 14 3 4 15 -7 8 -14 15 -16 15 -2
0 -4 -7 -4 -15z"/>
<path d="M6610 5260 c0 -5 7 -10 15 -10 8 0 15 5 15 10 0 6 -7 10 -15 10 -8 0
-15 -4 -15 -10z"/>
<path d="M8024 5244 c3 -9 6 -18 6 -20 0 -2 8 -4 18 -4 15 1 15 2 -3 12 -19
11 -19 11 0 19 18 7 18 8 -4 8 -17 1 -22 -3 -17 -15z"/>
<path d="M8075 5250 c-3 -5 -1 -10 5 -10 6 0 8 -4 5 -10 -11 -17 12 -11 26 8
7 9 9 14 5 10 -5 -4 -15 -3 -22 3 -8 7 -14 7 -19 -1z"/>
<path d="M6290 5240 c0 -5 5 -10 11 -10 5 0 7 5 4 10 -3 6 -8 10 -11 10 -2 0
-4 -4 -4 -10z"/>
<path d="M6405 5241 c-3 -5 3 -12 12 -14 14 -4 13 -5 -4 -6 -25 -1 -33 -38 -9
-38 8 0 12 6 10 12 -3 6 4 16 16 21 20 9 20 9 1 21 -11 7 -23 9 -26 4z"/>
<path d="M6690 5226 c0 -14 4 -26 8 -26 11 0 12 39 1 45 -5 4 -9 -5 -9 -19z"/>
<path d="M8220 5240 c0 -5 7 -10 15 -10 8 0 15 5 15 10 0 6 -7 10 -15 10 -8 0
-15 -4 -15 -10z"/>
<path d="M4335 5230 c3 -5 8 -10 11 -10 2 0 4 5 4 10 0 6 -5 10 -11 10 -5 0
-7 -4 -4 -10z"/>
<path d="M6464 5222 c5 -14 3 -29 -5 -38 -10 -12 -9 -13 4 -9 22 9 28 42 10
57 -14 11 -15 10 -9 -10z"/>
<path d="M4480 5215 c0 -15 26 -32 36 -23 2 3 2 13 -2 22 -8 20 -34 21 -34 1z"/>
<path d="M3430 5211 c0 -5 5 -13 10 -16 6 -3 10 -2 10 4 0 5 -4 13 -10 16 -5
3 -10 2 -10 -4z"/>
<path d="M4085 5210 c-3 -5 -1 -10 4 -10 6 0 11 5 11 10 0 6 -2 10 -4 10 -3 0
-8 -4 -11 -10z"/>
<path d="M6166 5197 c3 -10 9 -15 12 -12 3 3 0 11 -7 18 -10 9 -11 8 -5 -6z"/>
<path d="M3471 5184 c0 -11 3 -14 6 -6 3 7 2 16 -1 19 -3 4 -6 -2 -5 -13z"/>
<path d="M4015 5190 c-3 -5 1 -10 9 -10 8 0 18 5 21 10 3 6 -1 10 -9 10 -8 0
-18 -4 -21 -10z"/>
<path d="M6621 5191 c-16 -10 -6 -31 14 -31 7 0 16 7 19 16 3 8 10 12 16 9 5
-3 10 -1 10 4 0 13 -39 14 -59 2z"/>
<path d="M8060 5186 c14 -8 27 -12 29 -10 6 6 -1 11 -29 18 l-25 7 25 -15z"/>
<path d="M3153 5173 c9 -9 19 -14 23 -11 10 10 -6 28 -24 28 -15 0 -15 -1 1
-17z"/>
<path d="M7290 5180 c0 -5 5 -10 10 -10 6 0 10 5 10 10 0 6 -4 10 -10 10 -5 0
-10 -4 -10 -10z"/>
<path d="M2730 5170 c0 -5 5 -10 10 -10 6 0 10 5 10 10 0 6 -4 10 -10 10 -5 0
-10 -4 -10 -10z"/>
<path d="M3746 5164 c-9 -24 -2 -26 12 -4 7 11 8 20 3 20 -5 0 -12 -7 -15 -16z"/>
<path d="M4511 5171 c-8 -6 -9 -11 -3 -15 6 -3 14 -1 17 5 9 14 2 20 -14 10z"/>
<path d="M6570 5170 c-11 -7 -11 -10 -2 -10 7 0 12 -6 10 -12 -2 -7 2 -14 7
-14 6 -1 9 2 8 7 -2 5 1 9 7 9 5 0 7 7 4 15 -7 17 -13 18 -34 5z"/>
<path d="M8210 5159 c0 -5 5 -7 10 -4 6 3 10 8 10 11 0 2 -4 4 -10 4 -5 0 -10
-5 -10 -11z"/>
<path d="M3427 5154 c-11 -11 3 -24 18 -18 8 4 12 10 9 15 -6 11 -18 12 -27 3z"/>
<path d="M4085 5151 c-6 -11 9 -23 19 -14 9 9 7 23 -3 23 -6 0 -12 -4 -16 -9z"/>
<path d="M3380 5140 c13 -8 11 -11 -7 -16 -26 -7 -28 -14 -10 -33 7 -9 8 -11
0 -7 -6 3 -20 -8 -32 -26 -17 -28 -18 -34 -6 -41 8 -4 15 -18 15 -30 0 -21 -1
-21 -25 6 -13 16 -29 27 -36 25 -8 -3 -6 -9 5 -21 10 -9 13 -17 7 -17 -6 0
-11 -9 -11 -20 0 -11 -7 -20 -15 -20 -8 0 -15 5 -15 10 0 6 5 10 10 10 6 0 9
10 9 23 -1 16 -2 18 -6 5 -2 -10 -9 -18 -15 -18 -5 0 -8 7 -4 15 3 8 2 15 -3
15 -5 0 -14 -7 -21 -15 -7 -8 -19 -15 -27 -15 -18 0 -63 -30 -63 -42 0 -5 5
-6 12 -2 7 5 8 3 3 -6 -6 -10 -11 -9 -22 5 -8 12 -13 14 -13 6 0 -8 -8 -11
-20 -8 -11 3 -20 1 -20 -5 0 -5 -10 -6 -21 -3 -16 5 -19 4 -14 -5 5 -8 22 -10
50 -7 26 4 46 2 53 -5 9 -9 12 -9 12 1 0 11 3 11 17 0 13 -11 17 -11 20 -1 3
6 14 12 25 12 28 0 17 10 -18 16 -32 6 -40 11 -31 20 4 4 13 2 20 -4 8 -7 16
-10 19 -7 9 10 68 -17 68 -31 0 -23 18 -16 32 14 8 16 23 28 36 30 20 3 23 8
18 28 l-7 25 22 -22 c19 -19 24 -20 33 -8 6 8 23 20 39 26 26 12 37 33 17 33
-5 0 -10 -4 -10 -10 0 -5 -4 -10 -10 -10 -5 0 -10 15 -11 33 0 27 -2 29 -9 12
-5 -12 -9 -14 -9 -6 -1 8 -3 12 -6 9 -3 -3 -1 -17 4 -32 6 -14 7 -26 3 -27 -4
0 -15 -2 -24 -4 -15 -3 -16 0 -7 16 11 21 3 43 -12 34 -5 -3 -6 0 -4 7 3 8 13
14 23 14 9 1 24 4 34 8 11 5 18 1 23 -13 3 -12 13 -21 21 -21 8 0 14 -6 14
-12 1 -8 6 -6 14 5 7 9 20 17 28 17 8 0 15 7 15 15 0 8 -5 15 -11 15 -6 0 -4
5 4 10 11 7 11 10 2 10 -7 0 -10 5 -7 10 3 6 1 10 -4 10 -11 0 -15 -12 -12
-42 3 -21 -15 -24 -22 -5 -4 9 -8 9 -15 -2 -6 -9 -12 -10 -16 -2 -4 6 2 16 14
23 11 7 20 22 20 33 0 12 -3 16 -8 9 -4 -6 -24 -14 -44 -17 -33 -5 -38 -3 -38
14 0 11 -7 19 -17 19 -15 0 -16 -2 -3 -10z m30 -50 c0 -5 -5 -10 -11 -10 -5 0
-7 5 -4 10 3 6 8 10 11 10 2 0 4 -4 4 -10z"/>
<path d="M3610 5114 c0 -8 5 -12 10 -9 6 4 8 11 5 16 -9 14 -15 11 -15 -7z"/>
<path d="M3230 5090 c0 -5 5 -10 10 -10 6 0 10 5 10 10 0 6 -4 10 -10 10 -5 0
-10 -4 -10 -10z"/>
<path d="M3266 5083 c-6 -14 -5 -15 5 -6 7 7 10 15 7 18 -3 3 -9 -2 -12 -12z"/>
<path d="M6355 5090 c-7 -12 19 -24 37 -17 7 3 3 6 -10 6 -13 1 -20 5 -17 11
3 6 4 10 1 10 -3 0 -8 -5 -11 -10z"/>
<path d="M3915 5080 c-3 -6 1 -7 9 -4 18 7 21 14 7 14 -6 0 -13 -4 -16 -10z"/>
<path d="M3170 5070 c0 -5 5 -10 10 -10 6 0 10 5 10 10 0 6 -4 10 -10 10 -5 0
-10 -4 -10 -10z"/>
<path d="M4010 5055 c7 -8 19 -15 27 -15 13 0 13 3 3 15 -7 8 -19 15 -27 15
-13 0 -13 -3 -3 -15z"/>
<path d="M3184 5025 c21 -16 32 -13 21 4 -3 6 -14 11 -23 11 -15 -1 -15 -2 2
-15z"/>
<path d="M3516 5025 c4 -9 0 -15 -10 -15 -9 0 -16 -4 -16 -10 0 -14 11 -12 34
5 10 7 15 18 11 24 -10 17 -25 13 -19 -4z"/>
<path d="M2700 4996 c0 -9 5 -16 10 -16 6 0 10 4 10 9 0 6 -4 13 -10 16 -5 3
-10 -1 -10 -9z"/>
<path d="M3000 4886 c0 -9 5 -16 10 -16 6 0 10 4 10 9 0 6 -4 13 -10 16 -5 3
-10 -1 -10 -9z"/>
<path d="M3083 4883 c9 -2 23 -2 30 0 6 3 -1 5 -18 5 -16 0 -22 -2 -12 -5z"/>
<path d="M2650 4860 c-12 -7 -12 -12 -2 -22 9 -9 15 -9 24 0 16 16 -2 34 -22
22z"/>
<path d="M2980 4849 c0 -5 5 -7 10 -4 6 3 10 8 10 11 0 2 -4 4 -10 4 -5 0 -10
-5 -10 -11z"/>
<path d="M3023 4753 c-15 -5 -18 -33 -4 -33 8 0 25 30 19 35 -2 1 -9 0 -15 -2z"/>
<path d="M2991 4734 c0 -11 3 -14 6 -6 3 7 2 16 -1 19 -3 4 -6 -2 -5 -13z"/>
<path d="M2880 4668 c0 -8 9 -14 21 -15 12 -1 19 3 16 10 -5 17 -37 21 -37 5z"/>
<path d="M3105 4649 c-4 -6 1 -17 11 -25 18 -15 18 -15 -3 -10 -13 3 -32 9
-43 12 -27 9 -40 -41 -16 -64 14 -14 20 -15 37 -4 11 7 25 10 31 6 6 -4 8 -3
5 3 -4 6 2 18 13 28 15 14 23 15 33 6 23 -18 39 9 21 33 -8 11 -14 16 -14 10
0 -5 -11 -9 -25 -9 -14 0 -25 6 -25 13 0 15 -16 16 -25 1z m-15 -54 c0 -8 -7
-15 -15 -15 -26 0 -18 20 13 29 1 1 2 -6 2 -14z"/>
<path d="M2941 4640 c-1 -24 -55 -44 -81 -30 -12 6 -24 9 -27 6 -8 -7 23 -36
39 -36 16 0 77 -40 63 -40 -9 -1 64 -30 75 -30 3 0 -1 4 -9 9 -17 11 -4 34 15
27 8 -3 14 -1 14 4 0 11 -36 21 -65 17 -12 -1 -19 3 -17 11 1 6 -3 12 -8 12
-7 0 -7 7 0 21 6 11 9 25 6 32 -3 8 -5 6 -5 -3z"/>
<path d="M8616 4585 c-3 -8 -1 -15 4 -15 6 0 10 7 10 15 0 8 -2 15 -4 15 -2 0
-6 -7 -10 -15z"/>
<path d="M2518 4583 c7 -3 16 -2 19 1 4 3 -2 6 -13 5 -11 0 -14 -3 -6 -6z"/>
<path d="M2445 4560 c-4 -6 -3 -16 3 -22 6 -6 12 -6 17 2 4 6 3 16 -3 22 -6 6
-12 6 -17 -2z"/>
<path d="M2828 4563 c-18 -5 -23 -15 -12 -26 7 -7 44 14 44 25 0 8 -4 9 -32 1z"/>
<path d="M2775 4550 c-3 -6 1 -7 9 -4 18 7 21 14 7 14 -6 0 -13 -4 -16 -10z"/>
<path d="M2760 4519 c0 -5 5 -7 10 -4 6 3 10 8 10 11 0 2 -4 4 -10 4 -5 0 -10
-5 -10 -11z"/>
<path d="M2650 4510 c0 -5 12 -10 26 -10 14 0 23 4 19 10 -3 6 -15 10 -26 10
-10 0 -19 -4 -19 -10z"/>
<path d="M8710 4499 c0 -5 5 -7 10 -4 6 3 10 8 10 11 0 2 -4 4 -10 4 -5 0 -10
-5 -10 -11z"/>
<path d="M8445 4490 c3 -5 8 -10 11 -10 2 0 4 5 4 10 0 6 -5 10 -11 10 -5 0
-7 -4 -4 -10z"/>
<path d="M2798 4453 c7 -3 16 -2 19 1 4 3 -2 6 -13 5 -11 0 -14 -3 -6 -6z"/>
<path d="M2427 4389 c-3 -13 -1 -19 6 -16 15 5 22 37 9 37 -5 0 -12 -9 -15
-21z"/>
<path d="M2543 4324 c-6 -16 11 -34 34 -34 12 0 12 17 0 38 -11 17 -26 15 -34
-4z"/>
<path d="M2662 4328 c-7 -7 -12 -18 -12 -26 0 -12 -2 -12 -17 -1 -14 12 -16
12 -11 -1 3 -9 15 -14 28 -12 12 1 29 -3 37 -9 10 -9 17 -9 25 -1 8 8 7 13 -6
18 -10 4 -21 15 -25 26 -5 14 -9 16 -19 6z"/>
<path d="M2757 4323 c-12 -12 -7 -22 8 -17 8 4 15 10 15 15 0 11 -14 12 -23 2z"/>
<path d="M2190 4298 c0 -7 4 -19 9 -26 6 -10 10 -10 20 2 7 8 10 20 6 26 -9
14 -35 13 -35 -2z"/>
<path d="M2250 4280 c0 -6 7 -10 15 -10 8 0 15 2 15 4 0 2 -7 6 -15 10 -8 3
-15 1 -15 -4z"/>
<path d="M2770 4279 c0 -5 5 -7 10 -4 6 3 10 8 10 11 0 2 -4 4 -10 4 -5 0 -10
-5 -10 -11z"/>
<path d="M2340 4240 c0 -6 7 -10 15 -10 8 0 15 2 15 4 0 2 -7 6 -15 10 -8 3
-15 1 -15 -4z"/>
<path d="M8858 4243 c7 -3 16 -2 19 1 4 3 -2 6 -13 5 -11 0 -14 -3 -6 -6z"/>
<path d="M2515 4220 c-3 -5 -1 -10 4 -10 6 0 11 5 11 10 0 6 -2 10 -4 10 -3 0
-8 -4 -11 -10z"/>
<path d="M2256 4211 c-17 -7 -17 -8 -2 -24 9 -9 23 -20 30 -24 7 -5 19 -18 27
-30 15 -22 15 -22 57 -3 23 11 42 23 42 28 0 12 -65 33 -83 26 -17 -6 -51 19
-40 30 8 8 -7 7 -31 -3z"/>
<path d="M8844 4205 c-25 -19 -4 -19 32 0 24 12 26 15 8 15 -11 0 -29 -7 -40
-15z"/>
<path d="M2630 4200 c-8 -5 -12 -11 -9 -14 3 -3 14 1 25 9 21 16 8 20 -16 5z"/>
<path d="M2588 4173 c7 -3 16 -2 19 1 4 3 -2 6 -13 5 -11 0 -14 -3 -6 -6z"/>
<path d="M2096 4068 c-9 -36 -8 -40 22 -36 21 2 28 9 30 31 3 23 0 27 -21 27
-17 0 -27 -7 -31 -22z"/>
<path d="M1978 3983 c7 -3 16 -2 19 1 4 3 -2 6 -13 5 -11 0 -14 -3 -6 -6z"/>
<path d="M2300 3953 c0 -13 -8 -19 -25 -21 -14 -1 -48 -13 -75 -27 -28 -14
-50 -21 -50 -15 0 5 -7 7 -16 3 -11 -4 -12 -9 -5 -16 7 -7 18 -7 36 1 35 16
55 15 55 -3 0 -9 9 -15 25 -15 16 0 25 6 25 15 0 8 -9 15 -19 15 -11 0 -23 5
-27 12 -5 8 -2 9 9 5 9 -3 29 0 44 8 15 8 38 15 51 15 13 0 30 7 38 15 14 13
13 15 -3 15 -10 0 -28 3 -40 6 -18 5 -23 2 -23 -13z"/>
<path d="M8632 3878 c5 -15 28 -18 29 -3 0 6 -7 12 -17 13 -10 3 -15 -1 -12
-10z"/>
<path d="M2195 3860 c3 -5 8 -10 11 -10 2 0 4 5 4 10 0 6 -5 10 -11 10 -5 0
-7 -4 -4 -10z"/>
<path d="M8745 3860 c-3 -5 1 -10 9 -10 9 0 16 5 16 10 0 6 -4 10 -9 10 -6 0
-13 -4 -16 -10z"/>
<path d="M8415 3790 c-3 -5 -1 -10 4 -10 6 0 11 5 11 10 0 6 -2 10 -4 10 -3 0
-8 -4 -11 -10z"/>
<path d="M1853 3783 c9 -2 25 -2 35 0 9 3 1 5 -18 5 -19 0 -27 -2 -17 -5z"/>
<path d="M2086 3781 c-8 -12 3 -41 15 -41 12 0 12 37 0 45 -5 3 -12 1 -15 -4z"/>
<path d="M2133 3763 c-15 -5 -17 -23 -4 -23 5 0 11 7 15 15 3 8 4 15 3 14 -1
0 -8 -3 -14 -6z"/>
<path d="M2025 3730 c-3 -6 1 -13 10 -16 19 -8 30 0 20 15 -8 14 -22 14 -30 1z"/>
<path d="M8620 3730 c0 -5 6 -10 14 -10 8 0 18 5 21 10 3 6 -3 10 -14 10 -12
0 -21 -4 -21 -10z"/>
<path d="M1996 3683 c-11 -11 -6 -23 9 -23 8 0 15 4 15 9 0 13 -16 22 -24 14z"/>
<path d="M8445 3640 c-3 -5 3 -10 14 -10 11 0 23 5 26 10 3 6 -3 10 -14 10
-11 0 -23 -4 -26 -10z"/>
<path d="M2130 3631 c0 -17 18 -21 24 -6 3 9 0 15 -9 15 -8 0 -15 -4 -15 -9z"/>
<path d="M8480 3620 c0 -5 6 -10 14 -10 8 0 18 5 21 10 3 6 -3 10 -14 10 -12
0 -21 -4 -21 -10z"/>
<path d="M8335 3610 c3 -5 8 -10 11 -10 2 0 4 5 4 10 0 6 -5 10 -11 10 -5 0
-7 -4 -4 -10z"/>
<path d="M8187 3573 c-12 -12 -7 -22 8 -17 8 4 15 10 15 15 0 11 -14 12 -23 2z"/>
<path d="M8409 3564 c-18 -22 -3 -44 30 -44 34 0 48 15 32 34 -17 21 -49 26
-62 10z"/>
<path d="M8510 3545 c-11 -13 -8 -15 16 -15 39 0 62 15 39 24 -26 10 -42 7
-55 -9z"/>
<path d="M1950 3523 c0 -26 14 -43 27 -35 16 10 5 52 -13 52 -8 0 -14 -8 -14
-17z"/>
<path d="M2012 3500 c0 -14 2 -19 5 -12 2 6 2 18 0 25 -3 6 -5 1 -5 -13z"/>
<path d="M2053 3510 c-13 -5 -23 -16 -23 -25 0 -20 4 -19 36 10 28 26 25 30
-13 15z"/>
<path d="M8322 3471 c4 -13 18 -16 19 -4 0 4 -5 9 -11 12 -7 2 -11 -2 -8 -8z"/>
<path d="M8280 3460 c0 -5 5 -10 11 -10 5 0 7 5 4 10 -3 6 -8 10 -11 10 -2 0
-4 -4 -4 -10z"/>
<path d="M8445 3460 c-3 -5 -1 -10 4 -10 6 0 11 5 11 10 0 6 -2 10 -4 10 -3 0
-8 -4 -11 -10z"/>
<path d="M2072 3448 c5 -13 38 -20 38 -8 0 4 -7 11 -16 14 -22 9 -26 8 -22 -6z"/>
<path d="M1910 3436 c0 -2 7 -7 16 -10 8 -3 12 -2 9 4 -6 10 -25 14 -25 6z"/>
<path d="M8440 3420 c0 -5 7 -10 15 -10 8 0 15 5 15 10 0 6 -7 10 -15 10 -8 0
-15 -4 -15 -10z"/>
<path d="M8680 3410 c0 -5 4 -10 9 -10 6 0 13 5 16 10 3 6 -1 10 -9 10 -9 0
-16 -4 -16 -10z"/>
<path d="M2075 3400 c-3 -6 1 -7 9 -4 18 7 21 14 7 14 -6 0 -13 -4 -16 -10z"/>
<path d="M2218 3373 c-21 -5 -24 -23 -4 -23 8 0 16 7 20 15 3 8 4 14 3 14 -1
-1 -10 -3 -19 -6z"/>
<path d="M1752 3318 c5 -15 28 -18 29 -3 0 6 -7 12 -17 13 -10 3 -15 -1 -12
-10z"/>
<path d="M2124 3314 c-19 -17 -42 -74 -30 -74 3 0 16 11 30 25 26 26 46 32 46
15 0 -5 4 -10 10 -10 5 0 7 7 4 15 -4 8 -12 15 -19 15 -8 0 -15 7 -17 16 -3
15 -5 14 -24 -2z"/>
<path d="M8366 3322 c-3 -5 1 -9 9 -9 8 0 15 4 15 9 0 4 -4 8 -9 8 -6 0 -12
-4 -15 -8z"/>
<path d="M2251 3304 c0 -11 3 -14 6 -6 3 7 2 16 -1 19 -3 4 -6 -2 -5 -13z"/>
<path d="M2020 3290 c0 -5 7 -7 15 -4 8 4 15 8 15 10 0 2 -7 4 -15 4 -8 0 -15
-4 -15 -10z"/>
<path d="M2280 3260 c0 -5 5 -10 11 -10 5 0 7 5 4 10 -3 6 -8 10 -11 10 -2 0
-4 -4 -4 -10z"/>
<path d="M2215 3220 c3 -5 8 -10 11 -10 2 0 4 5 4 10 0 6 -5 10 -11 10 -5 0
-7 -4 -4 -10z"/>
<path d="M7817 3219 c7 -7 15 -10 18 -7 3 3 -2 9 -12 12 -14 6 -15 5 -6 -5z"/>
<path d="M8168 3223 c7 -3 16 -2 19 1 4 3 -2 6 -13 5 -11 0 -14 -3 -6 -6z"/>
<path d="M7800 3185 c0 -8 2 -15 4 -15 2 0 6 7 10 15 3 8 1 15 -4 15 -6 0 -10
-7 -10 -15z"/>
<path d="M1980 3170 c0 -5 5 -10 10 -10 6 0 10 5 10 10 0 6 -4 10 -10 10 -5 0
-10 -4 -10 -10z"/>
<path d="M8045 3149 c-16 -7 -14 -8 10 -4 26 5 31 2 32 -15 1 -11 -2 -18 -8
-15 -15 10 -10 -2 8 -16 9 -8 14 -9 10 -2 -4 6 -1 13 5 16 10 3 10 9 2 23 -13
22 -31 26 -59 13z"/>
<path d="M2025 3140 c-3 -5 -1 -10 4 -10 6 0 11 5 11 10 0 6 -2 10 -4 10 -3 0
-8 -4 -11 -10z"/>
<path d="M7787 3143 c-4 -3 -7 -16 -6 -27 0 -19 1 -19 10 3 10 24 8 36 -4 24z"/>
<path d="M8053 3111 c1 -14 9 -26 17 -28 10 -3 11 -2 4 4 -7 4 -14 17 -17 28
-5 16 -5 15 -4 -4z"/>
<path d="M7626 3093 c-4 -9 -3 -20 2 -25 6 -6 10 1 10 16 0 30 -3 32 -12 9z"/>
<path d="M1985 3091 c-3 -5 -1 -12 5 -16 5 -3 10 1 10 9 0 18 -6 21 -15 7z"/>
<path d="M1939 3072 c-14 -6 -15 -9 -3 -20 8 -7 14 -11 15 -10 3 12 7 38 6 37
-1 0 -9 -3 -18 -7z"/>
<path d="M8290 3070 c0 -5 5 -10 10 -10 6 0 10 5 10 10 0 6 -4 10 -10 10 -5 0
-10 -4 -10 -10z"/>
<path d="M8320 3050 c0 -5 5 -10 10 -10 6 0 10 5 10 10 0 6 -4 10 -10 10 -5 0
-10 -4 -10 -10z"/>
<path d="M2020 3036 c0 -9 -4 -14 -10 -11 -5 3 -10 1 -10 -4 0 -6 5 -11 10
-11 13 0 25 28 16 37 -3 4 -6 -1 -6 -11z"/>
<path d="M1960 3020 c0 -5 5 -10 11 -10 5 0 7 5 4 10 -3 6 -8 10 -11 10 -2 0
-4 -4 -4 -10z"/>
<path d="M8006 2995 c4 -8 8 -15 10 -15 2 0 4 7 4 15 0 8 -4 15 -10 15 -5 0
-7 -7 -4 -15z"/>
<path d="M2024 2986 c4 -12 2 -17 -6 -13 -7 2 -19 -2 -26 -9 -7 -8 -11 -14
-10 -15 20 -5 57 -5 75 2 15 6 20 14 16 29 -4 14 -9 18 -17 10 -9 -6 -17 -6
-26 3 -10 10 -12 8 -6 -7z"/>
<path d="M8284 2989 c-7 -8 -8 -22 -4 -34 7 -18 9 -18 15 -3 4 9 5 25 3 34 -2
14 -5 15 -14 3z"/>
<path d="M8360 2981 c0 -6 7 -11 15 -11 7 0 19 -8 24 -17 9 -16 10 -16 11 5 0
12 -4 22 -9 22 -5 0 -16 3 -25 6 -9 3 -16 1 -16 -5z"/>
<path d="M7915 2970 c-3 -5 -1 -10 4 -10 6 0 11 5 11 10 0 6 -2 10 -4 10 -3 0
-8 -4 -11 -10z"/>
<path d="M8209 2965 c-1 -3 -2 -8 -3 -12 -1 -5 -5 -13 -9 -20 -4 -6 -4 -19 -1
-30 5 -16 4 -16 -12 2 -15 18 -16 19 -10 1 3 -10 2 -24 -4 -31 -7 -8 -3 -15
15 -23 14 -6 25 -16 25 -20 0 -17 99 10 105 28 14 44 14 59 -1 53 -7 -3 -12
-9 -9 -13 3 -5 0 -12 -6 -16 -8 -5 -8 -8 0 -14 7 -4 2 -11 -14 -18 -15 -7 -25
-8 -25 -2 0 6 4 10 9 10 5 0 11 11 13 25 4 17 1 25 -9 25 -8 0 -11 -4 -8 -10
3 -5 -1 -10 -10 -10 -9 0 -13 -5 -10 -10 4 -6 3 -10 -2 -9 -4 1 -10 0 -13 -1
-16 -6 -50 -5 -50 2 0 4 12 8 26 8 14 0 23 4 19 10 -3 6 1 10 10 10 12 0 14 6
9 26 -4 17 -2 29 7 35 10 6 6 9 -13 9 -16 0 -29 -2 -29 -5z"/>
<path d="M1870 2946 c0 -2 7 -9 15 -16 12 -10 15 -10 15 4 0 9 -7 16 -15 16
-8 0 -15 -2 -15 -4z"/>
<path d="M2066 2940 c-19 -6 -19 -7 2 -12 12 -4 24 -2 27 2 8 13 -8 18 -29 10z"/>
<path d="M8460 2940 c0 -6 7 -10 15 -10 8 0 15 2 15 4 0 2 -7 6 -15 10 -8 3
-15 1 -15 -4z"/>
<path d="M1810 2936 c0 -20 22 -56 35 -56 21 0 19 7 -10 36 -14 14 -25 23 -25
20z"/>
<path d="M8341 2889 l-11 -31 32 6 c18 3 35 12 39 18 6 9 10 8 15 -5 9 -25 26
-21 22 6 -2 18 -9 22 -35 21 -18 -1 -33 2 -33 7 0 21 -19 7 -29 -22z"/>
<path d="M1976 2895 c-16 -12 -16 -14 3 -20 11 -3 27 -2 36 2 12 7 12 10 -3
20 -14 8 -22 7 -36 -2z"/>
<path d="M2045 2860 c-4 -6 -10 -8 -15 -5 -12 8 -58 -15 -64 -32 -8 -20 21
-46 44 -40 14 3 20 0 20 -11 0 -8 3 -12 8 -8 8 8 9 14 11 50 0 14 8 32 17 40
13 14 14 16 0 16 -8 0 -18 -5 -21 -10z"/>
<path d="M2094 2845 c-1 -14 2 -25 7 -25 5 0 9 11 9 25 0 33 -15 33 -16 0z"/>
<path d="M2190 2830 c0 -6 7 -10 15 -10 8 0 15 2 15 4 0 2 -7 6 -15 10 -8 3
-15 1 -15 -4z"/>
<path d="M2137 2813 c-25 -24 19 -38 55 -17 10 6 11 5 1 -8 -7 -8 -9 -19 -5
-23 4 -5 2 -5 -5 -1 -6 3 -14 2 -18 -4 -9 -14 17 -12 38 4 22 17 12 49 -13 41
-10 -3 -21 -1 -25 5 -7 12 -19 13 -28 3z"/>
<path d="M2096 2803 c5 -5 12 -12 16 -18 4 -6 8 -2 8 8 0 9 -7 17 -17 17 -9 0
-12 -3 -7 -7z"/>
<path d="M1767 2776 c-4 -10 -1 -13 8 -9 8 3 12 9 9 14 -7 12 -11 11 -17 -5z"/>
<path d="M8125 2770 c-3 -5 -1 -10 4 -10 6 0 11 5 11 10 0 6 -2 10 -4 10 -3 0
-8 -4 -11 -10z"/>
<path d="M1830 2760 c0 -5 5 -10 10 -10 6 0 10 5 10 10 0 6 -4 10 -10 10 -5 0
-10 -4 -10 -10z"/>
<path d="M2081 2757 c-6 -8 -8 -17 -4 -20 12 -12 19 -7 19 13 0 24 0 24 -15 7z"/>
<path d="M7815 2760 c-3 -5 0 -10 7 -10 8 0 9 -3 3 -8 -13 -9 -18 -35 -5 -27
5 3 10 2 10 -4 0 -5 -7 -14 -16 -19 -11 -6 -13 -11 -5 -16 17 -11 31 3 31 30
0 14 4 22 10 19 6 -3 10 -1 10 4 0 6 -4 11 -10 11 -5 0 -10 7 -10 15 0 17 -16
20 -25 5z"/>
<path d="M8198 2658 c-6 -16 20 -43 30 -33 4 4 2 10 -5 12 -7 2 -9 11 -6 19 3
8 1 14 -5 14 -6 0 -12 -6 -14 -12z"/>
<path d="M7660 2620 c-9 -6 -10 -10 -3 -10 6 0 15 5 18 10 8 12 4 12 -15 0z"/>
<path d="M2384 2579 c-10 -17 -7 -70 5 -82 8 -8 6 -16 -4 -27 -9 -10 -13 -25
-9 -34 5 -13 12 -9 35 21 34 45 37 81 9 111 -24 25 -26 26 -36 11z"/>
<path d="M8030 2539 c0 -5 5 -7 10 -4 6 3 10 8 10 11 0 2 -4 4 -10 4 -5 0 -10
-5 -10 -11z"/>
<path d="M2335 2520 c3 -5 8 -10 11 -10 2 0 4 5 4 10 0 6 -5 10 -11 10 -5 0
-7 -4 -4 -10z"/>
<path d="M7710 2516 c0 -9 5 -16 10 -16 6 0 10 4 10 9 0 6 -4 13 -10 16 -5 3
-10 -1 -10 -9z"/>
<path d="M2132 2494 c4 -21 22 -23 26 -1 2 10 -3 17 -13 17 -10 0 -15 -6 -13
-16z"/>
<path d="M7890 2500 c0 -5 5 -10 10 -10 6 0 10 5 10 10 0 6 -4 10 -10 10 -5 0
-10 -4 -10 -10z"/>
<path d="M7430 2475 c0 -8 5 -15 10 -15 6 0 10 7 10 15 0 8 -4 15 -10 15 -5 0
-10 -7 -10 -15z"/>
<path d="M7488 2423 c-22 -6 -24 -33 -2 -33 15 0 44 23 44 34 0 7 -16 6 -42
-1z"/>
<path d="M7020 2405 c-11 -13 -10 -14 4 -9 9 3 16 10 16 15 0 13 -6 11 -20 -6z"/>
<path d="M2377 2323 c-13 -12 -7 -33 9 -33 8 0 12 5 9 10 -3 6 -1 10 4 10 6 0
11 5 11 10 0 11 -23 14 -33 3z"/>
<path d="M2380 2271 c0 -5 8 -17 17 -26 15 -16 18 -16 28 -1 7 9 16 12 20 8 5
-4 5 -1 0 6 -4 8 -16 12 -26 9 -11 -3 -19 -1 -19 4 0 5 -4 9 -10 9 -5 0 -10
-4 -10 -9z"/>
<path d="M2495 2261 c-3 -5 -1 -12 4 -15 5 -3 11 1 15 9 6 16 -9 21 -19 6z"/>
<path d="M2465 2240 c3 -5 8 -10 11 -10 2 0 4 5 4 10 0 6 -5 10 -11 10 -5 0
-7 -4 -4 -10z"/>
<path d="M2600 2200 c0 -5 5 -10 10 -10 6 0 10 5 10 10 0 6 -4 10 -10 10 -5 0
-10 -4 -10 -10z"/>
<path d="M6830 2190 c0 -5 5 -10 10 -10 6 0 10 5 10 10 0 6 -4 10 -10 10 -5 0
-10 -4 -10 -10z"/>
<path d="M6848 2156 c-20 -15 -23 -32 -8 -41 5 -3 15 5 21 19 7 14 16 23 20
20 5 -3 9 0 9 5 0 15 -21 13 -42 -3z"/>
<path d="M6346 2084 c-7 -19 2 -37 15 -29 12 8 12 45 0 45 -5 0 -12 -7 -15
-16z"/>
<path d="M6560 2084 c0 -17 22 -14 28 4 2 7 -3 12 -12 12 -9 0 -16 -7 -16 -16z"/>
<path d="M6460 2065 c0 -8 2 -15 4 -15 2 0 6 7 10 15 3 8 1 15 -4 15 -6 0 -10
-7 -10 -15z"/>
<path d="M2552 2023 c2 -23 8 -28 31 -29 22 -1 27 3 27 23 0 20 -4 23 -20 18
-11 -4 -20 -2 -20 4 0 6 -5 11 -11 11 -6 0 -9 -12 -7 -27z"/>
<path d="M2675 1929 c-9 -14 -2 -20 14 -10 8 6 9 11 3 15 -6 3 -14 1 -17 -5z"/>
<path d="M2660 1860 c0 -5 5 -10 10 -10 6 0 10 5 10 10 0 6 -4 10 -10 10 -5 0
-10 -4 -10 -10z"/>
<path d="M2720 1860 c0 -5 5 -10 10 -10 6 0 10 5 10 10 0 6 -4 10 -10 10 -5 0
-10 -4 -10 -10z"/>
<path d="M3080 1760 c0 -5 7 -10 16 -10 8 0 12 5 9 10 -3 6 -10 10 -16 10 -5
0 -9 -4 -9 -10z"/>
<path d="M3370 1696 c0 -9 7 -16 16 -16 17 0 14 22 -4 28 -7 2 -12 -3 -12 -12z"/>
<path d="M3170 1689 c0 -5 5 -7 10 -4 6 3 10 8 10 11 0 2 -4 4 -10 4 -5 0 -10
-5 -10 -11z"/>
<path d="M2988 1673 c6 -2 18 -2 25 0 6 3 1 5 -13 5 -14 0 -19 -2 -12 -5z"/>
<path d="M3369 1639 c-13 -25 0 -43 24 -33 10 4 17 17 16 33 0 14 -3 20 -6 14
-2 -7 -9 -13 -14 -13 -6 0 -7 5 -4 10 3 6 4 10 1 10 -3 0 -10 -9 -17 -21z"/>
<path d="M3584 1639 c-3 -6 1 -17 10 -25 9 -8 12 -9 7 -3 -5 6 -7 18 -4 25 6
17 -3 19 -13 3z"/>
<path d="M3177 1626 c-4 -10 -1 -13 8 -9 8 3 12 9 9 14 -7 12 -11 11 -17 -5z"/>
<path d="M5415 1630 c-4 -7 0 -19 9 -28 13 -14 16 -14 16 -2 0 25 -16 44 -25
30z"/>
<path d="M5370 1620 c0 -5 7 -10 15 -10 8 0 15 5 15 10 0 6 -7 10 -15 10 -8 0
-15 -4 -15 -10z"/>
<path d="M3725 1609 c-4 -6 -5 -13 -2 -16 7 -7 27 6 27 18 0 12 -17 12 -25 -2z"/>
<path d="M5100 1590 c-12 -7 -10 -9 8 -7 12 0 22 5 22 9 0 11 -12 10 -30 -2z"/>
<path d="M2801 1574 c0 -11 3 -14 6 -6 3 7 2 16 -1 19 -3 4 -6 -2 -5 -13z"/>
<path d="M3274 1574 c3 -8 6 -18 6 -20 0 -3 5 -2 10 1 15 9 12 22 -6 29 -12 5
-15 2 -10 -10z"/>
<path d="M3660 1565 c0 -8 4 -15 10 -15 5 0 7 7 4 15 -4 8 -8 15 -10 15 -2 0
-4 -7 -4 -15z"/>
<path d="M3845 1540 c-3 -5 -1 -10 4 -10 6 0 11 5 11 10 0 6 -2 10 -4 10 -3 0
-8 -4 -11 -10z"/>
<path d="M3215 1520 c-17 -18 -17 -20 -1 -20 9 0 19 7 23 15 9 25 -2 27 -22 5z"/>
<path d="M3760 1529 c0 -5 5 -7 10 -4 6 3 10 8 10 11 0 2 -4 4 -10 4 -5 0 -10
-5 -10 -11z"/>
<path d="M4771 1520 c0 -8 3 -21 8 -28 6 -10 10 -9 14 7 3 12 1 19 -3 16 -5
-3 -11 1 -13 7 -4 9 -6 8 -6 -2z"/>
<path d="M5060 1520 c0 -5 5 -10 10 -10 6 0 10 5 10 10 0 6 -4 10 -10 10 -5 0
-10 -4 -10 -10z"/>
<path d="M3050 1500 c0 -5 5 -10 10 -10 6 0 10 5 10 10 0 6 -4 10 -10 10 -5 0
-10 -4 -10 -10z"/>
<path d="M3725 1480 c-3 -5 -2 -10 4 -10 5 0 13 5 16 10 3 6 2 10 -4 10 -5 0
-13 -4 -16 -10z"/>
<path d="M4040 1480 c0 -5 5 -10 10 -10 6 0 10 5 10 10 0 6 -4 10 -10 10 -5 0
-10 -4 -10 -10z"/>
<path d="M3370 1466 c0 -9 5 -16 10 -16 6 0 10 4 10 9 0 6 -4 13 -10 16 -5 3
-10 -1 -10 -9z"/>
<path d="M3968 1474 c-4 -3 -4 -12 -1 -20 3 -8 -1 -14 -10 -14 -8 0 -22 -12
-31 -27 l-17 -28 20 23 c11 12 26 20 34 16 8 -3 18 -1 21 4 8 13 -7 55 -16 46z"/>
<path d="M4820 1470 c0 -5 7 -10 15 -10 8 0 15 5 15 10 0 6 -7 10 -15 10 -8 0
-15 -4 -15 -10z"/>
<path d="M3667 1445 c-14 -14 -13 -50 2 -59 9 -6 35 16 39 32 1 6 -2 12 -8 12
-5 0 -7 7 -4 15 8 19 -10 19 -29 0z"/>
<path d="M3720 1450 c0 -5 5 -10 10 -10 6 0 10 5 10 10 0 6 -4 10 -10 10 -5 0
-10 -4 -10 -10z"/>
<path d="M3190 1438 c0 -6 3 -8 7 -5 3 4 12 -1 19 -11 12 -16 13 -15 14 6 0
15 -6 22 -20 22 -11 0 -20 -5 -20 -12z"/>
<path d="M4351 1443 c-1 -7 -9 -13 -20 -13 -10 0 -24 -6 -31 -14 -9 -12 -7
-15 12 -13 28 2 51 23 45 40 -4 9 -6 9 -6 0z"/>
<path d="M4550 1440 c0 -5 5 -10 11 -10 5 0 7 5 4 10 -3 6 -8 10 -11 10 -2 0
-4 -4 -4 -10z"/>
<path d="M3642 1358 c-7 -7 -12 -19 -12 -27 0 -10 5 -8 19 7 10 12 22 18 26
14 5 -4 5 -1 1 6 -9 15 -19 15 -34 0z"/>
<path d="M3775 1360 c-3 -6 1 -7 9 -4 18 7 21 14 7 14 -6 0 -13 -4 -16 -10z"/>
<path d="M3915 1350 c3 -5 8 -10 11 -10 2 0 4 5 4 10 0 6 -5 10 -11 10 -5 0
-7 -4 -4 -10z"/>
<path d="M4311 1324 c0 -11 3 -14 6 -6 3 7 2 16 -1 19 -3 4 -6 -2 -5 -13z"/>
<path d="M3620 1299 c0 -5 5 -7 10 -4 6 3 10 8 10 11 0 2 -4 4 -10 4 -5 0 -10
-5 -10 -11z"/>
</g>
</svg>
