<?xml version="1.0" standalone="no"?>
<!DOCTYPE svg PUBLIC "-//W3C//DTD SVG 20010904//EN"
 "http://www.w3.org/TR/2001/REC-SVG-20010904/DTD/svg10.dtd">
<svg version="1.0" xmlns="http://www.w3.org/2000/svg"
 width="1024.000000pt" height="533.000000pt" viewBox="0 0 1024.000000 533.000000"
 preserveAspectRatio="xMidYMid meet">
<metadata>
Created by potrace 1.16, written by Peter Selinger 2001-2019
</metadata>
<g transform="translate(0.000000,533.000000) scale(0.100000,-0.100000)"
fill="#000000" stroke="none">
<path d="M240 5306 c0 -8 -3 -21 -6 -30 -5 -12 2 -18 24 -22 35 -7 72 -41 56
-52 -43 -30 -57 -43 -50 -49 4 -5 52 -11 105 -14 82 -5 101 -9 119 -27 12 -12
29 -22 36 -22 15 0 99 -53 126 -79 8 -8 34 -23 59 -34 24 -10 60 -36 81 -56
20 -20 47 -44 61 -54 l24 -17 -30 6 c-16 4 -63 18 -103 30 -40 13 -92 24 -116
24 -35 0 -50 6 -77 31 -42 39 -71 50 -109 43 -23 -5 -31 -2 -36 11 -6 14 -15
16 -44 11 -25 -4 -48 -1 -66 9 -37 19 -104 20 -104 1 0 -7 23 -23 50 -35 28
-12 50 -28 50 -36 0 -7 8 -20 18 -27 10 -7 24 -27 31 -44 13 -34 44 -62 131
-120 73 -48 81 -60 68 -90 -14 -30 5 -56 36 -49 11 3 28 1 36 -5 13 -9 13 -12
-3 -24 -27 -21 -20 -54 18 -89 18 -18 39 -44 44 -59 6 -16 17 -28 26 -28 8 0
15 -7 15 -15 0 -25 -27 -17 -54 16 -24 28 -29 30 -73 23 -27 -3 -53 -11 -60
-16 -6 -5 -49 -8 -95 -6 l-83 3 -3 -56 c-4 -68 23 -122 69 -138 18 -6 29 -17
29 -29 0 -10 9 -29 20 -42 11 -13 23 -34 26 -46 4 -16 11 -20 25 -17 12 3 29
-3 42 -14 12 -11 45 -33 72 -48 28 -16 69 -48 93 -71 37 -37 128 -84 162 -84
13 0 13 -17 0 -25 -16 -10 -142 12 -227 40 -42 14 -109 32 -147 41 -39 9 -79
20 -88 25 -28 14 -46 11 -58 -11 -7 -14 -8 -26 0 -39 14 -28 13 -30 -16 -41
-24 -9 -24 -11 -10 -32 9 -12 16 -32 16 -44 0 -17 8 -23 38 -28 20 -3 49 -6
64 -6 15 0 33 -8 40 -18 7 -9 25 -25 39 -34 18 -11 30 -32 38 -62 15 -61 14
-66 -12 -66 -13 0 -34 -11 -47 -25 -31 -33 -21 -51 47 -85 28 -14 72 -45 98
-68 35 -33 52 -42 69 -38 18 4 24 0 35 -29 7 -20 21 -37 34 -41 12 -4 32 -16
44 -28 12 -12 43 -32 70 -45 26 -13 63 -35 81 -49 25 -18 37 -21 45 -13 18 18
27 13 27 -14 0 -14 9 -38 19 -53 11 -15 21 -47 23 -71 3 -47 -3 -55 -54 -66
-23 -4 -28 -11 -28 -35 0 -16 -11 -55 -25 -86 -14 -31 -25 -73 -25 -94 0 -33
-3 -38 -26 -43 -20 -4 -33 2 -55 27 l-28 31 -1 -32 c0 -20 -5 -33 -13 -33 -8
0 -12 -18 -12 -58 0 -39 -6 -67 -18 -86 -18 -26 -20 -27 -96 -23 -55 2 -84 0
-97 -10 -27 -19 -38 -17 -105 27 -34 22 -66 40 -72 40 -10 0 -143 58 -217 94
-25 13 -72 33 -105 46 -33 13 -69 29 -80 37 -22 15 -35 17 -35 6 1 -14 74 -90
93 -96 9 -4 22 -18 27 -32 5 -14 16 -25 24 -25 7 0 16 -9 19 -20 3 -14 14 -20
31 -20 22 0 26 -4 26 -29 0 -23 6 -30 26 -35 17 -5 24 -12 22 -25 -4 -23 29
-61 52 -61 32 0 53 -25 46 -54 -6 -23 -12 -27 -39 -26 -55 3 -57 2 -57 -39 0
-32 6 -43 35 -65 62 -48 35 -69 -50 -40 -60 20 -78 14 -50 -16 20 -22 10 -25
-31 -10 -15 6 -29 8 -32 5 -9 -8 60 -69 113 -99 60 -35 67 -44 53 -69 -15 -29
-2 -75 32 -114 16 -18 30 -37 30 -42 0 -5 14 -14 31 -21 17 -8 51 -33 75 -57
38 -36 44 -49 44 -83 0 -33 6 -46 33 -70 17 -16 54 -37 81 -47 27 -10 67 -35
90 -56 23 -20 50 -37 61 -37 10 0 28 -9 40 -21 11 -11 63 -45 115 -75 52 -31
116 -73 141 -94 61 -51 110 -80 135 -80 11 0 29 -10 40 -22 23 -25 122 -72
213 -100 36 -11 87 -33 112 -49 25 -16 61 -34 80 -40 19 -7 43 -18 54 -26 11
-7 32 -13 47 -13 15 0 30 -5 33 -10 3 -6 21 -10 38 -10 20 0 36 -7 44 -18 17
-28 313 -142 368 -142 17 0 40 -7 51 -15 14 -11 34 -13 75 -9 54 6 55 6 83
-30 18 -24 35 -36 51 -36 36 0 118 -23 133 -37 21 -20 117 -43 173 -40 49 2
54 0 66 -25 15 -30 63 -68 86 -68 9 0 24 12 35 27 20 27 20 27 41 9 12 -11 21
-30 21 -43 0 -21 4 -23 55 -23 45 0 56 4 65 21 18 32 35 17 35 -31 l0 -42 80
-32 c63 -26 81 -38 91 -61 14 -36 72 -59 110 -45 20 8 28 6 42 -11 9 -11 34
-29 54 -40 20 -10 48 -30 62 -44 14 -14 30 -25 36 -25 5 0 10 -4 10 -10 0 -13
-45 -13 -93 1 -92 25 -187 36 -204 24 -15 -12 -15 -13 3 -18 10 -3 42 -9 69
-12 28 -4 74 -14 102 -22 29 -8 62 -12 73 -8 12 4 20 2 20 -5 0 -6 10 -8 23
-5 14 4 30 -1 44 -15 16 -14 36 -20 69 -20 26 0 76 -5 112 -11 47 -8 70 -8 88
0 22 10 28 8 50 -16 21 -23 28 -25 44 -15 23 14 90 16 90 3 0 -15 59 -24 74
-12 10 9 15 7 19 -8 4 -17 10 -18 53 -10 27 5 51 14 52 19 4 12 108 12 137 1
11 -5 28 -4 38 1 12 6 19 5 23 -7 5 -12 17 -14 58 -9 33 4 61 2 74 -5 17 -9
27 -8 44 3 18 11 50 13 143 9 149 -6 152 -6 253 1 53 4 90 3 103 -4 16 -9 25
-8 39 5 13 12 28 15 44 11 14 -3 28 -1 31 5 4 6 19 7 36 4 20 -5 39 0 63 14
22 14 50 21 84 21 28 0 62 5 75 11 18 8 30 8 46 -1 16 -8 26 -8 36 0 14 12 27
15 125 30 36 6 70 17 75 24 6 7 28 13 50 13 55 1 145 20 208 43 28 11 76 24
106 30 30 6 62 16 70 23 24 20 112 38 148 31 25 -5 34 -2 45 15 9 14 23 21 46
21 18 0 42 5 53 11 11 5 46 11 78 13 48 2 63 7 85 29 29 29 46 33 63 16 14
-14 117 6 134 27 10 12 24 14 55 9 50 -7 119 10 150 37 11 10 23 16 26 13 3
-3 25 1 49 9 24 8 56 14 71 12 16 -2 33 3 39 10 6 8 9 14 6 14 -4 0 3 21 13
46 27 63 26 71 -17 79 -21 3 -49 14 -63 23 -57 38 -233 12 -300 -45 -24 -20
-39 -24 -78 -22 -68 4 -130 -10 -137 -31 -4 -13 -17 -18 -53 -18 -74 0 -84 -2
-106 -18 -11 -7 -37 -14 -56 -14 -20 0 -74 -11 -121 -25 -46 -13 -102 -25
-124 -25 -22 0 -51 -7 -63 -16 -13 -9 -29 -13 -37 -10 -20 7 -45 -3 -45 -18 0
-8 -18 -12 -50 -13 -29 0 -61 -8 -75 -17 -16 -10 -34 -14 -46 -11 -12 4 -41
-1 -66 -10 -25 -10 -59 -15 -81 -12 -27 3 -48 -2 -79 -20 -48 -28 -63 -24 -63
17 0 35 44 75 100 90 22 6 46 20 54 31 14 20 15 20 47 3 51 -27 147 -26 269 2
58 14 119 32 135 41 17 10 62 21 100 24 96 10 187 27 194 37 13 17 101 62 123
62 13 0 33 7 44 15 10 8 38 15 62 15 57 0 104 21 131 58 12 17 32 34 44 38 12
3 38 18 57 33 57 42 158 94 280 143 145 58 279 132 307 170 7 9 32 23 55 31
24 8 61 26 82 41 21 14 48 26 60 26 12 0 32 6 46 13 14 7 54 24 90 37 71 26
221 103 259 132 13 10 32 18 42 18 11 0 19 5 19 10 0 6 -5 10 -11 10 -20 0
-114 -43 -136 -63 -12 -10 -48 -25 -80 -33 -118 -27 -206 -55 -272 -88 -44
-23 -72 -31 -81 -26 -12 7 -11 12 3 28 9 10 17 24 17 30 0 6 9 14 20 17 22 7
26 25 8 43 -14 14 12 48 46 58 11 3 46 21 76 39 30 18 67 35 81 38 14 4 38 18
55 32 16 14 50 32 76 41 26 8 57 23 70 33 13 10 60 31 105 46 46 15 88 34 94
41 6 8 16 14 22 14 15 0 117 79 117 91 0 5 18 33 41 61 48 62 51 101 6 106
-37 4 -36 34 2 62 27 18 122 137 145 180 5 10 31 25 57 34 34 13 54 27 68 52
11 19 25 34 30 34 6 0 17 12 24 26 10 19 23 27 47 29 52 4 66 50 33 106 -23
39 -12 56 52 81 66 26 81 41 89 88 5 29 14 43 39 59 24 14 36 32 44 63 7 24
28 64 47 88 42 52 44 68 14 74 -103 21 -111 28 -75 61 15 14 34 37 43 50 9 14
20 25 25 25 11 0 59 43 125 110 31 31 44 53 44 73 0 26 -2 27 -22 16 -13 -7
-27 -18 -31 -25 -4 -8 -18 -14 -31 -14 -13 0 -29 -7 -36 -15 -7 -8 -22 -15
-35 -15 -12 0 -30 -9 -40 -20 -10 -11 -23 -20 -29 -20 -6 0 -24 -7 -40 -15
-15 -8 -32 -12 -37 -9 -6 3 -25 -6 -44 -20 -18 -14 -42 -26 -51 -26 -10 0 -27
-8 -38 -18 -24 -21 -116 -52 -155 -52 -15 0 -32 -5 -38 -11 -6 -6 -30 -15 -54
-20 -24 -6 -58 -17 -77 -26 -38 -18 -54 -8 -45 28 3 12 0 19 -8 19 -33 1 -41
16 -30 58 10 36 16 42 58 56 26 9 56 16 69 16 24 0 40 15 46 45 2 11 12 21 23
24 11 2 48 31 82 65 33 34 91 79 128 101 37 21 77 52 88 68 12 15 53 43 92 62
48 23 90 53 132 97 75 76 120 132 129 161 3 12 12 29 18 37 7 8 18 34 24 57 8
25 20 44 31 48 29 9 69 54 90 99 23 50 106 145 138 157 13 5 32 22 41 39 11
19 25 30 40 30 27 0 108 57 176 126 28 28 59 54 69 57 9 4 17 13 17 22 0 8 5
15 10 15 6 0 10 14 10 31 0 24 6 32 30 40 17 6 30 17 30 24 0 8 9 20 21 28 16
12 20 23 17 58 -3 39 -7 44 -46 65 -31 16 -50 21 -65 15 -12 -5 -45 -12 -74
-16 -34 -4 -61 -15 -78 -31 -14 -13 -31 -24 -38 -24 -6 0 -47 -18 -92 -40 -68
-34 -84 -47 -110 -90 -27 -45 -33 -50 -67 -50 -29 0 -41 -6 -54 -25 -9 -14
-21 -25 -28 -25 -19 -1 -61 -44 -71 -75 -6 -18 -18 -31 -31 -33 -11 -2 -24
-13 -29 -25 -9 -21 -17 -22 -127 -25 -98 -2 -118 0 -118 12 0 28 12 46 33 46
11 0 35 11 54 26 24 18 33 33 33 55 0 17 6 32 15 35 8 4 15 12 15 19 0 7 9 23
20 36 14 18 22 21 28 12 6 -9 13 -4 26 17 11 20 25 30 41 30 13 0 27 5 30 11
4 5 17 9 28 8 37 -2 44 0 51 19 3 9 13 28 21 41 7 14 17 53 21 88 5 51 3 68
-11 89 -15 23 -22 25 -58 21 -55 -6 -227 -61 -235 -74 -4 -6 -24 -11 -45 -11
-20 0 -48 -7 -61 -15 -12 -9 -59 -21 -104 -27 -56 -8 -86 -18 -98 -31 -9 -10
-30 -19 -46 -19 -18 0 -38 -9 -52 -25 -18 -19 -31 -24 -65 -22 -23 1 -45 -4
-49 -9 -4 -6 -29 -14 -55 -18 -36 -6 -56 -16 -83 -43 -32 -32 -40 -35 -77 -31
-23 3 -62 15 -88 27 l-45 21 -70 -34 c-38 -18 -88 -50 -112 -69 -24 -20 -59
-39 -78 -43 -32 -6 -40 -3 -71 30 -40 41 -78 48 -88 16 -12 -37 -35 -24 -32
18 4 52 35 102 65 102 26 0 84 27 94 44 17 30 82 96 93 96 7 0 18 7 26 16 7 9
32 25 56 36 41 19 52 32 36 41 -5 3 -42 -3 -83 -14 -41 -10 -111 -21 -155 -25
-45 -4 -91 -13 -105 -22 -23 -14 -65 -21 -132 -22 -16 -1 -34 -9 -42 -22 -11
-15 -21 -19 -39 -14 -17 4 -30 0 -42 -14 -10 -11 -28 -20 -40 -20 -13 0 -28
-7 -35 -15 -8 -9 -28 -13 -58 -12 -35 1 -55 -4 -80 -21 -18 -13 -40 -21 -48
-18 -8 3 -26 -2 -40 -11 -19 -12 -39 -14 -88 -10 -35 3 -67 2 -72 -3 -8 -7
-86 -20 -121 -19 -7 0 -23 0 -35 0 -61 1 -144 -21 -157 -40 -11 -17 -20 -19
-55 -15 -29 4 -76 -2 -147 -19 -190 -47 -666 -121 -943 -147 -61 -5 -113 -15
-116 -20 -10 -16 -176 -25 -203 -12 -35 17 -553 22 -575 6 -27 -21 -79 -17
-95 6 -15 21 -46 29 -222 50 -55 7 -142 21 -193 30 -92 18 -94 18 -128 -2 -38
-23 -73 -19 -103 11 -40 40 -141 52 -141 17 0 -46 -85 -55 -96 -10 -9 35 -68
44 -126 19 -13 -5 -18 -3 -18 8 0 17 -49 37 -89 37 -14 0 -55 -9 -91 -20 -57
-17 -67 -18 -87 -5 -12 8 -39 15 -59 15 -21 0 -46 7 -56 17 -10 9 -32 15 -48
14 -17 -1 -38 -2 -47 -2 -10 -1 -44 4 -76 10 -43 9 -62 9 -72 1 -10 -9 -20 -4
-44 23 -23 25 -46 37 -86 46 -44 10 -58 18 -70 41 -25 49 -142 93 -185 70 -12
-7 -47 -12 -77 -11 -47 0 -58 4 -83 31 -19 20 -38 30 -57 30 -19 0 -39 10 -58
30 -16 17 -37 30 -47 30 -10 0 -28 9 -40 20 -11 10 -41 22 -65 26 -32 5 -49
14 -64 35 -11 16 -26 29 -34 29 -7 0 -26 11 -42 24 -16 14 -53 34 -82 45 -29
11 -61 26 -70 34 -9 8 -88 40 -176 72 -486 174 -433 158 -505 149 -36 -4 -96
-7 -135 -6 -64 2 -68 1 -54 -13 9 -9 42 -20 75 -25 57 -9 189 -51 267 -84 21
-9 37 -23 37 -33 0 -15 27 -42 43 -43 4 0 7 7 7 15 0 21 13 19 35 -5 10 -11
28 -20 39 -20 12 0 39 -12 61 -25 22 -14 52 -25 66 -25 26 0 59 -27 59 -47 0
-6 13 -14 29 -18 35 -7 69 -41 55 -55 -6 -6 -33 5 -74 30 -75 45 -86 48 -93
19 -4 -14 -10 -18 -18 -13 -19 11 -199 17 -199 6 0 -23 55 -62 103 -72 29 -6
63 -19 77 -30 22 -17 23 -19 7 -26 -34 -13 -98 4 -203 55 -58 28 -111 51 -117
51 -7 0 -21 7 -31 15 -11 8 -28 15 -39 15 -10 0 -31 8 -45 19 -15 10 -47 25
-72 32 -25 7 -54 19 -65 26 -11 7 -27 13 -37 13 -9 0 -22 9 -29 21 -7 14 -17
19 -29 16 -18 -5 -99 28 -110 44 -3 4 -39 24 -80 44 -41 20 -82 41 -90 46 -8
4 -35 19 -60 32 -25 13 -58 31 -75 39 -57 31 -215 66 -366 83 -38 4 -63 13
-75 26 -20 22 -54 25 -54 5z m8913 -1112 c3 -4 -4 -24 -16 -45 -16 -28 -29
-39 -46 -39 -35 0 -161 -47 -203 -77 -20 -13 -42 -22 -47 -18 -16 9 -13 35 4
35 8 0 23 9 33 21 9 11 31 27 47 35 17 8 53 30 80 50 40 28 56 34 82 29 17 -3
34 -1 38 5 7 11 19 13 28 4z m-8753 -2024 c0 -5 -2 -10 -4 -10 -3 0 -8 5 -11
10 -3 6 -1 10 4 10 6 0 11 -4 11 -10z m7290 -966 c0 -23 -24 -44 -51 -44 -17
0 -37 -7 -45 -15 -22 -21 -54 -19 -54 4 0 22 14 34 55 49 32 11 95 16 95 6z
m-200 -100 c0 -12 -54 -44 -75 -44 -14 0 -2 29 18 43 29 21 57 21 57 1z
m-3517 -756 c29 -12 67 -33 86 -45 48 -33 102 -30 174 8 54 28 65 30 145 28
48 -1 100 2 116 6 22 6 31 4 38 -9 11 -19 31 -21 57 -4 16 10 24 7 51 -16 54
-45 89 -59 132 -52 27 5 46 2 61 -9 12 -8 36 -15 54 -15 39 0 52 -18 27 -38
-16 -12 -61 -13 -279 -8 -145 3 -282 11 -310 17 -27 7 -64 13 -82 14 -18 1
-39 7 -47 14 -11 9 -20 10 -36 1 -16 -9 -25 -8 -36 1 -10 8 -38 10 -92 6 -58
-4 -82 -2 -96 8 -12 9 -44 14 -91 13 -61 0 -77 3 -104 23 -49 36 -40 56 29 70
74 14 150 10 203 -13z m1667 -38 c0 -13 -7 -20 -20 -20 -19 0 -27 20 -13 33
13 14 33 6 33 -13z m-191 -24 c-13 -27 -29 -35 -29 -14 0 13 31 50 37 44 2 -2
-2 -15 -8 -30z m-1794 -6 c3 -5 -1 -10 -9 -10 -9 0 -16 5 -16 10 0 6 4 10 9
10 6 0 13 -4 16 -10z m1405 -41 c0 -14 -26 -39 -39 -39 -16 0 -13 26 5 44 16
16 34 13 34 -5z"/>
<path d="M1017 5222 c-10 -11 -15 -22 -10 -24 4 -2 51 -1 103 2 l95 5 -60 12
c-33 7 -71 16 -85 19 -18 4 -31 0 -43 -14z"/>
<path d="M8395 4780 c-3 -5 1 -10 10 -10 9 0 13 5 10 10 -3 6 -8 10 -10 10 -2
0 -7 -4 -10 -10z"/>
<path d="M8471 1517 c-36 -19 -67 -39 -69 -45 -5 -15 14 -16 23 -2 3 6 15 10
27 10 21 0 107 50 108 63 0 14 -25 6 -89 -26z"/>
<path d="M8120 1444 c-38 -13 -66 -29 -68 -38 -4 -20 3 -20 72 -2 62 17 87 28
106 50 11 14 9 16 -16 15 -16 -1 -58 -12 -94 -25z"/>
<path d="M3194 212 c6 -10 34 -15 145 -28 37 -5 52 -3 47 4 -3 6 -37 13 -74
17 -37 3 -80 9 -96 12 -18 3 -26 1 -22 -5z"/>
</g>
</svg>
