<?xml version="1.0" standalone="no"?>
<!DOCTYPE svg PUBLIC "-//W3C//DTD SVG 20010904//EN"
 "http://www.w3.org/TR/2001/REC-SVG-20010904/DTD/svg10.dtd">
<svg version="1.0" xmlns="http://www.w3.org/2000/svg"
 width="1024.000000pt" height="1024.000000pt" viewBox="0 0 1024.000000 1024.000000"
 preserveAspectRatio="xMidYMid meet">
<metadata>
Created by potrace 1.16, written by Peter Selinger 2001-2019
</metadata>
<g transform="translate(0.000000,1024.000000) scale(0.100000,-0.100000)"
fill="#000000" stroke="none">
<path d="M4963 8993 c-40 -8 -25 -21 20 -18 55 4 54 4 37 15 -16 10 -20 10
-57 3z"/>
<path d="M5100 8991 c0 -6 8 -11 19 -11 20 0 45 -23 35 -32 -3 -3 22 -9 56
-13 59 -7 68 -17 25 -28 -13 -3 -7 -5 15 -7 l35 -2 -34 -8 c-37 -9 -64 -3 -56
11 6 9 -95 3 -197 -12 -37 -6 -71 -8 -77 -5 -5 3 -40 -1 -78 -10 -47 -11 -87
-14 -130 -9 -40 4 -63 3 -63 -3 0 -6 -26 -13 -57 -16 -32 -4 -87 -12 -123 -18
-36 -7 -103 -11 -150 -11 -47 1 -76 -1 -65 -3 72 -18 26 -37 -53 -23 -43 8
-55 7 -86 -12 -20 -11 -36 -17 -36 -12 0 4 -5 0 -11 -9 -5 -10 -26 -20 -47
-23 -20 -4 -64 -13 -97 -22 -33 -8 -70 -17 -82 -20 -24 -6 -53 -33 -35 -33 6
0 23 5 39 11 15 6 46 14 68 19 22 5 69 16 105 24 144 35 371 76 473 85 60 6
114 14 120 17 8 5 9 4 2 -4 -6 -6 -55 -16 -110 -22 -55 -7 -117 -18 -139 -25
-22 -8 -43 -12 -46 -10 -4 2 -22 0 -41 -5 -19 -5 -59 -12 -89 -15 -30 -4 -124
-27 -209 -51 -85 -24 -159 -44 -165 -44 -6 0 -22 -6 -36 -13 -14 -7 -46 -19
-72 -26 -27 -8 -48 -19 -48 -26 0 -13 -115 -55 -150 -55 -10 0 -21 -4 -25 -10
-7 -12 -132 -72 -200 -96 -27 -9 -71 -30 -96 -46 -25 -15 -51 -28 -57 -28 -6
0 -12 -4 -14 -9 -1 -4 -38 -27 -81 -50 -42 -24 -98 -60 -124 -82 -26 -21 -53
-39 -60 -39 -7 0 -13 -4 -13 -9 0 -6 -36 -36 -80 -68 -44 -32 -80 -63 -80 -70
0 -16 -41 -44 -54 -36 -6 3 -8 3 -4 -2 15 -16 -13 -34 -43 -28 -21 4 -30 1
-35 -11 -3 -9 -10 -16 -15 -16 -13 0 -32 -16 -85 -69 -38 -38 -50 -45 -87 -46
-47 -1 -107 -22 -107 -37 0 -5 8 -7 18 -4 39 12 81 15 86 7 8 -13 -133 -146
-154 -145 -11 0 -16 -5 -13 -13 3 -8 -3 -23 -13 -35 -15 -17 -11 -16 17 5 56
42 56 32 1 -25 -28 -29 -61 -66 -74 -83 -37 -49 -67 -79 -72 -74 -3 2 10 20
28 39 18 19 35 42 39 50 4 8 14 25 23 38 16 21 15 22 -6 22 -15 0 -20 -5 -17
-14 4 -9 -10 -30 -33 -53 -21 -21 -51 -56 -67 -79 -53 -76 -134 -179 -149
-187 -8 -4 -14 -14 -14 -22 0 -16 -78 -134 -115 -175 -12 -14 -34 -50 -48 -80
-31 -65 -62 -119 -77 -134 -5 -5 -10 -17 -10 -25 0 -11 4 -10 15 5 11 14 14
15 15 4 0 -21 -23 -63 -35 -62 -5 0 -15 -4 -22 -9 -7 -7 -14 -6 -18 1 -12 19
-24 0 -19 -29 7 -33 -31 -116 -48 -105 -7 5 -8 2 -1 -10 10 -18 -15 -134 -41
-191 -7 -16 -19 -48 -26 -70 -7 -22 -16 -44 -21 -49 -5 -6 -9 -21 -9 -34 0
-38 -31 -136 -46 -148 -8 -7 -19 -40 -25 -75 -21 -129 -32 -180 -40 -185 -5
-3 -9 -23 -9 -45 0 -22 -5 -49 -10 -59 -16 -30 -39 -167 -44 -265 -3 -49 -9
-130 -13 -180 -9 -102 -9 -125 0 -325 16 -336 28 -464 62 -615 27 -126 55
-273 54 -290 0 -5 -11 24 -24 65 -30 98 -44 134 -50 128 -3 -3 8 -45 24 -94
16 -49 32 -105 36 -124 3 -19 15 -54 26 -77 10 -24 19 -48 19 -53 0 -6 4 -9 9
-6 4 3 13 -6 20 -20 13 -30 15 -56 2 -35 -18 29 -20 -9 -2 -41 16 -28 31 -63
71 -163 37 -95 66 -157 89 -195 15 -25 37 -70 50 -100 13 -30 31 -66 41 -80
25 -36 71 -142 59 -134 -6 3 -20 20 -31 38 l-20 31 6 -34 c6 -35 78 -116 91
-102 4 3 6 2 5 -4 -7 -31 1 -46 19 -40 11 3 26 -1 35 -10 22 -23 20 -42 -2
-22 -25 22 -32 21 -32 -5 0 -11 15 -41 33 -65 35 -48 121 -161 135 -179 5 -5
15 -21 22 -35 17 -32 36 -53 256 -274 198 -199 249 -245 330 -299 48 -32 91
-62 197 -139 95 -69 199 -137 210 -137 5 0 15 -6 21 -14 6 -8 80 -49 164 -90
83 -42 152 -80 152 -86 0 -5 9 -10 20 -10 11 0 43 -11 72 -24 29 -13 70 -31
91 -39 20 -9 37 -21 37 -26 0 -6 17 -13 38 -16 39 -7 193 -63 202 -74 3 -4 22
-17 43 -29 32 -18 48 -21 88 -16 34 5 49 3 49 -5 0 -6 -6 -11 -12 -11 -8 0 -7
-4 3 -10 14 -8 66 -12 134 -8 75 3 195 -20 195 -39 0 -12 11 -14 68 -17 9 -1
20 -5 23 -9 3 -4 34 -13 70 -19 35 -7 66 -14 69 -17 3 -4 17 -7 32 -9 19 -2
28 2 31 15 4 15 5 15 6 2 1 -15 24 -18 169 -25 211 -11 395 -10 447 4 39 10
39 10 -30 12 l-70 3 55 8 c30 4 120 13 200 19 81 6 174 19 210 29 36 11 97 25
135 31 39 6 116 22 172 36 117 28 116 27 108 14 -3 -6 4 -10 17 -10 19 0 20
-2 8 -10 -11 -8 -7 -9 15 -4 73 15 174 47 169 55 -2 5 -16 4 -30 -1 -31 -12
-34 -12 -34 -1 0 5 36 21 79 37 44 15 77 32 74 38 -3 5 -1 6 4 3 10 -6 106 26
258 84 30 12 51 15 53 9 6 -16 25 -12 73 13 24 13 63 29 87 37 23 7 42 17 42
22 0 4 4 8 9 8 5 0 47 25 93 56 45 31 103 67 128 79 25 13 74 44 110 70 36 25
90 62 121 83 31 21 85 68 120 105 36 37 69 67 75 67 5 0 25 16 44 35 20 20 40
33 48 30 9 -3 52 32 113 95 54 55 104 100 111 100 18 1 51 29 71 62 25 40 160
178 174 178 6 0 15 9 18 20 4 11 19 28 33 38 28 17 56 50 58 67 1 6 2 15 3 21
1 15 42 56 48 50 3 -3 0 -14 -8 -23 -11 -15 -9 -14 11 2 14 11 26 21 28 21 2
1 5 8 6 16 3 21 22 52 58 95 18 22 42 52 53 67 11 16 25 34 32 41 6 6 13 25
16 41 8 45 27 89 35 79 17 -23 42 -14 68 24 14 22 23 44 20 50 -4 5 0 13 7 18
14 8 37 45 37 58 0 4 -7 4 -16 1 -9 -3 -14 -3 -12 1 36 83 80 162 93 166 8 4
15 14 15 23 0 27 30 114 65 189 18 39 36 80 40 93 3 12 10 22 15 22 9 0 43
101 80 235 12 44 30 95 41 113 10 18 19 48 19 65 0 31 17 89 33 114 10 17 16
42 27 133 11 88 19 120 30 120 5 0 11 -6 13 -12 3 -7 6 5 7 27 0 22 7 69 15
105 15 67 20 241 6 205 -8 -21 -19 89 -27 270 -2 55 -6 106 -9 113 -2 7 0 23
5 37 6 16 6 50 -2 97 -6 40 -13 100 -15 133 -9 151 -42 379 -59 407 -6 9 -38
144 -54 228 -4 25 -19 68 -33 95 -14 28 -32 77 -41 110 -15 54 -40 117 -82
212 -8 17 -14 36 -14 43 0 7 -6 24 -14 38 -15 30 -27 58 -47 112 -7 19 -26 56
-41 81 -15 25 -28 49 -28 53 0 3 -11 24 -25 46 -35 55 -115 213 -110 218 2 2
16 -18 31 -45 16 -26 32 -52 37 -58 4 -5 19 -25 32 -44 16 -22 25 -29 25 -18
0 9 -6 20 -12 24 -16 10 -45 52 -88 128 -40 71 -61 96 -72 89 -4 -3 -8 1 -8
10 0 8 -13 25 -28 38 -29 24 -54 57 -34 44 25 -15 18 13 -11 46 -49 54 -100
119 -118 148 -15 23 -89 104 -256 278 -65 66 -88 109 -31 56 l31 -29 -19 35
c-12 21 -38 45 -64 58 -25 13 -49 30 -53 38 -5 9 -17 12 -31 8 -15 -3 -27 1
-37 12 -13 16 -12 17 14 10 51 -12 31 16 -68 95 -38 30 -91 71 -117 89 -27 18
-48 36 -48 40 0 6 -64 40 -76 40 -3 0 -2 -4 1 -10 3 -6 -1 -7 -10 -3 -13 5
-14 8 -3 15 10 7 9 12 -7 24 -29 23 -135 84 -250 144 -55 29 -104 56 -110 60
-28 21 -186 81 -470 179 -181 62 -241 77 -430 107 -22 4 -45 11 -52 16 -7 5
-16 7 -20 5 -5 -3 -49 1 -98 9 -50 9 -137 19 -195 23 -67 4 -117 13 -137 24
-38 20 -94 22 -111 5 -10 -10 -14 -10 -21 0 -4 8 -14 13 -22 12 -24 -4 -73 0
-68 5 3 2 36 7 74 10 83 8 98 15 29 15 -27 0 -65 5 -84 10 -55 16 -280 25
-280 11z m450 -81 c0 -5 9 -10 20 -10 11 0 20 -4 20 -10 0 -5 -26 -9 -60 -8
-33 1 -60 5 -60 9 0 4 13 6 29 5 20 -1 27 2 24 11 -3 7 2 13 11 13 9 0 16 -4
16 -10z m767 -136 c-3 -3 -12 -4 -19 -1 -8 3 -5 6 6 6 11 1 17 -2 13 -5z m148
-35 c22 -10 31 -17 20 -15 -11 3 -35 7 -52 11 -18 4 -35 11 -38 16 -10 15 27
9 70 -12z m-202 -6 c-7 -2 -19 -2 -25 0 -7 3 -2 5 12 5 14 0 19 -2 13 -5z
m-2943 -328 c0 -7 -122 -66 -127 -61 -4 4 106 65 120 66 4 0 7 -2 7 -5z m4233
-259 c16 -9 26 -20 24 -23 -8 -7 -67 39 -67 51 0 8 3 8 8 1 4 -6 20 -19 35
-29z m313 -473 c-7 -7 -26 7 -26 19 0 6 6 6 15 -2 9 -7 13 -15 11 -17z m-5486
-1 c0 -5 -14 -19 -31 -31 -29 -22 -30 -22 -20 -2 6 11 19 25 29 30 21 13 22
13 22 3z m-90 -6 c0 -3 -4 -8 -10 -11 -5 -3 -10 -1 -10 4 0 6 5 11 10 11 6 0
10 -2 10 -4z m0 -84 c0 -4 -9 -13 -20 -20 -11 -7 -20 -19 -20 -26 0 -8 -10
-23 -22 -33 -24 -19 -80 -81 -137 -151 -19 -23 -36 -40 -39 -37 -6 5 21 39
159 203 55 66 79 85 79 64z m5680 -17 c20 -24 6 -28 -15 -5 -10 11 -13 20 -8
20 6 0 16 -7 23 -15z m146 -2 c20 -27 16 -38 -6 -18 -20 18 -26 35 -14 35 4 0
13 -8 20 -17z m84 -278 c0 -7 7 -18 15 -25 8 -7 15 -17 15 -22 0 -19 -28 12
-50 55 -22 42 -22 42 -1 23 12 -11 21 -25 21 -31z m145 -12 l18 -28 -21 19
c-12 11 -22 23 -22 28 0 14 7 9 25 -19z m-6302 -12 c-3 -11 -16 -29 -29 -42
-22 -21 -24 -21 -24 -4 0 18 36 65 51 65 4 0 5 -9 2 -19z m-98 -137 c-38 -62
-71 -112 -103 -154 -10 -14 -26 -46 -36 -72 -10 -26 -21 -50 -26 -53 -5 -3
-19 -26 -32 -51 -12 -25 -24 -41 -26 -36 -4 12 33 96 58 132 9 14 32 52 50 85
18 33 36 62 40 65 3 3 14 22 23 43 10 20 21 37 25 37 4 0 18 16 31 35 38 57
35 33 -4 -31z m6368 -3 c20 -33 37 -63 37 -69 0 -5 7 -12 15 -16 8 -3 25 -26
37 -51 17 -35 19 -48 10 -57 -9 -9 -12 -7 -12 10 0 12 -4 22 -9 22 -10 0 -101
154 -101 170 0 4 -7 13 -15 20 -8 7 -15 16 -15 21 0 21 17 4 53 -50z m223
-371 c28 -55 28 -56 11 -41 -15 12 -77 132 -77 149 0 8 42 -59 66 -108z m38
-20 l7 -25 -15 25 c-17 28 -21 50 -7 35 5 -6 12 -21 15 -35z m-6866 -20 c-7
-10 -14 -17 -17 -15 -4 4 18 35 25 35 2 0 -1 -9 -8 -20z m-127 -23 c-9 -23
-31 -46 -31 -32 0 12 32 67 36 62 3 -2 0 -16 -5 -30z m32 -94 c-13 -35 -53
-113 -58 -113 -5 0 16 61 35 103 14 29 34 38 23 10z m7022 -62 c11 -33 22 -58
26 -55 4 2 12 -11 19 -29 6 -17 18 -44 26 -59 8 -14 14 -34 14 -43 0 -9 11
-39 25 -67 14 -27 25 -54 25 -60 0 -6 14 -56 31 -111 26 -82 29 -101 18 -108
-12 -7 -12 -9 0 -9 7 0 11 -6 7 -15 -3 -8 6 -67 19 -132 14 -65 25 -128 25
-140 0 -37 -19 -26 -25 15 -19 114 -38 198 -47 203 -6 4 -12 29 -13 55 -2 27
-15 90 -30 139 -59 197 -65 220 -59 240 4 14 3 16 -4 7 -6 -10 -20 15 -45 85
-42 116 -54 158 -40 150 5 -3 18 -33 28 -66z m-1635 49 c0 -5 -4 -10 -10 -10
-5 0 -10 5 -10 10 0 6 5 10 10 10 6 0 10 -4 10 -10z m1658 -41 c-3 -8 -7 -3
-11 10 -4 17 -3 21 5 13 5 -5 8 -16 6 -23z m-7118 -106 c-5 -16 -25 -79 -45
-142 -19 -63 -39 -119 -44 -125 -5 -6 -11 -24 -14 -41 -14 -75 -53 -205 -60
-205 -5 0 -6 15 -3 33 4 17 7 43 8 57 0 32 19 121 29 140 4 8 11 33 14 54 5
29 9 36 16 25 7 -12 9 -12 9 1 0 9 13 47 29 85 16 39 36 87 45 108 17 43 29
50 16 10z m7197 -355 c-3 -7 -5 -2 -5 12 0 14 2 19 5 13 2 -7 2 -19 0 -25z
m-7384 -44 c-4 -10 -9 -12 -15 -6 -12 12 -1 35 12 27 5 -3 6 -13 3 -21z m5941
-41 c-21 -15 -30 -3 -20 23 5 14 9 14 22 3 14 -12 14 -14 -2 -26z m1494 -133
l0 -25 -8 25 c-4 14 -8 36 -8 50 l0 25 8 -25 c4 -14 8 -36 8 -50z m-7451 -10
c-5 -31 -17 -36 -17 -7 0 15 4 27 10 27 5 0 9 -9 7 -20z m25 -94 c8 5 9 -9 4
-46 -12 -86 -23 -88 -22 -3 0 43 2 70 4 60 2 -9 8 -14 14 -11z m7469 -66 c5 0
9 -10 8 -22 0 -22 -1 -22 -9 -3 -5 11 -9 16 -10 10 -3 -24 -19 34 -18 70 l0
40 10 -47 c6 -27 14 -48 19 -48z m-7505 53 c-5 -18 -22 -135 -29 -202 -2 -18
2 -50 9 -70 l13 -36 1 55 c0 30 5 62 10 70 7 11 9 2 9 -30 -1 -58 -12 -95 -27
-95 -7 0 -17 -7 -22 -15 -13 -20 -12 -432 0 -580 13 -151 43 -369 56 -415 4
-11 4 -17 0 -14 -14 14 -45 152 -61 274 -9 72 -20 148 -25 170 -32 143 -37
580 -7 597 10 5 17 37 22 100 9 107 9 109 19 166 5 27 13 42 23 42 9 0 12 -6
9 -17z m7564 -165 c0 -5 -4 -8 -10 -8 -5 0 -10 10 -10 23 0 18 2 19 10 7 5 -8
10 -18 10 -22z m-18 -124 c-2 -14 0 -29 6 -33 7 -4 14 -52 18 -110 5 -84 4
-102 -6 -96 -9 6 -12 4 -8 -7 4 -8 3 -39 -1 -69 -7 -49 -8 -42 -14 66 -17 295
-17 311 -3 292 7 -9 11 -29 8 -43z m58 -49 c0 -8 -4 -15 -10 -15 -5 0 -10 7
-10 15 0 8 5 15 10 15 6 0 10 -7 10 -15z m-7610 -101 c0 -19 -4 -33 -8 -30 -8
5 -4 66 4 66 2 0 4 -16 4 -36z m-73 -506 c-2 -13 -4 -3 -4 22 0 25 2 35 4 23
2 -13 2 -33 0 -45z m30 -230 c-3 -7 -5 -2 -5 12 0 14 2 19 5 13 2 -7 2 -19 0
-25z m101 -223 c-2 -19 -1 -35 3 -35 7 0 69 -240 68 -262 -1 -23 -48 126 -49
153 0 15 -6 29 -14 32 -16 7 -28 74 -20 116 9 42 17 39 12 -4z m-24 -405 l7
-25 -14 25 c-8 14 -17 41 -21 60 l-6 35 14 -35 c7 -19 16 -46 20 -60z m155
-75 c0 -5 -6 1 -14 15 -8 14 -14 34 -14 45 0 13 5 8 14 -15 7 -19 14 -39 14
-45z m7143 -60 c-9 -26 -18 -42 -20 -36 -3 10 24 81 32 81 3 0 -3 -20 -12 -45z
m-7152 -191 c0 -7 -6 -14 -12 -17 -9 -3 -14 9 -15 37 -2 40 -2 41 12 16 8 -14
14 -30 15 -36z m420 -786 c0 -5 -13 7 -30 25 -16 19 -30 39 -30 43 1 11 60
-57 60 -68z m926 -893 c4 -8 12 -15 19 -15 16 0 68 -41 61 -48 -7 -6 -106 60
-106 71 0 13 21 7 26 -8z m259 -87 c14 -6 25 -15 25 -19 0 -6 -55 16 -69 28
-10 8 20 2 44 -9z m3636 -139 c-13 -11 -27 -17 -30 -13 -7 7 28 34 43 34 6 -1
0 -10 -13 -21z m-101 -48 c-19 -10 -46 -21 -60 -25 -14 -3 -5 5 20 18 25 13
52 24 60 25 8 1 -1 -7 -20 -18z m-630 -171 c-8 -5 -19 -10 -25 -10 -5 0 -3 5
5 10 8 5 20 10 25 10 6 0 3 -5 -5 -10z m-2185 -19 c32 -10 61 -24 63 -30 3 -8
-4 -8 -23 -1 -14 5 -37 7 -50 4 -13 -3 -32 -1 -42 6 -15 9 -13 10 12 5 22 -4
26 -3 15 5 -8 5 -23 10 -32 10 -9 0 -20 5 -23 10 -9 15 12 12 80 -9z m298 -18
c-7 -2 -19 -2 -25 0 -7 3 -2 5 12 5 14 0 19 -2 13 -5z m1907 -9 c0 -2 -7 -4
-15 -4 -8 0 -15 4 -15 10 0 5 7 7 15 4 8 -4 15 -8 15 -10z m-1745 -19 c33 -7
51 -13 40 -14 -20 -1 -161 26 -180 34 -17 7 76 -6 140 -20z m1525 11 c0 -2 -9
-6 -20 -9 -11 -3 -18 -1 -14 4 5 9 34 13 34 5z m-1297 -63 c-7 -2 -19 -2 -25
0 -7 3 -2 5 12 5 14 0 19 -2 13 -5z m515 -100 c-15 -2 -42 -2 -60 0 -18 2 -6
4 27 4 33 0 48 -2 33 -4z"/>
<path d="M5056 8976 c6 -15 52 -31 62 -21 3 3 -2 5 -10 5 -9 0 -21 7 -28 15
-16 19 -31 20 -24 1z"/>
<path d="M4811 8960 c31 -4 62 -11 70 -15 12 -8 12 -6 0 8 -10 13 -28 17 -70
16 l-56 -2 56 -7z"/>
<path d="M5608 8933 c7 -3 16 -2 19 1 4 3 -2 6 -13 5 -11 0 -14 -3 -6 -6z"/>
<path d="M5928 8933 c7 -3 16 -2 19 1 4 3 -2 6 -13 5 -11 0 -14 -3 -6 -6z"/>
<path d="M4568 8903 c12 -2 32 -2 45 0 12 2 2 4 -23 4 -25 0 -35 -2 -22 -4z"/>
<path d="M4500 8860 c-24 -8 -24 -8 7 -9 17 -1 35 4 38 9 7 11 -9 11 -45 0z"/>
<path d="M3710 8643 c-30 -8 -59 -19 -65 -25 -7 -8 -4 -9 10 -4 11 5 45 14 75
22 53 15 77 25 49 23 -8 -1 -39 -8 -69 -16z"/>
<path d="M3525 8575 c-30 -13 -30 -13 -4 -14 14 -1 34 6 45 14 25 19 1 19 -41
0z"/>
<path d="M3475 8550 c-3 -5 -1 -10 4 -10 6 0 11 5 11 10 0 6 -2 10 -4 10 -3 0
-8 -4 -11 -10z"/>
<path d="M2590 7995 c-7 -8 -8 -15 -2 -15 5 0 15 7 22 15 7 8 8 15 2 15 -5 0
-15 -7 -22 -15z"/>
<path d="M2160 7710 c0 -11 5 -20 10 -20 6 0 10 9 10 20 0 11 -4 20 -10 20 -5
0 -10 -9 -10 -20z"/>
<path d="M8580 6866 c0 -8 5 -18 10 -21 6 -3 10 -15 10 -26 0 -11 11 -37 25
-57 34 -50 31 -28 -6 52 -31 67 -39 77 -39 52z"/>
<path d="M8786 6315 c4 -8 8 -15 10 -15 2 0 4 7 4 15 0 8 -4 15 -10 15 -5 0
-7 -7 -4 -15z"/>
<path d="M1172 5090 c0 -14 2 -19 5 -12 2 6 2 18 0 25 -3 6 -5 1 -5 -13z"/>
<path d="M1175 4660 c8 -82 16 -145 23 -175 6 -27 7 -25 12 20 3 28 0 68 -7
90 -34 118 -32 115 -28 65z"/>
<path d="M8699 3753 c-15 -41 -5 -48 14 -9 9 20 12 36 7 36 -6 0 -15 -12 -21
-27z"/>
<path d="M8665 3679 c-4 -6 -5 -12 -2 -15 2 -3 7 2 10 11 7 17 1 20 -8 4z"/>
<path d="M8556 3453 c-6 -14 -5 -15 5 -6 7 7 10 15 7 18 -3 3 -9 -2 -12 -12z"/>
<path d="M7868 2541 c-31 -31 -36 -43 -14 -35 15 6 50 53 44 59 -2 2 -15 -9
-30 -24z"/>
<path d="M7537 2220 c-34 -33 -57 -60 -52 -60 6 0 37 27 70 60 77 78 62 78
-18 0z"/>
<path d="M6441 1569 c-45 -22 -81 -43 -78 -46 5 -4 163 70 176 83 13 13 -23
-1 -98 -37z"/>
<path d="M5772 1371 c-34 -10 -66 -22 -70 -26 -14 -15 89 5 126 24 46 25 27
25 -56 2z"/>
<path d="M4108 1353 c7 -3 16 -2 19 1 4 3 -2 6 -13 5 -11 0 -14 -3 -6 -6z"/>
<path d="M4195 1340 c3 -5 13 -10 21 -10 8 0 12 5 9 10 -3 6 -13 10 -21 10 -8
0 -12 -4 -9 -10z"/>
<path d="M5558 1323 c-28 -3 -48 -10 -52 -19 -7 -19 16 -17 79 6 28 10 43 18
35 17 -8 0 -36 -2 -62 -4z"/>
<path d="M5098 1243 c7 -3 16 -2 19 1 4 3 -2 6 -13 5 -11 0 -14 -3 -6 -6z"/>
<path d="M4778 1233 c12 -2 30 -2 40 0 9 3 -1 5 -23 4 -22 0 -30 -2 -17 -4z"/>
<path d="M5048 1233 c6 -2 18 -2 25 0 6 3 1 5 -13 5 -14 0 -19 -2 -12 -5z"/>
</g>
</svg>
