<?xml version="1.0" standalone="no"?>
<!DOCTYPE svg PUBLIC "-//W3C//DTD SVG 20010904//EN"
 "http://www.w3.org/TR/2001/REC-SVG-20010904/DTD/svg10.dtd">
<svg version="1.0" xmlns="http://www.w3.org/2000/svg"
 width="1024.000000pt" height="724.000000pt" viewBox="0 0 1024.000000 724.000000"
 preserveAspectRatio="xMidYMid meet">
<metadata>
Created by potrace 1.16, written by Peter Selinger 2001-2019
</metadata>
<g transform="translate(0.000000,724.000000) scale(0.100000,-0.100000)"
fill="#000000" stroke="none">
<path d="M8445 5700 c-3 -6 5 -10 19 -10 14 0 28 5 31 10 3 6 -5 10 -19 10
-14 0 -28 -4 -31 -10z"/>
<path d="M5058 5643 c7 -3 16 -2 19 1 4 3 -2 6 -13 5 -11 0 -14 -3 -6 -6z"/>
<path d="M6708 5643 c7 -3 16 -2 19 1 4 3 -2 6 -13 5 -11 0 -14 -3 -6 -6z"/>
<path d="M7488 5643 c7 -3 16 -2 19 1 4 3 -2 6 -13 5 -11 0 -14 -3 -6 -6z"/>
<path d="M7668 5643 c7 -3 16 -2 19 1 4 3 -2 6 -13 5 -11 0 -14 -3 -6 -6z"/>
<path d="M8584 5635 c-22 -17 -69 -20 -59 -4 4 6 -11 1 -33 -10 -22 -11 -42
-25 -44 -31 -2 -7 -66 -11 -181 -11 -98 -1 -177 -5 -177 -10 0 -14 -397 -11
-423 3 -12 6 -57 12 -99 12 -43 1 -78 3 -78 6 0 3 -25 3 -55 2 -30 -2 -55 0
-55 5 0 5 -36 5 -82 1 -46 -4 -90 -5 -99 -2 -10 2 -16 -2 -16 -11 0 -9 6 -14
12 -11 6 2 27 1 46 -4 34 -8 34 -8 -11 -8 -43 -1 -103 15 -70 18 10 1 7 4 -6
10 -28 11 -337 25 -476 22 -67 -2 -109 1 -113 7 -3 6 -13 11 -21 11 -8 0 -12
-4 -9 -10 4 -6 -36 -10 -114 -10 -93 0 -123 3 -135 15 -10 10 -32 14 -68 13
-43 -1 -46 -2 -15 -5 20 -2 37 -8 37 -14 0 -5 -97 -9 -237 -9 -342 1 -335 1
-328 -9 14 -23 -305 -13 -420 12 -38 9 -77 14 -85 12 -8 -2 -78 -6 -155 -9
-77 -3 -183 -8 -235 -12 l-95 -7 46 -12 c25 -7 106 -13 179 -13 74 -1 136 -6
139 -11 3 -5 15 -11 26 -14 11 -3 0 -4 -25 -1 -131 15 -163 15 -170 5 -11 -19
-105 -25 -157 -10 -42 12 -128 16 -203 10 -14 -1 -47 -1 -75 0 -86 3 -305 -13
-300 -22 6 -8 -62 -25 -80 -20 -14 4 -182 1 -230 -4 -22 -3 -98 -7 -170 -9
-71 -2 -206 -7 -300 -11 -93 -4 -178 -7 -187 -7 -27 1 -31 -16 -6 -24 12 -4
74 -7 138 -7 102 -1 108 -1 55 -9 -83 -11 -90 -16 -21 -17 77 -1 64 -14 -17
-16 -34 -1 -83 -3 -109 -4 -27 0 -48 -4 -48 -8 0 -5 63 -9 140 -9 77 -1 137 3
134 7 -3 5 0 9 7 9 7 0 4 6 -7 14 -31 23 -12 27 60 12 37 -8 75 -12 84 -9 9 4
13 2 9 -4 -4 -6 4 -9 19 -7 14 1 28 -4 30 -11 7 -16 79 -35 124 -31 19 1 58 4
85 5 41 2 46 4 25 11 -14 4 -45 9 -70 11 -25 1 5 5 65 8 68 4 113 2 117 -4 5
-6 12 -5 20 3 9 9 9 12 -2 12 -7 0 -10 3 -7 6 3 4 2 14 -3 23 -8 16 -4 16 40
7 53 -11 57 -28 12 -45 l-27 -9 30 -2 c54 -3 -3 -18 -75 -21 -64 -2 -64 -2
-20 -9 27 -4 34 -8 19 -8 -14 -1 -29 -5 -33 -9 -10 -11 -196 -31 -190 -21 7
11 -10 10 -21 -1 -14 -12 -105 -21 -105 -10 0 5 12 10 28 10 23 2 24 2 5 6
-13 2 -23 9 -23 14 0 5 -50 9 -112 9 -77 0 -108 -3 -98 -10 12 -8 9 -10 -12
-10 -16 0 -28 -4 -28 -10 0 -5 -17 -10 -38 -10 -20 0 -51 -4 -68 -9 -36 -10
-87 -3 -78 11 4 6 -1 6 -13 0 -24 -13 -143 -14 -122 -1 11 7 10 9 -6 10 -11 0
-28 2 -37 4 -10 2 -18 -1 -18 -6 0 -5 -47 -9 -105 -9 -67 0 -105 4 -105 11 0
6 -15 8 -43 4 -62 -9 -121 6 -125 32 -3 17 1 20 22 16 14 -3 24 -10 23 -17 -2
-11 5 -12 61 -7 24 2 25 3 7 10 -13 6 12 11 75 15 52 3 113 8 135 9 22 2 -75
4 -215 4 -140 0 -229 -3 -197 -6 51 -5 59 -9 77 -38 l19 -33 -67 4 c-37 2
-100 9 -140 15 -70 11 -152 6 -152 -9 0 -3 -8 -7 -17 -7 -53 1 -69 -5 -79 -27
-7 -15 -8 -30 -2 -40 8 -14 2 -16 -44 -15 -34 1 -45 3 -31 7 46 14 7 30 -79
33 -47 2 -84 1 -82 -3 2 -4 -10 -8 -28 -10 -29 -4 -26 -5 20 -12 30 -5 48 -12
42 -16 -19 -11 14 -20 83 -21 34 -1 54 -3 44 -6 -10 -3 -14 -9 -10 -16 4 -7 0
-6 -10 1 -9 8 -22 12 -29 9 -8 -4 -7 -6 5 -6 9 -1 17 -6 17 -11 0 -7 -13 -9
-32 -5 -18 4 -44 2 -58 -4 -17 -7 -20 -10 -7 -10 9 -1 17 -5 17 -10 0 -4 15
-13 33 -18 l32 -10 -34 -9 -35 -10 45 -22 44 -22 -42 0 c-53 0 -69 -20 -16
-21 35 0 36 -1 16 -11 -27 -13 -29 -25 -5 -31 9 -2 -2 -2 -25 0 -23 2 -44 -1
-48 -7 -4 -6 4 -10 19 -10 38 0 42 -20 4 -21 -31 -1 -32 -1 -8 -9 14 -4 19 -8
12 -9 -6 -1 -11 -7 -10 -13 2 -8 -6 -12 -17 -11 l-20 2 20 -16 c19 -14 17 -15
-25 -9 -36 6 -43 5 -32 -5 20 -21 14 -29 -20 -30 -30 -1 -28 -3 22 -19 30 -11
66 -19 80 -20 21 0 23 -2 8 -11 -12 -6 -32 -6 -63 2 -25 6 -48 9 -51 6 -3 -3
8 -8 25 -12 34 -7 41 -21 13 -28 -14 -3 -13 -6 8 -15 19 -8 21 -11 8 -13 -33
-3 -36 -4 -44 -11 -4 -5 3 -8 15 -8 14 0 20 -4 15 -11 -3 -6 -1 -15 7 -19 8
-6 0 -11 -26 -16 -36 -6 -37 -8 -16 -16 16 -5 21 -13 17 -24 -4 -11 -2 -15 8
-11 10 4 13 1 9 -8 -3 -9 4 -18 18 -24 13 -5 18 -10 12 -10 -7 -1 -13 -5 -13
-10 0 -5 9 -7 20 -4 11 3 20 2 20 -2 0 -10 -27 -35 -39 -35 -6 0 -11 -5 -11
-11 0 -5 4 -8 9 -4 5 3 12 1 15 -4 7 -10 -30 -24 -59 -22 -20 2 -20 1 -1 -14
11 -8 24 -15 29 -15 4 0 6 -4 2 -9 -3 -5 -1 -12 4 -16 6 -3 8 -12 5 -19 -3 -8
1 -29 9 -49 14 -33 14 -35 -6 -45 l-22 -11 23 -7 c30 -9 28 -28 -3 -22 -13 3
-22 2 -20 -3 3 -4 -1 -9 -7 -12 -7 -3 12 -8 41 -12 44 -7 51 -10 33 -16 -36
-13 -25 -29 21 -30 32 -2 35 -3 13 -6 -16 -3 -40 -12 -53 -20 -21 -14 -22 -17
-8 -33 18 -19 19 -30 4 -30 -13 0 -33 -21 -37 -40 -2 -8 -8 -17 -13 -18 -6 -3
-5 -10 2 -18 17 -20 11 -22 -46 -14 -27 4 -41 8 -30 9 11 1 27 6 35 11 10 7
-23 10 -102 10 -72 0 -118 -4 -118 -10 0 -5 9 -10 19 -10 11 0 27 -3 36 -6 13
-5 14 -8 3 -15 -8 -5 18 -9 65 -9 44 0 77 -4 77 -10 0 -5 -12 -10 -27 -11
l-28 -1 25 -8 c20 -6 16 -8 -25 -10 -55 -2 -111 -18 -67 -19 13 -1 20 -5 17
-11 -3 -6 5 -10 19 -10 35 0 23 -30 -13 -31 -22 0 -20 -3 17 -18 52 -21 45
-31 -22 -32 -52 -1 -51 -2 19 -15 l40 -7 -30 -7 -30 -7 25 -11 c23 -10 20 -11
-25 -12 l-50 -1 30 -14 c25 -11 26 -14 10 -15 -11 -1 -26 -2 -32 -1 -7 1 -13
-3 -13 -9 0 -5 15 -11 33 -11 17 -1 24 -3 15 -6 -9 -2 -20 -13 -23 -24 -4 -13
-15 -19 -35 -19 -16 0 -32 -4 -35 -10 -3 -5 2 -10 12 -10 17 -1 17 -1 0 -11
-10 -6 -30 -8 -45 -5 -20 5 -23 4 -12 -3 8 -6 49 -18 90 -28 l75 -17 -52 -6
c-28 -3 -55 -9 -60 -14 -4 -5 2 -7 15 -3 12 3 20 1 16 -4 -3 -5 -13 -9 -22
-10 -12 0 -9 -4 8 -12 14 -6 31 -17 38 -24 11 -11 10 -13 -5 -14 -10 -1 -25 0
-32 1 -12 1 -12 -1 -3 -13 15 -17 6 -28 -16 -19 -15 5 -15 4 -3 -11 12 -15 12
-17 -3 -11 -12 5 -15 2 -10 -10 3 -9 10 -16 15 -16 4 0 6 -7 3 -15 -4 -9 6
-22 30 -36 42 -25 45 -36 11 -45 -29 -7 -33 -21 -7 -27 28 -7 -38 -29 -68 -23
-21 5 -20 3 8 -12 18 -10 29 -21 25 -25 -4 -5 -1 -12 7 -18 13 -8 13 -10 0
-20 -11 -8 -12 -12 -2 -16 6 -2 12 -13 12 -24 0 -10 5 -19 10 -19 6 0 10 -4
10 -10 0 -5 -8 -10 -17 -10 -14 0 -10 -7 14 -32 28 -27 38 -31 82 -30 32 0 54
-4 61 -14 7 -8 19 -14 26 -14 8 0 14 -4 14 -10 0 -5 -7 -10 -16 -10 -8 0 -12
-4 -9 -10 3 -5 15 -10 26 -10 10 0 19 -4 19 -10 0 -5 -7 -10 -15 -10 -8 0 -15
-7 -15 -15 0 -8 6 -15 13 -15 8 0 8 -3 -2 -9 -8 -5 -21 -6 -30 -3 -14 5 -14 4
-2 -11 12 -15 12 -17 -3 -11 -12 5 -15 2 -10 -10 3 -9 11 -16 18 -16 7 0 6 -3
-2 -9 -10 -6 -10 -10 3 -21 20 -17 19 -30 -2 -31 -15 0 -15 -2 2 -9 11 -5 16
-9 10 -10 -5 -1 -1 -5 10 -10 17 -7 15 -9 -12 -9 -45 -1 -50 -18 -7 -26 42 -7
38 -18 -5 -17 -23 0 -29 -4 -28 -18 1 -11 6 -16 16 -12 9 3 12 1 7 -6 -3 -6 2
-15 11 -21 16 -9 16 -12 3 -22 -11 -8 -12 -12 -2 -16 6 -2 12 -13 12 -23 0
-10 5 -22 12 -26 8 -5 7 -9 -5 -13 -15 -6 -13 -11 12 -39 l30 -32 -25 0 c-13
0 -24 -4 -24 -10 0 -5 14 -10 30 -10 17 0 30 -5 30 -11 0 -7 -12 -10 -30 -7
-19 3 -30 0 -30 -7 0 -8 11 -11 28 -8 l27 4 -27 -18 c-16 -10 -28 -21 -28 -25
0 -5 -11 -8 -25 -8 -25 0 -37 -20 -12 -20 6 0 4 -5 -6 -11 -13 -8 -31 -8 -62
0 -24 6 -47 11 -52 10 -13 -1 139 -48 179 -54 21 -4 36 -11 32 -16 -6 -11 -44
-12 -44 -1 0 4 -10 7 -22 7 -13 1 -39 4 -58 7 -23 5 -28 4 -15 -2 39 -16 60
-23 68 -21 5 1 6 -3 2 -9 -3 -5 -14 -10 -23 -11 -10 0 -4 -6 15 -15 33 -14 51
-33 34 -35 -6 -1 -15 -3 -21 -4 -5 -1 -13 -3 -17 -4 -5 -1 -1 -5 7 -11 11 -7
9 -11 -13 -19 -25 -10 -27 -13 -16 -33 7 -13 12 -24 11 -25 -6 -10 13 -33 27
-33 14 0 14 -2 1 -10 -12 -8 -11 -10 7 -10 34 0 35 -14 1 -30 l-32 -13 25 -10
c24 -9 24 -10 -10 -19 -19 -5 -44 -7 -55 -4 -20 5 -20 4 -3 -9 14 -10 15 -14
5 -18 -7 -2 -2 -2 11 0 18 3 22 0 18 -11 -4 -9 -2 -16 4 -16 6 0 8 -9 4 -20
-4 -12 -2 -20 5 -20 7 0 9 -7 6 -17 -4 -9 -1 -20 6 -25 11 -6 10 -10 -1 -17
-21 -14 44 -71 81 -71 16 0 45 -7 65 -15 33 -14 34 -14 22 2 -13 15 -10 16 36
11 27 -4 51 -10 52 -15 2 -5 21 -7 43 -5 22 2 46 0 53 -6 6 -5 29 -8 50 -5 25
2 43 -1 53 -12 9 -8 32 -15 52 -14 30 0 33 2 17 9 -23 10 -5 13 19 4 9 -3 13
-11 9 -16 -4 -7 6 -8 31 -4 21 4 36 3 36 -3 0 -14 -107 -26 -123 -13 -7 6 -31
8 -57 5 l-45 -6 35 -13 c19 -7 47 -13 63 -13 15 -1 27 -5 27 -11 0 -5 5 -10
11 -10 5 0 7 5 4 10 -9 15 45 32 85 26 19 -3 51 -5 70 -6 24 0 31 -3 21 -9 -8
-6 19 -9 74 -10 48 -1 91 -4 96 -7 5 -3 9 -1 9 5 0 6 -12 14 -28 17 -15 4 -30
12 -34 18 -5 8 -13 7 -28 -1 -11 -7 -26 -13 -34 -13 -21 0 -66 22 -66 32 0 13
38 9 43 -4 4 -10 7 -10 14 -1 5 7 14 9 23 3 8 -5 21 -5 30 0 8 4 122 7 252 7
130 -1 234 1 231 6 -2 4 17 8 44 9 63 2 67 2 141 -9 47 -7 62 -7 59 2 -4 8 19
10 77 9 l81 -2 -90 11 c-55 7 -85 15 -77 20 21 14 442 21 442 7 0 -7 12 -9 35
-4 25 4 35 3 35 -6 0 -9 10 -11 30 -6 17 3 30 1 30 -4 0 -6 -6 -11 -12 -11 -7
-1 3 -5 22 -10 35 -8 35 -8 -7 -6 -24 2 -43 0 -43 -3 0 -4 -32 -4 -95 0 -19 1
-19 2 -1 9 31 12 -4 21 -45 11 -28 -7 -30 -8 -9 -9 20 -1 22 -3 10 -11 -16
-10 -1 -12 125 -15 33 -1 69 -7 80 -14 17 -10 8 -11 -52 -9 -40 2 -73 0 -73
-4 0 -4 46 -8 102 -8 110 0 119 -8 30 -27 l-57 -12 65 6 c36 3 70 9 76 14 6 5
37 8 70 7 32 0 208 -1 389 0 189 0 319 -3 305 -8 l-25 -8 27 -1 c14 -1 35 -4
45 -9 11 -4 -25 -10 -87 -13 -58 -4 89 -5 325 -2 484 5 762 5 850 -1 36 -3 50
-1 35 3 -21 7 -15 9 31 15 31 5 66 5 78 1 12 -4 21 -2 21 4 0 6 7 11 15 11 8
0 15 -4 15 -10 0 -5 8 -10 18 -9 10 0 12 3 4 6 -30 12 3 20 70 17 266 -12 367
-13 373 -4 4 6 -14 10 -47 11 -29 1 -66 5 -83 9 -18 5 19 7 94 6 95 -1 125 -4
129 -15 3 -10 -2 -11 -19 -6 -20 7 -21 6 -9 -7 11 -10 48 -14 143 -16 115 -2
154 6 111 22 -8 3 -13 10 -9 15 6 10 51 9 62 -2 3 -4 16 -7 27 -7 16 0 18 2 7
9 -9 6 5 10 43 12 32 2 59 2 61 1 6 -6 327 -2 355 4 18 4 21 3 12 -4 -16 -11
33 -23 104 -27 23 -1 46 -5 53 -9 18 -12 47 3 59 30 16 33 16 32 -13 26 -15
-2 -25 0 -25 7 0 6 7 11 15 11 8 0 15 5 15 10 0 6 -4 10 -10 10 -5 0 -10 7
-10 15 0 16 25 21 35 6 3 -5 19 3 36 19 17 15 28 33 25 39 -4 5 -4 22 0 37 7
27 7 27 78 20 137 -12 170 -18 152 -28 -9 -5 -22 -8 -28 -7 -7 1 -22 0 -33 -1
-36 -4 36 -18 102 -19 34 0 63 -6 65 -12 6 -18 38 2 54 33 17 33 22 33 129 9
43 -9 38 -12 -37 -20 -32 -3 10 -12 98 -21 l99 -9 22 27 c27 33 29 52 6 52
-16 1 -15 3 4 19 12 10 20 21 18 23 -3 3 6 10 19 18 22 11 24 18 20 63 -4 54
4 67 44 67 12 0 22 5 22 11 0 5 5 7 10 4 6 -4 10 5 10 19 0 20 -6 27 -27 32
-45 11 -46 15 -11 51 27 28 30 35 18 43 -13 8 -13 11 -1 19 11 7 11 9 0 14 -8
3 15 5 51 5 103 -1 100 -2 96 32 -2 22 1 30 13 30 12 0 13 2 3 9 -7 4 -19 20
-27 34 -12 24 -12 27 13 36 26 9 25 9 -13 11 l-40 1 28 24 c15 14 23 25 18 25
-6 0 -8 12 -4 30 3 20 1 30 -6 30 -16 0 -7 61 11 75 15 11 22 59 7 50 -5 -4
-9 -2 -9 4 0 17 19 22 38 12 15 -8 18 -6 17 9 -1 11 -4 23 -8 26 -12 13 -7 24
10 24 14 0 13 4 -6 21 -22 21 -22 22 -5 32 28 15 31 23 29 75 -2 45 9 79 30
94 6 4 2 8 -7 8 -11 0 -18 8 -18 20 0 11 -4 20 -10 20 -5 0 -10 5 -10 10 0 6
9 10 20 10 31 0 54 43 42 77 -10 27 -10 27 -11 -13 -1 -38 -3 -41 -31 -42 -16
0 -32 3 -35 8 -3 5 -13 6 -21 3 -9 -3 0 15 20 41 37 49 44 70 26 81 -17 11
-11 35 9 35 13 0 20 10 25 32 4 19 2 34 -4 36 -16 6 -12 22 5 22 8 0 15 9 15
20 0 11 6 23 14 26 18 7 9 42 -18 72 -17 19 -18 25 -7 32 21 13 5 40 -29 46
-16 4 -30 10 -30 15 0 5 -12 6 -27 3 -16 -3 -40 -1 -56 5 -24 10 -26 13 -15
31 9 14 24 20 49 20 20 0 42 6 48 14 19 22 22 84 5 90 -20 8 -17 26 4 27 13 0
12 2 -5 9 -13 5 -23 14 -23 19 0 5 -2 16 -5 23 -4 9 4 19 17 26 22 10 21 11
-12 12 l-35 1 28 24 c19 17 23 25 13 25 -9 0 -16 5 -16 10 0 6 5 10 10 10 15
0 12 26 -4 39 -16 13 -10 55 10 72 21 17 18 49 -5 49 -11 0 -23 5 -27 11 -4 8
7 10 38 8 46 -4 58 9 35 39 -8 10 -5 14 12 19 21 5 20 7 -15 32 l-37 26 39 6
c21 3 33 7 25 8 -8 0 -11 4 -8 7 3 4 -3 18 -14 32 -15 20 -17 27 -7 34 10 6 8
13 -9 27 -21 17 -21 20 -5 26 15 6 14 8 -5 16 -13 4 -23 13 -23 18 0 5 -10 12
-22 14 -13 2 -5 3 17 1 22 -2 47 0 55 6 12 7 8 10 -15 10 -40 0 -75 10 -75 21
0 5 7 6 15 2 9 -3 15 -2 14 3 -5 27 4 41 34 52 19 7 28 15 21 20 -19 12 -34
49 -34 83 0 29 2 31 29 26 49 -10 71 1 67 34 -3 24 0 29 18 30 18 0 19 1 3 7
-10 4 -24 19 -31 34 -14 25 -13 27 12 37 26 9 25 9 -13 11 l-40 1 28 24 c15
14 23 25 18 25 -6 0 -8 12 -4 30 3 20 1 30 -6 30 -18 0 -6 59 14 74 20 15 11
43 -18 52 -21 7 -20 8 7 15 16 5 37 4 46 -1 13 -7 16 -5 15 10 -1 11 -4 23 -8
26 -13 14 -7 24 16 24 21 1 21 1 2 12 -11 6 -29 20 -39 30 -19 18 -19 18 20
18 26 0 34 3 25 9 -7 5 -10 14 -7 20 4 6 0 11 -8 11 -9 0 -16 6 -16 14 0 8 -6
17 -12 19 -8 3 -6 6 5 6 23 1 22 17 -4 34 -20 14 -20 16 -2 26 17 10 16 10 -4
11 -12 0 -26 6 -30 14 -4 8 -17 16 -28 19 -11 3 -1 4 22 1 30 -4 49 -1 65 11
23 17 22 17 -23 12 -27 -2 -60 1 -79 9 -17 8 -44 12 -59 9 -22 -5 -23 -4 -6 4
11 5 37 10 58 10 23 1 37 6 37 14 0 7 17 19 38 27 20 7 31 15 24 18 -14 4 -42
65 -42 92 0 20 -19 30 -58 30 -14 0 -33 7 -42 15 -13 12 -27 13 -84 4 -68 -11
-93 -6 -66 12 13 8 13 10 0 20 -12 8 -8 9 17 5 34 -6 123 20 123 35 0 14 -6
13 -135 -16 -11 -3 -6 2 10 10 l30 14 -36 1 c-19 0 -44 -7 -55 -15z m26 -26
c0 -11 -4 -17 -10 -14 -5 3 -10 13 -10 21 0 8 5 14 10 14 6 0 10 -9 10 -21z
m-77 -6 c-7 -2 -19 -2 -25 0 -7 3 -2 5 12 5 14 0 19 -2 13 -5z m-1840 -10 c-7
-2 -19 -2 -25 0 -7 3 -2 5 12 5 14 0 19 -2 13 -5z m590 -10 c-7 -2 -19 -2 -25
0 -7 3 -2 5 12 5 14 0 19 -2 13 -5z m47 -3 c0 -5 -8 -10 -17 -10 -15 0 -16 2
-3 10 19 12 20 12 20 0z m-1680 -21 c17 -5 2 -8 -48 -8 -63 -1 -71 1 -60 14
13 14 48 12 108 -6z m1752 8 c-12 -5 -26 -5 -36 0 -12 7 -7 9 20 9 30 0 33 -2
16 -9z m-2025 -3 c-3 -3 -12 -4 -19 -1 -8 3 -5 6 6 6 11 1 17 -2 13 -5z m128
-6 c4 -3 -21 -7 -54 -7 -34 0 -60 3 -57 7 5 9 102 9 111 0z m313 -5 c-16 -2
-40 -2 -55 0 -16 2 -3 4 27 4 30 0 43 -2 28 -4z m-1473 -53 c-28 -12 -37 -12
-30 0 3 6 16 10 28 9 21 0 21 -1 2 -9z m2785 0 c0 -5 -2 -10 -4 -10 -3 0 -8 5
-11 10 -3 6 -1 10 4 10 6 0 11 -4 11 -10z m-2670 -10 c13 -9 13 -10 0 -10 -8
0 -22 5 -30 10 -13 9 -13 10 0 10 8 0 22 -5 30 -10z m-610 -30 c0 -6 -23 -9
-52 -8 l-53 1 50 7 c28 4 51 8 53 8 1 1 2 -2 2 -8z m83 3 c-7 -2 -21 -2 -30 0
-10 3 -4 5 12 5 17 0 24 -2 18 -5z m-60 -30 c-13 -2 -35 -2 -50 0 -16 2 -5 4
22 4 28 0 40 -2 28 -4z m75 0 c-10 -2 -26 -2 -35 0 -10 3 -2 5 17 5 19 0 27
-2 18 -5z m189 -9 c-3 -3 -12 -4 -19 -1 -8 3 -5 6 6 6 11 1 17 -2 13 -5z m40
0 c-3 -3 -12 -4 -19 -1 -8 3 -5 6 6 6 11 1 17 -2 13 -5z m-1472 -64 c3 -5 -1
-10 -10 -10 -9 0 -13 5 -10 10 3 6 8 10 10 10 2 0 7 -4 10 -10z m-294 -48
c-30 -2 -58 0 -62 5 -4 4 20 6 54 3 l62 -5 -54 -3z m-591 -2108 c0 -2 -9 -4
-21 -4 -11 0 -18 4 -14 10 5 8 35 3 35 -6z m34 -74 c20 0 36 -4 36 -10 0 -5
-9 -10 -20 -10 -23 0 -90 26 -90 35 0 3 9 1 19 -5 11 -5 36 -10 55 -10z m23
-56 c-3 -3 -12 -4 -19 -1 -8 3 -5 6 6 6 11 1 17 -2 13 -5z m6298 -1117 c11 0
73 3 137 6 64 2 132 1 150 -3 l33 -7 -30 -14 c-31 -13 -276 -16 -298 -2 -6 4
-58 5 -116 4 -71 -2 -103 1 -96 8 12 12 83 18 150 12 28 -2 59 -4 70 -4z
m-6192 -14 c-7 -2 -19 -2 -25 0 -7 3 -2 5 12 5 14 0 19 -2 13 -5z m6156 -39
c2 -2 -12 -4 -33 -4 -22 0 -35 4 -31 10 5 9 52 4 64 -6z m335 7 c7 -11 -28
-21 -69 -20 l-30 1 30 13 c35 16 62 19 69 6z m-6336 -57 c11 -3 10 -7 -1 -19
-14 -13 -23 -13 -81 2 -36 10 -66 21 -66 26 0 7 119 0 148 -9z m975 9 c-7 -2
-21 -2 -30 0 -10 3 -4 5 12 5 17 0 24 -2 18 -5z m50 0 c-7 -2 -19 -2 -25 0 -7
3 -2 5 12 5 14 0 19 -2 13 -5z m215 0 c-10 -2 -28 -2 -40 0 -13 2 -5 4 17 4
22 1 32 -1 23 -4z m-38 -44 c14 -25 13 -29 -7 -30 -12 -1 -10 -4 7 -9 14 -4
18 -8 10 -9 -8 0 -35 6 -60 13 -38 12 -41 15 -17 15 26 1 27 2 13 17 -18 17
-21 28 -7 19 5 -3 12 -1 16 4 8 14 33 3 45 -20z m30 21 c8 -5 11 -10 5 -10 -5
0 -17 5 -25 10 -8 5 -10 10 -5 10 6 0 17 -5 25 -10z m-321 -16 c2 -2 -7 -5
-20 -5 -21 -1 -21 -2 6 -9 l30 -8 -36 -1 c-53 -2 -97 9 -103 25 -4 11 6 13 57
8 34 -3 64 -7 66 -10z m186 6 c-3 -5 -16 -10 -28 -10 -24 0 -13 -16 18 -23 11
-3 -3 -5 -32 -6 -34 -1 -57 4 -67 14 -8 8 -22 12 -30 9 -9 -3 -16 -1 -16 5 0
6 14 11 31 11 16 0 28 -4 25 -9 -3 -5 5 -8 19 -8 14 0 22 3 20 8 -3 4 9 10 27
12 18 2 34 5 36 5 2 1 0 -2 -3 -8z m198 3 c-7 -2 -21 -2 -30 0 -10 3 -4 5 12
5 17 0 24 -2 18 -5z m544 -19 c-3 -3 -12 -4 -19 -1 -8 3 -5 6 6 6 11 1 17 -2
13 -5z m448 -12 c-3 -3 -11 0 -18 7 -9 10 -8 11 6 5 10 -3 15 -9 12 -12z m262
2 c-3 -3 -12 -4 -19 -1 -8 3 -5 6 6 6 11 1 17 -2 13 -5z m2480 0 c-3 -3 -12
-4 -19 -1 -8 3 -5 6 6 6 11 1 17 -2 13 -5z m110 0 c-3 -3 -12 -4 -19 -1 -8 3
-5 6 6 6 11 1 17 -2 13 -5z m-244 -11 c-7 -2 -19 -2 -25 0 -7 3 -2 5 12 5 14
0 19 -2 13 -5z m-2842 -12 c-11 -7 -6 -11 20 -14 19 -2 -4 -4 -51 -4 -47 0
-73 2 -57 4 15 2 27 9 27 14 0 5 17 9 38 9 26 0 33 -3 23 -9z m499 -1 c-46 -4
-58 -7 -40 -12 17 -4 8 -6 -25 -6 -67 1 -77 -1 -71 -10 2 -4 -14 -6 -36 -4
-28 3 -36 7 -27 13 10 6 8 9 -9 9 -14 0 -21 -4 -16 -11 4 -8 -1 -9 -15 -4 -12
4 -52 7 -88 6 -50 0 -62 3 -55 12 8 9 70 12 229 12 120 1 189 -2 153 -5z m169
-16 c9 -8 -55 -2 -74 6 -13 6 -5 7 25 3 25 -3 47 -7 49 -9z m2798 -10 c-3 -3
-12 -4 -19 -1 -8 3 -5 6 6 6 11 1 17 -2 13 -5z m-3067 -8 c0 -3 -4 -8 -10 -11
-5 -3 -10 -1 -10 4 0 6 5 11 10 11 6 0 10 -2 10 -4z m2987 -2 c-3 -3 -12 -4
-19 -1 -8 3 -5 6 6 6 11 1 17 -2 13 -5z m-3404 -21 c-13 -2 -33 -2 -45 0 -13
2 -3 4 22 4 25 0 35 -2 23 -4z m152 -3 c3 -6 -1 -7 -9 -4 -18 7 -21 14 -7 14
6 0 13 -4 16 -10z m472 4 c-3 -3 -12 -4 -19 -1 -8 3 -5 6 6 6 11 1 17 -2 13
-5z m2081 -11 c61 -10 32 -22 -50 -20 -49 1 -88 7 -96 14 -10 10 0 12 50 12
35 0 78 -3 96 -6z m-1173 -23 c4 -6 -12 -9 -42 -9 l-48 2 40 7 c22 4 41 8 42
9 1 0 5 -3 8 -9z m-246 -4 c-9 -8 -99 -13 -99 -5 0 5 23 9 52 9 28 0 49 -2 47
-4z"/>
<path d="M5978 5633 c34 -2 88 -2 120 0 31 2 3 3 -63 3 -66 0 -92 -1 -57 -3z"/>
<path d="M6948 5633 c6 -2 18 -2 25 0 6 3 1 5 -13 5 -14 0 -19 -2 -12 -5z"/>
<path d="M4080 5610 l-25 -8 28 -1 c15 -1 27 4 27 9 0 6 -1 10 -2 9 -2 -1 -14
-5 -28 -9z"/>
<path d="M5498 5613 c6 -2 18 -2 25 0 6 3 1 5 -13 5 -14 0 -19 -2 -12 -5z"/>
<path d="M4476 5581 c10 -11 72 -27 63 -17 -4 4 -21 11 -39 16 -20 6 -30 6
-24 1z"/>
<path d="M3650 5570 l-25 -8 28 -1 c15 -1 27 4 27 9 0 6 -1 10 -2 9 -2 -1 -14
-5 -28 -9z"/>
<path d="M7733 5573 c9 -2 25 -2 35 0 9 3 1 5 -18 5 -19 0 -27 -2 -17 -5z"/>
<path d="M3090 5550 l-25 -8 28 -1 c15 -1 27 4 27 9 0 6 -1 10 -2 9 -2 -1 -14
-5 -28 -9z"/>
<path d="M3778 5533 c7 -3 16 -2 19 1 4 3 -2 6 -13 5 -11 0 -14 -3 -6 -6z"/>
<path d="M4058 5533 c7 -3 16 -2 19 1 4 3 -2 6 -13 5 -11 0 -14 -3 -6 -6z"/>
<path d="M3218 5513 c7 -3 16 -2 19 1 4 3 -2 6 -13 5 -11 0 -14 -3 -6 -6z"/>
<path d="M3498 5513 c7 -3 16 -2 19 1 4 3 -2 6 -13 5 -11 0 -14 -3 -6 -6z"/>
<path d="M3233 5423 c9 -2 25 -2 35 0 9 3 1 5 -18 5 -19 0 -27 -2 -17 -5z"/>
<path d="M3518 5403 c6 -2 18 -2 25 0 6 3 1 5 -13 5 -14 0 -19 -2 -12 -5z"/>
<path d="M2788 5353 c7 -3 16 -2 19 1 4 3 -2 6 -13 5 -11 0 -14 -3 -6 -6z"/>
<path d="M3213 5353 c9 -2 23 -2 30 0 6 3 -1 5 -18 5 -16 0 -22 -2 -12 -5z"/>
<path d="M2015 5327 c-22 -5 -46 -16 -53 -24 -21 -21 12 -28 67 -14 25 7 58
15 74 18 15 3 27 12 27 19 0 17 -55 17 -115 1z"/>
<path d="M3793 5333 c9 -2 23 -2 30 0 6 3 -1 5 -18 5 -16 0 -22 -2 -12 -5z"/>
<path d="M2128 5293 c7 -3 16 -2 19 1 4 3 -2 6 -13 5 -11 0 -14 -3 -6 -6z"/>
<path d="M8918 5292 c12 -8 72 -4 72 4 0 2 -19 4 -42 4 -26 0 -38 -4 -30 -8z"/>
<path d="M8918 4953 c7 -3 16 -2 19 1 4 3 -2 6 -13 5 -11 0 -14 -3 -6 -6z"/>
<path d="M1868 4893 c7 -3 16 -2 19 1 4 3 -2 6 -13 5 -11 0 -14 -3 -6 -6z"/>
<path d="M1805 4870 c28 -12 37 -12 30 0 -3 6 -16 10 -28 9 -21 0 -21 -1 -2
-9z"/>
<path d="M1888 4713 c7 -3 16 -2 19 1 4 3 -2 6 -13 5 -11 0 -14 -3 -6 -6z"/>
<path d="M1828 4633 c7 -3 16 -2 19 1 4 3 -2 6 -13 5 -11 0 -14 -3 -6 -6z"/>
<path d="M1773 4593 c9 -2 25 -2 35 0 9 3 1 5 -18 5 -19 0 -27 -2 -17 -5z"/>
<path d="M1833 4503 c9 -2 23 -2 30 0 6 3 -1 5 -18 5 -16 0 -22 -2 -12 -5z"/>
<path d="M8826 4360 c7 -7 19 -7 35 -1 23 9 22 10 -10 10 -24 1 -32 -2 -25 -9z"/>
<path d="M1948 4203 c7 -3 16 -2 19 1 4 3 -2 6 -13 5 -11 0 -14 -3 -6 -6z"/>
<path d="M1795 4144 c-71 -16 -104 -28 -99 -36 4 -6 0 -14 -7 -20 -9 -6 5 -7
41 -2 30 3 60 10 65 14 6 4 25 11 43 15 18 4 31 12 29 18 -4 13 -39 18 -72 11z"/>
<path d="M1513 3913 c9 -2 25 -2 35 0 9 3 1 5 -18 5 -19 0 -27 -2 -17 -5z"/>
<path d="M1568 3823 c7 -3 16 -2 19 1 4 3 -2 6 -13 5 -11 0 -14 -3 -6 -6z"/>
<path d="M1660 3720 c0 -5 5 -10 10 -10 6 0 10 5 10 10 0 6 -4 10 -10 10 -5 0
-10 -4 -10 -10z"/>
<path d="M1605 3700 c-3 -6 1 -7 9 -4 18 7 21 14 7 14 -6 0 -13 -4 -16 -10z"/>
<path d="M1548 3673 c7 -3 16 -2 19 1 4 3 -2 6 -13 5 -11 0 -14 -3 -6 -6z"/>
<path d="M1638 3613 c7 -3 16 -2 19 1 4 3 -2 6 -13 5 -11 0 -14 -3 -6 -6z"/>
<path d="M1548 3443 c7 -3 16 -2 19 1 4 3 -2 6 -13 5 -11 0 -14 -3 -6 -6z"/>
<path d="M8788 2653 c7 -3 16 -2 19 1 4 3 -2 6 -13 5 -11 0 -14 -3 -6 -6z"/>
<path d="M1718 2443 c7 -3 16 -2 19 1 4 3 -2 6 -13 5 -11 0 -14 -3 -6 -6z"/>
<path d="M1720 2330 c-18 -12 -2 -12 25 0 13 6 15 9 5 9 -8 0 -22 -4 -30 -9z"/>
<path d="M8615 2200 c3 -5 11 -10 16 -10 6 0 7 5 4 10 -3 6 -11 10 -16 10 -6
0 -7 -4 -4 -10z"/>
<path d="M1785 1970 c3 -5 8 -10 11 -10 2 0 4 5 4 10 0 6 -5 10 -11 10 -5 0
-7 -4 -4 -10z"/>
<path d="M8475 1840 c-3 -5 -2 -10 4 -10 5 0 13 5 16 10 3 6 2 10 -4 10 -5 0
-13 -4 -16 -10z"/>
<path d="M3623 1793 c9 -2 23 -2 30 0 6 3 -1 5 -18 5 -16 0 -22 -2 -12 -5z"/>
<path d="M3700 1792 c0 -4 16 -6 35 -4 19 2 35 6 35 8 0 2 -16 4 -35 4 -19 0
-35 -4 -35 -8z"/>
<path d="M3558 1773 c7 -3 16 -2 19 1 4 3 -2 6 -13 5 -11 0 -14 -3 -6 -6z"/>
<path d="M3858 1773 c6 -2 18 -2 25 0 6 3 1 5 -13 5 -14 0 -19 -2 -12 -5z"/>
<path d="M2198 1743 c7 -3 16 -2 19 1 4 3 -2 6 -13 5 -11 0 -14 -3 -6 -6z"/>
<path d="M2483 1703 c9 -2 23 -2 30 0 6 3 -1 5 -18 5 -16 0 -22 -2 -12 -5z"/>
<path d="M3178 1693 c7 -3 16 -2 19 1 4 3 -2 6 -13 5 -11 0 -14 -3 -6 -6z"/>
<path d="M4568 1683 c7 -3 16 -2 19 1 4 3 -2 6 -13 5 -11 0 -14 -3 -6 -6z"/>
<path d="M6969 1681 c7 -5 35 -9 61 -9 26 0 54 4 61 9 9 5 -15 9 -61 9 -46 0
-70 -4 -61 -9z"/>
<path d="M7245 1680 c-27 -11 59 -11 95 0 20 6 14 8 -25 8 -27 0 -59 -3 -70
-8z"/>
<path d="M2558 1673 c7 -3 16 -2 19 1 4 3 -2 6 -13 5 -11 0 -14 -3 -6 -6z"/>
<path d="M2603 1663 c9 -2 23 -2 30 0 6 3 -1 5 -18 5 -16 0 -22 -2 -12 -5z"/>
<path d="M3973 1653 c9 -2 23 -2 30 0 6 3 -1 5 -18 5 -16 0 -22 -2 -12 -5z"/>
<path d="M6028 1653 c6 -2 18 -2 25 0 6 3 1 5 -13 5 -14 0 -19 -2 -12 -5z"/>
<path d="M6098 1653 c7 -3 16 -2 19 1 4 3 -2 6 -13 5 -11 0 -14 -3 -6 -6z"/>
<path d="M6393 1643 c26 -2 68 -2 95 0 26 2 4 3 -48 3 -52 0 -74 -1 -47 -3z"/>
</g>
</svg>
