<?xml version="1.0" standalone="no"?>
<!DOCTYPE svg PUBLIC "-//W3C//DTD SVG 20010904//EN"
 "http://www.w3.org/TR/2001/REC-SVG-20010904/DTD/svg10.dtd">
<svg version="1.0" xmlns="http://www.w3.org/2000/svg"
 width="1024.000000pt" height="724.000000pt" viewBox="0 0 1024.000000 724.000000"
 preserveAspectRatio="xMidYMid meet">
<metadata>
Created by potrace 1.16, written by Peter Selinger 2001-2019
</metadata>
<g transform="translate(0.000000,724.000000) scale(0.100000,-0.100000)"
fill="#000000" stroke="none">
<path d="M2055 5400 c28 -12 57 -12 50 0 -3 6 -21 10 -38 9 -27 0 -29 -2 -12
-9z"/>
<path d="M2335 5370 c-3 -5 -21 -10 -38 -10 l-32 -1 30 -14 30 -13 -26 -1
c-46 -2 -89 -13 -83 -22 3 -5 0 -9 -7 -9 -8 0 -6 -6 4 -18 21 -23 21 -32 1
-32 -35 0 -4 -25 34 -28 23 -2 42 -6 42 -10 0 -4 -96 -3 -212 1 -168 6 -214
11 -221 22 -6 11 -14 12 -32 5 -19 -7 -23 -6 -18 5 4 12 22 14 90 10 100 -5
104 5 5 15 l-67 7 69 2 c38 0 67 3 65 5 -2 3 -38 7 -79 10 -41 3 -88 9 -105
13 -16 5 -59 5 -95 2 -41 -3 -51 -6 -27 -7 20 -1 37 -6 37 -11 0 -17 -56 -30
-114 -27 -50 2 -60 0 -64 -16 -3 -11 -10 -17 -18 -14 -8 3 -14 1 -14 -4 0 -16
37 -11 44 6 4 10 16 14 38 12 33 -3 81 -35 73 -48 -8 -13 40 -20 72 -11 19 6
63 4 119 -5 49 -7 113 -13 142 -14 37 0 51 -3 46 -11 -7 -11 -174 -7 -279 7
-29 4 -36 2 -25 -5 25 -17 3 -24 -77 -23 -63 1 -71 -1 -43 -8 19 -5 38 -6 42
-4 3 2 9 0 13 -6 3 -5 15 -10 26 -10 18 0 18 -2 6 -14 -8 -8 -27 -16 -43 -19
-28 -4 -28 -4 4 -6 18 0 43 4 54 10 16 9 23 8 29 -2 19 -30 9 -39 -41 -39 -50
0 -67 -13 -30 -23 11 -3 20 -1 20 4 0 5 24 9 53 9 39 0 48 3 37 11 -11 8 -8 9
15 4 59 -13 50 -25 -18 -25 -38 0 -67 -4 -67 -10 0 -5 9 -10 20 -10 32 0 23
-17 -12 -23 -121 -20 -119 -19 -101 -32 10 -8 20 -10 23 -5 6 10 24 13 64 11
28 -1 28 -2 13 -19 -22 -24 -21 -29 3 -35 11 -3 20 -10 20 -15 0 -6 -9 -8 -20
-5 -11 3 -20 1 -20 -5 0 -5 10 -12 23 -16 18 -5 19 -8 7 -15 -8 -5 -18 -7 -22
-5 -4 3 -8 0 -8 -7 0 -6 8 -9 20 -6 11 3 20 1 20 -4 0 -5 -9 -9 -20 -9 -26 0
-26 -17 0 -25 11 -3 19 -12 17 -18 -1 -7 5 -11 14 -9 12 2 16 -4 14 -22 -2
-14 -6 -29 -9 -35 -4 -5 2 -12 11 -14 16 -4 16 -5 -1 -6 -20 -1 -20 -1 0 -16
18 -13 18 -14 1 -15 -10 0 -25 -7 -34 -15 -15 -16 -33 -12 -33 7 0 5 7 8 15 4
10 -4 15 1 15 16 0 18 -4 20 -31 14 -17 -3 -37 -6 -44 -6 -6 0 -12 -7 -12 -15
0 -8 4 -15 9 -15 4 0 7 -3 7 -7 -3 -21 2 -33 14 -33 8 0 19 -11 25 -25 16 -35
15 -44 -3 -21 -7 10 -18 15 -24 11 -16 -9 -13 -22 7 -29 9 -3 24 -10 32 -15 8
-5 24 -13 35 -17 19 -7 18 -8 -5 -12 -13 -2 -26 1 -28 7 -2 6 -13 11 -25 10
-12 0 -17 -3 -10 -5 7 -3 2 -14 -13 -29 -13 -13 -21 -30 -18 -39 4 -11 -5 -16
-40 -21 -56 -9 -64 -33 -8 -27 26 3 46 14 69 38 18 19 36 34 41 34 16 0 10
-59 -7 -63 -10 -3 -8 -5 7 -6 51 -2 7 -39 -52 -43 -25 -2 -46 -6 -46 -10 0 -5
-26 -8 -57 -8 -58 0 -58 0 -29 -15 15 -8 35 -15 42 -15 8 0 14 -5 14 -11 0 -7
9 -5 24 4 22 15 23 14 22 -1 0 -9 12 -22 28 -30 22 -11 25 -16 15 -23 -9 -6 2
-7 29 -3 26 4 42 3 42 -4 0 -9 -55 -21 -124 -27 -11 -1 -22 -7 -24 -13 -2 -6
-10 -8 -18 -5 -8 3 -14 0 -14 -6 0 -6 5 -11 10 -11 6 0 10 -6 10 -13 0 -8 -14
-11 -45 -9 -28 3 -45 0 -45 -7 0 -6 18 -11 43 -11 l42 0 -25 -20 c-14 -10 -36
-21 -50 -23 -14 -3 -4 -4 23 -4 26 0 47 5 47 10 0 5 6 4 14 -3 26 -21 7 -40
-41 -40 -38 0 -44 -2 -33 -14 6 -8 18 -12 26 -9 8 3 14 0 14 -6 0 -7 22 -11
57 -11 67 0 64 -12 -4 -16 -27 -1 -64 -9 -83 -18 -22 -10 -28 -15 -15 -15 51
3 64 -1 59 -16 -4 -8 -14 -15 -23 -15 -14 -1 -14 -2 2 -11 9 -5 17 -17 17 -25
0 -9 -5 -12 -12 -8 -7 4 -8 3 -4 -4 4 -7 14 -12 22 -12 19 0 18 -17 -3 -30
-16 -10 -15 -11 5 -7 12 3 20 1 16 -4 -3 -5 -12 -9 -20 -9 -8 0 -14 -3 -14 -8
0 -14 45 -47 59 -44 11 3 13 -5 8 -32 -3 -20 -3 -35 1 -33 4 1 18 -6 32 -16
l25 -17 -22 -6 c-16 -4 -23 -14 -23 -30 0 -13 -4 -24 -8 -24 -5 0 -8 10 -8 21
1 12 -5 24 -11 26 -7 3 -13 -2 -13 -11 0 -9 -5 -16 -11 -16 -5 0 -7 -4 -4 -10
3 -5 2 -10 -4 -10 -6 0 -8 -8 -4 -17 3 -10 3 -15 -2 -11 -4 4 -9 26 -10 50 -1
24 0 37 2 30 6 -16 23 -6 23 14 0 12 -8 13 -37 8 -37 -7 -59 -23 -45 -34 4 -3
8 -10 9 -17 2 -6 14 -23 29 -38 15 -15 23 -32 20 -41 -3 -9 -6 -20 -6 -25 0
-5 -8 -9 -17 -9 -14 0 -15 -2 -4 -9 11 -7 9 -10 -8 -16 -11 -3 -21 -10 -21
-15 0 -5 -3 -15 -6 -24 -4 -12 0 -16 15 -16 12 0 24 7 27 15 4 8 10 15 16 15
13 0 42 -30 35 -37 -3 -3 0 -12 8 -20 13 -13 13 -16 -1 -30 -8 -9 -13 -21 -10
-28 3 -8 -2 -16 -11 -19 -10 -4 -13 -2 -10 8 5 11 -6 14 -53 13 -32 0 -57 -4
-54 -8 2 -5 -21 -9 -53 -11 l-58 -3 49 -19 c39 -16 52 -17 67 -8 11 7 18 9 17
5 -5 -19 15 -54 28 -49 17 7 28 -10 12 -18 -7 -3 3 -3 23 0 20 3 39 1 43 -4 3
-6 -16 -13 -46 -18 -29 -5 -57 -9 -63 -10 -5 -1 -16 -2 -23 -3 -7 0 -10 -6 -6
-13 4 -7 3 -8 -5 -4 -15 10 -91 -3 -91 -15 0 -6 -9 -19 -20 -31 -11 -12 -20
-17 -20 -10 0 6 5 14 10 17 23 14 7 25 -37 24 -45 -2 -46 -2 -13 -8 36 -6 31
-19 -5 -15 -99 14 -143 15 -149 5 -5 -7 5 -11 31 -12 l38 -2 -40 -7 -40 -6 30
-9 c16 -5 63 -9 102 -9 40 -1 73 -5 73 -9 0 -5 7 -15 15 -24 8 -8 13 -19 10
-24 -4 -5 0 -9 9 -9 18 0 76 -32 76 -42 0 -5 -35 -8 -79 -8 -58 0 -82 -4 -91
-15 -10 -12 -9 -15 4 -15 10 0 14 5 11 10 -8 13 26 11 90 -4 l50 -11 -35 -18
-35 -17 38 2 c20 1 37 6 37 11 0 5 6 4 14 -3 26 -21 7 -40 -40 -40 -24 0 -44
-4 -44 -10 0 -10 14 -14 38 -11 6 1 12 -3 12 -9 0 -5 9 -10 20 -10 25 0 27
-15 3 -17 -46 -4 -125 -30 -109 -36 9 -4 26 -3 38 2 25 9 68 3 68 -10 0 -6
-10 -14 -22 -19 -13 -5 -17 -9 -10 -9 13 -1 42 -25 42 -35 0 -3 -7 -3 -15 0
-8 4 -15 1 -15 -4 0 -6 10 -14 21 -17 16 -6 18 -9 8 -15 -7 -5 -17 -6 -21 -4
-4 3 -8 0 -8 -7 0 -6 8 -9 20 -6 11 3 20 1 20 -4 0 -5 -11 -9 -25 -9 -18 0
-23 -4 -19 -15 4 -8 12 -15 19 -15 7 0 15 -7 19 -15 3 -8 12 -12 20 -9 12 4
14 -2 11 -30 -2 -20 1 -34 6 -31 4 3 17 -3 28 -14 11 -11 16 -23 11 -26 -6 -4
-10 -3 -10 2 0 4 -4 1 -9 -7 -14 -21 -4 -30 37 -31 l37 -1 -29 -8 c-16 -5 -33
-15 -37 -22 -7 -10 -9 -10 -9 0 0 16 -76 16 -86 0 -4 -7 -3 -8 4 -4 7 4 12 2
12 -3 0 -6 -5 -11 -12 -11 -9 0 -9 -3 -1 -11 6 -6 27 -11 47 -11 24 0 36 -5
36 -14 0 -8 10 -14 26 -14 20 0 24 -4 19 -19 -4 -13 1 -24 17 -35 12 -9 17
-16 10 -16 -15 0 -6 -40 10 -51 5 -3 2 -9 -7 -13 -12 -4 -18 0 -22 13 -5 19
-9 19 -50 5 -16 -6 -16 -7 2 -14 17 -6 16 -8 -12 -14 -32 -7 -56 -26 -33 -26
6 0 8 -4 5 -10 -3 -5 -1 -10 4 -10 6 0 11 -7 11 -15 0 -9 9 -15 21 -15 26 0
20 -24 -7 -26 -62 -3 -74 -5 -74 -12 0 -4 18 -7 40 -7 24 0 46 -7 57 -18 16
-16 16 -17 -1 -17 -12 0 -16 -5 -12 -15 6 -16 -9 -21 -18 -6 -3 5 -17 11 -31
13 -20 4 -23 3 -14 -8 6 -8 18 -14 25 -14 8 0 14 -4 14 -9 0 -5 -6 -9 -12 -8
-31 1 -49 -4 -44 -12 3 -4 -1 -17 -9 -27 -20 -26 -19 -44 3 -45 15 0 15 -1 -2
-8 -14 -5 -16 -10 -7 -15 6 -4 18 -3 26 4 8 7 15 7 19 1 3 -5 0 -12 -6 -15 -7
-3 4 -4 25 -1 20 3 37 2 37 -3 0 -5 10 -14 23 -20 19 -9 17 -11 -23 -11 -56
-2 -81 -14 -54 -29 11 -5 25 -7 32 -5 6 3 12 0 12 -6 0 -6 -10 -12 -22 -12
-13 -1 -5 -5 17 -9 l40 -7 -35 -2 -35 -3 28 -12 c15 -7 24 -16 20 -20 -4 -4
12 -4 35 0 24 4 42 3 41 -2 -5 -28 4 -32 58 -31 37 1 58 -3 61 -11 2 -7 8 -9
14 -6 22 14 129 12 143 -2 7 -8 24 -14 37 -13 23 1 23 1 -2 9 -22 7 -21 8 13
9 20 1 37 -3 37 -9 0 -5 14 -10 31 -10 17 0 28 4 24 10 -3 6 1 10 10 10 9 0
13 -4 10 -10 -4 -6 5 -10 19 -10 14 0 26 -5 26 -11 0 -13 42 -1 53 15 5 8 9 8
15 0 9 -14 165 -17 157 -4 -4 6 1 10 9 10 9 0 16 -4 16 -10 0 -5 7 -10 16 -10
9 0 12 5 8 12 -5 9 -3 9 9 -1 16 -13 27 -12 72 4 16 6 17 5 5 -4 -12 -9 -10
-10 13 -9 15 1 27 6 27 10 0 4 7 5 15 2 8 -4 13 -10 10 -14 -6 -10 34 -25 42
-16 4 3 -1 6 -11 6 -9 0 -15 4 -11 9 3 6 33 8 68 5 34 -3 82 -7 107 -9 25 -2
70 -7 100 -10 106 -10 235 -14 210 -7 -22 7 -23 9 -7 15 10 4 32 7 48 7 16 0
29 5 29 10 0 13 -21 13 -56 0 -21 -9 -29 -7 -39 7 -12 16 -10 19 13 26 15 5
52 10 82 11 63 3 100 13 100 27 0 5 -17 9 -37 10 l-38 1 30 9 c33 10 110 4
149 -11 15 -5 43 -10 62 -10 19 0 34 -3 34 -8 0 -4 -19 -7 -42 -5 -24 1 -35 0
-25 -3 30 -9 19 -20 -30 -30 -43 -8 -45 -10 -21 -15 15 -4 25 -2 22 2 -3 5 4
9 16 9 12 0 18 -4 15 -10 -3 -5 -1 -10 4 -10 6 0 11 4 11 9 0 5 21 7 48 5 l47
-4 -40 14 c-28 10 -33 14 -18 15 30 1 75 -17 69 -28 -3 -5 4 -11 17 -15 12 -3
24 -1 25 5 3 6 10 5 20 -3 12 -10 16 -10 19 0 3 6 14 12 26 12 16 0 18 3 8 9
-17 11 90 25 119 16 11 -4 20 -2 20 4 0 7 -26 11 -67 11 -103 0 -71 7 62 13
105 5 118 4 101 -9 -17 -12 -17 -14 -4 -14 9 0 20 -4 23 -10 4 -6 -1 -7 -11
-3 -12 4 -15 3 -10 -5 9 -15 36 -16 36 -2 0 6 7 10 16 10 9 0 12 -5 8 -12 -5
-8 0 -9 14 -6 12 4 25 2 28 -3 3 -5 17 -8 32 -8 21 1 22 2 7 6 -40 10 -35 20
11 27 50 6 68 1 44 -14 -15 -9 18 -6 100 9 49 8 282 2 275 -8 -2 -5 1 -9 8 -8
53 2 87 -4 84 -16 -1 -7 12 -14 33 -16 33 -4 33 -4 10 -11 l-25 -8 25 -1 c13
-1 34 -12 45 -24 14 -17 36 -26 70 -30 34 -5 45 -4 35 3 -13 9 -13 10 0 10 8
1 39 4 69 6 46 5 53 3 48 -11 -5 -12 -1 -14 18 -9 14 4 32 1 40 -6 10 -9 35
-10 87 -5 50 5 67 10 53 15 -11 4 -41 4 -67 0 -40 -6 -46 -4 -45 10 1 12 8 15
25 12 13 -3 27 0 31 6 4 7 21 9 45 5 25 -4 33 -9 24 -14 -10 -7 -9 -9 5 -9 11
0 15 -5 11 -11 -4 -7 -1 -10 7 -7 8 3 13 12 13 21 -1 11 6 14 25 11 14 -3 72
-4 129 -4 57 1 142 -6 189 -15 102 -19 173 -25 173 -13 0 4 10 8 23 7 18 0 19
-2 5 -7 -10 -4 61 -7 157 -7 96 0 166 3 157 7 -9 4 -33 7 -52 8 -31 1 -33 2
-18 14 13 9 32 11 65 6 27 -4 51 -6 56 -3 4 2 7 -1 7 -6 0 -6 21 -11 48 -12
35 0 42 -3 27 -9 -18 -8 -17 -9 8 -9 18 -1 26 3 21 10 -4 8 21 10 87 7 84 -4
91 -3 64 8 -16 7 -23 13 -15 14 9 0 25 -7 37 -15 12 -8 53 -18 90 -21 57 -5
71 -3 83 11 12 15 11 16 -13 10 -21 -6 -27 -4 -27 9 0 13 13 16 83 16 56 0 77
3 67 10 -12 8 -9 10 13 10 16 0 26 -4 22 -10 -3 -5 1 -10 10 -10 9 0 14 4 11
8 -3 5 9 13 27 19 39 11 126 5 106 -8 -10 -6 -8 -9 9 -9 12 0 22 5 22 12 0 6
9 3 20 -7 11 -10 20 -24 20 -32 0 -7 9 -13 19 -13 11 0 21 -6 23 -12 3 -9 34
-14 93 -17 62 -2 86 0 81 8 -5 7 1 11 14 11 12 0 19 -4 16 -9 -9 -13 25 -19
83 -13 34 3 51 9 51 18 0 8 10 14 23 13 21 0 21 -1 2 -9 -19 -8 -19 -9 2 -9
12 -1 25 4 28 10 5 6 13 2 22 -11 13 -18 22 -21 49 -17 19 3 47 15 62 25 30
22 131 54 159 52 31 -4 39 0 23 10 -13 8 -13 10 1 10 9 0 19 -6 22 -13 6 -15
77 -33 165 -43 72 -7 75 -19 4 -17 -47 2 -47 2 -9 -6 66 -14 54 -24 -23 -18
-41 3 -67 3 -57 1 9 -3 17 -12 17 -20 0 -10 11 -14 38 -13 30 2 32 3 10 6 -16
2 -28 8 -28 12 0 12 63 0 78 -15 17 -18 82 -18 116 -1 34 18 23 27 -31 27 -25
0 -43 5 -43 11 0 8 13 9 42 5 23 -4 78 -9 122 -12 45 -2 92 -7 105 -10 21 -4
23 -3 12 9 -9 12 -9 16 1 20 7 3 2 6 -12 6 -15 1 -31 -4 -37 -10 -8 -8 -13 -8
-17 0 -4 6 -37 12 -74 12 l-67 2 88 7 c48 4 91 10 95 14 4 5 -6 6 -23 5 -45
-5 -257 12 -280 22 -14 7 -4 8 30 4 28 -3 108 -8 178 -11 75 -4 123 -11 115
-15 -7 -5 -8 -9 -2 -9 5 0 15 5 22 12 13 13 171 18 178 6 7 -11 56 -10 74 2
14 9 -11 13 -87 14 -13 0 -23 4 -23 8 0 10 160 7 166 -3 2 -4 35 -10 72 -14
37 -3 78 -8 90 -11 15 -3 21 -1 17 6 -3 6 3 10 14 10 12 0 21 5 21 10 0 6 5
10 10 10 19 0 56 42 43 47 -26 9 -12 18 34 21 26 2 49 5 51 7 2 2 -8 15 -23
29 -24 23 -25 26 -9 26 11 0 15 3 9 8 -6 4 -11 14 -10 22 0 11 16 17 60 21 33
3 53 6 43 7 -9 1 -18 5 -20 10 -1 4 -20 16 -41 26 -33 17 -40 18 -47 6 -7 -12
-12 -12 -21 -3 -7 7 -11 15 -8 17 4 4 49 12 92 15 17 2 -5 21 -24 21 -11 0
-17 5 -14 10 9 15 -8 12 -31 -5 -27 -20 -37 -18 -24 5 6 11 20 20 30 20 11 0
20 4 20 10 0 5 -8 6 -17 3 -16 -6 -16 -5 -4 10 7 9 22 17 32 17 10 0 21 4 24
10 3 5 16 10 28 10 12 0 28 4 36 9 9 6 -2 8 -33 5 -26 -2 -55 0 -64 5 -13 8
-9 10 21 11 21 0 45 7 53 15 13 12 9 15 -35 21 -28 3 -49 9 -48 13 2 8 -48 57
-65 64 -7 3 -2 6 12 7 14 1 19 4 13 7 -22 8 -14 32 12 39 14 3 39 4 55 2 40
-6 38 6 -2 22 -18 8 -41 20 -50 27 -12 11 -21 12 -37 4 -11 -6 -22 -7 -25 -2
-7 11 17 21 54 21 37 0 48 18 18 29 -13 6 -16 10 -8 10 10 1 6 7 -11 19 -31
20 -29 48 3 31 11 -6 22 -8 26 -5 3 3 0 6 -8 6 -10 0 -10 3 0 15 7 8 27 15 44
15 27 1 28 2 13 11 -10 6 -27 9 -38 6 -10 -3 -22 -1 -25 4 -3 5 12 9 33 10 21
0 33 3 26 5 -21 9 8 53 41 63 l31 9 -33 1 c-18 1 -35 7 -38 15 -3 8 -17 17
-31 21 -16 4 -23 11 -19 20 3 8 -3 16 -12 18 -9 3 -3 5 13 5 33 -1 93 20 62
21 -21 1 -19 33 3 43 10 4 5 7 -14 7 -22 1 -27 5 -22 18 4 9 1 20 -6 25 -10 6
-7 13 11 27 l25 19 -25 5 c-17 3 -13 5 16 7 l40 2 -35 9 c-19 4 -47 11 -62 15
-31 7 -36 19 -12 28 21 8 6 29 -17 23 -11 -3 -19 0 -19 7 0 6 -9 17 -20 24
-25 15 -26 39 -2 45 14 3 13 6 -8 15 -22 9 -22 11 -5 12 17 0 17 2 5 10 -22
14 29 61 59 53 37 -10 24 24 -14 37 -36 12 -48 30 -20 30 13 0 14 4 5 21 -16
29 -5 49 27 49 42 0 61 15 31 25 -21 7 -20 8 12 14 20 4 34 12 33 19 -2 7 2
12 9 12 9 0 9 3 0 12 -19 19 -14 36 11 41 l22 4 -23 8 c-18 6 -20 10 -10 16
11 8 11 11 -1 18 -11 7 -9 14 14 35 15 14 34 26 42 26 8 0 12 4 8 10 -3 5 -12
7 -19 4 -7 -3 -19 2 -26 10 -10 13 -9 17 3 22 12 4 15 14 10 34 -4 24 0 31 23
44 16 8 25 15 20 16 -5 0 1 11 13 24 14 15 18 24 9 23 -37 -1 -50 6 -19 12 42
7 54 31 17 31 -18 0 -26 5 -26 18 0 14 2 15 10 2 8 -13 10 -12 10 4 0 10 8 25
18 32 15 12 11 13 -33 14 -36 0 -46 3 -35 10 13 8 12 10 -2 10 -10 0 -18 5
-18 11 0 6 15 10 33 8 17 -1 41 2 51 6 19 8 19 9 0 16 -10 4 -36 8 -58 8 -29
1 -37 4 -32 16 3 9 -3 19 -16 26 -17 9 -18 13 -7 21 10 7 5 8 -17 6 -23 -3
-31 -1 -27 8 3 7 12 15 21 17 14 4 14 5 -2 6 -15 1 -16 4 -6 16 8 10 31 15 66
15 30 0 54 4 54 8 0 11 -77 36 -114 36 -48 1 -42 23 9 30 46 7 63 26 23 26
-22 1 -23 1 -4 15 11 9 14 15 7 15 -7 0 -19 7 -27 15 -14 13 -14 15 0 15 8 0
21 7 29 15 8 8 37 18 63 23 l49 10 -65 2 c-62 2 -63 3 -25 11 57 11 107 11
100 -1 -7 -11 18 -12 55 0 23 6 22 8 -15 14 -69 12 -71 14 -28 15 l42 1 -10
30 c-11 29 -12 29 -79 28 -38 -1 -72 1 -76 5 -4 4 8 7 27 7 26 0 30 3 19 10
-8 5 -25 10 -37 10 -31 0 -29 12 5 31 36 22 82 32 82 19 0 -5 7 -10 15 -10 8
0 15 4 15 9 0 12 -56 25 -70 16 -5 -3 -10 3 -10 14 0 11 8 22 18 24 9 3 2 5
-17 6 -26 1 -32 4 -27 17 4 9 2 22 -4 29 -12 15 31 55 59 55 11 0 23 5 26 10
3 6 32 10 63 11 47 0 53 2 33 10 -14 5 -52 12 -85 16 -34 3 -70 12 -81 20 -18
13 -12 14 55 9 50 -5 70 -3 60 3 -12 8 -11 11 8 18 20 8 17 11 -30 22 -42 11
-49 16 -33 22 11 4 -12 5 -51 2 -53 -4 -78 -2 -102 11 -17 9 -41 16 -54 17
-26 0 72 29 117 34 17 2 68 -6 114 -16 46 -11 86 -17 89 -14 3 3 -3 5 -14 5
-15 0 -16 2 -5 9 12 8 8 11 -15 16 -16 4 -38 9 -49 12 -11 4 -36 7 -55 8 -19
1 -57 16 -85 34 -60 38 -111 53 -174 51 -77 -3 -93 -1 -85 11 4 7 23 9 50 5
49 -6 57 4 19 24 -13 7 -22 16 -20 21 3 4 -3 10 -12 12 -13 3 -12 5 5 6 22 1
22 2 6 18 -19 19 -19 20 56 31 l55 8 -39 18 c-22 9 -46 14 -53 12 -7 -3 -13 1
-13 10 0 11 -4 12 -19 4 -13 -7 -22 -7 -26 0 -7 12 8 18 55 22 38 3 44 21 10
26 -21 3 -21 4 -3 18 12 11 13 14 3 11 -20 -5 -38 14 -32 35 3 12 19 19 58 24
67 8 71 24 7 25 l-48 2 40 7 40 7 -36 2 c-31 1 -103 19 -159 39 -17 6 -18 5
53 17 20 3 37 10 37 15 0 6 -5 10 -10 10 -6 0 -20 9 -32 20 -22 21 -54 28 -43
10 10 -16 -16 -12 -99 14 -116 37 -215 52 -255 38 -28 -10 -32 -9 -27 3 4 11
-2 15 -20 15 -14 0 -27 -7 -31 -17 -13 -35 -36 -43 -110 -38 -43 2 -73 0 -73
-6 0 -6 -7 -6 -19 0 -10 6 -21 7 -25 4 -4 -4 -113 -8 -244 -9 -135 -1 -224 1
-207 6 43 12 155 20 130 10 -15 -7 -10 -9 23 -9 25 -1 42 4 42 10 0 8 36 10
125 6 71 -4 127 -2 130 3 3 5 11 7 18 4 8 -3 13 3 13 15 0 11 -5 17 -13 14 -7
-3 -13 -9 -13 -14 0 -9 -242 0 -250 10 -3 3 -50 7 -105 8 -66 2 -93 -1 -80 -7
17 -7 14 -9 -15 -9 -24 -1 -31 2 -21 8 9 6 -2 10 -35 13 -32 3 -57 0 -72 -9
-15 -9 -34 -12 -54 -8 -21 5 -28 4 -24 -4 6 -9 -110 -12 -469 -13 -21 0 -37
-8 -50 -24 -58 -72 -56 -71 -110 -64 -27 4 -40 8 -27 9 14 0 21 5 16 12 -4 8
3 9 26 4 21 -5 30 -4 26 3 -4 6 2 8 14 5 14 -4 20 0 20 11 0 12 -10 16 -48 16
-26 0 -54 6 -61 13 -10 10 -15 9 -25 -5 -7 -10 -22 -18 -32 -18 -10 0 -25 -4
-31 -8 -8 -5 1 -8 22 -8 34 0 53 -9 43 -19 -11 -12 -80 -8 -88 5 -6 10 -39 14
-123 14 -63 1 -113 4 -110 9 2 4 -5 7 -16 7 -11 0 -23 -4 -26 -10 -3 -5 -1
-10 6 -10 7 0 10 -3 6 -6 -3 -3 -15 -3 -28 1 -14 5 -18 10 -10 14 7 5 -5 8
-26 7 -21 0 -76 1 -123 3 l-85 4 105 12 c91 11 96 13 37 12 -37 -1 -67 1 -67
6 0 4 -9 7 -20 7 -11 0 -20 -6 -20 -12 0 -10 -2 -10 -8 0 -6 9 -36 13 -98 13
-119 0 -154 6 -154 29 0 13 -5 17 -21 13 -15 -4 -17 -8 -8 -14 24 -15 0 -22
-78 -24 -43 -2 -87 -6 -98 -10 -14 -6 -17 -5 -10 3 6 6 19 13 30 15 11 2 32 7
48 12 17 4 32 3 41 -4 7 -6 21 -9 30 -5 39 15 7 21 -119 22 -75 0 -133 -2
-131 -6 2 -4 -51 -6 -117 -5 -67 0 -111 -1 -97 -4 53 -10 36 -18 -38 -17 -42
1 -97 7 -122 14 -75 20 -112 23 -120 11 -8 -13 -342 -17 -363 -4 -7 4 -7 0 2
-10 7 -9 25 -17 40 -18 23 0 24 -1 6 -8 -12 -5 -28 -3 -40 5 -15 10 -30 11
-55 5 -65 -17 -135 -22 -163 -12 -17 7 -27 7 -27 1 0 -15 -110 0 -145 20 -18
9 -56 18 -89 19 -32 1 -66 5 -75 10 -23 12 -158 6 -174 -8 -8 -6 -17 -8 -20
-5 -3 4 -40 6 -82 5 -44 -1 -75 3 -75 8 0 6 8 8 18 4 12 -4 14 -3 7 5 -15 16
-95 27 -95 13 0 -6 -13 -11 -30 -11 -16 0 -33 -7 -38 -15 -7 -13 -24 -14 -126
-5 -65 6 -122 7 -127 4 -15 -9 -191 -15 -185 -6 2 4 -23 7 -57 6 -34 -1 -68 3
-75 9 -7 5 -36 7 -65 5 -28 -3 -61 -2 -72 3 -11 4 -15 8 -10 9 16 2 -87 29
-113 30 -13 0 -21 -4 -17 -9 8 -14 -9 -21 -25 -11 -8 5 -19 5 -26 -1 -6 -5
-19 -6 -28 -3 -15 6 -15 8 1 20 16 12 14 13 -19 14 -20 0 -40 -4 -43 -10z m53
-47 c-10 -2 -26 -2 -35 0 -10 3 -2 5 17 5 19 0 27 -2 18 -5z m4830 -30 c-10
-2 -28 -2 -40 0 -13 2 -5 4 17 4 22 1 32 -1 23 -4z m225 -10 c-7 -2 -21 -2
-30 0 -10 3 -4 5 12 5 17 0 24 -2 18 -5z m-268 -28 c-16 -7 -34 -10 -40 -7 -5
3 1 9 15 13 42 12 57 8 25 -6z m872 -11 c-3 -3 -12 -4 -19 -1 -8 3 -5 6 6 6
11 1 17 -2 13 -5z m136 -15 c82 -21 142 -46 82 -34 -16 3 -57 8 -91 11 -36 4
-71 14 -85 25 -21 16 -21 19 -6 19 10 0 55 -9 100 -21z m-1578 1 c-28 -12 -37
-12 -30 0 3 6 16 10 28 9 21 0 21 -1 2 -9z m-1182 -7 c-13 -2 -33 -2 -45 0
-13 2 -3 4 22 4 25 0 35 -2 23 -4z m790 -10 c-7 -2 -19 -2 -25 0 -7 3 -2 5 12
5 14 0 19 -2 13 -5z m-4350 -10 c-7 -2 -19 -2 -25 0 -7 3 -2 5 12 5 14 0 19
-2 13 -5z m4237 -9 c0 -2 -12 -4 -27 -4 -21 0 -24 3 -14 9 13 8 41 5 41 -5z
m-4112 -11 c-10 -2 -26 -2 -35 0 -10 3 -2 5 17 5 19 0 27 -2 18 -5z m85 0 c-7
-2 -19 -2 -25 0 -7 3 -2 5 12 5 14 0 19 -2 13 -5z m6051 -4 c-6 -11 -41 -12
-47 -1 -3 4 8 7 24 8 15 1 26 -3 23 -7z m-2074 -3 c0 -2 -11 -6 -25 -8 -14 -3
-25 -1 -25 3 0 5 11 9 25 9 14 0 25 -2 25 -4z m297 -2 c-3 -3 -12 -4 -19 -1
-8 3 -5 6 6 6 11 1 17 -2 13 -5z m-4580 -65 c1 -22 1 -23 -4 -1 -2 12 -9 20
-14 17 -5 -4 -9 -1 -9 5 0 23 25 3 27 -21z m4928 1 c-27 -12 -35 -12 -35 0 0
6 12 10 28 9 24 0 25 -1 7 -9z m-4698 -96 c-3 -3 -12 -4 -19 -1 -8 3 -5 6 6 6
11 1 17 -2 13 -5z m6463 -1 c-8 -3 -18 -11 -22 -17 -5 -7 -8 -4 -8 7 0 11 7
17 23 16 15 0 17 -2 7 -6z m-6670 -96 c9 -3 4 -6 -12 -6 -21 -1 -26 3 -21 15
3 9 9 11 12 6 3 -5 13 -12 21 -15z m-30 -27 c0 -5 -5 -10 -11 -10 -5 0 -7 5
-4 10 3 6 8 10 11 10 2 0 4 -4 4 -10z m6647 -34 c0 -8 -6 -12 -15 -9 -11 5
-11 7 0 14 7 5 13 9 14 9 0 0 1 -6 1 -14z m174 -138 c-23 -6 -37 -6 -44 1 -8
8 2 11 34 10 l44 -1 -34 -10z m107 -175 c-10 -2 -26 -2 -35 0 -10 3 -2 5 17 5
19 0 27 -2 18 -5z m-7018 -248 c-7 -8 -20 -15 -28 -15 -13 0 -12 3 4 15 25 19
40 19 24 0z m7040 -5 c0 -5 -10 -10 -22 -9 -22 0 -22 1 -3 9 11 5 21 9 23 9 1
1 2 -3 2 -9z m-6924 -85 c9 -8 11 -15 6 -15 -5 0 -15 7 -22 15 -7 8 -9 15 -6
15 4 0 14 -7 22 -15z m-181 -64 c-3 -6 -11 -8 -17 -5 -6 4 -5 9 3 15 16 10 23
4 14 -10z m12 -33 c-3 -8 -6 -5 -6 6 -1 11 2 17 5 13 3 -3 4 -12 1 -19z m58
-68 c3 -5 -3 -10 -14 -10 -12 0 -21 5 -21 10 0 6 6 10 14 10 8 0 18 -4 21 -10z
m6965 -20 c-19 -12 -30 -12 -30 -1 0 10 31 20 40 14 2 -2 -2 -8 -10 -13z
m-7063 -82 c-3 -8 -6 -5 -6 6 -1 11 2 17 5 13 3 -3 4 -12 1 -19z m43 -3 c0 -8
-4 -15 -10 -15 -5 0 -7 7 -4 15 4 8 8 15 10 15 2 0 4 -7 4 -15z m6990 -52 c-8
-3 -24 -10 -35 -15 -20 -9 -20 -9 -1 6 11 9 27 16 35 15 14 0 14 -1 1 -6z m75
-93 c-3 -5 -19 -10 -35 -10 -16 0 -32 5 -35 10 -4 6 10 10 35 10 25 0 39 -4
35 -10z m-7075 -280 c0 -11 -43 -14 -53 -3 -4 3 -2 12 4 19 12 15 49 2 49 -16z
m60 0 c0 -5 -5 -10 -11 -10 -5 0 -7 5 -4 10 3 6 8 10 11 10 2 0 4 -4 4 -10z
m26 -35 c9 -9 11 -15 4 -15 -7 0 -9 -12 -4 -36 5 -27 4 -35 -5 -30 -6 4 -11
14 -11 22 0 8 -6 17 -14 20 -11 4 -11 10 -2 30 13 28 13 28 32 9z m-180 -174
c-4 -6 -15 -11 -24 -10 -11 0 -12 3 -4 6 6 2 12 12 12 21 0 12 3 13 11 5 6 -6
8 -16 5 -22z m119 -82 c11 -17 2 -18 -19 -3 -17 12 -17 14 -4 14 9 0 20 -5 23
-11z m-245 -89 c-20 -13 -33 -13 -25 0 3 6 14 10 23 10 15 0 15 -2 2 -10z m80
-128 c-40 -21 -43 -21 -34 2 4 10 18 16 38 16 l31 0 -35 -18z m-13 -44 c-3 -8
-6 -5 -6 6 -1 11 2 17 5 13 3 -3 4 -12 1 -19z m57 -69 c5 -5 -5 -4 -24 1 -18
5 -35 12 -39 16 -9 9 53 -7 63 -17z m-97 -101 c-3 -8 -6 -5 -6 6 -1 11 2 17 5
13 3 -3 4 -12 1 -19z m38 -18 c-4 -12 -9 -19 -12 -17 -3 3 -2 15 2 27 4 12 9
19 12 17 3 -3 2 -15 -2 -27z m2 -96 c-3 -3 -12 -4 -19 -1 -8 3 -5 6 6 6 11 1
17 -2 13 -5z m60 -240 c-3 -3 -12 -4 -19 -1 -8 3 -5 6 6 6 11 1 17 -2 13 -5z
m7072 -67 c-2 -1 -12 -9 -21 -16 -15 -12 -18 -11 -18 3 0 10 8 16 22 16 12 0
19 -1 17 -3z m31 -94 c0 -10 -4 -14 -8 -8 -4 6 -11 13 -16 18 -5 4 -2 7 7 7
10 0 17 -8 17 -17z m-88 -60 c-6 -2 -10 -9 -7 -14 4 -5 -1 -6 -10 -2 -13 5
-14 7 -3 14 7 5 18 8 23 8 6 0 4 -3 -3 -6z m78 -80 l25 -7 -25 -6 c-30 -8 -62
-1 -54 11 6 11 20 11 54 2z m-7165 -153 c-3 -5 -18 -10 -33 -9 -24 0 -25 1 -7
9 28 12 47 12 40 0z m120 -140 c-3 -5 4 -10 17 -11 15 -1 10 -4 -17 -12 -28
-7 -40 -7 -43 2 -2 6 -11 11 -20 11 -15 0 -15 2 -2 10 20 13 73 13 65 0z
m2405 -10 c0 -13 -20 -13 -40 0 -12 8 -9 10 13 10 15 0 27 -4 27 -10z m4617
-2 c-15 -5 -24 -14 -21 -20 5 -7 2 -8 -6 -3 -10 6 -9 11 5 22 11 7 26 13 34
12 9 0 4 -5 -12 -11z m-4687 -31 c0 -4 -5 -5 -10 -2 -6 4 -19 3 -28 -1 -14 -6
-11 -9 13 -14 25 -6 22 -8 -22 -9 -28 0 -55 4 -58 9 -3 6 -48 10 -98 10 -51 0
-87 4 -80 8 16 10 283 10 283 -1z m-1860 -7 c12 -8 10 -10 -10 -10 -14 0 -32
5 -40 10 -12 8 -10 10 10 10 14 0 32 -5 40 -10z m2025 0 c-16 -5 -40 -12 -52
-15 -14 -5 -23 -3 -23 3 0 13 24 20 70 20 l35 0 -30 -8z m-1015 -10 c-8 -5
-19 -10 -25 -10 -5 0 -3 5 5 10 8 5 20 10 25 10 6 0 3 -5 -5 -10z m350 -16 c0
-2 -11 -4 -25 -4 -14 0 -25 4 -25 9 0 4 11 6 25 3 14 -2 25 -6 25 -8z m-1290
-24 c0 -5 -2 -10 -4 -10 -3 0 -8 5 -11 10 -3 6 -1 10 4 10 6 0 11 -4 11 -10z
m220 0 c0 -5 -7 -7 -15 -4 -8 4 -15 8 -15 10 0 2 7 4 15 4 8 0 15 -4 15 -10z
m550 0 c0 -5 8 -7 18 -3 13 5 14 3 5 -7 -9 -10 -16 -9 -34 4 -19 13 -20 16 -6
16 9 0 17 -4 17 -10z m595 0 c-3 -5 -15 -10 -26 -10 -11 0 -17 5 -14 10 3 6
15 10 26 10 11 0 17 -4 14 -10z m2045 -10 c0 -13 -30 -13 -50 0 -11 7 -7 10
18 10 17 0 32 -4 32 -10z m2957 -6 c-3 -3 -12 -4 -19 -1 -8 3 -5 6 6 6 11 1
17 -2 13 -5z m-14 -21 c-7 -2 -19 -2 -25 0 -7 3 -2 5 12 5 14 0 19 -2 13 -5z
m-166 -9 c-3 -3 -12 -4 -19 -1 -8 3 -5 6 6 6 11 1 17 -2 13 -5z m180 -8 c24
-1 43 -5 43 -10 0 -5 -30 -6 -67 -3 -38 4 -81 7 -98 8 l-30 1 30 8 c17 4 41 5
55 2 13 -3 43 -6 67 -6z m-3030 -2 c-3 -3 -12 -4 -19 -1 -8 3 -5 6 6 6 11 1
17 -2 13 -5z m933 -14 c18 -12 2 -12 -25 0 -13 6 -15 9 -5 9 8 0 22 -4 30 -9z
m-1165 -10 c3 -5 2 -10 -4 -10 -5 0 -13 5 -16 10 -3 6 -2 10 4 10 5 0 13 -4
16 -10z m85 5 c0 -7 -30 -13 -34 -7 -3 4 4 9 15 9 10 1 19 0 19 -2z m-633 -11
c-3 -3 -12 -4 -19 -1 -8 3 -5 6 6 6 11 1 17 -2 13 -5z m831 -11 c-10 -2 -28
-2 -40 0 -13 2 -5 4 17 4 22 1 32 -1 23 -4z m173 -4 c9 -5 -15 -9 -69 -9 -46
0 -81 4 -78 8 7 12 129 13 147 1z m604 1 c-3 -5 -10 -10 -16 -10 -5 0 -9 5 -9
10 0 6 7 10 16 10 8 0 12 -4 9 -10z m-1512 -7 c-7 -2 -19 -2 -25 0 -7 3 -2 5
12 5 14 0 19 -2 13 -5z m954 1 c-3 -3 -12 -4 -19 -1 -8 3 -5 6 6 6 11 1 17 -2
13 -5z m508 -4 c-3 -5 -10 -10 -16 -10 -5 0 -9 5 -9 10 0 6 7 10 16 10 8 0 12
-4 9 -10z m825 -19 c0 -5 -9 -7 -21 -4 -12 3 -25 0 -29 -7 -4 -7 -13 -9 -20
-5 -9 6 -9 9 1 16 18 12 69 11 69 0z m-187 -8 c-13 -2 -33 -2 -45 0 -13 2 -3
4 22 4 25 0 35 -2 23 -4z"/>
<path d="M2028 5323 c12 -2 30 -2 40 0 9 3 -1 5 -23 4 -22 0 -30 -2 -17 -4z"/>
<path d="M2168 5313 c6 -2 18 -2 25 0 6 3 1 5 -13 5 -14 0 -19 -2 -12 -5z"/>
<path d="M6940 5312 c-19 -2 -39 -7 -43 -11 -7 -7 121 -4 148 3 17 5 -68 11
-105 8z"/>
<path d="M7098 5313 c7 -3 16 -2 19 1 4 3 -2 6 -13 5 -11 0 -14 -3 -6 -6z"/>
<path d="M6855 5300 c-19 -8 -19 -9 3 -9 12 -1 22 4 22 9 0 6 -1 10 -2 9 -2 0
-12 -4 -23 -9z"/>
<path d="M7800 5301 l-44 -6 27 -12 c36 -17 147 -6 147 13 0 8 -7 14 -15 14
-8 0 -15 -4 -15 -10 0 -5 -7 -10 -15 -10 -8 0 -15 5 -15 10 0 6 -6 9 -12 8 -7
0 -33 -4 -58 -7z"/>
<path d="M1580 5290 c-21 -7 -21 -8 -5 -9 11 0 27 4 35 9 18 11 5 11 -30 0z"/>
<path d="M5923 5283 c9 -2 23 -2 30 0 6 3 -1 5 -18 5 -16 0 -22 -2 -12 -5z"/>
<path d="M6040 5280 c12 -8 8 -10 -15 -11 -19 -1 -23 -3 -12 -6 10 -3 30 -2
45 2 20 5 23 8 11 16 -7 5 -21 9 -29 9 -13 0 -13 -1 0 -10z"/>
<path d="M4168 5273 c6 -2 18 -2 25 0 6 3 1 5 -13 5 -14 0 -19 -2 -12 -5z"/>
<path d="M6471 5276 c12 -10 59 -15 59 -6 0 5 -14 10 -32 10 -17 0 -29 -2 -27
-4z"/>
<path d="M8295 5270 c3 -5 10 -10 16 -10 5 0 9 5 9 10 0 6 -7 10 -16 10 -8 0
-12 -4 -9 -10z"/>
<path d="M2040 5260 c0 -5 7 -10 15 -10 8 0 15 5 15 10 0 6 -7 10 -15 10 -8 0
-15 -4 -15 -10z"/>
<path d="M2158 5253 c7 -3 16 -2 19 1 4 3 -2 6 -13 5 -11 0 -14 -3 -6 -6z"/>
<path d="M6183 5253 c15 -2 37 -2 50 0 12 2 0 4 -28 4 -27 0 -38 -2 -22 -4z"/>
<path d="M1933 5233 c9 -2 23 -2 30 0 6 3 -1 5 -18 5 -16 0 -22 -2 -12 -5z"/>
<path d="M8483 5226 c-9 -11 -8 -15 6 -19 14 -3 17 0 14 14 -6 22 -5 22 -20 5z"/>
<path d="M8485 5060 c3 -5 14 -10 23 -10 15 0 15 2 2 10 -20 13 -33 13 -25 0z"/>
<path d="M1655 4870 c3 -5 8 -10 11 -10 2 0 4 5 4 10 0 6 -5 10 -11 10 -5 0
-7 -4 -4 -10z"/>
<path d="M8880 4520 c-12 -8 -10 -10 10 -10 14 0 32 5 40 10 12 8 10 10 -10
10 -14 0 -32 -5 -40 -10z"/>
<path d="M1610 4510 c0 -5 7 -10 16 -10 8 0 12 5 9 10 -3 6 -10 10 -16 10 -5
0 -9 -4 -9 -10z"/>
<path d="M1548 4343 c7 -3 16 -2 19 1 4 3 -2 6 -13 5 -11 0 -14 -3 -6 -6z"/>
<path d="M8648 3963 c7 -3 16 -2 19 1 4 3 -2 6 -13 5 -11 0 -14 -3 -6 -6z"/>
<path d="M1507 3809 c7 -7 15 -10 18 -7 3 3 -2 9 -12 12 -14 6 -15 5 -6 -5z"/>
<path d="M1504 3555 c0 -16 3 -22 10 -15 15 15 16 40 2 40 -7 0 -12 -11 -12
-25z"/>
<path d="M1450 3520 c20 -13 43 -13 35 0 -3 6 -16 10 -28 10 -18 0 -19 -2 -7
-10z"/>
<path d="M1423 3423 c-33 -6 -38 -32 -5 -28 15 2 34 4 43 4 9 1 19 8 23 16 5
15 -12 18 -61 8z"/>
<path d="M1398 3353 c7 -3 16 -2 19 1 4 3 -2 6 -13 5 -11 0 -14 -3 -6 -6z"/>
<path d="M1178 3193 c6 -2 18 -2 25 0 6 3 1 5 -13 5 -14 0 -19 -2 -12 -5z"/>
<path d="M1198 3083 c7 -3 16 -2 19 1 4 3 -2 6 -13 5 -11 0 -14 -3 -6 -6z"/>
<path d="M1455 2350 c-7 -11 44 -34 54 -24 6 6 -27 34 -40 34 -4 0 -11 -5 -14
-10z"/>
<path d="M1395 2170 c-3 -5 1 -10 9 -10 8 0 18 5 21 10 3 6 -1 10 -9 10 -8 0
-18 -4 -21 -10z"/>
<path d="M1436 2095 c4 -8 10 -12 15 -9 11 6 2 24 -11 24 -5 0 -7 -7 -4 -15z"/>
<path d="M1378 2043 c6 -2 18 -2 25 0 6 3 1 5 -13 5 -14 0 -19 -2 -12 -5z"/>
<path d="M1388 1763 c7 -3 16 -2 19 1 4 3 -2 6 -13 5 -11 0 -14 -3 -6 -6z"/>
<path d="M3207 1749 c7 -7 15 -10 18 -7 3 3 -2 9 -12 12 -14 6 -15 5 -6 -5z"/>
<path d="M3678 1748 c17 -8 26 -8 34 0 9 9 4 12 -22 11 -33 0 -34 -1 -12 -11z"/>
<path d="M1528 1723 c6 -2 18 -2 25 0 6 3 1 5 -13 5 -14 0 -19 -2 -12 -5z"/>
<path d="M3547 1712 c3 -14 11 -18 26 -14 15 4 17 7 7 10 -8 3 -20 9 -27 14
-8 6 -10 4 -6 -10z"/>
<path d="M1768 1713 c7 -3 16 -2 19 1 4 3 -2 6 -13 5 -11 0 -14 -3 -6 -6z"/>
<path d="M1808 1713 c7 -3 16 -2 19 1 4 3 -2 6 -13 5 -11 0 -14 -3 -6 -6z"/>
<path d="M4254 1709 c-3 -5 9 -9 25 -9 17 0 31 2 31 4 0 8 -51 13 -56 5z"/>
<path d="M3495 1700 c-3 -5 1 -10 9 -10 9 0 16 5 16 10 0 6 -4 10 -9 10 -6 0
-13 -4 -16 -10z"/>
<path d="M1900 1690 c0 -5 14 -7 33 -3 45 8 47 13 4 13 -20 0 -37 -4 -37 -10z"/>
<path d="M8595 1690 c-8 -13 15 -13 35 0 12 8 11 10 -7 10 -12 0 -25 -4 -28
-10z"/>
<path d="M1985 1680 c-4 -6 5 -10 20 -10 15 0 24 4 20 10 -3 6 -12 10 -20 10
-8 0 -17 -4 -20 -10z"/>
<path d="M2095 1680 c-7 -12 2 -12 30 0 19 8 19 9 -2 9 -12 1 -25 -3 -28 -9z"/>
<path d="M3020 1680 c14 -5 19 -8 11 -9 -8 -1 -12 -3 -9 -7 3 -3 21 1 39 9
l34 14 -50 0 c-38 0 -44 -2 -25 -7z"/>
<path d="M2248 1673 c6 -2 18 -2 25 0 6 3 1 5 -13 5 -14 0 -19 -2 -12 -5z"/>
<path d="M2403 1673 c9 -2 23 -2 30 0 6 3 -1 5 -18 5 -16 0 -22 -2 -12 -5z"/>
<path d="M6560 1660 c20 -5 39 -5 45 1 5 5 -8 9 -35 8 l-45 -1 35 -8z"/>
<path d="M8285 1660 c-3 -5 -1 -10 4 -10 6 0 11 5 11 10 0 6 -2 10 -4 10 -3 0
-8 -4 -11 -10z"/>
<path d="M2468 1653 c7 -3 16 -2 19 1 4 3 -2 6 -13 5 -11 0 -14 -3 -6 -6z"/>
<path d="M2500 1656 c0 -2 7 -7 16 -10 8 -3 12 -2 9 4 -6 10 -25 14 -25 6z"/>
<path d="M1940 1630 c0 -5 7 -10 16 -10 8 0 12 5 9 10 -3 6 -10 10 -16 10 -5
0 -9 -4 -9 -10z"/>
<path d="M7345 1628 c-63 -14 -66 -28 -6 -24 29 2 57 8 62 13 16 16 -11 21
-56 11z"/>
<path d="M8098 1633 c7 -3 16 -2 19 1 4 3 -2 6 -13 5 -11 0 -14 -3 -6 -6z"/>
<path d="M8750 1620 c0 -13 20 -13 40 0 12 8 9 10 -12 10 -16 0 -28 -4 -28
-10z"/>
<path d="M4985 1600 c-3 -5 -2 -10 4 -10 5 0 13 5 16 10 3 6 2 10 -4 10 -5 0
-13 -4 -16 -10z"/>
<path d="M5893 1603 c9 -2 23 -2 30 0 6 3 -1 5 -18 5 -16 0 -22 -2 -12 -5z"/>
<path d="M6345 1600 c3 -5 8 -10 11 -10 2 0 4 5 4 10 0 6 -5 10 -11 10 -5 0
-7 -4 -4 -10z"/>
<path d="M6563 1603 c15 -2 39 -2 55 0 15 2 2 4 -28 4 -30 0 -43 -2 -27 -4z"/>
<path d="M8075 1601 c-13 -23 43 -28 120 -12 48 10 47 10 -25 6 -50 -3 -68 -1
-55 5 18 8 17 9 -7 9 -15 1 -29 -3 -33 -8z"/>
<path d="M4878 1593 c7 -3 16 -2 19 1 4 3 -2 6 -13 5 -11 0 -14 -3 -6 -6z"/>
<path d="M4948 1593 c7 -3 16 -2 19 1 4 3 -2 6 -13 5 -11 0 -14 -3 -6 -6z"/>
<path d="M8016 1581 c6 -7 28 -14 50 -17 47 -6 27 10 -26 21 -26 5 -32 4 -24
-4z"/>
<path d="M6728 1563 c6 -2 18 -2 25 0 6 3 1 5 -13 5 -14 0 -19 -2 -12 -5z"/>
<path d="M7200 1557 c30 -16 102 -32 81 -18 -12 7 -11 10 5 14 10 2 2 3 -18 2
-21 -2 -41 1 -44 6 -3 5 -15 9 -27 9 -21 0 -21 -1 3 -13z"/>
<path d="M7810 1553 c-14 -7 -23 -13 -20 -13 44 -7 70 -5 74 5 7 19 -25 23
-54 8z"/>
<path d="M8136 1562 c-3 -6 3 -12 15 -15 12 -3 19 -1 16 6 -5 15 -24 20 -31 9z"/>
<path d="M8208 1553 c12 -2 32 -2 45 0 12 2 2 4 -23 4 -25 0 -35 -2 -22 -4z"/>
<path d="M7010 1540 c-11 -7 -5 -8 20 -4 43 8 51 14 19 14 -13 0 -31 -5 -39
-10z"/>
<path d="M7088 1543 c6 -2 18 -2 25 0 6 3 1 5 -13 5 -14 0 -19 -2 -12 -5z"/>
<path d="M7292 1525 c-17 -20 3 -20 38 0 l25 14 -25 0 c-14 0 -31 -6 -38 -14z"/>
<path d="M7133 1503 c9 -2 23 -2 30 0 6 3 -1 5 -18 5 -16 0 -22 -2 -12 -5z"/>
<path d="M7480 1495 c30 -8 75 -14 100 -14 l45 0 -45 15 c-25 7 -70 13 -100
13 l-55 -1 55 -13z"/>
<path d="M7088 1483 c7 -3 16 -2 19 1 4 3 -2 6 -13 5 -11 0 -14 -3 -6 -6z"/>
<path d="M7678 1483 c7 -3 16 -2 19 1 4 3 -2 6 -13 5 -11 0 -14 -3 -6 -6z"/>
</g>
</svg>
