<?xml version="1.0" standalone="no"?>
<!DOCTYPE svg PUBLIC "-//W3C//DTD SVG 20010904//EN"
 "http://www.w3.org/TR/2001/REC-SVG-20010904/DTD/svg10.dtd">
<svg version="1.0" xmlns="http://www.w3.org/2000/svg"
 width="1024.000000pt" height="724.000000pt" viewBox="0 0 1024.000000 724.000000"
 preserveAspectRatio="xMidYMid meet">
<metadata>
Created by potrace 1.16, written by Peter Selinger 2001-2019
</metadata>
<g transform="translate(0.000000,724.000000) scale(0.100000,-0.100000)"
fill="#000000" stroke="none">
<path d="M6540 5612 c-14 -8 -38 -12 -54 -9 -32 4 -89 -19 -81 -34 4 -5 17 -9
30 -9 34 0 42 -20 8 -21 l-28 -1 30 -10 c27 -8 124 -14 310 -17 51 -1 57 -3
45 -15 -12 -11 -27 -12 -65 -6 -27 5 -115 9 -195 10 -85 1 -137 5 -125 10 17
6 15 9 -17 15 -20 4 -44 5 -55 2 -12 -3 -9 -5 10 -6 44 -2 31 -18 -20 -24 -77
-8 -343 -6 -303 3 33 7 31 8 -20 10 -85 3 -334 2 -445 -3 -55 -2 -188 -5 -295
-7 -156 -2 -181 -4 -123 -10 39 -4 77 -11 84 -15 8 -5 10 -4 5 3 -5 8 1 12 14
12 15 0 20 -5 17 -14 -9 -22 31 -31 51 -13 18 16 85 21 258 18 87 -1 105 -4
125 -22 l24 -20 -26 5 c-19 4 -26 1 -26 -10 0 -12 7 -14 27 -10 19 3 27 1 27
-10 0 -11 -7 -14 -21 -10 -12 3 -37 6 -56 7 -29 0 -31 2 -15 9 l20 9 -20 1
c-11 1 -30 3 -43 6 -13 2 -32 -1 -43 -7 -17 -8 -23 -7 -34 8 -7 10 -11 21 -9
25 3 5 0 8 -5 8 -6 0 -11 -5 -11 -11 0 -25 -30 -39 -84 -39 -33 0 -56 -4 -56
-11 0 -5 5 -7 12 -3 7 4 8 3 4 -4 -11 -18 -39 -15 -32 3 4 11 -2 15 -22 17
-15 1 2 4 38 8 44 4 14 6 -95 7 -175 1 -195 -1 -195 -23 0 -8 -7 -14 -16 -14
-8 0 -13 -4 -10 -9 6 -10 -24 -25 -32 -16 -3 3 0 5 7 5 7 0 10 4 7 8 -2 4 -62
8 -133 9 -80 1 -119 -1 -103 -7 14 -4 40 -8 58 -9 18 -1 31 -4 29 -8 -3 -5 19
-8 48 -8 29 0 51 3 48 8 -2 4 2 7 9 7 8 0 14 -9 15 -21 2 -16 -3 -20 -18 -16
-10 3 -17 1 -13 -4 3 -5 1 -9 -5 -9 -5 0 -13 5 -16 10 -3 6 -12 10 -18 10 -7
0 -6 -4 3 -10 25 -16 4 -21 -25 -6 -17 9 -33 12 -39 7 -6 -5 -35 -5 -64 0 -30
4 -79 9 -110 10 -66 3 -92 8 -92 19 0 4 27 8 60 9 40 0 69 6 83 17 l22 16 -25
-6 c-40 -11 -163 -14 -185 -5 -18 7 -18 8 5 8 14 1 102 3 197 4 122 3 177 8
188 17 22 18 15 20 -30 9 -45 -11 -534 0 -515 11 12 7 -84 20 -151 20 -22 0
-39 4 -39 9 0 4 -12 7 -27 5 -110 -13 -231 -16 -237 -5 -4 6 -37 11 -81 11
-41 0 -77 5 -80 10 -6 10 23 14 85 11 32 -1 33 0 15 11 -17 11 -7 14 75 19 57
3 1 5 -140 5 -129 0 -213 -1 -185 -3 27 -3 53 -10 57 -16 6 -9 8 -9 8 1 0 6
11 12 25 12 18 0 25 -5 25 -20 0 -11 5 -20 10 -20 6 0 10 -4 10 -10 0 -14
-120 -12 -210 4 -41 7 -84 10 -95 7 -14 -4 -7 -8 25 -12 25 -4 0 -4 -55 -2
-77 4 -111 2 -148 -11 -26 -9 -55 -16 -65 -15 -9 0 -2 5 16 10 17 5 32 13 32
18 0 11 -153 22 -160 11 -3 -5 -73 -8 -155 -7 -90 1 -128 4 -95 7 l55 6 -45 7
c-31 5 -70 1 -125 -11 -77 -18 -80 -19 -89 -53 -12 -44 -14 -46 -29 -26 -13
18 -44 24 -127 27 l-55 2 40 9 c70 15 120 34 122 47 4 15 -43 16 -105 1 -52
-13 -75 -27 -66 -40 3 -5 -2 -9 -10 -9 -9 0 -16 -4 -16 -10 0 -5 -10 -11 -22
-11 -13 -1 0 -7 27 -14 28 -7 47 -14 42 -14 -4 -1 0 -12 8 -25 13 -19 14 -29
5 -45 -9 -18 -8 -21 12 -21 17 0 19 -3 9 -9 -11 -7 -10 -10 5 -14 16 -4 16 -5
-3 -6 -35 -2 -37 -21 -4 -27 17 -4 28 -11 25 -16 -3 -5 -12 -7 -20 -4 -8 3
-14 1 -14 -4 0 -6 -9 -10 -21 -10 -11 0 -18 -4 -14 -9 3 -5 -5 -12 -17 -14
-13 -2 -4 -5 22 -7 25 -1 35 -5 23 -7 -12 -2 -27 -11 -33 -19 -10 -11 -9 -14
9 -14 11 0 21 -4 21 -9 0 -5 -17 -7 -37 -6 -34 3 -36 2 -20 -10 16 -12 14 -13
-21 -12 -27 2 -38 6 -35 15 3 6 -2 12 -10 12 -9 0 -14 -9 -13 -22 1 -18 -5
-24 -29 -27 -26 -3 -28 -4 -10 -11 17 -7 17 -9 3 -9 -10 -1 -18 -5 -18 -11 0
-5 -7 -10 -17 -10 -26 0 -8 -11 44 -25 l48 -14 -70 4 c-84 6 -188 -12 -181
-31 3 -8 -8 -15 -34 -19 -34 -6 -77 -34 -54 -36 5 0 0 -4 -11 -9 -20 -9 -20
-9 0 -9 11 -1 44 5 72 12 48 13 52 12 56 -4 4 -17 -4 -19 -92 -21 -92 -3 -94
-3 -51 -14 25 -6 44 -16 43 -22 -2 -8 17 -12 60 -12 55 -1 60 -2 44 -14 -14
-11 -15 -15 -5 -19 7 -3 -9 -6 -35 -6 -53 -1 -60 -16 -18 -38 l23 -11 -23 -13
c-24 -12 -24 -12 16 -30 37 -17 38 -18 15 -23 -14 -3 -41 -7 -60 -9 -33 -4
-33 -4 7 -5 42 -2 73 -22 34 -22 -28 0 -27 -18 1 -23 13 -2 -2 -5 -32 -6 -56
-3 -57 -4 -5 -17 l30 -8 -40 -6 -40 -6 35 -11 c19 -6 27 -12 18 -12 -10 -1
-18 -6 -18 -12 0 -7 -11 -8 -30 -4 -20 4 -30 3 -30 -5 0 -7 6 -10 13 -7 8 3
20 1 28 -4 10 -6 4 -9 -20 -9 -29 0 -33 -3 -28 -21 5 -19 3 -20 -31 -15 -26 5
-33 4 -22 -3 8 -6 32 -13 52 -16 21 -4 36 -10 33 -15 -3 -4 3 -6 12 -4 10 2
32 0 48 -5 29 -9 28 -9 -15 -10 -25 -1 -61 3 -79 9 -19 5 -37 8 -39 5 -3 -3 9
-8 26 -11 18 -4 29 -10 26 -15 -3 -5 3 -9 13 -10 13 -1 11 -3 -7 -9 -15 -5
-19 -8 -8 -9 9 -1 24 -8 33 -17 20 -20 4 -34 -29 -27 -21 5 -21 5 -1 -10 17
-14 17 -16 4 -17 -29 0 -40 -50 -12 -50 15 0 15 -2 -2 -14 -18 -13 -18 -14 6
-21 13 -4 32 -17 41 -28 17 -19 16 -20 -35 -45 -29 -15 -53 -27 -55 -28 -2 -1
-4 -11 -5 -23 -1 -13 -8 -21 -19 -21 -10 0 -18 -4 -18 -10 0 -5 9 -10 20 -10
11 0 20 -3 20 -8 0 -4 10 -12 23 -17 16 -7 22 -19 23 -43 1 -17 9 -41 19 -52
17 -19 17 -20 -1 -21 -12 0 -5 -7 20 -19 l39 -18 -54 -10 c-46 -8 -49 -10 -19
-11 47 -2 77 -20 35 -21 l-30 -1 25 -14 c24 -14 24 -14 -25 -16 l-50 -1 35
-11 35 -11 -35 -6 -35 -6 35 -11 c19 -6 27 -12 18 -12 -10 -1 -18 -6 -18 -12
0 -7 -11 -8 -30 -4 -20 4 -30 3 -30 -5 0 -7 7 -10 15 -7 8 4 17 2 20 -3 4 -6
-5 -10 -19 -10 -20 0 -26 -5 -26 -20 0 -18 -5 -20 -38 -16 -36 5 -28 2 118
-43 32 -10 30 -10 -25 -6 -33 2 -71 6 -85 9 -14 3 -7 -1 15 -8 22 -8 33 -15
25 -16 -10 -1 -9 -4 5 -10 l20 -9 -20 0 c-16 -1 -13 -5 14 -22 36 -22 29 -40
-13 -33 -11 2 -15 2 -8 -2 16 -8 15 -24 -2 -24 -21 0 -27 -27 -10 -45 12 -11
12 -15 2 -15 -7 0 7 -18 32 -39 l45 -39 -28 -7 c-29 -8 -35 -20 -14 -28 22 -8
-4 -22 -42 -22 -33 0 -36 -1 -22 -12 9 -7 23 -13 31 -13 11 -1 11 -3 2 -7 -10
-4 -10 -8 -1 -20 10 -12 10 -16 -1 -23 -12 -7 -11 -10 3 -16 11 -4 16 -13 12
-24 -4 -11 1 -20 12 -25 16 -7 17 -8 1 -14 -14 -5 -14 -9 8 -34 22 -26 30 -28
94 -28 55 0 70 -3 70 -14 0 -8 8 -15 17 -15 14 0 13 -3 -5 -16 -31 -21 -27
-34 11 -35 29 0 30 -1 10 -9 -27 -11 -28 -16 -10 -50 8 -14 11 -35 7 -45 -4
-11 -5 -26 -3 -32 6 -14 -3 -16 -97 -15 -55 1 -61 -1 -40 -10 28 -12 38 -14
93 -16 24 -1 37 -7 37 -16 0 -22 -27 -26 -64 -11 -44 18 -57 19 -50 2 6 -17
99 -42 139 -38 25 3 27 1 17 -12 -16 -19 -26 -71 -13 -62 12 7 58 -35 53 -49
-2 -5 15 -6 38 -3 22 3 43 1 46 -4 3 -5 -15 -9 -39 -9 -25 0 -59 -3 -78 -7
-28 -5 -30 -7 -14 -14 11 -4 34 -8 50 -8 23 -1 27 -4 15 -11 -12 -8 -11 -10 7
-10 12 0 25 -4 28 -10 3 -6 -4 -10 -18 -10 -41 0 -49 -21 -52 -142 -1 -62 -8
-126 -14 -142 -9 -23 -9 -31 1 -37 9 -6 2 -11 -22 -15 l-34 -7 35 -12 c19 -7
54 -16 77 -20 23 -4 42 -11 42 -17 0 -7 -14 -8 -37 -5 -60 10 -99 15 -82 10
10 -2 25 -13 34 -23 16 -18 16 -18 -6 -13 -15 4 -20 3 -15 -5 4 -7 14 -12 22
-12 9 0 22 -6 30 -14 12 -13 10 -15 -17 -21 -24 -5 -28 -9 -18 -16 11 -7 9
-10 -9 -15 -18 -5 -22 -13 -20 -33 3 -30 27 -61 46 -61 7 0 10 -4 7 -10 -3 -5
1 -10 9 -10 26 0 18 -14 -16 -29 l-32 -14 25 -10 24 -9 -25 -10 c-14 -5 -38
-7 -54 -5 -25 3 -27 2 -13 -8 9 -7 14 -15 11 -18 -3 -3 4 -3 15 0 16 4 20 2
15 -10 -3 -8 0 -18 6 -22 9 -6 9 -10 -1 -16 -11 -8 -11 -11 3 -19 9 -6 15 -17
12 -24 -3 -8 0 -17 6 -21 9 -6 9 -10 -1 -16 -11 -6 -6 -16 20 -40 29 -26 40
-30 71 -25 20 3 63 1 96 -5 112 -21 179 -30 222 -29 27 1 41 -3 38 -9 -4 -7
11 -8 42 -4 29 3 52 1 56 -5 4 -6 -9 -9 -36 -6 l-43 3 40 -9 c22 -5 57 -7 79
-4 25 4 36 3 32 -4 -9 -16 -117 -27 -125 -13 -5 7 -22 8 -51 3 l-45 -8 53 -13
c40 -10 63 -11 96 -2 23 6 60 8 82 5 117 -15 191 -28 209 -37 11 -6 55 -12 99
-13 78 -1 102 -12 91 -41 -6 -18 6 -16 20 3 10 14 25 15 108 9 53 -4 97 -11
97 -16 0 -5 8 -9 18 -9 15 0 15 2 2 11 -12 8 -10 9 10 5 14 -3 34 -6 45 -7 14
-1 10 -4 -10 -9 l-30 -8 34 -1 c29 -1 33 -4 28 -22 -5 -18 -2 -20 21 -14 14 3
84 -1 154 -11 99 -14 131 -15 140 -6 9 9 7 12 -8 12 -21 0 -44 17 -44 33 0 5
101 8 244 5 135 -2 239 0 233 4 -7 4 13 9 43 10 79 2 124 -2 131 -13 8 -14 75
-7 72 7 -1 7 5 10 15 7 9 -2 28 0 42 6 21 8 16 10 -35 11 -33 1 -71 1 -84 0
-14 -1 -21 2 -17 9 4 6 2 11 -3 11 -6 0 -11 5 -11 10 0 6 14 10 31 10 16 0 28
-4 25 -8 -3 -5 34 -7 82 -6 48 2 114 4 147 5 33 1 62 5 65 9 6 10 34 13 80 10
33 -2 33 -3 10 -10 -21 -7 -22 -8 -5 -10 80 -6 222 -6 253 0 l37 8 -50 2 c-27
1 -63 6 -80 10 -25 6 -20 8 28 9 32 0 56 5 53 10 -9 14 17 20 38 8 11 -5 57
-7 105 -4 l86 5 -65 -13 -65 -14 73 4 c39 3 72 2 72 -2 0 -6 384 -7 475 -2 35
2 89 -9 92 -18 6 -16 -48 -21 -181 -15 -67 2 -118 2 -115 -2 3 -3 69 -8 147
-11 78 -4 164 -10 192 -14 39 -6 50 -5 50 5 0 10 14 14 46 14 27 0 43 -4 39
-10 -3 -5 -12 -10 -20 -10 -22 0 -68 -20 -62 -27 9 -9 167 19 161 29 -3 4 -15
9 -27 9 -73 5 118 16 227 14 179 -4 176 -4 176 -15 0 -10 -30 -11 -172 -10
-30 1 -48 -3 -48 -11 0 -7 9 -9 23 -5 13 3 36 1 52 -3 26 -8 20 -10 -35 -12
-62 -2 -61 -3 35 -11 117 -10 129 -10 513 -4 161 3 308 10 328 15 20 5 41 8
49 5 7 -3 16 -1 20 5 3 6 1 11 -4 11 -6 0 -11 4 -11 9 0 5 9 7 21 4 15 -4 22
0 26 16 3 11 10 21 15 21 5 0 6 -5 2 -12 -5 -8 -2 -9 12 -4 110 45 129 47 377
46 277 -1 327 7 317 50 -3 14 -14 26 -25 29 -45 8 -47 23 -10 54 33 27 35 30
18 43 -12 9 -13 13 -5 14 7 0 10 5 7 10 -4 6 24 10 76 10 61 0 80 3 72 11 -7
7 -8 21 -3 39 5 16 5 30 0 32 -4 2 -11 13 -14 26 -5 15 -3 24 8 28 25 10 18
22 -9 16 -30 -5 -32 5 -5 28 13 12 17 21 10 25 -7 4 -3 17 10 36 l21 29 -27 0
c-22 0 -25 2 -14 15 9 11 32 15 82 15 52 0 70 4 74 15 5 11 10 13 19 5 9 -8
15 -8 20 0 3 6 11 8 16 4 7 -4 9 5 7 22 -2 22 -10 30 -35 36 -19 5 -33 15 -33
23 0 8 4 15 8 15 5 0 19 9 32 20 19 16 21 22 10 35 -9 11 -9 15 -1 15 7 0 9 5
6 10 -4 6 21 10 69 10 l75 0 -6 35 c-5 29 -3 35 13 36 17 0 17 1 -2 9 -31 12
-36 46 -10 65 l21 16 -22 -6 c-36 -10 -47 4 -21 26 19 17 20 22 8 29 -11 7
-11 10 -2 10 9 0 11 15 7 55 -3 42 -1 57 9 61 11 4 12 13 6 35 -9 31 -1 43 24
33 16 -6 20 3 17 39 -1 9 5 20 13 23 21 8 21 24 0 24 -8 0 -25 5 -37 12 -22
12 -21 12 8 18 28 5 30 8 28 44 -1 23 -11 48 -23 61 -25 26 -25 35 -2 36 11 1
9 3 -7 8 -37 10 -35 25 6 43 34 15 36 17 13 19 -14 1 -31 1 -37 0 -7 -1 -13 3
-13 9 0 5 7 10 15 10 17 0 19 9 5 30 -5 9 -5 19 1 26 6 7 3 29 -7 60 -25 75
-28 79 -69 84 -43 6 -61 30 -23 30 21 1 22 2 6 14 -23 17 -23 28 2 44 11 7 20
20 20 30 0 9 10 42 21 72 12 30 30 92 39 138 15 73 16 85 3 97 -8 8 -23 15
-34 15 -23 0 -25 13 -4 33 8 8 11 17 8 20 -3 3 7 9 21 13 22 5 27 11 24 33 -2
18 -8 25 -20 23 -24 -4 -40 32 -33 71 5 24 2 37 -9 46 -19 16 -12 31 14 31 16
0 18 6 14 48 -2 26 -11 52 -19 58 -20 15 -19 24 2 24 12 0 7 8 -17 30 l-35 29
32 1 c26 0 30 3 26 20 -3 11 -9 20 -14 20 -5 0 -9 6 -9 14 0 8 -6 17 -12 19
-8 3 -6 6 5 6 24 1 21 17 -5 35 -12 9 -17 16 -10 16 20 0 14 17 -9 23 -28 7
-17 23 23 32 32 8 31 8 -21 15 -29 5 -61 16 -70 25 -15 16 -14 17 12 13 19 -4
27 -1 27 9 0 7 16 21 35 30 26 12 32 19 22 25 -8 4 -20 29 -27 55 -15 53 -24
63 -57 63 -14 0 -23 6 -23 16 0 9 -9 18 -20 21 -11 3 -17 9 -14 14 8 13 48 11
63 -3 11 -11 13 -10 8 5 -4 10 -1 17 6 17 7 0 3 7 -7 15 -19 14 -19 16 -2 28
17 13 16 15 -15 35 -32 21 -28 27 14 22 23 -2 19 27 -7 53 -14 15 -15 21 -6
27 18 11 5 39 -22 50 -22 8 -21 9 7 11 23 1 25 3 8 6 -12 2 -27 11 -33 19 -10
12 -8 14 14 14 14 0 26 5 26 10 0 6 8 11 18 11 23 2 -92 20 -140 22 -21 0 -38
5 -38 9 0 8 26 11 73 8 18 -1 27 3 27 13 0 8 14 20 30 27 30 13 37 24 21 34
-5 3 -14 27 -21 53 -13 54 -23 64 -60 56 -16 -3 -31 1 -39 10 -10 13 -33 15
-119 12 -59 -2 -98 -2 -87 1 11 3 31 7 45 11 24 5 24 6 5 14 -15 7 -12 8 15 5
23 -2 53 5 85 19 l50 23 -97 1 c-59 1 -99 -3 -103 -10 -4 -6 -22 -8 -46 -4
-27 5 -39 3 -39 -5 0 -7 -12 -10 -27 -9 -16 1 -38 -1 -51 -5 -22 -7 -22 -8 -5
-22 17 -13 17 -13 -5 -14 -12 0 -25 7 -29 16 -5 13 -21 15 -107 10 -80 -5 -94
-3 -67 5 27 8 32 13 20 20 -10 7 -6 9 16 7 17 -1 52 4 79 12 38 10 51 11 54 2
2 -7 8 -12 14 -12 6 0 3 9 -6 19 -15 17 -32 20 -104 20 -60 0 -93 -4 -109 -15
-13 -8 -23 -10 -23 -4 0 14 -67 12 -73 -2 -4 -10 -6 -10 -6 0 -1 6 -9 12 -18
12 -10 1 0 9 21 19 l40 19 -65 6 c-35 4 -82 7 -103 7 -54 1 -25 19 32 19 29 0
42 4 42 14 0 7 14 19 30 26 28 12 29 14 15 30 -9 10 -19 35 -22 56 -7 45 -17
54 -57 54 -16 0 -37 7 -46 15 -14 12 -29 13 -94 5 -86 -11 -115 -4 -70 16 l29
12 -27 1 c-15 1 -30 6 -33 12 -10 15 2 24 17 12 24 -19 70 -21 114 -6 24 8 46
18 48 22 10 15 -167 10 -188 -5 -23 -16 -70 -19 -61 -4 3 6 1 10 -4 10 -6 0
-11 -4 -11 -10 0 -5 -9 -10 -19 -10 -10 0 -22 -7 -25 -15 -4 -11 3 -17 24 -22
30 -5 52 -23 30 -23 -6 0 -9 -3 -7 -7 3 -5 -47 -7 -110 -5 -73 2 -120 -1 -126
-7 -16 -16 -57 -13 -57 3 0 18 -33 30 -58 22 -12 -4 -25 1 -36 13 -17 19 -68
22 -107 6 -9 -3 -38 -5 -65 -3 l-49 4 43 8 c38 8 41 10 25 23 -16 12 -14 13
17 8 35 -5 112 15 117 31 5 14 -149 10 -177 -4z m1849 -2011 c9 -1 11 -9 7
-28 -4 -16 -9 -37 -12 -48 -2 -11 7 4 21 33 27 59 47 61 39 4 -3 -20 -6 -46
-8 -57 -1 -11 -7 -29 -13 -40 -6 -11 -14 -34 -17 -52 -4 -17 -14 -34 -22 -37
-8 -3 -14 -17 -14 -31 0 -23 -4 -25 -45 -25 l-45 0 0 39 c0 22 7 46 15 55 17
17 20 42 5 51 -16 10 -12 26 6 23 10 -2 19 3 21 10 3 7 -4 12 -16 12 -22 0
-29 24 -10 36 8 4 8 9 0 17 -6 6 -11 19 -11 28 0 17 15 18 99 10z"/>
</g>
</svg>
