<?xml version="1.0" standalone="no"?>
<!DOCTYPE svg PUBLIC "-//W3C//DTD SVG 20010904//EN"
 "http://www.w3.org/TR/2001/REC-SVG-20010904/DTD/svg10.dtd">
<svg version="1.0" xmlns="http://www.w3.org/2000/svg"
 width="1014.000000pt" height="700.000000pt" viewBox="0 0 1014.000000 700.000000"
 preserveAspectRatio="xMidYMid meet">
<metadata>
Created by potrace 1.16, written by Peter Selinger 2001-2019
</metadata>
<g transform="translate(0.000000,700.000000) scale(0.100000,-0.100000)"
fill="#000000" stroke="none">
<path d="M4900 6170 c-659 -82 -1220 -437 -1570 -994 -329 -522 -413 -1171
-230 -1771 54 -178 151 -385 256 -546 98 -150 108 -178 107 -280 -1 -48 -7
-106 -13 -130 -20 -73 -17 -165 7 -197 46 -61 139 -84 191 -45 53 40 64 77 57
195 -8 127 1 164 50 207 83 72 168 61 222 -28 69 -115 78 -266 33 -576 -11
-77 -20 -182 -20 -235 0 -113 19 -163 76 -206 33 -25 46 -29 105 -29 64 0 70
2 103 34 53 51 60 85 50 225 -15 217 -12 305 14 353 56 106 199 145 287 79
107 -82 148 -310 97 -546 -11 -52 -30 -140 -42 -195 -47 -219 -24 -310 98
-390 100 -66 243 -19 298 99 33 71 32 156 -7 342 -27 128 -31 168 -30 289 1
268 52 439 148 505 89 61 245 20 291 -76 16 -35 12 -90 -17 -224 -18 -79 -13
-151 12 -200 33 -65 66 -85 140 -85 70 0 108 22 139 78 22 41 23 163 3 231
-32 106 -12 240 43 289 76 68 218 57 285 -22 54 -64 59 -136 22 -331 -30 -157
-31 -221 -6 -276 49 -107 202 -117 277 -18 27 35 29 44 28 123 0 48 -11 135
-23 195 -31 146 -31 270 -1 349 29 78 101 147 223 216 129 72 221 158 308 288
258 387 384 894 339 1369 -49 503 -268 973 -617 1316 -195 192 -343 298 -568
408 -203 100 -352 149 -576 190 -130 25 -461 35 -589 20z"/>
</g>
</svg>
