<?xml version="1.0" standalone="no"?>
<!DOCTYPE svg PUBLIC "-//W3C//DTD SVG 20010904//EN"
 "http://www.w3.org/TR/2001/REC-SVG-20010904/DTD/svg10.dtd">
<svg version="1.0" xmlns="http://www.w3.org/2000/svg"
 width="1000.000000pt" height="700.000000pt" viewBox="0 0 1000.000000 700.000000"
 preserveAspectRatio="xMidYMid meet">
<metadata>
Created by potrace 1.16, written by Peter Selinger 2001-2019
</metadata>
<g transform="translate(0.000000,700.000000) scale(0.100000,-0.100000)"
fill="#000000" stroke="none">
<path d="M4775 6059 c-202 -25 -401 -83 -580 -169 -214 -103 -417 -254 -561
-417 -273 -310 -415 -578 -484 -914 -19 -93 -21 -128 -17 -329 4 -197 8 -237
29 -325 85 -338 131 -477 243 -740 126 -294 134 -316 180 -500 77 -303 89
-395 89 -730 l0 -290 -42 -249 c-55 -321 -58 -357 -38 -428 34 -115 87 -158
194 -158 111 0 168 45 197 156 28 106 21 177 -34 347 -60 184 -86 310 -102
477 -14 149 -6 365 16 434 19 63 59 131 87 151 47 32 133 12 143 -34 3 -15 -5
-62 -20 -110 -28 -94 -30 -122 -14 -187 30 -119 176 -129 230 -16 26 53 20
110 -22 197 -68 143 -54 265 35 295 106 35 193 -105 204 -326 9 -198 -19 -363
-113 -679 -37 -123 -40 -268 -8 -336 82 -173 268 -168 355 9 31 62 33 74 32
162 0 77 -6 115 -33 200 -64 210 -90 349 -98 530 -10 233 22 357 116 450 77
77 144 95 247 68 33 -9 58 -26 89 -59 85 -91 96 -220 34 -434 -36 -128 -48
-253 -29 -319 15 -53 78 -118 133 -136 62 -19 128 3 189 64 87 87 75 245 -37
481 -31 66 -65 141 -75 166 -38 95 -27 210 25 259 34 32 121 40 151 13 49 -43
57 -69 60 -193 2 -75 8 -131 18 -153 15 -37 58 -67 96 -67 32 0 95 36 113 64
21 32 22 111 2 158 -8 19 -22 65 -31 102 -20 82 -11 127 40 181 71 75 157 28
197 -110 11 -38 14 -117 14 -335 0 -318 -7 -377 -72 -590 -39 -130 -55 -249
-41 -314 11 -52 63 -116 112 -140 87 -41 202 -1 248 87 33 63 30 170 -11 321
-53 200 -64 301 -65 596 -1 297 3 329 76 540 75 216 129 332 250 533 180 300
237 453 273 723 109 834 -387 1641 -1185 1928 -92 34 -207 62 -325 82 -114 19
-375 26 -480 13z"/>
</g>
</svg>
