<?xml version="1.0" standalone="no"?>
<!DOCTYPE svg PUBLIC "-//W3C//DTD SVG 20010904//EN"
 "http://www.w3.org/TR/2001/REC-SVG-20010904/DTD/svg10.dtd">
<svg version="1.0" xmlns="http://www.w3.org/2000/svg"
 width="1000.000000pt" height="700.000000pt" viewBox="0 0 1000.000000 700.000000"
 preserveAspectRatio="xMidYMid meet">
<metadata>
Created by potrace 1.16, written by Peter Selinger 2001-2019
</metadata>
<g transform="translate(0.000000,700.000000) scale(0.100000,-0.100000)"
fill="#000000" stroke="none">
<path d="M3743 6095 c-193 -42 -359 -206 -396 -392 -4 -18 -7 -626 -7 -1352
-1 -974 2 -1331 10 -1363 13 -45 50 -86 195 -213 132 -115 143 -219 55 -500
-49 -157 -60 -224 -48 -278 12 -56 40 -91 93 -116 67 -31 123 -28 181 12 64
43 88 92 92 187 3 66 -1 89 -33 185 -79 232 -52 375 70 375 105 0 163 -115
185 -368 18 -209 -11 -415 -90 -657 -27 -82 -33 -117 -34 -192 -1 -86 1 -94
29 -134 83 -118 206 -129 306 -29 80 80 89 190 30 385 -53 178 -79 361 -88
636 -5 144 -3 163 18 235 19 64 32 87 69 125 53 55 104 69 176 49 86 -24 125
-86 131 -210 5 -86 4 -99 -42 -320 -28 -131 -28 -196 0 -250 33 -64 118 -82
193 -40 83 47 91 117 42 360 -41 198 -51 383 -26 479 39 151 143 207 272 146
65 -31 105 -70 135 -132 29 -61 31 -195 4 -258 -26 -61 -31 -182 -8 -225 36
-69 118 -99 181 -66 44 23 62 50 74 112 9 51 8 71 -11 144 -40 158 -23 261 55
329 88 78 198 94 295 43 73 -38 103 -85 135 -207 54 -211 39 -493 -43 -790
-37 -135 -45 -233 -24 -287 19 -50 79 -106 133 -124 98 -32 192 3 245 93 39
66 39 166 0 271 -26 69 -64 244 -104 467 -11 64 -17 152 -18 245 0 132 2 149
23 192 49 98 95 124 256 144 60 8 119 20 132 29 36 23 73 78 94 139 19 54 20
90 20 1369 0 1146 -2 1320 -15 1372 -44 171 -159 296 -333 364 l-67 26 -1240
2 c-1015 1 -1251 -1 -1302 -12z"/>
</g>
</svg>
