<?xml version="1.0" standalone="no"?>
<!DOCTYPE svg PUBLIC "-//W3C//DTD SVG 20010904//EN"
 "http://www.w3.org/TR/2001/REC-SVG-20010904/DTD/svg10.dtd">
<svg version="1.0" xmlns="http://www.w3.org/2000/svg"
 width="1014.000000pt" height="700.000000pt" viewBox="0 0 1014.000000 700.000000"
 preserveAspectRatio="xMidYMid meet">
<metadata>
Created by potrace 1.16, written by Peter Selinger 2001-2019
</metadata>
<g transform="translate(0.000000,700.000000) scale(0.100000,-0.100000)"
fill="#000000" stroke="none">
<path d="M4925 5954 c-455 -61 -885 -267 -1217 -582 -363 -345 -592 -789 -664
-1287 -21 -144 -24 -434 -5 -575 40 -307 146 -609 305 -869 32 -52 72 -135 89
-185 30 -88 31 -96 31 -261 0 -108 -7 -209 -17 -276 -25 -157 -23 -283 6 -339
33 -65 66 -85 140 -85 76 0 115 24 147 90 29 59 29 140 0 285 -40 203 -20 320
62 364 32 18 40 18 78 7 76 -22 159 -133 195 -260 45 -157 45 -325 -1 -511
-31 -129 -38 -292 -16 -366 29 -99 103 -157 199 -157 44 0 63 6 96 29 91 63
113 177 82 429 -10 77 -18 196 -18 265 0 138 18 209 71 272 49 58 130 81 203
57 90 -30 129 -120 110 -253 -29 -209 6 -293 126 -303 116 -10 168 88 143 267
-22 149 -23 261 -6 322 38 129 113 182 256 182 129 -1 206 -45 247 -142 23
-56 33 -170 22 -272 -26 -263 -23 -300 27 -359 53 -63 155 -61 213 4 58 66 64
157 22 345 -36 163 -24 355 29 461 30 60 95 125 155 157 42 22 63 26 135 27
76 0 90 -3 133 -28 72 -42 99 -91 105 -186 3 -50 -1 -107 -12 -158 -43 -214 0
-318 132 -318 66 1 110 22 138 69 19 33 21 57 13 276 -6 187 35 266 176 335
90 45 151 97 209 179 53 75 150 268 199 396 304 798 121 1690 -472 2304 -346
358 -799 586 -1295 651 -143 18 -431 18 -571 -1z"/>
</g>
</svg>
