<?xml version="1.0" standalone="no"?>
<!DOCTYPE svg PUBLIC "-//W3C//DTD SVG 20010904//EN"
 "http://www.w3.org/TR/2001/REC-SVG-20010904/DTD/svg10.dtd">
<svg version="1.0" xmlns="http://www.w3.org/2000/svg"
 width="1000.000000pt" height="700.000000pt" viewBox="0 0 1000.000000 700.000000"
 preserveAspectRatio="xMidYMid meet">
<metadata>
Created by potrace 1.16, written by Peter Selinger 2001-2019
</metadata>
<g transform="translate(0.000000,700.000000) scale(0.100000,-0.100000)"
fill="#000000" stroke="none">
<path d="M4850 5409 c-689 -41 -1308 -264 -1649 -594 -159 -153 -244 -299
-276 -470 -36 -188 3 -340 148 -576 66 -107 112 -241 134 -384 13 -94 14 -128
4 -230 -6 -66 -23 -169 -37 -230 -35 -150 -38 -185 -24 -245 15 -61 65 -120
102 -120 14 0 38 10 53 22 64 50 82 163 46 293 -31 112 -51 243 -51 336 0 73
3 91 23 120 69 103 190 106 289 7 47 -47 67 -93 74 -177 9 -95 -13 -387 -38
-516 -11 -60 -23 -146 -25 -190 -4 -71 -2 -84 19 -115 66 -98 168 -35 168 105
0 33 -5 76 -10 95 -23 77 -50 289 -53 398 -2 128 5 151 60 206 39 40 82 56
148 56 67 0 119 -24 163 -74 51 -59 55 -89 49 -431 -5 -318 -18 -437 -63 -595
-30 -107 -34 -126 -34 -190 0 -242 182 -346 275 -156 44 90 44 173 2 336 -55
210 -62 276 -62 566 l0 260 30 49 c19 31 49 61 79 80 43 26 59 30 120 30 103
-1 173 -43 222 -135 31 -57 25 -252 -10 -398 -20 -79 -26 -124 -21 -150 16
-84 65 -127 111 -97 60 39 66 113 26 295 -28 123 -29 259 -3 315 57 122 205
171 329 109 29 -14 64 -41 78 -60 48 -62 54 -106 54 -373 0 -293 -13 -413 -75
-716 -67 -326 -69 -422 -13 -505 38 -55 72 -74 132 -74 94 0 150 58 176 179
12 61 -8 203 -71 495 l-42 195 -4 371 c-5 366 -4 372 17 414 25 50 61 85 112
111 51 26 155 26 207 -1 51 -25 109 -94 122 -143 12 -44 6 -176 -17 -406 -25
-254 -15 -333 42 -347 34 -9 54 3 77 47 21 38 20 71 -7 353 -9 88 -19 225 -22
305 l-6 146 29 55 c39 73 98 110 185 117 55 4 70 1 118 -24 36 -18 65 -43 85
-71 l30 -44 0 -251 c-1 -264 -8 -327 -57 -507 -11 -41 -25 -95 -30 -120 -18
-89 14 -210 71 -271 32 -33 44 -39 79 -39 35 0 48 6 80 38 81 81 92 203 37
415 -50 195 -59 286 -59 602 -1 246 1 286 17 332 35 99 156 193 230 178 52
-11 93 -42 112 -85 23 -51 17 -140 -24 -342 -39 -194 -45 -249 -32 -291 23
-68 85 -101 140 -73 72 38 77 118 26 376 -68 343 -39 513 131 756 116 165 154
252 173 394 28 213 -53 427 -237 622 -120 127 -263 229 -459 327 -471 237
-1093 349 -1723 310z"/>
</g>
</svg>
