<?xml version="1.0" standalone="no"?>
<!DOCTYPE svg PUBLIC "-//W3C//DTD SVG 20010904//EN"
 "http://www.w3.org/TR/2001/REC-SVG-20010904/DTD/svg10.dtd">
<svg version="1.0" xmlns="http://www.w3.org/2000/svg"
 width="1000.000000pt" height="700.000000pt" viewBox="0 0 1000.000000 700.000000"
 preserveAspectRatio="xMidYMid meet">
<metadata>
Created by potrace 1.16, written by Peter Selinger 2001-2019
</metadata>
<g transform="translate(0.000000,700.000000) scale(0.100000,-0.100000)"
fill="#000000" stroke="none">
<path d="M4926 5795 c-288 -47 -515 -161 -714 -357 -174 -172 -288 -372 -349
-615 -25 -97 -28 -126 -28 -288 0 -192 6 -233 66 -441 54 -189 103 -447 131
-689 9 -78 13 -318 13 -835 0 -763 4 -836 50 -1013 47 -179 122 -250 215 -202
69 35 105 137 122 337 9 112 9 229 -2 543 -13 417 -10 663 10 729 6 21 23 50
37 63 20 21 31 24 61 19 53 -8 91 -52 108 -122 8 -33 19 -133 24 -224 15 -239
33 -304 93 -340 45 -28 99 -26 134 4 54 45 58 78 58 441 0 302 2 333 19 365
25 48 55 70 94 70 46 0 69 -14 92 -59 40 -79 56 -210 65 -526 12 -383 36 -516
107 -587 34 -34 43 -38 89 -38 46 0 55 4 84 34 18 19 38 54 44 78 22 80 24
253 5 468 -19 217 -24 480 -11 542 4 21 19 51 33 68 22 26 33 30 74 30 37 0
55 -6 78 -25 46 -38 62 -93 72 -241 13 -198 35 -248 112 -260 29 -5 41 -1 71
26 59 51 85 139 112 379 36 318 105 637 197 913 68 205 89 320 89 489 0 345
-132 661 -377 905 -176 175 -392 292 -639 345 -121 26 -324 33 -439 14z"/>
</g>
</svg>
