<?xml version="1.0" standalone="no"?>
<!DOCTYPE svg PUBLIC "-//W3C//DTD SVG 20010904//EN"
 "http://www.w3.org/TR/2001/REC-SVG-20010904/DTD/svg10.dtd">
<svg version="1.0" xmlns="http://www.w3.org/2000/svg"
 width="1000.000000pt" height="700.000000pt" viewBox="0 0 1000.000000 700.000000"
 preserveAspectRatio="xMidYMid meet">
<metadata>
Created by potrace 1.16, written by Peter Selinger 2001-2019
</metadata>
<g transform="translate(0.000000,700.000000) scale(0.100000,-0.100000)"
fill="#000000" stroke="none">
<path d="M4851 5980 c-94 -13 -262 -65 -357 -110 -308 -147 -560 -427 -668
-743 -53 -155 -69 -257 -69 -442 0 -255 44 -452 137 -619 50 -90 158 -202 241
-250 36 -22 85 -56 109 -77 77 -68 78 -73 87 -514 8 -396 16 -487 55 -597 34
-99 106 -159 188 -160 64 -1 106 27 138 92 41 82 47 128 58 440 6 160 17 324
25 375 30 178 101 268 210 269 96 1 142 -60 175 -230 30 -157 34 -389 15 -929
-17 -499 -15 -681 10 -905 35 -316 129 -470 287 -470 171 0 250 186 278 650 5
91 10 404 10 696 0 577 9 809 41 1034 35 250 55 302 187 495 146 213 176 261
218 340 80 149 104 243 104 393 -1 184 -40 356 -120 528 -171 365 -499 628
-900 720 -78 18 -368 27 -459 14z"/>
</g>
</svg>
