<?xml version="1.0" standalone="no"?>
<!DOCTYPE svg PUBLIC "-//W3C//DTD SVG 20010904//EN"
 "http://www.w3.org/TR/2001/REC-SVG-20010904/DTD/svg10.dtd">
<svg version="1.0" xmlns="http://www.w3.org/2000/svg"
 width="1000.000000pt" height="700.000000pt" viewBox="0 0 1000.000000 700.000000"
 preserveAspectRatio="xMidYMid meet">
<metadata>
Created by potrace 1.16, written by Peter Selinger 2001-2019
</metadata>
<g transform="translate(0.000000,700.000000) scale(0.100000,-0.100000)"
fill="#000000" stroke="none">
<path d="M4875 5914 c-727 -79 -1286 -695 -1285 -1418 0 -266 62 -445 268
-774 87 -140 99 -174 113 -332 13 -152 6 -356 -27 -745 -41 -493 -47 -594 -40
-765 8 -235 39 -344 119 -418 53 -48 110 -66 183 -59 140 14 223 115 254 310
19 114 7 434 -25 687 -57 455 -70 640 -55 770 19 170 72 240 181 240 160 0
211 -159 189 -587 -28 -548 -24 -672 22 -754 51 -91 156 -91 206 0 45 83 58
230 43 511 -26 480 -29 553 -21 652 17 195 57 268 149 268 144 0 199 -193 173
-602 -7 -106 -20 -263 -28 -348 -58 -604 -59 -901 -3 -1059 46 -132 136 -195
244 -171 210 47 251 365 161 1258 -52 510 -43 735 33 811 23 23 79 28 111 11
55 -30 68 -183 41 -496 -29 -329 7 -464 122 -464 109 0 136 125 116 530 -12
257 -8 484 11 585 8 40 46 130 114 265 131 265 151 314 187 465 46 195 19 475
-69 709 -75 197 -175 350 -332 506 -265 266 -595 406 -970 415 -80 2 -163 1
-185 -1z"/>
</g>
</svg>
