<?xml version="1.0" standalone="no"?>
<!DOCTYPE svg PUBLIC "-//W3C//DTD SVG 20010904//EN"
 "http://www.w3.org/TR/2001/REC-SVG-20010904/DTD/svg10.dtd">
<svg version="1.0" xmlns="http://www.w3.org/2000/svg"
 width="1000.000000pt" height="700.000000pt" viewBox="0 0 1000.000000 700.000000"
 preserveAspectRatio="xMidYMid meet">
<metadata>
Created by potrace 1.16, written by Peter Selinger 2001-2019
</metadata>
<g transform="translate(0.000000,700.000000) scale(0.100000,-0.100000)"
fill="#000000" stroke="none">
<path d="M4718 6135 c-1091 -96 -1968 -467 -2371 -1004 -69 -92 -150 -251
-177 -351 -30 -109 -37 -273 -16 -379 16 -77 33 -125 140 -380 54 -131 71
-236 67 -431 -7 -339 -8 -326 15 -356 46 -62 123 -52 155 21 14 32 19 66 18
146 0 120 19 189 62 222 36 26 63 15 88 -36 38 -81 44 -191 36 -692 -12 -776
-13 -715 11 -755 36 -62 104 -65 148 -7 21 28 21 36 18 382 -4 442 7 515 78
545 106 44 184 -137 196 -453 8 -212 21 -247 93 -247 81 0 94 31 96 235 1 88
5 181 10 208 15 98 79 151 173 144 66 -5 102 -30 124 -88 14 -38 17 -87 17
-339 1 -230 4 -309 16 -355 19 -73 54 -110 94 -100 38 10 48 21 65 73 13 38
16 111 18 372 3 321 3 326 28 385 31 73 72 105 137 105 99 0 140 -101 152
-370 6 -120 13 -186 23 -211 18 -41 65 -74 123 -83 82 -14 76 2 73 -184 -2
-143 0 -172 15 -199 29 -54 79 -68 138 -37 49 25 62 72 55 184 -8 115 8 336
29 407 8 29 27 66 41 83 21 25 33 30 68 30 89 0 154 -71 192 -208 17 -60 19
-106 19 -422 0 -321 2 -358 18 -387 37 -69 122 -80 171 -23 38 45 41 99 17
286 -26 200 -36 389 -26 469 6 48 13 65 40 92 28 28 40 33 80 33 39 0 52 -5
75 -30 51 -54 63 -115 55 -260 -6 -116 -5 -133 13 -173 33 -75 97 -90 151 -37
39 39 47 95 32 209 -22 161 11 252 97 266 88 15 102 32 148 186 18 61 40 121
48 135 9 13 50 40 91 59 56 27 85 49 117 87 103 124 127 137 187 102 101 -60
133 -255 113 -687 -7 -156 -8 -266 -3 -285 32 -111 127 -132 189 -42 23 33 24
41 18 135 -3 55 -10 150 -15 210 -6 61 -10 180 -10 265 -1 341 59 499 181 476
80 -15 130 -112 150 -287 10 -91 9 -131 -6 -274 -23 -214 -23 -301 -1 -349 34
-72 97 -88 145 -36 47 51 53 142 18 321 -18 93 -22 149 -22 304 0 393 74 590
183 488 65 -62 96 -236 71 -400 -22 -139 12 -223 91 -223 32 0 42 6 65 35 25
33 26 38 20 122 -17 255 -18 295 -6 408 13 122 42 216 71 227 32 12 58 -11 74
-66 22 -77 44 -100 89 -99 75 2 86 37 86 273 0 190 7 220 54 220 27 0 47 -21
66 -68 25 -64 86 -68 114 -7 9 19 28 110 42 202 29 199 43 258 92 418 36 116
37 125 37 270 0 172 -11 223 -80 371 -196 421 -684 773 -1380 995 -301 96
-611 160 -1005 205 -191 22 -813 27 -1022 9z"/>
</g>
</svg>
