<?xml version="1.0" standalone="no"?>
<!DOCTYPE svg PUBLIC "-//W3C//DTD SVG 20010904//EN"
 "http://www.w3.org/TR/2001/REC-SVG-20010904/DTD/svg10.dtd">
<svg version="1.0" xmlns="http://www.w3.org/2000/svg"
 width="1000.000000pt" height="700.000000pt" viewBox="0 0 1000.000000 700.000000"
 preserveAspectRatio="xMidYMid meet">
<metadata>
Created by potrace 1.16, written by Peter Selinger 2001-2019
</metadata>
<g transform="translate(0.000000,700.000000) scale(0.100000,-0.100000)"
fill="#000000" stroke="none">
<path d="M3930 6087 c-415 -11 -785 -13 -1190 -6 -252 4 -256 4 -303 -19 -61
-31 -124 -93 -151 -151 -19 -42 -21 -61 -18 -211 1 -91 7 -217 12 -281 5 -64
14 -255 20 -425 6 -170 15 -392 21 -494 5 -102 9 -396 8 -655 -2 -500 0 -520
47 -602 51 -88 101 -96 175 -26 55 51 72 51 97 0 31 -64 43 -320 21 -472 -21
-152 -23 -219 -5 -253 30 -58 87 -65 126 -15 25 32 27 119 4 229 -20 97 -15
195 10 223 23 26 74 28 92 4 7 -10 14 -41 14 -69 0 -60 20 -84 68 -84 53 0 70
28 74 130 3 49 6 56 37 77 40 27 131 32 184 9 74 -30 132 -132 164 -284 23
-113 14 -763 -12 -842 -25 -75 -24 -174 2 -208 47 -64 121 -61 148 5 20 48 19
106 -5 233 -19 98 -21 138 -18 461 3 348 3 355 26 390 33 54 68 73 133 74 48
0 64 -6 119 -39 134 -83 169 -91 245 -56 25 11 71 41 102 67 162 132 267 156
292 66 17 -59 14 -347 -5 -443 -25 -133 3 -213 75 -213 75 0 99 84 63 226 -30
120 -46 437 -26 514 24 94 66 133 140 133 34 0 45 -8 105 -70 63 -66 69 -70
112 -70 57 0 70 19 99 138 29 117 63 156 137 156 43 0 56 -5 78 -27 25 -24 28
-35 33 -129 3 -57 12 -113 18 -125 23 -43 100 -43 124 0 8 14 13 66 13 152 0
115 3 136 24 183 40 89 108 132 209 132 58 0 101 -20 141 -66 83 -94 101 -190
101 -547 0 -223 -4 -294 -20 -392 -26 -154 -26 -211 0 -253 36 -59 108 -61
147 -4 24 38 21 135 -8 242 -23 81 -24 101 -24 385 0 289 1 302 24 369 32 94
91 156 147 156 27 0 55 -10 86 -29 38 -24 50 -39 68 -88 18 -49 21 -73 17
-158 -2 -55 -10 -137 -17 -181 -17 -101 -6 -150 39 -177 37 -22 74 -14 101 20
27 35 26 112 -2 199 -55 169 -8 374 84 374 35 0 56 -19 99 -90 75 -126 153
-193 238 -206 91 -13 169 -75 190 -151 17 -62 14 -477 -5 -641 -24 -204 -2
-289 73 -280 49 5 65 53 60 178 -3 58 -10 148 -17 200 -15 116 -8 577 9 631
26 82 83 112 139 73 44 -31 52 -63 51 -213 0 -150 6 -175 49 -186 36 -9 70 18
78 62 4 22 0 90 -11 163 -14 104 -16 140 -7 207 28 207 113 293 204 206 56
-54 122 -24 155 71 17 48 18 122 15 1281 -2 786 -7 1254 -13 1297 -17 109 -80
184 -184 218 -32 10 -166 11 -695 5 -744 -9 -766 -9 -1860 -2 -472 3 -964 1
-1190 -6z m-1002 -2573 c16 -11 22 -24 20 -42 -4 -38 -58 -44 -82 -10 -20 28
-20 33 0 52 20 20 34 20 62 0z m3969 -233 c99 -72 87 -220 -13 -166 -54 29
-107 127 -96 178 6 28 62 22 109 -12z m-2805 -190 c27 -24 33 -36 33 -71 0
-34 -6 -47 -28 -66 -41 -35 -97 -47 -138 -30 -93 39 -99 129 -11 175 55 30
105 27 144 -8z"/>
</g>
</svg>
