<?xml version="1.0" standalone="no"?>
<!DOCTYPE svg PUBLIC "-//W3C//DTD SVG 20010904//EN"
 "http://www.w3.org/TR/2001/REC-SVG-20010904/DTD/svg10.dtd">
<svg version="1.0" xmlns="http://www.w3.org/2000/svg"
 width="1024.000000pt" height="724.000000pt" viewBox="0 0 1024.000000 724.000000"
 preserveAspectRatio="xMidYMid meet">
<metadata>
Created by potrace 1.16, written by Peter Selinger 2001-2019
</metadata>
<g transform="translate(0.000000,724.000000) scale(0.100000,-0.100000)"
fill="#000000" stroke="none">
<path d="M3120 6090 c-28 -6 -34 -20 -32 -67 2 -28 -1 -33 -21 -33 -13 0 -28
5 -33 10 -7 7 -10 4 -9 -12 1 -13 9 -24 18 -26 9 -2 19 -12 22 -23 4 -11 11
-17 16 -14 5 4 9 -3 9 -15 0 -12 -4 -19 -9 -15 -5 3 -13 -5 -17 -17 -4 -15 -1
-25 10 -34 16 -11 16 -13 -1 -23 -10 -6 -13 -11 -8 -11 14 -1 -17 -20 -33 -20
-7 0 -10 5 -7 10 4 6 10 8 15 5 12 -8 21 38 9 50 -7 7 -10 5 -7 -5 1 -8 -2
-15 -7 -15 -6 0 -10 10 -10 22 1 12 -3 19 -7 17 -4 -3 -8 1 -8 10 0 8 6 17 13
19 8 4 6 6 -4 6 -9 1 -20 -9 -26 -21 -8 -19 -10 -20 -16 -5 -4 10 -1 17 6 18
7 0 3 4 -8 8 -11 5 -25 4 -32 -1 -10 -8 -13 -5 -13 10 0 11 5 22 12 24 9 3 9
6 0 12 -7 4 -12 2 -12 -3 0 -17 -17 -13 -24 6 -4 10 -4 14 0 11 3 -4 13 0 21
8 19 19 9 31 -11 14 -9 -6 -21 -10 -28 -7 -8 3 -6 6 5 6 11 1 15 5 11 13 -5 8
-13 5 -25 -10 -19 -24 -35 -28 -41 -10 -3 9 -6 9 -12 0 -4 -7 -3 -12 3 -12 6
0 7 -7 4 -17 -4 -10 -2 -14 4 -10 6 4 13 -5 15 -23 2 -16 1 -27 -3 -24 -4 2
-10 -2 -13 -8 -3 -9 -8 -8 -16 5 -6 9 -15 15 -20 12 -6 -4 -7 7 -3 26 4 20 2
30 -3 26 -6 -3 -11 -25 -13 -49 -1 -23 -7 -46 -14 -50 -9 -6 -9 -8 1 -8 7 0
12 -13 12 -33 0 -32 -2 -33 -42 -36 -24 -1 -58 -4 -75 -6 -18 -2 -35 0 -38 6
-4 5 -13 6 -23 0 -10 -5 -29 -7 -43 -4 -23 4 -27 1 -34 -29 l-8 -33 -6 30 c-5
25 -11 30 -36 32 -25 2 -31 -1 -31 -17 0 -11 4 -20 9 -20 5 0 5 -10 2 -21 -5
-16 -4 -19 5 -14 8 5 11 3 8 -6 -3 -8 -12 -13 -21 -11 -11 2 -15 -2 -11 -13 3
-8 10 -15 15 -15 5 0 9 -4 9 -8 0 -14 -54 -6 -58 9 -3 11 -1 11 7 -1 6 -8 11
-13 12 -10 1 7 9 79 12 105 1 15 -3 19 -18 17 -11 -2 -26 -4 -32 -4 -8 -1 -13
-15 -13 -35 0 -20 4 -32 10 -28 6 3 10 1 10 -4 0 -6 -4 -11 -9 -11 -4 0 -6
-11 -4 -24 6 -31 -36 -65 -50 -41 -10 18 -27 11 -27 -11 0 -8 5 -12 10 -9 6 3
10 -3 10 -15 0 -20 -1 -20 -25 -4 -14 9 -25 12 -25 6 0 -5 6 -12 14 -15 8 -3
16 -16 18 -28 2 -12 8 -24 15 -26 7 -3 9 3 6 16 -3 12 -1 21 4 21 15 0 14 -51
-1 -66 -13 -12 -16 -12 -25 3 -14 25 -44 5 -51 -33 -4 -23 -7 -25 -13 -11 -3
9 -4 31 0 47 3 17 1 36 -5 42 -5 7 -12 22 -15 33 -3 15 -5 13 -6 -8 -1 -36
-26 -31 -26 5 0 16 -4 24 -12 21 -6 -3 -9 -11 -6 -19 3 -9 0 -14 -8 -12 -9 2
-13 -5 -12 -18 2 -16 -3 -21 -20 -20 -12 0 -21 -4 -20 -11 2 -7 -4 -10 -12 -7
-18 7 -20 21 -3 26 17 6 -5 62 -27 66 -10 3 -15 0 -11 -7 10 -15 -7 -14 -22 1
-9 9 -12 8 -12 -4 0 -8 7 -21 15 -28 12 -10 13 -16 4 -26 -8 -10 -8 -14 0 -14
6 0 11 -4 11 -10 0 -11 -37 -50 -45 -49 -3 0 -9 -1 -13 -4 -4 -2 -2 -2 5 -1 6
2 14 -4 17 -12 3 -9 1 -12 -4 -9 -6 3 -10 3 -11 -2 -4 -45 -3 -63 3 -63 21 0
5 -15 -17 -16 -15 -1 -25 4 -25 11 0 8 -6 17 -12 21 -7 4 -10 3 -5 -1 4 -5 0
-17 -10 -27 -9 -10 -13 -21 -9 -25 4 -4 11 -1 16 6 7 12 11 11 25 -2 15 -16
13 -17 -30 -17 -36 0 -51 5 -66 23 l-18 22 -1 -27 c0 -20 5 -27 22 -30 14 -2
24 -11 26 -23 2 -12 0 -16 -5 -9 -8 11 -37 25 -61 30 -19 3 -28 14 -14 14 9 0
8 11 -3 37 -11 26 -12 39 -4 43 7 5 6 9 -4 13 -9 3 -17 -2 -20 -14 -3 -10 -1
-19 4 -19 5 0 9 -7 9 -15 0 -8 -3 -15 -8 -15 -14 0 -42 40 -42 60 0 11 -5 20
-10 20 -6 0 -10 6 -8 13 1 6 -2 22 -6 35 -4 13 -3 28 2 35 17 22 20 44 7 44
-7 0 -12 -7 -11 -15 1 -8 -5 -17 -13 -20 -10 -3 -11 2 -6 19 4 13 12 26 16 27
5 2 9 8 9 13 0 6 -4 8 -8 5 -11 -6 -8 85 2 103 4 7 5 23 2 36 -3 13 -2 27 4
30 6 3 7 -1 4 -9 -3 -9 -1 -16 5 -16 6 0 11 9 11 21 0 11 5 17 10 14 6 -4 10
7 10 24 0 17 -5 31 -11 31 -6 0 -8 9 -4 20 5 16 2 20 -15 20 -12 0 -18 4 -15
10 9 15 -13 39 -33 36 -9 -2 -19 -11 -21 -22 -2 -10 -8 -22 -14 -26 -8 -4 -7
-11 1 -20 6 -8 8 -18 4 -24 -9 -14 -45 -14 -54 0 -4 6 -8 -4 -8 -22 0 -22 4
-31 11 -26 6 3 22 -6 36 -22 20 -24 22 -30 9 -32 -9 -2 -16 -7 -16 -12 0 -5
-7 -16 -16 -24 -8 -9 -12 -21 -9 -27 5 -6 11 -4 19 7 12 15 13 15 19 1 8 -22
-5 -28 -40 -21 -22 4 -29 11 -29 27 1 12 6 25 11 29 6 4 0 8 -12 8 -13 0 -23
-4 -23 -10 0 -5 -5 -10 -11 -10 -5 0 -8 4 -5 9 4 5 3 16 0 25 -5 13 -9 14 -20
5 -11 -9 -15 -8 -20 5 -11 30 -84 17 -84 -14 0 -22 -16 -35 -25 -21 -3 6 -12
8 -20 5 -18 -7 -15 -44 3 -44 12 0 12 -3 1 -16 -17 -21 -20 -42 -7 -50 6 -4 5
-10 -3 -15 -12 -8 -12 -11 1 -18 8 -5 18 -7 22 -5 4 3 8 0 8 -6 0 -6 7 -18 15
-26 11 -11 15 -12 15 -3 0 7 3 10 6 6 3 -3 1 -14 -5 -24 -6 -10 -11 -12 -11
-5 0 6 -5 12 -11 12 -6 0 -9 -7 -5 -15 3 -9 0 -15 -9 -15 -7 0 -17 -4 -20 -10
-7 -12 22 -70 35 -70 14 0 13 17 -1 22 -7 2 -5 9 5 17 14 12 16 12 10 -3 -3
-9 -1 -16 5 -16 13 0 10 -42 -3 -52 -6 -4 -5 -12 3 -21 8 -11 9 -17 1 -22 -8
-5 -7 -11 2 -23 8 -10 9 -13 1 -9 -6 4 -14 3 -18 -3 -3 -5 1 -10 9 -10 9 0 16
-8 15 -17 0 -11 -3 -13 -6 -6 -3 9 -10 10 -23 3 -23 -12 -50 -3 -44 15 3 8 1
22 -5 32 -8 13 -10 -4 -10 -72 1 -49 3 -82 6 -72 7 27 18 20 18 -13 0 -20 -4
-29 -12 -25 -10 3 -13 -16 -12 -78 1 -45 4 -72 6 -59 2 12 8 20 13 17 5 -3 11
-1 15 4 3 6 13 7 21 4 9 -3 20 0 26 8 7 10 8 6 4 -13 -4 -16 -2 -28 4 -28 5 0
10 -6 10 -14 0 -9 -10 -12 -34 -9 -27 2 -38 -2 -50 -19 -21 -29 -20 -54 1 -62
15 -6 15 -7 0 -19 -15 -11 -14 -14 9 -36 14 -14 24 -18 22 -10 -2 8 3 13 10
11 6 -1 12 3 12 9 0 6 -8 8 -19 4 -11 -3 -22 -1 -26 5 -6 10 6 14 40 10 16 -2
17 0 6 14 -7 9 -18 16 -23 16 -10 0 -38 25 -38 35 0 3 13 -1 30 -10 36 -19 40
-19 40 0 0 9 6 12 15 9 18 -7 20 -31 3 -37 -10 -3 -10 -8 1 -21 12 -14 12 -22
3 -36 -6 -11 -8 -21 -3 -24 7 -5 5 -348 -3 -406 -2 -14 -4 -31 -5 -37 0 -7
-10 -13 -20 -13 -10 0 -21 -6 -24 -13 -5 -13 17 -39 27 -31 3 2 2 -2 -4 -8 -5
-7 -10 -20 -10 -29 0 -24 -20 -35 -31 -18 -7 11 -11 11 -21 1 -10 -10 -10 -15
2 -22 13 -9 13 -10 0 -10 -12 0 -12 -2 -1 -9 10 -7 11 -13 1 -30 -8 -16 -8
-26 0 -36 8 -10 8 -14 -2 -18 -10 -3 -10 -7 -1 -17 10 -11 15 -11 29 1 16 13
16 12 5 -8 -10 -19 -9 -23 4 -23 8 0 15 -6 15 -12 0 -9 4 -8 10 2 5 8 10 11
10 5 0 -5 -5 -17 -10 -25 -7 -11 -10 -12 -10 -2 0 8 -5 12 -11 10 -6 -2 -10
-7 -9 -12 1 -5 -5 -13 -14 -18 -22 -12 -20 -29 2 -22 10 4 13 2 6 -3 -11 -9
-14 -54 -3 -47 4 2 11 -6 15 -18 4 -14 1 -25 -10 -33 -9 -7 -16 -19 -16 -28 0
-10 -5 -14 -15 -11 -12 5 -15 -4 -15 -50 0 -51 -12 -74 -23 -43 -2 6 -6 -5 -8
-25 -3 -25 -2 -35 5 -28 18 18 21 11 20 -38 -2 -79 -3 -82 -23 -82 -17 0 -18
4 -11 30 8 26 6 30 -11 30 -11 0 -17 -4 -14 -10 3 -5 2 -10 -3 -10 -17 0 -22
13 -9 28 9 13 9 14 0 8 -8 -4 -13 -2 -13 5 0 10 -3 10 -12 1 -7 -7 -16 -12
-22 -12 -5 0 -6 3 -3 6 3 4 0 16 -8 28 -8 11 -15 25 -15 31 0 5 5 2 11 -7 11
-20 29 -24 29 -7 0 5 -4 7 -10 4 -5 -3 -10 1 -10 10 0 10 5 13 13 9 6 -4 9 -4
5 1 -4 4 -4 13 1 19 6 8 0 11 -20 11 -19 0 -29 -5 -29 -15 0 -13 -1 -13 -10 0
-6 10 -10 11 -10 3 0 -7 -9 -13 -19 -13 -26 0 -32 -11 -17 -32 11 -15 15 -16
33 -3 18 13 22 13 26 0 4 -9 -3 -15 -21 -17 -21 -2 -28 -9 -30 -30 -3 -25 -6
-27 -24 -17 -27 14 -47 -3 -28 -25 7 -9 9 -23 5 -33 -15 -34 -13 -85 4 -91 9
-3 22 -12 29 -19 15 -14 6 -33 -26 -58 -14 -11 -7 -45 9 -45 5 0 9 -7 9 -15 0
-8 5 -15 11 -15 6 0 8 8 4 19 -3 11 0 21 8 24 9 3 13 -5 13 -32 -1 -20 -5 -39
-10 -42 -5 -4 -5 -12 -1 -19 5 -7 9 -31 11 -54 2 -30 1 -36 -6 -21 -7 17 -9
17 -9 3 -1 -17 -16 -22 -54 -19 -14 2 -17 -6 -17 -52 0 -40 4 -56 15 -61 19
-7 20 -26 0 -26 -11 0 -14 -11 -12 -44 1 -39 4 -43 20 -34 10 5 23 7 30 5 7
-3 -3 -10 -20 -17 -26 -10 -33 -17 -32 -38 1 -23 2 -24 7 -7 7 21 32 33 32 15
0 -6 4 -10 10 -10 5 0 7 7 4 15 -5 11 -2 13 10 9 12 -5 16 0 16 17 0 36 16 56
23 30 3 -12 1 -21 -4 -21 -5 0 -9 -9 -9 -20 0 -11 -5 -20 -11 -20 -5 0 -7 -5
-4 -11 4 -6 13 -8 20 -5 7 2 15 -4 18 -15 5 -18 1 -19 -38 -14 -66 8 -82 -25
-25 -55 17 -9 25 -10 28 -1 5 16 32 14 32 -3 0 -8 -6 -16 -12 -19 -10 -3 -8
-10 4 -23 17 -18 18 -17 19 11 1 17 2 38 2 48 0 9 4 17 8 17 5 0 9 -6 9 -12 0
-9 4 -8 10 2 10 16 13 8 11 -27 -1 -11 3 -24 10 -29 8 -5 10 -3 4 7 -7 11 -5
11 9 -1 11 -8 14 -16 7 -18 -6 -2 -9 -8 -6 -13 4 -5 16 0 27 11 25 23 27 23
47 11 12 -8 12 -12 2 -24 -10 -13 -10 -32 -2 -77 1 -3 6 2 11 10 9 13 10 13
10 0 0 -26 -12 -60 -20 -55 -4 2 -6 -28 -5 -68 4 -87 3 -85 14 -68 7 11 11 9
21 -9 6 -12 9 -24 6 -28 -3 -3 -6 0 -6 6 0 7 -4 12 -9 12 -5 0 -8 -18 -7 -40
0 -26 -5 -44 -14 -50 -12 -8 -13 -12 -2 -19 8 -4 13 -21 11 -37 -2 -16 3 -39
9 -51 7 -13 9 -23 3 -23 -13 0 -5 -131 9 -140 9 -6 9 -9 -1 -12 -14 -5 -20
-118 -6 -118 4 0 3 -9 -4 -21 -8 -15 -8 -24 0 -32 7 -7 12 -5 17 6 9 25 23 21
16 -5 -4 -17 -2 -20 11 -15 9 3 18 0 21 -8 4 -11 0 -12 -20 -5 -50 19 -53 15
-51 -60 2 -65 9 -87 20 -57 2 6 7 9 11 6 3 -3 -2 -17 -12 -30 -11 -13 -17 -30
-15 -36 3 -7 0 -13 -6 -13 -6 0 -8 -7 -5 -15 4 -8 12 -15 19 -15 15 0 27 -38
15 -45 -5 -3 -11 3 -14 12 -3 10 -4 5 -2 -10 2 -16 0 -44 -4 -62 -4 -19 -3
-38 2 -43 6 -6 6 -12 -1 -16 -6 -4 -11 -13 -11 -19 0 -7 7 -4 14 6 8 10 11 27
8 39 -3 14 -1 19 6 14 17 -10 15 -38 -4 -65 -14 -19 -14 -25 -3 -32 10 -6 11
-11 2 -20 -8 -8 -14 -6 -22 10 -7 12 -17 18 -26 15 -20 -8 2 -42 30 -46 20 -3
24 -23 5 -23 -8 0 -12 -8 -9 -17 5 -16 3 -61 -3 -64 -4 -3 -8 7 -8 22 0 22 -2
25 -15 14 -12 -10 -13 -16 -3 -28 10 -13 10 -14 1 -8 -7 4 -13 2 -13 -3 0 -6
7 -11 15 -11 20 0 19 -5 -10 -48 -30 -44 -31 -56 -6 -49 16 4 21 -2 26 -24 4
-16 4 -37 0 -48 -7 -23 10 -30 73 -29 39 1 42 3 36 22 -4 11 -8 28 -9 36 -1 8
-6 23 -10 33 -4 9 -4 24 -1 33 3 8 2 13 -3 10 -5 -3 -8 5 -7 19 1 27 11 33 19
13 6 -17 17 -6 22 21 3 14 -1 21 -13 22 -14 0 -13 2 3 8 11 5 23 7 28 4 4 -2
7 0 7 5 0 12 -24 22 -53 23 -12 0 -16 3 -9 6 6 2 12 13 12 24 0 10 5 19 10 19
6 0 5 6 -2 14 -7 8 -17 12 -21 9 -5 -3 -4 4 2 15 6 11 11 30 11 41 0 10 12 28
26 38 23 17 24 20 10 32 -13 11 -16 11 -16 0 0 -11 -2 -11 -9 0 -7 10 -3 22 9
39 11 13 16 30 13 40 -4 10 -8 12 -11 4 -6 -19 -22 -14 -22 8 0 11 -4 20 -10
20 -5 0 -10 10 -10 23 0 17 2 19 9 8 8 -12 11 -8 17 15 4 16 16 43 26 59 20
33 23 49 8 40 -6 -4 -10 8 -10 30 0 20 -8 47 -17 61 -14 22 -14 27 -2 35 10 6
10 9 2 9 -7 0 -13 4 -13 10 0 5 7 7 16 3 14 -5 16 -2 10 20 -3 14 -2 29 4 32
6 3 10 -4 11 -17 l0 -23 10 23 c5 13 6 29 2 34 -4 7 -1 8 6 4 7 -5 10 -14 7
-21 -3 -8 5 -16 20 -19 24 -6 29 -24 27 -82 -1 -13 8 -26 22 -34 23 -12 23
-13 7 -48 -13 -27 -14 -36 -4 -39 6 -3 12 -9 12 -14 0 -6 -4 -7 -10 -4 -5 3
-10 1 -10 -5 0 -6 -4 -9 -9 -5 -6 3 -15 -3 -21 -14 -12 -23 -4 -30 34 -33 14
-1 26 -6 26 -10 0 -4 3 -7 8 -7 22 4 34 -3 28 -16 -3 -8 -1 -15 5 -15 6 0 8
-4 5 -9 -6 -9 40 -22 49 -13 3 3 5 15 5 26 0 16 -2 18 -9 7 -5 -8 -14 -10 -21
-6 -9 6 -6 11 11 20 29 16 44 11 46 -15 1 -13 -2 -18 -9 -14 -7 4 -8 2 -4 -4
9 -14 46 -16 46 -3 0 6 -4 12 -9 16 -6 3 -9 13 -9 23 0 9 -2 31 -6 47 -3 17
-4 25 -1 19 3 -7 15 -10 25 -7 14 4 22 -1 28 -17 8 -21 9 -21 23 -4 8 11 9 15
2 10 -8 -4 -13 -1 -13 8 0 23 18 19 25 -5 5 -13 2 -25 -6 -31 -11 -7 -11 -11
-1 -15 19 -7 15 -43 -5 -44 -10 -1 -21 -1 -25 0 -5 0 -8 -4 -8 -9 0 -6 -7 -10
-16 -10 -14 0 -14 -2 1 -17 10 -9 15 -26 12 -40 -3 -14 1 -27 10 -32 15 -8 21
-76 8 -89 -4 -4 -6 4 -4 18 2 14 -4 41 -13 60 -9 19 -19 44 -21 55 -3 14 -5
12 -6 -8 0 -16 -4 -26 -8 -24 -5 3 -8 -8 -8 -24 0 -16 3 -29 7 -29 3 0 13 -13
21 -29 12 -25 12 -29 1 -24 -10 4 -12 0 -8 -11 3 -9 10 -16 16 -16 5 0 6 -16
2 -37 -4 -21 -8 -49 -8 -63 -1 -18 -6 -24 -19 -22 -15 3 -17 0 -8 -16 8 -15 7
-21 -4 -26 -8 -3 -15 -11 -15 -17 0 -8 4 -8 15 1 12 10 15 9 15 -8 0 -14 -5
-19 -18 -16 -14 4 -17 -3 -20 -40 -2 -36 1 -46 13 -46 18 0 18 1 5 34 -14 39
3 31 22 -9 13 -30 13 -35 1 -35 -9 0 -13 -8 -11 -22 2 -13 -2 -22 -9 -21 -6 1
-14 -4 -17 -12 -3 -9 1 -15 9 -15 8 0 15 -6 16 -12 0 -7 4 -4 9 7 5 11 9 14 9
6 1 -11 4 -11 16 -1 16 13 21 35 6 26 -5 -4 -7 3 -4 14 3 11 9 20 12 20 4 0 7
10 7 21 -1 12 5 24 12 26 6 3 12 0 12 -7 0 -6 -4 -8 -10 -5 -16 10 -12 -1 6
-15 8 -8 14 -9 12 -4 -2 5 0 9 3 9 3 0 14 8 23 18 22 22 32 16 17 -10 -14 -27
-7 -57 14 -61 10 -2 15 0 11 7 -8 12 28 33 39 23 5 -4 6 0 2 9 -3 9 0 22 6 28
6 6 8 14 4 18 -4 3 -21 -9 -37 -27 -17 -19 -30 -29 -30 -23 0 6 7 16 15 23 8
7 15 19 15 28 0 8 3 12 6 9 4 -3 16 -1 28 5 11 6 18 7 14 3 -4 -5 -3 -14 3
-21 6 -8 9 -21 5 -30 -3 -8 -1 -24 4 -34 9 -16 8 -18 -5 -14 -11 4 -13 2 -10
-9 5 -11 0 -13 -22 -10 -21 3 -24 2 -13 -6 8 -5 17 -8 21 -5 4 2 9 -3 13 -11
3 -8 1 -17 -4 -20 -6 -4 -10 -1 -10 6 0 8 -4 8 -15 -1 -11 -9 -13 -15 -5 -20
8 -5 7 -9 -4 -13 -8 -3 -18 -2 -21 3 -7 12 6 41 16 34 5 -3 9 -1 9 4 0 8 -42
32 -56 32 -3 0 -3 -8 0 -18 4 -12 1 -19 -8 -19 -8 0 -15 3 -14 6 2 20 -3 31
-12 26 -15 -9 -12 -19 10 -45 11 -13 20 -28 20 -34 0 -6 4 -5 9 3 13 20 42 -3
35 -27 -2 -9 1 -7 7 5 7 13 15 23 19 23 12 0 20 -28 14 -45 -4 -8 -2 -15 4
-15 11 0 21 39 14 58 -2 7 -8 10 -13 6 -5 -3 -9 -1 -9 4 0 14 26 33 33 25 4
-3 7 -1 7 5 0 5 -5 12 -12 14 -7 3 -8 10 -4 17 7 11 10 11 17 0 7 -11 9 -10 9
4 0 19 16 24 18 5 11 -86 11 -98 -1 -98 -8 0 -19 10 -25 23 -10 19 -11 17 -6
-14 3 -20 1 -45 -4 -56 -9 -16 -7 -19 13 -21 13 -1 26 5 29 15 5 13 4 14 -9 3
-24 -20 -17 5 10 34 14 15 23 32 20 37 -4 5 -2 9 3 9 5 0 12 -9 15 -20 3 -11
2 -18 -3 -15 -16 10 -31 -22 -21 -46 5 -13 10 -18 10 -11 1 6 5 12 11 12 5 0
7 -7 4 -15 -5 -12 0 -12 26 -5 18 5 38 14 46 20 16 14 34 5 35 -18 0 -10 6 -5
14 13 8 17 14 24 15 17 0 -7 4 -11 9 -7 5 3 12 1 16 -5 3 -5 1 -10 -5 -10 -6
0 -8 -5 -5 -10 19 -32 71 10 68 55 l-2 30 10 -30 c5 -16 7 -38 5 -47 -6 -27 3
-22 14 7 5 14 14 25 20 25 6 0 8 -4 5 -10 -3 -5 -1 -10 4 -10 6 0 11 11 11 25
0 24 1 24 38 -12 26 -24 48 -36 69 -37 23 -1 29 3 25 14 -5 13 -3 13 11 1 10
-8 29 -15 42 -17 22 -2 25 2 25 27 0 16 5 29 10 29 10 0 14 -15 10 -35 -1 -5
4 -4 11 3 7 6 12 29 11 50 -2 33 -1 35 12 19 13 -16 14 -16 20 5 11 43 7 71
-9 64 -14 -5 -20 9 -16 41 1 6 -3 14 -9 18 -5 3 -10 -3 -10 -14 0 -10 -3 -28
-6 -38 -5 -15 -4 -16 6 -3 10 13 11 12 6 -3 -3 -10 -6 -21 -6 -23 0 -2 -10 -4
-22 -4 -18 0 -20 -2 -9 -9 8 -5 21 -7 30 -3 9 3 5 -4 -9 -16 -21 -18 -22 -21
-7 -22 27 0 20 -15 -8 -16 -22 -2 -24 1 -20 27 4 19 1 29 -7 29 -9 0 -10 3 -2
8 6 4 13 21 16 38 3 26 1 30 -14 26 -22 -5 -23 4 -2 25 13 14 17 14 25 2 5 -8
9 -9 9 -4 0 6 -4 15 -9 20 -5 6 -5 19 -1 30 8 19 9 19 9 -2 1 -15 7 -21 21
-20 17 1 18 3 5 17 -19 21 -19 37 -1 37 8 0 12 -6 9 -13 -7 -18 16 -28 32 -14
12 10 15 9 15 -9 0 -13 -4 -19 -10 -16 -11 7 -2 -76 9 -85 10 -8 8 -80 -1 -80
-22 0 26 -89 48 -90 7 0 14 9 17 20 3 11 10 20 16 20 6 0 8 -8 5 -17 -5 -17
-5 -17 6 -1 10 17 12 17 32 -2 12 -11 24 -17 27 -14 3 3 -2 12 -13 19 -10 8
-16 20 -13 27 4 9 6 10 6 1 1 -7 19 -16 42 -19 28 -5 39 -11 35 -20 -4 -9 2
-14 17 -14 18 0 19 2 7 10 -13 9 -13 11 1 20 9 5 16 23 17 42 0 20 -2 27 -7
19 -7 -11 -10 -11 -14 0 -4 10 -6 10 -6 2 -2 -27 -18 -12 -19 17 0 17 4 30 9
30 5 0 9 -8 10 -17 0 -13 3 -12 10 5 5 13 15 22 21 19 16 -5 37 23 31 40 -5
14 -24 18 -22 6 4 -22 -3 -35 -15 -30 -7 3 -19 0 -25 -6 -9 -9 -14 -8 -21 2
-6 11 -9 9 -13 -10 -2 -13 -4 -1 -4 26 0 28 5 56 11 64 9 12 8 12 -11 3 -29
-16 -33 -15 -33 8 0 11 5 20 11 20 5 0 7 -5 3 -11 -4 -7 -1 -10 7 -7 8 3 13
11 11 18 -5 21 9 51 20 44 7 -5 9 2 6 18 -3 16 0 25 9 25 7 0 13 -4 13 -9 0
-5 5 -6 12 -2 7 4 8 3 4 -5 -11 -17 19 -24 46 -11 22 11 22 10 4 -4 -11 -9
-26 -16 -33 -16 -17 0 -17 -34 0 -49 8 -6 16 -9 18 -7 2 2 5 -12 6 -32 1 -20
7 -38 12 -40 5 -2 7 -10 4 -18 -3 -7 -9 -11 -14 -8 -5 3 -9 -4 -9 -16 0 -12 9
-24 23 -30 18 -7 19 -9 3 -9 -14 -1 -17 -6 -12 -26 4 -15 2 -25 -4 -25 -6 0
-8 4 -5 10 3 5 1 10 -4 10 -6 0 -11 -9 -11 -21 0 -11 -4 -17 -10 -14 -13 8
-13 -5 0 -25 6 -10 10 -11 10 -2 0 6 5 12 11 12 5 0 8 -4 5 -9 -3 -5 15 -8 41
-8 l47 2 3 39 c1 22 8 45 16 53 11 11 17 8 35 -17 14 -18 17 -27 8 -24 -8 3
-17 1 -21 -5 -4 -7 0 -8 11 -4 14 5 16 2 10 -21 -4 -18 -3 -25 4 -21 5 3 10
13 10 20 0 9 6 12 18 9 13 -5 14 -4 3 4 -17 12 -7 42 14 42 8 0 15 4 15 10 0
6 -10 6 -27 -1 l-26 -10 29 28 c36 35 96 40 102 9 2 -10 -2 -22 -8 -26 -13 -8
-6 -30 9 -30 16 0 30 47 18 59 -6 6 -8 11 -5 11 4 0 3 14 -2 31 -5 18 -7 29
-3 25 3 -3 13 0 21 7 13 10 14 9 3 -10 -7 -15 -8 -23 -1 -23 5 0 10 -7 10 -15
0 -17 16 -20 25 -5 3 6 12 10 18 10 8 0 7 -4 -2 -9 -13 -8 -13 -12 0 -27 13
-16 12 -16 -19 0 -19 10 -36 15 -39 12 -3 -3 2 -8 11 -12 20 -8 21 -34 1 -34
-9 0 -12 -6 -9 -15 7 -17 -31 -22 -41 -5 -11 18 -41 11 -42 -10 -2 -22 13 -27
20 -7 3 6 12 -4 20 -23 10 -21 16 -28 17 -17 0 17 1 17 16 3 16 -17 39 -12 28
5 -9 15 20 6 33 -11 11 -13 12 -10 11 18 -2 22 -6 31 -15 28 -8 -4 -13 3 -13
20 0 23 1 24 23 9 13 -8 27 -12 30 -8 4 3 7 1 7 -5 0 -6 -5 -14 -10 -17 -20
-12 -10 -26 10 -15 14 7 20 7 20 0 0 -18 40 -11 41 8 0 11 4 7 11 -10 12 -34
33 -37 24 -4 -7 27 3 88 13 82 3 -2 7 7 7 21 2 30 13 42 23 24 7 -10 9 -9 14
3 4 10 -1 20 -13 26 -27 14 -30 13 -30 -15 0 -13 -8 -40 -17 -60 -14 -28 -21
-34 -37 -29 -12 4 -27 7 -33 7 -7 0 -13 5 -13 10 0 5 8 7 18 5 15 -4 18 -1 15
16 -3 13 2 28 11 35 9 8 16 18 16 24 0 6 7 19 17 29 9 10 11 18 5 18 -6 0 -13
8 -15 18 -2 9 -3 7 -2 -5 1 -13 -1 -23 -6 -23 -14 0 -19 34 -10 65 5 17 10 23
10 15 1 -12 5 -11 16 4 8 10 21 16 29 13 12 -5 13 0 5 26 -12 44 -11 51 5 38
11 -9 15 -8 20 4 3 9 2 13 -4 10 -6 -3 -10 -1 -10 5 0 6 -6 8 -12 4 -8 -4 -10
-3 -5 2 13 14 87 12 87 -3 0 -6 4 -14 9 -17 5 -4 7 3 4 14 -6 23 9 27 26 6 8
-10 9 -16 1 -21 -5 -3 -10 -12 -10 -18 0 -7 7 -3 16 8 8 11 12 25 10 32 -3 7
-1 13 4 13 6 0 10 -5 10 -11 0 -5 5 -7 11 -3 7 4 9 0 5 -14 -5 -14 -1 -21 11
-24 31 -8 43 2 38 30 l-5 27 10 -25 c9 -20 13 -22 20 -10 8 12 10 10 10 -8 0
-13 -4 -20 -10 -17 -5 3 -10 1 -10 -4 0 -6 5 -11 11 -11 6 0 8 -9 4 -21 -16
-48 -13 -69 9 -70 11 0 15 -3 9 -6 -15 -5 -18 -43 -3 -43 5 0 14 8 19 18 15
25 13 9 -5 -44 -8 -25 -13 -48 -10 -52 3 -3 6 0 6 6 0 7 5 12 10 12 6 0 10 -7
10 -15 0 -13 4 -14 23 -3 32 17 45 18 51 2 3 -7 12 -11 21 -8 10 4 15 0 16
-12 0 -14 5 -10 14 11 8 19 9 32 3 36 -5 4 -3 9 5 12 9 3 18 -1 21 -9 3 -9 10
-13 15 -9 5 3 13 1 16 -5 5 -8 11 -8 20 0 13 11 14 27 3 45 -3 6 -9 24 -12 42
-6 28 -5 32 12 30 12 0 18 -6 15 -14 -3 -8 0 -11 9 -8 9 4 14 16 12 31 -1 13
2 24 6 24 12 0 23 -83 15 -110 -6 -20 -8 -20 -19 -4 -9 12 -13 13 -13 3 -1 -8
-3 -28 -6 -45 -4 -28 -2 -31 17 -26 11 3 15 7 9 9 -16 6 -5 33 13 33 8 0 14
-9 14 -20 0 -11 6 -21 13 -21 39 -5 54 -2 76 13 13 10 27 15 32 12 5 -3 9 4 9
15 0 11 4 22 9 26 6 3 5 -10 -1 -31 -5 -20 -7 -39 -3 -42 3 -3 8 3 11 15 7 26
44 20 44 -7 0 -13 6 -17 20 -13 11 3 20 12 20 20 0 8 4 11 10 8 6 -4 7 6 3 26
-4 22 -3 30 5 25 6 -4 8 -14 5 -23 -4 -11 -3 -14 5 -9 7 4 12 2 12 -5 0 -8 5
-7 17 2 15 12 16 12 9 -6 -4 -11 -4 -16 0 -12 4 4 13 2 21 -4 10 -9 13 -6 13
12 0 19 -2 21 -10 9 -8 -13 -10 -12 -10 3 0 25 13 21 53 -18 21 -20 39 -31 42
-25 4 6 16 8 27 4 14 -4 18 -2 14 5 -10 15 6 14 29 -3 27 -19 45 -9 45 25 0
34 16 38 26 7 7 -22 7 -22 15 -3 12 31 10 47 -3 39 -10 -5 -10 -4 -1 6 6 7 9
19 6 28 -4 9 -2 13 4 9 13 -8 23 -56 13 -62 -5 -3 -7 -13 -5 -23 2 -9 4 -24 5
-32 1 -11 3 -11 7 -2 2 6 9 10 14 6 5 -3 9 0 9 5 0 6 -7 11 -16 11 -13 0 -14
3 -5 14 6 7 8 27 5 45 -5 24 -3 31 9 31 9 0 19 -4 22 -10 3 -5 1 -10 -4 -10
-18 0 -12 -40 11 -72 21 -30 22 -30 37 -11 20 24 51 37 52 20 0 -7 4 -3 9 8 8
18 9 17 9 -7 1 -17 7 -28 15 -28 8 0 17 -6 19 -12 4 -10 6 -10 6 0 1 7 6 10
11 7 6 -3 10 -2 10 4 0 5 -4 13 -10 16 -5 3 -10 1 -10 -5 0 -7 -6 -5 -15 4
-18 18 -20 30 -2 19 6 -4 17 -8 22 -9 6 0 16 -2 23 -2 6 -1 12 -9 12 -17 0 -8
7 -15 16 -15 10 0 14 6 11 15 -9 21 10 29 21 9 7 -12 11 -13 17 -5 5 9 11 7
21 -6 7 -10 14 -13 14 -7 0 6 10 9 24 7 19 -4 25 0 30 21 4 18 11 24 19 19 8
-4 7 -1 -2 10 -11 14 -11 18 3 23 9 3 13 10 10 15 -3 5 6 9 19 9 18 0 26 -6
29 -25 4 -21 2 -24 -12 -20 -10 3 -17 0 -17 -8 0 -22 45 -8 54 17 4 11 7 25 8
29 0 4 5 11 10 15 6 4 15 16 21 26 6 11 17 22 25 24 11 3 11 1 -1 -7 -16 -11
-15 -12 29 -15 20 -2 40 -37 24 -43 -7 -3 -13 -11 -13 -20 0 -24 25 -9 28 18
2 13 8 29 14 34 8 7 9 5 5 -8 -5 -13 -1 -17 15 -17 20 0 20 1 3 20 -10 11 -21
17 -26 15 -4 -3 -10 -1 -14 5 -3 5 -1 10 4 10 6 0 11 5 11 11 0 5 -5 7 -12 3
-7 -5 -8 -3 -3 6 6 10 11 10 20 -3 7 -9 16 -13 20 -9 5 4 5 1 1 -6 -5 -8 -1
-19 10 -27 15 -11 16 -15 5 -29 -7 -9 -20 -16 -27 -16 -8 0 -14 -7 -14 -15 0
-19 -34 -19 -50 0 -21 26 -31 5 -10 -22 11 -14 20 -32 20 -40 0 -10 5 -11 19
-3 14 7 20 7 23 -1 3 -8 10 -6 20 5 21 20 25 20 31 -2 3 -10 5 -6 6 11 1 16
-4 27 -12 27 -7 0 -13 9 -14 20 -1 11 2 20 8 20 5 0 9 -5 9 -10 0 -7 6 -7 19
0 18 9 19 8 11 -21 -8 -26 -7 -30 6 -25 9 3 20 6 25 6 4 0 6 6 3 13 -3 8 1 19
9 26 12 9 16 7 20 -8 3 -11 -1 -25 -9 -32 -17 -14 -19 -39 -3 -39 6 0 13 9 16
20 7 26 23 26 23 0 0 -11 4 -20 9 -20 4 0 8 25 8 56 0 51 -1 54 -12 34 l-13
-24 -13 21 c-11 19 -14 19 -28 6 -12 -13 -16 -13 -20 -2 -2 8 -11 19 -18 24
-12 9 -10 11 7 12 11 1 18 -2 15 -8 -4 -5 -2 -9 4 -9 19 0 23 21 7 39 -11 12
-13 25 -7 46 l8 30 8 -30 c5 -16 7 -34 6 -39 -1 -5 7 -6 17 -4 16 4 18 1 14
-15 -3 -14 -1 -18 6 -13 17 10 15 33 -3 44 -14 7 -13 11 5 27 15 14 17 21 8
32 -8 10 -8 17 0 25 7 7 12 9 12 5 0 -4 9 -3 20 3 16 9 20 8 20 -6 0 -12 6
-15 25 -10 19 5 25 2 25 -10 0 -14 1 -14 16 0 19 19 31 21 16 3 -14 -16 13
-61 30 -51 7 5 9 1 5 -9 -3 -10 -2 -17 3 -17 10 0 13 14 13 52 0 30 15 10 19
-26 2 -22 0 -33 -7 -30 -5 3 -1 -2 9 -10 24 -20 56 -21 56 -2 0 7 9 16 20 19
17 4 18 2 9 -14 -8 -15 -6 -19 6 -19 9 0 14 4 11 9 -3 5 1 12 10 15 12 4 15 2
10 -9 -3 -8 0 -15 7 -16 68 -4 77 -3 73 8 -3 7 -1 15 4 18 6 4 10 0 10 -8 0
-8 7 -17 15 -21 18 -6 65 10 65 22 0 15 40 8 50 -8 7 -12 11 -10 19 10 5 14
10 20 10 13 1 -20 29 -3 34 20 l4 22 2 -22 c0 -12 -6 -28 -14 -36 -8 -8 -11
-17 -8 -21 12 -11 41 -6 47 9 3 8 14 15 25 15 11 0 23 4 26 10 3 5 11 10 16
10 6 0 7 -5 4 -10 -3 -5 -2 -10 4 -10 5 0 11 9 13 21 3 20 5 19 39 -12 38 -33
89 -46 89 -21 0 10 5 10 22 -2 32 -22 55 -20 62 7 6 17 9 19 14 7 4 -8 14 -17
22 -19 29 -8 95 -9 132 -1 20 4 39 5 42 2 10 -9 66 -10 66 -1 0 5 5 9 11 9 5
0 7 -4 4 -10 -6 -9 0 -11 23 -9 4 0 6 7 4 15 -4 20 14 18 22 -3 6 -15 8 -15
17 -3 8 11 12 12 16 3 2 -7 17 -13 31 -13 26 0 76 -45 67 -60 -2 -4 2 -7 9 -7
8 0 12 6 9 14 -3 7 -1 13 5 13 5 0 13 -10 16 -22 6 -23 7 -22 22 6 9 15 14 43
12 61 -3 24 0 31 9 28 7 -3 13 0 13 6 0 6 5 11 11 11 6 0 9 -6 6 -13 -6 -17 2
-30 28 -45 18 -10 18 -11 2 -12 -10 0 -15 -5 -12 -10 9 -14 -19 -12 -33 2 -9
9 -12 7 -12 -9 0 -11 7 -23 15 -27 8 -3 15 -12 15 -21 0 -23 15 -18 30 9 13
26 40 43 40 26 0 -6 -6 -10 -12 -10 -9 0 -8 -4 2 -10 13 -9 7 -14 -12 -11 -5
0 -8 -4 -8 -9 0 -6 6 -10 13 -10 9 0 9 -2 0 -8 -7 -4 -9 -13 -4 -21 6 -9 10
-6 15 13 6 23 9 24 26 14 13 -8 16 -16 10 -22 -12 -12 -13 -26 -1 -26 5 0 11
10 14 22 4 12 9 20 11 17 3 -3 2 -19 -3 -35 -7 -24 -5 -31 5 -31 10 0 14 13
14 40 0 31 -3 38 -15 33 -8 -3 -15 -1 -15 5 0 6 -4 7 -10 4 -5 -3 -10 1 -10 9
0 8 9 18 20 21 20 6 27 21 12 27 -4 2 0 11 10 20 17 17 18 17 18 -2 0 -11 3
-20 8 -20 4 0 7 -16 8 -35 0 -19 -3 -35 -8 -35 -14 0 -9 -28 7 -34 8 -3 15
-13 15 -23 0 -15 2 -16 10 -3 8 13 10 13 10 -1 0 -20 38 -18 54 2 11 14 59 23
51 8 -3 -4 -1 -10 4 -13 5 -3 11 4 15 17 5 17 8 19 15 9 4 -8 11 -13 15 -13
18 3 26 0 26 -9 0 -5 -7 -7 -15 -4 -11 4 -13 2 -9 -9 7 -19 44 -10 45 12 0 12
2 11 8 -4 l8 -20 5 20 c2 11 1 29 -3 41 -4 11 -3 27 2 35 7 11 9 9 9 -8 0 -31
11 -54 21 -47 6 3 16 0 24 -6 8 -7 15 -9 15 -4 0 5 5 2 10 -6 8 -13 10 -12 10
3 0 9 -4 17 -10 17 -5 0 -10 7 -10 15 0 17 0 17 53 -30 35 -31 40 -31 32 -2
l-7 22 17 -22 c19 -27 35 -30 35 -7 0 14 1 14 16 0 8 -9 26 -16 39 -16 20 0
23 5 21 31 -2 31 -2 31 14 11 15 -18 17 -18 27 -3 12 19 6 44 -9 35 -5 -3 -4
3 4 15 7 12 14 17 16 11 6 -18 32 18 33 47 2 22 3 19 8 -12 3 -22 2 -43 -3
-46 -5 -4 -6 -14 -3 -23 8 -20 3 -20 -17 0 -9 8 -16 11 -16 5 0 -5 5 -13 10
-16 6 -3 10 -17 10 -31 0 -13 4 -24 9 -24 5 0 7 9 4 20 -7 26 14 26 22 0 7
-22 45 -28 45 -6 0 7 9 16 20 19 11 3 20 0 20 -6 0 -6 3 -7 7 -4 3 4 11 0 17
-9 18 -24 49 -24 63 0 l12 21 1 -22 c0 -17 6 -23 23 -22 12 0 16 3 10 6 -16 6
-17 33 -3 33 6 0 13 -7 17 -16 6 -15 8 -15 20 2 12 17 13 17 13 -5 0 -15 4
-20 12 -15 7 5 29 7 48 6 24 -2 31 0 21 7 -8 5 -11 16 -8 24 3 8 0 21 -6 28
-10 11 -9 11 5 0 9 -7 14 -20 12 -29 -5 -15 -4 -15 6 1 6 9 9 21 5 26 -11 19
12 20 27 2 9 -10 22 -21 29 -23 12 -4 12 -7 0 -22 -12 -14 -12 -16 3 -10 17 6
23 44 7 44 -6 0 -22 11 -37 25 -26 24 -26 25 -5 25 11 0 21 -4 21 -9 0 -17 30
-40 45 -35 8 4 12 10 9 15 -3 5 2 9 10 9 9 0 16 4 16 9 0 5 -10 7 -22 4 -20
-4 -21 -3 -7 9 8 7 21 22 27 33 6 11 12 15 12 8 0 -7 6 -10 14 -7 19 7 56 -13
56 -31 0 -8 -4 -15 -10 -15 -5 0 -10 -8 -10 -17 0 -12 -3 -14 -8 -6 -5 8 -13
9 -22 3 -8 -6 -11 -10 -6 -10 5 0 3 -7 -4 -15 -14 -17 0 -21 17 -4 7 7 15 0
26 -23 9 -18 17 -27 17 -19 0 11 3 11 15 1 13 -10 19 -10 35 5 18 16 20 16 20
2 0 -10 4 -17 8 -17 5 0 9 14 9 30 0 33 -1 34 -27 20 -16 -9 -17 -7 -6 15 11
26 26 33 26 14 0 -8 4 -8 14 0 10 8 16 9 21 1 3 -5 0 -10 -7 -10 -11 0 -10 -2
0 -9 11 -6 10 -10 -4 -15 -9 -3 -15 -9 -12 -11 9 -9 38 7 38 20 0 14 25 27 34
18 3 -3 2 -18 -1 -34 -3 -18 -1 -29 6 -29 6 0 10 3 10 8 -1 4 0 16 1 27 2 14
4 11 9 -10 9 -42 23 -29 26 24 2 24 7 46 11 50 5 3 10 17 11 31 l2 25 -12 -25
c-6 -14 -14 -27 -17 -30 -4 -3 -10 -13 -13 -24 -6 -15 -10 -16 -22 -6 -8 7
-21 10 -30 6 -19 -7 -41 29 -24 40 7 4 18 -1 26 -11 7 -11 14 -15 14 -9 1 5 2
14 4 19 1 6 3 16 3 23 1 7 7 10 13 6 6 -3 9 -15 6 -25 -3 -11 -1 -17 4 -13 12
7 12 41 0 48 -5 3 -11 16 -14 28 -6 21 -5 22 7 5 13 -17 14 -16 19 3 4 14 0
20 -12 20 -27 0 -30 8 -18 45 6 20 15 32 21 28 6 -4 4 2 -5 13 -10 10 -19 28
-22 39 -4 18 -5 17 -6 -3 0 -13 -5 -21 -9 -18 -5 3 -9 -1 -9 -9 0 -11 4 -12
14 -3 11 9 12 7 5 -11 -12 -33 -27 -26 -30 12 -2 21 3 38 12 47 9 7 16 19 16
27 0 8 5 11 10 8 9 -5 15 15 11 38 0 4 3 7 7 7 14 0 10 29 -5 34 -7 3 -13 12
-13 21 0 18 -26 20 -33 3 -3 -8 -6 -6 -6 4 -1 10 -7 15 -14 12 -8 -3 -13 5
-15 22 -1 15 1 24 4 21 4 -4 15 2 24 13 15 17 19 18 23 6 3 -8 4 -25 2 -37 -3
-17 -2 -20 7 -11 8 8 9 24 1 57 -6 25 -8 45 -6 45 8 0 33 -70 33 -93 0 -31 19
-47 45 -36 17 7 17 8 -7 8 -27 1 -28 3 -28 50 0 44 2 49 20 44 11 -3 17 -10
13 -16 -3 -6 -1 -7 5 -3 7 4 12 18 12 32 0 17 4 23 12 18 6 -4 3 4 -8 18 -10
14 -21 24 -23 22 -2 -2 -11 2 -19 9 -13 10 -15 9 -9 -8 7 -20 7 -20 -8 -1 -8
11 -15 26 -15 33 0 7 -5 13 -10 13 -7 0 -7 -6 0 -20 7 -14 7 -20 0 -20 -5 0
-10 5 -10 10 0 6 -5 9 -12 8 -6 -2 -14 6 -16 17 -2 11 -7 22 -11 25 -3 3 -12
17 -18 32 -11 24 -10 27 18 38 16 7 34 20 39 29 5 9 10 11 10 4 0 -6 9 -10 20
-8 11 2 20 0 20 -6 0 -5 9 -9 20 -9 15 0 22 9 27 31 4 19 9 26 13 18 5 -8 10
-5 15 10 3 11 13 21 21 21 17 0 19 -17 2 -22 -7 -3 -6 -7 5 -11 11 -4 17 -1
17 7 0 7 7 13 14 13 11 0 12 -5 6 -17 -12 -22 -2 -33 15 -17 6 6 10 21 7 32
-5 18 -4 19 13 5 17 -14 18 -13 13 8 -5 17 -3 21 5 13 15 -12 47 10 47 33 0
10 -11 19 -30 23 -28 5 -29 7 -13 19 10 7 14 14 8 14 -5 0 -3 5 5 10 10 6 11
10 3 10 -7 0 -25 -13 -40 -30 -14 -16 -35 -30 -45 -30 -23 0 -23 -19 0 -36 15
-12 14 -13 -13 -12 -16 1 -33 7 -37 13 -5 6 -8 4 -8 -5 0 -9 -9 -16 -20 -17
-26 -2 -25 14 3 38 12 10 16 18 10 19 -7 0 -13 7 -13 16 0 9 -5 12 -12 8 -7
-4 -8 -3 -4 4 4 7 18 9 31 6 20 -5 24 -2 23 18 -1 12 -6 28 -11 35 -5 7 -6 17
-2 23 3 5 2 10 -3 10 -13 0 -22 -39 -11 -46 12 -7 12 -24 0 -24 -5 0 -11 10
-15 22 -4 18 -8 20 -17 11 -10 -10 -17 -7 -35 12 -12 13 -25 21 -30 17 -4 -4
-4 1 -1 11 7 18 -12 42 -48 62 -15 9 -16 14 -6 34 12 21 11 22 -8 16 -12 -3
-21 -3 -20 2 1 4 1 17 -1 28 l-1 20 -9 -20 c-8 -19 -9 -19 -9 2 -1 13 -4 22
-8 22 -32 -5 -47 21 -21 37 7 5 9 2 5 -9 -5 -13 -2 -14 16 -8 15 6 25 4 33 -7
10 -14 15 -12 38 13 18 19 26 23 26 12 0 -10 6 -13 20 -10 15 4 18 1 15 -16
-2 -14 1 -21 11 -21 8 0 12 5 9 10 -3 6 2 10 13 10 10 0 28 9 40 21 19 17 24
18 37 6 8 -8 12 -17 9 -20 -3 -2 2 -7 11 -11 9 -3 15 -1 14 7 -3 25 3 72 8 55
7 -29 22 -21 20 10 -2 27 -4 28 -37 21 -19 -4 -36 -6 -39 -3 -2 2 1 4 7 4 7 0
12 5 12 11 0 5 -4 8 -9 5 -5 -3 -12 5 -15 19 -4 14 -10 25 -15 25 -4 0 -6 11
-4 24 4 19 0 25 -23 30 -18 5 -30 3 -35 -6 -19 -29 -7 10 14 47 19 33 27 39
50 37 19 -3 27 1 27 12 0 24 18 19 32 -8 11 -20 15 -22 26 -10 11 12 10 15 -2
20 -20 8 -21 44 -1 44 8 0 15 5 15 10 0 6 -7 10 -16 10 -8 0 -13 4 -9 10 3 5
0 18 -7 29 -9 15 -9 25 0 46 17 36 6 50 -23 31 -21 -14 -24 -14 -37 1 -9 12
-9 15 0 9 8 -5 12 0 12 14 0 19 -2 20 -15 6 -8 -8 -15 -19 -15 -25 0 -5 -5
-13 -11 -17 -7 -4 -9 0 -5 14 4 12 2 23 -5 28 -7 4 -10 3 -6 -2 3 -5 -1 -17
-8 -27 -11 -16 -13 -15 -18 13 -4 16 -4 36 -1 44 3 8 0 17 -7 22 -7 4 -10 3
-6 -3 4 -6 -4 -9 -20 -7 -17 2 -33 -5 -44 -17 -13 -16 -18 -17 -22 -5 -4 9 2
16 15 19 12 4 18 11 15 19 -3 9 3 14 14 15 11 1 17 -3 13 -9 -4 -6 1 -8 14 -4
50 16 62 15 62 -5 0 -18 1 -18 18 -1 15 14 16 19 4 31 -10 11 -11 16 -1 21 7
5 9 15 4 26 -4 11 -7 30 -6 44 3 21 1 22 -13 11 -14 -12 -16 -10 -16 13 0 23
2 25 19 16 26 -13 34 2 20 34 -12 26 -35 25 -25 -1 4 -10 2 -13 -8 -10 -10 4
-15 -5 -18 -34 -2 -21 1 -41 7 -43 6 -2 2 -12 -7 -22 -17 -18 -18 -18 -18 0 0
11 -5 16 -14 13 -9 -4 -13 3 -13 21 0 15 2 21 4 15 10 -27 21 -11 25 34 3 35
-1 52 -14 65 -12 12 -18 13 -22 5 -2 -7 -5 -4 -5 6 -1 12 7 17 24 17 18 0 23
-4 19 -15 -4 -8 -2 -15 3 -15 12 0 14 40 2 62 -14 26 -3 41 22 28 16 -9 19 -7
19 9 0 11 5 23 12 27 7 4 -8 13 -36 21 -42 12 -45 15 -31 29 8 9 15 29 15 45
0 34 17 38 30 7 5 -13 9 -17 9 -10 1 7 6 10 13 6 6 -4 8 -3 4 4 -3 6 -2 13 3
17 7 4 7 15 0 33 -7 18 -7 28 0 30 6 2 11 10 11 19 0 8 6 13 13 11 6 -3 12
-10 12 -15 0 -6 3 -15 8 -19 4 -4 7 0 7 9 0 9 -5 19 -11 22 -6 4 -8 13 -5 20
3 9 -2 12 -15 10 -14 -3 -19 2 -19 16 0 11 5 17 10 14 14 -9 13 8 -2 23 -9 9
-8 12 5 12 12 0 17 -8 17 -26 0 -23 1 -24 16 -10 9 9 12 21 7 28 -4 7 -8 16
-9 21 -1 4 -2 10 -3 13 0 4 -8 1 -16 -6 -13 -10 -15 -9 -15 10 0 16 4 20 16
16 8 -3 12 -2 9 4 -3 6 1 10 9 10 9 0 16 -8 16 -17 0 -9 3 -13 6 -10 4 4 1 19
-5 36 -9 21 -18 27 -31 24 -10 -3 -16 -11 -14 -18 3 -7 -2 -15 -10 -18 -12 -5
-13 -2 -6 17 5 13 6 27 2 31 -4 4 2 13 12 21 15 11 16 15 5 19 -8 3 -15 15
-16 27 -2 22 20 51 31 41 3 -4 6 6 6 20 0 17 5 27 15 27 8 0 15 5 15 11 0 5 3
8 8 5 4 -2 15 8 23 23 l16 27 -39 -1 c-21 -1 -38 2 -38 7 0 4 -7 8 -15 8 -8 0
-15 -6 -15 -14 0 -8 -6 -18 -12 -22 -7 -4 -10 -3 -5 1 13 15 -44 44 -68 35
-25 -9 -45 4 -45 30 0 9 -9 16 -21 17 -20 2 -20 1 -4 -18 18 -19 12 -24 -22
-20 -7 1 -13 -3 -13 -8 0 -7 -8 -7 -24 -1 -13 5 -27 6 -30 3 -3 -4 -6 0 -6 8
0 11 -2 11 -10 -1 -9 -13 -10 -13 -10 1 0 8 5 20 12 27 9 9 9 12 0 12 -8 0
-11 12 -8 33 3 26 0 33 -14 33 -11 0 -18 -7 -17 -17 1 -10 7 -15 17 -12 12 4
11 1 -2 -10 -19 -15 -25 -57 -8 -57 6 0 10 -5 10 -12 0 -9 -3 -9 -11 -1 -6 6
-18 9 -25 6 -16 -6 -20 32 -4 42 16 10 12 45 -6 45 -12 0 -15 11 -12 56 2 31
6 58 10 61 5 2 8 -3 8 -11 0 -9 6 -16 13 -16 9 0 8 -3 -2 -9 -11 -7 -11 -9 0
-13 8 -3 22 4 32 15 22 26 22 31 -3 24 -13 -3 -20 0 -20 8 0 7 -2 19 -3 27 -2
7 -2 10 0 6 3 -5 11 -8 19 -8 9 0 13 4 10 8 -2 4 -1 14 5 22 7 12 9 10 9 -7 0
-24 7 -28 27 -15 8 5 9 13 3 22 -17 26 -11 34 10 15 17 -16 20 -16 20 -2 0 11
7 15 20 12 11 -2 18 0 15 6 -4 5 1 9 9 9 23 0 29 18 12 36 -9 8 -16 13 -16 9
0 -3 -9 -1 -21 5 -19 11 -20 13 -4 37 9 13 14 27 11 31 -3 3 -6 0 -6 -6 0 -7
-7 -12 -15 -12 -8 0 -15 -5 -15 -11 0 -19 -30 -41 -50 -36 -11 3 -20 1 -20 -4
0 -4 -7 -6 -15 -3 -24 10 -17 21 11 18 21 -2 23 0 13 12 -8 10 -8 14 0 14 14
0 51 36 51 50 0 6 -7 10 -15 10 -8 0 -15 -9 -15 -19 0 -17 -3 -18 -35 -8 -27
8 -35 16 -35 34 0 13 4 22 8 19 5 -3 9 1 9 9 0 8 -8 15 -17 15 -11 0 -16 -9
-15 -27 0 -14 -6 -28 -12 -30 -8 -3 -13 4 -13 19 l0 23 -20 -25 c-10 -14 -22
-21 -27 -16 -4 5 -2 11 4 13 7 3 13 11 13 18 0 8 10 16 23 18 l22 4 -23 8
c-12 4 -22 12 -21 19 1 6 -1 23 -5 38 -5 16 -5 36 -1 45 5 10 7 24 6 31 -2 14
15 16 24 2 3 -5 12 -10 18 -9 9 0 9 2 0 6 -19 7 -15 20 8 26 15 4 19 2 15 -9
-3 -8 -1 -14 5 -14 7 0 9 11 5 28 -6 26 -6 26 9 8 8 -11 15 -26 15 -33 0 -7 5
-13 10 -13 15 0 12 29 -5 46 -8 9 -15 19 -15 24 0 16 30 19 45 4 13 -14 15
-13 15 9 0 23 -3 24 -33 17 -28 -6 -34 -4 -44 16 -13 29 -1 51 17 29 14 -16
45 -21 35 -5 -3 6 -1 10 6 10 7 0 9 3 6 6 -4 4 -13 1 -22 -6 -13 -11 -14 -10
-9 4 3 9 10 16 15 16 5 0 9 7 9 15 0 20 -17 19 -29 -2 -9 -17 -10 -17 -17 0
-6 17 -7 17 -20 0 -7 -10 -14 -13 -14 -7 0 7 -7 11 -16 10 -9 0 -19 5 -22 13
-3 9 0 11 9 7 8 -4 3 2 -10 14 -21 18 -22 23 -10 30 12 8 10 12 -8 25 -13 9
-20 22 -16 30 4 11 1 13 -11 9 -9 -3 -16 -14 -16 -23 0 -14 -2 -14 -10 -1 -8
12 -10 11 -10 -7 0 -13 -3 -23 -7 -23 -7 0 -9 67 -3 88 1 4 1 12 0 17 -1 6 1
7 5 3 4 -4 14 0 23 8 10 11 18 12 25 5 17 -17 37 -13 37 8 0 25 20 38 20 14 1
-20 29 -75 30 -57 0 16 30 13 30 -3 0 -7 4 -13 8 -13 5 0 14 -10 19 -22 10
-22 10 -22 10 5 0 15 -4 27 -9 27 -5 0 -5 8 1 18 6 11 6 24 0 33 -7 12 -9 12
-9 -1 0 -10 -10 -16 -27 -18 -22 -1 -24 0 -13 8 8 5 11 10 7 10 -4 0 -2 6 5
14 7 8 18 13 23 13 6 -1 9 6 7 16 -2 10 2 25 9 33 9 11 9 18 1 26 -9 9 -12 9
-12 -1 0 -7 -4 -9 -10 -6 -5 3 -10 0 -10 -7 -1 -7 -7 1 -15 17 -10 19 -13 22
-9 8 7 -31 -9 -29 -26 3 l-14 25 -8 -22 c-8 -22 -9 -22 -23 -3 -7 10 -12 30
-9 44 3 16 1 19 -3 10 -5 -8 -21 -15 -38 -15 -20 0 -31 -5 -33 -17 -2 -11 3
-18 12 -18 9 0 16 7 16 15 0 8 7 15 16 15 12 0 14 -8 10 -36 -6 -33 -4 -35 16
-30 13 3 17 3 10 0 -10 -5 -10 -9 -1 -20 7 -8 9 -17 5 -21 -3 -3 -6 -1 -6 5 0
6 -9 16 -21 23 -19 10 -20 8 -14 -10 4 -13 2 -21 -5 -21 -6 0 -9 4 -5 9 3 5
-1 16 -9 24 -11 11 -12 17 -3 27 10 10 8 12 -5 7 -15 -5 -34 16 -30 36 1 4 -9
7 -22 7 -20 0 -23 5 -22 37 1 21 6 37 14 39 7 1 8 0 2 -3 -5 -2 -10 -12 -10
-21 0 -13 2 -14 9 -3 12 18 23 -2 14 -26 -5 -16 -3 -15 18 4 25 22 72 25 128
7 22 -7 23 -5 17 20 -5 20 -4 26 5 20 9 -5 10 -2 6 10 -4 10 -7 20 -7 22 0 2
-4 4 -9 4 -5 0 -12 -15 -16 -32 -4 -18 -9 -27 -12 -20 -6 16 16 72 28 72 5 0
9 7 9 16 0 10 -6 14 -15 11 -8 -4 -17 -2 -20 3 -4 6 -13 10 -21 10 -14 0 -13
-2 0 -16 27 -27 14 -54 -14 -29 -15 13 -19 12 -40 -13 -13 -15 -24 -29 -24
-32 1 -3 -1 -13 -4 -22 -8 -32 -24 -6 -17 28 6 33 5 34 -25 34 -31 0 -37 -13
-32 -72 1 -11 -3 -15 -13 -12 -17 7 -19 18 -5 43 6 12 5 29 -3 50 -10 27 -9
34 3 41 8 4 26 18 39 29 13 12 27 21 30 21 4 0 7 8 7 19 0 10 -6 18 -13 17
-17 -3 -29 -16 -15 -16 7 0 12 -4 12 -9 0 -6 -12 -6 -27 -2 -16 4 -39 7 -53 6
-23 -2 -25 1 -22 32 4 33 5 33 19 14 11 -16 21 -20 46 -16 17 4 34 11 38 16 9
16 13 16 41 -3 l26 -17 -8 35 c-4 19 -5 36 -1 38 10 7 38 -18 42 -37 4 -17 5
-17 24 -2 11 9 14 14 8 10 -8 -4 -13 0 -13 9 0 9 -7 16 -16 16 -8 0 -13 4 -10
8 2 4 1 14 -4 21 -6 11 -15 6 -40 -20 -17 -19 -29 -29 -26 -22 7 14 -3 43 -15
43 -5 0 -9 -8 -9 -17 0 -15 -2 -14 -15 3 -8 10 -15 27 -15 36 0 9 -9 19 -19
23 -10 3 -22 17 -25 31 -5 17 -12 24 -21 20 -8 -3 -15 -2 -16 2 0 4 -2 15 -4
25 -2 9 1 15 5 12 15 -9 22 15 9 31 -18 22 9 38 29 17 13 -12 13 -16 1 -23 -7
-5 -10 -12 -6 -16 4 -4 2 -13 -4 -20 -8 -10 -5 -15 16 -20 32 -8 40 -1 26 24
-6 12 -11 36 -11 54 0 25 -3 29 -10 18 -8 -12 -10 -8 -11 15 -1 17 -3 22 -6
13 -6 -24 -19 -23 -26 2 -6 25 2 60 15 60 5 0 8 6 7 13 -2 6 1 32 5 55 6 30 4
48 -4 55 -9 9 -11 6 -10 -13 5 -60 2 -67 -30 -62 -16 2 -28 8 -25 12 8 12 -6
41 -16 34 -5 -3 -9 2 -9 10 0 9 4 16 9 16 6 0 9 9 8 20 -1 17 -3 18 -17 5 -23
-21 -30 -19 -31 8 l0 22 -11 -22 c-13 -26 -28 -30 -28 -8 0 9 -13 24 -30 33
-42 24 -42 44 1 22 16 -9 19 -7 19 10 0 11 5 20 11 20 7 0 9 -10 7 -25 -6 -30
9 -45 18 -18 3 10 10 26 15 35 5 10 9 25 9 33 0 9 4 13 10 10 5 -3 9 2 8 12
-3 35 2 54 12 48 6 -4 8 -11 5 -16 -4 -5 1 -9 9 -9 9 0 16 5 16 10 0 6 7 10
15 10 8 0 15 6 15 13 0 8 3 8 9 -2 5 -8 7 -21 3 -29 -4 -11 -1 -14 11 -9 9 3
22 0 29 -7 12 -11 46 -17 99 -17 9 0 16 -7 15 -16 0 -9 7 -17 16 -18 21 -4 33
11 18 20 -5 3 -10 12 -10 18 0 7 4 6 10 -3 8 -13 10 -12 10 3 0 9 5 17 10 17
6 0 10 -7 10 -15 0 -8 5 -15 11 -15 6 0 8 7 5 15 -3 9 0 18 8 21 8 3 11 15 8
30 -2 14 0 24 7 24 7 0 10 -4 7 -9 -4 -5 -3 -17 0 -26 5 -13 8 -14 15 -3 6 9
9 6 10 -12 0 -22 1 -23 8 -5 4 11 18 22 31 25 22 5 49 50 30 50 -6 0 -10 -6
-10 -14 0 -7 -9 -16 -20 -19 -15 -4 -20 0 -20 13 0 22 -24 32 -39 17 -9 -9
-16 -8 -31 1 -26 16 -67 15 -73 0 -4 -10 -6 -10 -6 0 -1 7 -5 10 -11 7 -5 -3
-10 -1 -10 5 0 6 -5 8 -10 5 -6 -4 -8 -10 -5 -15 3 -5 1 -11 -5 -15 -6 -3 -13
0 -16 8 -3 8 -16 15 -29 15 -18 0 -25 -7 -28 -27 l-4 -26 -2 25 -1 25 -217 3
c-120 2 -286 4 -370 4 -134 1 -151 3 -146 17 4 14 3 14 -9 1 -8 -9 -35 -16
-68 -18 -30 -1 -63 -5 -72 -8 -10 -3 -18 0 -18 6 0 6 -5 8 -12 4 -6 -4 -28 -6
-50 -6 -36 2 -38 0 -38 -29 0 -17 4 -28 10 -24 6 3 10 1 10 -4 0 -6 -5 -11
-11 -11 -6 0 -9 -7 -5 -15 3 -8 2 -15 -3 -15 -4 0 -6 -11 -3 -25 5 -26 -3 -31
-28 -15 -13 8 -13 10 1 10 13 0 16 9 15 43 -5 86 -5 86 -26 82 -11 -2 -20 1
-20 6 0 6 -8 6 -20 -1 -15 -8 -20 -8 -20 2 0 11 -2 10 -9 0 -4 -7 -18 -14 -29
-15 -21 -1 -32 -17 -12 -17 6 0 10 -4 10 -10 0 -5 -3 -9 -7 -7 -5 1 -10 -3
-12 -8 -3 -6 3 -11 11 -13 11 -2 18 5 21 20 3 17 5 14 6 -10 0 -20 -3 -31 -9
-27 -5 3 -14 4 -20 0 -11 -7 -2 -35 12 -35 5 0 6 6 2 13 -6 10 -4 10 7 0 21
-21 26 -15 26 31 0 46 8 66 24 66 6 0 8 -4 5 -9 -4 -5 -1 -22 5 -38 10 -27 11
-27 25 -9 14 19 14 19 12 -5 -2 -21 -7 -25 -30 -24 -32 2 -37 -9 -10 -24 14
-8 15 -12 5 -22 -7 -7 -13 -9 -13 -3 0 5 -22 9 -50 9 -33 0 -50 -4 -50 -12 0
-7 5 -13 10 -13 6 0 10 -8 10 -17 0 -14 -4 -12 -17 7 -9 14 -17 26 -18 28 -7
9 -56 -24 -61 -41 -5 -16 -8 -17 -16 -6 -8 12 -9 11 -5 -1 2 -8 11 -14 21 -12
21 4 21 -14 0 -22 -19 -7 -54 31 -53 59 1 17 2 16 10 -5 7 -22 8 -20 6 12 -2
20 1 34 5 32 4 -3 8 1 8 10 0 8 -4 16 -8 18 -5 2 -12 17 -16 33 -6 25 -5 28 6
15 7 -8 12 -13 11 -11 -4 7 19 31 29 31 5 0 6 -4 3 -10 -3 -5 -1 -10 5 -10 7
0 9 -9 5 -22 -5 -18 -4 -20 4 -8 9 12 11 11 11 -7 0 -13 5 -23 10 -23 6 0 8
11 4 25 -4 16 -2 25 6 25 6 0 8 -6 4 -12 -5 -9 -4 -10 3 -3 18 17 24 75 9 75
-9 0 -12 -9 -10 -27 l4 -28 -11 29 c-9 21 -14 25 -20 15 -6 -10 -9 -11 -9 -1
0 17 -36 15 -54 -4 -15 -14 -16 -14 -16 0 0 17 -54 23 -77 8 -11 -7 -10 -88 1
-100 3 -2 -5 -13 -17 -24 -21 -18 -21 -18 -2 -16 11 2 22 6 25 10 10 12 40
-19 34 -36 -5 -13 -10 -14 -27 -4 -21 10 -21 10 -5 -8 16 -19 16 -20 -2 -32
-15 -9 -19 -8 -23 6 -4 16 -5 16 -6 0 0 -10 -8 -18 -16 -18 -18 0 -21 46 -2
53 6 3 -6 4 -29 3 -23 -2 -46 -6 -52 -10 -6 -3 -13 2 -15 11 -3 11 -5 7 -6
-11 -1 -20 3 -27 13 -23 8 3 17 -1 20 -9 4 -11 -4 -14 -33 -14 -34 0 -39 -3
-49 -32 l-11 -33 2 31 c2 24 -1 31 -18 33 -26 4 -82 3 -120 -2 -29 -3 -65 10
-65 24 0 4 8 6 18 4 9 -1 11 0 5 2 -15 5 -18 43 -4 43 5 0 11 -6 14 -12 2 -7
6 -1 9 15 3 16 1 27 -6 27 -20 0 -37 -17 -39 -38 0 -11 -5 -18 -9 -16 -5 3 -6
9 -3 13 2 5 0 22 -4 39 -7 23 -6 32 5 36 8 3 14 0 14 -6 0 -9 3 -8 13 1 10 10
9 14 -5 22 -22 12 -23 29 -2 29 8 0 12 4 9 10 -3 5 1 20 10 34 14 21 14 25 0
39 -8 9 -12 23 -9 31 4 11 1 16 -10 16 -10 0 -16 9 -16 23 0 18 -6 22 -30 23
-27 1 -33 -5 -29 -32 0 -4 -5 -11 -13 -16 -10 -7 -10 -11 0 -15 6 -2 12 -11
12 -18 0 -16 -46 -25 -59 -12 -8 8 -11 5 -11 -10 0 -12 -3 -30 -7 -40 -6 -16
-5 -16 11 -4 15 13 20 11 42 -14 24 -28 33 -51 15 -40 -5 3 -18 -8 -27 -25
-10 -16 -25 -32 -33 -35 -12 -5 -13 -3 -5 5 17 17 5 50 -17 50 -11 0 -19 5
-19 11 0 5 -4 7 -10 4 -5 -3 -10 2 -10 12 0 15 -2 15 -9 4 -8 -12 -12 -12 -25
-2 -17 14 -15 57 2 54 5 -1 12 7 15 18 4 15 2 18 -7 10 -14 -12 -41 2 -32 17
3 6 2 13 -4 17 -6 4 -10 -7 -10 -27 0 -25 -3 -29 -10 -18 -7 10 -10 11 -10 2
0 -9 -12 -11 -42 -7 -24 2 -35 2 -24 -1 14 -5 17 -12 12 -35 -3 -16 -1 -29 4
-29 6 0 10 5 10 10 0 6 5 10 11 10 7 0 9 -10 4 -27 -9 -37 -15 -41 -26 -21 -5
10 -16 15 -24 12 -18 -7 -20 -60 -2 -67 8 -4 6 -6 -4 -6 -12 -1 -15 -10 -14
-38 3 -47 -3 -63 -21 -56 -8 3 -14 0 -14 -5 0 -6 7 -12 16 -14 23 -4 28 -53 6
-55 -10 -1 -22 -3 -27 -5 -11 -3 -15 4 -15 28 0 10 6 14 15 10 8 -3 15 -1 15
4 0 22 -38 9 -44 -15 -5 -20 -13 -25 -36 -25 -23 0 -30 4 -30 20 0 23 10 25
29 8 11 -11 12 -10 6 1 -5 8 -9 26 -10 40 0 13 -6 26 -13 29 -7 2 -12 15 -12
28 0 15 -6 24 -15 24 -9 0 -18 7 -21 15 -4 8 -12 15 -20 15 -8 0 -14 6 -14 14
0 10 -9 14 -27 13 -21 -2 -28 -8 -28 -22 0 -11 -6 -25 -14 -31 -10 -8 -11 -13
-3 -18 27 -16 11 -28 -28 -22 -35 5 -40 4 -40 -13 0 -11 9 -23 20 -26 11 -3
20 -14 20 -23 0 -13 2 -14 9 -4 6 11 9 10 13 -5 5 -20 0 -43 -10 -43 -4 0 -13
14 -21 30 -9 22 -18 29 -31 25 -25 -8 -67 10 -67 29 0 12 6 15 21 10 21 -6 20
-5 -1 10 -12 9 -27 14 -35 13 -7 -2 -10 -2 -5 0 4 3 7 10 7 17 0 13 -44 16
-57 3 -4 -5 -3 -8 2 -7 22 5 24 -1 5 -20 -20 -20 -46 -28 -35 -11 3 5 1 12 -5
16 -5 3 -10 2 -10 -3 0 -6 -12 -13 -27 -17 -21 -5 -24 -8 -12 -16 7 -5 9 -9 4
-9 -6 0 -11 -9 -11 -20 0 -15 7 -20 29 -20 24 0 27 -3 18 -14 -7 -8 -34 -14
-68 -15 -31 0 -61 -5 -68 -11 -6 -5 -15 -7 -19 -3 -4 4 -19 9 -34 10 -63 5
-82 16 -81 46 l0 22 9 -22 c5 -13 15 -23 21 -23 8 0 8 4 2 13 -6 6 -13 24 -15
40 -4 22 -3 25 8 16 8 -6 14 -8 14 -3 0 5 5 2 10 -6 8 -12 10 -11 10 7 0 12 5
23 12 25 6 2 8 10 4 16 -9 15 -56 16 -56 1 0 -6 7 -9 15 -5 9 3 15 0 15 -8 0
-9 -7 -12 -20 -9 -11 3 -20 13 -20 23 0 11 -10 20 -27 23 -33 6 -58 -6 -74
-34 -9 -19 -9 -19 10 -10 27 15 31 14 31 -7 0 -9 9 -23 20 -30 11 -7 20 -19
20 -28 0 -8 -4 -13 -9 -9 -5 3 -12 1 -16 -5 -3 -5 1 -10 9 -10 9 0 16 -5 16
-11 0 -7 -9 -9 -22 -6 -12 4 -28 1 -35 -5 -7 -6 -13 -7 -14 -2 0 5 -4 0 -9
-11 l-9 -20 -1 20 -1 20 -9 -20 c-6 -14 -8 -5 -8 32 0 28 -3 57 -7 64 -4 6 -3
14 4 18 6 4 12 19 13 34 2 29 13 35 22 15 3 -7 5 -4 3 7 -2 22 10 45 23 45 4
0 6 -9 3 -21 -5 -19 -4 -20 14 -9 26 17 25 40 -1 41 -12 0 -15 3 -8 6 16 6 72
-16 72 -28 0 -5 9 -9 20 -9 16 0 20 7 20 33 1 29 2 30 14 15 16 -22 40 -24 32
-3 -3 8 -1 15 5 15 6 0 8 9 4 20 -4 12 -2 27 5 35 13 15 7 20 -37 29 -18 4
-34 3 -38 -3 -4 -8 -12 -8 -26 0 -17 8 -23 7 -34 -8 -12 -16 -14 -16 -20 -2
-7 18 -51 18 -47 0 1 -6 -2 -11 -8 -11 -5 0 -10 7 -10 16 0 13 -3 14 -14 5 -8
-7 -16 -8 -18 -3 -1 5 -26 6 -55 2 -29 -3 -58 -3 -65 2 -12 7 -145 9 -478 6
-74 0 -185 -1 -247 -2 l-111 0 -10 -41 -10 -40 -1 39 c-1 35 -3 38 -26 34 -14
-3 -25 -1 -25 3 0 5 -7 6 -15 3 -8 -4 -15 -10 -15 -16 0 -5 5 -6 10 -3 6 4 10
-6 10 -23 0 -33 26 -51 33 -24 3 12 5 11 6 -5 1 -19 -3 -22 -28 -19 -21 2 -28
0 -24 -10 3 -8 9 -14 14 -14 14 0 10 -23 -7 -45 -15 -19 -15 -19 -8 10 5 24 4
28 -6 18 -10 -9 -16 -9 -26 2 -18 18 -18 31 0 16 11 -9 14 -5 17 21 2 18 1 49
-2 68 -4 19 -7 30 -8 23 0 -6 -10 -10 -21 -8 -27 5 -37 -15 -11 -22 31 -8 26
-21 -6 -15 -21 3 -25 2 -17 -7 6 -7 21 -13 33 -14 27 -2 28 -17 0 -17 -16 0
-19 -4 -14 -17 15 -37 17 -53 7 -53 -6 0 -14 5 -17 10 -8 13 -25 13 -25 -1 0
-38 -109 -54 -138 -20 -8 9 -11 11 -8 4 4 -8 -9 -14 -39 -18 -29 -5 -45 -12
-45 -22 0 -8 -5 -11 -11 -8 -6 4 -8 14 -5 22 5 13 -2 14 -46 8 -62 -8 -79 -8
-220 -5 l-108 3 0 33 c0 18 -5 36 -11 40 -8 5 -7 10 4 16 12 6 15 17 11 37 -3
16 -1 31 4 35 6 4 8 -2 4 -16 -4 -15 -2 -19 7 -13 7 4 11 18 8 31 -2 13 1 22
7 21 6 -1 12 9 14 22 2 15 0 21 -7 17 -7 -5 -11 3 -11 18 0 14 -4 26 -9 26 -5
0 -13 10 -18 23 -6 18 -13 21 -33 17z m1798 -177 c-2 -10 -9 -17 -15 -16 -15
3 -25 -25 -11 -33 6 -4 8 -3 4 4 -4 7 1 10 14 9 21 -1 38 -29 20 -35 -8 -3 -7
-8 1 -18 10 -12 9 -13 -5 -8 -13 5 -17 2 -14 -12 2 -11 -2 -18 -9 -16 -8 1
-13 -9 -13 -28 0 -16 6 -33 13 -37 13 -9 18 -63 5 -63 -4 0 -5 -7 -2 -15 5
-11 2 -13 -10 -9 -18 7 -22 24 -6 24 6 0 10 9 10 20 0 11 -7 20 -15 20 -9 0
-15 -9 -15 -22 0 -33 -13 -12 -16 27 -2 22 1 34 8 32 7 -1 14 6 16 17 2 12 -1
17 -9 14 -8 -3 -22 4 -33 14 -15 14 -22 15 -28 6 -5 -9 -8 -8 -8 5 0 9 5 17
11 17 6 0 8 9 4 21 -5 16 -4 19 5 14 10 -6 11 -1 6 20 -6 25 -5 27 18 21 19
-5 29 -1 43 19 21 29 36 32 31 8z m3521 -3536 c8 -19 23 -40 35 -47 20 -12 20
-12 5 6 -9 10 -18 29 -21 40 -8 30 25 20 43 -13 12 -23 14 -23 26 -7 12 16 13
14 7 -16 -9 -44 -6 -41 -43 -42 -28 -1 -31 -4 -31 -35 0 -35 -8 -41 -29 -20
-11 10 -13 9 -9 -4 3 -8 -1 -26 -9 -40 l-14 -24 5 25 c6 28 -2 44 -24 48 -10
1 -9 -2 4 -13 11 -8 17 -18 13 -21 -4 -4 -13 -1 -21 5 -8 7 -20 10 -26 6 -9
-5 -15 15 -11 38 1 5 -3 6 -8 2 -6 -3 -8 -12 -4 -20 4 -11 1 -13 -11 -9 -12 5
-13 10 -5 26 6 11 8 26 5 33 -3 8 5 16 20 19 31 8 29 42 -1 39 -20 -2 -20 -1
-1 13 11 8 23 19 26 25 5 7 12 6 21 -4 8 -7 22 -14 32 -14 21 0 21 2 1 21 -12
13 -13 16 -2 16 8 0 20 -15 27 -33z m-493 -1104 c9 -9 28 -17 43 -18 21 0 26
-5 24 -23 -2 -15 3 -22 14 -22 15 0 15 -2 -2 -13 -10 -8 -15 -19 -11 -25 3 -5
1 -12 -6 -14 -8 -3 -7 -14 5 -38 18 -34 17 -47 -2 -35 -6 3 -11 16 -12 28 0
21 -1 21 -8 2 -5 -11 -4 -21 0 -23 5 -2 9 -15 9 -28 0 -17 6 -24 19 -24 15 0
18 -5 13 -22 -5 -19 -7 -20 -10 -5 -2 9 -8 17 -13 17 -5 0 -7 -12 -3 -27 4
-19 3 -24 -4 -15 -7 11 -11 8 -16 -10 -6 -21 -7 -22 -17 -5 -6 10 -8 25 -5 33
8 20 -14 18 -30 -3 -11 -16 -12 -15 -9 12 2 18 -3 34 -14 42 -14 12 -12 12 12
7 16 -4 27 -2 27 4 0 6 10 8 22 4 15 -3 19 -2 14 7 -5 7 -23 10 -46 7 l-38 -4
0 84 c0 46 4 81 9 78 8 -5 14 17 10 39 -2 11 6 8 25 -10z"/>
</g>
</svg>
