<?xml version="1.0" standalone="no"?>
<!DOCTYPE svg PUBLIC "-//W3C//DTD SVG 20010904//EN"
 "http://www.w3.org/TR/2001/REC-SVG-20010904/DTD/svg10.dtd">
<svg version="1.0" xmlns="http://www.w3.org/2000/svg"
 width="1000.000000pt" height="700.000000pt" viewBox="0 0 1000.000000 700.000000"
 preserveAspectRatio="xMidYMid meet">
<metadata>
Created by potrace 1.16, written by Peter Selinger 2001-2019
</metadata>
<g transform="translate(0.000000,700.000000) scale(0.100000,-0.100000)"
fill="#000000" stroke="none">
<path d="M2687 4973 c-4 -3 -7 -313 -7 -688 0 -769 -4 -721 82 -900 50 -104
53 -114 52 -185 -1 -52 -10 -108 -33 -184 -48 -170 -39 -235 42 -300 35 -28
46 -31 110 -31 118 0 161 44 177 183 6 54 13 80 26 89 60 44 110 -30 135 -197
12 -85 10 -219 -12 -580 -23 -396 -16 -483 44 -562 49 -64 79 -81 147 -86 115
-8 211 64 246 186 15 51 15 58 -11 171 -28 125 -26 171 11 229 28 43 49 18 64
-75 14 -86 60 -123 151 -123 49 0 55 3 95 45 57 59 74 118 74 252 0 126 16
178 52 168 48 -14 58 -40 58 -144 0 -222 54 -346 159 -367 87 -18 197 35 226
109 15 36 16 65 10 218 -8 202 -2 229 75 313 78 84 156 81 272 -9 97 -77 149
-90 217 -55 57 29 100 84 176 231 82 157 109 195 163 232 53 37 107 50 152 35
19 -6 83 -42 141 -79 130 -85 184 -105 234 -89 52 17 106 86 174 224 66 136
103 185 155 210 73 34 138 16 230 -64 62 -55 91 -65 145 -50 55 15 75 34 134
130 60 98 86 114 140 88 40 -19 71 -78 81 -153 4 -27 11 -124 16 -215 10 -179
19 -224 50 -258 44 -47 134 -14 174 63 18 34 21 65 26 225 8 244 21 272 201
451 69 67 100 106 106 130 4 19 7 346 5 727 l-3 692 -2478 0 c-1363 0 -2481
-3 -2484 -7z"/>
</g>
</svg>
