<?xml version="1.0" standalone="no"?>
<!DOCTYPE svg PUBLIC "-//W3C//DTD SVG 20010904//EN"
 "http://www.w3.org/TR/2001/REC-SVG-20010904/DTD/svg10.dtd">
<svg version="1.0" xmlns="http://www.w3.org/2000/svg"
 width="1000.000000pt" height="700.000000pt" viewBox="0 0 1000.000000 700.000000"
 preserveAspectRatio="xMidYMid meet">
<metadata>
Created by potrace 1.16, written by Peter Selinger 2001-2019
</metadata>
<g transform="translate(0.000000,700.000000) scale(0.100000,-0.100000)"
fill="#000000" stroke="none">
<path d="M1100 4667 l0 -843 28 -37 c15 -20 39 -45 55 -57 42 -33 75 -99 127
-253 57 -171 80 -222 126 -275 70 -82 168 -102 331 -67 70 16 88 16 127 5 86
-24 191 -171 227 -320 8 -31 14 -105 13 -170 -1 -143 -27 -264 -125 -568 -81
-253 -86 -303 -43 -391 44 -88 139 -131 228 -101 59 19 128 95 160 175 25 61
29 83 28 165 0 100 -12 157 -78 385 -43 149 -58 286 -44 417 18 181 71 290
160 336 95 48 164 22 239 -88 62 -92 92 -114 155 -114 63 -1 94 21 160 112 26
34 61 71 79 82 67 42 133 16 174 -68 39 -80 42 -200 10 -362 -45 -225 -46
-319 -4 -381 37 -55 71 -73 142 -77 80 -5 112 7 145 55 24 35 25 44 24 167 -1
127 -3 139 -62 368 -81 310 -81 353 2 466 57 77 113 106 195 100 100 -7 141
-48 237 -237 49 -96 83 -131 133 -131 44 0 115 44 197 123 45 42 90 77 100 77
22 0 78 -32 112 -64 13 -11 48 -58 78 -104 43 -66 63 -87 97 -102 60 -28 72
-25 124 23 40 37 51 42 92 42 137 0 209 -140 218 -425 l5 -155 -42 -174 c-51
-214 -59 -299 -36 -373 31 -94 117 -160 211 -162 74 -1 128 36 162 111 39 84
30 191 -37 448 -50 192 -52 205 -52 335 -1 270 43 325 204 251 76 -35 97 -37
138 -16 53 27 113 -21 138 -111 20 -69 16 -99 -32 -277 -25 -90 -21 -145 13
-198 52 -83 135 -115 216 -85 100 39 107 96 41 303 -55 172 -70 249 -63 317
10 99 70 176 165 213 53 20 96 9 192 -48 90 -53 146 -71 195 -64 82 12 112 45
166 189 37 98 125 166 213 166 144 0 227 -239 243 -695 6 -194 -3 -298 -38
-432 -68 -252 -66 -365 8 -461 37 -49 136 -93 207 -93 72 0 122 28 161 89 28
43 30 54 30 137 -1 102 -16 157 -90 325 -83 187 -104 244 -114 310 -32 195 10
532 85 685 35 72 95 140 145 165 47 24 135 26 197 5 24 -8 75 -31 114 -51 92
-46 106 -44 274 42 132 68 132 68 159 50 37 -24 71 -103 96 -222 11 -54 27
-113 35 -131 20 -40 74 -67 119 -59 75 14 94 71 135 402 41 325 83 456 187
576 l53 62 0 803 0 803 -3885 0 -3885 0 0 -843z"/>
</g>
</svg>
