<?xml version="1.0" standalone="no"?>
<!DOCTYPE svg PUBLIC "-//W3C//DTD SVG 20010904//EN"
 "http://www.w3.org/TR/2001/REC-SVG-20010904/DTD/svg10.dtd">
<svg version="1.0" xmlns="http://www.w3.org/2000/svg"
 width="1000.000000pt" height="700.000000pt" viewBox="0 0 1000.000000 700.000000"
 preserveAspectRatio="xMidYMid meet">
<metadata>
Created by potrace 1.16, written by Peter Selinger 2001-2019
</metadata>
<g transform="translate(0.000000,700.000000) scale(0.100000,-0.100000)"
fill="#000000" stroke="none">
<path d="M4610 6014 c-128 -12 -351 -49 -480 -80 -891 -219 -1441 -823 -1531
-1683 -16 -155 -6 -451 20 -607 38 -227 111 -466 188 -619 93 -184 238 -296
411 -317 174 -21 246 -52 286 -121 50 -85 45 -159 -27 -407 -51 -180 -54 -244
-13 -314 75 -129 242 -151 346 -47 89 89 92 177 16 386 -44 122 -31 229 38
300 50 52 105 70 189 61 63 -6 102 -23 132 -56 26 -28 32 -128 14 -240 -16
-106 -14 -152 11 -200 63 -124 235 -128 313 -7 35 53 37 74 17 208 -16 106 -8
149 33 196 41 47 82 63 159 63 78 0 117 -21 158 -86 44 -70 60 -159 60 -336 0
-245 -39 -586 -91 -803 -36 -151 -22 -227 54 -288 39 -32 100 -44 162 -33 46
9 110 67 126 113 15 46 7 150 -20 263 -32 134 -60 349 -71 551 -17 296 7 425
96 513 98 99 257 96 309 -5 22 -42 16 -69 -45 -199 -81 -176 -90 -290 -26
-373 99 -131 284 -122 370 17 45 73 42 149 -13 282 -47 115 -53 184 -23 244
29 60 73 65 217 26 74 -20 175 -20 288 -1 109 20 127 13 127 -48 0 -23 -9 -71
-20 -105 -28 -88 -26 -145 5 -199 58 -98 193 -118 281 -41 73 64 81 120 34
255 -50 145 -36 251 46 341 32 37 61 57 102 72 158 59 277 158 344 286 61 115
142 431 184 714 21 148 30 480 15 621 -35 330 -128 607 -282 840 -89 133 -290
332 -434 428 -326 217 -740 352 -1275 417 -128 15 -685 28 -800 18z"/>
</g>
</svg>
