<?xml version="1.0" standalone="no"?>
<!DOCTYPE svg PUBLIC "-//W3C//DTD SVG 20010904//EN"
 "http://www.w3.org/TR/2001/REC-SVG-20010904/DTD/svg10.dtd">
<svg version="1.0" xmlns="http://www.w3.org/2000/svg"
 width="1000.000000pt" height="700.000000pt" viewBox="0 0 1000.000000 700.000000"
 preserveAspectRatio="xMidYMid meet">
<metadata>
Created by potrace 1.16, written by Peter Selinger 2001-2019
</metadata>
<g transform="translate(0.000000,700.000000) scale(0.100000,-0.100000)"
fill="#000000" stroke="none">
<path d="M6209 4656 c-2 -2 -32 -6 -65 -9 -245 -23 -487 -214 -578 -454 -83
-222 -63 -489 51 -682 45 -77 136 -171 218 -226 33 -23 66 -52 73 -65 18 -34
9 -118 -17 -161 -27 -44 -27 -92 0 -136 37 -60 117 -72 164 -26 28 29 29 44 9
163 -7 46 22 78 55 60 17 -9 21 -20 21 -60 0 -65 13 -96 49 -115 44 -22 66
-19 95 16 19 22 26 42 26 74 0 51 18 72 49 56 32 -18 74 -13 113 14 61 41 101
27 72 -26 -19 -34 -17 -69 6 -106 33 -55 90 -53 126 3 14 20 15 37 9 97 -14
126 -12 137 42 185 138 126 151 140 206 237 80 143 107 243 107 399 0 222 -66
382 -222 533 -119 115 -264 188 -433 218 -83 14 -167 20 -176 11z m191 -516
c14 -10 48 -42 76 -72 39 -41 53 -65 59 -96 14 -87 -53 -119 -148 -70 -65 33
-119 25 -177 -26 -17 -15 -50 -26 -99 -34 -97 -16 -106 -10 -97 73 10 99 34
161 77 200 60 54 69 48 69 -39 0 -81 13 -106 53 -106 52 1 91 61 81 127 -8 55
6 74 49 66 18 -3 43 -14 57 -23z"/>
<path d="M4562 4629 c-163 -28 -308 -104 -422 -219 -84 -84 -135 -160 -179
-270 -42 -107 -55 -193 -48 -335 6 -135 39 -251 99 -354 38 -64 161 -192 231
-239 59 -39 81 -86 73 -149 -3 -24 -9 -63 -12 -88 -15 -114 87 -191 186 -140
60 31 71 74 46 170 -22 82 8 109 67 59 27 -23 37 -25 101 -22 l71 3 0 -65 c1
-36 2 -78 3 -94 3 -36 61 -96 94 -96 37 0 96 55 108 101 10 36 8 45 -14 84
-14 24 -26 57 -26 74 0 61 13 75 127 131 91 46 120 67 188 135 93 93 135 161
178 282 26 77 31 105 35 223 4 116 1 149 -17 220 -40 158 -117 289 -234 396
-85 78 -171 128 -287 166 -78 25 -114 31 -205 34 -60 1 -134 -1 -163 -7z m249
-521 c64 -35 109 -128 112 -227 2 -109 -3 -149 -23 -172 l-20 -24 -33 39 c-60
70 -138 76 -200 18 -23 -22 -38 -27 -82 -27 -66 0 -89 19 -105 86 -15 63 -6
126 29 204 32 70 76 112 129 120 20 4 44 7 52 9 35 5 108 -8 141 -26z"/>
<path d="M1556 4593 c-2 -10 -8 -34 -11 -53 -4 -19 -22 -65 -41 -103 -22 -43
-32 -76 -29 -90 4 -14 -5 -42 -24 -77 -25 -44 -31 -67 -31 -115 0 -75 16 -101
69 -110 68 -11 72 -22 72 -198 0 -161 -10 -209 -65 -316 -26 -49 -23 -95 8
-140 22 -31 26 -46 21 -74 -5 -25 -1 -46 15 -76 11 -23 24 -64 27 -90 5 -41 1
-56 -22 -95 -57 -97 -9 -196 94 -196 38 0 54 5 75 25 28 25 28 27 24 137 -3
96 -1 112 15 122 12 8 22 8 35 0 14 -9 16 -23 14 -73 -3 -44 1 -69 12 -86 22
-34 20 -62 -9 -119 -29 -58 -30 -67 -10 -106 17 -32 76 -55 104 -41 57 31 65
78 28 161 -25 56 -25 63 0 116 7 17 12 51 11 75 -3 43 -2 44 28 47 25 2 37 -4
63 -34 27 -30 32 -42 27 -68 -3 -17 -9 -59 -12 -94 -6 -57 -5 -65 17 -88 13
-15 44 -36 69 -48 49 -24 47 -15 34 -127 -5 -38 -1 -53 18 -83 12 -19 35 -40
50 -47 66 -27 97 48 71 171 -17 80 -19 125 -8 177 5 21 1 49 -10 80 -15 41
-16 59 -7 117 6 38 18 76 27 86 41 45 95 23 95 -39 0 -42 15 -60 64 -76 28 -9
31 -14 34 -59 2 -27 10 -59 18 -70 8 -12 14 -45 14 -83 0 -68 15 -93 54 -93
13 0 31 9 41 20 18 20 17 59 -1 140 -4 19 3 36 30 70 20 25 36 55 36 68 0 29
-32 92 -60 115 -29 24 -19 52 35 99 72 63 115 178 115 308 0 127 -38 226 -114
300 l-45 44 45 48 c55 59 92 140 100 217 14 130 -46 308 -126 371 -81 64 -68
63 -597 67 -452 3 -482 2 -487 -14z m654 -338 c23 -12 30 -24 35 -60 14 -92
-18 -124 -132 -133 l-63 -5 0 101 c0 113 -3 109 83 111 26 0 61 -6 77 -14z
m-130 -469 c6 -8 13 -40 15 -72 2 -34 8 -60 16 -65 41 -26 85 11 74 61 -12 55
38 83 69 38 33 -46 12 -118 -46 -159 -24 -18 -46 -23 -90 -24 -31 0 -61 5 -66
10 -11 11 -23 190 -15 211 7 18 27 18 43 0z"/>
<path d="M2871 4603 l-33 -4 7 -417 c4 -229 8 -559 9 -732 1 -174 5 -321 10
-328 4 -7 28 -12 56 -12 55 0 100 -14 100 -31 0 -6 -9 -22 -20 -36 -27 -35
-25 -59 9 -94 43 -43 101 -41 147 5 19 19 34 44 34 55 0 26 -23 73 -44 90 -22
18 -20 38 4 46 33 11 58 -11 65 -57 10 -70 24 -96 58 -107 48 -17 77 7 77 63
0 45 17 65 39 43 15 -15 14 -51 -4 -94 -21 -49 -19 -159 3 -203 33 -66 109
-64 138 5 18 45 18 148 -2 224 -20 80 -10 100 49 101 23 1 65 2 92 3 45 2 50
0 47 -18 -16 -103 -15 -116 8 -140 34 -36 103 -35 126 0 14 21 14 30 4 54 -21
51 -10 84 35 105 l41 19 -4 216 c-2 119 -7 219 -11 223 -3 4 -121 11 -261 15
l-255 8 0 230 0 230 24 -3 c43 -6 72 7 86 42 16 39 11 66 -23 121 -59 94 -79
156 -84 258 -3 54 -9 102 -14 106 -10 9 -458 21 -513 14z"/>
<path d="M7380 4600 l-275 -5 0 -355 c0 -195 2 -510 5 -700 l5 -345 43 -22
c24 -12 50 -27 58 -33 20 -18 17 -74 -7 -121 -14 -28 -19 -55 -17 -87 3 -40 8
-49 37 -69 48 -33 95 -30 132 6 34 34 34 38 14 125 -19 83 -13 116 24 116 35
0 91 -41 114 -83 21 -40 22 -79 0 -139 -20 -55 -11 -83 49 -159 42 -54 45 -68
22 -104 -9 -14 -19 -54 -21 -89 -5 -60 -4 -66 21 -91 39 -38 92 -32 123 14 28
42 29 91 3 150 -26 56 -25 58 10 111 38 56 38 97 4 198 -29 85 -28 147 2 169
10 7 39 13 64 13 51 0 73 -16 84 -62 8 -35 32 -58 61 -58 13 0 30 -3 38 -6 24
-9 87 53 87 87 0 36 18 76 38 84 18 7 62 -20 62 -39 0 -7 -9 -33 -19 -58 -17
-37 -18 -50 -9 -87 8 -31 8 -56 -1 -95 -18 -80 9 -131 66 -124 43 5 60 48 39
102 -23 60 -20 82 15 126 42 52 53 110 33 173 -9 26 -13 59 -10 73 4 14 34 54
66 90 156 167 250 384 250 577 0 82 -32 238 -66 325 -83 209 -215 315 -455
366 -133 29 -262 34 -689 26z m408 -393 c2 -15 -6 -42 -17 -60 -32 -52 -32
-111 0 -148 17 -19 19 -32 14 -70 -6 -42 -4 -48 20 -67 21 -17 31 -19 46 -11
20 10 23 23 20 77 -2 24 5 42 29 69 33 38 33 32 15 138 -5 30 -3 44 7 53 54
44 98 -159 69 -314 -25 -132 -90 -245 -162 -282 -42 -21 -141 -34 -155 -19 -3
2 -8 153 -11 335 l-6 331 34 3 c64 6 94 -5 97 -35z"/>
</g>
</svg>
