<?xml version="1.0" standalone="no"?>
<!DOCTYPE svg PUBLIC "-//W3C//DTD SVG 20010904//EN"
 "http://www.w3.org/TR/2001/REC-SVG-20010904/DTD/svg10.dtd">
<svg version="1.0" xmlns="http://www.w3.org/2000/svg"
 width="1000.000000pt" height="700.000000pt" viewBox="0 0 1000.000000 700.000000"
 preserveAspectRatio="xMidYMid meet">
<metadata>
Created by potrace 1.16, written by Peter Selinger 2001-2019
</metadata>
<g transform="translate(0.000000,700.000000) scale(0.100000,-0.100000)"
fill="#000000" stroke="none">
<path d="M7605 5016 c-81 -22 -99 -32 -163 -91 -83 -77 -121 -136 -256 -403
-119 -236 -233 -422 -281 -460 -48 -38 -125 -24 -125 23 0 72 48 207 139 393
17 34 31 65 31 67 0 3 26 58 57 123 45 94 57 127 57 169 2 97 -61 146 -179
141 -167 -8 -256 -96 -440 -438 -88 -165 -114 -212 -177 -325 -141 -252 -409
-791 -447 -900 -35 -99 -55 -218 -46 -282 7 -50 42 -120 79 -161 69 -77 171
-67 278 28 63 55 211 280 288 435 47 96 95 171 122 189 34 24 75 20 94 -9 20
-31 18 -42 -53 -220 -64 -162 -69 -178 -84 -265 -24 -137 -1 -228 72 -294 97
-88 199 -83 345 15 86 58 162 166 249 354 23 49 52 117 63 150 12 33 37 105
57 160 20 55 54 150 75 210 95 272 149 404 354 860 92 204 136 330 136 391 0
51 -30 118 -60 134 -32 17 -131 20 -185 6z"/>
<path d="M8436 5019 c-106 -25 -256 -167 -373 -353 -73 -118 -153 -253 -153
-260 0 -4 -8 -20 -19 -34 -73 -106 -210 -418 -253 -579 -45 -171 -59 -256 -52
-318 13 -124 49 -166 147 -173 52 -4 67 0 133 33 136 67 315 268 445 500 227
407 363 811 346 1031 -11 143 -75 187 -221 153z"/>
<path d="M5501 5000 c-34 -11 -88 -32 -118 -47 -69 -36 -251 -200 -342 -306
-178 -211 -418 -603 -566 -927 -37 -80 -89 -192 -115 -250 -54 -116 -147 -360
-174 -457 -47 -173 -58 -320 -27 -381 27 -53 51 -71 113 -84 50 -11 60 -9 109
11 30 13 73 39 96 57 50 41 142 178 168 249 33 92 145 305 181 345 64 71 146
95 237 69 27 -7 45 -22 65 -51 26 -41 27 -45 22 -157 -11 -282 -4 -322 56
-370 86 -68 237 -29 334 87 81 95 208 423 289 740 38 152 90 390 96 442 2 14
8 52 14 85 38 210 52 575 27 696 -27 128 -68 179 -182 227 -96 40 -195 48
-283 22z m-105 -772 c123 -56 76 -384 -69 -484 -40 -28 -52 -31 -94 -27 -110
11 -158 64 -150 168 14 182 153 378 255 360 19 -4 45 -11 58 -17z"/>
<path d="M2040 4921 c-55 -17 -91 -44 -130 -95 -50 -66 -52 -101 -9 -194 39
-86 84 -260 100 -387 11 -93 11 -108 -10 -210 -31 -150 -111 -387 -195 -572
-25 -57 -67 -149 -92 -205 -25 -57 -64 -141 -86 -188 -213 -449 -285 -656
-276 -791 9 -116 72 -212 174 -264 55 -28 67 -30 169 -30 100 0 115 2 168 28
184 91 390 414 487 763 12 44 27 88 34 99 12 18 36 93 141 438 96 315 138 381
536 842 81 94 188 213 239 265 265 275 303 340 250 428 -31 51 -93 74 -198 73
-215 -2 -317 -60 -624 -358 -82 -79 -159 -145 -174 -149 -37 -9 -56 16 -84
111 -36 122 -98 268 -131 309 -35 42 -73 63 -144 82 -55 15 -106 17 -145 5z"/>
<path d="M4270 4865 c-162 -27 -359 -107 -510 -208 -179 -119 -419 -339 -536
-492 -163 -212 -320 -538 -387 -804 -29 -113 -32 -141 -32 -271 0 -123 4 -156
23 -218 40 -128 121 -229 220 -275 42 -19 64 -22 202 -22 186 1 303 19 475 76
150 50 244 100 310 164 63 62 88 112 93 192 4 55 1 65 -26 105 -16 23 -38 51
-48 60 -36 32 -139 76 -219 93 -186 40 -270 75 -344 146 -34 33 -41 46 -41 78
0 26 7 44 23 59 48 45 91 54 312 63 319 13 442 46 538 144 46 47 87 127 87
172 0 112 -48 187 -142 219 -75 26 -234 24 -351 -5 -105 -25 -130 -26 -151 -5
-28 27 -20 73 19 110 41 38 120 65 260 88 379 63 461 89 546 179 29 30 65 105
73 149 17 91 -50 187 -142 207 -65 14 -153 12 -252 -4z"/>
<path d="M7578 3215 c-1 -2 -23 -4 -48 -6 -97 -6 -221 -95 -270 -194 -21 -42
-25 -64 -25 -140 0 -82 3 -97 33 -158 40 -81 86 -118 179 -146 221 -66 443 85
460 313 7 96 -20 169 -91 242 -40 41 -63 55 -106 67 -59 16 -126 28 -132 22z"/>
</g>
</svg>
