<?xml version="1.0" standalone="no"?>
<!DOCTYPE svg PUBLIC "-//W3C//DTD SVG 20010904//EN"
 "http://www.w3.org/TR/2001/REC-SVG-20010904/DTD/svg10.dtd">
<svg version="1.0" xmlns="http://www.w3.org/2000/svg"
 width="2000.000000pt" height="2000.000000pt" viewBox="0 0 2000.000000 2000.000000"
 preserveAspectRatio="xMidYMid meet">
<metadata>
Created by potrace 1.16, written by Peter Selinger 2001-2019
</metadata>
<g transform="translate(0.000000,2000.000000) scale(0.100000,-0.100000)"
fill="#000000" stroke="none">
<path d="M9916 18674 c-333 -72 -563 -392 -525 -730 51 -462 526 -733 949
-542 323 145 478 527 348 858 -35 90 -95 175 -173 248 -161 151 -382 212 -599
166z"/>
<path d="M10848 17310 c-90 -23 -166 -100 -188 -191 -49 -203 165 -374 355
-285 154 71 194 278 77 400 -62 65 -162 96 -244 76z"/>
<path d="M5245 16094 c-22 -2 -96 -8 -165 -15 -713 -64 -1393 -307 -1995 -711
-508 -342 -968 -828 -1285 -1358 -582 -975 -751 -2167 -464 -3268 311 -1196
1123 -2197 2229 -2750 476 -237 937 -370 1510 -434 158 -17 630 -17 800 0 276
29 543 81 818 159 70 19 130 34 132 31 3 -3 21 -48 40 -101 137 -383 307 -727
531 -1069 307 -470 737 -927 1189 -1264 129 -96 362 -250 490 -323 251 -145
599 -302 895 -403 876 -299 1886 -340 2795 -112 855 215 1624 644 2254 1259
304 297 519 559 730 890 35 55 66 102 67 104 2 2 40 -13 85 -33 313 -143 728
-215 1076 -187 317 26 566 93 838 226 574 281 996 784 1180 1403 60 203 76
319 82 581 6 267 -6 385 -62 606 -179 712 -696 1296 -1381 1561 -398 153 -842
192 -1258 109 -71 -14 -130 -24 -131 -23 -1 2 -10 28 -20 58 -28 86 -130 322
-206 475 -189 385 -404 707 -717 1075 -74 87 -297 314 -409 415 -555 504
-1244 886 -1973 1095 -283 80 -542 130 -875 166 -223 25 -744 25 -970 1 -611
-67 -1116 -207 -1658 -461 -54 -25 -104 -46 -111 -46 -6 0 -22 21 -35 48 -71
146 -221 385 -356 567 -134 181 -247 310 -433 495 -698 692 -1578 1110 -2562
1216 -127 14 -587 26 -675 18z"/>
<path d="M9505 15991 c-433 -108 -691 -561 -559 -982 98 -317 371 -529 699
-546 190 -10 366 44 522 160 122 91 227 251 273 417 26 95 28 279 4 378 -70
288 -306 516 -597 578 -92 19 -254 17 -342 -5z"/>
<path d="M13531 15684 c-187 -67 -294 -274 -236 -458 101 -320 540 -357 687
-58 31 62 33 74 33 167 0 89 -3 106 -27 155 -35 71 -107 143 -178 177 -70 34
-208 43 -279 17z"/>
<path d="M5269 6586 c-133 -36 -228 -141 -258 -286 -29 -140 55 -307 187 -374
251 -127 540 64 520 343 -16 223 -233 376 -449 317z"/>
<path d="M18552 5825 c-155 -34 -282 -127 -356 -260 -118 -211 -83 -471 88
-640 209 -207 542 -207 748 -2 108 108 158 228 158 380 0 153 -60 290 -171
392 -71 65 -139 101 -235 125 -89 23 -143 24 -232 5z"/>
<path d="M16118 5737 c-127 -36 -212 -152 -210 -287 1 -70 18 -119 62 -174
165 -207 493 -109 517 155 18 199 -176 360 -369 306z"/>
<path d="M4705 4851 c-198 -58 -344 -208 -395 -406 -25 -99 -25 -181 0 -279
27 -109 63 -169 150 -257 115 -117 241 -169 403 -169 152 1 283 56 392 165
115 115 168 240 169 400 1 257 -174 484 -424 550 -75 20 -220 18 -295 -4z"/>
<path d="M7116 4645 c-62 -24 -106 -64 -132 -119 -32 -68 -31 -128 2 -195 106
-212 424 -138 424 99 0 60 -21 114 -58 153 -60 64 -162 90 -236 62z"/>
<path d="M16487 4425 c-147 -52 -172 -258 -41 -347 159 -108 363 61 289 239
-22 52 -42 72 -100 99 -57 27 -93 29 -148 9z"/>
<path d="M17114 3946 c-10 -26 4 -48 28 -44 17 2 23 10 23 28 0 18 -6 26 -23
28 -13 2 -25 -3 -28 -12z"/>
</g>
</svg>
