<?xml version="1.0" standalone="no"?>
<!DOCTYPE svg PUBLIC "-//W3C//DTD SVG 20010904//EN"
 "http://www.w3.org/TR/2001/REC-SVG-20010904/DTD/svg10.dtd">
<svg version="1.0" xmlns="http://www.w3.org/2000/svg"
 width="1747.000000pt" height="1601.000000pt" viewBox="0 0 1747.000000 1601.000000"
 preserveAspectRatio="xMidYMid meet">
<metadata>
Created by potrace 1.16, written by Peter Selinger 2001-2019
</metadata>
<g transform="translate(0.000000,1601.000000) scale(0.100000,-0.100000)"
fill="#000000" stroke="none">
<path d="M6967 15969 c-40 -20 -133 -56 -207 -78 -226 -69 -214 -62 -238 -134
-11 -34 -28 -102 -37 -152 -9 -49 -24 -126 -32 -170 -8 -44 -24 -107 -35 -139
-16 -50 -18 -67 -9 -102 31 -122 1 -276 -79 -414 -53 -91 -129 -190 -145 -190
-7 0 -33 15 -57 33 -69 53 -102 131 -143 338 -19 97 -39 189 -46 205 l-11 29
-33 -39 -32 -39 -35 27 c-19 14 -40 26 -47 26 -20 0 -59 -49 -106 -136 -44
-81 -85 -126 -125 -139 -23 -7 -27 -21 -35 -130 -14 -178 -76 -397 -160 -565
-128 -255 -361 -506 -637 -688 -76 -50 -89 -63 -104 -102 -27 -73 -54 -109
-95 -131 -48 -24 -73 -14 -118 48 -32 44 -64 59 -105 49 -51 -13 -65 -123 -28
-210 l18 -41 -85 -41 c-141 -69 -238 -161 -426 -404 -116 -151 -224 -256 -305
-299 -36 -19 -66 -35 -68 -36 -1 -1 -4 -31 -7 -66 -7 -115 -58 -209 -112 -209
-29 0 -30 -22 -3 -65 l20 -32 -49 -104 c-168 -358 -207 -884 -102 -1379 28
-130 68 -264 81 -268 6 -2 32 -21 59 -42 54 -43 94 -95 172 -225 29 -49 67
-105 85 -124 l31 -34 -47 -116 c-65 -161 -65 -158 -41 -171 16 -8 28 -7 52 5
41 22 48 12 16 -21 -25 -25 -65 -110 -55 -119 12 -12 69 62 88 113 31 84 46
102 80 102 26 0 30 -4 30 -26 0 -14 -11 -40 -25 -56 -37 -44 -30 -63 20 -60
144 11 296 -128 401 -366 3 -7 167 -25 235 -26 31 -1 47 -11 106 -67 89 -83
158 -133 358 -254 282 -172 399 -265 493 -393 71 -97 92 -142 92 -204 0 -29
12 -96 25 -147 29 -111 31 -154 9 -232 l-16 -58 44 -53 c124 -147 207 -366
257 -679 11 -68 34 -245 51 -394 29 -258 59 -450 80 -525 15 -53 12 -64 -19
-82 -41 -23 -63 -69 -59 -126 l3 -47 83 0 c96 0 102 -4 102 -81 0 -81 42 -224
123 -425 110 -269 130 -352 162 -689 29 -305 59 -449 121 -577 37 -77 57 -97
161 -158 43 -24 70 -48 85 -75 15 -25 30 -40 43 -40 11 0 55 -8 98 -17 76 -16
80 -16 114 2 l35 19 19 -24 c17 -23 20 -23 32 -9 7 9 36 27 65 39 65 28 124
93 152 167 11 31 35 112 52 181 33 136 55 196 90 245 21 30 22 42 23 237 1
174 6 238 33 420 60 412 65 627 21 838 -35 171 -37 154 18 182 27 14 108 83
188 161 77 74 161 148 186 162 l46 27 99 -30 c283 -88 430 -151 500 -212 17
-16 36 -28 41 -28 23 0 43 41 52 104 6 38 17 76 27 87 22 25 75 25 180 -1 347
-83 574 -255 715 -543 18 -37 36 -67 39 -67 3 0 18 18 34 40 17 22 35 40 40
40 6 0 27 5 47 10 l36 10 7 71 c11 108 41 214 91 315 44 92 137 226 192 277
29 27 30 27 67 12 90 -38 204 -12 318 71 46 34 53 36 101 30 424 -51 420 -50
540 -108 97 -46 120 -53 172 -53 86 1 145 36 250 151 101 109 152 138 230 132
67 -6 127 -36 246 -124 153 -114 152 -114 341 -118 199 -4 250 -17 313 -81 32
-31 49 -59 60 -99 12 -42 21 -56 35 -56 10 0 44 -10 75 -22 l57 -22 44 24 44
23 103 -48 c132 -62 211 -107 269 -156 37 -31 53 -38 72 -33 38 9 92 61 144
138 26 38 52 71 57 73 6 2 28 -27 49 -64 81 -142 146 -193 245 -193 l49 0 7
51 c14 102 -14 240 -76 378 -21 45 -26 68 -19 75 6 6 39 11 73 11 85 0 113
-21 170 -133 25 -48 57 -100 70 -114 32 -34 99 -55 135 -42 46 17 36 63 -47
213 -84 150 -97 209 -63 271 l19 35 75 1 c93 0 133 22 231 123 67 69 89 82
102 61 9 -15 81 -50 137 -66 26 -8 63 -28 81 -44 l34 -29 43 44 44 45 82 0
c45 0 102 3 127 6 l45 7 18 63 c9 34 34 89 55 120 21 32 36 61 33 65 -9 15
-153 68 -211 78 -68 11 -140 3 -283 -28 -112 -25 -105 -24 -91 -7 7 8 34 22
60 32 78 28 96 46 95 96 0 24 -2 49 -5 57 -3 10 11 19 46 28 28 8 74 21 103
29 35 10 69 29 98 56 45 41 52 64 33 99 -8 15 -6 25 10 45 14 17 18 34 15 53
-10 49 13 107 58 146 97 82 314 97 476 32 l56 -22 1 -75 c1 -68 5 -84 48 -170
49 -99 67 -160 49 -160 -14 0 -102 165 -138 258 -20 52 -33 72 -46 72 -41 0
-51 -86 -17 -151 20 -41 20 -41 1 -55 -34 -23 -57 -100 -56 -186 l0 -77 -38
-17 c-21 -9 -38 -20 -38 -23 0 -20 36 -51 82 -73 62 -30 86 -53 93 -94 5 -24
2 -31 -22 -45 -22 -12 -33 -30 -48 -79 -11 -35 -36 -90 -57 -122 -21 -32 -38
-61 -38 -64 0 -9 133 -66 199 -85 35 -10 90 -21 122 -25 l59 -7 0 54 c0 51 2
55 47 94 50 44 51 41 -9 86 -35 26 -35 40 1 67 22 16 30 32 35 69 12 85 10 83
83 83 56 0 66 3 70 20 6 24 15 25 54 4 45 -23 59 -13 59 41 0 39 5 50 34 75
l34 30 -18 49 c-49 126 -49 401 -1 401 31 0 42 15 32 42 -7 19 -5 32 9 56 l19
31 -39 35 c-52 47 -95 68 -242 117 -132 45 -197 74 -241 111 l-28 23 30 47
c38 59 109 138 126 138 6 0 37 -18 68 -40 45 -33 64 -40 101 -40 31 0 46 4 46
13 0 20 -51 94 -128 187 -104 123 -137 188 -137 271 0 55 4 72 28 108 24 35
27 49 22 81 -6 33 -3 40 21 59 30 23 27 37 -17 93 -13 16 -19 33 -15 43 5 15
15 16 62 10 80 -10 167 -8 232 5 78 16 210 80 291 139 85 63 234 217 290 300
l43 63 -22 40 c-17 30 -22 55 -21 95 0 30 3 58 6 63 9 15 -25 109 -43 114 -9
3 -51 8 -92 12 -41 3 -83 10 -93 16 -17 9 -17 11 -2 28 15 16 14 20 -11 49
-14 17 -23 38 -20 46 3 8 37 35 76 60 66 43 85 65 104 127 3 11 21 18 60 23
53 7 54 8 45 32 -14 37 -12 43 21 54 39 14 39 45 0 67 -58 33 -28 73 90 122
83 34 120 63 120 94 -1 37 -37 102 -69 125 -55 39 -56 53 -17 133 39 77 47
152 25 217 -10 29 -9 34 11 48 19 13 21 21 16 56 -6 36 -4 43 21 63 24 19 26
24 14 38 -20 24 -5 35 67 47 l62 11 0 49 0 49 48 0 c42 0 49 3 64 30 13 23 26
31 57 36 l41 7 0 48 0 49 53 0 53 0 17 53 c74 238 57 509 -44 710 -41 80 -154
193 -230 229 -31 15 -85 33 -120 40 l-64 12 0 118 c-1 75 -5 122 -12 129 -7 7
-39 12 -72 11 -120 -1 -202 -70 -307 -259 -100 -179 -163 -233 -260 -219 l-44
6 0 -61 c0 -38 -15 -118 -40 -215 -37 -142 -40 -166 -40 -285 l0 -129 35 -22
c19 -13 35 -26 35 -30 0 -5 -20 -8 -44 -8 -43 0 -45 -1 -43 -27 2 -26 -1 -28
-48 -35 -157 -21 -258 -4 -293 50 -14 21 -13 22 11 22 44 0 57 10 51 36 -4 16
-1 31 9 42 15 16 10 23 -65 87 -44 39 -95 81 -113 95 l-32 25 1 90 c0 80 -3
97 -28 148 -34 71 -96 135 -206 215 -160 116 -175 127 -228 170 -49 40 -56 43
-84 33 -43 -15 -102 -14 -142 3 -45 19 -112 90 -133 143 -10 23 -22 43 -28 43
-24 0 -118 -52 -233 -128 -193 -128 -262 -137 -349 -46 -24 24 -43 48 -43 53
0 4 19 23 43 41 23 19 89 79 146 135 243 235 362 456 378 701 l6 92 -37 12
c-60 20 -114 5 -222 -60 -55 -33 -102 -60 -106 -60 -14 0 -8 41 12 80 11 22
20 51 20 65 0 24 -3 25 -52 25 -46 0 -108 -10 -158 -25 -14 -4 -15 5 -12 60 3
48 1 65 -8 65 -7 0 -61 -15 -119 -34 -154 -50 -259 -63 -341 -42 -37 9 -88 32
-118 53 -50 34 -129 118 -167 176 -14 22 -25 27 -56 27 -39 0 -39 0 -39 39 0
35 -3 39 -31 45 -41 8 -35 21 37 79 32 26 60 52 62 57 2 5 -10 16 -27 24 -21
12 -32 26 -36 50 l-7 33 -56 -1 -57 -1 2 33 c2 42 29 72 101 110 62 33 106 74
117 109 6 20 -7 16 -112 -39 -344 -178 -433 -266 -474 -466 l-13 -62 -41 0
c-30 0 -55 -9 -86 -29 l-44 -30 -49 27 c-54 29 -110 94 -140 160 -16 35 -23
41 -40 36 -19 -5 -32 -17 -87 -83 -29 -35 -75 -23 -160 39 -83 62 -134 75
-168 41 -27 -27 -28 -84 -2 -110 11 -11 46 -23 87 -30 142 -24 175 -33 204
-58 17 -13 30 -32 30 -41 0 -14 -9 -16 -51 -13 -82 5 -136 -7 -174 -40 -33
-29 -35 -30 -64 -14 -17 8 -87 40 -156 69 -128 56 -225 117 -225 142 0 8 -13
41 -30 73 -47 95 -132 154 -288 201 l-73 22 19 22 c11 11 31 47 45 79 l26 58
-54 26 c-58 29 -62 35 -61 105 1 56 5 55 -113 33 -45 -9 -92 -13 -104 -9 -31
9 -66 43 -87 84 -10 19 -32 48 -49 64 -29 27 -33 29 -91 23 -35 -4 -70 -3 -80
3 -10 5 -43 45 -73 88 -74 106 -106 132 -163 132 -24 0 -44 4 -44 9 0 5 -25
43 -55 84 -31 42 -65 96 -76 121 -23 53 -37 59 -144 59 -101 0 -166 -19 -329
-95 -227 -106 -308 -124 -425 -94 -81 21 -145 10 -217 -37 l-49 -32 -15 30
c-13 25 -22 30 -56 33 -61 4 -168 -24 -246 -65 -40 -21 -111 -74 -165 -122
-52 -47 -112 -99 -133 -114 -37 -28 -37 -28 -116 -17 -53 7 -196 9 -439 5
-198 -3 -382 -2 -410 2 l-50 8 -1 170 c-2 184 -22 329 -68 486 -82 282 -232
453 -422 478 -51 7 -60 5 -127 -30z m6082 -2066 c-8 -9 -42 -29 -76 -44 -38
-17 -64 -35 -68 -48 -7 -24 -25 -28 -25 -7 0 12 24 61 45 94 3 4 87 20 114 21
21 1 22 -1 10 -16z m2570 -5968 c23 -12 24 -14 8 -20 -34 -14 -101 2 -125 30
-12 15 -20 30 -17 35 6 9 80 -16 134 -45z"/>
<path d="M1195 14860 c-116 -24 -242 -95 -320 -182 -66 -73 -73 -92 -87 -223
-25 -245 32 -502 160 -721 48 -83 65 -92 182 -101 144 -11 265 35 380 144 148
139 232 343 234 568 1 168 -39 294 -126 390 -98 108 -263 157 -423 125z"/>
<path d="M315 12337 c-89 -41 -145 -167 -146 -326 0 -74 3 -91 31 -147 35 -72
89 -124 198 -190 l73 -44 51 27 c224 122 249 393 53 588 -33 34 -77 69 -98 78
-51 25 -125 31 -162 14z"/>
<path d="M590 10173 c-8 -3 -24 -8 -35 -13 -11 -5 -42 -18 -69 -29 -54 -23
-141 -84 -231 -161 -33 -28 -83 -67 -112 -86 -48 -32 -53 -39 -77 -111 -103
-316 -68 -717 84 -951 107 -166 244 -242 434 -242 177 0 301 54 437 190 74 74
94 102 138 191 81 164 95 230 95 444 -1 197 -9 245 -74 412 -29 76 -34 83 -68
94 -62 20 -133 58 -227 124 -154 106 -248 150 -295 138z"/>
<path d="M3383 7760 c-59 -24 -82 -135 -64 -301 16 -151 10 -143 96 -136 185
14 257 132 179 289 -33 65 -81 118 -129 139 -45 21 -51 21 -82 9z"/>
<path d="M3166 5655 c-101 -36 -156 -119 -156 -236 0 -114 69 -227 152 -247
130 -32 226 51 236 203 12 194 -100 329 -232 280z"/>
<path d="M2820 4025 c-49 -22 -107 -81 -136 -137 -86 -168 -66 -447 41 -562
l25 -27 147 3 148 3 33 55 c81 136 102 281 63 443 -34 141 -54 180 -109 207
-61 29 -163 37 -212 15z"/>
<path d="M4569 3720 c-86 -15 -151 -58 -208 -140 -153 -218 -146 -599 14 -794
19 -24 63 -58 98 -77 58 -32 67 -34 157 -33 83 0 105 4 178 33 46 18 91 42
101 53 25 26 78 154 103 247 41 155 33 404 -16 523 -26 62 -187 159 -305 184
-36 7 -68 13 -71 13 -3 -1 -26 -5 -51 -9z"/>
<path d="M2535 2701 c-22 -11 -53 -30 -68 -43 -28 -23 -28 -26 -29 -123 0
-150 29 -236 99 -294 42 -34 59 -37 106 -17 88 36 132 129 125 260 -7 132 -67
222 -154 232 -26 3 -52 -2 -79 -15z"/>
<path d="M2495 1661 c-78 -20 -147 -83 -180 -163 l-19 -46 -65 -7 c-191 -20
-342 -121 -418 -277 -53 -108 -66 -187 -60 -356 6 -178 30 -272 111 -437 134
-272 334 -408 535 -365 74 15 163 70 204 123 139 183 179 529 117 1013 -27
209 -80 497 -94 511 -9 10 -99 12 -131 4z"/>
<path d="M5182 1648 c-74 -25 -165 -134 -186 -222 -14 -59 -8 -151 15 -211 39
-105 164 -210 297 -249 l52 -15 55 66 c96 116 157 265 169 414 l6 66 -49 46
c-77 72 -161 110 -251 113 -41 2 -90 -2 -108 -8z"/>
</g>
</svg>
