<?xml version="1.0" standalone="no"?>
<!DOCTYPE svg PUBLIC "-//W3C//DTD SVG 20010904//EN"
 "http://www.w3.org/TR/2001/REC-SVG-20010904/DTD/svg10.dtd">
<svg version="1.0" xmlns="http://www.w3.org/2000/svg"
 width="1014.000000pt" height="700.000000pt" viewBox="0 0 1014.000000 700.000000"
 preserveAspectRatio="xMidYMid meet">
<metadata>
Created by potrace 1.16, written by Peter Selinger 2001-2019
</metadata>
<g transform="translate(0.000000,700.000000) scale(0.100000,-0.100000)"
fill="#000000" stroke="none">
<path d="M4995 6083 c-693 -34 -1320 -399 -1683 -979 -212 -340 -316 -704
-316 -1109 0 -266 40 -491 129 -731 45 -120 143 -318 197 -397 22 -32 51 -84
65 -114 24 -52 25 -63 20 -162 -3 -58 -15 -146 -26 -196 -25 -112 -27 -202 -5
-234 9 -13 32 -29 50 -37 65 -27 119 -12 155 42 24 36 26 143 4 224 -30 111
-14 224 34 250 63 33 185 -6 258 -81 107 -111 126 -297 57 -549 -44 -157 -29
-260 45 -323 74 -62 191 -6 222 106 10 35 8 70 -11 205 -13 96 -20 182 -16
208 13 97 63 144 154 144 97 0 133 -40 178 -197 28 -95 58 -144 104 -168 47
-24 173 -20 264 10 149 49 203 28 227 -83 18 -88 5 -294 -26 -427 -60 -250
-38 -396 67 -451 36 -19 110 -18 156 2 126 52 149 181 87 484 -61 298 -47 555
35 676 64 92 175 100 251 17 57 -61 64 -86 64 -238 -1 -120 -5 -155 -28 -242
-42 -159 -35 -246 26 -311 89 -93 253 -44 272 81 11 71 1 168 -30 292 -30 123
-35 222 -13 275 8 19 46 71 83 115 37 44 75 95 83 115 8 19 20 92 27 162 14
145 29 181 91 215 54 31 104 30 144 -3 78 -66 88 -152 39 -343 -38 -150 -35
-194 17 -246 31 -31 41 -35 87 -35 137 0 183 110 123 298 -50 157 -35 221 74
324 81 78 131 154 194 296 20 45 51 117 70 160 77 172 124 325 158 509 18 99
22 155 22 353 0 258 -10 341 -65 549 -201 758 -834 1350 -1609 1505 -115 23
-359 49 -419 44 -15 -1 -53 -3 -86 -5z"/>
</g>
</svg>
