<?xml version="1.0" standalone="no"?>
<!DOCTYPE svg PUBLIC "-//W3C//DTD SVG 20010904//EN"
 "http://www.w3.org/TR/2001/REC-SVG-20010904/DTD/svg10.dtd">
<svg version="1.0" xmlns="http://www.w3.org/2000/svg"
 width="1014.000000pt" height="700.000000pt" viewBox="0 0 1014.000000 700.000000"
 preserveAspectRatio="xMidYMid meet">
<metadata>
Created by potrace 1.16, written by Peter Selinger 2001-2019
</metadata>
<g transform="translate(0.000000,700.000000) scale(0.100000,-0.100000)"
fill="#000000" stroke="none">
<path d="M4915 6270 c-465 -72 -875 -275 -1209 -599 -346 -337 -562 -749 -647
-1238 -30 -171 -32 -499 -5 -673 61 -391 230 -778 464 -1061 199 -241 223
-322 167 -569 -49 -214 -34 -313 55 -357 89 -46 172 -17 215 73 36 75 34 162
-5 289 -56 181 -31 283 84 340 103 51 205 17 271 -89 l30 -49 0 -173 c0 -188
3 -199 67 -247 78 -58 208 19 208 123 0 21 -9 82 -21 136 -30 146 -16 231 52
309 39 44 99 80 160 95 56 14 146 -5 208 -44 146 -93 172 -330 75 -701 -31
-120 -43 -300 -25 -387 18 -83 64 -147 131 -181 48 -25 63 -28 120 -24 97 6
157 44 199 127 50 95 46 200 -15 421 l-49 174 1 175 c0 190 13 267 59 345 53
91 116 125 228 125 139 0 221 -43 265 -139 23 -49 26 -68 26 -156 -1 -70 -8
-126 -24 -185 -45 -172 -29 -283 54 -365 102 -101 224 -99 324 5 49 49 72 113
72 194 0 57 -6 88 -59 291 -63 241 -49 448 34 511 37 28 117 41 179 30 19 -4
58 -25 87 -48 91 -72 153 -70 257 6 311 229 536 899 494 1470 -40 544 -248
1012 -622 1400 -345 357 -799 586 -1294 651 -163 21 -455 19 -611 -5z"/>
</g>
</svg>
