<?xml version="1.0" standalone="no"?>
<!DOCTYPE svg PUBLIC "-//W3C//DTD SVG 20010904//EN"
 "http://www.w3.org/TR/2001/REC-SVG-20010904/DTD/svg10.dtd">
<svg version="1.0" xmlns="http://www.w3.org/2000/svg"
 width="1024.000000pt" height="724.000000pt" viewBox="0 0 1024.000000 724.000000"
 preserveAspectRatio="xMidYMid meet">
<metadata>
Created by potrace 1.16, written by Peter Selinger 2001-2019
</metadata>
<g transform="translate(0.000000,724.000000) scale(0.100000,-0.100000)"
fill="#000000" stroke="none">
<path d="M2350 5612 c0 -20 -47 -63 -62 -57 -11 4 -21 -3 -32 -26 -9 -17 -13
-35 -11 -40 3 -4 1 -10 -4 -13 -5 -3 -12 1 -15 10 -4 10 -12 14 -22 10 -9 -4
-22 -2 -28 3 -14 11 -56 3 -56 -10 0 -5 -6 -9 -14 -9 -8 0 -16 -6 -19 -12 -2
-7 -8 -1 -12 15 -7 27 -28 36 -40 16 -4 -6 2 -13 14 -16 12 -3 21 -13 21 -24
0 -11 5 -19 10 -19 17 0 11 -35 -9 -47 -22 -13 -31 -8 -31 19 0 10 -4 18 -10
18 -5 0 -10 -7 -10 -15 0 -8 -5 -15 -10 -15 -6 0 -10 -6 -9 -12 1 -7 1 -22 0
-33 -1 -15 -3 -17 -10 -7 -7 11 -10 10 -15 -3 -3 -9 -6 -24 -5 -33 0 -16 1
-16 7 -1 6 14 9 15 19 4 10 -11 9 -15 -7 -20 -21 -7 -28 -25 -10 -25 14 0 13
-27 -2 -36 -7 -4 -8 -3 -4 4 4 7 1 12 -7 12 -9 0 -12 -9 -9 -31 4 -28 2 -30
-19 -27 -31 4 -33 46 -4 62 11 6 22 12 24 13 2 2 -4 12 -15 24 -18 20 -18 21
-1 34 13 9 15 15 7 20 -7 4 -10 19 -6 36 3 16 1 29 -4 29 -6 0 -10 -11 -10
-25 0 -14 -5 -25 -10 -25 -6 0 -8 11 -4 26 4 17 3 25 -3 21 -5 -3 -9 4 -9 16
1 16 -4 21 -16 19 -20 -3 -22 9 -12 71 5 27 12 37 24 37 10 0 20 -5 22 -12 3
-7 7 -5 11 6 4 9 3 15 -2 12 -5 -3 -11 1 -15 9 -3 8 -12 12 -21 9 -8 -3 -15
-1 -15 5 0 6 -9 11 -21 11 -14 0 -24 -10 -32 -30 -8 -22 -16 -28 -29 -24 -10
3 -31 -1 -47 -9 -35 -17 -43 -13 -35 19 5 19 2 24 -14 24 -12 0 -24 -4 -27
-10 -3 -5 -15 -10 -26 -10 -10 0 -19 5 -19 10 0 6 -4 10 -10 10 -5 0 -10 -6
-10 -13 0 -8 18 -19 40 -26 39 -12 55 -31 25 -31 -8 0 -15 -8 -15 -18 0 -28
-10 -32 -36 -15 -15 9 -24 11 -24 4 0 -6 5 -11 10 -11 6 0 10 -7 10 -15 0 -8
6 -15 14 -15 7 0 19 -7 26 -15 7 -8 22 -15 34 -15 20 -1 20 -1 3 -15 -21 -15
-16 -49 8 -59 8 -3 15 -11 15 -18 0 -7 9 -24 20 -38 11 -14 20 -35 20 -48 0
-12 8 -38 19 -57 15 -29 16 -40 7 -70 -11 -35 -20 -43 -30 -26 -3 5 -16 7 -28
3 -14 -3 -19 -1 -14 6 3 6 2 13 -3 16 -5 4 -12 2 -16 -4 -3 -5 -15 -10 -26
-10 -10 0 -19 -4 -19 -10 0 -5 -11 -10 -25 -10 -18 0 -25 -5 -25 -20 0 -11 5
-20 10 -20 6 0 10 -9 10 -19 0 -11 -4 -23 -10 -26 -15 -9 -13 -95 2 -95 9 0 9
-3 0 -12 -17 -17 -15 -39 6 -54 16 -12 16 -14 -3 -28 -24 -18 -16 -28 27 -33
17 -2 33 -5 36 -7 8 -8 8 -66 0 -66 -12 0 -10 -44 3 -57 7 -7 8 -17 1 -29 -13
-25 -5 -44 15 -37 15 6 15 4 0 -17 -10 -15 -17 -42 -16 -70 l1 -45 14 33 c8
17 19 32 24 32 7 0 7 -6 1 -19 -8 -15 -7 -20 8 -24 10 -2 18 1 18 7 -1 35 5
46 23 46 11 0 21 -3 21 -7 4 -22 8 -127 8 -198 0 -44 0 -88 0 -98 0 -9 -4 -15
-9 -12 -5 3 -12 0 -16 -6 -4 -8 -9 -7 -15 2 -12 19 -11 39 1 39 5 0 6 -7 3
-17 -4 -11 -3 -14 5 -9 7 4 12 19 11 34 0 15 -3 21 -6 15 -2 -7 -11 -13 -19
-13 -8 0 -14 -6 -14 -14 0 -7 -7 -20 -16 -27 -15 -12 -16 -11 -9 11 4 14 15
34 24 45 15 19 15 19 -3 5 -18 -14 -19 -13 -14 7 5 18 2 22 -13 20 -10 -2 -22
-7 -26 -12 -5 -4 -3 -5 4 -1 18 10 25 -10 8 -24 -18 -15 -20 -44 -2 -34 8 6 8
3 -1 -9 -17 -21 -24 -141 -7 -127 7 6 15 7 19 3 14 -14 46 -13 46 2 0 9 6 12
15 9 8 -4 15 -12 15 -20 0 -8 5 -14 12 -14 6 0 1 -10 -11 -21 -14 -14 -37 -22
-60 -23 -35 -1 -36 -2 -38 -45 -2 -42 -1 -43 14 -22 11 16 18 20 26 12 16 -16
24 -13 32 12 4 13 8 17 12 10 7 -18 21 -16 26 5 3 9 5 -4 6 -30 1 -45 -1 -48
-24 -48 -19 0 -26 -7 -33 -32 -6 -18 -13 -41 -17 -51 -6 -14 -4 -16 11 -10 11
4 15 3 10 -5 -3 -6 -2 -13 4 -17 7 -4 7 -12 0 -25 -16 -29 -13 -80 5 -80 8 0
15 -4 15 -10 0 -5 -16 -10 -35 -10 -41 0 -47 -17 -7 -22 l27 -4 -25 -11 c-14
-7 -19 -12 -11 -12 9 -1 11 -9 7 -25 -6 -23 -3 -25 51 -32 68 -8 102 -22 83
-34 -7 -5 -13 -23 -12 -42 0 -18 -6 -44 -15 -57 -12 -19 -13 -25 -2 -32 21
-13 3 -22 -28 -14 -24 6 -26 8 -12 18 14 11 12 15 -12 35 -28 23 -28 23 -45 3
-16 -18 -19 -18 -40 -4 l-23 14 -3 -108 c-4 -140 4 -259 17 -253 6 3 11 -6 12
-20 1 -14 0 -19 -3 -12 -10 22 -22 13 -28 -22 -10 -55 -8 -236 3 -250 7 -9 7
-16 -1 -24 -9 -9 -9 -12 0 -12 7 0 21 9 33 21 11 11 23 19 25 16 9 -9 -8 -35
-30 -45 -13 -6 -26 -20 -29 -32 -5 -19 -3 -21 16 -15 47 14 120 26 145 23 25
-3 24 -5 -24 -39 -52 -38 -55 -45 -41 -114 2 -11 2 -14 0 -7 -3 6 -11 12 -19
12 -16 0 -19 -36 -4 -45 6 -3 7 -17 4 -31 -3 -13 -2 -24 3 -24 4 0 9 -17 9
-37 1 -21 4 -49 7 -63 3 -14 6 -29 6 -33 1 -5 10 -6 21 -3 11 3 29 9 40 12 13
3 20 1 20 -8 0 -8 -10 -14 -21 -15 -32 -3 -60 -32 -49 -52 24 -41 27 -43 48
-32 19 10 20 8 18 -70 0 -45 -6 -83 -12 -87 -6 -4 -14 -14 -17 -22 -4 -11 -6
-9 -6 5 -1 26 -41 32 -42 7 0 -14 -2 -14 -8 2 -7 19 -8 19 -16 0 -8 -19 -8
-32 1 -72 3 -16 9 -21 17 -15 41 29 99 -17 75 -60 -13 -25 -2 -34 47 -39 22
-3 47 -7 55 -9 8 -2 14 2 13 9 -5 21 7 13 17 -12 6 -16 18 -26 36 -28 15 -2
29 -9 32 -16 3 -10 -7 -11 -46 -6 -44 6 -50 4 -55 -15 -7 -27 -33 -27 -47 -1
-6 11 -15 20 -20 20 -6 0 -10 -9 -10 -20 0 -11 -4 -20 -9 -20 -17 0 -17 -35
-1 -47 13 -11 12 -12 -6 -13 -11 0 -25 5 -31 11 -8 8 -13 8 -17 0 -4 -6 0 -11
8 -11 15 0 20 -11 17 -37 -1 -7 4 -13 11 -13 8 -1 5 -6 -6 -15 -11 -8 -16 -15
-10 -15 5 0 10 -16 10 -35 2 -40 11 -56 22 -38 6 10 14 9 33 -1 15 -7 50 -16
80 -20 30 -3 71 -9 92 -12 25 -4 37 -2 37 5 0 7 -5 9 -12 5 -8 -5 -9 -2 -5 9
4 11 1 17 -8 17 -21 0 -18 18 5 32 15 9 20 24 20 53 0 34 6 46 40 78 25 23 40
32 40 23 0 -8 -7 -19 -16 -24 -15 -8 -15 -10 0 -15 9 -4 20 1 25 11 9 15 10
14 11 -7 0 -17 4 -22 16 -17 10 4 23 -2 34 -14 9 -11 20 -17 24 -13 3 3 6 -4
6 -16 0 -21 2 -21 26 9 24 28 26 33 13 57 -12 23 -11 27 10 44 13 10 18 19 12
19 -16 0 -13 16 6 36 16 16 18 15 29 -11 7 -18 13 -23 16 -14 3 8 8 1 12 -17
4 -17 2 -42 -3 -57 -7 -17 -7 -28 -1 -32 6 -4 10 -15 10 -26 0 -16 5 -19 23
-14 14 4 18 3 9 -3 -10 -7 -10 -11 3 -22 8 -7 15 -19 15 -26 0 -8 5 -14 10
-14 6 0 10 -7 10 -15 0 -8 5 -15 10 -15 6 0 10 6 10 14 0 7 11 16 25 18 14 3
25 2 25 -3 0 -4 14 0 31 8 26 13 33 13 40 2 5 -8 9 -10 9 -6 0 4 9 3 19 -3 14
-7 22 -7 26 0 4 7 11 8 18 2 7 -5 24 -8 39 -7 16 2 34 -3 42 -10 12 -13 15
-12 20 1 4 10 14 14 26 11 17 -4 18 -2 9 14 -5 11 -14 17 -19 14 -6 -3 -7 1
-4 9 7 18 24 22 24 6 0 -5 9 -1 20 10 11 11 20 24 20 29 0 5 6 11 13 14 6 2 8
8 4 13 -5 5 -17 -2 -27 -16 -16 -20 -20 -22 -20 -7 0 9 5 17 10 17 6 0 10 11
10 25 0 24 3 25 56 25 l56 0 -4 -35 c-3 -25 0 -35 10 -35 11 0 12 9 7 40 -7
40 -6 41 18 35 14 -4 28 -2 32 4 3 6 10 9 15 6 5 -3 153 -6 329 -8 212 -1 321
-6 321 -12 0 -10 -35 -45 -45 -45 -3 0 -5 8 -5 18 -1 16 -1 16 -11 -1 -6 -10
-9 -23 -6 -30 2 -6 -2 -18 -10 -25 -14 -14 -18 -61 -5 -64 30 -6 62 -3 62 6 0
6 5 4 10 -4 8 -12 10 -10 10 10 1 25 1 25 10 3 5 -13 14 -23 19 -23 15 0 22
-31 10 -48 -9 -14 -10 -14 -6 6 7 31 -11 28 -19 -4 -7 -29 9 -46 34 -37 11 5
13 1 8 -14 -6 -19 -2 -21 45 -21 29 0 55 -5 59 -12 4 -6 11 -11 16 -10 4 1 11
-7 15 -17 7 -16 8 -15 8 4 1 15 8 23 24 25 18 2 23 10 25 42 2 24 -2 42 -10
47 -10 7 -10 9 0 9 8 0 12 16 12 44 0 26 5 46 13 49 9 4 9 6 0 6 -8 1 -13 16
-13 44 0 57 10 70 42 58 14 -5 29 -7 32 -3 11 10 46 12 46 3 0 -5 7 -17 16
-26 12 -12 20 -13 29 -5 8 6 21 10 31 8 12 -2 21 9 33 42 19 53 32 65 45 42
12 -20 27 -37 41 -43 5 -2 9 -7 8 -11 -2 -5 2 -8 7 -8 6 0 10 -7 10 -15 0 -8
-4 -15 -10 -15 -5 0 -10 -5 -10 -11 0 -6 6 -9 14 -6 15 6 26 -12 26 -41 0 -15
-2 -15 -11 -2 -8 12 -12 12 -16 2 -4 -10 -8 -9 -19 5 -12 16 -13 13 -11 -24 2
-38 5 -43 27 -44 17 -1 19 -3 8 -6 -10 -2 -18 -11 -18 -19 0 -8 -4 -12 -10 -9
-12 8 -13 -5 -1 -23 6 -10 10 -7 15 14 7 25 8 26 23 11 15 -15 15 -18 -1 -36
-17 -19 -17 -21 -2 -36 9 -9 16 -23 16 -31 0 -8 5 -12 10 -9 6 3 10 -2 11 -12
0 -10 3 -13 5 -7 3 6 -2 23 -10 38 -19 37 -14 61 12 62 12 1 22 -3 22 -8 0 -6
-7 -8 -15 -4 -20 7 -20 -21 0 -40 13 -14 15 -14 15 0 0 9 4 16 8 16 5 0 7 -15
5 -33 -3 -21 -1 -28 5 -19 5 7 15 12 22 10 9 -2 16 9 20 27 3 17 9 29 13 28
15 -6 0 48 -17 59 -17 11 7 10 38 -2 14 -5 26 -6 26 -1 0 5 8 7 18 5 18 -5 26
-64 8 -64 -5 0 -7 -2 -4 -5 9 -9 38 7 38 21 0 8 5 14 11 14 5 0 7 5 4 11 -5 6
-12 4 -21 -8 -12 -17 -13 -17 -14 0 0 16 10 21 37 18 6 -1 14 3 18 9 4 6 -6
10 -24 10 -24 0 -29 4 -28 20 1 11 5 20 9 20 4 0 8 7 8 15 0 9 -6 12 -16 8 -9
-3 -19 0 -24 6 -5 9 -9 8 -13 -4 -4 -9 -1 -18 8 -21 7 -3 11 -12 8 -20 -9 -23
-21 -16 -28 16 -5 21 -12 30 -27 30 -17 0 -20 -4 -14 -30 4 -21 2 -30 -7 -30
-9 0 -12 11 -9 34 3 26 -1 37 -18 49 -12 8 -18 17 -13 20 5 3 75 5 157 5 112
-1 149 -4 153 -14 4 -11 7 -11 18 -1 8 9 51 14 131 15 113 2 143 10 127 35 -3
4 3 7 13 5 14 -2 18 2 16 17 -2 11 -8 23 -14 26 -12 7 32 17 50 11 7 -2 12
-22 12 -48 0 -24 4 -44 10 -44 5 0 9 5 7 11 -1 7 17 13 46 15 40 3 48 0 43
-11 -3 -8 -1 -15 4 -15 5 0 12 9 15 20 8 26 25 26 25 0 0 -17 7 -20 53 -21
102 -2 142 3 150 17 7 12 11 12 31 -1 32 -21 146 -18 164 4 11 14 11 14 5 -3
-4 -13 -2 -17 8 -14 19 6 19 39 1 61 -9 9 -12 20 -9 24 4 3 7 1 7 -5 0 -7 10
-12 23 -12 16 0 18 3 8 9 -7 5 -10 14 -7 20 4 6 0 11 -11 11 -28 0 -44 -15
-37 -33 3 -9 1 -17 -4 -17 -17 0 -25 21 -13 33 6 6 11 21 11 33 0 28 18 41 26
20 5 -13 8 -13 20 -1 17 17 19 39 2 28 -7 -4 -5 5 5 20 10 15 16 31 15 35 -2
4 9 20 25 37 l29 30 -19 -40 c-10 -22 -21 -41 -25 -43 -15 -7 -8 -31 7 -26 10
4 15 0 15 -12 0 -17 1 -16 15 2 8 10 15 14 15 7 0 -8 9 -9 30 -3 17 5 32 5 35
0 3 -5 12 -7 19 -4 8 3 16 2 19 -3 9 -14 87 -3 87 13 0 8 6 11 15 8 16 -7 18
0 15 58 -2 51 9 85 22 67 7 -11 11 -11 15 -1 7 17 26 15 20 -2 -7 -17 16 -39
28 -28 5 4 5 -1 2 -10 -9 -25 3 -54 14 -36 7 10 9 8 9 -6 0 -15 3 -16 15 -6
11 9 15 9 15 1 0 -7 5 -9 10 -6 6 3 10 -1 10 -9 0 -9 7 -16 15 -16 18 0 20
-17 3 -23 -9 -3 -6 -12 10 -29 15 -17 20 -31 16 -44 -5 -13 -4 -16 4 -9 5 6
12 19 15 30 2 11 4 3 4 -18 0 -20 -6 -42 -14 -48 -22 -19 -15 -26 22 -24 20 1
38 -1 40 -6 3 -4 29 -6 58 -5 49 3 52 5 52 29 1 14 4 29 8 33 4 4 4 17 1 29
-4 15 0 24 10 28 9 4 16 2 16 -3 0 -6 5 -10 10 -10 6 0 10 7 10 15 0 8 5 15
10 15 6 0 10 -7 10 -16 0 -9 5 -14 12 -12 7 3 25 -9 41 -25 27 -28 29 -28 42
-11 13 18 14 17 15 -8 0 -15 5 -30 12 -34 7 -5 9 -2 6 8 -4 8 -2 21 3 29 5 8
9 9 9 4 0 -6 9 -11 19 -12 21 -2 36 36 21 51 -15 15 -12 36 5 30 8 -4 15 -1
15 6 0 6 5 8 10 5 6 -3 10 -2 10 3 0 5 12 7 27 4 25 -5 25 -6 7 -19 -16 -12
-17 -15 -4 -23 12 -8 12 -10 1 -10 -11 0 -11 -3 -1 -15 11 -13 15 -13 21 -3 7
10 9 10 10 -2 0 -10 3 -8 9 5 8 19 9 19 9 -2 1 -12 -5 -24 -11 -27 -7 -3 -2
-3 11 0 16 4 21 3 17 -5 -4 -6 -2 -11 4 -11 7 0 10 -7 6 -15 -3 -10 3 -17 20
-21 30 -8 39 -1 29 23 -5 12 -9 14 -12 6 -3 -7 -8 -13 -13 -13 -4 0 -3 11 3
25 7 14 18 23 25 20 8 -3 10 0 6 8 -15 26 -37 46 -45 41 -5 -3 -9 7 -9 22 0
20 3 25 11 17 15 -15 51 -4 45 14 -3 8 -3 25 0 39 8 31 54 35 54 4 0 -11 3
-20 8 -20 4 0 12 -11 18 -23 11 -25 -5 -95 -19 -81 -4 4 -7 1 -8 -7 0 -8 -4
-35 -8 -62 -7 -43 0 -64 13 -34 3 6 2 -1 -1 -18 -3 -16 -10 -31 -15 -33 -4 -2
-8 -8 -8 -13 0 -4 7 -6 15 -3 12 5 14 -1 10 -27 -3 -19 -3 -28 1 -21 3 6 10
10 15 6 5 -3 9 7 9 23 0 22 2 25 11 13 7 -11 8 -5 3 22 -6 34 -4 38 15 38 11
0 21 -4 21 -10 0 -5 -6 -10 -12 -10 -9 0 -8 -4 2 -10 10 -6 11 -10 3 -10 -9 0
-13 -16 -13 -44 0 -44 15 -72 22 -39 3 15 4 15 21 -1 12 -12 17 -14 17 -4 0
11 2 11 9 0 6 -11 11 -10 25 3 9 10 19 15 22 12 3 -3 28 3 56 14 53 19 83 13
92 -21 3 -12 4 -11 5 2 1 12 6 15 19 11 9 -3 14 -2 9 2 -4 5 0 19 8 31 8 13
13 29 12 36 -2 7 -2 10 0 6 10 -17 25 -7 20 12 -5 21 7 28 18 10 6 -10 -11
-49 -30 -65 -7 -6 -9 -21 -4 -40 4 -20 7 -23 8 -9 1 24 23 74 33 74 4 0 12 -8
17 -17 8 -15 10 -15 11 -3 0 9 9 23 20 33 21 18 29 64 8 51 -7 -5 -8 -3 -4 5
5 7 14 10 22 7 8 -3 14 0 14 7 0 8 15 11 50 9 32 -3 50 0 50 7 0 6 -4 11 -10
11 -20 0 -10 19 12 22 12 2 23 10 25 18 4 13 3 13 -6 0 -10 -15 -26 -7 -26 13
0 5 -6 12 -12 15 -9 2 -13 -6 -13 -25 0 -30 -19 -72 -20 -43 0 13 -1 13 -11 0
-8 -12 -10 -9 -6 12 2 15 -1 29 -7 32 -7 3 -6 8 3 14 11 8 11 10 0 14 -32 12
6 21 73 19 26 -1 38 -6 41 -18 4 -16 6 -15 12 3 5 16 14 20 43 20 20 -1 40 -5
44 -11 5 -7 8 -6 8 1 0 11 17 12 228 13 110 1 132 3 132 16 0 8 5 15 11 15 5
0 7 -4 4 -10 -3 -5 1 -10 9 -10 9 0 16 5 16 10 0 6 5 10 10 10 6 0 10 -7 10
-15 0 -19 61 -21 91 -3 17 10 23 10 26 1 4 -10 11 -9 34 2 17 9 29 11 29 5 0
-16 20 -12 27 6 3 9 0 19 -6 23 -14 9 -17 52 -7 98 6 26 4 32 -13 38 -20 6
-20 8 -5 43 20 48 30 132 15 132 -6 0 -14 -12 -17 -26 -5 -19 -9 -22 -15 -12
-5 7 -9 9 -9 5 0 -4 7 -18 16 -32 11 -17 12 -28 5 -42 -5 -10 -12 -26 -15 -35
-7 -22 -36 -24 -36 -3 0 9 -7 18 -15 21 -8 4 -15 14 -15 24 0 11 -5 22 -10 25
-6 4 -8 11 -4 16 3 6 -2 17 -12 25 -13 10 -14 12 -3 9 12 -5 14 1 11 31 -4 35
-4 36 18 24 14 -8 20 -8 16 -1 -4 6 -2 20 4 31 8 15 17 19 34 14 19 -4 24 0
36 37 11 33 12 43 2 47 -7 2 -12 8 -12 13 0 6 5 7 10 4 6 -3 11 0 11 7 6 72
19 120 19 71 0 -11 6 -35 13 -52 12 -29 15 -30 27 -16 8 9 13 32 12 51 -2 19
2 34 8 34 5 0 10 9 10 20 0 11 -4 20 -9 20 -10 0 -25 39 -21 55 1 6 1 35 0 65
-2 30 -2 62 -1 70 6 68 5 126 -3 132 -6 4 -6 11 1 20 13 16 15 78 2 78 -5 0
-9 5 -9 11 0 5 5 7 11 3 18 -11 4 117 -14 131 -13 9 -11 14 12 35 24 22 24 24
7 28 -10 2 -22 -2 -27 -10 -6 -10 -9 -10 -9 0 0 6 9 21 20 32 18 18 18 22 5
54 -14 33 -14 36 6 46 11 7 18 14 15 17 -3 3 2 12 12 19 16 12 15 13 -4 14
-20 0 -34 17 -34 40 0 4 8 6 19 3 10 -3 22 0 25 6 4 6 0 11 -8 11 -9 0 -16 7
-16 16 0 14 -2 14 -15 0 -8 -8 -15 -19 -15 -25 0 -6 -4 -11 -10 -11 -15 0 -12
22 6 48 14 20 14 22 -2 22 -11 0 -14 5 -9 18 16 39 17 52 2 57 -16 7 -24 125
-8 125 5 0 13 9 16 20 9 29 26 25 21 -5 -3 -14 -1 -23 5 -20 5 4 9 13 9 21 0
8 4 13 10 9 5 -3 6 -13 3 -22 -4 -11 -3 -14 5 -9 7 4 12 16 12 28 0 18 2 19
17 7 15 -12 16 -12 10 4 -4 11 -2 17 6 16 30 -4 38 2 35 24 -2 12 -9 21 -16
20 -6 -2 -12 6 -12 17 0 25 -5 25 -32 0 -12 -11 -27 -20 -34 -20 -6 0 -14 -9
-17 -20 -6 -23 -37 -27 -37 -5 0 9 6 12 18 9 12 -4 10 0 -7 15 -18 16 -20 21
-7 21 18 0 20 31 6 65 -7 17 -9 17 -9 3 -1 -10 -5 -18 -10 -18 -5 0 -8 38 -6
88 3 48 4 91 5 96 0 6 7 1 15 -10 15 -18 15 -18 9 9 -4 17 -2 27 6 27 6 0 8 5
5 10 -6 9 8 14 28 11 4 0 7 4 7 10 0 6 -9 9 -19 6 -22 -5 -34 13 -36 52 0 14
-6 26 -13 29 -15 5 -16 32 -2 32 7 0 7 6 2 18 -11 21 5 102 20 102 6 0 8 -3 5
-6 -4 -4 2 -14 12 -23 10 -9 20 -23 24 -31 4 -10 6 -8 6 8 1 12 -4 22 -10 22
-8 0 -8 4 0 14 9 11 6 15 -16 21 l-28 7 23 11 c14 6 21 16 17 25 -3 8 0 21 7
30 11 13 10 14 -10 8 -13 -4 -22 -3 -22 3 0 6 -6 8 -14 5 -17 -6 -27 48 -16
86 4 14 5 39 3 55 -4 24 -12 33 -39 41 -38 12 -45 5 -14 -14 12 -7 18 -17 14
-23 -4 -8 -9 -8 -17 0 -7 7 -16 7 -30 0 -15 -9 -18 -8 -11 3 10 15 23 118 15
118 -4 0 -6 11 -6 24 0 22 2 23 16 10 24 -21 36 -17 48 18 9 24 8 33 -1 39 -7
5 -16 3 -20 -4 -4 -7 -8 -8 -8 -1 0 5 6 16 13 23 10 10 7 11 -15 7 -15 -2 -29
1 -32 7 -2 7 -5 3 -5 -7 -1 -16 -3 -18 -13 -7 -11 10 -10 15 5 25 9 7 17 21
17 30 0 11 4 15 13 10 9 -6 9 -4 -1 8 -7 9 -12 31 -11 49 1 19 -2 42 -6 52 -4
11 -3 17 5 17 9 0 10 3 1 14 -9 10 -8 16 4 26 17 14 20 40 6 40 -14 0 -9 39 6
44 7 3 19 -1 27 -9 19 -20 26 -19 26 4 0 14 -10 21 -36 26 -27 5 -34 9 -25 18
14 14 15 30 1 22 -5 -3 -10 1 -10 9 0 9 7 16 16 16 11 0 15 6 11 20 -6 22 12
27 30 9 7 -7 12 -3 17 15 6 26 20 34 31 17 3 -6 18 -3 35 7 25 14 27 18 12 24
-13 5 -12 7 8 8 18 2 14 4 -15 10 -35 7 -42 5 -57 -13 l-17 -22 6 23 c6 24 12
23 -150 24 -45 1 -60 5 -65 17 -3 9 -15 26 -28 39 l-22 23 -68 -27 c-67 -27
-67 -27 -83 -7 -16 19 -19 19 -63 5 -57 -18 -88 -11 -127 27 -28 27 -31 28
-45 12 -9 -10 -13 -21 -9 -24 3 -4 -1 -7 -10 -7 -8 0 -18 8 -20 18 -4 13 -5
12 -6 -5 -2 -35 -18 -36 -18 0 0 43 -19 87 -38 87 -8 0 -15 -5 -15 -11 0 -8
-5 -8 -15 1 -13 11 -15 8 -15 -19 0 -27 -2 -30 -14 -19 -8 7 -13 16 -13 20 1
3 -1 6 -5 7 -22 3 -28 -1 -28 -18 0 -19 -20 -33 -53 -36 -13 -2 -15 1 -8 8 21
21 11 27 -16 10 -33 -21 -44 -34 -37 -45 3 -4 0 -8 -5 -8 -6 0 -11 6 -11 14 0
23 -14 26 -55 15 -29 -8 -40 -8 -46 3 -7 10 -11 10 -17 0 -11 -17 -75 -4 -68
14 3 7 1 16 -4 19 -6 4 -10 -6 -10 -22 0 -20 -3 -24 -9 -14 -7 11 -11 10 -19
-4 -11 -21 -42 -14 -42 9 0 9 -7 12 -19 9 -12 -3 -20 2 -23 15 -4 13 -12 19
-24 17 -11 -2 -25 -4 -31 -4 -7 -1 -14 -11 -14 -23 -1 -18 -2 -19 -6 -5 -2 9
-9 15 -14 12 -5 -3 -6 1 -3 9 3 9 1 16 -4 16 -6 0 -12 -17 -14 -37 l-4 -38
-12 27 c-7 18 -17 26 -26 22 -24 -9 -19 68 6 87 21 17 21 17 -4 14 -20 -2 -25
1 -21 15 6 24 -15 36 -24 13 -4 -10 -15 -27 -25 -37 -10 -11 -18 -27 -18 -37
0 -26 -42 -100 -54 -96 -6 2 -10 11 -8 19 3 19 -39 32 -50 15 -12 -19 -10 21
3 44 10 20 10 20 -15 4 -25 -17 -25 -16 -20 11 3 16 11 32 17 36 9 5 9 10 0
19 -18 18 -34 1 -27 -28 4 -16 3 -24 -3 -20 -6 4 -8 -4 -5 -20 4 -21 2 -25
-11 -20 -10 4 -17 -2 -21 -16 -6 -20 -7 -21 -17 -4 -13 22 -29 22 -29 -1 0
-10 -7 -27 -15 -38 -13 -17 -14 -17 -15 -1 0 9 -5 17 -11 17 -6 0 -9 7 -5 15
7 18 -5 20 -23 3 -11 -11 -12 -6 -7 27 l7 40 -17 -26 c-16 -25 -17 -26 -35 -8
-11 11 -19 27 -19 37 0 14 2 15 10 2 6 -9 13 -11 18 -5 4 6 13 10 21 10 8 0
16 7 18 15 4 13 3 13 -6 0 -9 -13 -13 -12 -26 8 -9 12 -21 20 -26 17 -5 -4 -9
-1 -9 5 0 7 -6 5 -15 -4 -18 -18 -20 -43 -3 -48 7 -3 9 -11 3 -24 -7 -17 -9
-17 -12 -2 -2 9 -14 18 -25 20 -12 2 -23 9 -26 17 -3 8 0 11 7 7 6 -4 11 -2
11 3 0 6 -6 11 -14 11 -21 0 -30 19 -17 34 9 10 8 15 -4 20 -11 4 -15 -1 -15
-19 0 -22 -4 -25 -37 -25 -20 0 -45 8 -56 18 -19 15 -20 16 -14 0 6 -18 10
-17 -90 -23 -49 -2 -63 0 -63 11 0 8 5 14 10 14 6 0 10 5 10 12 0 6 -9 3 -20
-7 -11 -10 -23 -15 -28 -10 -4 4 -1 10 6 12 18 7 15 40 -4 47 -9 4 -20 3 -23
0 -3 -4 0 -9 7 -11 6 -3 12 -9 12 -14 0 -6 -4 -7 -10 -4 -21 13 -73 22 -172
29 -25 2 -51 7 -57 10 -6 4 -11 2 -11 -4 0 -6 -8 -9 -17 -6 -14 4 -19 0 -20
-19 -1 -14 -3 -31 -4 -39 -2 -13 -76 -26 -184 -32 -49 -2 -51 -4 -25 -18 14
-8 29 -12 34 -9 5 3 6 0 4 -8 -3 -8 -18 -14 -34 -14 -16 1 -33 -4 -37 -10 -4
-5 -5 1 -2 15 4 15 0 33 -9 45 -13 17 -15 18 -16 3 0 -9 -4 -20 -10 -23 -6 -3
-7 1 -4 9 11 29 -42 19 -61 -10 -13 -21 -19 -24 -26 -13 -6 10 -9 11 -9 2 0
-7 -7 -13 -16 -13 -8 0 -12 5 -9 10 3 6 1 10 -4 10 -6 0 -11 -5 -11 -11 0 -5
-4 -8 -9 -5 -14 9 -41 -5 -41 -21 0 -8 4 -12 9 -9 5 3 9 -4 9 -17 0 -12 3 -49
7 -82 7 -56 6 -59 -9 -40 -14 18 -15 18 -16 3 0 -10 -7 -18 -15 -18 -14 0 -13
3 1 25 15 23 15 25 0 25 -9 0 -15 -6 -14 -12 2 -7 -8 -14 -22 -16 -14 -2 -32
-6 -40 -9 -30 -13 -50 -10 -55 9 -4 10 -11 16 -16 13 -5 -4 -9 0 -9 8 0 8 9
17 20 20 23 6 28 37 6 37 -8 0 -17 6 -19 13 -4 9 -6 9 -6 -1 -1 -7 -5 -10 -11
-7 -5 3 -10 -1 -10 -10 0 -9 -4 -13 -10 -10 -5 3 -10 -1 -10 -10 0 -10 5 -14
13 -10 6 4 5 1 -4 -7 -8 -7 -21 -22 -28 -33 -11 -19 -12 -19 -6 2 5 19 3 22
-12 16 -17 -7 -17 -6 0 11 21 22 21 21 -4 23 -13 1 -23 -5 -26 -18 -6 -21 -23
-26 -23 -7 0 6 -2 9 -5 7 -8 -8 7 -49 16 -43 5 3 9 1 9 -4 0 -5 -16 -9 -35 -9
-19 1 -35 5 -35 9 0 4 -7 5 -15 2 -17 -7 -21 11 -4 21 6 4 8 14 4 22 -4 13 -3
14 10 3 12 -10 16 -9 21 4 4 11 0 22 -12 30 -17 13 -17 14 4 25 18 9 22 9 22
-2 0 -8 7 -21 17 -28 15 -13 15 -12 5 8 -15 28 -15 35 3 59 14 18 15 17 9 -11
-6 -29 -6 -29 9 -10 14 18 14 22 -1 38 -16 18 -17 18 -26 -2 -5 -12 -15 -21
-23 -21 -7 0 -16 -6 -19 -14 -5 -12 -48 -31 -65 -28 -4 1 -4 -26 0 -47 1 -2 8
2 16 9 13 11 15 8 15 -13 0 -14 -5 -29 -10 -32 -6 -4 -8 -11 -5 -16 4 -5 2 -9
-4 -9 -5 0 -11 6 -14 13 -3 8 -10 6 -20 -8 -16 -20 -16 -20 -10 3 3 13 1 22
-6 22 -7 0 -9 -4 -6 -10 8 -13 -1 -13 -26 3 -17 10 -22 9 -33 -5 -7 -10 -16
-18 -19 -18 -12 0 -37 59 -31 74 3 9 1 16 -5 16 -6 0 -11 -5 -11 -11 0 -5 -4
-7 -10 -4 -6 4 -10 -5 -10 -19 0 -28 -9 -33 -28 -14 -8 8 -10 5 -7 -15 5 -23
2 -25 -17 -21 -48 11 -68 11 -68 1 0 -5 -7 -3 -17 4 -9 8 -24 13 -33 11 -9 -1
-27 1 -40 6 -19 7 -28 5 -40 -11 -16 -19 -47 -16 -35 3 3 4 -2 10 -10 14 -9 3
-15 0 -15 -9 0 -13 -3 -13 -21 -3 -18 11 -23 10 -32 -3 -8 -13 -16 -15 -39 -7
-15 6 -28 14 -28 19 0 5 -5 9 -11 9 -6 0 -9 -7 -5 -15 3 -9 0 -15 -10 -15 -11
0 -14 6 -10 16 3 9 6 25 6 36 0 17 2 18 15 4 14 -13 45 -13 45 1 0 3 -7 3 -15
-1 -11 -4 -15 1 -15 18 0 37 -10 55 -27 49 -12 -5 -12 -7 -1 -14 9 -6 8 -9 -7
-9 -15 0 -25 -11 -34 -36 -7 -19 -15 -33 -18 -30 -8 8 17 74 30 80 8 3 6 5 -3
5 -15 1 -46 -37 -42 -51 1 -5 -2 -8 -8 -8 -5 0 -10 7 -10 16 0 9 -6 14 -13 11
-8 -3 -14 3 -14 14 -2 16 1 17 19 8 18 -10 20 -9 15 4 -4 12 -2 14 11 10 16
-6 16 -5 0 14 -10 11 -18 27 -18 36 0 20 -16 23 -23 5 -4 -10 -6 -10 -6 -1 -1
7 -8 10 -16 7 -13 -5 -13 -9 -3 -22 10 -12 10 -14 1 -8 -8 4 -13 1 -13 -8 0
-9 5 -16 10 -16 14 0 9 -58 -6 -64 -7 -3 -9 4 -7 19 4 18 -1 24 -23 29 -15 4
-24 10 -18 14 5 4 15 18 22 30 12 22 12 23 -7 17 -22 -7 -25 2 -22 51 1 12 -6
29 -15 39 -17 16 -18 16 -26 -5 -5 -14 -14 -20 -22 -17 -10 4 -18 -5 -26 -29
-6 -18 -16 -34 -21 -34 -12 0 -11 14 2 27 9 9 8 15 -2 26 -12 12 -17 12 -27 0
-7 -7 -10 -18 -7 -23 3 -5 1 -20 -6 -32 -12 -22 -12 -22 -20 -3 -8 19 -8 19
-15 -2 -6 -21 -11 -22 -66 -18 -79 6 -98 12 -91 32 5 13 3 14 -15 4 -22 -12
-32 1 -12 14 6 4 8 11 5 16 -4 5 -1 9 4 9 6 0 11 5 11 10 0 6 -11 3 -25 -6
-14 -9 -22 -20 -19 -25 3 -5 0 -9 -5 -9 -6 0 -11 -7 -11 -15 0 -8 -4 -15 -10
-15 -5 0 -7 7 -4 15 4 9 0 15 -10 15 -9 0 -16 7 -16 16 0 9 5 12 13 8 9 -5 9
-4 0 6 -13 15 -33 5 -33 -16 0 -8 -4 -12 -10 -9 -13 8 -13 -8 1 -22 8 -8 3
-10 -18 -9 -15 1 -33 5 -40 9 -6 4 -14 1 -16 -5 -3 -7 -3 2 0 20 7 41 -12 43
-21 1 -5 -27 -8 -30 -22 -18 -13 10 -17 10 -25 -2 -7 -11 -9 -10 -9 6 0 15 -2
17 -9 6 -6 -10 -13 -11 -27 -3 -14 8 -23 7 -37 -6 -17 -15 -20 -15 -37 8 l-19
25 -10 -25 -10 -25 -1 25 c0 20 -2 22 -10 10 -6 -10 -10 -11 -10 -2 0 6 -4 12
-10 12 -5 0 -10 -8 -10 -19 0 -16 -7 -18 -51 -16 -31 2 -58 10 -70 21 -18 16
-19 16 -19 -2 0 -17 -1 -17 -17 -1 -16 16 -18 16 -31 -5 l-13 -23 6 25 6 25
-22 -25 c-24 -28 -23 -28 -46 -4 -16 15 -17 15 -24 -2 -7 -17 -8 -17 -8 -1 -1
21 0 20 -42 3 -38 -15 -59 -12 -59 10 0 8 -4 14 -10 14 -5 0 -10 -7 -10 -15 0
-8 -5 -15 -11 -15 -6 0 -9 10 -7 23 2 16 10 22 27 22 14 0 26 7 29 15 3 13 2
13 -7 0 -8 -12 -11 -12 -17 4 -6 16 -10 14 -35 -15 -23 -28 -30 -31 -43 -20
-9 7 -14 17 -11 21 3 5 1 11 -4 15 -16 9 -32 -30 -19 -43 9 -9 7 -12 -10 -12
-19 0 -22 5 -22 45 0 51 -11 58 -27 18 l-11 -28 -1 33 c-1 20 -5 31 -11 27 -6
-4 -18 -1 -26 6 -12 10 -12 14 -2 20 10 7 9 9 -4 9 -11 0 -15 5 -12 14 3 8 -3
19 -15 25 -24 13 -41 14 -41 3z"/>
</g>
</svg>
