<?xml version="1.0" standalone="no"?>
<!DOCTYPE svg PUBLIC "-//W3C//DTD SVG 20010904//EN"
 "http://www.w3.org/TR/2001/REC-SVG-20010904/DTD/svg10.dtd">
<svg version="1.0" xmlns="http://www.w3.org/2000/svg"
 width="486.000000pt" height="441.000000pt" viewBox="0 0 486.000000 441.000000"
 preserveAspectRatio="xMidYMid meet">
<metadata>
Created by potrace 1.16, written by Peter Selinger 2001-2019
</metadata>
<g transform="translate(0.000000,441.000000) scale(0.100000,-0.100000)"
fill="#000000" stroke="none">
<path d="M2513 3853 c-13 -2 -23 -11 -23 -18 0 -24 21 -28 41 -6 20 21 24 32
12 30 -5 -1 -18 -4 -30 -6z"/>
<path d="M2490 3790 c-8 -5 -10 -10 -5 -10 6 0 17 5 25 10 8 5 11 10 5 10 -5
0 -17 -5 -25 -10z"/>
<path d="M2525 3778 c-16 -6 -86 -34 -155 -63 -148 -63 -172 -70 -268 -85 -40
-7 -78 -18 -85 -25 -24 -23 -78 -46 -96 -40 -10 3 -29 -3 -42 -13 -26 -19 -53
-33 -113 -57 -48 -19 -55 -19 -30 0 18 13 17 14 -11 6 -17 -5 -50 -18 -73 -29
-24 -11 -56 -24 -72 -27 -50 -11 -35 -28 18 -20 43 6 45 5 27 -8 -11 -8 -36
-18 -55 -22 -19 -4 -39 -11 -45 -15 -5 -4 -46 -21 -90 -36 -44 -16 -73 -30
-64 -32 18 -3 145 40 319 107 113 44 128 48 112 28 -6 -7 -32 -18 -59 -26 -73
-20 -111 -39 -118 -60 -3 -10 -18 -23 -33 -29 -48 -18 -56 -22 -107 -52 -69
-40 -82 -45 -147 -64 -61 -18 -72 -30 -36 -42 l21 -6 -23 -18 c-14 -11 -18
-19 -11 -21 7 -3 -19 -20 -58 -39 -71 -34 -79 -43 -62 -69 7 -11 17 -11 59 3
28 10 66 16 84 14 33 -4 33 -4 8 -14 -14 -6 -63 -23 -110 -39 -47 -15 -99 -36
-116 -46 -17 -11 -39 -19 -48 -19 -9 0 -16 -4 -16 -9 0 -11 -5 -14 -145 -84
-91 -46 -95 -49 -95 -81 0 -20 8 -40 20 -51 25 -22 26 -44 3 -51 -31 -10 -77
-33 -95 -47 -13 -10 -15 -21 -9 -42 6 -23 9 -26 14 -12 9 23 52 41 122 52 37
6 33 3 -40 -37 -79 -42 -100 -67 -76 -91 7 -7 16 -6 28 5 24 20 175 80 171 68
-2 -6 -32 -27 -68 -48 -94 -54 -93 -80 1 -35 39 18 75 33 80 31 5 -2 -11 -19
-36 -38 -45 -36 -65 -73 -25 -48 10 7 23 9 27 4 10 -10 -27 -37 -39 -30 -10 6
-58 -34 -58 -48 0 -15 26 -8 50 12 23 20 40 26 40 14 0 -13 -36 -35 -154 -95
-127 -65 -196 -107 -196 -120 0 -11 66 9 125 38 27 13 73 27 100 30 28 4 71
17 96 30 51 25 74 29 84 13 3 -6 1 -10 -5 -10 -21 0 -100 -42 -100 -54 0 -16
-59 -66 -96 -82 -55 -23 -141 -138 -111 -150 24 -9 292 120 282 136 -2 4 11 7
29 8 19 1 40 3 47 4 9 2 13 -4 11 -14 -4 -22 -1 -22 60 -1 42 15 50 16 58 4 7
-12 11 -13 24 -1 9 7 19 10 23 6 9 -9 -12 -28 -34 -31 -10 -1 -36 -10 -58 -20
-22 -10 -47 -18 -55 -17 -10 1 -11 0 -2 -4 6 -3 9 -10 6 -16 -3 -5 4 -12 16
-15 13 -4 19 -11 16 -20 -3 -8 -6 -18 -6 -23 0 -4 -12 -12 -27 -18 -16 -6 -37
-14 -48 -18 -11 -4 -26 -6 -33 -5 -6 1 -12 -3 -12 -8 0 -5 -10 -11 -22 -13
-12 -2 -23 -9 -26 -15 -4 -15 97 -9 140 8 28 11 67 5 54 -9 -4 -4 -28 -14 -54
-22 -42 -13 -47 -18 -50 -47 -3 -31 -6 -33 -42 -33 -24 0 -42 6 -47 15 -7 12
-15 12 -53 1 -33 -10 -51 -10 -68 -3 -19 9 -32 7 -68 -12 -48 -26 -52 -32 -30
-50 18 -15 195 -28 204 -15 7 9 151 35 217 39 17 1 56 8 87 15 45 10 60 10 72
1 11 -9 24 -10 50 -2 20 5 38 6 41 1 8 -13 -12 -22 -58 -25 -58 -4 -57 -4 -57
-14 0 -5 26 -7 58 -4 31 2 86 5 122 6 36 1 71 6 78 11 8 5 18 4 24 -2 6 -6 25
-9 42 -6 l31 5 -29 -17 c-17 -9 -61 -18 -105 -21 -42 -3 -80 -9 -86 -13 -5 -4
-49 -6 -97 -5 -81 3 -88 2 -88 -16 0 -14 -7 -19 -25 -19 -25 0 -64 -17 -76
-34 -4 -5 -21 -6 -38 -3 -16 4 -33 2 -36 -3 -3 -6 -17 -10 -31 -10 -13 0 -24
-4 -24 -9 0 -12 122 -39 135 -31 17 12 65 21 65 13 0 -11 -50 -33 -76 -33 -12
0 -37 -7 -55 -15 -41 -17 -41 -17 141 -21 74 -1 144 1 155 6 33 14 152 40 182
40 24 0 25 -2 13 -14 -20 -19 -117 -50 -222 -71 -84 -17 -114 -34 -65 -36 20
-1 19 -2 -8 -14 -16 -8 -44 -14 -62 -15 -17 0 -35 -5 -38 -10 -4 -7 24 -9 82
-6 l88 4 -40 -19 c-22 -10 -57 -22 -78 -25 -20 -4 -40 -11 -43 -15 -3 -5 -14
-9 -25 -9 -11 0 -39 -9 -61 -20 -23 -11 -48 -20 -55 -20 -7 0 -13 -4 -13 -10
0 -6 23 -8 58 -4 113 11 179 12 192 4 9 -6 7 -10 -9 -15 -11 -3 -21 -10 -21
-15 0 -5 -18 -14 -40 -20 -22 -6 -40 -15 -40 -19 0 -5 -11 -12 -24 -15 -19 -5
-44 -34 -34 -41 2 -1 53 4 113 11 61 6 162 17 225 23 63 7 122 13 130 14 10 1
16 -8 18 -28 3 -29 22 -61 22 -38 0 6 9 9 20 6 11 -3 20 -10 20 -15 0 -5 -5
-6 -12 -2 -14 9 -3 -85 12 -100 7 -7 8 1 4 23 -5 25 -4 32 4 27 7 -4 12 -17
13 -29 1 -20 2 -20 9 3 7 24 7 24 18 -10 8 -29 10 -31 11 -11 1 24 1 24 16 5
14 -18 15 -17 9 11 -5 29 -5 29 10 11 12 -15 16 -16 16 -5 1 8 7 1 15 -16 l15
-30 -4 30 c-3 25 -2 27 8 14 9 -13 14 -14 23 -4 7 7 63 14 154 19 78 3 147 10
153 15 30 23 100 10 78 -15 -4 -4 1 -4 10 -1 11 4 23 -1 32 -15 13 -18 18 -19
31 -8 8 7 15 18 15 24 0 6 16 24 35 39 19 15 35 34 35 41 0 8 11 16 25 18 14
3 25 1 25 -3 0 -5 5 -9 11 -9 6 0 9 7 5 15 -4 10 1 15 14 15 11 0 20 5 20 11
0 5 -4 7 -10 4 -5 -3 -10 -2 -10 4 0 13 26 20 83 22 26 1 47 7 47 12 0 5 9 7
21 4 11 -3 22 0 25 7 5 13 91 15 111 3 15 -10 43 2 43 18 0 9 21 15 63 20 34
3 87 11 117 17 30 5 61 10 68 11 9 0 8 5 -3 17 -8 9 -15 25 -15 36 0 16 2 16
10 4 7 -12 11 -10 18 9 6 18 22 28 58 37 27 7 56 13 64 13 13 1 13 0 0 -9 -22
-14 11 -12 90 5 36 8 79 14 95 14 l30 0 -30 -14 c-16 -7 -28 -14 -25 -15 3 -1
12 -3 20 -5 8 -1 22 -4 30 -6 9 -3 14 2 12 12 -1 11 12 19 45 27 82 19 154 31
253 42 52 6 99 15 104 20 6 6 36 10 67 10 35 0 63 5 71 13 7 8 23 19 36 26 12
6 22 21 22 31 0 17 7 20 39 20 22 0 52 5 67 10 33 13 44 5 18 -15 -27 -20 -2
-19 35 3 42 23 42 62 1 94 -17 13 -43 33 -58 45 l-27 22 119 1 c88 0 124 -4
135 -14 22 -19 77 -30 86 -17 3 7 -3 11 -16 11 -17 0 -19 3 -10 13 8 11 5 17
-16 26 l-26 12 21 15 c12 8 22 24 22 34 0 10 6 20 13 23 6 2 8 8 4 13 -4 4
-17 3 -27 -4 -11 -7 -32 -12 -47 -12 -16 0 -62 -13 -103 -29 -121 -46 -172
-57 -209 -41 -56 23 -36 39 26 21 38 -11 70 7 60 33 -5 12 0 16 20 16 20 0 73
24 102 47 8 5 -31 43 -40 38 -4 -3 -10 -1 -13 4 -3 5 -21 12 -40 15 -19 4 -36
12 -39 19 -4 14 -119 -20 -201 -59 -53 -26 -76 -30 -76 -14 0 6 6 10 13 10 6
0 29 16 50 35 21 19 46 35 57 35 10 0 28 11 41 25 13 13 32 25 41 25 10 0 25
11 34 25 9 14 31 32 48 39 33 14 146 112 146 127 0 5 -9 9 -20 9 -11 0 -20 5
-20 10 0 6 9 10 19 10 11 0 32 5 46 10 21 8 25 13 16 24 -9 11 -6 15 16 19 16
3 32 1 37 -4 19 -18 65 -8 121 26 32 19 62 36 68 38 6 2 8 11 4 21 -6 14 -14
17 -38 12 -16 -3 -38 0 -49 6 -15 10 -27 7 -68 -14 -27 -14 -69 -29 -93 -33
-24 -4 -54 -13 -66 -21 -23 -14 -85 -19 -96 -7 -10 9 13 33 32 33 18 1 109 45
154 74 19 13 27 26 25 40 -3 19 -10 21 -63 22 -36 0 -77 -6 -102 -17 -38 -16
-46 -16 -72 -3 -25 12 -30 22 -36 65 -4 28 -4 53 -1 56 3 3 1 12 -5 19 -17 20
47 30 67 10 19 -20 49 -13 123 25 30 16 62 29 73 29 23 0 36 29 17 41 -8 5
-31 7 -51 3 -26 -4 -38 -2 -38 6 0 15 -51 4 -100 -20 -19 -10 -60 -19 -90 -21
-50 -4 -55 -2 -69 23 -14 25 -14 28 9 47 14 11 33 20 42 21 10 0 33 14 51 30
19 17 40 30 47 30 33 0 170 101 170 124 0 20 -81 17 -115 -4 -34 -21 -55 -25
-55 -11 0 4 36 27 80 49 44 23 76 43 72 45 -4 3 -30 10 -59 18 -61 15 -58 29
12 49 25 7 50 19 56 26 6 8 18 14 25 14 7 0 32 9 54 21 46 24 54 55 17 64 -32
9 -139 -2 -170 -16 -20 -9 -35 -8 -77 6 -42 14 -56 15 -80 5 -16 -7 -38 -9
-47 -5 -24 10 -140 7 -178 -5 -16 -4 -52 -11 -80 -15 l-49 -7 52 47 c29 26 52
51 52 55 0 18 -59 21 -89 6 -38 -20 -47 -20 -30 0 7 8 37 28 67 43 l55 28 -46
19 c-53 21 -60 41 -19 49 34 8 112 47 112 57 0 5 7 8 15 8 7 0 37 5 65 11 l52
11 -29 16 c-20 11 -61 17 -142 19 -81 2 -121 7 -137 18 -13 8 -38 15 -57 15
-20 0 -42 8 -56 21 -19 18 -37 22 -101 24 -65 1 -79 -1 -83 -15 -3 -13 -13
-15 -42 -12 -32 4 -37 2 -32 -12 6 -14 -1 -16 -48 -13 -30 2 -58 6 -61 10 -10
10 -56 9 -50 -2 6 -9 -74 -44 -83 -36 -2 3 4 12 15 21 19 15 19 15 -1 11 -11
-3 -27 -8 -35 -11 -10 -4 -21 3 -33 23 -9 16 -39 39 -66 52 -29 14 -47 29 -44
36 15 38 -75 -11 -129 -71 -31 -33 -38 -37 -44 -23 -3 9 -12 17 -20 17 -8 0
-14 5 -14 10 0 6 -9 10 -21 10 -15 0 -19 -5 -15 -15 4 -11 -3 -19 -20 -25 -34
-13 -34 -13 -34 15 0 15 -7 28 -16 32 -15 6 -29 2 -86 -22 -12 -5 -18 -3 -18
7 0 8 28 26 65 41 75 31 79 32 69 15 -4 -8 -3 -10 2 -5 5 5 9 13 9 18 0 5 14
19 30 30 l30 20 -32 -5 c-18 -3 -48 -9 -65 -13 -18 -4 -36 -6 -40 -5 -5 1 -8
-2 -8 -8 0 -5 -7 -10 -15 -10 -8 0 -15 -5 -15 -11 0 -5 -4 -7 -10 -4 -5 3 -10
10 -10 14 0 8 113 54 134 56 15 0 18 22 4 27 -7 3 -26 1 -43 -4z m-125 -93 c0
-10 -64 -34 -74 -28 -5 3 4 12 20 19 31 13 54 17 54 9z m10 -89 c0 -3 -4 -8
-10 -11 -5 -3 -10 -1 -10 4 0 6 5 11 10 11 6 0 10 -2 10 -4z m88 -28 c-3 -7
-18 -14 -34 -16 -28 -2 -28 -2 -10 13 24 18 49 20 44 3z m1592 -376 c0 -13
-12 -22 -22 -16 -10 6 -1 24 13 24 5 0 9 -4 9 -8z m-16 -973 c-22 -25 -54 -43
-61 -35 -8 7 49 55 66 56 10 0 9 -5 -5 -21z m-2864 -313 c0 -3 -4 -8 -10 -11
-5 -3 -10 -1 -10 4 0 6 5 11 10 11 6 0 10 -2 10 -4z m70 -6 c0 -5 -4 -10 -10
-10 -5 0 -10 5 -10 10 0 6 5 10 10 10 6 0 10 -4 10 -10z m-148 -22 c-6 -6 -16
-7 -22 -3 -9 6 -9 9 1 16 17 10 34 0 21 -13z m448 -68 c0 -5 -4 -10 -9 -10 -5
0 -23 -3 -40 -6 -33 -7 -45 11 -13 19 32 9 62 7 62 -3z m-195 -40 c-3 -5 -11
-10 -16 -10 -6 0 -7 5 -4 10 3 6 11 10 16 10 6 0 7 -4 4 -10z m-160 -120 c3
-5 -1 -10 -9 -10 -9 0 -16 5 -16 10 0 6 4 10 9 10 6 0 13 -4 16 -10z m-60 -30
c3 -5 -3 -10 -14 -10 -12 0 -21 5 -21 10 0 6 6 10 14 10 8 0 18 -4 21 -10z
m2133 -172 c-3 -7 -37 -19 -77 -26 -59 -11 -76 -11 -88 0 -13 11 -8 14 33 24
70 16 137 17 132 2z m-1968 -18 c0 -5 -12 -10 -27 -9 l-28 1 25 8 c14 4 26 8
28 9 1 1 2 -3 2 -9z m1605 -89 c3 -5 1 -12 -5 -16 -5 -3 -10 1 -10 9 0 18 6
21 15 7z m-105 -15 c0 -2 -7 -7 -16 -10 -8 -3 -12 -2 -9 4 6 10 25 14 25 6z
m-1560 -50 c0 -3 -4 -8 -10 -11 -5 -3 -10 -1 -10 4 0 6 5 11 10 11 6 0 10 -2
10 -4z m1403 -23 c-7 -2 -19 -2 -25 0 -7 3 -2 5 12 5 14 0 19 -2 13 -5z"/>
<path d="M2610 3779 c0 -5 5 -7 10 -4 6 3 10 8 10 11 0 2 -4 4 -10 4 -5 0 -10
-5 -10 -11z"/>
<path d="M2665 3749 c-8 -23 2 -40 13 -22 4 6 20 15 36 19 20 5 24 9 14 15
-24 16 -56 10 -63 -12z"/>
<path d="M2585 3664 c-26 -13 -27 -14 -5 -10 14 3 31 6 38 6 6 0 12 5 12 10 0
13 -8 12 -45 -6z"/>
<path d="M1366 3385 c-16 -12 -17 -15 -4 -15 24 0 48 11 48 21 0 13 -23 10
-44 -6z"/>
<path d="M4476 1743 c-4 -5 -33 -10 -64 -13 l-57 -5 67 -10 c37 -6 64 -7 62
-3 -3 4 0 8 5 8 6 0 11 7 11 15 0 16 -12 20 -24 8z"/>
<path d="M1170 1719 c0 -5 9 -9 19 -9 11 0 22 4 25 9 3 5 -6 9 -19 9 -14 0
-25 -4 -25 -9z"/>
<path d="M3020 1298 c0 -4 9 -8 20 -8 11 0 20 4 20 9 0 6 -9 9 -20 8 -11 -1
-20 -5 -20 -9z"/>
<path d="M2858 1243 c7 -3 16 -2 19 1 4 3 -2 6 -13 5 -11 0 -14 -3 -6 -6z"/>
<path d="M1521 1114 c-1 -22 6 -49 14 -60 14 -18 14 -16 8 16 -3 19 -10 46
-14 60 -6 21 -7 19 -8 -16z"/>
<path d="M1563 1040 c-1 -11 2 -22 8 -25 5 -4 9 3 9 14 0 26 -15 35 -17 11z"/>
<path d="M1958 988 c-2 -14 -10 -23 -20 -23 -27 0 -48 -27 -42 -52 5 -17 13
-22 31 -21 32 3 47 22 41 52 -4 18 0 26 15 30 22 5 18 29 -6 34 -10 2 -17 -5
-19 -20z"/>
<path d="M1775 909 c-4 -6 -5 -13 -2 -16 7 -7 27 6 27 18 0 12 -17 12 -25 -2z"/>
<path d="M1393 879 c-24 -12 -43 -25 -43 -30 0 -5 1 -9 3 -9 7 0 118 48 124
54 15 15 -46 4 -84 -15z"/>
<path d="M1575 790 c-3 -5 1 -10 9 -10 9 0 16 5 16 10 0 6 -4 10 -9 10 -6 0
-13 -4 -16 -10z"/>
<path d="M1810 775 c-13 -15 -7 -45 8 -45 16 0 34 29 28 45 -7 19 -20 19 -36
0z"/>
<path d="M2187 762 c-21 -23 -25 -61 -4 -40 7 7 18 21 24 31 9 18 11 18 27 1
17 -17 18 -17 14 2 -4 26 -40 29 -61 6z"/>
<path d="M2077 734 c-11 -12 -8 -39 7 -59 14 -19 15 -19 35 -1 24 22 28 56 7
56 -8 0 -21 2 -28 5 -8 3 -17 2 -21 -1z"/>
<path d="M1272 658 c-15 -15 -16 -45 -1 -53 16 -11 56 3 63 21 13 34 -35 59
-62 32z"/>
<path d="M1560 640 c-16 -16 -19 -25 -11 -33 14 -14 63 11 59 32 -5 23 -25 24
-48 1z"/>
<path d="M1785 577 c-11 -9 -16 -20 -12 -31 8 -20 31 -21 47 0 11 12 11 18 -1
30 -13 12 -18 12 -34 1z"/>
<path d="M1280 430 c0 -13 7 -20 20 -20 13 0 20 7 20 20 0 13 -7 20 -20 20
-13 0 -20 -7 -20 -20z"/>
</g>
</svg>
