<?xml version="1.0" standalone="no"?>
<!DOCTYPE svg PUBLIC "-//W3C//DTD SVG 20010904//EN"
 "http://www.w3.org/TR/2001/REC-SVG-20010904/DTD/svg10.dtd">
<svg version="1.0" xmlns="http://www.w3.org/2000/svg"
 width="1014.000000pt" height="700.000000pt" viewBox="0 0 1014.000000 700.000000"
 preserveAspectRatio="xMidYMid meet">
<metadata>
Created by potrace 1.16, written by Peter Selinger 2001-2019
</metadata>
<g transform="translate(0.000000,700.000000) scale(0.100000,-0.100000)"
fill="#000000" stroke="none">
<path d="M1830 3722 c-184 -2 -199 -5 -200 -39 0 -6 10 -13 23 -15 22 -3 22
-6 25 -156 l3 -154 -26 -20 c-14 -11 -25 -26 -25 -34 0 -12 28 -14 163 -14 89
0 179 -3 200 -6 l38 -7 -3 79 c-4 102 -20 108 -75 29 l-38 -55 -60 2 -60 3 -3
73 -3 72 34 0 c28 0 36 -5 50 -35 15 -31 20 -34 37 -25 17 9 20 21 20 90 0 73
-2 80 -19 80 -11 0 -28 -13 -38 -30 -14 -24 -24 -30 -50 -30 l-33 0 0 70 0 70
64 0 c64 0 65 0 95 -42 17 -22 32 -46 34 -52 3 -8 10 -8 23 0 15 9 20 25 22
74 2 35 -1 66 -5 69 -4 3 -91 5 -193 3z"/>
<path d="M2193 3714 c-50 -25 -103 -89 -103 -123 0 -35 38 -76 107 -116 82
-47 113 -74 113 -99 0 -62 -81 -59 -132 4 -23 30 -39 40 -60 40 -28 0 -28 -1
-28 -59 0 -33 4 -62 9 -66 6 -3 46 -10 91 -16 77 -9 85 -8 134 14 54 25 106
79 106 111 0 30 -31 73 -69 96 -20 12 -57 35 -83 51 -61 37 -84 70 -68 98 22
42 83 21 126 -44 11 -17 26 -25 45 -25 29 0 29 0 29 64 l0 64 -63 11 c-85 15
-116 14 -154 -5z"/>
<path d="M2470 3648 c0 -43 2 -78 4 -78 2 0 11 -2 19 -5 9 -4 27 13 52 50 28
40 45 55 62 55 l23 0 0 -155 c0 -154 0 -155 -25 -171 -14 -9 -25 -26 -25 -38
0 -20 3 -21 102 -18 94 3 117 10 118 33 0 4 -13 9 -30 13 l-30 6 0 165 0 165
24 0 c17 0 33 -14 60 -56 26 -38 42 -54 52 -50 9 3 18 6 20 6 2 0 4 34 4 75
l0 74 -215 3 -215 3 0 -77z"/>
<path d="M5130 3722 c-160 -2 -187 -5 -197 -19 -19 -25 -16 -30 17 -36 l30 -6
0 -150 c0 -148 0 -150 -25 -169 -14 -11 -25 -27 -25 -36 0 -14 20 -16 164 -16
90 0 178 -3 195 -6 l31 -6 0 81 c0 71 -2 81 -17 81 -10 0 -35 -24 -56 -55
l-38 -55 -60 0 -59 0 0 75 0 75 30 0 c24 0 33 -7 48 -35 16 -32 20 -34 36 -22
15 11 18 27 18 88 0 86 -16 100 -53 50 -16 -22 -31 -31 -51 -31 l-28 0 0 70 0
70 64 0 64 0 32 -50 c18 -27 35 -50 39 -50 25 1 32 21 29 86 l-3 69 -185 -3z"/>
<path d="M6096 3723 c-171 -3 -206 -9 -206 -35 0 -5 14 -14 30 -19 l30 -11 0
-149 c0 -147 0 -149 -25 -165 -14 -9 -25 -26 -25 -38 0 -21 3 -21 195 -21
l196 0 -3 75 c-4 96 -20 102 -72 25 l-38 -55 -59 0 -59 0 0 75 0 75 28 0 c23
0 32 -7 45 -35 15 -31 20 -34 37 -25 17 9 20 21 20 90 0 70 -2 80 -18 80 -10
0 -26 -13 -35 -30 -14 -23 -25 -30 -48 -30 l-29 0 0 70 0 70 63 0 62 0 28 -45
c33 -52 40 -57 61 -49 13 5 16 22 16 80 0 41 -3 73 -7 72 -5 -1 -89 -4 -187
-5z"/>
<path d="M7000 3721 c-165 -54 -244 -201 -177 -331 77 -152 288 -151 411 3 29
36 31 44 31 121 0 73 -3 87 -28 124 -15 23 -45 51 -68 63 -46 23 -130 33 -169
20z m86 -80 c87 -53 88 -243 1 -287 -56 -30 -129 7 -156 79 -14 37 -14 116 0
156 13 37 61 71 99 71 14 0 39 -9 56 -19z"/>
<path d="M7970 3722 c-160 -2 -187 -5 -197 -19 -19 -25 -16 -30 17 -36 l30 -6
0 -150 c0 -148 0 -150 -25 -169 -14 -11 -25 -28 -25 -38 0 -18 12 -19 200 -19
l201 0 -3 75 c-3 66 -5 75 -23 77 -14 2 -31 -13 -58 -52 l-38 -55 -59 0 -60 0
0 75 0 75 30 0 c23 0 33 -7 46 -32 22 -44 21 -44 44 -23 16 15 20 31 20 87 0
84 -18 99 -59 50 -18 -22 -35 -32 -53 -32 -28 0 -28 0 -28 70 l0 70 64 0 64 0
32 -50 c18 -27 35 -50 39 -50 25 1 32 21 29 86 l-3 69 -185 -3z"/>
<path d="M1190 3701 c-9 -17 -8 -22 5 -26 8 -3 22 -7 30 -10 12 -4 15 -30 15
-156 0 -149 0 -151 -25 -171 -42 -33 -32 -44 43 -51 154 -15 226 -4 291 44 60
44 59 138 -1 170 -12 6 -25 13 -27 15 -3 3 8 17 23 33 41 42 40 92 -2 134
l-32 32 -154 3 c-148 3 -155 3 -166 -17z m249 -57 c29 -37 28 -89 -3 -109 -14
-9 -37 -15 -53 -13 -27 3 -28 6 -31 62 -2 32 -1 65 2 72 9 24 63 17 85 -12z
m16 -189 c29 -28 33 -76 9 -100 -12 -11 -30 -15 -63 -13 l-46 3 -3 68 -3 67
41 0 c30 0 47 -6 65 -25z"/>
<path d="M3080 3699 c-13 -24 -13 -25 19 -37 19 -7 37 -43 96 -190 40 -100 75
-185 78 -188 3 -4 29 -1 57 6 l50 12 27 89 c15 49 28 87 30 86 1 -2 17 -43 34
-93 17 -49 35 -93 39 -98 13 -14 107 13 113 32 3 9 28 82 57 162 41 115 59
152 86 179 19 18 33 38 31 45 -5 17 -178 21 -189 4 -15 -24 -8 -35 31 -53 l40
-17 -44 -125 c-24 -69 -46 -127 -48 -129 -2 -3 -25 56 -50 131 l-46 135 30 17
c16 10 29 25 29 35 0 16 -11 18 -104 18 -85 0 -105 -3 -110 -16 -10 -25 -7
-30 17 -41 16 -8 28 -26 37 -58 12 -42 11 -54 -10 -123 -13 -42 -27 -83 -30
-90 -4 -8 -29 44 -59 124 l-53 138 23 17 c14 10 20 22 16 33 -5 13 -22 16 -96
16 -81 0 -91 -2 -101 -21z"/>
<path d="M3820 3700 c-10 -18 -7 -22 19 -31 l31 -11 0 -148 c0 -147 0 -149
-25 -168 -14 -11 -25 -28 -25 -38 0 -18 9 -19 117 -16 107 3 143 11 143 32 0
5 -22 11 -50 15 l-50 7 0 158 c0 135 2 159 16 164 58 22 104 -16 104 -86 0
-50 -21 -78 -58 -78 -21 0 -47 -32 -35 -44 13 -13 79 -5 120 15 112 54 127
170 30 229 -28 17 -51 20 -179 20 -138 0 -148 -1 -158 -20z"/>
<path d="M4416 3704 c-10 -26 -7 -32 19 -38 l25 -6 0 -154 c0 -153 0 -154 -25
-170 -45 -30 -31 -43 52 -50 124 -10 175 -7 221 14 67 30 102 59 133 108 50
79 35 197 -33 258 -52 48 -78 54 -236 54 -127 0 -151 -2 -156 -16z m285 -70
c34 -32 49 -78 49 -149 0 -97 -65 -168 -137 -149 l-34 9 0 153 c0 83 3 157 7
163 12 20 84 3 115 -27z"/>
<path d="M5363 3701 c-11 -17 -8 -22 20 -39 28 -17 42 -43 106 -202 l74 -182
35 7 c73 14 73 14 146 189 53 128 75 171 97 187 16 11 29 29 29 40 0 17 -8 19
-90 19 -78 0 -91 -2 -100 -19 -14 -27 -15 -26 30 -46 23 -10 39 -23 37 -29
-45 -113 -102 -246 -106 -246 -5 0 -67 148 -106 252 -5 12 2 21 24 33 19 9 31
23 31 35 0 19 -7 20 -108 20 -95 0 -109 -2 -119 -19z"/>
<path d="M6350 3700 c-9 -16 -8 -21 5 -25 8 -3 22 -7 30 -10 12 -4 15 -30 15
-155 l0 -151 -27 -23 c-17 -15 -24 -29 -20 -39 6 -15 29 -17 202 -17 l196 0
-3 82 c-4 107 -18 112 -77 28 l-42 -60 -60 0 -59 0 0 153 c0 151 0 154 25 177
14 13 25 32 25 42 0 16 -10 18 -100 18 -89 0 -100 -2 -110 -20z"/>
<path d="M7330 3701 c-14 -27 -14 -28 20 -34 l30 -6 0 -150 c0 -148 0 -150
-25 -169 -14 -11 -25 -27 -25 -35 0 -13 20 -16 119 -19 105 -3 121 -1 130 14
16 25 16 25 -39 33 l-50 7 0 158 c0 135 2 159 16 164 58 22 104 -16 104 -86 0
-51 -21 -78 -62 -78 -24 0 -45 -30 -30 -44 13 -14 81 -4 122 18 111 58 121
179 20 231 -22 11 -66 15 -174 15 -133 0 -146 -2 -156 -19z"/>
<path d="M8227 3713 c-14 -14 -6 -34 18 -43 l25 -10 0 -148 c0 -145 -1 -149
-25 -172 -47 -44 -36 -51 82 -48 87 2 108 6 111 18 1 9 -9 20 -28 27 l-30 11
0 155 c0 167 0 167 56 167 37 0 64 -34 64 -79 0 -45 -20 -71 -56 -71 -27 0
-44 -28 -24 -40 7 -4 33 -48 59 -96 l47 -89 69 0 c58 0 70 3 73 17 2 12 -6 21
-22 28 -17 6 -36 30 -56 71 -18 35 -40 63 -51 66 -22 6 -26 23 -5 23 8 0 31
15 50 34 29 27 36 41 36 72 0 22 -7 50 -16 62 -31 44 -63 52 -222 52 -82 0
-152 -3 -155 -7z"/>
</g>
</svg>
