<?xml version="1.0" standalone="no"?>
<!DOCTYPE svg PUBLIC "-//W3C//DTD SVG 20010904//EN"
 "http://www.w3.org/TR/2001/REC-SVG-20010904/DTD/svg10.dtd">
<svg version="1.0" xmlns="http://www.w3.org/2000/svg"
 width="1024.000000pt" height="782.000000pt" viewBox="0 0 1024.000000 782.000000"
 preserveAspectRatio="xMidYMid meet">
<metadata>
Created by potrace 1.16, written by Peter Selinger 2001-2019
</metadata>
<g transform="translate(0.000000,782.000000) scale(0.100000,-0.100000)"
fill="#000000" stroke="none">
<path d="M7519 7426 c-3 -3 -107 -9 -230 -12 -123 -3 -273 -9 -334 -14 -64 -5
-116 -5 -126 1 -11 5 -19 5 -21 0 -2 -5 -48 -12 -103 -15 -55 -3 -127 -10
-160 -16 -33 -6 -89 -13 -125 -16 -36 -2 -117 -13 -180 -24 -114 -19 -197 -32
-318 -50 -35 -5 -68 -13 -75 -17 -7 -4 -48 -8 -92 -9 -90 -1 -195 -18 -234
-38 -14 -7 -43 -12 -63 -10 -21 2 -38 0 -38 -5 0 -4 -21 -7 -47 -7 -27 0 -66
-3 -88 -7 -22 -4 -58 -10 -80 -13 -22 -4 -44 -10 -50 -14 -5 -4 -48 -8 -94 -8
-55 -1 -95 -7 -118 -17 -19 -9 -59 -18 -89 -20 -29 -2 -71 -8 -91 -15 -68 -20
-107 -28 -183 -40 -41 -7 -118 -21 -170 -32 -52 -10 -122 -23 -155 -28 -34 -5
-90 -16 -125 -24 -36 -8 -83 -16 -105 -17 -22 -2 -44 -6 -50 -9 -13 -8 -104
-27 -175 -36 -30 -3 -63 -10 -72 -15 -10 -6 -35 -12 -55 -15 -116 -15 -262
-42 -312 -56 -18 -6 -50 -8 -70 -4 -21 3 -47 0 -61 -7 -38 -20 -146 -46 -320
-78 -58 -11 -118 -23 -135 -29 -16 -5 -52 -11 -80 -13 -27 -3 -58 -8 -68 -12
-23 -10 -40 6 -31 29 4 11 14 16 25 13 11 -3 19 -1 19 4 0 4 17 13 38 19 20 5
44 15 52 21 19 14 -49 6 -140 -16 -36 -8 -92 -20 -125 -26 -32 -5 -65 -15 -71
-20 -7 -5 -36 -12 -65 -15 -30 -3 -61 -8 -69 -11 -8 -4 -21 -5 -27 -4 -7 1
-23 -4 -35 -11 -13 -7 -39 -13 -58 -15 -19 -1 -44 -6 -55 -11 -11 -6 -56 -15
-100 -22 -44 -7 -95 -18 -114 -26 -18 -8 -49 -14 -68 -14 -18 0 -45 -7 -58
-16 -13 -9 -28 -13 -32 -11 -5 3 -33 -1 -63 -10 -30 -8 -75 -19 -100 -25 -25
-5 -54 -13 -65 -19 -11 -5 -29 -10 -40 -12 -11 -1 -25 -6 -32 -10 -11 -7 -48
-16 -223 -56 -19 -4 -54 -17 -78 -29 -24 -11 -57 -24 -73 -27 -34 -8 -110 -40
-122 -51 -4 -4 -2 -13 4 -20 7 -8 7 -14 -1 -19 -5 -3 -10 -15 -10 -25 0 -13
-12 -25 -34 -34 -59 -25 -65 -106 -15 -212 10 -22 19 -47 19 -55 0 -8 14 -32
30 -53 17 -23 30 -52 30 -68 0 -16 6 -39 14 -51 14 -23 15 -64 2 -85 -10 -17
-100 -60 -141 -68 -19 -3 -39 -12 -46 -20 -6 -8 -17 -14 -24 -14 -7 0 -24 -9
-39 -21 -14 -11 -39 -22 -54 -23 -34 -2 -112 -35 -112 -47 0 -5 -27 -16 -60
-26 -48 -13 -68 -25 -96 -57 -20 -23 -44 -51 -55 -62 -18 -21 -17 -54 2 -54 5
0 9 -7 9 -15 0 -8 -6 -15 -13 -15 -17 0 -47 -32 -47 -49 0 -10 10 -11 35 -7
32 6 51 -7 24 -16 -24 -8 0 -64 34 -80 27 -13 34 -24 44 -67 7 -28 19 -59 28
-67 8 -8 15 -26 15 -40 0 -15 6 -24 16 -24 11 0 14 -6 9 -20 -5 -14 -2 -20 9
-20 9 0 16 -9 16 -20 0 -11 4 -20 8 -20 5 0 14 -18 21 -41 15 -48 44 -81 66
-72 11 4 18 -1 22 -16 3 -11 13 -21 22 -21 22 0 69 -55 67 -77 -1 -13 6 -18
26 -18 15 -1 30 -4 34 -8 4 -4 0 -7 -9 -7 -9 0 -17 -4 -17 -10 0 -6 27 -8 67
-5 89 6 70 -11 -29 -26 -101 -15 -126 -38 -39 -36 40 1 61 -2 61 -9 0 -6 7
-17 15 -24 8 -7 15 -21 15 -32 0 -18 5 -19 43 -13 41 6 176 36 248 55 46 13
99 13 99 1 0 -11 72 -2 80 10 7 9 52 15 65 8 6 -4 23 -9 38 -13 20 -5 29 -14
34 -36 3 -17 8 -30 10 -30 13 0 48 37 48 50 0 10 12 15 38 15 25 1 37 -3 37
-12 0 -7 6 -16 14 -19 10 -4 13 -17 11 -45 -3 -34 0 -42 32 -68 l35 -29 -21
-18 c-13 -12 -19 -25 -15 -39 10 -40 -51 -63 -98 -39 -24 12 -29 20 -24 39 8
31 -10 41 -35 19 -20 -18 -19 -36 3 -81 12 -23 38 -32 38 -12 0 5 5 7 10 4 7
-4 7 -13 0 -26 -11 -19 3 -29 14 -10 7 10 56 21 56 12 -1 -15 -19 -33 -31 -29
-16 5 -45 -22 -54 -51 -3 -12 -12 -21 -19 -21 -14 0 -66 -41 -66 -53 0 -4 9
-7 21 -7 31 0 44 -20 43 -67 -1 -34 4 -46 22 -58 13 -8 30 -15 38 -15 7 0 16
-7 20 -15 3 -8 23 -23 46 -32 22 -10 40 -20 40 -23 0 -6 -161 -60 -181 -60 -8
0 -27 -7 -44 -16 -16 -9 -54 -25 -84 -35 -30 -10 -59 -23 -65 -28 -6 -4 -24
-11 -41 -15 -65 -14 -260 -106 -226 -106 23 0 -20 -29 -44 -30 -11 0 -30 -8
-41 -18 -24 -20 -38 -62 -21 -62 7 0 18 -13 25 -28 10 -24 17 -28 42 -24 32 4
43 -14 15 -24 -33 -13 5 -31 63 -31 31 0 47 2 35 4 -26 5 -31 23 -8 23 8 0 15
5 15 10 0 15 26 12 40 -5 10 -12 9 -16 -6 -22 -16 -6 -14 -8 11 -13 37 -6 45
-35 13 -44 -17 -4 -20 -8 -10 -15 17 -11 11 -47 -7 -43 -10 2 -12 -4 -6 -20 4
-13 8 -33 8 -46 1 -12 7 -26 14 -30 7 -4 9 -12 5 -17 -11 -16 -70 -55 -83 -55
-16 0 -38 -31 -39 -54 0 -15 6 -17 33 -14 17 3 40 8 49 13 13 5 18 3 18 -9 0
-9 -6 -16 -12 -16 -9 0 -8 -4 2 -10 13 -8 11 -11 -7 -16 -32 -9 -29 -20 7 -28
17 -3 30 -10 30 -15 0 -5 -27 -24 -60 -42 -63 -34 -72 -52 -27 -57 25 -3 40
-32 17 -32 -5 0 -10 -7 -10 -15 0 -12 4 -13 19 -6 15 8 20 7 24 -8 2 -11 0
-24 -6 -30 -8 -8 -4 -11 15 -11 15 0 29 6 32 13 3 8 9 7 20 -7 8 -10 17 -24
19 -30 3 -7 9 -6 21 3 22 18 36 4 29 -30 -4 -21 -17 -32 -65 -52 -33 -15 -57
-31 -53 -36 3 -6 -14 -24 -37 -40 -77 -54 -88 -65 -88 -93 0 -15 -4 -30 -10
-33 -15 -9 -12 -47 6 -70 12 -16 16 -17 23 -6 18 28 31 7 15 -24 -13 -26 -13
-33 0 -65 8 -19 18 -46 22 -60 10 -37 24 -51 45 -45 14 5 19 1 19 -14 0 -12 5
-21 10 -21 6 0 10 7 10 15 0 9 9 15 24 15 13 0 27 7 30 16 5 12 14 15 38 10
38 -7 35 -5 43 -37 6 -25 2 -29 -55 -57 -49 -25 -65 -29 -79 -20 -28 17 -64
-20 -55 -56 3 -14 10 -24 14 -21 5 3 11 -4 15 -15 7 -22 20 -26 30 -10 4 6 19
9 35 8 36 -3 50 -41 25 -68 -15 -16 -14 -17 10 -13 14 3 25 9 25 14 0 5 4 9
10 9 21 0 -3 -27 -45 -49 -37 -20 -45 -29 -45 -52 0 -18 8 -34 20 -41 11 -7
20 -19 20 -26 0 -9 7 -11 21 -7 15 5 19 4 15 -4 -11 -16 3 -51 20 -51 8 0 14
9 14 20 0 11 5 20 10 20 6 0 10 9 10 21 0 11 5 17 10 14 6 -3 10 -19 10 -35 0
-16 -4 -32 -10 -35 -5 -3 -10 -15 -10 -26 0 -10 -9 -28 -20 -39 -11 -11 -20
-29 -20 -40 0 -18 -3 -19 -21 -9 -19 10 -20 9 -14 -11 4 -11 2 -26 -3 -33 -5
-7 -9 -37 -10 -67 -1 -46 3 -58 19 -68 11 -7 24 -10 28 -8 5 3 11 -8 15 -24 4
-20 11 -30 24 -30 10 0 22 -4 27 -9 6 -5 33 -16 60 -24 40 -11 51 -19 53 -38
4 -32 52 -56 68 -34 15 20 24 19 24 -2 1 -16 2 -16 16 2 11 14 18 16 21 8 3
-9 10 -10 24 -3 15 8 19 7 19 -3 0 -9 10 -14 25 -14 13 0 22 3 19 8 -3 5 2 9
10 9 25 0 19 -25 -9 -40 -36 -19 -31 -37 13 -46 30 -6 33 -8 14 -12 -13 -2
-43 -18 -67 -35 -23 -18 -50 -37 -60 -42 -15 -9 -16 -16 -6 -53 7 -23 17 -41
24 -39 7 1 11 -5 9 -14 -2 -12 4 -15 23 -11 34 6 32 -14 -2 -23 -16 -4 -22
-10 -15 -12 16 -6 15 -23 -2 -23 -19 0 -28 -28 -16 -50 6 -10 10 -30 10 -44 0
-19 5 -26 20 -26 26 0 25 -4 -10 -49 -17 -21 -30 -42 -29 -47 1 -5 -1 -21 -5
-36 -5 -16 -5 -36 0 -45 4 -10 6 -21 6 -25 -1 -4 3 -30 9 -58 8 -37 15 -50 28
-50 10 0 26 -16 37 -35 10 -20 28 -38 39 -40 100 -22 558 1 620 31 21 10 45
14 60 10 15 -4 40 0 58 8 40 18 126 36 175 36 44 0 143 25 151 38 3 6 51 12
106 15 101 6 128 10 155 20 89 33 135 46 193 52 49 5 73 12 87 27 16 17 27 20
64 15 32 -5 48 -3 53 7 4 7 26 16 48 19 64 9 86 15 101 28 8 6 14 8 14 5 0 -4
9 -2 20 4 28 15 25 48 -4 60 -13 5 -29 17 -34 27 -15 25 -127 29 -144 4 -8
-10 -29 -18 -52 -19 -22 -2 -44 -6 -49 -9 -6 -3 -29 -8 -53 -9 -24 -2 -49 -5
-56 -6 -17 -4 -11 34 8 45 8 4 14 14 14 22 0 8 22 22 50 32 58 21 66 43 16 43
-25 0 -35 5 -38 17 -2 11 -12 18 -27 18 -13 0 -26 6 -28 13 -3 7 4 12 14 12
11 0 23 4 28 9 6 5 45 12 87 14 43 3 82 8 87 11 5 3 58 15 118 27 101 20 154
39 106 39 -17 0 -33 17 -33 36 0 5 65 34 76 34 4 0 1 -7 -6 -15 -10 -12 -10
-15 1 -15 19 0 49 20 31 20 -10 0 -10 3 1 15 18 17 90 25 97 10 3 -5 -8 -10
-23 -11 -15 -1 -33 -6 -39 -12 -7 -7 2 -9 33 -6 41 4 42 3 19 -8 -14 -7 -27
-15 -30 -19 -3 -3 -12 -9 -20 -13 -22 -9 86 2 123 13 18 5 52 16 77 23 41 12
42 13 17 16 -16 2 -31 10 -34 18 -3 8 -11 14 -19 14 -7 0 -11 6 -8 14 5 13 41
23 104 29 14 2 35 8 47 15 12 7 33 12 46 12 17 0 24 5 23 18 -1 13 8 18 44 20
24 2 49 7 55 11 23 18 107 33 158 28 42 -3 54 -1 50 8 -6 17 11 27 32 19 12
-5 13 -9 5 -14 -15 -9 57 -6 88 4 16 5 22 15 22 36 0 30 10 36 104 55 21 4 27
10 23 24 -6 25 44 62 94 68 21 3 39 10 39 14 0 17 58 9 65 -8 6 -16 8 -15 16
5 8 20 15 22 71 22 76 -1 169 9 183 20 6 5 27 11 48 15 44 9 54 20 30 34 -17
10 -17 10 2 12 11 1 33 3 50 5 17 2 37 -3 46 -12 27 -24 189 -21 254 5 101 41
136 52 147 45 7 -5 40 -10 73 -11 33 -1 63 -2 68 -2 4 -1 7 -8 7 -17 0 -14 7
-15 42 -10 23 4 49 13 58 19 8 7 29 19 45 27 17 8 37 19 45 26 8 6 40 14 70
17 30 3 78 9 105 13 28 5 65 8 83 8 17 0 32 3 32 7 0 3 9 9 19 12 11 3 22 17
26 37 4 20 15 34 26 37 10 3 19 9 19 14 0 5 25 16 55 24 30 9 61 23 69 31 8 8
19 14 25 14 6 0 11 6 11 13 0 10 21 14 78 15 53 1 72 -1 62 -8 -13 -8 -12 -10
4 -10 17 0 17 -2 3 -24 -15 -22 -14 -25 12 -50 20 -20 37 -26 69 -26 27 0 42
4 42 13 0 14 45 37 75 37 11 0 29 6 40 14 13 8 66 16 145 20 159 8 147 6 167
29 18 19 17 19 -67 12 -47 -4 -93 -12 -103 -17 -12 -6 -23 -6 -31 1 -10 8 -24
7 -52 -3 -40 -14 -124 -16 -124 -3 0 4 0 12 0 17 0 6 5 10 11 10 7 0 18 8 25
18 11 14 16 15 33 5 11 -7 23 -9 26 -4 3 6 18 6 34 1 15 -4 35 -4 42 1 8 4 39
11 69 15 30 3 69 12 85 19 25 11 82 23 133 27 6 1 12 5 12 10 0 4 7 8 15 8 8
0 21 12 29 28 10 20 27 31 60 40 25 6 46 17 46 23 0 7 16 9 50 4 46 -6 54 -4
103 28 37 25 70 38 108 43 30 3 79 13 109 21 30 9 84 19 119 23 36 4 69 14 75
22 6 8 20 14 31 14 31 0 225 34 267 46 20 6 39 17 42 24 3 8 14 14 25 14 10 0
62 11 115 25 53 14 107 25 120 25 34 0 56 10 56 25 0 8 29 17 83 24 45 7 96
14 112 17 17 3 50 7 75 10 25 2 56 7 70 11 14 3 40 7 57 8 18 1 41 9 50 17 25
21 205 64 223 53 5 -3 19 4 30 15 22 22 96 34 107 17 4 -6 11 -3 19 8 10 13
27 17 71 17 32 0 72 6 88 13 17 7 53 16 80 20 28 4 61 13 75 20 14 7 33 16 43
19 9 3 17 12 17 21 0 24 -253 12 -425 -22 -101 -19 -148 -22 -157 -9 -4 6 -11
6 -20 0 -7 -5 -34 -9 -60 -8 -44 2 -111 -9 -148 -24 -8 -3 -49 -6 -92 -6 -62
-1 -78 2 -87 16 -9 14 -7 20 8 28 11 5 29 10 40 10 12 0 21 4 21 8 0 5 28 14
63 20 34 7 81 16 104 21 23 4 49 4 57 -1 11 -6 16 -5 16 3 0 6 7 9 15 5 8 -3
18 1 22 9 11 18 59 30 67 16 5 -8 18 -6 42 4 19 8 41 12 49 9 8 -4 15 -2 15 4
0 6 15 14 32 18 45 9 78 33 71 50 -3 9 2 14 16 14 12 0 31 9 43 20 12 11 27
20 34 20 19 0 62 25 90 53 15 15 32 27 38 28 6 1 1 4 -12 7 -22 7 -29 29 -7
25 17 -4 48 46 37 60 -11 13 10 143 28 178 8 14 8 20 -2 23 -33 9 -137 26
-160 26 -14 0 -31 7 -38 15 -7 8 -26 15 -42 15 -22 0 -29 4 -27 18 3 36 0 43
-18 34 -16 -8 -100 -3 -143 9 -10 3 -16 -5 -18 -23 -3 -26 -7 -28 -50 -30 -26
-1 -56 -1 -67 0 -11 1 -36 2 -55 2 -19 0 -48 3 -65 6 -26 6 -28 8 -10 14 33
12 -155 26 -282 21 -42 -1 -35 -26 9 -29 49 -4 47 -12 -3 -13 -24 0 -55 -2
-69 -4 -14 -1 -95 -4 -180 -6 -85 -1 -173 -6 -195 -11 -43 -9 -208 -22 -400
-33 -66 -4 -187 -13 -270 -20 -82 -7 -176 -11 -208 -8 -32 2 -93 -1 -135 -7
-42 -7 -90 -14 -106 -16 -17 -2 -33 1 -38 8 -6 10 -8 10 -8 0 0 -8 -16 -12
-52 -10 -107 3 -271 -13 -312 -31 -88 -39 -103 -44 -166 -53 -36 -5 -94 -10
-130 -11 -36 -1 -71 -6 -78 -10 -7 -5 -36 -7 -65 -6 -29 1 -58 0 -64 -4 -6 -4
-30 -5 -54 -3 -24 2 -92 -2 -150 -9 -59 -7 -130 -10 -159 -7 -60 6 -190 -16
-205 -34 -5 -7 -41 -17 -80 -23 -38 -6 -80 -13 -92 -15 -13 -3 -25 -1 -28 3
-2 5 -37 6 -76 3 -69 -5 -71 -4 -64 17 5 18 2 21 -24 22 -17 1 -37 2 -43 3 -7
1 -18 -2 -25 -6 -14 -11 -65 1 -58 12 3 5 26 12 51 16 28 4 41 10 34 14 -9 6
-7 10 8 14 11 4 24 6 28 4 5 -1 23 5 40 14 17 9 46 16 64 16 21 -1 38 5 46 16
10 14 32 19 101 23 48 3 90 9 92 15 7 21 51 28 77 12 20 -14 29 -14 57 -4 17
7 37 19 43 26 6 8 24 16 40 18 16 2 36 6 44 9 8 3 29 10 45 15 27 8 30 12 27
42 l-4 34 27 -18 c15 -10 34 -14 45 -11 11 4 25 3 32 -1 21 -13 113 -13 139
-1 15 8 24 21 24 37 0 23 6 26 70 37 38 7 72 18 76 25 6 9 10 8 15 -5 5 -14
13 -16 40 -11 29 5 34 3 39 -19 4 -14 4 -31 0 -36 -8 -13 12 -14 90 -2 33 5
98 13 145 17 47 4 77 9 68 12 -26 5 -22 22 5 22 12 0 29 5 37 10 13 8 13 10
-2 10 -9 0 -40 -5 -69 -11 -44 -10 -53 -9 -68 6 -15 15 -15 17 4 31 11 8 28
13 38 10 12 -3 17 2 17 15 0 22 29 31 87 26 23 -2 63 -1 89 3 27 4 61 3 76 -2
24 -9 26 -13 17 -30 -11 -20 -10 -21 32 -13 102 19 279 28 279 15 0 -5 -27
-12 -60 -16 -33 -4 -63 -11 -66 -15 -3 -5 -23 -9 -45 -9 -26 0 -42 -5 -45 -15
-4 -8 -14 -15 -23 -15 -9 0 -35 -9 -56 -21 -52 -26 -223 -48 -235 -29 -6 9
-10 8 -17 -5 -9 -15 -21 -17 -87 -13 -42 3 -79 1 -82 -4 -3 -4 -22 -8 -42 -8
-44 -1 -67 -17 -69 -48 -2 -19 2 -22 18 -17 12 4 46 8 77 9 32 2 73 8 92 13
19 6 62 14 94 17 33 4 64 10 70 15 6 5 54 15 106 22 60 8 99 18 106 27 8 11
36 16 99 19 48 2 91 6 97 9 5 3 28 8 51 11 23 2 67 13 99 23 31 10 82 22 113
25 31 4 75 13 98 20 l42 12 -55 9 c-61 9 -83 7 -88 -7 -2 -5 -9 -6 -14 -2 -15
9 -71 12 -83 5 -16 -10 -75 -13 -75 -4 0 5 30 14 68 21 100 18 143 31 137 41
-6 10 9 15 89 29 33 6 60 12 60 13 1 2 8 11 15 21 18 22 -2 23 -25 0 -11 -11
-19 -14 -21 -7 -3 8 -15 9 -36 5 -18 -4 -40 -5 -50 -3 -21 4 -18 27 4 28 42 1
136 17 151 25 25 13 50 0 43 -22 -5 -16 -2 -18 17 -15 13 3 29 5 36 5 9 1 11
8 7 20 -5 17 1 21 47 30 84 16 111 17 115 3 3 -7 -8 -15 -26 -18 -17 -4 -34
-11 -38 -17 -4 -6 3 -8 18 -4 65 17 157 38 179 41 45 8 61 17 55 36 -3 9 0 22
7 27 13 10 166 48 180 45 4 -1 4 6 1 15 -5 13 -1 15 28 9 24 -4 41 -1 54 8 12
9 31 12 48 9 15 -3 27 -1 27 5 0 5 16 13 35 16 20 4 35 12 34 19 -2 7 3 24 10
38 10 21 11 42 2 100 -7 41 -13 123 -14 182 l-2 109 30 21 c16 12 52 28 80 35
27 7 55 18 60 25 6 7 17 11 26 10 27 -6 99 54 99 82 0 14 5 25 10 25 6 0 10 8
10 18 0 10 5 23 12 30 9 9 8 16 -4 29 -8 10 -14 23 -11 29 2 6 -10 26 -27 44
-31 34 -38 50 -19 50 6 0 9 9 6 20 -6 22 13 84 31 102 17 17 15 48 -4 55 -8 3
-26 0 -40 -7 -37 -20 -40 -4 -5 30 17 18 29 35 26 40 -2 4 16 7 42 5 43 -1 48
-4 55 -31 4 -16 5 -36 3 -45 -4 -13 0 -15 20 -11 14 2 28 8 31 13 3 5 13 9 23
9 10 0 24 6 31 14 6 8 19 12 27 9 13 -5 15 -2 11 14 -5 18 0 22 30 28 30 6 33
8 19 16 -21 12 -22 27 -3 48 11 13 13 26 6 56 -5 21 -7 42 -4 47 4 7 -7 92
-21 156 -4 15 -1 22 10 22 8 0 15 4 15 9 0 5 24 15 53 21 70 14 94 30 47 30
-32 1 -33 2 -15 13 11 6 49 19 84 27 65 15 87 34 56 47 -10 3 -25 1 -35 -5
-13 -8 -24 -7 -42 2 -14 7 -41 16 -61 20 -23 4 -37 13 -37 21 0 8 -5 15 -11
15 -6 0 -8 9 -4 21 7 20 4 21 -34 14 -43 -7 -60 10 -18 18 12 3 -11 4 -52 4
-55 -2 -75 2 -79 12 -3 10 6 12 42 10 32 -3 46 0 46 8 0 7 11 13 25 13 16 0
25 6 25 15 0 8 -9 15 -19 15 -51 0 -27 51 32 69 41 11 48 11 62 -3 9 -9 22
-16 28 -16 21 1 114 36 140 53 14 9 37 19 51 23 27 6 33 18 16 29 -5 3 -10 15
-10 26 0 12 -7 19 -19 19 -16 0 -17 4 -7 41 8 31 8 42 -2 48 -10 6 -10 16 2
50 11 33 12 50 4 73 -8 23 -8 32 3 38 10 7 9 15 -6 44 -17 32 -18 37 -3 53 13
15 15 37 11 122 -2 56 -10 119 -16 139 -10 30 -19 37 -66 53 -30 9 -60 15 -67
12 -6 -2 -15 0 -19 6 -3 6 -16 11 -29 11 -12 0 -26 3 -30 7 -4 4 -53 8 -109 9
-139 3 -318 13 -327 19 -11 7 -219 15 -375 14 -178 0 -179 0 -185 -10 -4 -5
-59 -12 -124 -15 -89 -6 -120 -4 -126 5 -5 9 -36 13 -97 13 -92 0 -140 11 -92
22 81 19 107 22 124 16 11 -4 35 -1 54 6 18 8 65 16 104 19 143 9 174 15 187
41 10 18 11 32 2 61 -6 21 -14 81 -16 133 -3 52 -10 133 -16 180 -21 167 -25
305 -9 347 13 35 5 39 -89 47 -110 9 -786 19 -793 12z m294 -737 c-6 -6 -19
-6 -33 -1 l-24 9 29 16 c27 14 30 14 33 0 2 -8 0 -19 -5 -24z m12 -33 c106 15
125 16 125 5 0 -6 8 -11 18 -11 9 0 24 -4 32 -10 12 -7 9 -11 -11 -19 -14 -5
-46 -12 -70 -14 -24 -3 -65 -10 -92 -16 -26 -6 -66 -11 -90 -10 -23 0 -58 -4
-77 -10 -19 -6 -49 -11 -67 -11 -17 0 -34 -4 -37 -8 -3 -5 -25 -9 -50 -9 -24
-1 -53 -6 -64 -12 -12 -6 -47 -11 -80 -11 -33 0 -77 -7 -97 -16 -21 -8 -47
-13 -58 -10 -12 3 -27 0 -34 -6 -7 -6 -24 -8 -38 -6 -14 3 -25 2 -25 -2 0 -15
-55 -18 -77 -4 -19 12 -23 12 -23 1 0 -9 -12 -13 -35 -12 -19 0 -35 -2 -35 -5
0 -3 -50 -5 -110 -5 -69 0 -109 4 -107 10 2 5 17 12 33 13 16 2 34 8 40 13 21
17 111 19 125 3 10 -12 13 -12 23 2 7 8 27 18 46 20 19 2 73 13 120 25 47 11
100 20 118 20 22 -1 32 4 32 14 0 11 5 12 24 5 16 -6 47 -6 83 0 77 13 83 13
83 -5 0 -18 16 -20 24 -2 5 10 7 10 12 0 8 -18 33 -16 40 2 4 8 17 15 30 15
16 0 22 4 18 14 -5 12 31 21 126 32 28 3 60 16 60 26 0 5 7 5 18 -1 9 -5 31
-7 47 -5z m-1055 -95 c0 -5 9 -12 19 -16 12 -4 18 -12 15 -20 -5 -11 -17 -13
-52 -8 -26 3 -49 10 -52 14 -3 4 -20 6 -38 5 -17 -1 -32 1 -32 6 0 4 12 8 28
9 15 0 36 4 47 9 27 12 65 12 65 1z m2314 -2062 c-7 -12 -44 -12 -44 0 0 5 6
11 13 14 17 6 38 -3 31 -14z m-7369 -689 c-3 -5 -13 -10 -21 -10 -8 0 -14 5
-14 10 0 6 9 10 21 10 11 0 17 -4 14 -10z m5305 -239 c0 -8 -82 -31 -110 -31
-23 0 -7 20 23 29 43 12 87 13 87 2z m-3510 -241 c0 -5 -4 -10 -10 -10 -5 0
-10 5 -10 10 0 6 5 10 10 10 6 0 10 -4 10 -10z m-2370 -1330 c0 -5 -5 -10 -11
-10 -5 0 -7 5 -4 10 3 6 8 10 11 10 2 0 4 -4 4 -10z m5905 -30 c-4 -6 -10 -8
-15 -5 -5 3 -11 1 -14 -4 -6 -8 -83 -22 -261 -45 -53 -7 -83 3 -70 24 6 9 28
11 81 7 59 -4 74 -3 74 8 0 10 19 15 68 18 37 2 84 4 105 5 24 1 36 -2 32 -8z
m-5785 -70 c0 -5 -4 -10 -10 -10 -5 0 -10 5 -10 10 0 6 5 10 10 10 6 0 10 -4
10 -10z m2610 -795 c0 -8 -7 -15 -15 -15 -16 0 -20 12 -8 23 11 12 23 8 23 -8z
m15 -35 c-28 -12 -57 -12 -50 0 3 6 21 10 38 9 27 0 29 -2 12 -9z"/>
<path d="M3330 6900 c-12 -8 -10 -10 10 -9 14 0 34 4 45 9 17 7 16 9 -10 9
-16 0 -37 -4 -45 -9z"/>
<path d="M3218 6879 c-20 -4 -51 -10 -70 -12 -48 -6 -121 -27 -114 -34 4 -5
54 3 91 13 6 2 39 8 75 14 36 6 69 15 75 21 11 11 -5 11 -57 -2z"/>
<path d="M2930 6815 c-46 -18 -9 -18 45 0 31 10 34 13 15 13 -14 0 -41 -6 -60
-13z"/>
<path d="M2810 6794 l-35 -13 30 0 c41 -1 76 9 69 20 -7 11 -20 10 -64 -7z"/>
<path d="M9535 5646 c-16 -6 -39 -19 -49 -28 -20 -18 -20 -18 0 -17 10 0 37 3
59 7 32 6 40 12 41 30 1 24 -6 25 -51 8z"/>
<path d="M9508 5343 c6 -2 18 -2 25 0 6 3 1 5 -13 5 -14 0 -19 -2 -12 -5z"/>
<path d="M5904 3159 c-4 -6 -19 -9 -36 -5 -24 5 -31 2 -35 -14 -3 -11 -9 -20
-14 -20 -20 0 -7 -30 14 -31 79 -6 169 15 161 36 -4 9 0 15 7 16 21 1 -43 28
-68 29 -12 0 -25 -5 -29 -11z"/>
<path d="M5846 1565 c-3 -9 0 -15 9 -15 9 0 12 6 9 15 -4 8 -7 15 -9 15 -2 0
-5 -7 -9 -15z"/>
</g>
</svg>
