<?xml version="1.0" standalone="no"?>
<!DOCTYPE svg PUBLIC "-//W3C//DTD SVG 20010904//EN"
 "http://www.w3.org/TR/2001/REC-SVG-20010904/DTD/svg10.dtd">
<svg version="1.0" xmlns="http://www.w3.org/2000/svg"
 width="1024.000000pt" height="724.000000pt" viewBox="0 0 1024.000000 724.000000"
 preserveAspectRatio="xMidYMid meet">
<metadata>
Created by potrace 1.16, written by Peter Selinger 2001-2019
</metadata>
<g transform="translate(0.000000,724.000000) scale(0.100000,-0.100000)"
fill="#000000" stroke="none">
<path d="M2135 6012 c-51 -17 -72 -28 -58 -30 12 -2 35 4 52 12 30 16 141 22
141 9 0 -15 -15 -28 -45 -43 -38 -19 -175 -21 -175 -2 0 17 -8 15 -37 -8 -14
-11 -34 -20 -44 -20 -11 0 -19 -4 -19 -9 0 -5 -8 -12 -17 -14 -10 -3 -5 -5 12
-6 21 -1 26 -4 17 -10 -21 -13 25 -22 55 -10 13 5 43 9 66 9 38 0 40 -1 22
-14 -11 -7 -42 -16 -68 -20 -72 -11 -52 -16 28 -8 77 8 135 5 135 -7 0 -20
-115 -43 -201 -39 -73 2 -92 0 -109 -14 -12 -11 -38 -18 -63 -19 -31 0 -37 -2
-22 -8 20 -8 20 -8 -2 -15 -12 -4 -38 -20 -58 -36 -39 -31 -40 -39 -2 -18 20
10 21 10 8 -5 -12 -15 -11 -17 3 -17 13 0 15 -4 6 -19 -21 -40 -14 -46 57 -44
38 1 57 -1 44 -4 -20 -4 -81 -55 -81 -68 0 -3 9 -5 21 -5 11 0 17 5 14 10 -7
11 9 11 45 0 l25 -7 -28 -12 c-16 -6 -38 -11 -50 -11 -12 0 -30 -7 -41 -15
-14 -11 -22 -11 -37 -2 -14 9 -25 8 -51 -5 l-33 -16 43 5 c28 4 42 2 42 -6 0
-6 -7 -11 -15 -11 -8 0 -15 -6 -15 -14 0 -8 22 -18 60 -26 73 -15 69 -30 -8
-30 -40 0 -52 -3 -42 -10 8 -5 24 -7 35 -4 11 3 39 1 61 -4 42 -9 68 -4 71 14
1 6 -9 10 -25 8 -15 -2 -19 -1 -9 2 9 3 17 9 17 13 0 5 11 6 25 3 19 -3 23 -8
15 -17 -12 -15 6 -21 61 -20 35 0 36 -1 28 -25 -9 -24 -8 -24 6 -6 8 11 15 24
15 30 0 5 3 6 7 3 3 -4 13 -1 20 5 12 10 14 8 11 -7 -2 -13 5 -21 22 -26 21
-6 22 -7 5 -8 -12 -1 -27 5 -33 11 -10 10 -15 10 -22 -2 -7 -12 -3 -17 20 -24
17 -5 30 -16 30 -25 0 -11 -3 -12 -8 -4 -5 9 -17 10 -37 4 -17 -5 -25 -10 -20
-12 6 -1 -12 -5 -39 -8 -29 -4 -51 -12 -54 -20 -3 -10 2 -12 22 -7 14 3 26 2
26 -3 0 -5 6 -9 13 -8 38 1 77 -4 77 -10 0 -5 -18 -8 -40 -7 -23 0 -43 -2 -45
-6 -5 -8 -64 -4 -72 4 -4 3 5 6 18 6 18 0 20 3 10 9 -14 9 -98 8 -136 -2 -11
-3 -42 -6 -68 -6 -31 -1 -46 -5 -42 -12 4 -6 10 -8 13 -5 3 3 11 1 19 -6 8 -7
17 -8 23 -2 11 11 120 6 120 -6 0 -4 -28 -10 -62 -14 -48 -5 -69 -12 -88 -31
l-25 -25 23 0 c12 0 22 -4 22 -10 0 -5 -6 -10 -14 -10 -8 0 -18 5 -21 10 -10
16 -54 12 -51 -5 3 -18 16 -32 16 -17 0 7 5 12 10 12 6 0 10 -8 8 -17 -2 -14
3 -17 20 -15 12 2 22 -1 22 -7 0 -5 -9 -11 -20 -13 -12 -2 -19 -7 -18 -13 2
-5 7 -9 12 -7 5 2 22 -2 38 -9 28 -12 28 -12 8 -26 -12 -8 -32 -13 -46 -10
-13 2 -24 0 -24 -5 0 -5 -5 -6 -10 -3 -17 10 -70 -5 -70 -20 0 -18 23 -32 28
-17 2 7 13 12 25 12 27 0 87 -22 87 -32 0 -4 16 -10 35 -14 19 -3 32 -10 29
-15 -3 -5 6 -9 19 -9 14 0 27 -7 31 -15 4 -12 -10 -15 -95 -14 -56 0 -103 -2
-105 -4 -3 -2 -6 -14 -9 -26 -3 -17 1 -21 20 -21 13 0 27 -5 31 -11 4 -8 -7
-10 -39 -8 -35 3 -43 1 -35 -8 6 -7 18 -13 28 -13 10 0 20 -9 23 -20 3 -11 16
-24 29 -29 12 -5 32 -19 43 -31 l20 -22 -45 7 c-25 5 -54 8 -65 8 -68 -3 -97
-7 -102 -16 -3 -6 -1 -7 5 -3 7 4 12 3 12 -1 0 -5 8 -9 18 -10 9 0 31 -2 47
-3 17 -2 46 0 65 4 34 7 35 6 36 -23 1 -31 -15 -45 -42 -34 -11 4 -12 8 -4 13
7 5 8 10 3 13 -12 7 -76 -37 -67 -46 10 -9 -6 -45 -22 -51 -11 -4 -14 -1 -9
13 3 11 1 22 -5 26 -13 8 -10 -71 4 -93 4 -6 2 -12 -3 -12 -6 0 -11 -5 -11
-11 0 -5 6 -7 13 -3 6 4 4 -2 -5 -12 -17 -19 -17 -21 2 -42 l20 -22 -20 -12
c-26 -17 -25 -32 2 -59 13 -12 17 -19 11 -15 -8 4 -13 1 -13 -7 0 -16 20 -27
53 -28 20 0 20 -1 4 -8 -10 -4 -19 -11 -20 -16 -2 -15 -21 -33 -29 -28 -5 2
-8 -14 -8 -35 0 -41 18 -60 38 -40 6 6 12 6 16 -1 4 -6 2 -11 -3 -11 -6 0 -11
-9 -11 -19 0 -11 -6 -21 -12 -24 -10 -3 -10 -8 1 -18 9 -9 11 -9 7 -1 -4 6 -2
12 3 12 14 0 14 -17 1 -25 -6 -4 -9 -19 -8 -33 2 -21 -1 -27 -17 -27 -11 1
-29 -8 -39 -19 -16 -16 -16 -18 -3 -13 13 5 17 1 17 -18 0 -26 14 -34 24 -12
4 6 4 2 2 -9 -3 -17 1 -20 15 -17 11 3 19 0 19 -6 0 -6 -6 -11 -13 -11 -16 0
-37 -41 -37 -70 0 -11 7 -20 16 -20 8 0 12 5 9 10 -3 6 1 10 9 10 9 0 16 -4
16 -10 0 -5 8 -10 17 -10 12 0 8 8 -17 28 -22 19 -30 31 -22 36 7 4 22 -4 36
-17 14 -14 28 -22 31 -18 4 3 6 1 5 -4 -6 -29 1 -47 16 -41 10 4 14 1 11 -6
-2 -7 -10 -14 -18 -14 -8 -1 -19 -2 -25 -3 -7 0 -15 -11 -18 -23 l-6 -23 -22
25 c-13 15 -19 18 -15 8 4 -11 0 -21 -10 -26 -20 -12 -8 -32 18 -32 11 0 17 4
14 10 -3 6 1 7 9 4 9 -3 16 -8 16 -10 0 -8 -41 -44 -50 -44 -5 0 -10 -5 -10
-11 0 -6 -7 -8 -16 -5 -8 3 -13 2 -10 -3 3 -5 -3 -11 -14 -14 -14 -4 -18 -10
-13 -23 4 -11 8 -13 11 -6 5 17 22 15 22 -2 0 -8 10 -16 23 -19 21 -3 20 -4
-8 -17 l-30 -13 38 -7 c72 -13 60 -37 -23 -45 -74 -7 -92 -14 -88 -33 2 -10
22 -20 55 -27 29 -7 50 -8 47 -4 -2 5 -21 11 -42 15 -30 6 -33 8 -17 15 11 4
29 8 40 8 17 1 17 -1 5 -9 -12 -8 -11 -10 6 -10 11 0 29 -7 40 -15 10 -8 27
-15 36 -15 9 0 18 -5 20 -11 2 -6 16 -12 31 -12 26 -2 35 -11 19 -21 -4 -2
-44 -6 -89 -7 -47 -2 -89 -9 -99 -16 -13 -10 -14 -13 -3 -13 12 0 12 -2 -1
-10 -12 -7 -8 -11 18 -16 42 -9 23 -22 -26 -19 l-37 3 40 -20 40 -19 -33 4
c-18 2 -35 1 -37 -3 -2 -3 11 -7 28 -8 18 -2 33 -7 35 -12 2 -6 9 -10 16 -10
8 0 26 -10 40 -21 34 -26 19 -41 -28 -28 -40 12 -87 11 -106 -1 -34 -21 21
-27 153 -17 34 3 47 0 47 -10 0 -7 5 -13 11 -13 5 0 7 5 4 10 -10 16 12 12 29
-5 8 -8 25 -15 38 -15 17 0 19 -3 9 -9 -9 -6 -10 -10 -2 -16 7 -4 18 -2 25 4
10 9 15 8 20 -5 9 -23 8 -26 -11 -20 -10 2 -51 8 -90 11 -63 6 -73 5 -73 -9 0
-14 9 -18 73 -31 9 -2 17 1 17 6 0 5 5 9 10 9 6 0 10 -8 10 -17 0 -15 2 -14
15 3 12 15 16 16 24 5 7 -11 9 -11 14 0 4 10 8 11 14 3 4 -6 15 -14 23 -17 9
-3 4 -6 -12 -6 -32 -1 -36 -15 -10 -30 18 -11 15 -11 -75 -14 -20 -1 -33 -6
-33 -14 0 -7 5 -13 10 -13 19 0 10 -21 -12 -29 l-23 -8 23 -7 c12 -4 22 -12
22 -17 0 -6 -9 -7 -21 -4 -16 5 -19 4 -14 -5 6 -10 0 -12 -24 -7 -29 6 -31 5
-21 -13 6 -11 8 -25 5 -30 -3 -6 2 -11 12 -11 10 -1 2 -4 -17 -8 -26 -4 -36
-12 -38 -28 -2 -15 2 -23 12 -23 10 0 13 6 10 15 -5 11 -2 13 10 9 9 -3 16
-10 16 -15 0 -5 7 -9 15 -9 18 0 20 20 3 20 -21 1 32 40 54 40 10 0 16 -4 13
-10 -3 -5 -15 -10 -26 -10 -10 0 -19 -7 -19 -15 0 -8 6 -12 14 -9 8 3 17 1 21
-5 3 -6 16 -11 28 -11 15 0 18 -3 10 -11 -6 -6 -35 -12 -65 -13 -73 -3 -121
-31 -87 -52 6 -3 16 -1 22 5 13 13 61 15 53 2 -3 -5 -15 -7 -26 -4 -11 3 -20
1 -20 -5 0 -11 69 -27 78 -18 3 3 0 6 -6 6 -7 0 -12 5 -12 11 0 12 43 1 48
-12 2 -5 19 -11 38 -15 20 -4 31 -11 27 -17 -3 -6 -1 -7 5 -3 7 4 20 2 29 -3
10 -6 14 -11 8 -12 -5 -1 4 -5 20 -9 26 -7 23 -8 -22 -9 -28 0 -55 4 -59 10
-4 8 -9 7 -15 -2 -7 -12 -11 -11 -25 3 -16 16 -18 16 -30 0 -10 -13 -15 -14
-25 -5 -9 9 -15 8 -28 -4 -25 -26 -22 -53 5 -53 13 0 24 -5 24 -11 0 -8 -15
-10 -44 -7 -35 4 -43 2 -39 -8 3 -8 18 -14 34 -14 19 0 27 -4 24 -13 -3 -7 15
-24 41 -40 36 -22 44 -31 35 -41 -9 -10 -7 -15 8 -19 11 -2 24 0 31 7 8 8 13
7 19 -2 4 -7 12 -12 17 -11 5 1 16 -1 24 -4 8 -3 26 -7 40 -9 14 -2 24 -8 23
-13 -1 -6 13 -11 30 -11 17 -1 36 -9 44 -20 8 -11 16 -18 18 -16 14 7 35 0 35
-11 0 -20 51 -45 106 -51 34 -4 44 -3 34 4 -23 15 3 12 41 -5 19 -8 28 -14 21
-15 -7 0 -10 -5 -6 -11 4 -7 10 -7 16 -1 9 9 58 -6 58 -19 0 -3 15 -4 33 -2
27 4 29 2 14 -7 -19 -12 -36 -11 -172 13 -82 14 -169 16 -181 4 -4 -4 -20 -7
-36 -7 -15 0 -28 -4 -28 -10 0 -5 -28 -12 -62 -16 -52 -6 -58 -8 -38 -16 14
-5 34 -7 47 -3 12 3 25 1 28 -5 16 -26 73 -43 155 -46 83 -3 271 -49 360 -88
l35 -15 -37 -1 c-20 0 -39 -3 -41 -7 -6 -10 76 -8 92 1 6 4 14 5 19 3 16 -10
89 -21 137 -20 36 1 43 -1 25 -6 -24 -7 -24 -7 9 -14 18 -4 43 -7 55 -7 19 1
18 2 -6 18 -16 9 -28 22 -28 29 0 20 20 15 28 -6 4 -11 10 -20 15 -20 22 0 86
-16 112 -27 29 -13 30 -13 5 -15 -14 -1 -28 -1 -32 0 -5 0 -8 -4 -8 -9 0 -6
17 -10 38 -11 l37 -1 -33 -8 c-55 -13 -49 -20 18 -20 58 0 62 1 44 15 -17 13
-17 14 -2 15 25 0 32 -19 14 -39 -16 -17 -15 -19 23 -25 22 -3 47 -3 55 0 12
5 15 2 10 -10 -5 -14 -2 -14 27 -3 21 7 89 12 181 12 142 0 146 0 98 14 -63
17 -65 33 -2 26 26 -3 65 -7 87 -9 22 -2 47 -6 55 -9 12 -5 79 -13 148 -17 47
-3 132 3 132 10 0 4 7 11 16 14 14 5 15 4 5 -8 -22 -26 87 -34 154 -11 l20 7
-20 -17 c-19 -16 -19 -17 15 -10 19 4 40 11 46 16 6 5 15 5 19 1 5 -4 5 2 2
13 -6 18 -5 18 5 4 11 -14 29 -15 123 -9 122 7 146 3 94 -17 -25 -10 -27 -12
-7 -8 14 3 33 8 42 11 10 4 16 1 16 -9 0 -8 -6 -18 -12 -20 -7 -3 -3 -6 10 -6
13 -1 22 5 22 14 0 9 9 15 25 15 14 0 25 -4 25 -10 0 -5 -7 -7 -15 -4 -8 4
-15 2 -15 -3 0 -5 23 -10 51 -10 41 -1 49 2 47 16 -2 8 -12 17 -23 20 -17 3
-18 1 -6 -13 19 -22 4 -20 -26 4 l-26 20 46 0 c52 0 79 8 71 21 -3 5 7 9 21 9
15 0 24 4 20 10 -4 6 10 10 33 10 26 0 42 -5 46 -15 4 -12 -4 -15 -37 -16 -75
-1 -3 -20 85 -23 43 -1 80 -5 84 -9 15 -14 82 -7 88 9 4 12 10 13 19 6 23 -19
104 -18 127 3 11 10 20 13 20 8 0 -20 64 -36 151 -39 47 -2 105 -7 128 -13 32
-7 45 -6 56 5 15 16 45 19 45 5 0 -5 73 -9 173 -8 94 0 187 -3 206 -7 24 -6
32 -5 27 3 -4 6 -12 9 -17 6 -5 -4 -9 -2 -9 4 0 17 40 23 88 12 26 -6 92 -13
147 -15 118 -6 119 -6 80 -16 l-30 -8 27 -1 c15 0 29 3 32 8 3 4 17 6 31 3 14
-2 25 0 25 4 0 5 30 10 66 11 51 2 65 -1 61 -11 -4 -11 26 -14 151 -14 86 0
166 -1 177 -2 11 -1 36 1 55 3 19 2 61 -1 93 -8 31 -6 57 -8 57 -3 0 4 19 8
43 7 36 -1 38 -2 17 -9 -24 -8 -23 -8 8 -9 18 -1 31 3 28 7 -2 4 41 7 97 6
153 -3 159 -3 152 -14 -3 -5 7 -8 25 -7 16 1 30 5 30 10 0 4 4 7 10 7 5 0 6
-7 3 -17 -5 -12 -3 -14 7 -8 9 6 11 4 5 -4 -4 -7 -15 -11 -25 -8 -10 2 -24 0
-31 -5 -10 -6 -2 -8 24 -6 20 2 37 0 37 -4 0 -4 5 -8 11 -8 5 0 7 5 3 11 -4 8
11 9 52 6 33 -3 67 -6 77 -6 11 -1 15 -5 11 -13 -4 -7 -3 -8 5 -4 6 4 9 11 6
16 -9 14 31 31 75 33 22 1 40 5 40 9 0 4 12 8 28 7 25 0 25 -1 6 -9 -12 -5
-25 -13 -28 -19 -4 -6 -14 -7 -23 -4 -10 4 -22 -3 -33 -17 -16 -21 -29 -24
-121 -31 -57 -4 -113 -9 -124 -10 -11 -1 41 -6 115 -10 168 -9 202 -15 212
-34 11 -19 28 -20 28 -1 0 8 -10 18 -21 21 -16 5 -18 9 -9 15 9 6 5 13 -16 25
l-29 16 35 -6 c108 -18 114 -18 135 6 11 13 13 19 5 12 -9 -7 -40 -9 -80 -7
-78 6 -92 14 -24 14 48 1 48 1 24 15 -24 14 -24 14 -3 15 12 0 25 -4 28 -10 3
-6 31 -7 68 -3 57 6 61 5 48 -10 -12 -15 -9 -17 35 -16 27 0 69 4 94 8 l45 8
-65 3 c-60 2 -62 3 -26 10 21 4 47 5 58 2 10 -2 24 1 32 7 10 9 15 8 20 -4 11
-30 -4 -44 -42 -40 -20 3 -28 2 -17 -1 30 -9 38 -20 30 -43 -6 -18 -14 -21
-71 -21 -38 0 -64 -4 -64 -11 0 -13 -100 -8 -102 6 -2 14 -61 33 -72 24 -5 -4
-2 -14 6 -22 14 -14 54 -24 128 -31 19 -2 42 -6 50 -9 36 -13 80 -13 80 0 0 7
11 15 25 19 15 4 28 16 31 30 3 13 10 24 16 24 5 0 7 4 4 8 -3 5 5 20 17 33
12 13 22 30 22 39 0 18 71 32 135 27 25 -2 37 -2 27 0 -28 7 -14 28 21 31 21
2 32 -1 32 -10 0 -8 4 -6 11 5 7 11 22 17 49 17 22 0 40 5 40 11 0 6 16 10 38
9 20 -1 44 -1 52 -1 23 2 -31 30 -60 31 -14 0 -36 7 -49 14 -13 7 -33 11 -45
8 -12 -3 -18 -2 -14 3 4 4 -5 18 -19 31 -29 27 -14 32 29 10 26 -14 28 -13 42
15 8 16 10 29 5 29 -5 0 -11 11 -15 25 -3 14 -11 25 -16 25 -6 0 -7 -8 -3 -17
4 -10 9 -22 11 -28 8 -21 -14 -38 -41 -31 -22 6 -25 9 -15 21 8 10 9 15 2 15
-6 0 -17 -9 -25 -20 -9 -13 -29 -23 -53 -26 -22 -2 -33 -2 -26 2 25 12 12 26
-18 21 -17 -4 -30 -3 -30 2 0 5 -6 11 -14 14 -10 4 -12 0 -9 -14 3 -11 0 -19
-7 -19 -7 0 -10 11 -8 28 2 22 -1 27 -17 24 -19 -2 -19 -2 -2 9 13 8 22 8 32
-1 7 -6 15 -7 18 -3 3 5 35 8 71 7 54 -1 64 1 55 13 -9 10 -8 13 4 13 9 0 19
-5 23 -11 5 -8 9 -8 14 1 4 7 34 12 69 13 55 2 61 0 57 -15 -6 -23 3 -28 34
-16 14 5 20 12 14 16 -6 4 -13 15 -17 25 -5 13 -1 17 16 17 16 0 18 3 9 9 -10
6 -6 10 15 14 16 3 31 0 35 -6 5 -8 8 -7 9 3 1 8 3 22 4 30 3 27 -7 32 -26 14
-12 -10 -19 -13 -19 -5 0 6 7 14 16 18 13 5 13 7 2 14 -11 7 -10 11 2 19 22
14 29 12 23 -8 -3 -12 2 -18 16 -19 16 -1 18 2 12 20 -7 17 -16 22 -42 20 -19
-1 -38 4 -42 10 -6 9 -10 9 -14 0 -7 -18 -23 -16 -23 2 0 9 9 15 25 15 16 0
25 6 25 15 0 18 50 21 67 4 8 -8 14 -5 23 10 14 27 30 18 30 -17 0 -19 -3 -23
-9 -13 -5 7 -14 10 -21 6 -9 -6 -9 -10 1 -16 12 -8 11 -11 -1 -19 -13 -8 -13
-10 2 -10 24 0 50 -30 45 -51 -3 -12 0 -19 9 -19 8 0 14 -6 15 -12 0 -7 5 0 9
16 7 22 5 37 -8 58 -13 22 -14 30 -4 40 9 9 12 9 12 -1 0 -7 5 -9 11 -6 13 8
-28 55 -48 55 -7 0 -13 11 -13 25 0 16 6 25 16 25 8 0 13 4 10 9 -4 5 -3 11 1
14 5 2 3 3 -3 1 -7 -1 -20 3 -30 10 -11 8 -31 12 -46 10 -26 -2 -26 -1 -16 29
6 18 16 39 23 47 10 12 10 21 0 44 -10 23 -13 25 -19 11 -3 -9 -4 -21 0 -26 3
-5 0 -9 -5 -9 -6 0 -10 -8 -9 -17 4 -49 -2 -63 -27 -63 -17 0 -25 -6 -25 -17
0 -25 -13 -7 -16 23 -4 32 24 73 50 74 15 0 17 7 15 44 -4 40 -3 42 15 32 14
-8 20 -8 23 2 3 6 13 12 23 12 18 0 36 17 28 25 -2 3 -13 6 -24 8 -30 4 -44
16 -44 37 0 13 -5 17 -15 14 -16 -6 -18 2 -15 50 1 21 -2 26 -12 20 -7 -4 -4
2 6 14 11 12 14 22 8 22 -7 0 -12 7 -12 16 0 8 5 12 10 9 6 -3 10 0 10 8 0 8
15 19 33 25 31 11 31 11 -13 7 -25 -3 -39 -2 -32 1 6 3 12 12 12 20 0 17 26
19 33 2 3 -7 6 -3 6 10 1 23 15 30 26 12 3 -5 12 -10 18 -10 12 1 -13 23 -46
41 -14 8 -19 5 -27 -13 l-9 -23 1 25 c0 14 -4 38 -11 53 -10 25 -8 29 12 37
12 5 18 9 12 10 -5 0 1 7 14 14 15 8 20 16 12 20 -6 4 -11 2 -11 -3 0 -6 -9
-11 -19 -11 -16 0 -19 5 -15 25 4 20 0 25 -18 26 -13 1 -26 1 -30 0 -12 -2 -9
17 3 25 8 4 7 9 -2 16 -11 7 -11 11 -2 14 19 8 -32 55 -51 48 -17 -7 -22 11
-6 21 5 3 7 12 3 20 -4 11 2 15 21 15 14 0 26 4 26 10 0 5 15 14 33 19 32 9
17 16 -28 11 -16 -1 -18 1 -7 11 17 18 15 29 -5 29 -13 0 -12 3 5 19 12 10 22
23 22 30 0 6 5 11 10 11 10 0 14 -18 11 -55 -1 -17 0 -18 8 -4 6 9 8 33 4 53
-6 37 -7 38 -42 32 -32 -6 -34 -5 -18 7 23 19 22 26 -3 20 -11 -3 -20 0 -20 6
0 6 -13 11 -30 11 -20 0 -30 5 -30 15 0 8 -5 15 -10 15 -7 0 -7 7 1 21 10 20
9 21 -15 17 -15 -3 -29 -2 -32 3 -5 9 42 24 66 21 10 -1 11 1 2 4 -6 3 -10 10
-6 15 3 5 -7 4 -22 -1 -34 -13 -67 -5 -44 11 12 9 10 10 -7 6 -13 -3 -26 -1
-29 5 -8 12 -5 14 33 23 29 6 32 4 26 -11 -4 -11 -3 -15 4 -11 6 4 14 1 16 -5
3 -7 6 -4 6 7 1 18 2 18 17 -3 15 -21 17 -22 33 -8 10 9 21 13 26 9 4 -5 5 0
2 10 -4 10 -7 32 -7 48 0 32 -23 40 -35 12 -6 -17 -7 -17 -21 1 -17 25 -19 50
-1 40 10 -6 10 -4 0 7 -18 18 -16 34 2 19 17 -14 20 -3 6 20 -14 21 -4 30 22
21 19 -7 23 -5 24 10 1 16 -3 18 -23 13 -23 -6 -24 -4 -18 21 5 19 3 26 -4 21
-15 -9 -42 4 -42 20 0 8 -5 14 -12 14 -15 0 -1 13 17 16 8 1 15 -2 15 -8 0
-20 37 37 42 65 4 19 1 27 -8 27 -8 0 -14 -6 -14 -14 0 -20 -17 -29 -34 -19
-13 7 -13 11 0 27 13 19 14 19 14 1 0 -18 0 -18 14 0 9 13 19 16 32 11 10 -4
32 -9 47 -11 24 -4 27 -2 17 10 -7 8 -19 15 -27 15 -7 0 -16 6 -19 14 -3 8
-14 12 -27 9 l-22 -5 21 19 c20 18 20 19 3 48 -10 17 -18 45 -18 64 -1 30 1
33 23 27 32 -8 44 11 14 23 -74 27 -128 40 -144 34 -11 -4 -15 -3 -11 4 4 6 1
13 -5 16 -7 2 -9 8 -5 13 4 4 16 3 27 -4 12 -7 21 -8 25 -2 8 12 37 9 47 -4 8
-12 38 18 38 38 0 8 -8 17 -17 19 -14 4 -12 5 5 6 12 0 22 7 22 15 0 8 8 17
17 20 12 5 14 9 6 14 -32 20 18 78 58 68 12 -2 16 3 17 20 0 13 -4 24 -9 24
-5 0 -9 -7 -9 -16 0 -11 -5 -14 -16 -10 -9 4 -23 1 -30 -5 -8 -6 -14 -8 -14
-4 0 4 8 14 18 21 16 12 15 13 -5 14 -25 0 -29 10 -11 28 17 17 26 15 31 -5 4
-14 5 -12 6 5 1 18 -4 22 -28 22 -20 0 -30 6 -34 20 -7 27 -31 25 -61 -5 -14
-14 -29 -25 -35 -25 -5 0 -19 -13 -30 -29 -15 -20 -27 -28 -40 -24 -31 8 -35
33 -6 33 14 0 25 -6 26 -12 0 -7 4 -3 9 10 5 12 6 30 3 39 -4 10 -2 14 4 10 6
-4 11 4 11 19 0 31 1 33 49 49 27 10 32 14 16 15 -27 0 -29 6 -8 26 9 9 15 11
15 4 0 -6 5 -8 10 -5 6 4 7 11 4 17 -4 6 0 17 10 23 14 11 15 14 1 25 -8 7
-15 18 -15 25 0 7 -7 18 -15 25 -9 7 -14 19 -11 26 3 7 0 16 -6 20 -7 5 -8 2
-3 -6 6 -10 4 -12 -9 -7 -10 4 -23 7 -29 7 -7 0 -6 5 3 11 11 7 12 12 3 15 -7
3 -9 12 -6 20 4 10 0 12 -13 7 -16 -6 -17 -5 -6 9 9 11 10 18 2 23 -5 3 -10
12 -10 18 0 8 3 8 9 -2 5 -8 11 -9 15 -3 4 6 22 8 43 5 27 -5 34 -3 28 6 -5
10 2 12 29 8 38 -5 62 -17 34 -17 -9 0 -15 -7 -14 -16 0 -9 -5 -19 -11 -21 -7
-3 -13 3 -13 12 0 9 -5 13 -10 10 -6 -4 -8 -11 -5 -16 4 -5 -10 -9 -29 -9 -20
0 -36 -4 -36 -9 0 -4 18 -7 41 -5 l41 4 -16 -24 c-15 -23 -14 -24 15 -28 25
-4 28 -2 23 15 -4 12 -2 17 4 13 5 -3 12 8 15 24 5 22 11 28 22 24 24 -9 39
-44 26 -57 -6 -6 -11 -17 -11 -25 0 -12 3 -12 16 -1 10 8 14 24 12 46 -4 35 1
40 21 21 10 -11 11 -10 6 3 -4 10 -1 20 6 25 8 4 10 3 5 -4 -4 -7 -1 -12 9
-12 10 0 13 5 9 12 -5 8 0 9 14 6 12 -4 22 -2 22 3 0 5 -11 9 -25 9 -17 0 -29
8 -37 25 -11 24 -48 35 -48 14 0 -5 -5 -7 -11 -3 -8 4 -7 9 2 15 8 5 10 9 5 9
-5 0 -3 6 3 14 9 11 9 20 2 35 -7 13 -8 22 -1 26 17 11 11 25 -11 25 -11 0
-18 -4 -14 -9 3 -5 1 -12 -4 -15 -5 -4 -15 7 -23 24 -7 16 -19 30 -25 30 -7 0
-13 5 -13 10 0 6 -7 10 -16 10 -9 0 -14 6 -11 13 2 6 15 12 28 12 13 0 30 4
38 9 10 6 18 3 28 -9 7 -11 13 -13 13 -7 0 7 7 12 15 12 8 0 15 5 15 11 0 6
-9 8 -20 4 -12 -4 -27 -2 -34 4 -10 9 -21 8 -41 -1 -21 -10 -28 -9 -35 2 -4 7
-5 20 -2 29 5 12 8 11 10 -7 2 -13 9 -21 15 -19 7 2 11 11 9 20 -2 12 2 15 15
10 15 -6 16 -5 3 9 -8 9 -18 14 -22 12 -8 -5 -48 17 -48 26 0 9 55 6 61 -3 4
-5 17 -7 30 -5 19 3 15 6 -22 18 -27 8 -45 19 -43 25 3 6 -5 17 -18 23 -23 11
-23 11 5 11 17 1 26 5 22 12 -4 5 3 19 16 30 17 14 18 19 6 19 -8 0 -18 6 -20
13 -4 10 -6 10 -6 0 -1 -17 -47 -17 -54 0 -3 8 8 18 27 26 17 7 39 17 49 22
13 7 19 5 23 -5 3 -8 12 -12 20 -9 21 8 -11 35 -38 31 -15 -2 -24 3 -27 17 -4
11 -14 21 -23 21 -10 1 -16 -2 -13 -6 3 -4 -4 -10 -14 -13 -14 -3 -18 -1 -14
9 3 9 -2 14 -16 14 -25 0 -28 15 -5 24 9 3 47 6 85 6 44 0 68 4 64 10 -3 6 -1
10 5 10 6 0 8 5 5 10 -3 6 -16 10 -28 10 -21 1 -21 1 3 15 24 14 24 14 3 15
-12 0 -25 -5 -29 -12 -5 -8 -10 -6 -15 8 -7 17 -8 17 -8 2 -1 -18 -14 -21 -71
-20 -87 1 -94 7 -16 15 31 3 53 11 58 21 5 9 13 14 19 11 5 -4 9 -1 9 5 0 7
-8 9 -20 5 -11 -4 -20 -2 -20 4 0 6 -7 8 -15 5 -8 -4 -17 1 -21 10 -5 12 -10
14 -19 6 -9 -8 -19 -8 -32 -1 -10 5 -38 14 -63 19 -36 8 -15 10 101 8 116 -1
145 2 142 12 -8 20 -60 43 -79 35 -13 -5 -16 -3 -11 10 5 12 0 18 -18 23 -13
3 -29 3 -34 -1 -7 -4 -11 5 -11 23 0 16 -7 36 -17 43 -15 13 -15 12 -4 -8 7
-14 8 -23 2 -23 -6 0 -13 15 -16 33 -6 32 -7 32 -62 32 -50 0 -57 -3 -65 -24
-8 -23 -11 -24 -86 -18 -47 3 -69 2 -57 -3 18 -8 17 -9 -7 -9 -15 -1 -39 4
-55 10 -26 10 -27 12 -8 19 14 6 5 9 -32 9 -29 1 -53 -3 -53 -8 0 -15 -40 -25
-104 -26 -61 0 -92 -21 -40 -27 15 -2 29 -8 31 -13 5 -17 -47 -16 -63 0 -9 8
-12 15 -8 15 3 0 1 7 -6 15 -14 17 -55 21 -45 4 4 -6 13 -8 21 -5 8 3 14 1 14
-4 0 -6 -4 -10 -10 -10 -5 0 -10 -4 -10 -10 0 -5 9 -10 20 -10 11 0 23 -6 26
-13 3 -10 21 -11 72 -6 71 7 93 4 46 -7 -80 -18 -104 -26 -104 -34 0 -6 -7
-10 -15 -10 -10 0 -12 6 -8 18 6 16 6 16 -9 1 -12 -12 -31 -15 -70 -13 -29 2
-84 4 -123 4 -75 1 -66 18 10 19 60 1 30 20 -41 26 -32 2 -61 5 -64 6 -3 0 15
7 40 14 l45 14 -50 -6 c-27 -3 -51 -10 -53 -14 -2 -5 -28 -9 -58 -9 -36 0 -54
-4 -54 -12 0 -9 -4 -7 -10 2 -5 9 -20 15 -37 14 -15 -1 -36 -3 -46 -3 -10 -1
-15 -5 -12 -11 3 -5 3 -11 -2 -11 -41 -7 -59 -4 -70 10 -9 11 -12 12 -13 3 0
-7 -4 -10 -10 -7 -5 3 -10 2 -10 -4 0 -5 -80 -10 -204 -10 -176 -1 -206 1
-214 14 -7 13 -14 14 -36 5 -35 -13 -56 -13 -36 0 13 8 13 10 -2 10 -9 0 -19
-4 -23 -9 -3 -6 -19 -8 -35 -6 -17 2 -30 0 -30 -5 0 -11 -171 -8 -188 4 -8 5
-18 4 -23 -1 -9 -9 -64 -4 -196 16 -34 5 -56 4 -63 -3 -7 -7 -16 -7 -28 0 -9
6 -35 10 -57 9 -22 -1 -45 2 -51 7 -6 4 -19 5 -28 2 -15 -6 -15 -8 1 -21 16
-13 16 -13 -6 -3 -16 8 -26 9 -30 2 -3 -6 -19 -14 -35 -18 -21 -5 -27 -4 -22
5 4 6 3 11 -3 11 -5 0 -11 -6 -14 -12 -2 -7 -8 -10 -12 -6 -13 12 5 27 40 34
46 8 54 22 13 20 -31 -1 -68 -26 -68 -46 0 -5 -6 -10 -12 -11 -7 -1 -2 -5 12
-9 24 -8 23 -8 -7 -9 -26 -1 -33 3 -33 19 0 13 5 18 15 14 20 -8 19 10 0 26
-12 10 -13 15 -4 20 8 6 8 9 0 14 -6 4 -11 2 -11 -3 0 -6 -7 -11 -15 -11 -8 0
-15 -4 -15 -10 0 -5 -15 -9 -32 -9 -31 2 -31 2 -5 6 45 7 31 18 -18 15 -34 -3
-46 0 -51 12 -3 9 -13 16 -21 16 -8 0 -12 -4 -8 -9 3 -5 -3 -12 -12 -14 -11
-3 -6 -5 11 -6 33 -1 31 -9 -3 -16 -13 -2 -32 -7 -43 -11 -13 -4 -24 -1 -29 7
-6 10 -9 11 -9 2 0 -9 -18 -13 -57 -13 -31 0 -53 -3 -49 -7 4 -5 12 -9 17 -9
5 -1 14 -2 19 -3 6 0 10 -6 10 -12 0 -14 -152 -4 -181 12 -12 6 -25 6 -37 0
-23 -12 -110 -2 -116 15 -4 10 1 11 20 4 15 -6 23 -6 19 -1 -3 5 3 12 12 14
10 3 -2 5 -28 6 -25 0 -51 7 -58 14 -11 10 -13 9 -7 -1 5 -8 -2 -14 -23 -18
-17 -4 -33 -14 -36 -25 -5 -14 -16 -18 -55 -17 -54 0 -65 13 -25 28 14 5 25
14 25 20 0 12 -47 14 -54 1 -3 -4 -17 -6 -31 -3 -15 2 -25 0 -25 -7 0 -7 -4
-10 -9 -7 -5 4 -17 3 -26 0 -13 -6 -14 -9 -3 -16 8 -6 5 -7 -12 -3 -14 3 -41
7 -60 9 -19 3 -37 5 -40 5 -17 3 65 41 87 41 42 0 23 7 -37 13 -35 4 -50 3
-40 -3 26 -16 -16 -23 -98 -16 -80 7 -136 31 -111 47 20 12 10 16 -56 23 l-60
7 38 -15 c46 -17 63 -31 70 -56 4 -17 0 -20 -24 -20 -16 0 -29 -5 -29 -11 0
-7 -10 -9 -25 -7 -26 5 -35 -6 -12 -15 8 -4 7 -6 -3 -6 -21 -1 -35 10 -50 38
-11 21 -10 23 4 18 10 -4 15 -3 11 3 -3 6 -15 10 -26 10 -11 0 -17 -4 -14 -10
3 -5 -4 -11 -17 -11 -19 -1 -18 -3 7 -9 26 -7 27 -8 6 -9 -16 -1 -21 -5 -17
-16 5 -15 -9 -16 -44 -2 -58 22 -226 40 -248 27 -15 -9 -14 -10 8 -8 14 1 31
-1 38 -6 7 -4 43 -10 79 -12 65 -3 98 -13 52 -15 -75 -3 -185 4 -190 13 -4 7
-8 6 -11 -2 -2 -7 -26 -14 -52 -17 -36 -4 -47 -3 -42 6 5 8 -9 11 -48 11 -31
0 -56 4 -56 9 0 12 -80 20 -105 10 -18 -7 -18 -8 5 -10 14 -1 36 -1 50 0 25 2
25 2 -4 -14 -31 -16 -56 -20 -56 -7 0 5 -15 7 -32 5 -33 -4 -33 -4 -9 10 23
13 20 15 -50 25 -69 10 -95 8 -166 -13 -12 -4 -30 -2 -40 4 -15 9 -13 10 17
11 l35 1 -29 15 c-15 9 -36 14 -46 11 -10 -2 -24 -1 -31 4 -9 5 7 9 43 9 36 0
58 -4 61 -12 2 -7 18 -13 34 -13 22 0 29 3 22 11 -10 12 53 23 169 29 51 3 62
1 62 -12 0 -11 -7 -14 -26 -10 -14 2 -22 1 -17 -4 5 -5 30 -13 56 -18 39 -7
47 -6 47 6 0 11 6 13 20 9 50 -15 65 -18 51 -8 -11 8 -11 11 0 16 8 3 3 5 -11
5 -62 -2 -100 2 -100 11 0 6 11 10 25 10 14 0 25 4 25 9 0 5 -12 8 -27 6 -16
-2 -68 0 -118 5 -169 16 -231 19 -210 11 19 -8 18 -9 -7 -16 -15 -4 -36 -2
-50 6 -12 7 -25 11 -28 10 -9 -5 -248 9 -385 21 -71 7 -134 11 -139 10 -4 -2
-22 1 -40 6 -17 6 -58 16 -91 23 l-60 13 45 7 c25 4 64 13 88 19 37 11 52 10
101 -5 31 -9 68 -15 81 -13 24 3 24 4 5 15 -11 6 -53 14 -94 17 -66 6 -119 21
-109 31 2 2 41 0 88 -4 47 -5 89 -4 94 0 6 6 2 10 -10 10 -10 1 -30 3 -44 6
-14 2 -49 5 -78 7 -29 3 -58 8 -65 14 -16 12 -76 22 -167 27 -62 4 -89 0 -155
-23z m360 -219 c39 -9 109 -18 156 -20 81 -5 86 -6 81 -25 -4 -18 -10 -19 -51
-13 -25 4 -47 11 -49 16 -2 5 -8 9 -13 9 -4 0 -6 -7 -2 -16 5 -13 2 -15 -17
-9 -12 4 -46 7 -76 6 -29 0 -86 8 -126 18 -40 11 -90 22 -112 26 -38 6 -39 18
-1 28 29 8 129 -2 210 -20z m3932 -174 c7 -7 14 -6 18 1 8 14 245 4 260 -11 7
-7 -3 -9 -30 -8 -22 1 -57 -1 -77 -5 -24 -5 -38 -5 -38 2 0 5 -9 12 -20 15
-11 3 -18 0 -17 -7 1 -6 -7 -10 -17 -8 -11 2 -39 -2 -64 -9 -40 -11 -45 -10
-54 6 -8 14 -12 15 -19 4 -7 -11 -11 -11 -17 -1 -5 8 -16 10 -27 6 -11 -5 -16
-3 -12 2 4 7 -19 7 -65 2 -53 -6 -74 -5 -86 4 -12 10 -14 10 -8 1 5 -9 1 -13
-13 -13 -11 0 -27 -7 -35 -16 -12 -12 -16 -12 -16 -2 0 10 -3 9 -10 -2 -8 -12
-12 -12 -18 -3 -9 14 -142 23 -142 10 0 -5 -12 -6 -27 -3 -16 3 -53 8 -83 12
l-55 8 45 8 c60 11 150 15 150 7 0 -15 105 -16 128 -2 13 8 30 12 38 9 10 -4
12 -2 8 5 -9 14 285 2 303 -12z m-4542 -988 c3 -5 -3 -12 -12 -14 -10 -3 -1
-5 19 -4 40 1 82 -27 74 -49 -5 -13 20 -29 41 -25 6 1 14 -3 18 -9 3 -5 -3
-10 -14 -10 -12 0 -21 -4 -21 -10 0 -5 -12 -13 -27 -16 -25 -7 -25 -8 -8 -15
17 -6 16 -8 -7 -8 -16 -1 -28 -5 -28 -10 0 -6 -9 -9 -20 -8 -12 1 -18 7 -16
14 3 7 0 13 -6 13 -6 0 -17 8 -25 18 -14 16 -14 16 -9 0 3 -11 0 -18 -8 -18
-18 0 -25 10 -19 26 6 17 40 19 45 2 6 -16 28 -1 28 19 0 9 -6 13 -15 9 -9 -3
-15 0 -15 10 0 8 5 12 10 9 6 -3 10 -1 10 4 0 6 5 11 10 11 6 0 10 -7 10 -15
0 -8 4 -15 9 -15 5 0 11 -9 14 -20 3 -11 11 -20 17 -20 7 0 10 7 6 16 -3 9 -6
20 -6 25 0 5 -7 9 -15 9 -8 0 -15 6 -15 14 0 9 -16 17 -41 21 -24 4 -37 10
-30 15 7 4 11 11 10 16 -4 24 23 35 36 15z"/>
<path d="M2070 2042 c0 -4 6 -14 13 -21 10 -11 9 -13 -6 -7 -10 3 -23 6 -28 6
-6 0 -7 5 -4 10 3 6 1 10 -4 10 -6 0 -11 -5 -11 -11 0 -6 -15 -9 -34 -8 -60 6
-51 -9 11 -17 65 -8 104 -20 114 -36 4 -6 41 -12 83 -14 41 -1 80 -5 86 -9 6
-4 39 -11 74 -16 35 -4 72 -11 82 -14 10 -4 2 3 -18 15 -21 11 -82 32 -135 46
-54 14 -108 32 -120 40 -13 8 -23 10 -23 4 0 -5 -9 -10 -20 -10 -11 0 -20 5
-20 10 0 6 5 10 12 10 6 0 8 3 4 7 -10 11 -56 15 -56 5z"/>
</g>
</svg>
