<?xml version="1.0" standalone="no"?>
<!DOCTYPE svg PUBLIC "-//W3C//DTD SVG 20010904//EN"
 "http://www.w3.org/TR/2001/REC-SVG-20010904/DTD/svg10.dtd">
<svg version="1.0" xmlns="http://www.w3.org/2000/svg"
 width="1024.000000pt" height="724.000000pt" viewBox="0 0 1024.000000 724.000000"
 preserveAspectRatio="xMidYMid meet">
<metadata>
Created by potrace 1.16, written by Peter Selinger 2001-2019
</metadata>
<g transform="translate(0.000000,724.000000) scale(0.100000,-0.100000)"
fill="#000000" stroke="none">
<path d="M7985 5691 c-75 -4 -139 -11 -152 -18 -12 -7 -39 -13 -60 -12 -30 0
-34 2 -18 9 18 8 17 9 -6 9 -15 1 -29 -6 -33 -14 -3 -8 -15 -15 -27 -15 -14 0
-19 -5 -16 -14 4 -10 0 -12 -14 -9 -10 3 -19 1 -19 -5 0 -5 6 -10 13 -9 50 2
97 -5 97 -13 0 -5 -19 -11 -42 -11 l-43 -1 50 -14 50 -13 -90 4 c-55 3 -82 1
-70 -4 36 -15 -190 -24 -420 -16 -299 10 -970 7 -970 -5 0 -1 -10 -3 -22 -4
-13 -2 -23 1 -23 5 0 4 -8 6 -17 4 -10 -2 -44 -6 -75 -9 -50 -4 -56 -2 -51 12
6 15 5 15 -11 3 -12 -10 -39 -14 -79 -14 -63 1 -56 -14 8 -17 30 -2 30 -2 5
-10 -24 -8 -23 -8 8 -9 19 -1 32 4 32 12 0 8 3 8 8 2 4 -6 21 -11 37 -11 17 0
33 5 37 11 5 6 8 6 8 -2 0 -7 9 -13 20 -13 11 0 20 5 20 11 0 6 7 8 15 5 8 -3
22 -9 32 -13 11 -4 14 -3 9 6 -6 10 31 11 171 8 149 -4 322 -21 260 -26 -10 0
-16 -5 -12 -11 3 -5 -12 -9 -37 -8 -24 0 -166 -2 -317 -5 -232 -5 -275 -4
-288 8 -8 9 -30 14 -51 13 l-37 -1 38 -4 c37 -4 53 -21 20 -22 -10 -1 -25 -1
-33 -1 -8 0 -27 1 -42 4 -16 2 -30 0 -34 -5 -7 -12 -44 -12 -44 0 0 5 6 12 13
14 9 4 9 6 -1 6 -7 1 -15 -6 -18 -14 -5 -12 -18 -14 -63 -11 -37 3 -49 2 -36
-4 19 -8 19 -9 -2 -9 -13 -1 -23 4 -23 9 0 7 -36 9 -107 6 -65 -3 -96 -2 -78
3 35 10 29 11 -97 14 -47 1 -84 -1 -82 -4 7 -11 -18 -15 -88 -15 -50 1 -68 -3
-68 -12 0 -8 7 -11 18 -8 9 3 46 2 82 -3 l65 -9 -87 1 c-66 0 -88 4 -88 14 0
7 -8 13 -17 13 -14 0 -15 2 -4 9 7 5 11 13 7 19 -3 6 7 13 24 17 47 10 35 22
-20 22 -47 -1 -62 -9 -41 -21 16 -10 5 -41 -15 -44 -16 -3 -16 -1 -4 7 15 10
8 25 -13 27 -7 0 -30 2 -52 4 l-40 3 45 7 c25 5 -13 5 -85 2 -71 -3 -215 -6
-320 -6 -104 -1 -180 -2 -167 -4 32 -5 17 -22 -19 -22 -17 0 -32 6 -35 15 -3
8 -21 17 -40 21 -38 7 -57 -2 -35 -16 10 -6 7 -8 -10 -8 -13 0 -53 -3 -89 -7
-60 -7 -64 -6 -45 9 20 15 19 15 -7 16 -15 0 -30 -5 -34 -12 -5 -7 -11 -5 -21
7 -12 18 -13 17 -13 -6 0 -17 -3 -20 -9 -11 -5 9 -27 13 -62 12 -30 -1 -102
-1 -161 0 -90 0 -106 3 -102 15 5 12 -3 15 -37 14 l-44 -2 35 -6 c30 -6 32 -8
14 -14 -23 -8 -160 0 -177 10 -5 3 -60 7 -120 9 -60 1 -112 6 -116 11 -3 5
-51 6 -106 2 -131 -9 -279 -11 -299 -3 -9 3 -13 11 -10 16 4 7 -7 8 -32 4 -84
-13 -219 -1 -219 19 0 6 -3 15 -7 21 -4 6 -5 14 -2 17 9 9 107 -4 123 -17 17
-13 71 -17 71 -5 0 5 -12 9 -27 9 -14 0 -24 3 -20 6 3 3 97 9 209 13 172 7
141 8 -202 7 -223 0 -357 -2 -298 -3 107 -4 108 -4 123 -32 8 -16 20 -31 27
-34 7 -2 10 -8 6 -12 -8 -9 -93 -8 -206 1 -52 4 -87 3 -95 -4 -8 -7 -45 -8
-107 -3 l-95 8 95 3 c93 2 94 3 46 13 -64 13 -320 -28 -312 -50 3 -7 -1 -13
-10 -13 -8 0 -12 -4 -9 -10 3 -5 -2 -10 -11 -10 -14 0 -13 -3 6 -20 13 -11 21
-22 19 -24 -2 -3 -45 -1 -94 3 -79 7 -83 9 -35 11 30 1 47 4 37 7 -9 2 -15 9
-12 14 7 11 -239 11 -305 0 l-45 -7 60 -9 c33 -4 69 -11 80 -16 18 -7 18 -8
-5 -9 -19 -2 -14 -5 20 -15 25 -7 37 -13 28 -14 -10 -1 -18 -5 -18 -10 0 -4
11 -6 25 -3 14 2 25 8 25 13 0 5 29 9 65 9 37 0 65 -4 65 -10 0 -6 -28 -10
-62 -11 -35 0 -57 -3 -50 -6 25 -10 11 -22 -22 -16 -19 3 -36 1 -40 -6 -4 -6
-17 -12 -29 -12 -17 -1 -15 -3 8 -9 21 -5 24 -8 10 -10 l-20 -1 20 -9 c16 -7
17 -9 3 -9 -9 -1 -20 3 -23 9 -3 5 -19 7 -35 3 -22 -4 -30 -2 -30 8 -1 10 -5
8 -15 -4 -9 -13 -20 -17 -33 -13 -11 4 -23 2 -27 -4 -3 -5 1 -10 9 -10 26 0
27 -17 2 -33 -13 -9 -41 -18 -62 -21 -21 -3 -31 -3 -21 0 9 3 17 13 17 22 0
12 -3 14 -8 5 -5 -7 -32 -15 -61 -17 -29 -3 -56 -8 -60 -12 -3 -3 14 -3 38 1
54 9 49 -9 -6 -21 -52 -11 -66 -12 -83 -3 -15 7 -50 -6 -100 -37 l-25 -16 33
6 c28 5 31 4 19 -8 -9 -9 -30 -13 -63 -10 l-49 3 44 -9 c24 -5 46 -11 48 -14
8 -8 76 16 92 32 14 14 13 15 -14 8 -21 -5 -26 -4 -15 3 15 11 90 8 109 -3 6
-4 11 -2 11 3 0 6 5 11 11 11 5 0 9 -8 7 -17 -1 -10 1 -23 5 -30 4 -7 -4 -16
-23 -25 -18 -8 -30 -20 -30 -32 0 -14 -5 -17 -25 -12 -14 3 -36 9 -50 12 -15
4 -25 2 -25 -5 0 -6 -9 -11 -20 -11 -11 0 -20 -4 -20 -9 0 -6 10 -7 23 -5 55
14 71 14 38 1 -44 -17 -51 -35 -13 -29 22 3 29 0 29 -13 0 -9 -6 -14 -14 -11
-7 3 -13 1 -13 -3 0 -11 -82 -2 -95 11 -7 6 -1 17 15 30 l25 21 -25 -8 c-14
-4 -42 -9 -62 -12 -29 -4 -38 -10 -38 -24 0 -10 7 -19 15 -19 18 0 18 -5 5
-31 -6 -10 -17 -19 -25 -19 -8 0 -15 -3 -15 -7 0 -5 28 -9 63 -11 39 -2 57 1
48 6 -10 8 -11 11 -1 17 10 6 9 11 -5 22 -11 7 -14 13 -8 13 7 0 15 -5 18 -10
4 -6 16 -8 27 -4 15 4 18 3 13 -6 -5 -9 -3 -9 11 -2 29 14 83 25 64 12 -30
-20 13 -11 48 10 18 11 42 19 55 19 19 -1 20 -2 3 -6 -36 -9 -47 -28 -27 -45
10 -9 24 -18 32 -21 9 -4 7 -6 -6 -6 -52 3 -65 -1 -65 -20 0 -20 -34 -31 -99
-31 -43 -1 -147 -33 -144 -46 2 -13 23 -17 23 -5 0 7 25 10 68 10 37 -1 57 -4
45 -6 -13 -2 -23 -9 -23 -14 0 -5 -7 -9 -16 -9 -9 0 -12 5 -8 11 4 7 1 10 -7
7 -8 -3 -16 -13 -17 -23 -3 -10 0 -15 7 -11 6 4 17 3 25 -1 11 -6 11 -10 1
-20 -10 -9 -19 -8 -40 3 -39 20 -58 18 -50 -5 4 -13 0 -21 -12 -24 -10 -3 11
-4 47 -2 l65 4 -40 -19 c-22 -11 -46 -20 -54 -20 -8 0 -11 -3 -8 -6 4 -4 -2
-15 -13 -24 -20 -18 -20 -18 4 -24 13 -3 32 -3 40 0 9 3 16 2 16 -4 0 -5 11
-7 25 -4 17 3 25 0 25 -9 0 -8 -10 -15 -22 -16 -23 -3 -77 -9 -90 -12 -5 0 -8
-6 -8 -12 0 -5 4 -7 10 -4 5 3 17 2 26 -3 14 -8 13 -10 -7 -13 -13 -3 -40 -2
-59 1 l-35 6 26 13 c14 7 30 21 36 31 10 15 9 17 -10 12 -28 -7 -62 -29 -63
-42 -1 -6 -2 -14 -3 -20 0 -5 -8 -10 -17 -10 -8 0 -13 4 -10 9 4 5 -3 7 -14 4
-11 -3 -17 -9 -14 -14 3 -5 -1 -9 -8 -10 -31 -1 31 -18 70 -18 24 -1 41 -5 38
-9 -3 -5 18 -8 47 -6 47 3 49 3 17 -6 -19 -5 -50 -15 -69 -23 -33 -14 -34 -15
-13 -26 16 -9 22 -9 22 0 0 7 7 8 18 4 22 -9 110 -10 119 -2 3 4 -7 7 -22 7
-28 0 -29 1 -11 18 13 12 20 14 23 5 4 -10 10 -10 26 2 12 8 28 15 37 14 8 0
2 -7 -15 -14 -29 -13 -29 -14 -6 -15 22 0 23 -1 8 -12 -15 -11 -7 -13 45 -11
35 1 55 -1 45 -3 -9 -3 -15 -9 -12 -14 3 -4 -3 -7 -13 -6 -9 0 -16 -4 -15 -10
1 -6 -18 -14 -44 -18 -56 -7 -68 -1 -22 13 21 5 26 10 14 10 -29 1 -65 -10
-60 -19 5 -8 -104 -40 -138 -40 -13 0 -32 -7 -43 -15 -10 -8 -30 -15 -43 -15
-19 0 -22 -3 -14 -11 9 -9 27 -6 72 11 33 12 65 19 70 15 6 -3 11 -1 11 4 0 6
11 11 25 11 14 0 25 -4 25 -10 0 -5 7 -10 15 -10 8 0 15 7 15 16 0 10 6 14 14
11 8 -3 31 -9 50 -13 20 -3 36 -10 36 -14 0 -4 12 -5 26 -2 16 3 21 7 14 12
-8 5 -4 9 11 13 13 4 26 1 30 -5 4 -6 15 -13 24 -14 34 -5 25 -11 -25 -18 -28
-4 -48 -11 -46 -15 3 -5 16 -6 29 -4 13 3 39 0 58 -6 l34 -11 -33 5 c-20 3
-31 1 -27 -5 3 -6 18 -10 33 -10 20 0 23 -3 13 -9 -15 -10 -61 6 -61 21 0 4
-5 8 -11 8 -5 0 -8 -4 -5 -9 4 -5 -30 -8 -79 -6 -48 2 -85 -1 -85 -6 0 -13 87
-15 135 -3 l20 5 -20 -13 c-21 -13 -26 -15 -52 -17 -14 -1 -15 -3 -5 -10 10
-6 9 -10 -7 -14 -14 -3 -21 0 -21 9 0 8 -6 14 -14 14 -26 0 -26 -17 -1 -30 13
-7 21 -18 18 -26 -3 -9 2 -14 12 -14 9 0 14 4 11 8 -2 4 7 7 22 7 15 -1 32 2
37 6 13 10 98 29 103 24 8 -7 -65 -34 -104 -38 -22 -2 -51 -11 -64 -20 -22
-15 -20 -16 34 -10 40 4 56 2 56 -6 0 -7 4 -10 8 -7 4 2 14 1 22 -5 11 -6 8
-9 -12 -9 -16 0 -28 5 -28 10 0 6 -13 10 -30 10 -16 0 -30 -5 -30 -11 0 -6 7
-9 15 -6 8 4 17 2 20 -3 4 -6 -5 -10 -19 -10 -14 0 -26 5 -26 10 0 6 -9 10
-19 10 -11 0 -23 5 -26 10 -3 6 -14 10 -23 9 -13 0 -12 -3 5 -11 13 -6 23 -15
23 -21 0 -5 7 -6 16 -3 8 3 12 2 9 -4 -3 -6 -13 -10 -21 -10 -8 0 -12 -4 -9
-10 3 -5 -1 -10 -10 -10 -8 0 -18 -7 -21 -15 -4 -10 -15 -13 -33 -10 -22 4
-23 4 -6 -4 11 -5 40 -7 65 -5 41 4 39 3 -15 -10 -33 -8 -73 -11 -90 -8 l-30
6 25 8 c18 5 15 6 -10 2 -19 -4 -43 -7 -52 -7 -34 -2 -5 -17 33 -17 21 0 39
-4 39 -10 0 -6 9 -6 26 0 45 18 50 10 9 -15 -34 -21 -37 -24 -17 -25 13 0 21
-4 17 -10 -3 -5 -15 -6 -27 -1 -28 10 -65 2 -72 -15 -4 -9 2 -14 15 -14 11 0
17 -4 14 -10 -3 -6 1 -7 9 -4 9 3 13 11 9 18 -3 6 -1 6 8 -2 18 -17 59 -15 59
3 0 9 6 12 15 9 8 -4 12 -10 9 -15 -3 -5 2 -9 11 -9 11 0 15 5 11 15 -9 25 38
49 71 37 l28 -10 -26 -1 c-28 -1 -47 -35 -26 -48 14 -9 -69 -33 -115 -33 -20
0 -38 4 -40 9 -1 5 -12 3 -22 -5 -11 -8 -15 -14 -8 -14 6 0 9 -7 6 -15 -7 -17
-84 -22 -84 -5 0 6 10 10 22 10 12 0 18 3 15 7 -4 3 0 14 9 24 15 16 13 17
-25 7 -30 -8 -41 -16 -41 -29 0 -12 -10 -21 -31 -26 -16 -5 -30 -13 -29 -18 1
-13 50 -26 73 -19 10 3 17 0 17 -8 0 -10 -11 -12 -39 -10 -28 3 -44 -1 -58
-15 -10 -10 -37 -24 -60 -32 -23 -8 -40 -18 -37 -22 3 -5 -1 -9 -8 -10 -17 -1
23 -18 42 -18 9 0 8 4 -5 9 -18 8 -17 9 8 9 28 1 37 15 15 24 -7 3 -3 6 9 6
12 1 25 5 28 11 3 5 11 10 17 10 6 0 1 -8 -10 -19 -31 -26 -27 -33 12 -26 20
4 52 1 80 -9 53 -18 56 -19 55 -8 -4 22 3 32 24 31 16 -1 18 -2 5 -6 -10 -2
-18 -8 -18 -13 0 -5 7 -7 15 -4 8 4 27 3 41 0 21 -6 24 -9 14 -21 -7 -8 -16
-13 -20 -10 -5 3 -11 1 -15 -5 -9 -15 -66 -13 -63 3 2 7 -5 11 -17 9 -11 -2
-30 -5 -43 -6 -12 -1 -28 -10 -35 -19 -15 -20 -81 -28 -82 -9 0 6 -3 12 -7 12
-36 0 -42 -2 -28 -7 24 -10 31 -27 12 -35 -26 -10 -90 -9 -97 1 -7 12 28 32
47 28 7 -2 10 -2 6 0 -5 3 -8 11 -8 19 0 18 -5 18 -35 -2 -14 -9 -25 -24 -25
-34 0 -19 -19 -30 -51 -30 -11 0 -17 -4 -14 -10 3 -5 18 -10 33 -10 22 0 24
-2 12 -11 -11 -8 6 -9 60 -5 74 6 74 6 41 -9 -19 -9 -41 -13 -48 -10 -8 2 -12
1 -9 -4 3 -5 -2 -12 -12 -16 -16 -7 -15 -8 3 -15 11 -5 31 -6 44 -3 16 4 22 2
17 -5 -9 -14 18 -6 53 17 22 14 22 15 5 28 -10 7 -13 13 -8 13 6 0 15 -5 22
-12 7 -7 12 -8 12 -3 0 6 4 4 9 -4 5 -8 25 -13 50 -13 39 1 41 -1 35 -24 -6
-23 -5 -24 21 -14 33 12 42 13 29 1 -13 -13 -84 -31 -84 -22 0 5 -11 6 -25 3
-14 -2 -25 -8 -25 -12 0 -11 -113 -42 -140 -38 -16 2 -34 -5 -50 -19 -14 -13
-33 -23 -44 -23 -11 0 -17 -3 -13 -6 7 -7 137 24 153 37 6 5 13 6 16 3 3 -3
38 -6 77 -7 74 -1 94 -14 69 -45 -11 -13 -9 -15 15 -10 29 6 37 -6 11 -16 -9
-4 -22 -1 -30 4 -15 13 -61 9 -89 -7 -19 -11 -19 -12 5 -11 54 3 82 -2 77 -14
-2 -8 -17 -12 -37 -10 l-33 4 27 -25 26 -24 -82 -9 c-78 -8 -80 -9 -30 -12 36
-2 52 -7 52 -17 0 -7 8 -16 18 -19 9 -2 0 -2 -20 1 -32 4 -38 2 -51 -24 l-15
-28 41 4 c23 2 36 6 30 8 -28 10 -10 23 30 22 23 -1 34 -3 25 -6 -26 -7 -22
-20 10 -32 24 -10 23 -11 -16 -6 -64 8 -51 -8 30 -35 40 -14 65 -26 55 -28
-10 -2 -31 1 -47 8 -23 9 -34 9 -60 -5 -25 -13 -29 -19 -19 -25 7 -5 17 -6 22
-3 11 7 101 -7 93 -14 -3 -3 -25 -8 -48 -10 -24 -3 -56 -8 -73 -13 l-30 -8 32
-1 c17 -1 43 -5 57 -11 33 -12 89 -2 82 16 -3 9 4 11 27 7 18 -3 42 -6 54 -7
36 -2 10 -16 -38 -20 -24 -2 -47 -4 -51 -5 -18 -2 -6 -19 17 -25 33 -8 35 -46
3 -46 -19 0 -20 -2 -8 -10 12 -8 9 -10 -12 -10 -27 0 -40 -19 -15 -21 6 -1 -1
-4 -17 -8 -35 -7 -46 -41 -13 -41 21 1 21 1 4 14 -16 13 -14 14 26 17 39 4 43
2 43 -18 0 -12 -2 -21 -5 -21 -19 2 -24 -4 -11 -12 12 -8 12 -10 -5 -10 -11 0
-31 -3 -45 -6 -20 -4 -22 -3 -10 5 13 9 13 11 -2 11 -33 0 -19 -29 15 -32 55
-5 30 -23 -31 -21 l-57 1 63 -22 c35 -12 63 -26 62 -31 -1 -6 -5 -9 -9 -9 -59
12 -84 14 -71 5 13 -9 13 -11 1 -11 -13 0 -13 -2 -2 -12 11 -10 14 -10 18 0 6
15 24 16 21 0 -2 -7 10 -12 28 -14 17 -1 40 -7 50 -13 15 -9 10 -11 -31 -7
-27 3 -41 3 -31 0 15 -5 16 -8 5 -16 -10 -7 -7 -8 11 -4 14 3 32 1 40 -4 13
-8 13 -10 -2 -10 -9 0 -19 -4 -22 -9 -4 -5 2 -7 13 -4 21 5 37 -12 21 -22 -5
-3 -10 -2 -10 3 0 6 -10 8 -22 4 -20 -5 -19 -7 12 -18 l35 -12 -43 -7 c-38 -7
-40 -9 -25 -21 16 -12 16 -12 -6 -7 -17 4 -22 3 -17 -5 5 -8 0 -12 -13 -12
-12 0 -21 -5 -21 -11 0 -6 9 -8 20 -4 11 3 27 2 36 -3 14 -8 11 -11 -15 -20
-34 -12 -43 -23 -12 -15 23 6 64 -14 56 -28 -4 -5 5 -9 19 -9 13 0 32 -7 40
-16 21 -21 20 -22 -12 -17 -19 3 -23 2 -13 -5 10 -7 6 -12 -20 -18 l-34 -7 34
-9 c53 -14 22 -33 -54 -33 -50 0 -62 -3 -50 -11 8 -6 12 -14 9 -17 -3 -3 3 -3
14 0 11 3 29 0 39 -6 10 -6 12 -11 6 -11 -21 0 -15 -18 9 -26 l21 -6 -23 -18
-23 -18 22 -7 c15 -5 20 -12 16 -23 -4 -10 2 -23 17 -34 l23 -18 -27 0 -28 0
40 -40 c40 -40 41 -40 101 -35 44 4 59 2 54 -6 -5 -8 -1 -8 14 1 12 6 32 8 44
4 12 -4 41 -6 65 -5 30 1 41 -2 36 -10 -12 -20 17 -27 102 -21 58 3 88 1 98
-7 10 -9 37 -11 83 -7 39 4 62 2 55 -3 -17 -11 7 -21 46 -20 l27 1 -25 8 c-24
8 -23 8 7 9 25 1 31 -2 27 -14 -8 -21 -46 -29 -137 -29 -71 -1 -76 -2 -50 -13
15 -7 41 -10 57 -7 17 4 31 1 36 -6 4 -7 34 -16 66 -20 l59 -7 -55 -3 -55 -2
40 -8 c42 -9 193 -5 203 5 3 3 -20 5 -50 5 -39 0 -58 4 -61 14 -3 8 -3 17 0
20 10 10 83 7 83 -4 0 -5 23 -10 52 -10 50 0 57 -12 13 -23 -11 -3 50 -6 135
-6 85 -1 184 -4 220 -6 36 -2 78 -4 93 -5 16 0 26 -3 24 -8 -3 -4 65 -8 151
-10 86 -1 158 -5 161 -7 2 -3 -47 -5 -110 -6 -141 -1 -131 -7 32 -18 117 -8
119 -8 41 -10 -56 -1 -81 -4 -77 -12 4 -6 13 -8 21 -5 7 3 16 1 19 -4 4 -6 1
-10 -6 -10 -7 0 -9 -3 -6 -6 4 -4 18 1 31 10 18 11 41 15 81 12 78 -6 82 -16
7 -16 -58 0 -79 -10 -49 -24 6 -3 -7 -4 -30 -1 -23 3 -45 1 -48 -5 -3 -6 -16
-8 -29 -4 -13 3 -27 0 -34 -8 -9 -12 0 -13 61 -6 52 5 73 4 79 -5 5 -7 8 -8 8
-1 0 7 55 11 174 10 97 -1 169 3 163 7 -8 6 -5 7 6 3 10 -3 58 -7 105 -8 82
-1 84 -2 32 -8 l-55 -7 46 -1 c26 -1 61 1 80 5 28 5 30 7 14 14 -11 4 7 5 40
2 63 -6 86 -13 44 -13 -20 0 -21 -2 -9 -11 11 -8 4 -9 -27 -7 -44 4 -57 -5
-26 -16 15 -6 15 -8 3 -16 -10 -6 36 -8 125 -5 91 3 151 0 172 -7 22 -8 36 -9
43 -2 6 6 81 9 200 7 165 -3 190 -1 190 12 0 18 17 20 22 3 5 -15 178 -38 200
-27 10 6 34 6 58 0 25 -6 42 -5 46 1 3 5 13 7 22 3 16 -6 274 -8 435 -3 48 2
87 1 87 -2 0 -3 -5 -11 -12 -18 -8 -8 -9 -12 -1 -12 6 0 13 5 15 11 5 16 153
25 162 10 9 -13 108 -15 122 -2 5 5 34 10 64 11 78 2 85 -2 15 -10 l-60 -7 67
-1 c37 -1 69 -6 72 -11 4 -5 20 -6 39 -1 17 5 66 11 107 14 41 3 86 8 100 12
19 4 21 3 11 -4 -11 -8 -2 -9 30 -5 24 3 46 10 47 14 2 5 13 9 23 9 11 0 17
-5 14 -10 -6 -10 95 -17 192 -12 29 2 62 -2 74 -8 12 -7 19 -8 16 -3 -5 7 272
10 281 3 7 -6 62 -4 62 3 0 4 14 7 30 7 17 0 30 -5 30 -11 0 -9 4 -9 14 0 8 7
30 9 58 5 30 -4 48 -2 53 5 5 9 10 9 20 1 8 -6 56 -12 110 -13 53 0 98 -4 101
-9 3 -4 15 -8 27 -7 21 0 21 1 2 9 -12 6 95 7 265 2 157 -4 329 -7 382 -7 53
0 92 -3 85 -7 -17 -10 281 2 307 12 14 7 1 8 -44 6 -80 -3 -221 11 -234 24 -6
6 53 9 161 7 94 -1 166 -6 160 -10 -7 -4 9 -7 36 -5 26 2 47 1 47 -3 0 -3 13
-4 30 -1 17 2 27 9 23 15 -4 6 6 8 28 4 19 -3 81 -3 139 1 96 7 -178 16 -776
26 -45 0 -77 4 -71 8 6 4 129 6 272 4 213 -2 531 6 462 12 -10 1 -15 7 -12 12
4 6 -7 10 -24 10 -17 0 -31 4 -31 9 0 10 144 21 310 24 58 1 94 3 80 5 -52 8
-43 22 16 24 145 5 197 13 215 34 6 8 27 14 45 14 19 0 34 5 34 10 0 6 15 10
33 10 17 0 39 5 47 11 11 8 5 9 -27 6 -23 -3 -44 -2 -48 1 -3 3 -84 5 -180 3
-106 -2 -175 1 -175 7 0 5 21 12 48 16 111 16 183 32 190 43 4 6 30 18 57 27
l50 16 -60 -5 c-78 -6 -50 14 30 22 30 3 55 9 55 14 0 4 -19 12 -42 17 -37 9
-29 10 62 11 58 1 111 5 118 10 8 4 12 19 10 32 -2 19 -10 25 -36 27 -34 3
-35 22 -1 22 11 0 17 5 14 10 -3 5 -31 10 -61 10 -53 0 -54 1 -43 21 8 16 18
20 37 16 15 -3 47 -1 72 4 44 8 44 8 -10 4 -32 -3 -49 -1 -42 4 10 6 4 10 -18
14 -29 6 -30 8 -16 23 23 22 21 24 -24 18 -24 -4 -40 -2 -40 4 0 6 -8 13 -17
15 -13 3 -11 5 7 7 14 1 31 2 38 1 6 -1 12 3 12 9 0 5 6 10 14 10 8 0 18 5 21
10 4 7 -16 8 -57 4 -47 -4 -60 -3 -52 6 6 6 41 12 78 14 92 4 95 16 5 18 -47
1 -59 3 -31 5 34 3 42 8 42 24 0 11 -7 19 -17 20 -11 0 -13 3 -5 6 6 2 10 9 7
13 -3 5 -12 7 -20 3 -32 -12 -13 13 23 30 27 13 49 16 77 12 26 -5 70 0 126
14 48 12 98 21 112 21 14 0 28 7 31 16 8 20 9 20 -32 27 -24 5 -34 3 -38 -8
-4 -8 -11 -12 -16 -9 -6 4 -14 1 -18 -6 -6 -10 -15 -10 -45 0 -21 7 -69 10
-111 8 -41 -2 -74 -1 -74 2 0 9 84 31 132 36 79 7 167 27 165 38 -1 6 14 12
33 13 28 2 31 1 15 -7 -19 -8 -19 -9 3 -9 12 -1 22 4 22 9 0 6 11 8 25 4 34
-8 157 5 150 17 -4 5 2 9 12 9 10 0 26 9 35 19 15 18 15 20 -5 25 -12 3 -38 6
-57 7 -21 1 -27 3 -15 6 45 11 36 22 -13 16 -29 -3 -52 -2 -52 3 0 5 -19 8
-42 5 -38 -4 -40 -5 -18 -12 24 -7 24 -7 -5 -7 -16 0 -39 3 -50 7 -12 5 -28 3
-41 -5 -11 -8 -47 -19 -80 -25 -32 -6 -63 -15 -69 -20 -13 -13 -28 -11 -19 3
5 7 2 9 -8 5 -9 -3 -24 1 -35 8 -10 8 -22 14 -28 15 -5 0 3 -9 20 -20 26 -17
27 -20 10 -26 -18 -7 -18 -8 1 -16 12 -5 -3 -7 -39 -4 -34 3 -55 1 -52 -5 4
-5 1 -9 -4 -9 -6 0 -11 4 -11 9 0 5 -8 11 -17 13 -12 2 -1 11 29 23 54 22 64
40 18 30 -16 -4 -30 -3 -30 2 0 5 -18 9 -40 9 -41 1 -59 9 -47 20 3 3 42 8 86
11 45 3 81 9 81 13 0 4 22 10 50 14 27 4 52 11 55 16 8 12 25 13 25 2 0 -12
-49 -34 -60 -27 -5 3 -21 -6 -37 -19 l-28 -24 28 -6 c15 -3 38 -8 52 -11 14
-3 25 -1 25 4 0 6 6 8 14 5 8 -3 15 3 18 14 5 18 2 19 -23 12 -22 -7 -29 -5
-29 6 0 8 15 16 40 20 23 4 37 11 33 17 -3 5 -2 7 4 4 5 -3 45 0 89 8 43 8 85
14 92 15 7 0 11 4 8 9 -3 4 5 6 18 4 13 -3 27 0 30 6 4 6 22 11 39 12 18 0 41
5 52 10 16 7 13 8 -12 4 -18 -2 -33 0 -33 5 0 6 -12 10 -26 10 -14 0 -23 -4
-19 -10 10 -16 -21 -12 -35 5 -8 9 -8 15 -2 15 6 0 13 -6 15 -12 3 -8 6 -6 6
4 1 10 12 20 28 24 25 7 25 8 8 15 -30 11 -35 10 -35 -5 0 -12 -13 -14 -71 -9
-54 4 -74 2 -80 -8 -5 -8 -9 -9 -9 -4 0 12 -115 14 -126 2 -4 -4 8 -5 27 -2
19 3 27 2 19 -1 -8 -4 -17 -11 -20 -15 -7 -10 -42 -17 -88 -18 -18 -1 -31 -5
-28 -10 3 -5 -1 -12 -10 -15 -8 -3 -12 -2 -9 4 3 6 0 10 -8 10 -7 0 -14 7 -14
16 0 13 8 15 41 11 39 -5 76 8 76 29 0 4 -5 3 -12 -4 -7 -7 -23 -11 -38 -11
-23 2 -23 2 -2 6 12 2 22 8 22 12 0 13 58 34 79 28 26 -6 114 12 123 27 6 8 8
7 8 -1 0 -7 4 -13 8 -13 5 0 9 7 9 16 0 12 -10 14 -56 10 -31 -3 -47 -3 -36 0
11 3 27 8 35 11 8 3 34 7 58 8 24 1 47 6 52 11 5 5 -6 8 -28 8 -20 -1 -59 -3
-87 -4 -38 -1 -45 -4 -30 -10 19 -8 19 -9 -2 -9 -12 -1 -24 3 -27 8 -7 12 18
21 55 21 17 0 28 3 25 8 -2 4 13 6 33 4 57 -6 61 21 8 47 -23 12 -31 19 -18
15 22 -6 81 -14 106 -16 29 -1 132 16 145 24 12 7 10 8 -4 3 -19 -6 -19 -5 -1
15 13 14 22 17 29 10 5 -5 19 -11 31 -11 14 -1 11 -4 -10 -9 -28 -7 -28 -8 -5
-9 36 -1 71 10 64 20 -3 5 3 9 13 9 15 1 16 2 3 9 -8 5 -44 8 -80 7 -58 -2
-65 -5 -68 -24 -3 -16 -10 -22 -30 -22 -15 0 -38 -3 -52 -5 -14 -3 -19 -3 -12
1 6 3 10 9 7 13 -2 5 7 6 22 3 17 -3 24 -1 19 6 -3 6 2 15 11 21 16 9 16 10 1
11 -9 0 -19 -6 -22 -12 -4 -10 -8 -10 -11 -2 -3 7 -14 10 -23 9 -9 -2 -36 -6
-59 -8 -47 -6 -60 9 -15 16 17 2 8 5 -23 6 l-50 3 45 15 c95 33 70 51 -75 54
-79 1 -90 3 -53 8 43 6 78 21 49 21 -7 0 -9 5 -5 11 3 6 15 9 25 6 10 -3 22
-1 25 4 3 5 10 9 15 9 6 0 7 -4 4 -10 -3 -5 -2 -10 3 -10 6 0 12 7 16 15 4 10
-1 15 -16 15 -28 0 -98 -21 -98 -30 0 -13 -102 -20 -123 -8 -21 11 -21 11 2
20 13 5 57 11 98 15 57 5 71 9 62 19 -7 9 -19 10 -42 3 -47 -14 -90 -2 -84 22
3 10 1 19 -4 19 -5 0 -9 7 -9 15 0 12 -7 14 -27 9 -19 -4 -24 -3 -15 4 11 7
10 10 -3 16 -23 8 -27 8 -20 -4 3 -5 1 -10 -5 -10 -6 0 -13 7 -16 15 -4 8 -17
15 -30 15 -22 0 -23 3 -14 20 6 11 21 20 33 21 21 0 21 1 -3 10 -14 6 -38 8
-53 5 -15 -3 -26 -2 -23 3 3 5 22 12 43 16 20 4 46 13 56 20 17 12 9 14 -64
11 -53 -2 -77 0 -64 5 13 6 4 8 -27 5 -26 -3 -50 -1 -53 5 -6 8 28 14 68 11
20 -2 23 13 5 21 -7 2 -25 3 -39 1 -26 -2 -26 -2 -12 27 8 16 21 29 30 29 8 0
13 6 11 13 -5 13 -92 27 -109 16 -8 -5 -8 -8 0 -12 8 -4 8 -5 -1 -3 -18 4 -22
26 -4 26 23 0 20 17 -5 31 -17 9 -19 13 -8 20 9 6 -1 9 -31 9 -30 0 -40 3 -31
9 7 5 32 7 55 5 36 -3 38 -2 11 5 -25 7 -26 9 -7 10 12 0 22 6 22 11 0 6 -10
10 -22 10 -23 1 -23 1 -3 16 19 14 17 15 -29 12 -31 -2 -50 1 -53 9 -3 8 4 10
21 7 21 -3 26 0 26 16 0 13 -7 20 -18 20 -10 0 -19 7 -19 15 0 9 5 14 11 12 6
-3 17 2 24 9 11 12 4 14 -42 14 -60 0 -68 14 -28 49 l23 19 -25 -2 c-13 0 -22
-3 -20 -5 6 -6 -67 -31 -90 -31 -11 0 -16 3 -12 7 3 4 -3 12 -15 19 -21 11
-20 12 22 19 24 4 50 12 56 17 7 6 30 7 50 4 36 -6 37 -6 18 9 -11 8 -25 13
-33 10 -7 -2 -10 0 -7 5 3 6 18 10 33 10 l27 0 -30 15 c-47 25 -72 65 -39 65
11 0 14 -6 9 -21 -5 -16 -3 -20 12 -17 10 2 17 -2 15 -9 -1 -7 2 -13 8 -13 5
0 10 4 10 10 0 17 45 40 67 34 15 -4 20 -11 15 -22 -5 -14 -4 -15 10 -2 15 14
14 16 -15 29 -36 16 -58 20 -172 27 -116 7 -110 6 -89 21 17 12 17 13 -4 13
-12 0 -22 5 -22 11 0 6 7 8 16 5 8 -3 12 -2 9 4 -3 6 -1 10 5 10 6 0 23 12 37
28 17 17 24 21 20 10 -4 -12 -1 -18 8 -18 20 0 19 -17 -2 -28 -32 -19 -23 -38
17 -38 21 1 42 4 46 9 11 11 56 9 49 -3 -3 -6 4 -10 17 -10 18 0 20 2 8 10
-13 8 -12 10 4 10 14 0 17 3 9 11 -5 5 -33 11 -62 11 -28 1 -51 6 -51 11 0 6
3 7 7 4 3 -4 12 -2 20 4 7 6 13 8 13 4 0 -4 6 -3 13 3 7 6 28 13 46 14 25 2
31 6 28 20 -3 9 0 19 6 21 6 2 -19 4 -56 5 -48 1 -67 -2 -67 -10 0 -9 -3 -10
-8 -2 -12 18 -53 24 -59 8 -3 -8 -9 -11 -14 -8 -19 11 -8 23 27 30 19 4 38 12
40 18 3 7 37 12 86 13 65 2 88 6 109 22 16 12 44 21 65 21 20 0 46 8 59 18 22
18 23 20 7 35 -15 16 -15 17 2 17 10 0 20 -9 23 -20 3 -11 10 -20 15 -20 6 0
8 7 5 15 -4 8 -1 17 5 21 15 9 -31 33 -62 33 l-25 -1 25 -8 c18 -6 9 -8 -35
-8 -57 1 -94 -6 -192 -36 -37 -11 -41 -11 -35 3 3 10 -5 7 -23 -9 -19 -17 -29
-21 -32 -12 -3 6 -11 12 -19 12 -9 0 -12 5 -9 10 4 6 16 8 28 6 13 -4 9 0 -8
9 -16 8 -26 14 -21 15 5 0 3 6 -3 14 -9 11 -7 15 11 19 13 2 32 8 42 12 17 7
16 5 -3 -14 -13 -13 -20 -25 -17 -28 10 -11 86 -20 86 -11 0 5 9 6 20 3 14 -4
20 -2 20 8 0 20 -25 28 -40 14 -10 -10 -12 -7 -7 11 4 17 1 22 -16 23 -21 1
-21 2 -2 6 11 3 24 9 29 14 16 15 29 10 16 -6 -10 -12 -9 -15 7 -15 30 0 256
49 275 60 10 6 26 11 35 12 10 0 -2 4 -26 7 -25 3 -46 12 -49 20 -3 10 0 12
12 8 9 -4 16 -1 16 6 0 8 3 7 9 -2 8 -13 22 -13 93 -2 46 7 100 15 121 18 20
3 37 9 37 14 0 5 12 9 28 9 15 0 34 5 42 11 11 8 3 8 -30 3 -25 -4 -85 -8
-135 -8 -49 0 -93 -4 -96 -9 -4 -5 -14 -5 -25 0 -11 6 -30 7 -44 2 -14 -4 -18
-8 -10 -9 8 -1 0 -6 -19 -12 -19 -5 -37 -6 -42 -1 -5 5 -42 6 -82 1 -39 -4
-80 -5 -89 -2 -10 3 -26 0 -35 -6 -15 -8 -13 -9 10 -4 16 4 27 2 27 -4 0 -6 8
-13 18 -15 9 -2 4 -4 -13 -5 -16 0 -48 -2 -70 -6 l-40 -6 24 20 c24 21 14 24
-29 10 -14 -4 -19 -8 -12 -9 18 -1 15 -21 -4 -21 -22 0 -13 34 10 38 11 2 28
13 39 23 16 14 34 19 71 17 55 -2 203 24 235 41 25 14 34 14 25 0 -5 -9 31
-10 137 -7 89 3 144 9 147 16 2 6 10 8 18 5 10 -4 12 0 8 12 -5 12 -13 15 -28
10 -70 -23 -113 -32 -125 -27 -17 7 -12 8 52 17 73 10 56 23 -25 19 -40 -2
-106 -4 -145 -5 -40 -1 -73 -6 -73 -11 0 -4 -7 -8 -16 -8 -30 0 15 32 49 35
17 1 33 7 35 14 2 7 9 6 19 -4 11 -11 19 -13 28 -5 7 6 19 8 27 5 8 -3 26 3
39 14 13 11 18 20 12 21 -7 0 -13 4 -13 10 0 5 7 7 15 4 8 -4 21 -2 28 4 27
21 67 23 88 3 24 -22 57 -18 38 5 -6 8 -18 14 -26 14 -8 0 -11 5 -8 11 4 6 13
8 21 5 8 -3 14 -3 14 0 0 3 -14 10 -31 16 l-30 10 31 19 c30 19 33 39 5 39 -7
0 -15 10 -17 23 -2 14 -11 23 -25 25 -23 3 -33 22 -11 22 17 0 3 11 -19 14
-10 2 -17 10 -15 18 3 19 -48 44 -58 28 -10 -16 -72 -16 -145 -1 -33 7 -89 16
-125 21 -36 4 -78 12 -95 18 -33 11 -39 10 100 17 371 18 382 20 382 41 0 17
-14 21 -102 29 -38 3 -83 9 -99 12 -19 3 -26 2 -22 -6 10 -16 -8 -20 -102 -25
-48 -2 -85 0 -88 6 -4 6 6 9 22 8 47 -3 66 -1 60 8 -3 5 -30 7 -61 4 -30 -2
-55 0 -55 5 0 5 8 10 18 11 9 1 46 6 82 10 l65 7 -80 13 c-43 7 -90 19 -102
28 -13 8 -28 12 -33 9 -6 -3 -10 1 -10 9 0 12 -11 16 -42 17 -107 2 -183 10
-190 22 -4 6 -3 14 2 15 6 2 10 12 10 21 0 13 17 25 53 39 28 11 44 21 34 21
-20 1 -57 77 -57 116 0 26 -22 35 -88 35 -29 0 -50 6 -65 21 -15 14 -30 19
-47 15 -14 -4 -83 -8 -155 -11 -126 -4 -128 -4 -72 9 62 14 84 26 48 26 -12 0
-20 4 -17 9 6 9 60 6 76 -4 5 -3 24 1 42 8 18 8 49 17 70 21 20 3 39 13 42 21
3 9 0 14 -7 13 -7 -1 -70 -4 -142 -7z"/>
</g>
</svg>
